<svg xmlns="http://www.w3.org/2000/svg" xmlns:xlink="http://www.w3.org/1999/xlink" viewBox="0 0 126.76 149.87"><defs><clipPath id="a"><rect width="126.76" height="149.87" style="fill:none"/></clipPath><radialGradient id="b" cx="1148.91" cy="5895.55" r="20.6" gradientTransform="matrix(0.5, 0.86, -0.86, 0.5, 4638.33, -3934.06)" gradientUnits="userSpaceOnUse"><stop offset="0.11" stop-color="#fce92e"/><stop offset="0.75" stop-color="#f5b75d"/></radialGradient></defs><title>button</title><g style="clip-path:url(#a)"><path d="M34.8,86c-.25,1-.42,2.13-.62,3.18,1,.5,1.91,1,2.84,1.58a21.66,21.66,0,0,0-3.21.2,9.05,9.05,0,0,1-.91,2.37c-.26-.52-.62-1.28-1-2.11-.95.13-1.79.25-2.34.29a6.8,6.8,0,0,1,1.48-2A20.93,20.93,0,0,0,29.41,87c1,.41,2,.85,3,1.31A27.54,27.54,0,0,0,34.8,86Z" style="fill:#f37024"/><path d="M13.89,42.86A5,5,0,0,0,13.22,45,4.67,4.67,0,0,1,11,42.45c-.37-1.8.75-2.41,2.4-3.4a14,14,0,0,0,.7,2.85,24.41,24.41,0,0,1,0-3.28l.49-.32-.47.1c.1-1.42.34-2.8.85-3.22,1.39-1.17,3.14,0,5.11,1-.06.06-.11.12-.17.17.13,0,.26,0,.38-.06a11,11,0,0,0,1.06.46c-.25-.16-.49-.34-.74-.53,1.22-.3,2.34-.84,3.34.18a4.86,4.86,0,0,1,1.16,2.57,13.91,13.91,0,0,0-1.26-.66s2.65,2.3,1.73,3.82a10.32,10.32,0,0,1-1.36,1.57c0-.25-.13-.5-.21-.76a4.65,4.65,0,0,1,.16.81,3.39,3.39,0,0,1-.66.52,4.13,4.13,0,0,0,.67-.33,2.16,2.16,0,0,1-1,1.94,9.28,9.28,0,0,1-2.86.89l.13-.2a3.13,3.13,0,0,1-.31.23c-.2,0-.39.06-.55.07h.47c-1,.6-2.93,1.13-4.11.51C14.45,46.54,14.15,45.3,13.89,42.86Z" style="fill:#fff"/><path d="M13.19,38.47c-2.66.75-3.86,2.23-3.56,4.4a2.45,2.45,0,0,0,.53,1.2,5,5,0,0,0,2.93,1.58A4.28,4.28,0,0,0,14,48a4,4,0,0,0,1.22,1c1.3.71,3.62.13,5.13-2.06a5.8,5.8,0,0,0,3.28-.81,2.12,2.12,0,0,0,.77-2.2,4.9,4.9,0,0,0,2.22-2.66,1.76,1.76,0,0,0-.35-1.57,3.42,3.42,0,0,0-.58-.55c.41-2,.19-3.57-.68-4.66l-.25-.3a1.76,1.76,0,0,0-1.22-.57c-1,0-2,.92-3.26,2.14-.39-.31-.77-.63-1.14-.94-1.86-1.57-3.63-3-5-1.87C13.26,33.75,12.89,35.81,13.19,38.47Zm1.87-3.19c1.14-1,2.58-.23,4.24.63l.55.28-.3.31.38,0,.34-.05c.29.14.66.31,1,.45l1.1.42-1-.66q-.25-.16-.51-.36l.27-.07c1-.28,1.87-.52,2.66.29a2.91,2.91,0,0,1,.24.27,4.59,4.59,0,0,1,.82,1.92c-.3-.17-.62-.32-.91-.46L23.62,38l.11.31,0,0a.46.46,0,0,0,.07.07,9.67,9.67,0,0,1,.93,1c.59.74,1.18,1.79.7,2.57a8.82,8.82,0,0,1-1.16,1.39c-.05-.18-.1-.36-.16-.54l-.26.08a3.31,3.31,0,0,1,.15.72,3.41,3.41,0,0,1-.58.45l-2.17,1.12,2.28-.87a5.12,5.12,0,0,0,.48-.23,2,2,0,0,1-.92,1.6,8.87,8.87,0,0,1-2.51.82l.46-.77-.7.65a2.43,2.43,0,0,1-.29.22l-.49,0v.23a4.5,4.5,0,0,1-3.58.29,3.13,3.13,0,0,1-1-.82c-.58-.74-.79-1.78-1-3.55l0-.42-.21.37a5.32,5.32,0,0,0-.67,2,6.56,6.56,0,0,1-1.42-1.3,2.58,2.58,0,0,1-.55-1.08c-.34-1.64.6-2.21,2.17-3.15A13.87,13.87,0,0,0,14,41.94l.36,1-.1-1a24.5,24.5,0,0,1,0-3.19l.44-.29.55-.36-1,.18C14.4,36.65,14.68,35.6,15.06,35.28Z" style="fill:#323535"/><path d="M19.6,46.84h0Z" style="fill:#323535"/><path d="M24,42.91c-.06-.18-.13-.37-.2-.55C23.86,42.49,23.94,42.68,24,42.91Z" style="fill:#323535"/><path d="M23.75,42.19l.06.17C23.77,42.26,23.74,42.2,23.75,42.19Z" style="fill:#323535"/><polygon points="14.96 45.01 34.21 49.06 34.52 48.87 18.74 37.13 14.96 45.01" style="fill:#fff"/><polygon points="29.65 47.03 17.24 41.45 18.11 42.78 29.65 47.03" style="fill:#323535"/><polygon points="31.99 46.94 24.53 41.81 24.06 41.09 31.99 46.94" style="fill:#323535"/><polygon points="32.77 47.85 21.15 41.89 20.47 40.66 32.77 47.85" style="fill:#323535"/><polygon points="19.86 45.38 17.59 45.77 35.43 49.28 19.86 45.38" style="fill:#323535"/><polygon points="32.3 48.64 19.75 45.59 18.34 45.84 32.3 48.64" style="fill:#fff"/><path d="M51.17,43.05a2.35,2.35,0,0,1-.6.19l0,0a4.46,4.46,0,0,0,.37.42,4,4,0,0,0,.53.43,5.26,5.26,0,0,0,.67.35,3.17,3.17,0,0,0,.79.24,2.8,2.8,0,0,0,.87,0,3,3,0,0,0,.85-.22l.09,0,.33-.17.31-.2a4,4,0,0,0,.57-.51,3.51,3.51,0,0,0,.4-.53,3.07,3.07,0,0,0,.22-.38,4.46,4.46,0,0,1-.46-.11,3.39,3.39,0,0,1-.6-.25,3.54,3.54,0,0,1-.45-.28,2.81,2.81,0,0,1-.3-.26l-.22-.23.19-.51a3.4,3.4,0,0,1-.6.36,3.53,3.53,0,0,1-1.26.3,2.73,2.73,0,0,1-.71-.06l-.14.8,0,0s-.08.08-.16.14l-.27.19A4.36,4.36,0,0,1,51.17,43.05Z" style="fill:#fff"/><path d="M54.93,31.92h0v0l-.07-.13c0-.08-.1-.16-.16-.24a2.73,2.73,0,0,0-.9-.71,2.6,2.6,0,0,0-1.31-.24,2.35,2.35,0,0,0-1.19.49,2.51,2.51,0,0,0-.74,1,2.72,2.72,0,0,0-.18.55l0,.14v.06h0s0,0,0,.05h-.23a.5.5,0,0,0-.17,0,2.6,2.6,0,0,0-.63,0,2.56,2.56,0,0,0-1.05.5,2.17,2.17,0,0,0-.6.81,2.39,2.39,0,0,0-.18.83,2.3,2.3,0,0,0,.26,1.12,1.54,1.54,0,0,0,.16.26.11.11,0,0,0,0,0l0,0-.14-.27a2.26,2.26,0,0,1-.15-1.1,2.35,2.35,0,0,1,.23-.76,2,2,0,0,1,.59-.68,2.19,2.19,0,0,1,.94-.37,2,2,0,0,1,.54,0l.14,0,.1,0,.06,0,.24.09.28.1c0-.15,0-.3,0-.45s0-.08,0-.12v-.06l0-.11a2.07,2.07,0,0,1,.17-.45,2.15,2.15,0,0,1,.63-.75,1.77,1.77,0,0,1,.94-.37,1.92,1.92,0,0,1,1,.2,2,2,0,0,1,.71.57l.13.18.06.1,0,.09.1.22s0,0,0,0h.06l.2,0,.2,0h.11a2.62,2.62,0,0,1,1.65.44,2.67,2.67,0,0,1,1,1.19A2.53,2.53,0,0,1,58,35.42a3.12,3.12,0,0,1-.42,1.1,3.07,3.07,0,0,1-.51.62l-.08.07-.13.1a3.94,3.94,0,0,1-.36.23l-.19.08.2-.06.4-.19.13-.08.1-.06a3.07,3.07,0,0,0,1.17-1.74,2.73,2.73,0,0,0-.07-1.59,2.79,2.79,0,0,0-.43-.79,3.34,3.34,0,0,0-.7-.65,3.18,3.18,0,0,0-2-.55h-.19ZM51.64,29.3a3.15,3.15,0,0,1,.59-.35,3.26,3.26,0,0,1,1-.28,3.54,3.54,0,0,1,1.21,0,3.85,3.85,0,0,1,1.12.44,3.41,3.41,0,0,1,.78.61,3.76,3.76,0,0,1,.44.53,1,1,0,0,1,.13.22,1.33,1.33,0,0,0-.09-.24L56.67,30a3.81,3.81,0,0,0-.22-.34,3.21,3.21,0,0,0-.76-.76,3,3,0,0,0-.56-.31,3,3,0,0,0-2-.15,3.11,3.11,0,0,0-1,.42,3.57,3.57,0,0,0-.56.43c-.1.1-.16.17-.18.18Zm.16,13.28a2.38,2.38,0,0,1-.71.19,2.49,2.49,0,0,1-.49,0h-.35l-.19,0a3.53,3.53,0,0,1-1.17-.37,3.47,3.47,0,0,1-.94-.79,2.45,2.45,0,0,1-.26-.37l0-.08,0-.06a3.39,3.39,0,0,1-.18-.39,2.87,2.87,0,0,1-.18-.7c0-.09,0-.16,0-.2v-.07a.17.17,0,0,0,0,.07,1.78,1.78,0,0,0,0,.2,3.26,3.26,0,0,0,0,.76l0,.16A1.74,1.74,0,0,1,47,40.8a5.15,5.15,0,0,1-.61-.42,6.65,6.65,0,0,1-.6-.59,4.63,4.63,0,0,1-.52-.76,5,5,0,0,1-.37-.89,4.64,4.64,0,0,1-.14-1,5.47,5.47,0,0,1,.06-.92,4.79,4.79,0,0,1,.21-.81,6.2,6.2,0,0,1,.32-.68,4.19,4.19,0,0,1,.3-.44c0,.11,0,.21.08.32a5.48,5.48,0,0,0,.42,1.05,5.31,5.31,0,0,0,.55.82,6.31,6.31,0,0,0,.55.58,4.91,4.91,0,0,0,.47.37,2.76,2.76,0,0,0,.32.21l.1.07s0,0-.09-.08-.17-.13-.29-.24l-.19-.19L47.31,37a4.91,4.91,0,0,1-.46-.63,5.25,5.25,0,0,1-.43-.82,5.7,5.7,0,0,1-.33-1c0-.21-.08-.43-.1-.65a.17.17,0,0,1,0-.07,2,2,0,0,1,0-.43A4.76,4.76,0,0,1,46.53,31a5.82,5.82,0,0,1,.64-1,5,5,0,0,1,.76-.76,6.52,6.52,0,0,1,.77-.52c.18-.1.35-.19.51-.26l.16-.07h0c.15-.06.3-.1.42-.14l.14,0,.37-.07.1,0h-.1a3.8,3.8,0,0,0-.38,0h-.09a4.71,4.71,0,0,1,.38-.62,4.33,4.33,0,0,1,1.11-1.06,4.25,4.25,0,0,1,.71-.35,4,4,0,0,1,.72-.19,4.25,4.25,0,0,1,.69-.07h.05l-.15.2a2.49,2.49,0,0,0-.17.31,2.13,2.13,0,0,0-.09.21l0,.07,0-.06a1.77,1.77,0,0,1,.12-.19,2.38,2.38,0,0,1,.22-.27,2.7,2.7,0,0,1,.3-.27.1.1,0,0,0,.05,0,2.71,2.71,0,0,1,.38-.22.31.31,0,0,1,.1,0,2.55,2.55,0,0,1,.59-.19,2.85,2.85,0,0,1,.66-.06,2.64,2.64,0,0,1,.68.13,3.07,3.07,0,0,1,1.09.75,3.38,3.38,0,0,1,.61.95l0,.14c0,.07.05.14.07.2s0,.06,0,.09a2.86,2.86,0,0,1,.06.35,1.59,1.59,0,0,1,0,.22v.08a.33.33,0,0,0,0-.08A1.06,1.06,0,0,0,58.2,28q0-.15.06-.36h0a5.34,5.34,0,0,1,.78.36,6.39,6.39,0,0,1,.79.56,5.2,5.2,0,0,1,.73.75,4.94,4.94,0,0,1,.58.94,4.44,4.44,0,0,1,.34,1.05,5.25,5.25,0,0,1,.09,1,4.89,4.89,0,0,1-.09,1,5.58,5.58,0,0,1-.22.81,5.08,5.08,0,0,1-.26.61,1.09,1.09,0,0,1-.08.15,2,2,0,0,1-.22.36,2.22,2.22,0,0,1-.21.28l-.07.09.09-.07c.06-.06.16-.12.27-.23l.18-.18.1-.11a2.71,2.71,0,0,1,.46.8,2.79,2.79,0,0,1,.09,1.36,3.38,3.38,0,0,1-.36,1.07.94.94,0,0,1-.12.22.61.61,0,0,1-.07.1,4.54,4.54,0,0,1-.67.79,4.34,4.34,0,0,1-.36.31,1.67,1.67,0,0,0-.3-.51l-.17-.18,0,0,0,0a1,1,0,0,1,.14.2,1.86,1.86,0,0,1,.18.6v.08a.76.76,0,0,1,0,.15,2,2,0,0,1-.07.47,2.16,2.16,0,0,1-.19.45c0,.07-.09.14-.15.21a3,3,0,0,1-1.15.88,3.28,3.28,0,0,1-.5.17l-.24.07-.23,0a4.22,4.22,0,0,1-.49,0h-.13a4.51,4.51,0,0,1-.54,0,3.28,3.28,0,0,1-.58-.14,3.4,3.4,0,0,1-.46-.18l-.34-.17a2.13,2.13,0,0,1-.21-.13l-.06,0,.19-.51a3.23,3.23,0,0,0,.27-.23,3.33,3.33,0,0,0,.27-.29l.19-.24.14-.21-.18.18a3.07,3.07,0,0,1-.53.41,4.51,4.51,0,0,1-.88.44,4.19,4.19,0,0,1-1.16.24,4.05,4.05,0,0,1-1.18-.11,3.84,3.84,0,0,1-.93-.36,4.15,4.15,0,0,1-.55-.38L50,40.35l.16.19a4.23,4.23,0,0,0,.51.47,3.76,3.76,0,0,0,.92.5,3.16,3.16,0,0,0,.57.16l-.14.8-.06,0Zm.39-4a1.63,1.63,0,0,0,.37-.07,1.42,1.42,0,0,0,.26-.1l.21-.11-.22,0a1.1,1.1,0,0,1-.27,0,2.06,2.06,0,0,1-.34,0,2,2,0,0,1-.39-.1,3.89,3.89,0,0,1-.42-.19,2.2,2.2,0,0,1-.75-.68,2.79,2.79,0,0,1-.24-.45,2,2,0,0,1-.09-.48A1.1,1.1,0,0,1,51,35.28a.73.73,0,0,1,.22-.05H51a1.09,1.09,0,0,0-.61.26,1.42,1.42,0,0,0-.46.91,1.83,1.83,0,0,0,.3,1.21,2.11,2.11,0,0,0,1,.78,1.76,1.76,0,0,0,.52.14A2.4,2.4,0,0,0,52.19,38.53Z" style="fill:#fff"/><path d="M54.15,41.43a3.4,3.4,0,0,0,.6-.36,3.23,3.23,0,0,0,.27-.23,3.33,3.33,0,0,0,.27-.29l.19-.24.14-.21-.18.18a3.07,3.07,0,0,1-.53.41,4.51,4.51,0,0,1-.88.44,4.19,4.19,0,0,1-1.16.24,4.05,4.05,0,0,1-1.18-.11,3.84,3.84,0,0,1-.93-.36,4.15,4.15,0,0,1-.55-.38L50,40.35l.16.19a4.23,4.23,0,0,0,.51.47,3.76,3.76,0,0,0,.92.5,3.16,3.16,0,0,0,.57.16,2.73,2.73,0,0,0,.71.06A3.53,3.53,0,0,0,54.15,41.43Z" style="fill:#343536"/><path d="M51,35.22a1.09,1.09,0,0,0-.61.26,1.42,1.42,0,0,0-.46.91,1.83,1.83,0,0,0,.3,1.21,2.11,2.11,0,0,0,1,.78,1.76,1.76,0,0,0,.52.14,2.4,2.4,0,0,0,.46,0,1.63,1.63,0,0,0,.37-.07,1.42,1.42,0,0,0,.26-.1l.21-.11-.22,0a1.1,1.1,0,0,1-.27,0,2.06,2.06,0,0,1-.34,0,2,2,0,0,1-.39-.1,3.89,3.89,0,0,1-.42-.19,2.2,2.2,0,0,1-.75-.68,2.79,2.79,0,0,1-.24-.45,2,2,0,0,1-.09-.48A1.1,1.1,0,0,1,51,35.28a.73.73,0,0,1,.22-.05H51Z" style="fill:#343536"/><path d="M55.12,31.91h-.24v0l-.07-.13c0-.08-.1-.16-.16-.24a2.73,2.73,0,0,0-.9-.71,2.6,2.6,0,0,0-1.31-.24,2.35,2.35,0,0,0-1.19.49,2.51,2.51,0,0,0-.74,1,2.72,2.72,0,0,0-.18.55l0,.14v.06h0s0,0,0,.05h-.23a.5.5,0,0,0-.17,0,2.6,2.6,0,0,0-.63,0,2.56,2.56,0,0,0-1.05.5,2.17,2.17,0,0,0-.6.81,2.39,2.39,0,0,0-.18.83,2.3,2.3,0,0,0,.26,1.12,1.54,1.54,0,0,0,.16.26.11.11,0,0,0,0,0l0,0-.14-.27a2.26,2.26,0,0,1-.15-1.1,2.35,2.35,0,0,1,.23-.76,2,2,0,0,1,.59-.68,2.19,2.19,0,0,1,.94-.37,2,2,0,0,1,.54,0l.14,0,.1,0,.06,0,.24.09.28.1c0-.15,0-.3,0-.45s0-.08,0-.12v-.06l0-.11a2.07,2.07,0,0,1,.17-.45,2.15,2.15,0,0,1,.63-.75,1.77,1.77,0,0,1,.94-.37,1.92,1.92,0,0,1,1,.2,2,2,0,0,1,.71.57l.13.18.06.1,0,.09.1.22s0,0,0,0h.06l.2,0,.2,0h.11a2.62,2.62,0,0,1,1.65.44,2.67,2.67,0,0,1,1,1.19A2.53,2.53,0,0,1,58,35.42a3.12,3.12,0,0,1-.42,1.1,3.07,3.07,0,0,1-.51.62l-.08.07-.13.1a3.94,3.94,0,0,1-.36.23l-.19.08.2-.06.4-.19.13-.08.1-.06a3.07,3.07,0,0,0,1.17-1.74,2.73,2.73,0,0,0-.07-1.59,2.79,2.79,0,0,0-.43-.79,3.34,3.34,0,0,0-.7-.65A3.18,3.18,0,0,0,55.12,31.91Z" style="fill:#343536"/><path d="M61.16,48.84c-1-.79-2.2-1.7-3.49-2.65l-2.18-1.57.18-.15a3.64,3.64,0,0,0,.57-.62,4.23,4.23,0,0,0,.36-.64,2.79,2.79,0,0,0,.17-.48l.09,0a3.48,3.48,0,0,0,1,0l.37.38c1.53,1.55,3,2.95,4.13,4.06l.21-.21c-1.11-1.17-2.5-2.61-4-4.15l-.19-.19.27-.11a2.77,2.77,0,0,0,1.32-1.15l0-.09.48.6C61.33,43,62.2,44,63,45c.27.33.54.64.8.94L64,45.8l.12-.07-.79-1c-.78-1-1.65-2.06-2.57-3.17l-.66-.79a.94.94,0,0,0,0-.16,2.48,2.48,0,0,0,0-.67,1.41,1.41,0,0,0-.06-.22l0-.11a1.67,1.67,0,0,0-.3-.51l-.17-.18,0,0,0,0a1,1,0,0,1,.14.2,1.86,1.86,0,0,1,.18.6v.08a.76.76,0,0,1,0,.15,2,2,0,0,1-.07.47,2.16,2.16,0,0,1-.19.45c0,.07-.09.14-.15.21a3,3,0,0,1-1.15.88,3.28,3.28,0,0,1-.5.17l-.24.07-.23,0a4.22,4.22,0,0,1-.49,0h-.13a4.51,4.51,0,0,1-.54,0,3.28,3.28,0,0,1-.58-.14,3.4,3.4,0,0,1-.46-.18l-.34-.17a2.13,2.13,0,0,1-.21-.13l-.06,0,.22.23a2.81,2.81,0,0,0,.3.26,3.54,3.54,0,0,0,.45.28,3.39,3.39,0,0,0,.6.25,4.46,4.46,0,0,0,.46.11,3.07,3.07,0,0,1-.22.38,3.51,3.51,0,0,1-.4.53,4,4,0,0,1-.57.51l-.31.2-.33.17-.09,0a3,3,0,0,1-.85.22,2.8,2.8,0,0,1-.87,0,3.17,3.17,0,0,1-.79-.24,5.26,5.26,0,0,1-.67-.35,4,4,0,0,1-.53-.43,4.46,4.46,0,0,1-.37-.42l0,0a2.35,2.35,0,0,0,.6-.19,4.36,4.36,0,0,0,.39-.21l.27-.19c.08-.06.12-.11.16-.14l0,0-.06,0-.18.08a2.38,2.38,0,0,1-.71.19,2.49,2.49,0,0,1-.49,0h-.35l-.19,0a3.53,3.53,0,0,1-1.17-.37,3.47,3.47,0,0,1-.94-.79,2.45,2.45,0,0,1-.26-.37l0-.08,0-.06a3.39,3.39,0,0,1-.18-.39,2.87,2.87,0,0,1-.18-.7c0-.09,0-.16,0-.2v-.07a.17.17,0,0,0,0,.07,1.78,1.78,0,0,0,0,.2,3.26,3.26,0,0,0,0,.76l0,.16A1.74,1.74,0,0,1,47,40.8a5.15,5.15,0,0,1-.61-.42,6.65,6.65,0,0,1-.6-.59,4.63,4.63,0,0,1-.52-.76,5,5,0,0,1-.37-.89,4.64,4.64,0,0,1-.14-1,5.47,5.47,0,0,1,.06-.92,4.79,4.79,0,0,1,.21-.81,6.2,6.2,0,0,1,.32-.68,4.19,4.19,0,0,1,.3-.44c0,.11,0,.21.08.32a5.48,5.48,0,0,0,.42,1.05,5.31,5.31,0,0,0,.55.82,6.31,6.31,0,0,0,.55.58,4.91,4.91,0,0,0,.47.37,2.76,2.76,0,0,0,.32.21l.1.07s0,0-.09-.08-.17-.13-.29-.24l-.19-.19L47.31,37a4.91,4.91,0,0,1-.46-.63,5.25,5.25,0,0,1-.43-.82,5.7,5.7,0,0,1-.33-1c0-.21-.08-.43-.1-.65a.17.17,0,0,1,0-.07,2,2,0,0,1,0-.43A4.76,4.76,0,0,1,46.53,31a5.82,5.82,0,0,1,.64-1,5,5,0,0,1,.76-.76,6.52,6.52,0,0,1,.77-.52c.18-.1.35-.19.51-.26l0-.14a6.12,6.12,0,0,0-.58.22,5.31,5.31,0,0,0-.85.48,5.66,5.66,0,0,0-.86.73,5.16,5.16,0,0,0-.76,1,4.85,4.85,0,0,0-.65,2.61,3.67,3.67,0,0,0,.08.75l0,0a4.14,4.14,0,0,0-.44.47,6.29,6.29,0,0,0-.44.66,4.17,4.17,0,0,0-.34.86,3.63,3.63,0,0,0-.17,1,3.87,3.87,0,0,0,.13,1.11,4.15,4.15,0,0,0,.44,1,4,4,0,0,0,.66.8,4.67,4.67,0,0,0,.73.57,4.62,4.62,0,0,0,.72.34,3,3,0,0,0,.43.14,2.89,2.89,0,0,0,.31.71,2.8,2.8,0,0,0,1.74,1.33,2.89,2.89,0,0,0,.7.08l.39,0a.36.36,0,0,0,0,.09,3.74,3.74,0,0,0,.3.52,4.74,4.74,0,0,0,.49.55,3.77,3.77,0,0,0,.7.49,3.16,3.16,0,0,0,.91.32,3.5,3.5,0,0,0,1,0,3.45,3.45,0,0,0,1-.29,2.27,2.27,0,0,0,.31-.17l2.24,1.7c1.3,1,2.54,1.88,3.6,2.63A3.09,3.09,0,0,1,61.16,48.84Z" style="fill:#343536"/><path d="M55.13,28.57a3,3,0,0,0-2-.15,3.11,3.11,0,0,0-1,.42,3.57,3.57,0,0,0-.56.43c-.1.1-.16.17-.18.18l.2-.15a3.15,3.15,0,0,1,.59-.35,3.26,3.26,0,0,1,1-.28,3.54,3.54,0,0,1,1.21,0,3.85,3.85,0,0,1,1.12.44,3.41,3.41,0,0,1,.78.61,3.76,3.76,0,0,1,.44.53,1,1,0,0,1,.13.22,1.33,1.33,0,0,0-.09-.24L56.67,30a3.81,3.81,0,0,0-.22-.34,3.21,3.21,0,0,0-.76-.76A3,3,0,0,0,55.13,28.57Z" style="fill:#343536"/><path d="M65.33,45.25l.23,0c-.88-1.52-2-3.45-3.35-5.53l-.72-1.15A3.11,3.11,0,0,0,62,37.18a2.72,2.72,0,0,0-.2-1.54,2.28,2.28,0,0,0-.63-.83,3.2,3.2,0,0,0,.42-.59,4.7,4.7,0,0,0,.38-.84,4.75,4.75,0,0,0,.23-1.05,4.6,4.6,0,0,0-.41-2.44,4.49,4.49,0,0,0-.73-1.07,4.64,4.64,0,0,0-.92-.76,5,5,0,0,0-1-.47,5.65,5.65,0,0,0-.88-.22h-.07a2.3,2.3,0,0,0,0-.26,2.4,2.4,0,0,0-.15-.6,2.59,2.59,0,0,0-.34-.63,2.8,2.8,0,0,0-.57-.57,2.73,2.73,0,0,0-.79-.37,2.85,2.85,0,0,0-.86-.08,2.35,2.35,0,0,0-.77.17,2.58,2.58,0,0,0-.62.32l-.27.2a3.73,3.73,0,0,0-1.15-.12A3.6,3.6,0,0,0,51,26a4,4,0,0,0-.73.61,3.28,3.28,0,0,0-.5.71,4.34,4.34,0,0,0-.3.73c0,.1,0,.2-.07.29h0l-.17.05,0,.14.16-.07h0c.15-.06.3-.1.42-.14l.14,0,.37-.07.1,0h-.1a3.8,3.8,0,0,0-.38,0h-.09a4.71,4.71,0,0,1,.38-.62,4.33,4.33,0,0,1,1.11-1.06,4.25,4.25,0,0,1,.71-.35,4,4,0,0,1,.72-.19,4.25,4.25,0,0,1,.69-.07h.05l-.15.2a2.49,2.49,0,0,0-.17.31,2.13,2.13,0,0,0-.09.21l0,.07,0-.06a1.77,1.77,0,0,1,.12-.19,2.38,2.38,0,0,1,.22-.27,2.7,2.7,0,0,1,.3-.27.1.1,0,0,0,.05,0,2.71,2.71,0,0,1,.38-.22.31.31,0,0,1,.1,0,2.55,2.55,0,0,1,.59-.19,2.85,2.85,0,0,1,.66-.06,2.64,2.64,0,0,1,.68.13,3.07,3.07,0,0,1,1.09.75,3.38,3.38,0,0,1,.61.95l0,.14c0,.07.05.14.07.2s0,.06,0,.09a2.86,2.86,0,0,1,.06.35,1.59,1.59,0,0,1,0,.22v.08a.33.33,0,0,0,0-.08A1.06,1.06,0,0,0,58.2,28q0-.15.06-.36h0a5.34,5.34,0,0,1,.78.36,6.39,6.39,0,0,1,.79.56,5.2,5.2,0,0,1,.73.75,4.94,4.94,0,0,1,.58.94,4.44,4.44,0,0,1,.34,1.05,5.25,5.25,0,0,1,.09,1,4.89,4.89,0,0,1-.09,1,5.58,5.58,0,0,1-.22.81,5.08,5.08,0,0,1-.26.61,1.09,1.09,0,0,1-.08.15,2,2,0,0,1-.22.36,2.22,2.22,0,0,1-.21.28l-.07.09.09-.07c.06-.06.16-.12.27-.23l.18-.18.1-.11a2.71,2.71,0,0,1,.46.8,2.79,2.79,0,0,1,.09,1.36,3.38,3.38,0,0,1-.36,1.07.94.94,0,0,1-.12.22.61.61,0,0,1-.07.1,4.54,4.54,0,0,1-.67.79,4.34,4.34,0,0,1-.36.31l0,.11a4.85,4.85,0,0,0,.45-.27,3.87,3.87,0,0,0,.74-.65l.65,1.06C63.19,41.92,64.39,43.79,65.33,45.25Z" style="fill:#343536"/><path d="M98.81,116a1.63,1.63,0,0,1,.2.44l0,0a3.19,3.19,0,0,0,.29-.32,2.25,2.25,0,0,0,.27-.43,2.79,2.79,0,0,0,.21-.53,2.52,2.52,0,0,0,.12-.62,2.48,2.48,0,0,0,0-.66,2.57,2.57,0,0,0-.24-.62l0-.07a1.14,1.14,0,0,0-.15-.23l-.18-.21a2.23,2.23,0,0,0-.43-.39,2.3,2.3,0,0,0-.44-.26l-.3-.13a2,2,0,0,1,0,.36,2.91,2.91,0,0,1-.13.47c-.06.14-.12.26-.17.36a2.13,2.13,0,0,1-.17.25l-.16.19-.4-.1a2.89,2.89,0,0,1,.32.42,2.46,2.46,0,0,1,.34.93,2.37,2.37,0,0,1,0,.53l.61,0,0,0a.47.47,0,0,1,.11.1,1.72,1.72,0,0,1,.17.19A1.57,1.57,0,0,1,98.81,116Z" style="fill:#fff"/><path d="M90.1,114.16s0,0,0,0h0l-.08.06a1.22,1.22,0,0,0-.17.15,2,2,0,0,0-.46.73,1.86,1.86,0,0,0-.06,1,1.78,1.78,0,0,0,.47.85,2,2,0,0,0,.78.47,1.57,1.57,0,0,0,.43.09h.2v.3a1.86,1.86,0,0,0,.09.48,1.81,1.81,0,0,0,.47.74,1.56,1.56,0,0,0,.66.39,1.6,1.6,0,0,0,.64.06,1.77,1.77,0,0,0,.83-.29l.18-.14,0,0,0,0a.87.87,0,0,1-.19.13,1.62,1.62,0,0,1-.82.21,1.77,1.77,0,0,1-.58-.1,1.53,1.53,0,0,1-.57-.39,1.67,1.67,0,0,1-.36-.67,1.4,1.4,0,0,1,0-.41v-.23l0-.19c0-.08,0-.15,0-.22l-.34,0H91a1.37,1.37,0,0,1-.35-.08,1.72,1.72,0,0,1-.63-.41,1.45,1.45,0,0,1-.36-.68,1.57,1.57,0,0,1,.06-.8,1.64,1.64,0,0,1,.37-.59l.13-.11.06,0,.07,0,.16-.1s0,0,0,0v0l0-.15a1,1,0,0,1,0-.14l0-.08a2.11,2.11,0,0,1,1-2.15,1.82,1.82,0,0,1,1-.23,2.1,2.1,0,0,1,.87.22,2.37,2.37,0,0,1,.51.33l.06,0,.09.09c.09.1.15.19.2.25l.08.14a1.15,1.15,0,0,1-.07-.15,1.6,1.6,0,0,0-.17-.28.86.86,0,0,1-.07-.1l-.06-.06a2,2,0,0,0-.5-.41,2.33,2.33,0,0,0-.91-.33,2.15,2.15,0,0,0-2.18,1.18,2.42,2.42,0,0,0-.25,1.52l0,.1S90.1,114.14,90.1,114.16Zm-1.69,2.71a2.05,2.05,0,0,1-.32-.42,2.84,2.84,0,0,1-.29-.7,2.48,2.48,0,0,1-.08-.91A2.91,2.91,0,0,1,88,114a2.33,2.33,0,0,1,.39-.65,2.71,2.71,0,0,1,.37-.38l.15-.12-.18.09-.19.12c-.08,0-.16.12-.25.19a2.64,2.64,0,0,0-.5.64,3,3,0,0,0-.19.45,4,4,0,0,0-.09.52,2.43,2.43,0,0,0,.16,1,2.57,2.57,0,0,0,.39.7,3.34,3.34,0,0,0,.38.38.65.65,0,0,0,.15.11A1.37,1.37,0,0,1,88.41,116.87Zm10-1.28a2.51,2.51,0,0,1,.21.52,3.29,3.29,0,0,1,.07.36c0,.08,0,.15,0,.23v.19a2.77,2.77,0,0,1-.18.91,2.21,2.21,0,0,1-.51.77,2.61,2.61,0,0,1-.25.23l-.06,0,0,0a2.11,2.11,0,0,1-.27.18,3.31,3.31,0,0,1-.52.2l-.15,0h.16a2.59,2.59,0,0,0,.58-.08l.11,0a1.8,1.8,0,0,1-.08.21,3.6,3.6,0,0,1-.66,1,3.35,3.35,0,0,1-.52.46,3.39,3.39,0,0,1-.65.36,3.55,3.55,0,0,1-.71.19,3.25,3.25,0,0,1-.69,0,2.6,2.6,0,0,1-.64-.09,3.66,3.66,0,0,1-.53-.18,2,2,0,0,1-.36-.19l.23-.08a5,5,0,0,0,.76-.41,4,4,0,0,0,.57-.49c.15-.16.28-.32.39-.46s.18-.28.24-.39.09-.2.13-.26a.56.56,0,0,1,0-.08l0,.08s-.08.13-.16.23l-.13.17-.16.18c-.12.12-.26.26-.43.4s-.37.26-.58.39a5,5,0,0,1-.74.33,3.36,3.36,0,0,1-.48.14h0a1.65,1.65,0,0,1-.32.06,4.9,4.9,0,0,1-.94,0,5.27,5.27,0,0,1-.91-.23,4.42,4.42,0,0,1-.78-.41,3.77,3.77,0,0,1-1.1-1,3.75,3.75,0,0,1-.24-.36.75.75,0,0,1-.07-.12h0l-.14-.31a.69.69,0,0,1,0-.1,2.76,2.76,0,0,1-.09-.27.34.34,0,0,0,0-.08.45.45,0,0,1,0,.08,1.59,1.59,0,0,0,.06.28.64.64,0,0,1,0,.07,4.49,4.49,0,0,1-.51-.23,3.45,3.45,0,0,1-.89-.75,2.72,2.72,0,0,1-.32-.51,2.89,2.89,0,0,1-.22-.52c0-.18-.08-.35-.11-.51v0l.16.09.25.11.17,0h.06l-.06,0-.15-.07-.22-.15a2.05,2.05,0,0,1-.23-.2l0,0a2,2,0,0,1-.21-.26.43.43,0,0,0,0-.07,1.87,1.87,0,0,1-.19-.43,1.94,1.94,0,0,1-.11-.49,1.9,1.9,0,0,1,0-.53,2.33,2.33,0,0,1,.47-.88,2.72,2.72,0,0,1,.66-.55l.1,0,.15-.07.07,0a1.77,1.77,0,0,1,.25-.08l.17,0h0a.65.65,0,0,0-.17,0h-.28a3.18,3.18,0,0,1,.2-.62,4.21,4.21,0,0,1,.36-.65,3.58,3.58,0,0,1,.5-.62,4.23,4.23,0,0,1,.65-.52,4,4,0,0,1,.77-.34,3.52,3.52,0,0,1,.77-.16,4.48,4.48,0,0,1,.73,0,4,4,0,0,1,.63.1,4,4,0,0,1,.48.14l.12,0a2.64,2.64,0,0,1,.29.14,1.86,1.86,0,0,1,.23.13l.08,0-.07-.06a1.31,1.31,0,0,0-.2-.18l-.15-.13-.08-.06a1.89,1.89,0,0,1,.56-.41,2,2,0,0,1,1-.19,2.51,2.51,0,0,1,.84.17l.18.08.08,0a3.07,3.07,0,0,1,.65.44,2.27,2.27,0,0,1,.27.24,1.4,1.4,0,0,0-.36.27A1,1,0,0,0,95,110l0,0,0,0a.63.63,0,0,1,.14-.12,1.41,1.41,0,0,1,.44-.19h.17a1,1,0,0,1,.35,0,1.61,1.61,0,0,1,.36.1l.17.09a2.37,2.37,0,0,1,.77.8,3.78,3.78,0,0,1,.17.35,1.34,1.34,0,0,1,.07.18,1.09,1.09,0,0,1,0,.17,2.41,2.41,0,0,1,.07.37s0,0,0,0v.08a2.88,2.88,0,0,1,0,.41,2.75,2.75,0,0,1-.06.44,2.87,2.87,0,0,1-.09.37c0,.11-.07.2-.1.27a1.44,1.44,0,0,1-.08.17.09.09,0,0,0,0,0l-.4-.1a1.8,1.8,0,0,0-.2-.19,3,3,0,0,0-.24-.18l-.2-.12-.17-.08.15.11a2.56,2.56,0,0,1,.36.37,3.62,3.62,0,0,1,.41.63,3.14,3.14,0,0,1,.28.85,3.44,3.44,0,0,1,0,.9,2.76,2.76,0,0,1-.2.73A2.23,2.23,0,0,1,97,117l-.11.16L97,117a2.3,2.3,0,0,0,.31-.43,3.15,3.15,0,0,0,.3-.73,3,3,0,0,0,.07-.45l.61,0s0,0,0,0Zm-3.09.06a1.21,1.21,0,0,0-.09-.27,1.14,1.14,0,0,0-.09-.19L95,115a1.47,1.47,0,0,0,0,.17.78.78,0,0,1,0,.19,1.11,1.11,0,0,1,0,.26,1.15,1.15,0,0,1,0,.31,2.07,2.07,0,0,1-.1.33,1.57,1.57,0,0,1-.45.62,1.14,1.14,0,0,1-.32.22,1,1,0,0,1-.35.11.87.87,0,0,1-.61-.11.8.8,0,0,1-.3-.32.42.42,0,0,1,0-.17v0a.72.72,0,0,0,0,.13.82.82,0,0,0,.25.43,1,1,0,0,0,.72.27,1.39,1.39,0,0,0,.89-.33,1.66,1.66,0,0,0,.56-1.2A1.83,1.83,0,0,0,95.32,115.65Z" style="fill:#fff"/><path d="M97.33,113.92a2.89,2.89,0,0,0-.32-.42,1.8,1.8,0,0,0-.2-.19,3,3,0,0,0-.24-.18l-.2-.12-.17-.08.15.11a2.56,2.56,0,0,1,.36.37,3.62,3.62,0,0,1,.41.63,3.14,3.14,0,0,1,.28.85,3.44,3.44,0,0,1,0,.9,2.76,2.76,0,0,1-.2.73A2.23,2.23,0,0,1,97,117l-.11.16L97,117a2.3,2.3,0,0,0,.31-.43,3.15,3.15,0,0,0,.3-.73,3,3,0,0,0,.07-.45,2.37,2.37,0,0,0,0-.53A2.46,2.46,0,0,0,97.33,113.92Z" style="fill:#343536"/><path d="M92.93,116.83a.82.82,0,0,0,.25.43,1,1,0,0,0,.72.27,1.39,1.39,0,0,0,.89-.33,1.66,1.66,0,0,0,.56-1.2,1.83,1.83,0,0,0,0-.35,1.21,1.21,0,0,0-.09-.27,1.14,1.14,0,0,0-.09-.19L95,115a1.47,1.47,0,0,0,0,.17.78.78,0,0,1,0,.19,1.11,1.11,0,0,1,0,.26,1.15,1.15,0,0,1,0,.31,2.07,2.07,0,0,1-.1.33,1.57,1.57,0,0,1-.45.62,1.14,1.14,0,0,1-.32.22,1,1,0,0,1-.35.11.87.87,0,0,1-.61-.11.8.8,0,0,1-.3-.32.42.42,0,0,1,0-.17v0A.72.72,0,0,0,92.93,116.83Z" style="fill:#343536"/><path d="M90.07,114l0,.1s0,0,0,0,0,0,0,0h0l-.08.06a1.22,1.22,0,0,0-.17.15,2,2,0,0,0-.46.73,1.86,1.86,0,0,0-.06,1,1.78,1.78,0,0,0,.47.85,2,2,0,0,0,.78.47,1.57,1.57,0,0,0,.43.09h.2v.3a1.86,1.86,0,0,0,.09.48,1.81,1.81,0,0,0,.47.74,1.56,1.56,0,0,0,.66.39,1.6,1.6,0,0,0,.64.06,1.77,1.77,0,0,0,.83-.29l.18-.14,0,0,0,0a.87.87,0,0,1-.19.13,1.62,1.62,0,0,1-.82.21,1.77,1.77,0,0,1-.58-.1,1.53,1.53,0,0,1-.57-.39,1.67,1.67,0,0,1-.36-.67,1.4,1.4,0,0,1,0-.41v-.23l0-.19c0-.08,0-.15,0-.22l-.34,0H91a1.37,1.37,0,0,1-.35-.08,1.72,1.72,0,0,1-.63-.41,1.45,1.45,0,0,1-.36-.68,1.57,1.57,0,0,1,.06-.8,1.64,1.64,0,0,1,.37-.59l.13-.11.06,0,.07,0,.16-.1s0,0,0,0v0l0-.15a1,1,0,0,1,0-.14l0-.08a2.11,2.11,0,0,1,1-2.15,1.82,1.82,0,0,1,1-.23,2.1,2.1,0,0,1,.87.22,2.37,2.37,0,0,1,.51.33l.06,0,.09.09c.09.1.15.19.2.25l.08.14a1.15,1.15,0,0,1-.07-.15,1.6,1.6,0,0,0-.17-.28.86.86,0,0,1-.07-.1l-.06-.06a2,2,0,0,0-.5-.41,2.33,2.33,0,0,0-.91-.33,2.15,2.15,0,0,0-2.18,1.18A2.42,2.42,0,0,0,90.07,114Z" style="fill:#343536"/><path d="M102.31,108c-.51.83-1.09,1.81-1.69,2.86-.36.62-.69,1.22-1,1.78l-.12-.12a2.86,2.86,0,0,0-.52-.38,2.7,2.7,0,0,0-.52-.21l-.37-.09v-.07A2.68,2.68,0,0,0,98,111c.08-.1.17-.2.25-.31,1-1.29,2-2.49,2.71-3.47l-.18-.13c-.79.93-1.75,2.1-2.78,3.4a1.83,1.83,0,0,1-.13.16,1.74,1.74,0,0,0-.1-.19,2.12,2.12,0,0,0-1-.9l-.07,0,.4-.41,2.15-2.23.63-.69-.11-.13-.06-.09-.69.69c-.68.67-1.41,1.42-2.17,2.21l-.53.56h-.13a1.59,1.59,0,0,0-.5.07.44.44,0,0,0-.16.06l-.08,0a1.4,1.4,0,0,0-.36.27A1,1,0,0,0,95,110l0,0,0,0a.63.63,0,0,1,.14-.12,1.41,1.41,0,0,1,.44-.19h.17a1,1,0,0,1,.35,0,1.61,1.61,0,0,1,.36.1l.17.09a2.37,2.37,0,0,1,.77.8,3.78,3.78,0,0,1,.17.35,1.34,1.34,0,0,1,.07.18,1.09,1.09,0,0,1,0,.17,2.41,2.41,0,0,1,.07.37s0,0,0,0v.08a2.88,2.88,0,0,1,0,.41,2.75,2.75,0,0,1-.06.44,2.87,2.87,0,0,1-.09.37c0,.11-.07.2-.1.27a1.44,1.44,0,0,1-.08.17.09.09,0,0,0,0,0l.16-.19a2.13,2.13,0,0,0,.17-.25c.05-.1.11-.22.17-.36a2.91,2.91,0,0,0,.13-.47,2,2,0,0,0,0-.36l.3.13a2.3,2.3,0,0,1,.44.26,2.23,2.23,0,0,1,.43.39l.18.21a1.14,1.14,0,0,1,.15.23l0,.07a2.57,2.57,0,0,1,.24.62,2.48,2.48,0,0,1,0,.66,2.52,2.52,0,0,1-.12.62,2.79,2.79,0,0,1-.21.53,2.25,2.25,0,0,1-.27.43,3.19,3.19,0,0,1-.29.32l0,0a1.63,1.63,0,0,0-.2-.44,1.57,1.57,0,0,0-.19-.27,1.72,1.72,0,0,0-.17-.19.47.47,0,0,0-.11-.1l0,0s0,0,0,0l.08.13a2.51,2.51,0,0,1,.21.52,3.29,3.29,0,0,1,.07.36c0,.08,0,.15,0,.23v.19a2.77,2.77,0,0,1-.18.91,2.21,2.21,0,0,1-.51.77,2.61,2.61,0,0,1-.25.23l-.06,0,0,0a2.11,2.11,0,0,1-.27.18,3.31,3.31,0,0,1-.52.2l-.15,0h.16a2.59,2.59,0,0,0,.58-.08l.11,0a1.8,1.8,0,0,1-.08.21,3.6,3.6,0,0,1-.66,1,3.35,3.35,0,0,1-.52.46,3.39,3.39,0,0,1-.65.36,3.55,3.55,0,0,1-.71.19,3.25,3.25,0,0,1-.69,0,2.6,2.6,0,0,1-.64-.09,3.66,3.66,0,0,1-.53-.18,2,2,0,0,1-.36-.19l.23-.08a5,5,0,0,0,.76-.41,4,4,0,0,0,.57-.49c.15-.16.28-.32.39-.46s.18-.28.24-.39.09-.2.13-.26a.56.56,0,0,1,0-.08l0,.08s-.08.13-.16.23l-.13.17-.16.18c-.12.12-.26.26-.43.4s-.37.26-.58.39a5,5,0,0,1-.74.33,3.36,3.36,0,0,1-.48.14h0a1.65,1.65,0,0,1-.32.06,4.9,4.9,0,0,1-.94,0,5.27,5.27,0,0,1-.91-.23,4.42,4.42,0,0,1-.78-.41,3.77,3.77,0,0,1-1.1-1,3.75,3.75,0,0,1-.24-.36l-.1,0q.09.2.21.42a5,5,0,0,0,.44.6,4.33,4.33,0,0,0,.62.58,3.33,3.33,0,0,0,.82.48,3.61,3.61,0,0,0,1,.28,3.55,3.55,0,0,0,1,0,2.68,2.68,0,0,0,.56-.13h0a2.17,2.17,0,0,0,.4.29,3.72,3.72,0,0,0,.53.28,4.19,4.19,0,0,0,.68.19,2.87,2.87,0,0,0,.78,0,3.67,3.67,0,0,0,.83-.19,3.12,3.12,0,0,0,1.28-1,3.25,3.25,0,0,0,.37-.6,4.22,4.22,0,0,0,.19-.57c0-.12,0-.24.07-.34a2.43,2.43,0,0,0,.51-.29,2.25,2.25,0,0,0,.69-.87,2.5,2.5,0,0,0,.16-.56,2,2,0,0,0,0-.54,2.5,2.5,0,0,0,0-.29l.06,0a3.4,3.4,0,0,0,.37-.27,4,4,0,0,0,.37-.42,2.8,2.8,0,0,0,.31-.57,2.63,2.63,0,0,0,.16-.71,3,3,0,0,0,0-.78,2.82,2.82,0,0,0-.31-.73l-.15-.22c.34-.57.71-1.18,1.08-1.83.63-1.07,1.2-2.08,1.67-2.94Z" style="fill:#343536"/><path d="M87.55,114.3a4,4,0,0,0-.09.52,2.43,2.43,0,0,0,.16,1,2.57,2.57,0,0,0,.39.7,3.34,3.34,0,0,0,.38.38.65.65,0,0,0,.15.11,1.37,1.37,0,0,1-.13-.13,2.05,2.05,0,0,1-.32-.42,2.84,2.84,0,0,1-.29-.7,2.48,2.48,0,0,1-.08-.91A2.91,2.91,0,0,1,88,114a2.33,2.33,0,0,1,.39-.65,2.71,2.71,0,0,1,.37-.38l.15-.12-.18.09-.19.12c-.08,0-.16.12-.25.19a2.64,2.64,0,0,0-.5.64A3,3,0,0,0,87.55,114.3Z" style="fill:#343536"/><path d="M99.24,105.16l-.06-.17c-1.07.8-2.42,1.84-3.87,3-.28.21-.54.43-.81.64a2.48,2.48,0,0,0-1.06-.3,2,2,0,0,0-1.14.29,1.86,1.86,0,0,0-.57.54,2.65,2.65,0,0,0-.48-.26,3.51,3.51,0,0,0-.67-.22,5.05,5.05,0,0,0-.81-.08,3.46,3.46,0,0,0-1.8.53,3.08,3.08,0,0,0-.74.64,3.56,3.56,0,0,0-.5.76,3.66,3.66,0,0,0-.27.76,4.68,4.68,0,0,0-.09.69v.06l-.2,0a2.46,2.46,0,0,0-.44.17,2,2,0,0,0-.44.32,1.68,1.68,0,0,0-.38.48,1.81,1.81,0,0,0-.2.62,2.08,2.08,0,0,0,0,.66,2.06,2.06,0,0,0,.19.56,1.79,1.79,0,0,0,.3.44l.17.18a2.9,2.9,0,0,0,0,.88,3.11,3.11,0,0,0,.19.64,2.67,2.67,0,0,0,.37.62,3,3,0,0,0,.52.49,2.79,2.79,0,0,0,.58.32,3.63,3.63,0,0,0,.58.16l.22,0v0l.06.13.1,0a.75.75,0,0,1-.07-.12h0l-.14-.31a.69.69,0,0,1,0-.1,2.76,2.76,0,0,1-.09-.27.34.34,0,0,0,0-.08.45.45,0,0,1,0,.08,1.59,1.59,0,0,0,.06.28.64.64,0,0,1,0,.07,4.49,4.49,0,0,1-.51-.23,3.45,3.45,0,0,1-.89-.75,2.72,2.72,0,0,1-.32-.51,2.89,2.89,0,0,1-.22-.52c0-.18-.08-.35-.11-.51v0l.16.09.25.11.17,0h.06l-.06,0-.15-.07-.22-.15a2.05,2.05,0,0,1-.23-.2l0,0a2,2,0,0,1-.21-.26.43.43,0,0,0,0-.07,1.87,1.87,0,0,1-.19-.43,1.94,1.94,0,0,1-.11-.49,1.9,1.9,0,0,1,0-.53,2.33,2.33,0,0,1,.47-.88,2.72,2.72,0,0,1,.66-.55l.1,0,.15-.07.07,0a1.77,1.77,0,0,1,.25-.08l.17,0h0a.65.65,0,0,0-.17,0h-.28a3.18,3.18,0,0,1,.2-.62,4.21,4.21,0,0,1,.36-.65,3.58,3.58,0,0,1,.5-.62,4.23,4.23,0,0,1,.65-.52,4,4,0,0,1,.77-.34,3.52,3.52,0,0,1,.77-.16,4.48,4.48,0,0,1,.73,0,4,4,0,0,1,.63.1,4,4,0,0,1,.48.14l.12,0a2.64,2.64,0,0,1,.29.14,1.86,1.86,0,0,1,.23.13l.08,0-.07-.06a1.31,1.31,0,0,0-.2-.18l-.15-.13-.08-.06a1.89,1.89,0,0,1,.56-.41,2,2,0,0,1,1-.19,2.51,2.51,0,0,1,.84.17l.18.08.08,0a3.07,3.07,0,0,1,.65.44,2.27,2.27,0,0,1,.27.24l.08,0-.24-.32a3.13,3.13,0,0,0-.56-.5c.25-.18.49-.38.74-.58C96.91,107.07,98.22,106,99.24,105.16Z" style="fill:#343536"/><polygon points="57.19 117.2 71.63 96.85 53.5 114.81 57.19 117.2" style="fill:#72cff5"/><polygon points="71.63 96.85 53.5 114.81 57.19 117.2 71.63 96.85 71.63 96.85" style="fill:#00bbed"/><path d="M53.48,109.73l3,5.16,5.87,1-4,4.41.89,5.88-5.43-2.44-5.32,2.67.64-5.92-4.18-4.23L50.74,115Z" style="fill:#00bbed"/><polygon points="49.5 117.44 51.42 119.78 50.83 122.75 53.6 121.24 56.29 123.11 56.1 120.09 58.33 118.04 55.4 117.28 54.13 114.53 52.5 117.08 49.5 117.44" style="fill:#fff"/><polygon points="83.1 20.64 98.82 40.02 86.4 17.73 83.1 20.64" style="fill:#72cff5"/><polygon points="86.4 17.73 83.1 20.64 98.82 40.02 86.4 17.73 86.4 17.73" style="fill:#00bbed"/><path d="M91.3,19.08l-5.77,1.46L83,25.93l-3.17-5-5.91-.73,3.81-4.57L76.62,9.76,82.14,12l5.2-2.89L87,15Z" style="fill:#00bbed"/><polygon points="84.95 13.16 82.18 14.39 79.48 13.02 80.18 16.09 77.65 18.18 80.61 18.81 81.99 21.51 83.51 18.89 86.5 18.41 84.48 16.16 84.95 13.16" style="fill:#fff"/><polygon points="122.25 29.84 119.03 34.67 121.25 40.05 115.68 38.49 111.19 42.24 110.92 36.41 106 33.34 111.45 31.3 112.86 25.65 116.44 30.21 122.25 29.84" style="fill:url(#b)"/><path d="M110.88,42.85l-.27-6.28-5.32-3.31,5.88-2.16L112.69,25l3.88,4.92,6.27-.44-3.5,5.27,2.4,5.77-6-1.68Zm.3-6.56,0,.12.21,5.23,4.11-3.46,5.2,1.4-2-5,3-4.48-5.35.39L113,26.33l-1.32,5.19-5,1.88Z" style="fill:#262625"/><path d="M12.37,71c1.73.47,3.54.81,5.29,1.18Q19,69.8,20.44,67.49a36,36,0,0,0,.19,5.39,15.59,15.59,0,0,1,3.93,1.62c-.89.41-2.17,1-3.58,1.64.18,1.6.34,3,.37,3.93a11.52,11.52,0,0,1-3.2-2.57,37.4,37.4,0,0,0-4.4,2.56q1.1-2.49,2.33-4.92A48,48,0,0,0,12.37,71Z" style="fill:#fdcc25"/></g></svg>