<svg xmlns="http://www.w3.org/2000/svg" xmlns:xlink="http://www.w3.org/1999/xlink" viewBox="0 0 126.76 149.87"><defs><clipPath id="a"><rect width="126.76" height="149.87" style="fill:none"/></clipPath><radialGradient id="b" cx="792.25" cy="5718.29" r="13.01" gradientTransform="matrix(-0.73, -0.68, 0.68, -0.73, -3264.82, 4848.31)" gradientUnits="userSpaceOnUse"><stop offset="0.11" stop-color="#fce92e"/><stop offset="0.75" stop-color="#f5b75d"/></radialGradient></defs><title>button</title><g style="clip-path:url(#a)"><path d="M92.31,79.8c-.26,1-.43,2.12-.62,3.17,1,.5,1.9,1,2.83,1.59a21.58,21.58,0,0,0-3.21.19,9.26,9.26,0,0,1-.9,2.37c-.26-.52-.62-1.28-1-2.11-1,.14-1.78.26-2.34.29a7,7,0,0,1,1.48-2,22.39,22.39,0,0,0-1.59-2.59q1.5.61,3,1.32A31.07,31.07,0,0,0,92.31,79.8Z" style="fill:#f37024"/><path d="M77,121.94a5.06,5.06,0,0,0,1.61-1.62,4.68,4.68,0,0,1,.76,3.32c-.5,1.77-1.78,1.79-3.7,1.9a13.64,13.64,0,0,0,.7-2.84,23.86,23.86,0,0,1-1.52,2.9l-.58.06.46.14c-.75,1.2-1.6,2.31-2.24,2.45-1.77.39-2.79-1.45-4.08-3.23l.23-.07-.37-.12c-.23-.31-.47-.62-.72-.9.14.26.27.54.41.82-1.23-.31-2.47-.35-2.88-1.71a4.91,4.91,0,0,1,.16-2.81c.25.41.55.81.81,1.17,0-.05-1.28-3.28.24-4.19a9.9,9.9,0,0,1,1.93-.77c-.07.25-.12.51-.17.77a3.9,3.9,0,0,1,.24-.79,3.58,3.58,0,0,1,.83-.15,3.68,3.68,0,0,0-.75,0A2.14,2.14,0,0,1,70.16,115a9.31,9.31,0,0,1,3,.53l-.21.12a2,2,0,0,1,.38-.06,4.94,4.94,0,0,1,.52.19l-.42-.2c1.16-.08,3.12.35,3.88,1.45C78.23,118.42,77.92,119.66,77,121.94Z" style="fill:#fff"/><path d="M75.61,126.16c2.7.57,4.45-.19,5.19-2.25a2.41,2.41,0,0,0,.09-1.31A5,5,0,0,0,79,119.84a4.21,4.21,0,0,0,.27-2.48,4,4,0,0,0-.6-1.48c-.82-1.23-3.15-1.79-5.5-.55a5.74,5.74,0,0,0-3.29-.8,2.11,2.11,0,0,0-1.7,1.59,4.94,4.94,0,0,0-3.2,1.33,1.74,1.74,0,0,0-.4,1.55,2.81,2.81,0,0,0,.25.76c-1.31,1.62-1.82,3.08-1.56,4.45,0,.12.06.25.09.38a1.72,1.72,0,0,0,.82,1.07c.89.47,2.22.13,3.87-.39l.58,1.36c.93,2.25,1.8,4.38,3.54,4C73.36,130.31,74.64,128.66,75.61,126.16Zm-3.13,2c-1.47.32-2.4-1-3.47-2.52l-.36-.51.41-.13-.36-.13-.33-.12c-.19-.25-.43-.57-.7-.87l-.78-.88.56,1c.1.18.19.37.28.56l-.27-.06c-1-.22-1.9-.41-2.23-1.49,0-.12-.06-.23-.08-.35a4.75,4.75,0,0,1,.16-2.09c.19.29.4.58.59.83l.25.35,0-.32a.13.13,0,0,0,0-.06.19.19,0,0,0,0-.1,10,10,0,0,1-.35-1.33c-.18-.92-.22-2.13.57-2.6a9.29,9.29,0,0,1,1.67-.69c0,.18-.08.36-.11.55l.27,0a3.68,3.68,0,0,1,.2-.71,3.45,3.45,0,0,1,.72-.13h2.44l-2.42-.28a4.52,4.52,0,0,0-.53,0,2,2,0,0,1,1.55-1,8.46,8.46,0,0,1,2.61.44L72,116l.92-.25a1.7,1.7,0,0,1,.35-.06l.46.19.1-.2a4.48,4.48,0,0,1,3.3,1.39,3.07,3.07,0,0,1,.52,1.2c.18.93-.12,1.94-.77,3.6l-.16.4.36-.23a5.48,5.48,0,0,0,1.52-1.47,7.22,7.22,0,0,1,.66,1.81,2.57,2.57,0,0,1,0,1.21c-.46,1.61-1.56,1.68-3.38,1.79a14.2,14.2,0,0,0,.65-2.68l.12-1-.38,1a25,25,0,0,1-1.48,2.82l-.52.06-.65.07.92.27C73.69,127.22,73,128,72.48,128.12Z" style="fill:#323535"/><path d="M73.8,115.77a2,2,0,0,1,.3.16Z" style="fill:#323535"/><path d="M68.07,117.21c0,.19,0,.39-.07.58C68,117.65,68,117.45,68.07,117.21Z" style="fill:#323535"/><path d="M68,118a1.1,1.1,0,0,1,0-.18C68,117.9,68,118,68,118Z" style="fill:#323535"/><polygon points="77.07 119.54 61.88 107.04 61.51 107.07 70.07 124.78 77.07 119.54" style="fill:#fff"/><polygon points="64.98 110.95 73.4 121.65 73.24 120.06 64.98 110.95" style="fill:#323535"/><polygon points="62.86 109.95 67.1 117.95 67.19 118.81 62.86 109.95" style="fill:#323535"/><polygon points="62.6 108.78 70.14 119.44 70.17 120.84 62.6 108.78" style="fill:#323535"/><polygon points="72.89 116.95 75.09 117.65 60.9 106.28 72.89 116.95" style="fill:#323535"/><polygon points="63.38 108.3 73.09 116.81 74.45 117.24 63.38 108.3" style="fill:#fff"/><path d="M95,52.85a5,5,0,0,0-1.43-1.78,4.71,4.71,0,0,1,3.39-.39c1.7.71,1.57,2,1.47,3.9a14.19,14.19,0,0,0-2.75-1,24.55,24.55,0,0,1,2.71,1.84c0,.19,0,.39,0,.59,0-.07.11-.25.19-.45,1.11.88,2.12,1.85,2.19,2.51.18,1.8-1.77,2.6-3.68,3.68,0-.07,0-.15,0-.23-.06.12-.11.23-.16.35-.34.2-.67.4-1,.62l.86-.32c-.44,1.18-.62,2.41-2,2.66a4.82,4.82,0,0,1-2.78-.47c.44-.2.87-.45,1.25-.67,0,0-3.4.9-4.13-.71a10.24,10.24,0,0,1-.54-2,6.44,6.44,0,0,0,.74.25,3.92,3.92,0,0,1-.75-.32,3.37,3.37,0,0,1-.06-.84,5,5,0,0,0-.11.74,2.12,2.12,0,0,1-1-1.9A9.17,9.17,0,0,1,88.13,56l.09.22a2.24,2.24,0,0,1,0-.38c.09-.19.18-.36.26-.5l-.26.39c.06-1.16.7-3.06,1.88-3.69C91.59,51.25,92.78,51.7,95,52.85Z" style="fill:#fff"/><path d="M99,54.73c.87-2.62.32-4.44-1.65-5.41A2.45,2.45,0,0,0,96,49.08a5.06,5.06,0,0,0-3,1.54,4.22,4.22,0,0,0-2.43-.54,4.06,4.06,0,0,0-1.55.42c-1.31.68-2.13,2.93-1.17,5.41a5.81,5.81,0,0,0-1.16,3.17A2.11,2.11,0,0,0,88.17,61a4.86,4.86,0,0,0,1,3.33,1.73,1.73,0,0,0,1.49.58,3.05,3.05,0,0,0,.78-.17c1.46,1.49,2.86,2.16,4.24,2.06l.39,0A1.69,1.69,0,0,0,97.19,66c.57-.83.38-2.2,0-3.89l1.42-.42c2.34-.67,4.55-1.3,4.34-3.07C102.85,57.43,101.35,56,99,54.73Zm1.59,3.33c.16,1.49-1.26,2.27-2.9,3.17l-.54.3-.08-.43-.18.34-.15.32c-.27.16-.62.37-1,.6l-1,.67,1.09-.44.59-.22c0,.09-.06.18-.1.27-.33,1-.61,1.84-1.73,2l-.35,0a4.72,4.72,0,0,1-2.06-.4c.31-.16.62-.33.89-.49l.37-.21-.31-.09h-.06l-.1,0a9.27,9.27,0,0,1-1.36.2c-.94.07-2.14,0-2.52-.86a9.35,9.35,0,0,1-.5-1.74l.54.17.07-.26a3.37,3.37,0,0,1-.67-.28,3,3,0,0,1,0-.73l.28-2.42L88.28,60c0,.16-.06.34-.08.53a2,2,0,0,1-.81-1.66,8.71,8.71,0,0,1,.74-2.54l.37.81-.14-.94a2,2,0,0,1,0-.36c.08-.13.17-.3.24-.44l-.19-.11a4.49,4.49,0,0,1,1.77-3.13,3,3,0,0,1,1.24-.38c1-.07,1.92.34,3.5,1.18l.37.2-.19-.38a5.35,5.35,0,0,0-1.28-1.68,7.22,7.22,0,0,1,1.87-.46,2.65,2.65,0,0,1,1.2.16c1.55.64,1.49,1.74,1.39,3.56a14.43,14.43,0,0,0-2.59-.94l-1-.24.9.49a26,26,0,0,1,2.64,1.78c0,.18,0,.35,0,.53v.66l.38-.89C99.81,56.75,100.52,57.57,100.57,58.06Z" style="fill:#323535"/><path d="M88.46,55.35a2.32,2.32,0,0,1,.18-.28Z" style="fill:#323535"/><path d="M89.23,61.2l.57.15Z" style="fill:#323535"/><path d="M90,61.39l-.18,0Z" style="fill:#323535"/><polygon points="92.57 52.53 78.43 66.2 78.41 66.57 96.98 60.08 92.57 52.53" style="fill:#fff"/><polygon points="82.67 63.57 94.24 56.41 92.65 56.39 82.67 63.57" style="fill:#323535"/><polygon points="81.43 65.56 89.86 62.25 90.72 62.27 81.43 65.56" style="fill:#323535"/><polygon points="80.24 65.69 91.68 59.41 93.08 59.53 80.24 65.69" style="fill:#323535"/><polygon points="89.52 56.38 90.46 54.28 77.56 67.1 89.52 56.38" style="fill:#323535"/><polygon points="79.85 64.86 89.41 56.17 89.99 54.87 79.85 64.86" style="fill:#fff"/><polygon points="75.63 24.8 61.2 45.16 79.32 27.2 75.63 24.8" style="fill:#72cff5"/><polygon points="75.63 24.8 61.2 45.16 79.32 27.2 75.63 24.8 75.63 24.8" style="fill:#00bbed"/><path d="M79.34,32.28l-3-5.16-5.87-1,4-4.41-.89-5.88L79,18.3l5.32-2.67-.64,5.91,4.18,4.24L82.08,27Z" style="fill:#00bbed"/><polygon points="83.33 24.57 81.4 22.23 81.99 19.26 79.22 20.77 76.53 18.89 76.72 21.92 74.5 23.97 77.43 24.73 78.69 27.48 80.32 24.92 83.33 24.57" style="fill:#fff"/><polygon points="39.96 114.26 41.02 110.75 38.69 107.91 42.34 107.83 44.36 104.73 45.6 108.21 49.14 109.16 46.22 111.39 46.41 115.07 43.41 112.97 39.96 114.26" style="fill:url(#b)"/><path d="M44.44,104.31l1.32,3.74,3.82,1-3.15,2.39.2,4-3.25-2.26-3.7,1.42,1.14-3.83-2.51-3,4-.1Zm1,4,0-.07-1.09-3.12L42.48,108l-3.4.11,2.14,2.62-1,3.25,3.16-1.22,2.79,1.93-.16-3.38,2.67-2.06Z" style="fill:#262625"/><path d="M116.2,56.27c-.58,1.69-1,3.47-1.52,5.2q2.28,1.47,4.49,3.08a37.37,37.37,0,0,0-5.39-.17,15.11,15.11,0,0,1-1.88,3.82c-.35-.92-.83-2.23-1.4-3.68-1.6.08-3,.15-3.94.12a11.39,11.39,0,0,1,2.77-3,37.24,37.24,0,0,0-2.27-4.56q2.41,1.26,4.76,2.65A50.67,50.67,0,0,0,116.2,56.27Z" style="fill:#fdcc25"/><path d="M9.92,19.34c1.14.31,2.33.54,3.49.78.58-1,1.19-2.07,1.83-3.08a23,23,0,0,0,.12,3.55A9.85,9.85,0,0,1,18,21.65c-.59.28-1.43.65-2.36,1.08.12,1.06.23,2,.25,2.59a7.47,7.47,0,0,1-2.11-1.69,23.92,23.92,0,0,0-2.9,1.69c.48-1.1,1-2.18,1.54-3.25A32.31,32.31,0,0,0,9.92,19.34Z" style="fill:#fdcc25"/><path d="M44,27.77c.79.21,1.63.37,2.44.54.41-.73.83-1.45,1.28-2.16a18,18,0,0,0,.09,2.49,6.88,6.88,0,0,1,1.81.75L48,30.14c.08.74.16,1.39.17,1.82a5.41,5.41,0,0,1-1.48-1.19,17.87,17.87,0,0,0-2,1.19q.51-1.16,1.08-2.28A22.54,22.54,0,0,0,44,27.77Z" style="fill:#fdcc25"/><path d="M26.34,106c.64.17,1.3.3,1.95.43.32-.58.66-1.15,1-1.72a12.3,12.3,0,0,0,.07,2,5.66,5.66,0,0,1,1.44.6l-1.31.6c.06.59.12,1.11.14,1.45a4.22,4.22,0,0,1-1.18-1,13.34,13.34,0,0,0-1.62,1c.27-.62.55-1.22.86-1.81A16.92,16.92,0,0,0,26.34,106Z" style="fill:#fdcc25"/><path d="M113.71,99.44c-.38-1.36-.88-2.73-1.33-4.07-1.43,0-2.87,0-4.3,0a30.33,30.33,0,0,0,3.59-2.29,11.66,11.66,0,0,1-.48-3.33c.63.44,1.53,1.08,2.55,1.78,1-.77,1.9-1.45,2.52-1.84a9.06,9.06,0,0,1-.45,3.21,29,29,0,0,0,3.51,2c-1.43.17-2.86.3-4.29.4A37.5,37.5,0,0,0,113.71,99.44Z" style="fill:#f4ba56"/><path d="M104.2,93.9a4.49,4.49,0,0,1,3.87.24s0,.09,0,.08a23.75,23.75,0,0,0-3.87,0C104,94.19,104.06,94,104.2,93.9Z" style="fill:#fff"/><path d="M108.31,92.77c-.94,0-1.86-.12-2.81-.13a4.71,4.71,0,0,1-2.4-.39c-.18-.11-.08-.42.18-.47a4.36,4.36,0,0,1,2.2.19c.94.26,1.92.44,2.87.68C108.41,92.67,108.38,92.77,108.31,92.77Z" style="fill:#fff"/><path d="M109.56,92c-1.46-.62-3-1-4.16-2-.09-.08,0-.3.17-.27,1.62.4,2.7,1.42,4,2.27C109.63,91.92,109.59,92,109.56,92Z" style="fill:#fff"/><path d="M37.49,43.13c-1.41,0-2.85.22-4.27.35-.29,1.4-.62,2.8-1,4.18a29.83,29.83,0,0,0-1.4-4,12.56,12.56,0,0,1-3.35-.3l2.33-2.08c-.52-1.16-1-2.18-1.21-2.88a9.37,9.37,0,0,1,3,1.19,28.77,28.77,0,0,0,2.72-3c-.16,1.43-.37,2.85-.61,4.26A39.13,39.13,0,0,0,37.49,43.13Z" style="fill:#f4ba56"/><path d="M29.9,51.09A4.5,4.5,0,0,1,31,47.39s.09,0,.07.06a24.47,24.47,0,0,0-.93,3.75C30.14,51.34,29.93,51.25,29.9,51.09Z" style="fill:#fff"/><path d="M29.75,46.84c-.24.91-.55,1.78-.77,2.7A4.78,4.78,0,0,1,28,51.78c-.15.15-.43,0-.42-.28a4.56,4.56,0,0,1,.7-2.1c.47-.85.88-1.76,1.33-2.63C29.68,46.71,29.77,46.77,29.75,46.84Z" style="fill:#fff"/><path d="M29.26,45.43c-1,1.28-1.66,2.71-3,3.58-.1.07-.29-.11-.22-.23.76-1.49,2-2.3,3.13-3.4A0,0,0,0,1,29.26,45.43Z" style="fill:#fff"/></g></svg>