<svg xmlns="http://www.w3.org/2000/svg" xmlns:xlink="http://www.w3.org/1999/xlink" viewBox="0 0 260 260"><defs><clipPath id="a"><rect width="260" height="260" style="fill:none"/></clipPath><radialGradient id="b" cx="-940.34" cy="232.75" r="20.6" gradientTransform="matrix(0.5, 0.86, -0.86, 0.5, 797.73, 764.71)" gradientUnits="userSpaceOnUse"><stop offset="0.11" stop-color="#fce92e"/><stop offset="0.75" stop-color="#f5b75d"/></radialGradient></defs><title>icon</title><g style="clip-path:url(#a)"><path d="M97.17,98.19c-.34,1.41-.58,2.88-.84,4.31,1.3.68,2.59,1.4,3.85,2.15a28.22,28.22,0,0,0-4.36.27,12.74,12.74,0,0,1-1.23,3.22c-.35-.72-.84-1.74-1.4-2.87-1.29.18-2.43.35-3.18.39A9.48,9.48,0,0,1,92,103a28,28,0,0,0-2.17-3.51c1.37.56,2.71,1.15,4,1.78A40.33,40.33,0,0,0,97.17,98.19Z" style="fill:#f37024"/><path d="M30.67,146.72c-1.06,3.07-1.89,6.31-2.77,9.45q4.16,2.69,8.16,5.6a65.53,65.53,0,0,0-9.79-.31,27.63,27.63,0,0,1-3.41,6.93c-.64-1.66-1.51-4-2.54-6.69-2.92.15-5.48.28-7.17.22a21.1,21.1,0,0,1,5-5.5,64.34,64.34,0,0,0-4.12-8.27q4.41,2.28,8.65,4.81A91,91,0,0,0,30.67,146.72Z" style="fill:#fdcc25"/><path d="M232.47,73.15A8.1,8.1,0,0,0,230,70.54c2.42-1.21,4.11-1.47,5.32-1.09,2.79.87,2.78,2.9,2.88,6a22.83,22.83,0,0,0-4.49-1.22,42.56,42.56,0,0,1,4.56,2.53c0,.31,0,.62.06.94,0-.11.14-.41.24-.74,1.89,1.24,3.62,2.64,3.83,3.67C242.9,83.43,239.92,85,237,87c0-.12-.07-.24-.1-.36a5.71,5.71,0,0,0-.21.58c-.5.36-1,.72-1.46,1.12.42-.22.87-.43,1.32-.63-.53,1.94-.65,3.92-2.83,4.51a7.75,7.75,0,0,1-4.48-.35c.67-.38,1.32-.84,1.9-1.25-.07,0-5.27,1.92-6.66-.54a15.93,15.93,0,0,1-1.15-3.11,12.07,12.07,0,0,0,1.22.3,6.49,6.49,0,0,1-1.25-.41,5.23,5.23,0,0,1-.21-1.32,7.4,7.4,0,0,0-.07,1.19,3.4,3.4,0,0,1-1.93-2.87,14.81,14.81,0,0,1,1-4.68,3.72,3.72,0,0,0,.19.34,2.62,2.62,0,0,1-.09-.61c.11-.31.23-.59.33-.83-.11.23-.23.45-.34.67-.08-1.85.67-4.95,2.45-6.12C226.91,71.1,228.87,71.64,232.47,73.15Z" style="fill:#fff"/><path d="M239.13,75.57c1-4.28-.13-7.1-3.38-8.35a4,4,0,0,0-2.09-.2,8.1,8.1,0,0,0-4.46,2.87,6.84,6.84,0,0,0-3.94-.52,6.45,6.45,0,0,0-2.38.89c-2,1.26-3,5-1.09,8.75-1.16,2.32-1.57,3.83-1.4,5.2A3.38,3.38,0,0,0,222.86,87c0,1,.33,3.64,2,5.15a2.79,2.79,0,0,0,2.45.71,5.39,5.39,0,0,0,1.21-.38c2.54,2.15,4.84,3,7,2.66l.61-.13a2.74,2.74,0,0,0,1.73-1.26c.79-1.41.3-3.54-.46-6.19.73-.3,1.47-.59,2.19-.86,3.62-1.39,7-2.71,6.44-5.49C245.65,79.31,243.07,77.21,239.13,75.57Zm3,5.06c.45,2.35-1.68,3.78-4.16,5.43-.26.19-.54.37-.81.56L237,86l-.23.57c-.07.17-.13.35-.19.52-.41.3-.93.67-1.42,1.09l-1.43,1.21,1.66-.85.91-.44c0,.15-.08.3-.11.44-.39,1.62-.72,3-2.46,3.49l-.56.12a7.45,7.45,0,0,1-3.32-.34c.47-.3.93-.62,1.35-.91l.55-.39-.5-.09h-.1l-.16,0a15.73,15.73,0,0,1-2.12.52c-1.49.25-3.41.27-4.13-1a14.23,14.23,0,0,1-1-2.69,8.41,8.41,0,0,0,.87.19l.09-.42a6.11,6.11,0,0,1-1.12-.34,5.58,5.58,0,0,1-.18-1.16l.1-3.88-.53,3.84c0,.26,0,.55-.06.85a3.16,3.16,0,0,1-1.51-2.52,13.26,13.26,0,0,1,.8-4.13l.71,1.23-.36-1.47a3.09,3.09,0,0,1-.09-.57c.1-.22.21-.5.32-.72L222.4,78c.11-1.76.84-4.22,2.35-5.21a5,5,0,0,1,1.92-.79c1.5-.25,3.1.27,5.72,1.37l.62.27-.36-.58a8.49,8.49,0,0,0-2.27-2.48,11.25,11.25,0,0,1,2.9-1,4.23,4.23,0,0,1,1.93.07c2.55.79,2.62,2.55,2.72,5.45A22.91,22.91,0,0,0,233.69,74l-1.62-.24,1.5.64A45.06,45.06,0,0,1,238,76.84c0,.28,0,.55.06.84l.09,1,.48-1.46C240.74,78.66,242,79.86,242.14,80.63Z" style="fill:#323535"/><path d="M222.52,78c.1-.19.19-.35.26-.46Z" style="fill:#323535"/><path d="M224.59,87.23l.92.14A8,8,0,0,1,224.59,87.23Z" style="fill:#323535"/><path d="M225.8,87.41l-.29,0Z" style="fill:#323535"/><polygon points="228.65 72.99 208.15 96.69 208.18 97.29 236.72 84.34 228.65 72.99" style="fill:#fff"/><polygon points="214.5 91.91 231.86 78.92 229.33 79.1 214.5 91.91" style="fill:#323535"/><polygon points="212.83 95.25 225.72 88.8 227.1 88.7 212.83 95.25" style="fill:#323535"/><polygon points="210.96 95.63 228.22 84.03 230.46 84.03 210.96 95.63" style="fill:#323535"/><polygon points="224.36 79.54 225.56 76.08 206.91 98.24 224.36 79.54" style="fill:#323535"/><polygon points="210.22 94.36 224.15 79.22 224.89 77.07 210.22 94.36" style="fill:#fff"/><path d="M112,26.26a8,8,0,0,0-3.36,1.39c-.24-2.7.14-4.37.94-5.35,1.83-2.28,3.72-1.52,6.61-.5a23.19,23.19,0,0,0-2.79,3.74,41.29,41.29,0,0,1,4-3.31l.9.28c-.08-.07-.33-.28-.6-.49,1.85-1.3,3.78-2.41,4.82-2.21,2.84.52,3.18,3.86,4,7.26l-.38,0,.47.41c.15.59.3,1.19.5,1.77,0-.48-.08-1-.1-1.46,1.61,1.2,3.41,2,3.16,4.29a7.77,7.77,0,0,1-2,4c-.11-.76-.3-1.53-.46-2.22,0,.06-.15,5.6-3,6a15.8,15.8,0,0,1-3.32-.07,12.54,12.54,0,0,0,.73-1,6.7,6.7,0,0,1-.84,1,5.51,5.51,0,0,1-1.31-.29,7.4,7.4,0,0,0,1.09.5,3.45,3.45,0,0,1-3.39.75,14.81,14.81,0,0,1-4-2.62l.38,0a4.23,4.23,0,0,1-.6-.14c-.25-.23-.47-.44-.64-.62l.49.57c-1.75-.61-4.36-2.45-4.8-4.54C108.06,30.68,109.29,29.05,112,26.26Z" style="fill:#fff"/><path d="M116.71,21c-3.62-2.52-6.65-2.49-9,.07a4,4,0,0,0-1,1.87,8.06,8.06,0,0,0,1,5.21,6.78,6.78,0,0,0-1.93,3.47,6.4,6.4,0,0,0,0,2.54c.44,2.33,3.51,4.58,7.73,4.23,1.74,1.93,3,2.86,4.33,3.21a3.37,3.37,0,0,0,3.48-1.28c.94.31,3.5,1,5.53,0a2.8,2.8,0,0,0,1.55-2,4.54,4.54,0,0,0,.1-1.26c2.93-1.57,4.58-3.4,5.05-5.57,0-.19.07-.4.1-.61a2.68,2.68,0,0,0-.54-2.07c-1-1.25-3.18-1.58-5.92-1.84,0-.79,0-1.58,0-2.36,0-3.87.06-7.54-2.74-8C122.58,16.26,119.68,17.89,116.71,21Zm5.81-.94c2.35.43,2.9,2.94,3.53,5.85l.21,1-.69-.06.45.42a4.72,4.72,0,0,0,.41.37c.13.49.29,1.11.5,1.72l.59,1.77-.18-1.85c0-.33,0-.66-.07-1l.37.26c1.36.95,2.53,1.78,2.34,3.56a4.85,4.85,0,0,1-.09.57,7.57,7.57,0,0,1-1.54,3c-.1-.55-.23-1.1-.35-1.59l-.15-.66-.27.44a.16.16,0,0,0,0,.09.79.79,0,0,0,0,.17,15.83,15.83,0,0,1-.3,2.16c-.32,1.47-1,3.27-2.45,3.47a14.86,14.86,0,0,1-2.89,0,7.38,7.38,0,0,0,.5-.74l-.35-.23a6.8,6.8,0,0,1-.73.9,4.94,4.94,0,0,1-1.15-.25l-3.57-1.52,3.38,1.9a6.71,6.71,0,0,0,.76.37,3.12,3.12,0,0,1-2.89.48,13.2,13.2,0,0,1-3.55-2.26l1.4-.21-1.5-.2a2.63,2.63,0,0,1-.56-.13l-.56-.56-.26.24c-1.59-.75-3.62-2.33-4-4.1a5,5,0,0,1,0-2.08c.32-1.48,1.39-2.78,3.37-4.81l.48-.48-.67.12a8.54,8.54,0,0,0-3.14,1.21,11.28,11.28,0,0,1,.15-3.07,4.2,4.2,0,0,1,.77-1.76c1.68-2.08,3.34-1.5,6.08-.53a22.76,22.76,0,0,0-2.61,3.53l-.82,1.41,1.16-1.15a40.17,40.17,0,0,1,3.91-3.23l.8.25,1,.3-1.19-1C120.17,20.59,121.74,19.87,122.52,20Z" style="fill:#323535"/><path d="M112.92,37.31a3.14,3.14,0,0,1-.34-.41C112.69,37,112.8,37.18,112.92,37.31Z" style="fill:#323535"/><path d="M122.22,38.76c.16-.27.32-.54.47-.81C122.59,38.15,122.43,38.43,122.22,38.76Z" style="fill:#323535"/><path d="M122.83,37.7l-.14.25A1.83,1.83,0,0,1,122.83,37.7Z" style="fill:#323535"/><polygon points="110.46 29.76 124.99 57.52 125.55 57.71 123.98 26.41 110.46 29.76" style="fill:#fff"/><polygon points="122.87 49.86 117.15 28.95 116.4 31.37 122.87 49.86" style="fill:#323535"/><polygon points="125.36 52.64 124.1 38.28 124.51 36.96 125.36 52.64" style="fill:#323535"/><polygon points="125.03 54.52 120.58 34.21 121.39 32.13 125.03 54.52" style="fill:#323535"/><polygon points="114.98 36.15 112.2 33.77 125.97 59.25 114.98 36.15" style="fill:#323535"/><polygon points="123.58 54.75 114.6 36.23 112.88 34.75 123.58 54.75" style="fill:#fff"/><path d="M25.21,118.86a8.21,8.21,0,0,0,.13,3.63c-2.61-.71-4-1.65-4.69-2.74-1.5-2.51-.13-4,1.84-6.36A23,23,0,0,0,25,117.3a39.62,39.62,0,0,1-1.7-4.93l.57-.74-.67.39c-.58-2.18-.94-4.38-.4-5.29,1.48-2.48,4.74-1.64,8.2-1.2-.05.11-.11.22-.16.34l.54-.29c.61.06,1.23.12,1.84.14-.47-.12-.93-.26-1.4-.41,1.68-1.09,3.09-2.49,5.12-1.48a7.88,7.88,0,0,1,3.09,3.25c-.75-.16-1.54-.25-2.24-.33,0,0,5.2,2.08,4.59,4.84a15.63,15.63,0,0,1-1.22,3.09,11.27,11.27,0,0,0-.71-1,6.45,6.45,0,0,1,.66,1.14,5.56,5.56,0,0,1-.72,1.13,7.52,7.52,0,0,0,.84-.85,3.41,3.41,0,0,1-.47,3.43,14.77,14.77,0,0,1-3.84,2.84L37,121a5,5,0,0,1-.34.51c-.3.15-.57.29-.8.39l.7-.26c-1.18,1.43-3.81,3.23-5.92,2.92C28,124.11,26.88,122.39,25.21,118.86Z" style="fill:#fff"/><path d="M21.87,112.62c-3.62,2.51-4.64,5.37-3.06,8.48a3.93,3.93,0,0,0,1.42,1.53,8.07,8.07,0,0,0,5.24.85,6.86,6.86,0,0,0,2.58,3,6.53,6.53,0,0,0,2.38.93c2.33.39,5.51-1.71,6.65-5.79,2.41-.95,3.72-1.81,4.51-2.94a3.38,3.38,0,0,0,0-3.71c.62-.76,2.18-2.93,1.95-5.17a2.78,2.78,0,0,0-1.36-2.16,4.91,4.91,0,0,0-1.15-.53c-.46-3.29-1.59-5.48-3.46-6.67a5.7,5.7,0,0,0-.54-.3,2.73,2.73,0,0,0-2.14-.23c-1.52.52-2.58,2.44-3.78,4.92-.74-.26-1.48-.54-2.2-.82-3.63-1.38-7-2.68-8.46-.21C19.5,105.48,20,108.77,21.87,112.62ZM23,106.84c1.22-2,3.77-1.69,6.71-1.27l1,.13-.3.63.55-.27c.17-.08.34-.17.49-.26.51,0,1.14.12,1.79.13l1.87.06-1.81-.48q-.48-.12-1-.27l.37-.26c1.37-1,2.55-1.76,4.16-1,.18.09.34.19.5.29a7.51,7.51,0,0,1,2.25,2.47c-.55-.1-1.11-.17-1.61-.23l-.68-.08.32.41.07.05.16.08a16.87,16.87,0,0,1,1.92,1c1.27.81,2.72,2.07,2.4,3.51a14.14,14.14,0,0,1-1,2.69c-.16-.24-.34-.49-.52-.72l-.34.25a6.62,6.62,0,0,1,.6,1,5.31,5.31,0,0,1-.64,1l-2.67,2.82,3-2.51a8.32,8.32,0,0,0,.62-.59,3.18,3.18,0,0,1-.56,2.88,13.61,13.61,0,0,1-3.35,2.55l.29-1.4-.71,1.35a4.43,4.43,0,0,1-.32.48l-.72.32.13.33c-1.25,1.23-3.44,2.58-5.23,2.31a5,5,0,0,1-1.95-.69c-1.28-.82-2.13-2.27-3.34-4.84l-.29-.61-.12.66a8.65,8.65,0,0,0,0,3.37A11.23,11.23,0,0,1,22.22,121a4,4,0,0,1-1.38-1.34c-1.37-2.29-.26-3.64,1.61-5.87a22.65,22.65,0,0,0,2.41,3.67l1,1.25-.68-1.48a40.14,40.14,0,0,1-1.67-4.79l.51-.66.63-.84-1.33.77C22.73,109.24,22.6,107.52,23,106.84Z" style="fill:#323535"/><path d="M35.89,121.86l-.51.18Z" style="fill:#323535"/><path d="M40.47,113.64c-.18-.24-.39-.49-.59-.72A7,7,0,0,1,40.47,113.64Z" style="fill:#323535"/><path d="M39.7,112.7l.18.22Z" style="fill:#323535"/><polygon points="27.95 121.53 59.03 117.56 59.41 117.1 29.51 107.69 27.95 121.53" style="fill:#fff"/><polygon points="51.11 116.89 29.52 114.98 31.52 116.53 51.11 116.89" style="fill:#323535"/><polygon points="54.59 115.52 40.68 111.71 39.59 110.87 54.59 115.52" style="fill:#323535"/><polygon points="56.23 116.49 35.64 113.6 33.97 112.11 56.23 116.49" style="fill:#323535"/><polygon points="35.52 119.52 32.31 121.3 60.99 117.24 35.52 119.52" style="fill:#323535"/><polygon points="55.94 117.92 35.45 119.9 33.47 121.01 55.94 117.92" style="fill:#fff"/><path d="M69.48,76.27a2.86,2.86,0,0,0,.27-.75l0,0c.16.14.34.3.52.49a5.73,5.73,0,0,1,.51.68,6.23,6.23,0,0,1,.41.86,4.1,4.1,0,0,1,.27,1,3.68,3.68,0,0,1,0,1.1,4.07,4.07,0,0,1-.31,1.06l-.06.11a2.67,2.67,0,0,1-.22.41c-.08.13-.18.26-.26.38a5,5,0,0,1-.67.7,5.54,5.54,0,0,1-.69.49c-.17.1-.34.18-.49.25a4.72,4.72,0,0,0-.12-.59,4.46,4.46,0,0,0-.29-.76,3.42,3.42,0,0,0-.33-.58,2.79,2.79,0,0,0-.31-.39c-.15-.17-.25-.26-.28-.29l-.65.21a4.61,4.61,0,0,0,.48-.73,4.48,4.48,0,0,0,.44-1.58,3.71,3.71,0,0,0,0-.89l1-.14.06-.06.18-.19a3.52,3.52,0,0,0,.25-.33A4.27,4.27,0,0,0,69.48,76.27Z" style="fill:#e96347"/><path d="M55.29,80.57l0,.17a4,4,0,0,0,.61,2.49,3.84,3.84,0,0,0,.79.91,3.33,3.33,0,0,0,1,.58,3.49,3.49,0,0,0,2,.16,3.88,3.88,0,0,0,1.48-.66,3.58,3.58,0,0,0,.76-.74l.09-.11.1-.17a3.81,3.81,0,0,0,.25-.5c.06-.16.1-.24.1-.24a2.37,2.37,0,0,0-.12.23,2.46,2.46,0,0,1-.3.44,1,1,0,0,1-.13.16l-.09.1A4,4,0,0,1,61,84a3.79,3.79,0,0,1-1.4.48,3.08,3.08,0,0,1-1.72-.25,3.33,3.33,0,0,1-1.45-1.32,3.39,3.39,0,0,1-.49-2.1l0-.15a1.39,1.39,0,0,1,0-.23l.06-.26V80.1s0,0,0,0l-.29-.14s-.1,0-.1-.06l-.12-.08-.23-.17a2.51,2.51,0,0,1-.68-.92,2.46,2.46,0,0,1-.21-1.32,2.34,2.34,0,0,1,.51-1.17,2.86,2.86,0,0,1,1-.76,2.51,2.51,0,0,1,.57-.18l.14,0h.08a.71.71,0,0,1,.15,0h.57l-.12-.36-.09-.31,0-.08,0-.13s0-.11,0-.17a2.67,2.67,0,0,1,0-.69,2.55,2.55,0,0,1,.51-1.16,2.45,2.45,0,0,1,.88-.71,2.58,2.58,0,0,1,1-.25,2.75,2.75,0,0,1,1.39.24,2.09,2.09,0,0,1,.33.19l.07,0-.06,0a3.59,3.59,0,0,0-.32-.21,2.88,2.88,0,0,0-2.46-.19,2.75,2.75,0,0,0-1,.72,3.12,3.12,0,0,0-.67,1.29,3.07,3.07,0,0,0-.09.8,1.48,1.48,0,0,0,0,.21l0,.11v.07l0,.11s0,0-.06,0h-.1l-.17,0a2.93,2.93,0,0,0-.7.2,3.21,3.21,0,0,0-1.23.89,2.93,2.93,0,0,0-.67,1.47A3.11,3.11,0,0,0,54,79a3.21,3.21,0,0,0,1.15,1.38l.15.09,0,0h0s0,0,0,.06A.32.32,0,0,1,55.29,80.57ZM52.35,76l-.24.21a4.23,4.23,0,0,0-.57.69A4,4,0,0,0,51,78.1a4.06,4.06,0,0,0-.12,1.65,3.93,3.93,0,0,0,.22.85,3.18,3.18,0,0,0,.37.71,4.08,4.08,0,0,0,.91,1,2.83,2.83,0,0,0,.43.28,2.3,2.3,0,0,0,.34.18l.3.12-.27-.18a3.63,3.63,0,0,1-.65-.57,4.8,4.8,0,0,1-.74-1,5.14,5.14,0,0,1-.5-1.43,4.54,4.54,0,0,1,0-1.52,4.12,4.12,0,0,1,.86-1.94Zm16.4,1.27a.56.56,0,0,1,0,.08l-1,.14a3.9,3.9,0,0,0-.17-.73,4.72,4.72,0,0,0-.59-1.17,4.45,4.45,0,0,0-.57-.67,1.9,1.9,0,0,0-.23-.21l.2.24a4.56,4.56,0,0,1,.46.72,4.64,4.64,0,0,1,.41,1.18,5.18,5.18,0,0,1,.09,1.49,5.7,5.7,0,0,1-.36,1.45,5.5,5.5,0,0,1-.59,1.09,4.85,4.85,0,0,1-.55.66l-.23.21.27-.17.31-.22a3.41,3.41,0,0,0,.38-.33,3.45,3.45,0,0,0,.3-.34l.65-.21,0,.08a2.67,2.67,0,0,1,.15.27c.06.12.13.26.2.43a3.8,3.8,0,0,1,.21.6,4.73,4.73,0,0,1,.14.73,5,5,0,0,1,0,.68v.16a4.38,4.38,0,0,1-.08.62l-.06.3c0,.09,0,.19-.09.29s-.15.41-.24.62a3.67,3.67,0,0,1-1.17,1.41c-.09.07-.18.12-.27.18a2.07,2.07,0,0,1-.57.21,2,2,0,0,1-.59.07h-.29a2,2,0,0,1-.75-.26,1.16,1.16,0,0,1-.25-.18l-.06,0,0,.07c.05,0,.12.13.22.22a2,2,0,0,0,.63.39,4,4,0,0,1-.41.44,5.3,5.3,0,0,1-1,.82l-.13.08a2.44,2.44,0,0,1-.28.14,4.29,4.29,0,0,1-1.37.41,3.54,3.54,0,0,1-1.7-.19,3.08,3.08,0,0,1-1-.61l.13-.12.24-.22c.14-.13.23-.26.3-.33l.1-.11-.12.09a2.35,2.35,0,0,1-.36.25,2.54,2.54,0,0,1-.47.26l-.19.09a5.79,5.79,0,0,1-.78.3,7.09,7.09,0,0,1-1,.24,7.93,7.93,0,0,1-1.21.08,5.77,5.77,0,0,1-3.76-1.42,5.79,5.79,0,0,1-.91-.95,7.51,7.51,0,0,1-.67-1,6,6,0,0,1-.42-1,0,0,0,0,0,0,0h0a2.58,2.58,0,0,0,.46-.06,1.81,1.81,0,0,0,.28-.06l.1,0h-.1a1.41,1.41,0,0,1-.28,0,2.07,2.07,0,0,1-.43-.09l-.11,0-.26-.09L49.19,84A4.12,4.12,0,0,1,48,83.23a3.93,3.93,0,0,1-.9-1.41A2.79,2.79,0,0,1,47,81a3.2,3.2,0,0,1,.1-.83,3.15,3.15,0,0,1,.27-.73.75.75,0,0,1,.06-.13,3,3,0,0,1,.3-.46l.05-.06a4.27,4.27,0,0,1,.35-.37,3.34,3.34,0,0,1,.35-.27c.1-.07.19-.1.25-.14l.08,0-.09,0-.27.1-.41.21-.25.17v-.06a5.54,5.54,0,0,1,.12-.86,5.18,5.18,0,0,1,.28-.9A4.81,4.81,0,0,1,50,74.39a4.69,4.69,0,0,1,.81-.45.52.52,0,0,0,0,.11c0,.21,0,.37-.07.47a1.13,1.13,0,0,1,0,.14l0-.13c0-.11,0-.27.11-.46l.06-.18a4.49,4.49,0,0,1,.2-.52,0,0,0,0,1,0,0l.09-.2a7,7,0,0,1,.35-.64,6.23,6.23,0,0,1,.7-1,7.22,7.22,0,0,1,1-.91,7.32,7.32,0,0,1,1.25-.77,6.61,6.61,0,0,1,1.48-.5,6.83,6.83,0,0,1,1.55-.11,3.19,3.19,0,0,1,.54,0h.09a6.83,6.83,0,0,1,.81.17,7.46,7.46,0,0,1,1.26.45,8.83,8.83,0,0,1,1,.58,5.61,5.61,0,0,1,.76.61l.3.27.22.25a3.51,3.51,0,0,1,.29.38l.1.12L62.87,72a4.13,4.13,0,0,0-.25-.41,5.49,5.49,0,0,0-.45-.61,5.83,5.83,0,0,0-.7-.72,6.25,6.25,0,0,0-1-.73,6.73,6.73,0,0,0-1.3-.58l-.4-.11a3.74,3.74,0,0,1,.57-.36,5.7,5.7,0,0,1,.86-.37,5.64,5.64,0,0,1,1-.23,6.34,6.34,0,0,1,1.16,0,5.18,5.18,0,0,1,1.2.23,5.87,5.87,0,0,1,1.11.5,5,5,0,0,1,.92.69,6.46,6.46,0,0,1,.72.78,6.55,6.55,0,0,1,.51.79c.06.12.12.23.17.35l-.2,0a3.49,3.49,0,0,0-1-.06l-.25,0h0l.25,0a3.54,3.54,0,0,1,.88.26,3.09,3.09,0,0,1,.47.25l.08,0,.11.08a4.43,4.43,0,0,1,.45.34,4.16,4.16,0,0,1,1,1.22,4.63,4.63,0,0,1,.41,1.48c0,.08,0,.17,0,.25v.45a5.63,5.63,0,0,1-.08.61,3.42,3.42,0,0,1-.27.88A1.35,1.35,0,0,1,68.75,77.26Zm-5-.49a2.72,2.72,0,0,0-.15-.66,2.58,2.58,0,0,0-.94-1.26,2.31,2.31,0,0,0-1.52-.43A1.68,1.68,0,0,0,60,75a1.34,1.34,0,0,0-.36.75.79.79,0,0,0,0,.22.17.17,0,0,0,0,.07,1,1,0,0,1,.06-.28,1.4,1.4,0,0,1,1.45-.84,2.61,2.61,0,0,1,.6.14,3.11,3.11,0,0,1,.56.32,2.57,2.57,0,0,1,.81,1,3.13,3.13,0,0,1,.23.54,2.33,2.33,0,0,1,.1.5,2.16,2.16,0,0,1,0,.43,2.48,2.48,0,0,1,0,.33c0,.16-.06.26-.07.28l.15-.25c0-.09.09-.19.13-.33a3.48,3.48,0,0,0,.11-.46A2.76,2.76,0,0,0,63.76,76.77Z" style="fill:#e96347"/><path d="M67.31,80a4.61,4.61,0,0,1-.48.73,3.45,3.45,0,0,1-.3.34,3.41,3.41,0,0,1-.38.33l-.31.22-.27.17.23-.21a4.85,4.85,0,0,0,.55-.66,5.5,5.5,0,0,0,.59-1.09,5.7,5.7,0,0,0,.36-1.45,5.18,5.18,0,0,0-.09-1.49,4.64,4.64,0,0,0-.41-1.18,4.56,4.56,0,0,0-.46-.72l-.2-.24a1.9,1.9,0,0,1,.23.21,4.45,4.45,0,0,1,.57.67,4.72,4.72,0,0,1,.59,1.17,3.9,3.9,0,0,1,.17.73,3.71,3.71,0,0,1,0,.89A4.48,4.48,0,0,1,67.31,80Z" style="fill:#343536"/><path d="M59.63,75.71A1.34,1.34,0,0,1,60,75a1.68,1.68,0,0,1,1.16-.54,2.31,2.31,0,0,1,1.52.43,2.58,2.58,0,0,1,.94,1.26,2.72,2.72,0,0,1,.15.66,2.76,2.76,0,0,1,0,.58,3.48,3.48,0,0,1-.11.46c0,.14-.1.24-.13.33l-.15.25s0-.12.07-.28a2.48,2.48,0,0,0,0-.33,2.16,2.16,0,0,0,0-.43,2.33,2.33,0,0,0-.1-.5,3.13,3.13,0,0,0-.23-.54,2.57,2.57,0,0,0-.81-1,3.11,3.11,0,0,0-.56-.32,2.61,2.61,0,0,0-.6-.14,1.4,1.4,0,0,0-1.45.84,1,1,0,0,0-.06.28.17.17,0,0,1,0-.07A.79.79,0,0,1,59.63,75.71Z" style="fill:#343536"/><path d="M55.27,80.74l0-.17a.32.32,0,0,0,0-.07s0,0,0-.06h0l0,0-.15-.09A3.21,3.21,0,0,1,54,79a3.11,3.11,0,0,1-.24-1.67,2.93,2.93,0,0,1,.67-1.47,3.21,3.21,0,0,1,1.23-.89,2.93,2.93,0,0,1,.7-.2l.17,0h.1s0,0,.06,0l0-.11v-.07l0-.11a1.48,1.48,0,0,1,0-.21,3.07,3.07,0,0,1,.09-.8,3.12,3.12,0,0,1,.67-1.29,2.75,2.75,0,0,1,1-.72,2.88,2.88,0,0,1,2.46.19,3.59,3.59,0,0,1,.32.21l.06,0-.07,0a2.09,2.09,0,0,0-.33-.19,2.75,2.75,0,0,0-1.39-.24,2.58,2.58,0,0,0-1,.25,2.45,2.45,0,0,0-.88.71,2.55,2.55,0,0,0-.51,1.16,2.67,2.67,0,0,0,0,.69c0,.06,0,.12,0,.17l0,.13,0,.08.09.31.12.36H56.8a.71.71,0,0,0-.15,0h-.08l-.14,0a2.51,2.51,0,0,0-.57.18,2.86,2.86,0,0,0-1,.76,2.34,2.34,0,0,0-.51,1.17,2.46,2.46,0,0,0,.21,1.32,2.51,2.51,0,0,0,.68.92l.23.17.12.08s.06,0,.1.06l.29.14s.06,0,0,0v.07l-.06.26a1.39,1.39,0,0,0,0,.23l0,.15a3.39,3.39,0,0,0,.49,2.1,3.33,3.33,0,0,0,1.45,1.32,3.08,3.08,0,0,0,1.72.25A3.79,3.79,0,0,0,61,84a4,4,0,0,0,.81-.61l.09-.1a1,1,0,0,0,.13-.16,2.46,2.46,0,0,0,.3-.44,2.37,2.37,0,0,1,.12-.23s0,.08-.1.24a3.81,3.81,0,0,1-.25.5l-.1.17-.09.11a3.58,3.58,0,0,1-.76.74,3.88,3.88,0,0,1-1.48.66,3.49,3.49,0,0,1-2-.16,3.33,3.33,0,0,1-1-.58,3.84,3.84,0,0,1-.79-.91A4,4,0,0,1,55.27,80.74Z" style="fill:#343536"/><path d="M69.85,74.84c0,.16,0,.33,0,.48l.11.05a6.63,6.63,0,0,1,.64.41,5,5,0,0,1,.67.64,4.6,4.6,0,0,1,.59.91,4.18,4.18,0,0,1,.36,1.15,4.35,4.35,0,0,1,0,1.3A4.41,4.41,0,0,1,71.77,81a2.5,2.5,0,0,1-.23.39c.64.9,1.34,1.87,2,2.89,1.71,2.45,3.2,4.71,4.24,6.37l1.23,2,.45.72L79,92.69c-.34-.44-.81-1.08-1.41-1.85-1.17-1.57-2.75-3.77-4.43-6.24-.67-1-1.3-1.93-1.88-2.82l-.19.22a5.76,5.76,0,0,1-.82.7,4.56,4.56,0,0,1-.82.42,4.51,4.51,0,0,1-.61.18.49.49,0,0,1,0,.12,4.22,4.22,0,0,1-.09,1.21l.46.48c2.29,2.43,4.33,4.67,5.76,6.33l2.3,2.68-2.52-2.48c-1.55-1.54-3.65-3.72-5.93-6.16l-.23-.25c0,.11-.09.22-.14.33a3.61,3.61,0,0,1-1.51,1.62l-.12,0,.73.63c1.37,1.2,2.67,2.35,3.84,3.42s2.2,2,3.07,2.86,1.57,1.49,2.05,2l.74.7-.79-.65c-.52-.42-1.28-1-2.2-1.78s-2-1.67-3.22-2.7-2.51-2.17-3.87-3.38c-.33-.29-.65-.57-1-.86a1.52,1.52,0,0,1-.21,0,2.86,2.86,0,0,1-.84,0,1.29,1.29,0,0,1-.28-.08l-.13,0a2,2,0,0,1-.63-.39c-.1-.09-.17-.17-.22-.22l0-.07.06,0a1.16,1.16,0,0,0,.25.18,2,2,0,0,0,.75.26h.29a2,2,0,0,0,.59-.07,2.07,2.07,0,0,0,.57-.21c.09-.06.18-.11.27-.18a3.67,3.67,0,0,0,1.17-1.41c.09-.21.17-.41.24-.62s.06-.2.09-.29l.06-.3a4.38,4.38,0,0,0,.08-.62v-.16a5,5,0,0,0,0-.68,4.73,4.73,0,0,0-.14-.73,3.8,3.8,0,0,0-.21-.6c-.07-.17-.14-.31-.2-.43a2.67,2.67,0,0,0-.15-.27l0-.08s.13.12.28.29a2.79,2.79,0,0,1,.31.39,3.42,3.42,0,0,1,.33.58,4.46,4.46,0,0,1,.29.76,4.72,4.72,0,0,1,.12.59c.15-.07.32-.15.49-.25a5.54,5.54,0,0,0,.69-.49,5,5,0,0,0,.67-.7c.08-.12.18-.25.26-.38a2.67,2.67,0,0,0,.22-.41l.06-.11a4.07,4.07,0,0,0,.31-1.06,3.68,3.68,0,0,0,0-1.1,4.1,4.1,0,0,0-.27-1,6.23,6.23,0,0,0-.41-.86,5.73,5.73,0,0,0-.51-.68c-.18-.19-.36-.35-.52-.49l0,0a2.86,2.86,0,0,1-.27.75,4.27,4.27,0,0,1-.28.49,3.52,3.52,0,0,1-.25.33l-.18.19-.06.06a.56.56,0,0,0,0-.08,1.35,1.35,0,0,0,.12-.22,3.42,3.42,0,0,0,.27-.88,5.63,5.63,0,0,0,.08-.61V75.1c0-.08,0-.17,0-.25a4.63,4.63,0,0,0-.41-1.48,4.16,4.16,0,0,0-1-1.22,4.43,4.43,0,0,0-.45-.34l-.11-.08-.08,0a3.09,3.09,0,0,0-.47-.25,3.54,3.54,0,0,0-.88-.26l-.25,0h0l.25,0a3.49,3.49,0,0,1,1,.06l.2,0c0-.12-.11-.23-.17-.35a6.55,6.55,0,0,0-.51-.79,6.46,6.46,0,0,0-.72-.78,5,5,0,0,0-.92-.69,5.87,5.87,0,0,0-1.11-.5,5.18,5.18,0,0,0-1.2-.23,6.34,6.34,0,0,0-1.16,0,5.64,5.64,0,0,0-1,.23,5.7,5.7,0,0,0-.86.37,3.74,3.74,0,0,0-.57.36l.4.11a6.73,6.73,0,0,1,1.3.58,6.25,6.25,0,0,1,1,.73,5.83,5.83,0,0,1,.7.72,5.49,5.49,0,0,1,.45.61,4.13,4.13,0,0,1,.25.41l.08.13-.1-.12a3.51,3.51,0,0,0-.29-.38l-.22-.25-.3-.27a5.61,5.61,0,0,0-.76-.61,8.83,8.83,0,0,0-1-.58A7.46,7.46,0,0,0,59,69.49a6.83,6.83,0,0,0-.81-.17H58.1a3.19,3.19,0,0,0-.54,0,6.83,6.83,0,0,0-1.55.11,6.61,6.61,0,0,0-1.48.5,7.32,7.32,0,0,0-1.25.77,7.22,7.22,0,0,0-1,.91,6.23,6.23,0,0,0-.7,1,7,7,0,0,0-.35.64l-.17,0c.08-.22.18-.47.3-.72a7.59,7.59,0,0,1,.64-1,8.38,8.38,0,0,1,1-1,7,7,0,0,1,1.3-.91,6.85,6.85,0,0,1,1.61-.59,6.59,6.59,0,0,1,1.71-.11,5.75,5.75,0,0,1,.94.14,0,0,0,0,1,0,0,5.15,5.15,0,0,1,.63-.54,6.58,6.58,0,0,1,.85-.52,6.33,6.33,0,0,1,1.09-.4,4.85,4.85,0,0,1,1.29-.16,5.28,5.28,0,0,1,1.4.21,4.81,4.81,0,0,1,1.27.61,5.49,5.49,0,0,1,1,.86,5.6,5.6,0,0,1,.68,1,6.54,6.54,0,0,1,.41.92c.06.2.11.38.15.55a3.89,3.89,0,0,1,.88.42A3.66,3.66,0,0,1,69.44,73a3.82,3.82,0,0,1,.33.91A3.93,3.93,0,0,1,69.85,74.84Z" style="fill:#343536"/><path d="M51.07,80.6a3.93,3.93,0,0,1-.22-.85A4.06,4.06,0,0,1,51,78.1a4,4,0,0,1,.57-1.21,4.23,4.23,0,0,1,.57-.69l.24-.21-.21.24a4.12,4.12,0,0,0-.86,1.94,4.54,4.54,0,0,0,0,1.52,5.14,5.14,0,0,0,.5,1.43,4.8,4.8,0,0,0,.74,1,3.63,3.63,0,0,0,.65.57l.27.18-.3-.12a2.3,2.3,0,0,1-.34-.18,2.83,2.83,0,0,1-.43-.28,4.08,4.08,0,0,1-.91-1A3.18,3.18,0,0,1,51.07,80.6Z" style="fill:#343536"/><path d="M72.43,94.78c1.65,1.16,2.78,1.91,3,2.09l-.81-.48L72.3,95c-2-1.22-4.66-3-7.57-5l-1.42-1a4,4,0,0,1-1.71.63,3.38,3.38,0,0,1-1.94-.32,2.93,2.93,0,0,1-1-.83,5.56,5.56,0,0,1-.76.5,6.06,6.06,0,0,1-1.08.44,5.51,5.51,0,0,1-1.33.24A6,6,0,0,1,54,89.63a6.12,6.12,0,0,1-1.54-.53,6,6,0,0,1-1.32-1,6.34,6.34,0,0,1-.92-1.19,6.15,6.15,0,0,1-.78-2.35s0-.06,0-.09l-.32,0a3.32,3.32,0,0,1-.75-.22,3.91,3.91,0,0,1-.77-.46,3.31,3.31,0,0,1-.69-.75,3.15,3.15,0,0,1-.43-1,3.67,3.67,0,0,1-.06-1.09,3.38,3.38,0,0,1,.24-1A4.2,4.2,0,0,1,47,79.2q.14-.18.27-.33a4.8,4.8,0,0,1-.1-1.45,4.74,4.74,0,0,1,.23-1.08A4.84,4.84,0,0,1,48,75.27a4.57,4.57,0,0,1,.8-.89,5,5,0,0,1,.92-.6,5.9,5.9,0,0,1,.93-.34l.37-.08s0,0,0,0l.07-.22.17,0-.09.2a0,0,0,0,0,0,0,4.49,4.49,0,0,0-.2.52l-.06.18c-.06.19-.08.35-.11.46l0,.13a1.13,1.13,0,0,0,0-.14c0-.1,0-.26.07-.47a.52.52,0,0,1,0-.11,4.69,4.69,0,0,0-.81.45,4.81,4.81,0,0,0-1.85,2.23,5.18,5.18,0,0,0-.28.9,5.54,5.54,0,0,0-.12.86v.06l.25-.17.41-.21.27-.1.09,0-.08,0c-.06,0-.15.07-.25.14a3.34,3.34,0,0,0-.35.27,4.27,4.27,0,0,0-.35.37l-.05.06a3,3,0,0,0-.3.46.75.75,0,0,0-.06.13,3.15,3.15,0,0,0-.27.73A3.2,3.2,0,0,0,47,81a2.79,2.79,0,0,0,.12.86,3.93,3.93,0,0,0,.9,1.41,4.12,4.12,0,0,0,1.17.81l.17.08.26.09.11,0a2.07,2.07,0,0,0,.43.09,1.41,1.41,0,0,0,.28,0h.1l-.1,0a1.81,1.81,0,0,1-.28.06,2.58,2.58,0,0,1-.46.06h0a0,0,0,0,1,0,0,6,6,0,0,0,.42,1,7.51,7.51,0,0,0,.67,1,5.79,5.79,0,0,0,.91.95,6,6,0,0,0,3.76,1.42,7.93,7.93,0,0,0,1.21-.08,7.09,7.09,0,0,0,1-.24,5.79,5.79,0,0,0,.78-.3l.19-.09a2.54,2.54,0,0,0,.47-.26,2.35,2.35,0,0,0,.36-.25l.12-.09-.1.11c-.07.07-.16.2-.3.33l-.24.22-.13.12a3.08,3.08,0,0,0,1,.61,3.54,3.54,0,0,0,1.7.19,4.29,4.29,0,0,0,1.37-.41,2.44,2.44,0,0,0,.28-.14l.13-.08a5.3,5.3,0,0,0,1-.82,4,4,0,0,0,.41-.44l.13,0c-.09.17-.21.35-.35.56a5,5,0,0,1-.85.89l1.3.87C67.91,91.62,70.53,93.45,72.43,94.78Z" style="fill:#343536"/><path d="M68.44,216.18a3.59,3.59,0,0,1,.33.84l0,0a6.09,6.09,0,0,0,.56-.57,5.27,5.27,0,0,0,.56-.77,6.76,6.76,0,0,0,.44-1,5.76,5.76,0,0,0,.28-1.14,4.31,4.31,0,0,0,0-1.24,4.79,4.79,0,0,0-.38-1.18l-.06-.12a3.35,3.35,0,0,0-.27-.45c-.09-.14-.2-.29-.3-.42a5.51,5.51,0,0,0-.77-.76,4.37,4.37,0,0,0-.79-.53,4.71,4.71,0,0,0-.56-.27,4.09,4.09,0,0,1-.12.66,4.67,4.67,0,0,1-.29.87,6.54,6.54,0,0,1-.36.66,4.91,4.91,0,0,1-.34.44c-.17.2-.28.31-.31.34l-.73-.23a4.68,4.68,0,0,1,.55.82,4.5,4.5,0,0,1,.52,2.76l1.14.13.07.07s.12.11.2.21a2.37,2.37,0,0,1,.29.36A3.23,3.23,0,0,1,68.44,216.18Z" style="fill:#fff"/><path d="M52.39,211.84l0,.07h0l0,0-.17.11a3.92,3.92,0,0,0-.32.25,3.77,3.77,0,0,0-.93,1.33,3.56,3.56,0,0,0-.22,1.88,3.21,3.21,0,0,0,.8,1.64,3.49,3.49,0,0,0,1.4,1,3.16,3.16,0,0,0,.79.2l.2,0h.18l0,.13v.2a1.85,1.85,0,0,0,0,.23,3.26,3.26,0,0,0,.12.9A3.56,3.56,0,0,0,55,221.2a3.09,3.09,0,0,0,1.2.79,3.43,3.43,0,0,0,1.18.18,3.21,3.21,0,0,0,1.58-.47,2.24,2.24,0,0,0,.35-.24l.07-.07a.28.28,0,0,1-.08.06,2.17,2.17,0,0,1-.36.22,3.13,3.13,0,0,1-1.55.31,3,3,0,0,1-1.09-.25,2.73,2.73,0,0,1-1-.77,3.07,3.07,0,0,1-.61-1.3,3.29,3.29,0,0,1-.06-.77c0-.07,0-.13,0-.2l0-.14,0-.09.09-.35c0-.13.08-.27.13-.41l-.65,0c-.06,0-.11,0-.16,0H54l-.16,0a2.94,2.94,0,0,1-.64-.19,3,3,0,0,1-1.12-.83,2.49,2.49,0,0,1-.61-1.3,2.63,2.63,0,0,1,.19-1.48,2.78,2.78,0,0,1,.74-1.06,2.43,2.43,0,0,1,.25-.2l.13-.09.12-.07.31-.17s.07,0,.06,0v-.08l-.08-.29-.06-.26,0-.16a3.71,3.71,0,0,1,.49-2.37,3.79,3.79,0,0,1,1.59-1.54,3.54,3.54,0,0,1,1.92-.32,4.37,4.37,0,0,1,1.59.49,4.56,4.56,0,0,1,.93.67l.1.11.15.17a4,4,0,0,1,.35.49l.14.26-.11-.28a4,4,0,0,0-.3-.54l-.12-.19-.1-.12a4.42,4.42,0,0,0-.88-.82,4.53,4.53,0,0,0-1.68-.7,3.94,3.94,0,0,0-2.24.24,4,4,0,0,0-1.08.68,4.64,4.64,0,0,0-.86,1,4.47,4.47,0,0,0-.61,2.82l0,.19C52.38,211.83,52.39,211.81,52.39,211.84ZM49,216.73a4.45,4.45,0,0,1-.54-.82,5.09,5.09,0,0,1-.54-3,5.25,5.25,0,0,1,.52-1.61,5,5,0,0,1,.8-1.17,4.55,4.55,0,0,1,.71-.67,2.7,2.7,0,0,1,.3-.2l-.33.14c-.11.06-.24.12-.38.21a5.22,5.22,0,0,0-.48.33A4.67,4.67,0,0,0,48,211a4.35,4.35,0,0,0-.39.81,4.87,4.87,0,0,0-.22,1,4.49,4.49,0,0,0,.18,1.86,4.37,4.37,0,0,0,.68,1.35,5.55,5.55,0,0,0,.66.75c.15.14.25.21.27.23Zm18.77-1.39a4,4,0,0,1,.33,1,4.77,4.77,0,0,1,.1.69c0,.14,0,.28,0,.42v.08c0,.09,0,.19,0,.28a5,5,0,0,1-.42,1.67,4.47,4.47,0,0,1-1,1.4,4.61,4.61,0,0,1-.5.4l-.11.09-.09.05a3,3,0,0,1-.52.29,4,4,0,0,1-1,.32,2.4,2.4,0,0,1-.29,0h0l.29,0a4.67,4.67,0,0,0,1.08-.09l.23,0c-.06.13-.11.26-.18.39a6.81,6.81,0,0,1-.55.9,8,8,0,0,1-.78.9,6.21,6.21,0,0,1-1,.8,7.5,7.5,0,0,1-1.24.6,5.71,5.71,0,0,1-1.34.28,7.05,7.05,0,0,1-1.3,0,6.73,6.73,0,0,1-1.17-.23,8.33,8.33,0,0,1-1-.39,6.41,6.41,0,0,1-.66-.39l.45-.14A7.21,7.21,0,0,0,58.5,224a6.71,6.71,0,0,0,1.11-.84,7.08,7.08,0,0,0,.77-.83,6.15,6.15,0,0,0,.49-.7c.13-.19.2-.36.27-.47l.08-.15-.1.14c-.08.1-.17.25-.32.43l-.25.29-.32.32a6.22,6.22,0,0,1-.84.7,9.12,9.12,0,0,1-1.13.68,8.87,8.87,0,0,1-1.4.55,8.62,8.62,0,0,1-.91.2.15.15,0,0,1-.09,0,4.07,4.07,0,0,1-.61.07,7.94,7.94,0,0,1-1.75-.07,8.79,8.79,0,0,1-1.67-.52A8.94,8.94,0,0,1,50.4,223a8,8,0,0,1-1.13-1,8.75,8.75,0,0,1-.81-1,6.64,6.64,0,0,1-.41-.7,2.4,2.4,0,0,1-.11-.23l0,0c-.09-.22-.17-.41-.23-.59a1.46,1.46,0,0,1-.07-.19,4.19,4.19,0,0,1-.14-.51l0-.15s0,.08,0,.15a4.47,4.47,0,0,0,.09.53s0,.08,0,.13a7.39,7.39,0,0,1-.92-.48,6.12,6.12,0,0,1-1.58-1.48,6.47,6.47,0,0,1-.56-1,6.56,6.56,0,0,1-.34-1,8.9,8.9,0,0,1-.16-1v-.06l.29.18.46.23.31.1.1,0-.1,0-.27-.15a3.78,3.78,0,0,1-.41-.3,5,5,0,0,1-.4-.4s0,0-.05-.07a3.3,3.3,0,0,1-.36-.51c0-.05,0-.09-.07-.13a3.5,3.5,0,0,1-.32-.82,3.54,3.54,0,0,1-.14-.93,3.23,3.23,0,0,1,.12-1,4.21,4.21,0,0,1,1-1.61,4.61,4.61,0,0,1,1.28-.94l.19-.09.29-.11.12,0a3,3,0,0,1,.48-.12c.14,0,.25,0,.32,0h.11l-.11,0a2.32,2.32,0,0,0-.32-.06,3.39,3.39,0,0,0-.52,0h0a0,0,0,0,1,0,0,6.72,6.72,0,0,1,.44-1.13,7.4,7.4,0,0,1,.72-1.17,6.79,6.79,0,0,1,1-1.1,8,8,0,0,1,1.28-.91,7.35,7.35,0,0,1,1.45-.56,7.63,7.63,0,0,1,1.46-.23,8.61,8.61,0,0,1,1.36.05,9.28,9.28,0,0,1,1.17.24c.32.1.62.2.88.31l.22.1a5.66,5.66,0,0,1,.94.55l.14.1-.12-.12a4.71,4.71,0,0,0-.34-.36,2.05,2.05,0,0,1-.27-.25l-.16-.12a3.45,3.45,0,0,1,1.09-.72,3.83,3.83,0,0,1,1.9-.25,4.78,4.78,0,0,1,1.55.41,3.13,3.13,0,0,1,.32.15l.15.09a6.06,6.06,0,0,1,1.18.89c.18.17.34.33.47.48a2.57,2.57,0,0,0-.7.46,3.31,3.31,0,0,0-.23.26l-.06.07.07-.06a1.49,1.49,0,0,1,.27-.21,2.4,2.4,0,0,1,.84-.3l.1,0,.22,0a2.79,2.79,0,0,1,1.32.29l.3.18a4.23,4.23,0,0,1,1.35,1.56,6.61,6.61,0,0,1,.29.68,2.67,2.67,0,0,1,.11.34c0,.11.06.22.08.33a5.46,5.46,0,0,1,.1.69s0,0,0,0a.66.66,0,0,1,0,.14,4.89,4.89,0,0,1,0,.77,6.07,6.07,0,0,1-.14.82,5.37,5.37,0,0,1-.21.67c-.08.2-.15.36-.22.5a2.26,2.26,0,0,1-.17.3l-.05.1-.73-.23-.35-.36a5.44,5.44,0,0,0-.44-.36l-.35-.25-.31-.17a1.93,1.93,0,0,1,.26.23,4.48,4.48,0,0,1,.64.72,6.13,6.13,0,0,1,.69,1.21,5.94,5.94,0,0,1,.45,1.61,6.2,6.2,0,0,1-.05,1.68,5.71,5.71,0,0,1-.43,1.34,5.08,5.08,0,0,1-.5.82l-.22.28.26-.24a5,5,0,0,0,.61-.77,5.07,5.07,0,0,0,.63-1.34,4.94,4.94,0,0,0,.18-.82l1.14.13a.54.54,0,0,0,0,.08A1.72,1.72,0,0,1,67.73,215.34Zm-5.76-.2a2.3,2.3,0,0,0-.14-.52,2.18,2.18,0,0,0-.15-.36l-.17-.28s0,.13.08.31a2.6,2.6,0,0,1,.06.37,4.16,4.16,0,0,1,0,.49,3.07,3.07,0,0,1-.11.56,3.79,3.79,0,0,1-.23.61,2.94,2.94,0,0,1-.89,1.11,2.87,2.87,0,0,1-.62.38,2.78,2.78,0,0,1-.67.18,1.68,1.68,0,0,1-1.12-.27,1.65,1.65,0,0,1-.53-.64,1.31,1.31,0,0,1-.08-.31.45.45,0,0,1,0,.08c0,.06,0,.14,0,.25a1.58,1.58,0,0,0,.42.83,1.89,1.89,0,0,0,1.32.57,2.64,2.64,0,0,0,1.7-.52,3,3,0,0,0,1-1.44,3.56,3.56,0,0,0,.15-.75A3.34,3.34,0,0,0,62,215.14Z" style="fill:#fff"/><path d="M65.89,212.12a4.68,4.68,0,0,0-.55-.82l-.35-.36a5.44,5.44,0,0,0-.44-.36l-.35-.25-.31-.17a1.93,1.93,0,0,1,.26.23,4.48,4.48,0,0,1,.64.72,6.13,6.13,0,0,1,.69,1.21,5.94,5.94,0,0,1,.45,1.61,6.2,6.2,0,0,1-.05,1.68,5.71,5.71,0,0,1-.43,1.34,5.08,5.08,0,0,1-.5.82l-.22.28.26-.24a5,5,0,0,0,.61-.77,5.07,5.07,0,0,0,.63-1.34,4.94,4.94,0,0,0,.18-.82,4.5,4.5,0,0,0-.52-2.76Z" style="fill:#343536"/><path d="M57.39,217.1a1.58,1.58,0,0,0,.42.83,1.89,1.89,0,0,0,1.32.57,2.64,2.64,0,0,0,1.7-.52,3,3,0,0,0,1-1.44,3.56,3.56,0,0,0,.15-.75,3.34,3.34,0,0,0,0-.65,2.3,2.3,0,0,0-.14-.52,2.18,2.18,0,0,0-.15-.36l-.17-.28s0,.13.08.31a2.6,2.6,0,0,1,.06.37,4.16,4.16,0,0,1,0,.49,3.07,3.07,0,0,1-.11.56,3.79,3.79,0,0,1-.23.61,2.94,2.94,0,0,1-.89,1.11,2.87,2.87,0,0,1-.62.38,2.78,2.78,0,0,1-.67.18,1.68,1.68,0,0,1-1.12-.27,1.65,1.65,0,0,1-.53-.64,1.31,1.31,0,0,1-.08-.31.45.45,0,0,1,0,.08C57.38,216.91,57.38,217,57.39,217.1Z" style="fill:#343536"/><path d="M52.35,211.58l0,.19c0,.06,0,0,0,.07l0,.07h0l0,0-.17.11a3.92,3.92,0,0,0-.32.25,3.77,3.77,0,0,0-.93,1.33,3.56,3.56,0,0,0-.22,1.88,3.21,3.21,0,0,0,.8,1.64,3.49,3.49,0,0,0,1.4,1,3.16,3.16,0,0,0,.79.2l.2,0h.18l0,.13v.2a1.85,1.85,0,0,0,0,.23,3.26,3.26,0,0,0,.12.9A3.56,3.56,0,0,0,55,221.2a3.09,3.09,0,0,0,1.2.79,3.43,3.43,0,0,0,1.18.18,3.21,3.21,0,0,0,1.58-.47,2.24,2.24,0,0,0,.35-.24l.07-.07a.28.28,0,0,1-.08.06,2.17,2.17,0,0,1-.36.22,3.13,3.13,0,0,1-1.55.31,3,3,0,0,1-1.09-.25,2.73,2.73,0,0,1-1-.77,3.07,3.07,0,0,1-.61-1.3,3.29,3.29,0,0,1-.06-.77c0-.07,0-.13,0-.2l0-.14,0-.09.09-.35c0-.13.08-.27.13-.41l-.65,0c-.06,0-.11,0-.16,0H54l-.16,0a2.94,2.94,0,0,1-.64-.19,3,3,0,0,1-1.12-.83,2.49,2.49,0,0,1-.61-1.3,2.63,2.63,0,0,1,.19-1.48,2.78,2.78,0,0,1,.74-1.06,2.43,2.43,0,0,1,.25-.2l.13-.09.12-.07.31-.17s.07,0,.06,0v-.08l-.08-.29-.06-.26,0-.16a3.71,3.71,0,0,1,.49-2.37,3.79,3.79,0,0,1,1.59-1.54,3.54,3.54,0,0,1,1.92-.32,4.37,4.37,0,0,1,1.59.49,4.56,4.56,0,0,1,.93.67l.1.11.15.17a4,4,0,0,1,.35.49l.14.26-.11-.28a4,4,0,0,0-.3-.54l-.12-.19-.1-.12a4.42,4.42,0,0,0-.88-.82,4.53,4.53,0,0,0-1.68-.7,3.94,3.94,0,0,0-2.24.24,4,4,0,0,0-1.08.68,4.64,4.64,0,0,0-.86,1A4.47,4.47,0,0,0,52.35,211.58Z" style="fill:#343536"/><path d="M75.76,201.56c-1,1.5-2.21,3.26-3.44,5.17-.72,1.12-1.4,2.2-2,3.22-.07-.09-.15-.16-.22-.24a5.1,5.1,0,0,0-1.87-1.22,4.42,4.42,0,0,0-.69-.18.62.62,0,0,0,0-.13,4.94,4.94,0,0,0-.13-1.36c.16-.19.33-.37.5-.56,2.06-2.3,3.92-4.44,5.38-6.19L73,199.8c-1.56,1.66-3.47,3.75-5.51,6.06l-.26.29a3,3,0,0,0-.17-.37A4,4,0,0,0,65.27,204l-.13-.06.8-.73c1.51-1.39,2.93-2.72,4.22-3.95l1.25-1.21c-.07-.09-.14-.17-.2-.26s-.06-.11-.1-.16l-1.36,1.2c-1.32,1.18-2.76,2.51-4.25,3.91l-1,1-.24,0a3.53,3.53,0,0,0-.94.07,2.26,2.26,0,0,0-.31.1l-.15.06a2.57,2.57,0,0,0-.7.46,3.31,3.31,0,0,0-.23.26l-.06.07.07-.06a1.49,1.49,0,0,1,.27-.21,2.4,2.4,0,0,1,.84-.3l.1,0,.22,0a2.79,2.79,0,0,1,1.32.29l.3.18a4.23,4.23,0,0,1,1.35,1.56,6.61,6.61,0,0,1,.29.68,2.67,2.67,0,0,1,.11.34c0,.11.06.22.08.33a5.46,5.46,0,0,1,.1.69s0,0,0,0a.66.66,0,0,1,0,.14,4.89,4.89,0,0,1,0,.77,6.07,6.07,0,0,1-.14.82,5.37,5.37,0,0,1-.21.67c-.08.2-.15.36-.22.5a2.26,2.26,0,0,1-.17.3l-.05.1s.14-.14.31-.34a4.91,4.91,0,0,0,.34-.44,6.54,6.54,0,0,0,.36-.66,4.67,4.67,0,0,0,.29-.87,4.09,4.09,0,0,0,.12-.66,4.71,4.71,0,0,1,.56.27,4.37,4.37,0,0,1,.79.53,5.51,5.51,0,0,1,.77.76c.1.13.21.28.3.42a3.35,3.35,0,0,1,.27.45l.06.12a4.79,4.79,0,0,1,.38,1.18,4.31,4.31,0,0,1,0,1.24,5.76,5.76,0,0,1-.28,1.14,6.76,6.76,0,0,1-.44,1,5.27,5.27,0,0,1-.56.77,6.09,6.09,0,0,1-.56.57l0,0a3.59,3.59,0,0,0-.33-.84,3.23,3.23,0,0,0-.33-.53,2.37,2.37,0,0,0-.29-.36c-.08-.1-.16-.16-.2-.21l-.07-.07a.54.54,0,0,0,0,.08,1.72,1.72,0,0,1,.14.25,4,4,0,0,1,.33,1,4.77,4.77,0,0,1,.1.69c0,.14,0,.28,0,.42v.08c0,.09,0,.19,0,.28a5,5,0,0,1-.42,1.67,4.47,4.47,0,0,1-1,1.4,4.61,4.61,0,0,1-.5.4l-.11.09-.09.05a3,3,0,0,1-.52.29,4,4,0,0,1-1,.32,2.4,2.4,0,0,1-.29,0h0l.29,0a4.63,4.63,0,0,0,1.08-.09l.23,0c-.06.13-.11.26-.18.39a6.81,6.81,0,0,1-.55.9,8,8,0,0,1-.78.9,6.21,6.21,0,0,1-1,.8,7.5,7.5,0,0,1-1.24.6,5.71,5.71,0,0,1-1.34.28,7.05,7.05,0,0,1-1.3,0,6.73,6.73,0,0,1-1.17-.23,8.33,8.33,0,0,1-1-.39,6.41,6.41,0,0,1-.66-.39l.45-.14A7.21,7.21,0,0,0,58.5,224a6.71,6.71,0,0,0,1.11-.84,6.36,6.36,0,0,0,.77-.83,6.15,6.15,0,0,0,.49-.7c.13-.19.2-.36.27-.47l.08-.15-.1.14c-.08.1-.17.25-.32.43l-.25.29-.32.32a6.22,6.22,0,0,1-.84.7,9.12,9.12,0,0,1-1.13.68,8.87,8.87,0,0,1-1.4.55,8.62,8.62,0,0,1-.91.2.15.15,0,0,1-.09,0,4.07,4.07,0,0,1-.61.07,7.94,7.94,0,0,1-1.75-.07,8.79,8.79,0,0,1-1.67-.52A8.94,8.94,0,0,1,50.4,223a8,8,0,0,1-1.13-1,8.75,8.75,0,0,1-.81-1,6.64,6.64,0,0,1-.41-.7l-.19,0a6,6,0,0,0,.36.8,7.8,7.8,0,0,0,.75,1.16,8.44,8.44,0,0,0,1.1,1.15,7.07,7.07,0,0,0,3.31,1.6,7,7,0,0,0,1.93.08,5.24,5.24,0,0,0,1-.18s0,0,0,0a5.69,5.69,0,0,0,.71.59,6.85,6.85,0,0,0,1,.56,6.12,6.12,0,0,0,1.23.41,5.36,5.36,0,0,0,1.46.15,6.16,6.16,0,0,0,1.56-.27,5.54,5.54,0,0,0,1.41-.73,5.73,5.73,0,0,0,1.08-1,6,6,0,0,0,.74-1.09,6.56,6.56,0,0,0,.58-1.67,3.9,3.9,0,0,0,1-.49,4.19,4.19,0,0,0,1.38-1.55,4,4,0,0,0,.34-1,4.3,4.3,0,0,0,.06-1,3.06,3.06,0,0,0-.07-.54l.12-.07a4.81,4.81,0,0,0,.71-.47,5.17,5.17,0,0,0,.74-.74,4.7,4.7,0,0,0,1-2.34,5.2,5.2,0,0,0,0-1.47,4.83,4.83,0,0,0-.5-1.38,2.26,2.26,0,0,0-.26-.42c.69-1,1.44-2.14,2.21-3.31,1.28-1.93,2.43-3.75,3.4-5.32Z" style="fill:#343536"/><path d="M47.63,211.85a4.87,4.87,0,0,0-.22,1,4.49,4.49,0,0,0,.18,1.86,4.37,4.37,0,0,0,.68,1.35,5.55,5.55,0,0,0,.66.75c.15.14.25.21.27.23l-.24-.26a4.45,4.45,0,0,1-.54-.82,5.09,5.09,0,0,1-.54-3,5.25,5.25,0,0,1,.52-1.61,5,5,0,0,1,.8-1.17,4.55,4.55,0,0,1,.71-.67,2.7,2.7,0,0,1,.3-.2l-.33.14c-.11.06-.24.12-.38.21a5.22,5.22,0,0,0-.48.33A4.67,4.67,0,0,0,48,211,4.35,4.35,0,0,0,47.63,211.85Z" style="fill:#343536"/><path d="M70.32,196l-.09-.32c-2.08,1.38-4.7,3.18-7.52,5.21L61.15,202a4.61,4.61,0,0,0-1.95-.67,3.76,3.76,0,0,0-2.16.42,3.46,3.46,0,0,0-1.12,1,5.57,5.57,0,0,0-.86-.54,7.91,7.91,0,0,0-1.23-.47,6.94,6.94,0,0,0-1.5-.22,6.47,6.47,0,0,0-3.41.78,6.36,6.36,0,0,0-1.45,1.14,7,7,0,0,0-1,1.36,7.35,7.35,0,0,0-.58,1.39,8.48,8.48,0,0,0-.24,1.27.37.37,0,0,1,0,.11l-.36.05a3.88,3.88,0,0,0-.84.27,4.52,4.52,0,0,0-.86.54,3.71,3.71,0,0,0-.75.86,3.63,3.63,0,0,0-.45,1.15,4.2,4.2,0,0,0,0,1.22,3.59,3.59,0,0,0,.3,1.07,4.67,4.67,0,0,0,.51.85l.31.36a5.07,5.07,0,0,0-.07,1.63,6,6,0,0,0,.29,1.2,5.19,5.19,0,0,0,.62,1.19,5.43,5.43,0,0,0,.93,1,5.34,5.34,0,0,0,1.05.65,6.15,6.15,0,0,0,1,.35,3.83,3.83,0,0,0,.42.08s0,0,0,.05l.09.24.19,0a2.4,2.4,0,0,1-.11-.23l0,0c-.09-.22-.17-.41-.23-.59a1.46,1.46,0,0,1-.07-.19,4.19,4.19,0,0,1-.14-.51l0-.15s0,.08,0,.15a4.47,4.47,0,0,0,.09.53s0,.08,0,.13a7.39,7.39,0,0,1-.92-.48,6.12,6.12,0,0,1-1.58-1.48,6.47,6.47,0,0,1-.56-1,6.56,6.56,0,0,1-.34-1,8.9,8.9,0,0,1-.16-1v-.06l.29.18.46.23.31.1.1,0-.1,0-.27-.15A3.5,3.5,0,0,1,44,214s0,0-.05-.07a3.3,3.3,0,0,1-.36-.51c0-.05,0-.09-.07-.13a3.5,3.5,0,0,1-.32-.82,3.54,3.54,0,0,1-.14-.93,3.23,3.23,0,0,1,.12-1,4.21,4.21,0,0,1,1-1.61,4.61,4.61,0,0,1,1.28-.94l.19-.09.29-.11.12,0a3,3,0,0,1,.48-.12c.14,0,.25,0,.32,0h.11l-.11,0a2.32,2.32,0,0,0-.32-.06,3.39,3.39,0,0,0-.52,0h0a0,0,0,0,1,0,0,6.72,6.72,0,0,1,.44-1.13,7.4,7.4,0,0,1,.72-1.17,6.79,6.79,0,0,1,1-1.1,8,8,0,0,1,1.28-.91,7.35,7.35,0,0,1,1.45-.56,7.63,7.63,0,0,1,1.46-.23,8.61,8.61,0,0,1,1.36.05,9.28,9.28,0,0,1,1.17.24c.32.1.62.2.88.31l.22.1a5.66,5.66,0,0,1,.94.55l.14.1-.12-.12a4.71,4.71,0,0,0-.34-.36,2.05,2.05,0,0,1-.27-.25l-.16-.12a3.45,3.45,0,0,1,1.09-.72,3.83,3.83,0,0,1,1.9-.25,4.78,4.78,0,0,1,1.55.41,3.13,3.13,0,0,1,.32.15l.15.09a6.06,6.06,0,0,1,1.18.89c.18.17.34.33.47.48l.15-.06c-.11-.18-.25-.39-.41-.61a5.11,5.11,0,0,0-1-1l1.44-1C65.8,199.3,68.33,197.44,70.32,196Z" style="fill:#343536"/><polygon points="198.34 53.56 185.68 75.07 202.22 55.64 198.34 53.56" style="fill:#72cff5"/><polygon points="198.34 53.56 185.68 75.07 202.22 55.64 198.34 53.56 198.34 53.56" style="fill:#00bbed"/><path d="M202.67,60.7l-3.39-4.89-5.93-.47,3.6-4.73-1.38-5.79,5.61,2,5.08-3.11-.14,6,4.52,3.86L205,55.2Z" style="fill:#00bbed"/><polygon points="205.98 52.68 203.86 50.51 204.2 47.5 201.57 49.23 198.73 47.6 199.17 50.59 197.13 52.83 200.12 53.34 201.61 55.97 203.02 53.29 205.98 52.68" style="fill:#fff"/><polygon points="118.59 72.73 115.37 77.56 117.59 82.93 112.02 81.37 107.53 85.13 107.26 79.29 102.35 76.22 107.79 74.18 109.2 68.53 112.78 73.09 118.59 72.73" style="fill:url(#b)"/><path d="M107.22,85.74,107,79.45l-5.32-3.31L107.51,74,109,67.87l3.88,4.92,6.27-.44-3.5,5.27,2.4,5.77-6-1.68Zm.3-6.57,0,.12.21,5.23,4.11-3.46,5.2,1.4-2-5L118,73l-5.35.38-3.33-4.2L108,74.4l-5,1.89Z" style="fill:#262625"/><path d="M208.36,194.82c-2.74.52-5.51,1.28-8.22,2q-.22,4.25-.69,8.46a57.49,57.49,0,0,0-3.94-7.42,23.91,23.91,0,0,1-6.62.42c1-1.19,2.37-2.85,3.9-4.74-1.35-2.12-2.54-4-3.22-5.25a18,18,0,0,1,6.24,1.4,55.24,55.24,0,0,0,4.41-6.59c.11,2.83.15,5.66.1,8.49A79.78,79.78,0,0,0,208.36,194.82Z" style="fill:#0099c9"/><path d="M189.11,188.08a.59.59,0,0,1,0-.08.49.49,0,0,1,.42-.24,17.78,17.78,0,0,1,6.07,1.3,52.38,52.38,0,0,0,4.15-6.23.48.48,0,0,1,.54-.25.49.49,0,0,1,.37.46c.12,2.72.15,5.48.11,8.19l.34.15a67.83,67.83,0,0,0,7.36,3,.5.5,0,0,1,.34.49.51.51,0,0,1-.4.46c-2.11.4-4.27.95-6.35,1.49l-1.49.38c-.15,2.71-.38,5.44-.67,8.13a.49.49,0,0,1-.42.42.48.48,0,0,1-.52-.29,52.46,52.46,0,0,0-3.73-7.07,23.75,23.75,0,0,1-6.43.37.52.52,0,0,1-.4-.3.5.5,0,0,1,.08-.5l1.49-1.81,2.18-2.66c-1.29-2-2.39-3.74-3.05-5A.47.47,0,0,1,189.11,188.08Zm10.68-3.31c-.92,1.5-2.11,3.21-3.59,5.17a.48.48,0,0,1-.56.16,19.81,19.81,0,0,0-5.23-1.33c.66,1.14,1.59,2.58,2.63,4.21l.16.25a.48.48,0,0,1,0,.57c-.86,1.07-1.68,2.06-2.41,2.94l-.89,1.08a25.1,25.1,0,0,0,5.55-.48.46.46,0,0,1,.5.23c1.39,2.28,2.45,4.17,3.24,5.82.21-2.2.38-4.43.49-6.63a.49.49,0,0,1,.37-.45l1.84-.47c1.53-.39,3.09-.79,4.66-1.14-1.93-.71-3.88-1.58-5.77-2.43l-.63-.28a.51.51,0,0,1-.29-.45C199.87,189.3,199.86,187,199.79,184.77Z" style="fill:#343536"/><path d="M115.49,207c.29,1.75.73,3.52,1.12,5.26q2.69.21,5.37.57a36.69,36.69,0,0,0-4.78,2.39,15.08,15.08,0,0,1,.16,4.21c-.74-.63-1.78-1.55-3-2.55-1.36.83-2.56,1.56-3.39,2a11.8,11.8,0,0,1,1-4,35.49,35.49,0,0,0-4.12-2.91c1.8,0,3.6,0,5.4.07A49.46,49.46,0,0,0,115.49,207Z" style="fill:#e96347"/><path d="M110.9,219.12l-.05,0a.33.33,0,0,1-.15-.27,11.43,11.43,0,0,1,.93-3.84,35.63,35.63,0,0,0-3.9-2.74.32.32,0,0,1-.15-.34.31.31,0,0,1,.3-.23c1.73,0,3.48,0,5.21.05l.1-.21a43.13,43.13,0,0,0,2-4.63.32.32,0,0,1,.32-.21.32.32,0,0,1,.28.26c.23,1.35.54,2.73.85,4.06.07.32.15.64.22,1,1.72.14,3.45.32,5.16.55a.31.31,0,0,1,.07.6,34.19,34.19,0,0,0-4.56,2.26,14.87,14.87,0,0,1,.14,4.09.31.31,0,0,1-.2.25.31.31,0,0,1-.31,0l-1.14-1-1.65-1.43c-1.3.79-2.42,1.47-3.22,1.87A.31.31,0,0,1,110.9,219.12ZM109,212.27a40,40,0,0,1,3.24,2.37.31.31,0,0,1,.09.35,12.79,12.79,0,0,0-.93,3.31c.73-.4,1.67-1,2.72-1.6l.16-.1a.3.3,0,0,1,.36,0c.67.56,1.29,1.1,1.83,1.57l.68.59a15.65,15.65,0,0,0-.22-3.54.32.32,0,0,1,.15-.32c1.47-.84,2.69-1.48,3.75-2-1.39-.17-2.81-.31-4.21-.42a.31.31,0,0,1-.27-.24l-.27-1.18c-.23-1-.46-2-.66-3-.48,1.22-1.06,2.44-1.63,3.63l-.19.39a.29.29,0,0,1-.29.18C111.85,212.29,110.4,212.27,109,212.27Z" style="fill:#343536"/><polygon points="108.01 207.66 110.94 210 108.27 206.79 108.01 207.66" style="fill:#343536"/><polygon points="109.28 206.7 111.37 209.96 109.87 206.65 109.28 206.7" style="fill:#343536"/><polygon points="123.88 217.17 119.64 216.2 123.87 218.15 123.88 217.17" style="fill:#343536"/><polygon points="122.71 218.69 119.14 216.44 122.03 219.01 122.71 218.69" style="fill:#343536"/><polygon points="118.24 206.42 117.5 211.12 119.21 205.55 118.24 206.42" style="fill:#343536"/><polygon points="122.74 208.44 118.02 211.44 122.16 209.6 122.74 208.44" style="fill:#343536"/><polygon points="106.36 215.9 105.98 216.46 110.6 215.51 106.36 215.9" style="fill:#343536"/><polygon points="110.17 216.08 106.55 217.99 107.31 218.22 110.17 216.08" style="fill:#343536"/><polygon points="112.22 221.89 112.44 222.49 114.25 218.34 112.22 221.89" style="fill:#343536"/><polygon points="114.45 218.99 113.93 222.87 114.53 222.4 114.45 218.99" style="fill:#343536"/><path d="M223.3,144.84c-.58,1.69-1,3.48-1.52,5.21q2.28,1.47,4.49,3.08a35.94,35.94,0,0,0-5.39-.17,15.36,15.36,0,0,1-1.87,3.81c-.36-.91-.84-2.23-1.4-3.68-1.61.08-3,.15-4,.12a11.56,11.56,0,0,1,2.77-3,35.7,35.7,0,0,0-2.27-4.55c1.62.84,3.2,1.72,4.76,2.65A47.48,47.48,0,0,0,223.3,144.84Z" style="fill:#fdcc25"/><polygon points="163.22 217.99 144.01 190.18 158.46 221.57 163.22 217.99" style="fill:#72cff5"/><polygon points="144.01 190.18 158.46 221.57 163.22 217.99 144.01 190.18 144.01 190.18" style="fill:#00bbed"/><path d="M152,219.24l7.94-1.37,4-7,3.76,7.13,7.9,1.59-5.62,5.78.93,8-7.24-3.56-7.32,3.35,1.15-8Z" style="fill:#00bbed"/><polygon points="159.95 227.89 163.82 226.52 167.32 228.65 166.69 224.43 170.32 221.88 166.39 220.71 164.81 216.93 162.48 220.31 158.4 220.65 160.89 223.9 159.95 227.89" style="fill:#fff"/></g></svg>