<svg xmlns="http://www.w3.org/2000/svg" xmlns:xlink="http://www.w3.org/1999/xlink" viewBox="0 0 260 260"><defs><clipPath id="a"><rect width="260" height="260" style="fill:none"/></clipPath><radialGradient id="b" cx="-52.93" cy="946.3" r="25.51" gradientTransform="matrix(0.77, 0.64, -0.64, 0.77, 749.47, -662.98)" gradientUnits="userSpaceOnUse"><stop offset="0.11" stop-color="#fce92e"/><stop offset="0.75" stop-color="#f5b75d"/></radialGradient></defs><title>icon</title><g style="clip-path:url(#a)"><path d="M64.8,92.12c.21,1.93.57,3.89.89,5.82,2,.26,3.89.59,5.82,1a38.31,38.31,0,0,0-5.37,2.3,16.79,16.79,0,0,1-.1,4.61c-.77-.74-1.84-1.81-3.06-3-1.55.81-2.9,1.53-3.83,1.93a12.69,12.69,0,0,1,1.34-4.25,39,39,0,0,0-4.31-3.44c2,.08,3.93.23,5.89.42A53.34,53.34,0,0,0,64.8,92.12Z" style="fill:#f37024"/><path d="M69.31,180.09a4.14,4.14,0,0,1,.16.85l0,0a5.27,5.27,0,0,0,.64-.44,5.69,5.69,0,0,0,.67-.64,6.23,6.23,0,0,0,.6-.86,4.92,4.92,0,0,0,.47-1,4.55,4.55,0,0,0,.2-1.18,4.7,4.7,0,0,0-.16-1.2.5.5,0,0,0,0-.13,2.48,2.48,0,0,0-.17-.48c-.07-.15-.14-.31-.22-.46a5,5,0,0,0-.59-.86,4.06,4.06,0,0,0-.67-.65,6,6,0,0,0-.48-.36,5,5,0,0,1-.23.62,6,6,0,0,1-.44.77c-.16.22-.32.41-.46.57a5.36,5.36,0,0,1-.4.36l-.36.27-.66-.35a4.76,4.76,0,0,1,.38.88,4.48,4.48,0,0,1,.2,1.78,4.31,4.31,0,0,1-.2,1l1.07.32,0,.08a2.46,2.46,0,0,1,.16.24,2.07,2.07,0,0,1,.21.4A4,4,0,0,1,69.31,180.09Z" style="fill:#fff"/><path d="M54.72,173.06s0,.06,0,.07h0l-.19.08a2.91,2.91,0,0,0-.35.18A3.39,3.39,0,0,0,53,174.51a3.45,3.45,0,0,0-.56,1.75A3.27,3.27,0,0,0,53,178a3.54,3.54,0,0,0,1.17,1.17,3.34,3.34,0,0,0,.72.33l.18.06h.18l0,.12,0,.07,0,.11c0,.08,0,.15-.05.23a3.27,3.27,0,0,0,0,.88,3.38,3.38,0,0,0,.5,1.51,2.88,2.88,0,0,0,1,1,3.2,3.2,0,0,0,1.09.39,3.31,3.31,0,0,0,1.59-.16,2.31,2.31,0,0,0,.38-.18l.08-.05-.08,0a1.58,1.58,0,0,1-.39.15,3.07,3.07,0,0,1-2.53-.42,2.56,2.56,0,0,1-.83-.92,2.85,2.85,0,0,1-.35-1.35,2.67,2.67,0,0,1,.08-.74c0-.07,0-.13,0-.19l0-.13,0-.08.16-.32.19-.37-.62-.08-.15,0-.09,0-.15-.05a3.55,3.55,0,0,1-.58-.3,3,3,0,0,1-.93-1,2.62,2.62,0,0,1-.35-1.35,2.73,2.73,0,0,1,.45-1.39,3.14,3.14,0,0,1,.9-.88l.28-.15.14-.06.13,0,.33-.1s.06,0,.06,0v-.07l0-.29c0-.09,0-.22,0-.27v-.16a3.58,3.58,0,0,1,.89-2.18,3.66,3.66,0,0,1,1.79-1.18,3.39,3.39,0,0,1,1.9,0,4.27,4.27,0,0,1,1.44.76,4.31,4.31,0,0,1,.76.81l.08.12a1.18,1.18,0,0,1,.11.19,3.38,3.38,0,0,1,.25.53,2.16,2.16,0,0,0,.09.27,2.52,2.52,0,0,1-.06-.28,3.18,3.18,0,0,0-.19-.58l-.08-.2s-.05-.09-.08-.14a3.77,3.77,0,0,0-.69-.93,4.23,4.23,0,0,0-1.49-1A3.75,3.75,0,0,0,58,168.9a4.19,4.19,0,0,0-1.15.46,4.49,4.49,0,0,0-2.1,3.44v.26Zm-4.15,4.06a3.89,3.89,0,0,1-.38-.87,5,5,0,0,1-.22-1.37,4.87,4.87,0,0,1,.25-1.65,5.16,5.16,0,0,1,.79-1.45,5.12,5.12,0,0,1,1.78-1.49,3,3,0,0,1,.31-.14l-.34.08a3.62,3.62,0,0,0-.4.13,4.31,4.31,0,0,0-.51.23,4.41,4.41,0,0,0-1.16.92,3.86,3.86,0,0,0-.53.71,4.87,4.87,0,0,0-.38.87,4.39,4.39,0,0,0-.15,1.81,4.29,4.29,0,0,0,.4,1.41,5.43,5.43,0,0,0,.5.84l.22.27Zm18.21,2a3.82,3.82,0,0,1,.14,1c0,.21,0,.44,0,.68l-.06.41,0,.07a2,2,0,0,1-.06.26,5,5,0,0,1-.7,1.53,4.34,4.34,0,0,1-1.24,1.15,5,5,0,0,1-.55.3l-.13.06-.08,0a3.71,3.71,0,0,1-.56.19,4.26,4.26,0,0,1-1,.13h-.37l.09,0c.06,0,.15.05.27.07a4,4,0,0,0,1.06.11h.22a2.53,2.53,0,0,1-.25.35,5.82,5.82,0,0,1-.68.76,6.14,6.14,0,0,1-.91.72,5.84,5.84,0,0,1-1.11.58,6.72,6.72,0,0,1-1.3.36,6,6,0,0,1-1.33,0,6.81,6.81,0,0,1-1.24-.24,6.69,6.69,0,0,1-1.09-.43,6.37,6.37,0,0,1-.86-.55,4.67,4.67,0,0,1-.56-.49l.45,0a7.68,7.68,0,0,0,1.52-.4,6.73,6.73,0,0,0,1.2-.61,6.23,6.23,0,0,0,.89-.65c.25-.22.44-.42.6-.59s.25-.31.33-.39l.11-.13-.12.11a5.16,5.16,0,0,1-.38.35l-.29.24-.37.25a7.73,7.73,0,0,1-.93.52,9.17,9.17,0,0,1-1.2.45,8.84,8.84,0,0,1-1.43.27c-.3,0-.6,0-.91,0h-.1a4,4,0,0,1-.59,0,7.65,7.65,0,0,1-1.66-.38,8.34,8.34,0,0,1-1.51-.8,7.53,7.53,0,0,1-2.71-3.36c-.1-.26-.19-.51-.26-.74s0-.16-.07-.23,0,0,0,0c-.05-.22-.09-.43-.12-.6l0-.2c0-.22,0-.4,0-.52a.82.82,0,0,1,0-.14.53.53,0,0,0,0,.14,4.15,4.15,0,0,0,0,.53v.12a6.11,6.11,0,0,1-.79-.62,6.27,6.27,0,0,1-1.26-1.7,5.78,5.78,0,0,1-.35-1,5.24,5.24,0,0,1-.15-1,7.41,7.41,0,0,1,0-1V174l.25.23a2.61,2.61,0,0,0,.4.29c.11.08.21.12.27.16l.1.05-.09-.06a2.49,2.49,0,0,1-.24-.2,2.27,2.27,0,0,1-.33-.35,2.83,2.83,0,0,1-.31-.46l0-.07A3.63,3.63,0,0,1,46,173a.58.58,0,0,1,0-.14,4,4,0,0,1-.13-1.75,3.33,3.33,0,0,1,.29-.91,4.22,4.22,0,0,1,1.21-1.36,4.1,4.1,0,0,1,1.41-.67,1.39,1.39,0,0,1,.19-.06l.29-.05.13,0a2.75,2.75,0,0,1,.48,0c.14,0,.24,0,.31,0l.11,0-.1,0a1.31,1.31,0,0,0-.3-.12,3,3,0,0,0-.49-.14h0v0a6.12,6.12,0,0,1,.63-1,8.12,8.12,0,0,1,.89-1,6.21,6.21,0,0,1,1.15-.87,7.08,7.08,0,0,1,1.39-.65,7.23,7.23,0,0,1,1.49-.28,7.62,7.62,0,0,1,1.44,0,7.05,7.05,0,0,1,1.28.29,6.75,6.75,0,0,1,1.08.44c.29.15.56.3.79.45l.19.13a3.21,3.21,0,0,1,.46.37,3.71,3.71,0,0,1,.34.33l.12.12-.09-.14a4,4,0,0,0-.27-.4c-.06-.09-.14-.18-.21-.29l-.13-.14a3.37,3.37,0,0,1,1.17-.5,3.88,3.88,0,0,1,1.87.1,5,5,0,0,1,1.41.67l.28.21.12.11a6.22,6.22,0,0,1,1,1.06,5.86,5.86,0,0,1,.37.54,2.43,2.43,0,0,0-.75.32,1.55,1.55,0,0,0-.27.2l-.08.06.08,0a1.64,1.64,0,0,1,.3-.15,2.27,2.27,0,0,1,.86-.14.34.34,0,0,1,.1,0l.21,0a2.49,2.49,0,0,1,1.21.51l.26.23a4.05,4.05,0,0,1,1,1.73,6,6,0,0,1,.16.71c0,.11,0,.23,0,.34s0,.22,0,.32a3.83,3.83,0,0,1,0,.68v0a.78.78,0,0,0,0,.14,5.21,5.21,0,0,1-.16.73,6.23,6.23,0,0,1-.28.77,5.39,5.39,0,0,1-.33.6,2.89,2.89,0,0,1-.29.43,1.38,1.38,0,0,1-.22.27l-.06.08-.66-.35a4.86,4.86,0,0,0-.27-.41,3.23,3.23,0,0,0-.36-.42c-.11-.13-.21-.22-.29-.3a2,2,0,0,0-.27-.22l.22.26a4.24,4.24,0,0,1,.47.81,5.46,5.46,0,0,1,.45,1.28,5.63,5.63,0,0,1,.14,1.62,5.28,5.28,0,0,1-.35,1.6,5,5,0,0,1-.65,1.2,5.41,5.41,0,0,1-.62.7l-.26.23.29-.19a4.64,4.64,0,0,0,.72-.62,4.91,4.91,0,0,0,.85-1.17,4.21,4.21,0,0,0,.31-.75l1.07.32a.23.23,0,0,0,0,.09A2.78,2.78,0,0,1,68.78,179.16Zm-5.48-1.23a3.8,3.8,0,0,0,0-.52,2,2,0,0,0-.09-.37c-.06-.18-.1-.28-.11-.3s0,.13,0,.31a2.62,2.62,0,0,1,0,.37,2.31,2.31,0,0,1-.09.46,3.07,3.07,0,0,1-.2.52,3.47,3.47,0,0,1-.34.54,2.88,2.88,0,0,1-1,.91,3.4,3.4,0,0,1-.67.25,2.54,2.54,0,0,1-.67,0,1.56,1.56,0,0,1-1-.45,1.45,1.45,0,0,1-.39-.71.91.91,0,0,1,0-.31l0,.08a1.09,1.09,0,0,0,0,.24,1.48,1.48,0,0,0,.25.87,1.86,1.86,0,0,0,1.16.78,2.55,2.55,0,0,0,1.72-.19,3,3,0,0,0,1.23-1.2,3,3,0,0,0,.28-.69A4,4,0,0,0,63.3,177.93Z" style="fill:#fff"/><path d="M67.59,175.74a4.76,4.76,0,0,0-.38-.88,4.86,4.86,0,0,0-.27-.41,3.23,3.23,0,0,0-.36-.42c-.11-.13-.21-.22-.29-.3a2,2,0,0,0-.27-.22l.22.26a4.24,4.24,0,0,1,.47.81,5.46,5.46,0,0,1,.45,1.28,5.63,5.63,0,0,1,.14,1.62,5.28,5.28,0,0,1-.35,1.6,5,5,0,0,1-.65,1.2,5.41,5.41,0,0,1-.62.7l-.26.23.29-.19a4.64,4.64,0,0,0,.72-.62,4.91,4.91,0,0,0,.85-1.17,4.21,4.21,0,0,0,.31-.75,4.31,4.31,0,0,0,.2-1A4.48,4.48,0,0,0,67.59,175.74Z" style="fill:#343536"/><path d="M58.57,179a1.48,1.48,0,0,0,.25.87,1.86,1.86,0,0,0,1.16.78,2.55,2.55,0,0,0,1.72-.19,3,3,0,0,0,1.23-1.2,3,3,0,0,0,.28-.69,4,4,0,0,0,.09-.63,3.8,3.8,0,0,0,0-.52,2,2,0,0,0-.09-.37c-.06-.18-.1-.28-.11-.3s0,.13,0,.31a2.62,2.62,0,0,1,0,.37,2.31,2.31,0,0,1-.09.46,3.07,3.07,0,0,1-.2.52,3.47,3.47,0,0,1-.34.54,2.88,2.88,0,0,1-1,.91,3.4,3.4,0,0,1-.67.25,2.54,2.54,0,0,1-.67,0,1.56,1.56,0,0,1-1-.45,1.45,1.45,0,0,1-.39-.71.91.91,0,0,1,0-.31l0,.08A1.09,1.09,0,0,0,58.57,179Z" style="fill:#343536"/><path d="M54.73,172.8v.26s0,.06,0,.07h0l-.19.08a2.91,2.91,0,0,0-.35.18A3.39,3.39,0,0,0,53,174.51a3.45,3.45,0,0,0-.56,1.75A3.27,3.27,0,0,0,53,178a3.54,3.54,0,0,0,1.17,1.17,3.34,3.34,0,0,0,.72.33l.18.06h.18l0,.12,0,.07,0,.11c0,.08,0,.15-.05.23a3.27,3.27,0,0,0,0,.88,3.38,3.38,0,0,0,.5,1.51,2.88,2.88,0,0,0,1,1,3.2,3.2,0,0,0,1.09.39,3.31,3.31,0,0,0,1.59-.16,2.31,2.31,0,0,0,.38-.18l.08-.05-.08,0a1.58,1.58,0,0,1-.39.15,3.07,3.07,0,0,1-2.53-.42,2.56,2.56,0,0,1-.83-.92,2.85,2.85,0,0,1-.35-1.35,2.67,2.67,0,0,1,.08-.74c0-.07,0-.13,0-.19l0-.13,0-.08.16-.32.19-.37-.62-.08-.15,0-.09,0-.15-.05a3.55,3.55,0,0,1-.58-.3,3,3,0,0,1-.93-1,2.62,2.62,0,0,1-.35-1.35,2.73,2.73,0,0,1,.45-1.39,3.14,3.14,0,0,1,.9-.88l.28-.15.14-.06.13,0,.33-.1s.06,0,.06,0v-.07l0-.29c0-.09,0-.22,0-.27v-.16a3.58,3.58,0,0,1,.89-2.18,3.66,3.66,0,0,1,1.79-1.18,3.39,3.39,0,0,1,1.9,0,4.27,4.27,0,0,1,1.44.76,4.31,4.31,0,0,1,.76.81l.08.12a1.18,1.18,0,0,1,.11.19,3.38,3.38,0,0,1,.25.53,2.16,2.16,0,0,0,.09.27,2.52,2.52,0,0,1-.06-.28,3.18,3.18,0,0,0-.19-.58l-.08-.2s-.05-.09-.08-.14a3.77,3.77,0,0,0-.69-.93,4.23,4.23,0,0,0-1.49-1A3.75,3.75,0,0,0,58,168.9a4.19,4.19,0,0,0-1.15.46,4.49,4.49,0,0,0-2.1,3.44Z" style="fill:#343536"/><path d="M78.92,167.4c-1.25,1.25-2.69,2.73-4.21,4.33-.89,1-1.74,1.86-2.52,2.72l-.17-.27a5.21,5.21,0,0,0-.76-.89,4.55,4.55,0,0,0-.81-.6,5.19,5.19,0,0,0-.63-.31.56.56,0,0,0,0-.12,5.2,5.2,0,0,0,.11-1.33l.58-.43c2.38-1.84,4.54-3.56,6.26-5-.09-.1-.17-.21-.26-.32-1.79,1.31-4,3-6.36,4.82l-.3.23a2.74,2.74,0,0,0-.09-.39,3.87,3.87,0,0,0-1.35-2l-.12-.08.9-.56c1.69-1,3.29-2.07,4.74-3l1.42-.94-.15-.28a.87.87,0,0,0-.07-.17l-1.51.91c-1.48.89-3.09,1.9-4.77,3-.4.25-.8.5-1.18.76l-.22-.07a2.76,2.76,0,0,0-.92-.1,1.73,1.73,0,0,0-.32,0l-.14,0a2.43,2.43,0,0,0-.75.32,1.55,1.55,0,0,0-.27.2l-.08.06.08,0a1.64,1.64,0,0,1,.3-.15,2.27,2.27,0,0,1,.86-.14h.1l.21,0a2.49,2.49,0,0,1,1.21.51l.26.23a4.05,4.05,0,0,1,1,1.73,6,6,0,0,1,.16.71c0,.11,0,.23,0,.34s0,.22,0,.32a3.83,3.83,0,0,1,0,.68v0a.78.78,0,0,0,0,.14,5.21,5.21,0,0,1-.16.73,6.23,6.23,0,0,1-.28.77,5.39,5.39,0,0,1-.33.6,2.89,2.89,0,0,1-.29.43,1.38,1.38,0,0,1-.22.27l-.06.08.36-.27a5.36,5.36,0,0,0,.4-.36c.14-.16.3-.35.46-.57a6,6,0,0,0,.44-.77,5,5,0,0,0,.23-.62,6,6,0,0,1,.48.36,4.06,4.06,0,0,1,.67.65,5,5,0,0,1,.59.86c.08.15.15.31.22.46a2.48,2.48,0,0,1,.17.48.5.5,0,0,1,0,.13,4.7,4.7,0,0,1,.16,1.2,4.55,4.55,0,0,1-.2,1.18,4.92,4.92,0,0,1-.47,1,6.23,6.23,0,0,1-.6.86,5.69,5.69,0,0,1-.67.64,5.27,5.27,0,0,1-.64.44l0,0a4.14,4.14,0,0,0-.16-.85,4,4,0,0,0-.23-.57,2.07,2.07,0,0,0-.21-.4,2.46,2.46,0,0,0-.16-.24l0-.08a.23.23,0,0,0,0,.09,2.78,2.78,0,0,1,.09.27,3.82,3.82,0,0,1,.14,1c0,.21,0,.44,0,.68l-.06.41,0,.07a2,2,0,0,1-.06.26,5,5,0,0,1-.7,1.53,4.34,4.34,0,0,1-1.24,1.15,5,5,0,0,1-.55.3l-.13.06-.08,0a3.71,3.71,0,0,1-.56.19,4.26,4.26,0,0,1-1,.13h-.37l.09,0c.06,0,.15.05.27.07a4,4,0,0,0,1.06.11h.22a2.53,2.53,0,0,1-.25.35,5.82,5.82,0,0,1-.68.76,6.14,6.14,0,0,1-.91.72,5.84,5.84,0,0,1-1.11.58,6.72,6.72,0,0,1-1.3.36,6,6,0,0,1-1.33,0,6.81,6.81,0,0,1-1.24-.24,6.69,6.69,0,0,1-1.09-.43,6.37,6.37,0,0,1-.86-.55,4.67,4.67,0,0,1-.56-.49l.45,0a7.68,7.68,0,0,0,1.52-.4,6.73,6.73,0,0,0,1.2-.61,6.23,6.23,0,0,0,.89-.65c.25-.22.44-.42.6-.59s.25-.31.33-.39l.11-.13-.12.11a5.16,5.16,0,0,1-.38.35l-.29.24-.37.25a7.73,7.73,0,0,1-.93.52,9.17,9.17,0,0,1-1.2.45,8.84,8.84,0,0,1-1.43.27c-.3,0-.6,0-.91,0h-.1a4,4,0,0,1-.59,0,7.65,7.65,0,0,1-1.66-.38,8.34,8.34,0,0,1-1.51-.8,7.53,7.53,0,0,1-2.71-3.36c-.1-.26-.19-.51-.26-.74h-.19a6.57,6.57,0,0,0,.2.83,7.76,7.76,0,0,0,.51,1.24,8.74,8.74,0,0,0,.85,1.3,6.79,6.79,0,0,0,1.24,1.21,7,7,0,0,0,1.64.91,6.65,6.65,0,0,0,1.83.42,6,6,0,0,0,1,0s0,0,0,0a5.45,5.45,0,0,0,.58.69,6.79,6.79,0,0,0,.83.71,6.17,6.17,0,0,0,1.11.62,5.37,5.37,0,0,0,1.36.4,6.17,6.17,0,0,0,1.55,0,5.79,5.79,0,0,0,1.48-.44,6.07,6.07,0,0,0,1.21-.76,5.93,5.93,0,0,0,.9-.91,6.24,6.24,0,0,0,.6-.92c.1-.2.19-.39.26-.57a3.89,3.89,0,0,0,1-.3,4,4,0,0,0,1.6-1.23,4,4,0,0,0,.75-1.88,4.81,4.81,0,0,0,0-.52l.13-.05a5,5,0,0,0,.76-.32,6.37,6.37,0,0,0,.84-.58,4.68,4.68,0,0,0,1.38-2.06,5.33,5.33,0,0,0,.24-1.41,4.89,4.89,0,0,0-.23-1.4,3.66,3.66,0,0,0-.18-.46c.85-.86,1.77-1.79,2.71-2.77,1.57-1.62,3-3.16,4.2-4.48C79.19,167.57,79.05,167.49,78.92,167.4Z" style="fill:#343536"/><path d="M50.16,172.22a4.87,4.87,0,0,0-.38.87,4.39,4.39,0,0,0-.15,1.81,4.29,4.29,0,0,0,.4,1.41,5.43,5.43,0,0,0,.5.84l.22.27-.18-.3a3.89,3.89,0,0,1-.38-.87,5,5,0,0,1-.22-1.37,4.87,4.87,0,0,1,.25-1.65,5.16,5.16,0,0,1,.79-1.45,5.12,5.12,0,0,1,1.78-1.49,3,3,0,0,1,.31-.14l-.34.08a3.62,3.62,0,0,0-.4.13,4.31,4.31,0,0,0-.51.23,4.41,4.41,0,0,0-1.16.92A3.86,3.86,0,0,0,50.16,172.22Z" style="fill:#343536"/><path d="M74.72,161.09c0-.11,0-.21,0-.32-2.23.94-5.06,2.2-8.12,3.64l-1.7.8a4.36,4.36,0,0,0-1.74-1,3.74,3.74,0,0,0-2.15,0,3.21,3.21,0,0,0-1.23.72,5,5,0,0,0-.74-.67,6.17,6.17,0,0,0-1.09-.67,6.89,6.89,0,0,0-1.39-.49,6.29,6.29,0,0,0-1.65-.16,6.15,6.15,0,0,0-1.76.31,5.7,5.7,0,0,0-1.59.82,6.8,6.8,0,0,0-1.2,1.12,7.21,7.21,0,0,0-.8,1.24,8.8,8.8,0,0,0-.46,1.17s0,.07,0,.1l-.37,0a3.8,3.8,0,0,0-.84.11,4.07,4.07,0,0,0-.92.36,3.72,3.72,0,0,0-.87.69,3.53,3.53,0,0,0-.64,1,4,4,0,0,0-.25,1.16,3.82,3.82,0,0,0,.09,1.08,4.55,4.55,0,0,0,.34.9,3.81,3.81,0,0,0,.23.4,5,5,0,0,0-.36,1.55,4.88,4.88,0,0,0,.06,1.2,5.14,5.14,0,0,0,.38,1.25,4.75,4.75,0,0,0,.72,1.1,4.48,4.48,0,0,0,.89.81,6,6,0,0,0,.94.53l.39.15a.09.09,0,0,0,0,0c0,.08,0,.16,0,.25h.19c0-.08,0-.16-.07-.23s0,0,0,0c-.05-.22-.09-.43-.12-.6l0-.2c0-.22,0-.4,0-.52a.82.82,0,0,1,0-.14.53.53,0,0,0,0,.14,4.15,4.15,0,0,0,0,.53v.12a6.11,6.11,0,0,1-.79-.62,6.27,6.27,0,0,1-1.26-1.7,5.78,5.78,0,0,1-.35-1,5.24,5.24,0,0,1-.15-1,7.41,7.41,0,0,1,0-1V174l.25.23a2.61,2.61,0,0,0,.4.29c.11.08.21.12.27.16l.1.05-.09-.06a2.49,2.49,0,0,1-.24-.2,2.27,2.27,0,0,1-.33-.35,2.83,2.83,0,0,1-.31-.46l0-.07A3.63,3.63,0,0,1,46,173a.58.58,0,0,1,0-.14,4,4,0,0,1-.13-1.75,3.33,3.33,0,0,1,.29-.91,4.22,4.22,0,0,1,1.21-1.36,4.1,4.1,0,0,1,1.41-.67,1.39,1.39,0,0,1,.19-.06l.29-.05.13,0a2.75,2.75,0,0,1,.48,0c.14,0,.24,0,.31,0l.11,0-.1,0a1.31,1.31,0,0,0-.3-.12,3,3,0,0,0-.49-.14h0v0a6.12,6.12,0,0,1,.63-1,8.12,8.12,0,0,1,.89-1,6.21,6.21,0,0,1,1.15-.87,7.08,7.08,0,0,1,1.39-.65,7.23,7.23,0,0,1,1.49-.28,7.62,7.62,0,0,1,1.44,0,7.05,7.05,0,0,1,1.28.29,6.75,6.75,0,0,1,1.08.44c.29.15.56.3.79.45l.19.13a3.21,3.21,0,0,1,.46.37,3.71,3.71,0,0,1,.34.33l.12.12-.09-.14a4,4,0,0,0-.27-.4c-.06-.09-.14-.18-.21-.29l-.13-.14a3.37,3.37,0,0,1,1.17-.5,3.88,3.88,0,0,1,1.87.1,5,5,0,0,1,1.41.67l.28.21.12.11a6.22,6.22,0,0,1,1,1.06,5.86,5.86,0,0,1,.37.54l.14,0c-.07-.19-.16-.41-.28-.66a5.24,5.24,0,0,0-.76-1.11l1.55-.71C69.79,163.46,72.55,162.13,74.72,161.09Z" style="fill:#343536"/><polygon points="25.86 132.53 71.02 136.62 26.26 124.54 25.86 132.53" style="fill:#72cff5"/><polygon points="26.26 124.54 25.86 132.53 71.02 136.62 26.26 124.54 26.26 124.54" style="fill:#00bbed"/><path d="M34.22,119.87l-5.41,9.36,3.84,10.11-10.57-2.25-8.43,6.77-1.13-10.75-9-5.93,9.88-4.39,2.83-10.43,7.23,8Z" style="fill:#00bbed"/><polygon points="18.47 120.66 16.56 125.82 11.35 127.6 16.24 130.58 15.76 136.51 20.33 133.46 25.59 135.07 24.1 129.78 27.27 125.28 21.77 125.05 18.47 120.66" style="fill:#fff"/><polygon points="96.56 32.66 94.83 39.64 99.66 44.98 92.51 45.49 88.85 51.74 86.09 45.05 79.08 43.52 84.58 38.87 83.86 31.7 89.94 35.51 96.56 32.66" style="fill:url(#b)"/><path d="M88.74,52.58,85.8,45.37l-7.59-1.64,6-5L83.38,31,90,35.11,97.09,32l-1.87,7.61,5.2,5.72-7.75.57Zm-2.4-7.78.1.12,2.43,6,3.35-5.74,6.64-.55-4.43-4.93L96,33.26,89.93,36l-5.64-3.52.63,6.6-5,4.29Z" style="fill:#262625"/><path d="M115.79,212.86c2-.16,4-.48,6-.75q.49-3,1.17-6a39.73,39.73,0,0,0,2.23,5.63A17,17,0,0,1,130,212c-.78.77-1.92,1.85-3.17,3.08.8,1.62,1.51,3,1.89,4a13.32,13.32,0,0,1-4.36-1.5,39.73,39.73,0,0,0-3.67,4.36q.21-3,.6-6.08A55.75,55.75,0,0,0,115.79,212.86Z" style="fill:#fdcc25"/><path d="M102.44,153.09c-.32,1.32-.55,2.7-.79,4,1.22.64,2.43,1.32,3.61,2a28.51,28.51,0,0,0-4.09.25,11.77,11.77,0,0,1-1.15,3c-.34-.67-.79-1.63-1.32-2.69-1.21.17-2.27.33-3,.37a8.83,8.83,0,0,1,1.88-2.49,27.19,27.19,0,0,0-2-3.29c1.28.52,2.54,1.08,3.79,1.67A38.81,38.81,0,0,0,102.44,153.09Z" style="fill:#f37024"/><path d="M40.69,66.63a6.4,6.4,0,0,0-1,2.66C38,68,37.26,66.86,37.12,65.87c-.31-2.28,1.14-2.94,3.29-4A18,18,0,0,0,41,65.44a32.2,32.2,0,0,1,.29-4.09L42,61l-.6.08c.25-1.76.66-3.46,1.33-4,1.83-1.34,3.93.27,6.3,1.65l-.22.19a3.88,3.88,0,0,0,.48,0c.42.24.84.47,1.28.67-.3-.23-.59-.48-.88-.73,1.55-.27,3-.85,4.15.51A6.09,6.09,0,0,1,55,62.67c-.5-.35-1-.66-1.52-.93,0,0,3.12,3.1,1.83,4.91a12.46,12.46,0,0,1-1.82,1.86c-.05-.32-.12-.65-.2-1a5.16,5.16,0,0,1,.13,1,4.57,4.57,0,0,1-.87.6,6,6,0,0,0,.87-.36,2.69,2.69,0,0,1-1.4,2.34,11.5,11.5,0,0,1-3.65.87l.18-.24a2.77,2.77,0,0,1-.4.27l-.7,0,.59,0c-1.29.67-3.75,1.17-5.18.29C41.08,71.27,40.81,69.69,40.69,66.63Z" style="fill:#fff"/><path d="M40.19,61.09c-3.38.7-5,2.45-4.81,5.18a3.09,3.09,0,0,0,.55,1.55A6.36,6.36,0,0,0,39.46,70a5.37,5.37,0,0,0,.94,3,5.14,5.14,0,0,0,1.44,1.39c1.56,1,4.51.47,6.58-2.13a7.19,7.19,0,0,0,4.16-.75,2.63,2.63,0,0,0,1.15-2.68,6.08,6.08,0,0,0,3-3.13,2.19,2.19,0,0,0-.32-2,3.73,3.73,0,0,0-.67-.73c.68-2.52.53-4.45-.45-5.89a3.57,3.57,0,0,0-.3-.38,2.13,2.13,0,0,0-1.47-.82c-1.26-.09-2.62,1-4.25,2.39-.46-.42-.9-.85-1.34-1.27-2.2-2.11-4.28-4.1-6-2.75C40.67,55.2,40,57.73,40.19,61.09Zm2.6-3.83C44.3,56.15,46,57.19,48,58.4l.66.4-.41.36.48,0a3.13,3.13,0,0,0,.44,0c.35.2.79.44,1.25.65l1.33.62-1.16-.9L50,59l.35-.07c1.28-.26,2.38-.49,3.3.59a3,3,0,0,1,.27.35,5.81,5.81,0,0,1,.87,2.48c-.37-.24-.75-.46-1.09-.66l-.46-.26.1.39,0,.06a.76.76,0,0,0,.08.11,11.94,11.94,0,0,1,1.08,1.33c.67,1,1.32,2.33.66,3.27a11.62,11.62,0,0,1-1.58,1.64,5.67,5.67,0,0,0-.15-.69l-.33.08a4.25,4.25,0,0,1,.13.91,4.3,4.3,0,0,1-.77.51l-2.79,1.22,2.91-.9c.2-.07.41-.14.63-.24A2.48,2.48,0,0,1,52,71a10.42,10.42,0,0,1-3.21.81l.64-.91-.93.75a3,3,0,0,1-.37.25h-.62v.28c-1.28.51-3.28.81-4.49.07a3.91,3.91,0,0,1-1.2-1.11c-.67-1-.84-2.29-.93-4.52l0-.53-.29.44a6.83,6.83,0,0,0-1,2.45,8.57,8.57,0,0,1-1.67-1.74,3.29,3.29,0,0,1-.59-1.39c-.29-2.08.94-2.72,3-3.76a18.34,18.34,0,0,0,.61,3.4l.37,1.23,0-1.28a33,33,0,0,1,.27-4l.57-.32.72-.42-1.21.15C41.85,58.91,42.29,57.63,42.79,57.26Z" style="fill:#323535"/><path d="M47.49,72.07a2.42,2.42,0,0,1-.42,0Z" style="fill:#323535"/><path d="M53.33,67.54c-.06-.24-.13-.47-.2-.7C53.18,67,53.26,67.24,53.33,67.54Z" style="fill:#323535"/><path d="M53.06,66.62c0,.07,0,.14.07.22A.7.7,0,0,1,53.06,66.62Z" style="fill:#323535"/><polygon points="41.85 69.4 65.55 76.08 65.96 75.86 47.23 59.87 41.85 69.4" style="fill:#fff"/><polygon points="60.03 73.15 45 65.14 45.97 66.88 60.03 73.15" style="fill:#323535"/><polygon points="62.96 73.23 54.07 66.21 53.54 65.26 62.96 73.23" style="fill:#323535"/><polygon points="63.85 74.44 49.85 66.03 49.1 64.43 63.85 74.44" style="fill:#323535"/><polygon points="47.94 70.27 45.08 70.57 67.06 76.44 47.94 70.27" style="fill:#323535"/><polygon points="63.2 75.38 47.78 70.53 46.01 70.72 63.2 75.38" style="fill:#fff"/><path d="M241,132.06a7.49,7.49,0,0,0-.74-3.32c2.53.21,4,.83,4.79,1.72,1.81,2.06.8,3.68-.61,6.18a20.48,20.48,0,0,0-3-3.17,36.36,36.36,0,0,1,2.41,4.25l-.4.78L244,138c.91,1.91,1.61,3.88,1.27,4.8-.94,2.54-4.08,2.32-7.35,2.51l.09-.34-.45.36c-.57,0-1.15.09-1.71.18.44,0,.9.08,1.36.14-1.37,1.29-2.43,2.82-4.47,2.23a7.42,7.42,0,0,1-3.41-2.46c.73,0,1.46,0,2.13-.08-.05,0-5.15-1-5.06-3.68a14.41,14.41,0,0,1,.59-3.05,11,11,0,0,0,.84.83,5.81,5.81,0,0,1-.81-.93,5.72,5.72,0,0,1,.48-1.16,6.15,6.15,0,0,0-.63.92,3.2,3.2,0,0,1-.15-3.25,14.09,14.09,0,0,1,3.05-3.27c0,.12,0,.24,0,.36a2.78,2.78,0,0,1,.22-.52c.25-.2.48-.37.67-.5l-.6.36c.84-1.52,3-3.63,5-3.7C237.59,127.7,238.9,129.09,241,132.06Z" style="fill:#fff"/><path d="M245.19,137.24c2.9-2.93,3.36-5.73,1.37-8.33a3.8,3.8,0,0,0-1.57-1.18,7.6,7.6,0,0,0-5,.12,6.46,6.46,0,0,0-2.9-2.34,6.2,6.2,0,0,0-2.34-.45c-2.22,0-4.8,2.52-5.15,6.47-2.06,1.29-3.12,2.3-3.65,3.48a3.16,3.16,0,0,0,.62,3.42c-.44.81-1.51,3.07-.92,5.1a2.66,2.66,0,0,0,1.62,1.76,5.08,5.08,0,0,0,1.15.29c1,3,2.41,4.77,4.33,5.55a5.14,5.14,0,0,0,.55.2,2.55,2.55,0,0,0,2-.17c1.31-.73,2-2.68,2.65-5.17l2.17.38c3.57.65,7,1.27,7.83-1.25C248.58,143.42,247.54,140.48,245.19,137.24Zm-.07,5.52c-.78,2.1-3.18,2.2-6,2.32l-.92,0,.17-.62-.47.34-.41.32c-.47,0-1.06.09-1.66.18l-1.73.27,1.74.13q.47,0,.93.09l-.3.3c-1.09,1.11-2,2.06-3.66,1.59a3.82,3.82,0,0,1-.51-.18,7,7,0,0,1-2.5-1.89c.53,0,1,0,1.53-.07l.63,0-.36-.32-.08,0-.15,0a14.8,14.8,0,0,1-2-.62c-1.31-.53-2.86-1.45-2.81-2.82a13.24,13.24,0,0,1,.49-2.66c.19.2.39.39.6.58l.28-.3a5.05,5.05,0,0,1-.73-.82,4.82,4.82,0,0,1,.43-1l2-3-2.3,2.82a7.31,7.31,0,0,0-.46.65,2.94,2.94,0,0,1,0-2.75,12.48,12.48,0,0,1,2.65-2.92l0,1.33.43-1.36a3.79,3.79,0,0,1,.21-.49l.61-.43-.18-.28c.94-1.35,2.73-3,4.43-3a4.73,4.73,0,0,1,1.92.31c1.31.53,2.34,1.73,3.9,3.89l.36.51v-.63a7.92,7.92,0,0,0-.61-3.09,10.56,10.56,0,0,1,2.81.63,3.93,3.93,0,0,1,1.5,1c1.65,1.88.86,3.32-.48,5.7a21.59,21.59,0,0,0-2.85-3l-1.17-1,.88,1.25a38.76,38.76,0,0,1,2.35,4.14l-.36.69-.44.88,1.1-.94C245,140.5,245.38,142.07,245.12,142.76Z" style="fill:#323535"/><path d="M230.69,131.12a3.74,3.74,0,0,1,.44-.25Z" style="fill:#323535"/><path d="M227.87,139.47c.21.2.44.39.66.57C228.37,139.91,228.13,139.72,227.87,139.47Z" style="fill:#323535"/><path d="M228.74,140.21l-.21-.17A1.66,1.66,0,0,1,228.74,140.21Z" style="fill:#323535"/><polygon points="238.06 130.06 210.09 139.02 209.83 139.51 238.98 143.09 238.06 130.06" style="fill:#fff"/><polygon points="217.51 138.29 237.74 136.37 235.62 135.29 217.51 138.29" style="fill:#323535"/><polygon points="214.54 140.15 228 141.28 229.15 141.88 214.54 140.15" style="fill:#323535"/><polygon points="212.86 139.54 232.33 138.69 234.12 139.78 212.86 139.54" style="fill:#323535"/><polygon points="231.43 133.21 234.08 131.02 208.34 139.65 231.43 133.21" style="fill:#323535"/><polygon points="212.88 138.16 231.42 132.85 233.06 131.49 212.88 138.16" style="fill:#fff"/><polygon points="196.26 45.98 170.5 83.29 203.02 50.24 196.26 45.98" style="fill:#72cff5"/><polygon points="196.26 45.98 170.5 83.29 203.02 50.24 196.26 45.98 196.26 45.98" style="fill:#00bbed"/><path d="M203.17,59.48l-5.49-9.31L187,48.54l7.16-8.1-1.76-10.67,9.92,4.3,9.61-5-1,10.76,7.69,7.59L208,49.82Z" style="fill:#00bbed"/><polygon points="210.24 45.37 206.68 41.17 207.69 35.76 202.69 38.56 197.76 35.22 198.17 40.7 194.18 44.49 199.52 45.8 201.89 50.76 204.78 46.09 210.24 45.37" style="fill:#fff"/><path d="M178.52,112.54c1.15.32,2.36.54,3.53.79.59-1.06,1.21-2.1,1.86-3.13a24.91,24.91,0,0,0,.12,3.6,10,10,0,0,1,2.63,1.09c-.6.27-1.45.65-2.39,1.09.12,1.07.23,2,.25,2.63a7.71,7.71,0,0,1-2.14-1.72,23.82,23.82,0,0,0-2.94,1.71c.49-1.11,1-2.21,1.56-3.29A33.2,33.2,0,0,0,178.52,112.54Z" style="fill:#fdcc25"/><path d="M212.06,184.93c-.68-2.48-1.59-5-2.41-7.4-2.61.07-5.21.07-7.82,0a52.92,52.92,0,0,0,6.52-4.17,22.15,22.15,0,0,1-.87-6c1.16.79,2.79,2,4.64,3.23,1.84-1.4,3.45-2.63,4.58-3.35a16.75,16.75,0,0,1-.82,5.84,51.17,51.17,0,0,0,6.37,3.56q-3.88.47-7.78.72A70.53,70.53,0,0,0,212.06,184.93Z" style="fill:#f4ba56"/><path d="M194.79,174.87a8.2,8.2,0,0,1,7,.42c.07,0,0,.18-.07.16-2.22-.42-4.69,0-7-.06C194.45,175.38,194.53,175,194.79,174.87Z" style="fill:#fff"/><path d="M202.25,172.81c-1.71-.05-3.38-.23-5.1-.23a8.58,8.58,0,0,1-4.37-.72c-.32-.19-.13-.76.33-.85a8.07,8.07,0,0,1,4,.35c1.72.47,3.49.8,5.22,1.24C202.44,172.63,202.37,172.81,202.25,172.81Z" style="fill:#fff"/><path d="M204.53,171.34c-2.66-1.14-5.5-1.79-7.57-3.72-.16-.14.07-.55.31-.49,2.95.72,4.91,2.58,7.32,4.11C204.65,171.27,204.59,171.37,204.53,171.34Z" style="fill:#fff"/><path d="M159.18,47.69c-1.86.06-3.76.28-5.62.45q-.57,2.78-1.31,5.5a38.56,38.56,0,0,0-1.84-5.29A16.08,16.08,0,0,1,146,48c.76-.69,1.85-1.64,3.05-2.73-.67-1.53-1.27-2.87-1.58-3.78a11.93,11.93,0,0,1,4,1.56A37.6,37.6,0,0,0,155,39.12c-.22,1.87-.48,3.74-.8,5.6A50,50,0,0,0,159.18,47.69Z" style="fill:#f4ba56"/><path d="M149.2,58.15a5.92,5.92,0,0,1,1.48-4.87c0-.05.12,0,.1.08a30.9,30.9,0,0,0-1.22,4.93C149.51,58.47,149.24,58.34,149.2,58.15Z" style="fill:#fff"/><path d="M149,52.56c-.32,1.19-.72,2.33-1,3.54a6.21,6.21,0,0,1-1.24,2.95c-.19.2-.56,0-.55-.37a5.85,5.85,0,0,1,.93-2.76c.61-1.12,1.15-2.31,1.74-3.45C148.91,52.39,149,52.47,149,52.56Z" style="fill:#fff"/><path d="M148.36,50.71c-1.25,1.68-2.19,3.56-3.89,4.7-.13.08-.38-.15-.3-.31,1-2,2.64-3,4.13-4.46C148.33,50.61,148.38,50.67,148.36,50.71Z" style="fill:#fff"/><path d="M217,105.42a3.39,3.39,0,0,0,.75.51l0,0a5.76,5.76,0,0,1-.68.43,5.67,5.67,0,0,1-.89.37,6.86,6.86,0,0,1-1.06.21,5.16,5.16,0,0,1-1.18,0,4.45,4.45,0,0,1-1.22-.3,4.63,4.63,0,0,1-1.07-.65.44.44,0,0,1-.11-.09,3.24,3.24,0,0,1-.38-.36l-.34-.39a5.48,5.48,0,0,1-.58-.93,5.08,5.08,0,0,1-.34-.9,5.79,5.79,0,0,1-.14-.61,4,4,0,0,0,.68,0,5,5,0,0,0,.92-.09,6.76,6.76,0,0,0,.73-.2,4.35,4.35,0,0,0,.51-.23l.4-.23-.05-.78a4.61,4.61,0,0,0,.68.73,4.89,4.89,0,0,0,1.61.94,5.11,5.11,0,0,0,1,.2l-.13,1.15a.45.45,0,0,0,.05.09s.08.14.16.24a2.1,2.1,0,0,0,.29.37A3.81,3.81,0,0,0,217,105.42Z" style="fill:#e96347"/><path d="M216.29,88.6l-.18-.06a4.54,4.54,0,0,0-2.91,0,4.39,4.39,0,0,0-1.23.6,4.18,4.18,0,0,0-.92.91,4,4,0,0,0-.74,2.15,4.38,4.38,0,0,0,.31,1.81,4.27,4.27,0,0,0,.6,1,.64.64,0,0,0,.1.13l.15.16a4.65,4.65,0,0,0,.47.42l.25.17-.22-.2a4,4,0,0,1-.41-.45c0-.06-.09-.12-.13-.19l-.08-.12a4.1,4.1,0,0,1-.45-1.07,4.33,4.33,0,0,1-.13-1.68,3.55,3.55,0,0,1,.76-1.81,3.88,3.88,0,0,1,1.87-1.22,3.75,3.75,0,0,1,2.45.06l.15.06.25.12.27.14.06,0s0,0,.06,0l.24-.27.1-.1.11-.11.25-.2a3,3,0,0,1,1.21-.49,2.85,2.85,0,0,1,1.51.15,2.61,2.61,0,0,1,1.14.9,3.08,3.08,0,0,1,.56,1.29,3.05,3.05,0,0,1,0,.67v.17l0,.09a1.1,1.1,0,0,1,0,.16l-.18.63.43,0h.61l.19,0a2.72,2.72,0,0,1,.75.23,3.17,3.17,0,0,1,1.14.89,2.75,2.75,0,0,1,.52,1.18,3,3,0,0,1,0,1.12,3.16,3.16,0,0,1-.66,1.45c-.13.15-.23.25-.3.32l-.07.06.07-.06a2.23,2.23,0,0,0,.33-.29,3.26,3.26,0,0,0,.81-1.44,3.32,3.32,0,0,0,.09-1.2,3,3,0,0,0-.5-1.36,3.55,3.55,0,0,0-1.22-1.11,3.39,3.39,0,0,0-.86-.32.85.85,0,0,0-.23,0l-.12,0h-.21s0-.05,0-.07v0l0-.09,0-.2a3.22,3.22,0,0,0,0-.82,3.78,3.78,0,0,0-.63-1.6,3.34,3.34,0,0,0-1.43-1.16,3.55,3.55,0,0,0-1.91-.2,3.63,3.63,0,0,0-1.51.61,3.92,3.92,0,0,0-.32.25l-.15.14,0,0h0l-.06,0Zm5.86-1.93-.16-.32a5.1,5.1,0,0,0-.59-.82,4.72,4.72,0,0,0-3-1.58,5.46,5.46,0,0,0-1,0,4,4,0,0,0-.89.21,4.39,4.39,0,0,0-1.35.72,4.48,4.48,0,0,0-.44.39,3.8,3.8,0,0,0-.29.33c-.13.16-.2.26-.22.29a3.48,3.48,0,0,1,.27-.24,4.73,4.73,0,0,1,.82-.56,5.51,5.51,0,0,1,1.33-.52,5.58,5.58,0,0,1,1.71-.14,4.68,4.68,0,0,1,1.67.45,4.94,4.94,0,0,1,1.21.77,4.11,4.11,0,0,1,.67.72A2.13,2.13,0,0,1,222.15,86.67Zm-6.05,17.67-.07-.07.13-1.15a4.87,4.87,0,0,0,.85,0,5.55,5.55,0,0,0,1.46-.32,5,5,0,0,0,.89-.43l.3-.2-.32.15a5.24,5.24,0,0,1-.93.31,5.49,5.49,0,0,1-1.41.12,5.77,5.77,0,0,1-3.15-1.14,6.48,6.48,0,0,1-1-1,4.75,4.75,0,0,1-.57-.79,3.12,3.12,0,0,1-.16-.31,1.86,1.86,0,0,0,.1.34c0,.11.09.24.16.4a4.72,4.72,0,0,0,.25.51c.08.14.18.29.28.43l.05.78-.1,0-.34.09a4.22,4.22,0,0,1-.53.1,7,7,0,0,1-.71.06,6.43,6.43,0,0,1-.85,0,4.7,4.7,0,0,1-.76-.16l-.13,0,0,0a4.44,4.44,0,0,1-.66-.25l-.31-.16a2.38,2.38,0,0,1-.3-.18,5.13,5.13,0,0,1-.6-.44,4.22,4.22,0,0,1-1.23-1.68,2.35,2.35,0,0,1-.11-.35,2.71,2.71,0,0,1-.08-.69,2.29,2.29,0,0,1,.09-.66c0-.08,0-.15.07-.22a.36.36,0,0,0,0-.09,2.56,2.56,0,0,1,.49-.76,1.36,1.36,0,0,1,.27-.22.28.28,0,0,0,.08-.06l-.09,0a1.71,1.71,0,0,0-.31.17,2.46,2.46,0,0,0-.61.58,6.32,6.32,0,0,1-.37-.57,6.61,6.61,0,0,1-.6-1.36l-.05-.17a3.59,3.59,0,0,1-.08-.35,5.12,5.12,0,0,1-.06-1.62,4,4,0,0,1,.69-1.81,3.69,3.69,0,0,1,.95-.91l.09.18c.07.12.13.22.18.32a4.07,4.07,0,0,0,.28.43l.09.14a1.37,1.37,0,0,0-.07-.16c0-.11-.11-.26-.17-.47a4.43,4.43,0,0,1-.16-.59c0-.07,0-.15,0-.24,0-.28-.08-.59-.11-.93a10.06,10.06,0,0,1,0-1.21,9.86,9.86,0,0,1,.26-1.34,7,7,0,0,1,.56-1.38,6.59,6.59,0,0,1,.89-1.31,7.28,7.28,0,0,1,1.18-1A7.66,7.66,0,0,1,211,82a8.51,8.51,0,0,1,1.32-.44,7,7,0,0,1,1.21-.18h0a4.19,4.19,0,0,0-.07.52c0,.14,0,.26,0,.33v.11l0-.1a2.9,2.9,0,0,1,.32-.76.41.41,0,0,1,.07-.11c0-.09.11-.17.17-.26a1.83,1.83,0,0,1,.13-.16,4.78,4.78,0,0,1,1.22-1.06,4.4,4.4,0,0,1,1.8-.59,3.27,3.27,0,0,1,1,.11,4.13,4.13,0,0,1,1.61.85l.12.1a3.63,3.63,0,0,1,.42.47l0,.07a3.49,3.49,0,0,1,.31.48,4.09,4.09,0,0,1,.2.47,2.38,2.38,0,0,1,.08.31l0,.1a1,1,0,0,0,0-.11,3,3,0,0,0,0-.32,3.4,3.4,0,0,0-.11-.51,2.56,2.56,0,0,0-.12-.32h.07a6.8,6.8,0,0,1,.91.38,5.88,5.88,0,0,1,.91.56,6,6,0,0,1,.83.77,6.34,6.34,0,0,1,1.1,1.9,6,6,0,0,1,.26,1l-.12,0c-.21-.11-.39-.16-.5-.21l-.14,0,.13.07c.11.06.28.13.47.25l.18.12a4.12,4.12,0,0,1,.52.36l0,0a1.3,1.3,0,0,1,.2.15c.19.16.39.36.6.57a7.49,7.49,0,0,1,.84,1,8.12,8.12,0,0,1,.73,1.34,8.67,8.67,0,0,1,.49,1.59,7.39,7.39,0,0,1,.13,1.77,8.12,8.12,0,0,1-.32,1.74,5.71,5.71,0,0,1-.21.58.36.36,0,0,1,0,.09,7.42,7.42,0,0,1-.41.85,9.11,9.11,0,0,1-.85,1.25,8.42,8.42,0,0,1-.93,1,5.87,5.87,0,0,1-.88.67l-.39.25-.34.18c-.21.11-.38.16-.49.21l-.17.07.17,0a5.25,5.25,0,0,0,.52-.16,5.52,5.52,0,0,0,.8-.32,7,7,0,0,0,1-.57,6.69,6.69,0,0,0,1.08-.9,6.88,6.88,0,0,0,1-1.27,4,4,0,0,0,.24-.41,4.6,4.6,0,0,1,.23.74,6.27,6.27,0,0,1,.16,1,6.19,6.19,0,0,1,0,1.21,7,7,0,0,1-.3,1.28,5.87,5.87,0,0,1-.58,1.25,6.68,6.68,0,0,1-.88,1.08,5.5,5.5,0,0,1-1,.82,7.92,7.92,0,0,1-1.06.57,7,7,0,0,1-1,.33l-.43.09.1-.21a4,4,0,0,0,.33-1c0-.13,0-.23.05-.29a.82.82,0,0,0,0-.1l0,.09c0,.06-.06.16-.11.27a4,4,0,0,1-.54.89,2.46,2.46,0,0,1-.41.45.23.23,0,0,1-.07.07.52.52,0,0,1-.11.1,4.09,4.09,0,0,1-.51.4,4.43,4.43,0,0,1-1.61.7,5.11,5.11,0,0,1-1.74,0l-.28-.05-.07,0-.42-.11c-.23-.08-.45-.16-.65-.25a4.09,4.09,0,0,1-.89-.55A2.31,2.31,0,0,1,216.1,104.34Zm2-5.35a3.26,3.26,0,0,0,.77,0,3,3,0,0,0,1.65-.67,2.65,2.65,0,0,0,.9-1.55,1.94,1.94,0,0,0-.26-1.43,1.49,1.49,0,0,0-.72-.6l-.25-.07h-.08a1.13,1.13,0,0,1,.29.15,1.59,1.59,0,0,1,.51.66,1.68,1.68,0,0,1,0,1.17,2.23,2.23,0,0,1-.32.61,2.84,2.84,0,0,1-.51.53,3.43,3.43,0,0,1-1.95.71,3.62,3.62,0,0,1-.58,0,2.68,2.68,0,0,1-.48-.1,2.73,2.73,0,0,1-.36-.14l-.28-.16.23.23a3.32,3.32,0,0,0,.32.24,3.05,3.05,0,0,0,.48.25A3.47,3.47,0,0,0,218.06,99Z" style="fill:#e96347"/><path d="M213.56,102a4.61,4.61,0,0,1-.68-.73c-.1-.14-.2-.29-.28-.43a4.72,4.72,0,0,1-.25-.51c-.07-.16-.12-.29-.16-.4a1.86,1.86,0,0,1-.1-.34,3.12,3.12,0,0,0,.16.31,4.75,4.75,0,0,0,.57.79,6.48,6.48,0,0,0,1,1,5.77,5.77,0,0,0,3.15,1.14,5.49,5.49,0,0,0,1.41-.12,5.24,5.24,0,0,0,.93-.31l.32-.15-.3.2a5,5,0,0,1-.89.43,5.55,5.55,0,0,1-1.46.32,4.87,4.87,0,0,1-.85,0,5.11,5.11,0,0,1-1-.2A4.89,4.89,0,0,1,213.56,102Z" style="fill:#343536"/><path d="M220.4,94.76a1.49,1.49,0,0,1,.72.6,1.94,1.94,0,0,1,.26,1.43,2.65,2.65,0,0,1-.9,1.55,3,3,0,0,1-1.65.67,3.26,3.26,0,0,1-.77,0,3.47,3.47,0,0,1-.64-.18,3.05,3.05,0,0,1-.48-.25,3.32,3.32,0,0,1-.32-.24l-.23-.23.28.16a2.73,2.73,0,0,0,.36.14,2.68,2.68,0,0,0,.48.1,3.62,3.62,0,0,0,.58,0A3.43,3.43,0,0,0,220,97.8a2.84,2.84,0,0,0,.51-.53,2.23,2.23,0,0,0,.32-.61,1.68,1.68,0,0,0,0-1.17,1.59,1.59,0,0,0-.51-.66,1.13,1.13,0,0,0-.29-.15h.08Z" style="fill:#343536"/><path d="M216.11,88.54l.18.06.07,0,.06,0h0l0,0,.15-.14a3.92,3.92,0,0,1,.32-.25,3.63,3.63,0,0,1,1.51-.61,3.55,3.55,0,0,1,1.91.2A3.34,3.34,0,0,1,221.77,89a3.78,3.78,0,0,1,.63,1.6,3.22,3.22,0,0,1,0,.82l0,.2,0,.09v0s0,0,0,.07h.21l.12,0a.85.85,0,0,1,.23,0,3.39,3.39,0,0,1,.86.32A3.55,3.55,0,0,1,225,93.3a3,3,0,0,1,.5,1.36,3.32,3.32,0,0,1-.09,1.2,3.26,3.26,0,0,1-.81,1.44,2.23,2.23,0,0,1-.33.29l-.07.06.07-.06c.07-.07.17-.17.3-.32a3.16,3.16,0,0,0,.66-1.45,3,3,0,0,0,0-1.12,2.75,2.75,0,0,0-.52-1.18,3.17,3.17,0,0,0-1.14-.89,2.72,2.72,0,0,0-.75-.23l-.19,0H222l-.43,0,.18-.63a1.1,1.1,0,0,0,0-.16l0-.09v-.17a3.05,3.05,0,0,0,0-.67,3.08,3.08,0,0,0-.56-1.29,2.61,2.61,0,0,0-1.14-.9,2.85,2.85,0,0,0-1.51-.15,3,3,0,0,0-1.21.49l-.25.2-.11.11-.1.1-.24.27s0,.06-.06,0l-.06,0-.27-.14-.25-.12-.15-.06a3.75,3.75,0,0,0-2.45-.06,3.88,3.88,0,0,0-1.87,1.22,3.55,3.55,0,0,0-.76,1.81,4.33,4.33,0,0,0,.13,1.68,4.1,4.1,0,0,0,.45,1.07l.08.12c0,.07.09.13.13.19a4,4,0,0,0,.41.45l.22.2-.25-.17a4.65,4.65,0,0,1-.47-.42l-.15-.16a.64.64,0,0,1-.1-.13,4.27,4.27,0,0,1-.6-1,4.38,4.38,0,0,1-.31-1.81,4,4,0,0,1,.74-2.15,4.18,4.18,0,0,1,.92-.91,4.39,4.39,0,0,1,1.23-.6A4.54,4.54,0,0,1,216.11,88.54Z" style="fill:#343536"/><path d="M218.45,106.23a3.86,3.86,0,0,1-.51-.2l-.09.11a5.23,5.23,0,0,1-.63.59,6.32,6.32,0,0,1-.9.56,5.45,5.45,0,0,1-1.16.39,4.77,4.77,0,0,1-1.37.06,5,5,0,0,1-1.43-.35,4.89,4.89,0,0,1-1.25-.81,3.06,3.06,0,0,1-.36-.36c-1.17.45-2.43.94-3.75,1.43-3.18,1.18-6.09,2.17-8.21,2.85l-2.51.79-.92.29s.31-.14.89-.37l2.43-1c2.06-.84,4.92-2,8.11-3.1,1.27-.46,2.49-.89,3.63-1.27l-.19-.27a5.81,5.81,0,0,1-.53-1.1,5.44,5.44,0,0,1-.23-1,4.61,4.61,0,0,1,0-.72l-.13,0a4.93,4.93,0,0,1-1.31-.44l-.66.36c-3.32,1.83-6.36,3.43-8.59,4.54l-3.59,1.77c.16-.11,1.46-.88,3.44-2.07,2.13-1.27,5.12-3,8.45-4.77l.34-.18-.33-.25a4.07,4.07,0,0,1-1.34-2.12l0-.15-.9.63c-1.71,1.16-3.34,2.26-4.84,3.25l-4,2.57c-1.14.72-2.08,1.29-2.73,1.69l-1,.62c.08-.07.41-.31.93-.69s1.49-1.12,2.59-1.91l3.87-2.78c1.47-1,3.1-2.14,4.82-3.29.41-.28.81-.55,1.22-.81a1.94,1.94,0,0,1,0-.24,3.25,3.25,0,0,1,.28-.91,2,2,0,0,1,.17-.29l.09-.13a2.46,2.46,0,0,1,.61-.58,1.71,1.71,0,0,1,.31-.17l.09,0a.28.28,0,0,1-.08.06,1.36,1.36,0,0,0-.27.22,2.56,2.56,0,0,0-.49.76.36.36,0,0,1,0,.09c0,.07,0,.14-.07.22a2.29,2.29,0,0,0-.09.66,2.71,2.71,0,0,0,.08.69,2.35,2.35,0,0,0,.11.35A4.22,4.22,0,0,0,207.6,101a5.13,5.13,0,0,0,.6.44,2.38,2.38,0,0,0,.3.18l.31.16a4.44,4.44,0,0,0,.66.25l0,0,.13,0a4.7,4.7,0,0,0,.76.16,6.43,6.43,0,0,0,.85,0,7,7,0,0,0,.71-.06,4.22,4.22,0,0,0,.53-.1l.34-.09.1,0-.4.23a4.35,4.35,0,0,1-.51.23,6.76,6.76,0,0,1-.73.2,5,5,0,0,1-.92.09,4,4,0,0,1-.68,0,5.79,5.79,0,0,0,.14.61,5.08,5.08,0,0,0,.34.9,5.48,5.48,0,0,0,.58.93l.34.39a3.24,3.24,0,0,0,.38.36.44.44,0,0,0,.11.09,4.63,4.63,0,0,0,1.07.65,4.45,4.45,0,0,0,1.22.3,5.16,5.16,0,0,0,1.18,0,6.86,6.86,0,0,0,1.06-.21,5.67,5.67,0,0,0,.89-.37,5.76,5.76,0,0,0,.68-.43l0,0a3.39,3.39,0,0,1-.75-.51,3.81,3.81,0,0,1-.45-.45,2.1,2.1,0,0,1-.29-.37c-.08-.1-.12-.19-.16-.24a.45.45,0,0,1-.05-.09l.07.07a2.31,2.31,0,0,0,.21.19,4.09,4.09,0,0,0,.89.55c.2.09.42.17.65.25l.42.11.07,0,.28.05a5.11,5.11,0,0,0,1.74,0,4.43,4.43,0,0,0,1.61-.7,4.09,4.09,0,0,0,.51-.4.52.52,0,0,0,.11-.1.23.23,0,0,0,.07-.07,2.46,2.46,0,0,0,.41-.45,4,4,0,0,0,.54-.89c0-.11.08-.21.11-.27l0-.09a.82.82,0,0,1,0,.1c0,.06,0,.16-.05.29a4,4,0,0,1-.33,1l-.1.21.43-.09a7,7,0,0,0,1-.33,7.92,7.92,0,0,0,1.06-.57,5.5,5.5,0,0,0,1-.82,6.68,6.68,0,0,0,.88-1.08,5.87,5.87,0,0,0,.58-1.25,7,7,0,0,0,.3-1.28,6.19,6.19,0,0,0,0-1.21,6.27,6.27,0,0,0-.16-1,4.6,4.6,0,0,0-.23-.74,4,4,0,0,1-.24.41,6.88,6.88,0,0,1-1,1.27,6.69,6.69,0,0,1-1.08.9,7,7,0,0,1-1,.57,5.52,5.52,0,0,1-.8.32,5.25,5.25,0,0,1-.52.16l-.17,0,.17-.07c.11,0,.28-.1.49-.21l.34-.18.39-.25a5.87,5.87,0,0,0,.88-.67,8.42,8.42,0,0,0,.93-1,9.11,9.11,0,0,0,.85-1.25,7.42,7.42,0,0,0,.41-.85.36.36,0,0,0,0-.09,5.71,5.71,0,0,0,.21-.58,8.12,8.12,0,0,0,.32-1.74,7.39,7.39,0,0,0-.13-1.77,8.67,8.67,0,0,0-.49-1.59,8.12,8.12,0,0,0-.73-1.34,7.49,7.49,0,0,0-.84-1c-.21-.21-.41-.41-.6-.57l.08-.17a6.21,6.21,0,0,1,.71.53,8.43,8.43,0,0,1,1,1,9,9,0,0,1,.88,1.35,6.42,6.42,0,0,1,.63,1.69,7.19,7.19,0,0,1,.2,1.93,7.79,7.79,0,0,1-.36,1.91,6,6,0,0,1-.42,1s0,0,0,0a4.7,4.7,0,0,1,.41.84,5.72,5.72,0,0,1,.34,1.08,6.89,6.89,0,0,1,.12,1.32,5.35,5.35,0,0,1-.18,1.46,5.94,5.94,0,0,1-.63,1.48,5.59,5.59,0,0,1-1,1.22,6.65,6.65,0,0,1-1.22.84,6.13,6.13,0,0,1-1.24.47,6.2,6.2,0,0,1-1.13.19h-.65a4.16,4.16,0,0,1-.71.85,4.06,4.06,0,0,1-1.83,1,4.15,4.15,0,0,1-1.1.11A4.54,4.54,0,0,1,218.45,106.23Z" style="fill:#343536"/><path d="M217.45,84a5.46,5.46,0,0,1,1,0,4.72,4.72,0,0,1,3,1.58,5.1,5.1,0,0,1,.59.82l.16.32a2.13,2.13,0,0,0-.21-.3,4.11,4.11,0,0,0-.67-.72,4.94,4.94,0,0,0-1.21-.77,4.68,4.68,0,0,0-1.67-.45,5.58,5.58,0,0,0-1.71.14,5.51,5.51,0,0,0-1.33.52,4.73,4.73,0,0,0-.82.56,3.48,3.48,0,0,0-.27.24s.09-.13.22-.29a3.8,3.8,0,0,1,.29-.33,4.48,4.48,0,0,1,.44-.39,4.39,4.39,0,0,1,1.35-.72A4,4,0,0,1,217.45,84Z" style="fill:#343536"/><path d="M195.81,103.41c-1.75,1.49-2.9,2.51-3.16,2.74l.76-.76,2.23-2.17c1.89-1.83,4.56-4.29,7.58-6.92L204.68,95a4.51,4.51,0,0,1-.21-2.07,3.76,3.76,0,0,1,.91-2,3.24,3.24,0,0,1,1.19-.87,5.35,5.35,0,0,1-.33-1,7.11,7.11,0,0,1-.19-1.31,7.59,7.59,0,0,1,.12-1.54,7.36,7.36,0,0,1,.53-1.63,6.58,6.58,0,0,1,1-1.54,6.32,6.32,0,0,1,1.44-1.17,6.87,6.87,0,0,1,1.57-.67,7,7,0,0,1,1.5-.25,7.89,7.89,0,0,1,1.31,0h.1a2.44,2.44,0,0,1,.14-.34A3.71,3.71,0,0,1,215,79.19a3.5,3.5,0,0,1,1-.55,3.82,3.82,0,0,1,1.23-.18,4.07,4.07,0,0,1,1.22.24,3.86,3.86,0,0,1,1,.54,4,4,0,0,1,.72.69,4.73,4.73,0,0,1,.28.39,5.38,5.38,0,0,1,1.63.3,5.33,5.33,0,0,1,1.12.56,5,5,0,0,1,1.77,2,5.38,5.38,0,0,1,.4,1.19,5.58,5.58,0,0,1,.11,1.12c0,.14,0,.29,0,.43l.05,0,.21.14-.08.17a1.3,1.3,0,0,0-.2-.15l0,0a4.12,4.12,0,0,0-.52-.36l-.18-.12c-.19-.12-.36-.19-.47-.25l-.13-.07.14,0c.11,0,.29.1.5.21l.12,0a6,6,0,0,0-.26-1,6.34,6.34,0,0,0-1.1-1.9,6,6,0,0,0-.83-.77,5.88,5.88,0,0,0-.91-.56,6.8,6.8,0,0,0-.91-.38h-.07a2.56,2.56,0,0,1,.12.32,3.4,3.4,0,0,1,.11.51,3,3,0,0,1,0,.32,1,1,0,0,1,0,.11l0-.1a2.38,2.38,0,0,0-.08-.31,4.09,4.09,0,0,0-.2-.47,3.49,3.49,0,0,0-.31-.48l0-.07a3.63,3.63,0,0,0-.42-.47l-.12-.1a4.13,4.13,0,0,0-1.61-.85,3.27,3.27,0,0,0-1-.11,4.4,4.4,0,0,0-1.8.59,4.78,4.78,0,0,0-1.22,1.06,1.83,1.83,0,0,0-.13.16c-.06.09-.12.17-.17.26a.41.41,0,0,0-.07.11,2.9,2.9,0,0,0-.32.76l0,.1V82.2c0-.07,0-.19,0-.33a4.19,4.19,0,0,1,.07-.52h0a7,7,0,0,0-1.21.18A8.51,8.51,0,0,0,211,82a7.66,7.66,0,0,0-1.3.73,7.28,7.28,0,0,0-1.18,1,6.59,6.59,0,0,0-.89,1.31,7,7,0,0,0-.56,1.38,9.86,9.86,0,0,0-.26,1.34,10.06,10.06,0,0,0,0,1.21c0,.34.06.65.11.93,0,.09,0,.17,0,.24a4.43,4.43,0,0,0,.16.59c.06.21.14.36.17.47a1.37,1.37,0,0,1,.07.16l-.09-.14a4.07,4.07,0,0,1-.28-.43c-.05-.1-.11-.2-.18-.32l-.09-.18a3.69,3.69,0,0,0-.95.91,4,4,0,0,0-.69,1.81,5.12,5.12,0,0,0,.06,1.62,3.59,3.59,0,0,0,.08.35l.05.17a6.61,6.61,0,0,0,.6,1.36,6.32,6.32,0,0,0,.37.57l-.09.13-.51-.54a5.53,5.53,0,0,1-.74-1.19l-1.32,1.18C200.56,99.34,197.8,101.69,195.81,103.41Z" style="fill:#343536"/><path d="M96.29,204.42c-.24-1.76-.63-3.54-1-5.29q-2.68-.28-5.35-.72a35.41,35.41,0,0,0,4.84-2.25,15,15,0,0,1,0-4.22c.72.65,1.73,1.6,2.88,2.63,1.39-.78,2.6-1.48,3.44-1.87a11.42,11.42,0,0,1-1.1,3.92,35.52,35.52,0,0,0,4,3c-1.8,0-3.6-.09-5.39-.22A50.06,50.06,0,0,0,96.29,204.42Z" style="fill:#e96347"/><path d="M101.22,192.42l0,0a.31.31,0,0,1,.14.28,11.25,11.25,0,0,1-1,3.81,34.37,34.37,0,0,0,3.82,2.85.3.3,0,0,1,.14.34.31.31,0,0,1-.3.23c-1.74,0-3.49-.09-5.21-.2l-.11.2a45.86,45.86,0,0,0-2.13,4.58.32.32,0,0,1-.32.2.31.31,0,0,1-.27-.27c-.19-1.35-.47-2.74-.74-4.08-.06-.32-.13-.64-.19-1-1.72-.19-3.45-.42-5.14-.7a.31.31,0,0,1-.26-.28.32.32,0,0,1,.2-.32A34.81,34.81,0,0,0,94.48,196a14.73,14.73,0,0,1,0-4.09.33.33,0,0,1,.2-.24.29.29,0,0,1,.31.06l1.11,1c.48.45,1,.95,1.61,1.47,1.32-.75,2.46-1.39,3.27-1.77A.3.3,0,0,1,101.22,192.42Zm1.74,6.89a39.26,39.26,0,0,1-3.16-2.45.31.31,0,0,1-.09-.36,12.33,12.33,0,0,0,1-3.28c-.74.38-1.69.92-2.76,1.53l-.17.09a.29.29,0,0,1-.36,0l-1.78-1.62-.66-.61a15.68,15.68,0,0,0,.12,3.55.31.31,0,0,1-.16.31c-1.5.8-2.73,1.41-3.81,1.86,1.4.21,2.8.39,4.2.53a.31.31,0,0,1,.27.25l.24,1.18c.2,1,.4,2,.57,3,.51-1.2,1.13-2.4,1.73-3.58l.2-.39a.34.34,0,0,1,.3-.17C100.08,199.21,101.52,199.28,103,199.31Z" style="fill:#343536"/><polygon points="103.78 203.95 100.93 201.53 103.5 204.81 103.78 203.95" style="fill:#343536"/><polygon points="102.49 204.88 100.49 201.55 101.9 204.91 102.49 204.88" style="fill:#343536"/><polygon points="88.18 194 92.4 195.09 88.23 193.03 88.18 194" style="fill:#343536"/><polygon points="89.4 192.51 92.91 194.86 90.08 192.21 89.4 192.51" style="fill:#343536"/><polygon points="93.53 204.9 94.4 200.23 92.53 205.75 93.53 204.9" style="fill:#343536"/><polygon points="89.08 202.76 93.89 199.89 89.7 201.62 89.08 202.76" style="fill:#343536"/><polygon points="105.67 195.76 106.06 195.21 101.41 196.03 105.67 195.76" style="fill:#343536"/><polygon points="101.86 195.48 105.53 193.67 104.78 193.41 101.86 195.48" style="fill:#343536"/><polygon points="99.98 189.61 99.77 189.01 97.84 193.1 99.98 189.61" style="fill:#343536"/><polygon points="97.66 192.45 98.29 188.58 97.67 189.04 97.66 192.45" style="fill:#343536"/><path d="M212.38,201.14c-1.3,2-2.46,4.11-3.65,6.17,1.64,1.75,3.22,3.56,4.75,5.41a47.86,47.86,0,0,0-6.85-2A20.24,20.24,0,0,1,203,215c-.16-1.29-.35-3.13-.6-5.18-2.08-.42-3.91-.79-5.1-1.13a15.49,15.49,0,0,1,4.54-3,47.87,47.87,0,0,0-1.42-6.57c1.8,1.6,3.54,3.24,5.24,4.94A65.18,65.18,0,0,0,212.38,201.14Z" style="fill:#1183c6"/></g></svg>