<svg xmlns="http://www.w3.org/2000/svg" xmlns:xlink="http://www.w3.org/1999/xlink" viewBox="0 0 260 260"><defs><clipPath id="a"><rect y="-0.6" width="260" height="260" style="fill:none"/></clipPath><radialGradient id="b" cx="-8630.38" cy="7564.68" r="18.06" gradientTransform="matrix(-0.52, -0.86, 0.86, -0.52, -10783.14, -3441.2)" gradientUnits="userSpaceOnUse"><stop offset="0.11" stop-color="#fce92e"/><stop offset="0.75" stop-color="#f5b75d"/></radialGradient></defs><title>icon</title><g style="clip-path:url(#a)"><path d="M207.39,119.8c-.46,1.88-.78,3.86-1.13,5.77q2.61,1.37,5.16,2.88a40.6,40.6,0,0,0-5.84.35,16.5,16.5,0,0,1-1.65,4.31c-.47-1-1.12-2.32-1.87-3.84-1.73.25-3.25.47-4.26.53a12.53,12.53,0,0,1,2.69-3.55,37.69,37.69,0,0,0-2.9-4.69c1.83.74,3.63,1.54,5.41,2.38A56,56,0,0,0,207.39,119.8Z" style="fill:#f37024"/><path d="M35.36,195a9.3,9.3,0,0,0,2.2,3.51c-3,.78-4.94.68-6.2,0-2.91-1.62-2.41-3.89-1.81-7.34a26,26,0,0,0,4.73,2.43,47.86,47.86,0,0,1-4.49-3.9c.05-.35.09-.7.14-1.06l-.44.77c-1.81-1.83-3.42-3.79-3.41-5,.05-3.29,3.74-4.32,7.41-5.86,0,.14,0,.28,0,.43.13-.2.25-.4.37-.6.64-.28,1.28-.57,1.89-.9-.52.14-1.07.27-1.62.39,1-2,1.64-4.22,4.22-4.38a9,9,0,0,1,4.91,1.44c-.84.28-1.66.64-2.41,1,.08,0,6.33-.9,7.3,2.17a17.44,17.44,0,0,1,.56,3.74,13.93,13.93,0,0,0-1.29-.62,7.69,7.69,0,0,1,1.3.75,6.56,6.56,0,0,1-.08,1.52,8.57,8.57,0,0,0,.35-1.31,3.9,3.9,0,0,1,1.49,3.66,16.81,16.81,0,0,1-2.17,5c0-.14-.08-.28-.13-.42a4.41,4.41,0,0,1,0,.7c-.2.32-.4.61-.57.85.18-.23.37-.45.54-.66-.34,2.08-1.91,5.36-4.18,6.25C41.09,198.62,39,197.56,35.36,195Z" style="fill:#fff"/><path d="M28.5,190.76c-2.14,4.55-1.53,8,1.81,10.12a4.57,4.57,0,0,0,2.28.71,9.26,9.26,0,0,0,5.66-2.16,7.67,7.67,0,0,0,4.27,1.5,7.26,7.26,0,0,0,2.87-.43c2.52-.94,4.47-4.83,3.27-9.51,1.84-2.32,2.65-3.91,2.77-5.48a3.82,3.82,0,0,0-2.1-3.67c.18-1.11.49-4.13-1-6.21a3.2,3.2,0,0,0-2.57-1.37,6.3,6.3,0,0,0-1.44.14c-2.33-3-4.7-4.5-7.23-4.61h-.7a3.14,3.14,0,0,0-2.24,1c-1.2,1.38-1.15,3.88-.93,7-.88.17-1.78.31-2.64.45-4.37.71-8.49,1.37-8.48,4.61C22.09,185.06,24.48,188,28.5,190.76Zm-2.17-6.35c0-2.72,2.75-3.82,5.9-5.09l1.05-.43.06.79.39-.58c.12-.17.23-.36.34-.54.52-.23,1.19-.53,1.83-.88l1.88-1-2.05.56c-.37.1-.73.19-1.11.27.08-.15.15-.31.22-.46.81-1.71,1.51-3.19,3.56-3.32h.66a8.6,8.6,0,0,1,3.63,1.16c-.6.22-1.19.47-1.72.69l-.71.31.54.22h.3a17.54,17.54,0,0,1,2.49-.08c1.71.08,3.86.5,4.37,2.09a17.39,17.39,0,0,1,.52,3.25q-.45-.23-.93-.42l-.19.45a7.58,7.58,0,0,1,1.16.65,6.08,6.08,0,0,1-.07,1.34l-1,4.3,1.5-4.16a9.65,9.65,0,0,0,.27-.94,3.63,3.63,0,0,1,1.09,3.17,15.3,15.3,0,0,1-1.86,4.42l-.51-1.54.07,1.73a5.4,5.4,0,0,1,0,.66c-.17.22-.36.5-.53.73l.32.25c-.53,1.93-1.92,4.51-3.85,5.26a5.7,5.7,0,0,1-2.33.43c-1.72-.07-3.39-1-6-2.87l-.63-.44.26.72a9.58,9.58,0,0,0,2,3.3,12.68,12.68,0,0,1-3.48.42,4.68,4.68,0,0,1-2.13-.53c-2.66-1.49-2.33-3.46-1.76-6.73a26.52,26.52,0,0,0,4.48,2.26l1.74.64-1.52-1.07A47.94,47.94,0,0,1,30,189.6c.05-.31.09-.62.13-.94l.15-1.19L29.44,189C27.42,186.94,26.32,185.31,26.33,184.41Z" style="fill:#323535"/><path d="M47.61,191.9a5.49,5.49,0,0,1-.4.46Z" style="fill:#323535"/><path d="M47.46,181.16l-1-.38C46.7,180.86,47.05,181,47.46,181.16Z" style="fill:#323535"/><path d="M46.15,180.67l.31.11A1.33,1.33,0,0,1,46.15,180.67Z" style="fill:#323535"/><polygon points="39.59 196.1 68.02 174.45 68.13 173.79 33.24 181.54 39.59 196.1" style="fill:#fff"/><polygon points="59.81 178.3 37.4 188.73 40.26 189.12 59.81 178.3" style="fill:#323535"/><polygon points="62.47 174.97 46.56 179.14 45 178.93 62.47 174.97" style="fill:#323535"/><polygon points="64.64 174.99 42.66 183.88 40.16 183.36 64.64 174.99" style="fill:#323535"/><polygon points="45.91 189.8 43.76 193.38 69.78 173.02 45.91 189.8" style="fill:#323535"/><polygon points="65.17 176.57 46.07 190.21 44.74 192.43 65.17 176.57" style="fill:#fff"/><path d="M67.15,54.76a3.92,3.92,0,0,1-.93.26l0,0a5.29,5.29,0,0,0,1.34,1.34,7.13,7.13,0,0,0,1,.58,5,5,0,0,0,1.2.41,4.59,4.59,0,0,0,1.34.1,5.28,5.28,0,0,0,1.32-.3l.14-.06a4,4,0,0,0,.51-.24c.17-.09.33-.19.49-.29a6.12,6.12,0,0,0,.9-.76,6.35,6.35,0,0,0,.65-.8,4.56,4.56,0,0,0,.34-.58,4.77,4.77,0,0,1-.7-.19,5.51,5.51,0,0,1-.91-.41,5.73,5.73,0,0,1-.68-.45,4.8,4.8,0,0,1-.45-.41c-.19-.2-.3-.33-.33-.37l.31-.77a5.12,5.12,0,0,1-.93.52,5.31,5.31,0,0,1-2,.41,4.79,4.79,0,0,1-1.09-.12l-.25,1.22-.08.07c-.06,0-.13.12-.24.2a4.06,4.06,0,0,1-.43.28A4.9,4.9,0,0,1,67.15,54.76Z" style="fill:#fff"/><path d="M73.43,37.79h-.07l0,0-.1-.2c-.08-.13-.16-.25-.25-.37a3.93,3.93,0,0,0-3.36-1.56,3.6,3.6,0,0,0-1.85.7,3.92,3.92,0,0,0-1.18,1.43,3.32,3.32,0,0,0-.3.83l0,.22v.11s0,.06,0,.08l-.13,0L66,39l-.13,0a1.07,1.07,0,0,0-.25,0,3.53,3.53,0,0,0-1,0,3.62,3.62,0,0,0-1.63.72,3.26,3.26,0,0,0-1,1.22,3.42,3.42,0,0,0-.31,1.26,3.51,3.51,0,0,0,.35,1.75,3.16,3.16,0,0,0,.23.41l.06.08,0-.09a2.08,2.08,0,0,1-.2-.42A3.28,3.28,0,0,1,62,42.16,3.45,3.45,0,0,1,62.34,41a3,3,0,0,1,.94-1,3.35,3.35,0,0,1,2.3-.52l.21,0,.16,0,.09,0,.37.14.43.18,0-.71c0-.06,0-.11,0-.17l0-.1,0-.17a3,3,0,0,1,.27-.68,3.36,3.36,0,0,1,1-1.13,2.76,2.76,0,0,1,1.47-.53,3,3,0,0,1,1.59.35,3.06,3.06,0,0,1,1.07.91c.07.1.14.19.2.29l.08.15s0,.08.06.14l.15.35s0,.07,0,.07H73l.32,0,.3,0h.17a4,4,0,0,1,2.52.76,4.16,4.16,0,0,1,1.51,1.87A3.8,3.8,0,0,1,78,43.31a4.41,4.41,0,0,1-.7,1.68,4.22,4.22,0,0,1-.81.93l-.12.1-.21.15a4.17,4.17,0,0,1-.56.33l-.29.13.3-.1a4.51,4.51,0,0,0,.63-.27l.21-.11.15-.1a4.66,4.66,0,0,0,1-.87,4.84,4.84,0,0,0,.92-1.75,4.27,4.27,0,0,0,0-2.45,4.54,4.54,0,0,0-.63-1.24,5,5,0,0,0-4-2h-.29Zm-5-4.2a5.59,5.59,0,0,1,.93-.51,5.48,5.48,0,0,1,1.5-.38,5.15,5.15,0,0,1,1.86.1,5.81,5.81,0,0,1,1.7.72,6.16,6.16,0,0,1,1.19,1,6.05,6.05,0,0,1,.65.84c.11.19.18.31.19.34s0-.16-.13-.37a3.36,3.36,0,0,0-.18-.43,3.23,3.23,0,0,0-.32-.55,5,5,0,0,0-1.13-1.19,5,5,0,0,0-.85-.51,5.2,5.2,0,0,0-1-.33,5.15,5.15,0,0,0-3.56.61,6.08,6.08,0,0,0-.88.65l-.27.27Zm-.35,20.48a4.58,4.58,0,0,1-1.09.26,6,6,0,0,1-.76,0l-.46,0h-.08l-.3-.05a5.33,5.33,0,0,1-1.77-.61,4.94,4.94,0,0,1-1.41-1.26,3.93,3.93,0,0,1-.39-.58,1,1,0,0,1-.08-.14.41.41,0,0,1,0-.09,5.1,5.1,0,0,1-.27-.6,4.75,4.75,0,0,1-.25-1.09c0-.14,0-.25,0-.32a.87.87,0,0,1,0-.11.45.45,0,0,1,0,.11c0,.07,0,.18,0,.31a4.48,4.48,0,0,0,0,1.18l0,.25c-.13-.07-.27-.14-.41-.23a8.67,8.67,0,0,1-.92-.68,8,8,0,0,1-.89-.94,7.06,7.06,0,0,1-.77-1.18,7.79,7.79,0,0,1-.53-1.4,6.35,6.35,0,0,1-.17-1.48A7.18,7.18,0,0,1,57.59,44,7.6,7.6,0,0,1,58,42.77a8.07,8.07,0,0,1,.52-1,5.55,5.55,0,0,1,.49-.67c0,.17.06.33.1.49a8.68,8.68,0,0,0,.61,1.65,9.07,9.07,0,0,0,.8,1.28,8.67,8.67,0,0,0,.82.92c.27.25.52.44.72.6s.37.25.47.33l.16.1-.14-.12a5.1,5.1,0,0,1-.43-.38l-.29-.3c-.11-.11-.21-.25-.32-.38a7.71,7.71,0,0,1-.68-1A9.54,9.54,0,0,1,60.15,43a11.16,11.16,0,0,1-.45-1.57c-.05-.32-.1-.66-.13-1a.34.34,0,0,1,0-.1,5,5,0,0,1,0-.67,9,9,0,0,1,.26-1.89A8.58,8.58,0,0,1,60.53,36a8.84,8.84,0,0,1,1-1.46,8.4,8.4,0,0,1,1.2-1.13A9.31,9.31,0,0,1,64,32.64a8.09,8.09,0,0,1,.8-.38,2.67,2.67,0,0,1,.26-.09l0,0,.65-.2.22-.05a5.36,5.36,0,0,1,.57-.1l.16,0h-.16c-.13,0-.33,0-.59.05h-.14a6.34,6.34,0,0,1,.62-.94,5.73,5.73,0,0,1,2.87-2.08,5.74,5.74,0,0,1,1.12-.28,7.86,7.86,0,0,1,1.06-.07h.07l-.23.3a3.4,3.4,0,0,0-.29.48,3.16,3.16,0,0,0-.14.32.49.49,0,0,0,0,.11l.06-.1a3.43,3.43,0,0,1,.19-.29c.1-.12.21-.26.36-.41a4,4,0,0,1,.48-.39l.08-.06a3.64,3.64,0,0,1,.59-.33l.15-.07a4.84,4.84,0,0,1,.91-.27,3.86,3.86,0,0,1,1-.05,3.18,3.18,0,0,1,1,.22,4.59,4.59,0,0,1,1.64,1.21,5,5,0,0,1,.9,1.48c0,.08.05.15.08.22l.09.32,0,.14a2.21,2.21,0,0,1,.07.53c0,.15,0,.26,0,.35a.55.55,0,0,1,0,.12.64.64,0,0,0,0-.12,3.14,3.14,0,0,0,.1-.34,3.35,3.35,0,0,0,.1-.56h0a6.49,6.49,0,0,1,1.18.59,9.27,9.27,0,0,1,1.2.89A7.83,7.83,0,0,1,82.25,34a8.17,8.17,0,0,1,.85,1.47,7.15,7.15,0,0,1,.47,1.63,6.75,6.75,0,0,1,.1,1.6,9.69,9.69,0,0,1-.18,1.47,9.09,9.09,0,0,1-.38,1.24,8.92,8.92,0,0,1-.42.92,1.26,1.26,0,0,1-.13.23,4.84,4.84,0,0,1-.35.55,3.13,3.13,0,0,1-.34.42l-.12.14.15-.11c.09-.08.25-.18.42-.34a2.56,2.56,0,0,1,.29-.27l.15-.16A4,4,0,0,1,83.44,44a4.3,4.3,0,0,1,.08,2.09,5.1,5.1,0,0,1-.6,1.64,3.62,3.62,0,0,1-.2.33l-.1.15a6.71,6.71,0,0,1-1.08,1.19c-.2.18-.4.34-.57.47a2.73,2.73,0,0,0-.43-.81,1.86,1.86,0,0,0-.26-.28l-.07-.07.06.08a1.83,1.83,0,0,1,.2.32,2.82,2.82,0,0,1,.25.94.41.41,0,0,0,0,.11,1.93,1.93,0,0,1,0,.24,2.6,2.6,0,0,1-.13.71,2.78,2.78,0,0,1-.3.69c-.08.1-.15.21-.24.31a4.48,4.48,0,0,1-1.82,1.31,6.91,6.91,0,0,1-.77.25l-.37.08c-.12,0-.24,0-.36.06a6.56,6.56,0,0,1-.76,0h-.2a5.54,5.54,0,0,1-.83-.1,6.62,6.62,0,0,1-.88-.23c-.27-.1-.5-.2-.71-.3l-.51-.28a3.17,3.17,0,0,1-.31-.21l-.1-.07.31-.77c.16-.12.31-.23.44-.35a4.35,4.35,0,0,0,.43-.43l.3-.36.22-.32-.28.27a5,5,0,0,1-.84.61,7.11,7.11,0,0,1-1.38.63,5.87,5.87,0,0,1-1.79.33A6.22,6.22,0,0,1,68,52a5.73,5.73,0,0,1-2.25-1.22l-.28-.26.24.3a5.06,5.06,0,0,0,.77.74,5.79,5.79,0,0,0,1.39.82,5.53,5.53,0,0,0,.87.27l-.25,1.22-.09,0Zm.79-6.22a2.75,2.75,0,0,0,.57-.11,2.21,2.21,0,0,0,.41-.13l.32-.16-.34.07c-.12,0-.25,0-.41,0a3.49,3.49,0,0,1-.53,0,3.11,3.11,0,0,1-.6-.18A3.75,3.75,0,0,1,67.7,47a3.45,3.45,0,0,1-1.12-1.07,3.55,3.55,0,0,1-.34-.71,2.81,2.81,0,0,1-.13-.74,1.82,1.82,0,0,1,.4-1.19,1.72,1.72,0,0,1,.75-.51,1.37,1.37,0,0,1,.34-.06h-.09l-.27,0a1.67,1.67,0,0,0-.94.38,2.05,2.05,0,0,0-.75,1.37,2.92,2.92,0,0,0,.4,1.89,3.21,3.21,0,0,0,1.47,1.24,3,3,0,0,0,.79.24A4.53,4.53,0,0,0,68.92,47.85Z" style="fill:#fff"/><path d="M71.81,52.39a5.12,5.12,0,0,0,.93-.52c.16-.12.31-.23.44-.35a4.35,4.35,0,0,0,.43-.43l.3-.36.22-.32-.28.27a5,5,0,0,1-.84.61,7.11,7.11,0,0,1-1.38.63,5.87,5.87,0,0,1-1.79.33A6.22,6.22,0,0,1,68,52a5.73,5.73,0,0,1-2.25-1.22l-.28-.26.24.3a5.06,5.06,0,0,0,.77.74,5.79,5.79,0,0,0,1.39.82,5.53,5.53,0,0,0,.87.27,4.79,4.79,0,0,0,1.09.12A5.31,5.31,0,0,0,71.81,52.39Z" style="fill:#343536"/><path d="M67.24,42.69a1.67,1.67,0,0,0-.94.38,2.05,2.05,0,0,0-.75,1.37,2.92,2.92,0,0,0,.4,1.89,3.21,3.21,0,0,0,1.47,1.24,3,3,0,0,0,.79.24,4.53,4.53,0,0,0,.71,0,2.75,2.75,0,0,0,.57-.11,2.21,2.21,0,0,0,.41-.13l.32-.16-.34.07c-.12,0-.25,0-.41,0a3.49,3.49,0,0,1-.53,0,3.11,3.11,0,0,1-.6-.18A3.75,3.75,0,0,1,67.7,47a3.45,3.45,0,0,1-1.12-1.07,3.55,3.55,0,0,1-.34-.71,2.81,2.81,0,0,1-.13-.74,1.82,1.82,0,0,1,.4-1.19,1.72,1.72,0,0,1,.75-.51,1.37,1.37,0,0,1,.34-.06h-.09Z" style="fill:#343536"/><path d="M73.72,37.77h-.36l0,0-.1-.2c-.08-.13-.16-.25-.25-.37a3.93,3.93,0,0,0-3.36-1.56,3.6,3.6,0,0,0-1.85.7,3.92,3.92,0,0,0-1.18,1.43,3.32,3.32,0,0,0-.3.83l0,.22v.11s0,.06,0,.08l-.13,0L66,39l-.13,0a1.07,1.07,0,0,0-.25,0,3.53,3.53,0,0,0-1,0,3.62,3.62,0,0,0-1.63.72,3.26,3.26,0,0,0-1,1.22,3.42,3.42,0,0,0-.31,1.26,3.51,3.51,0,0,0,.35,1.75,3.16,3.16,0,0,0,.23.41l.06.08,0-.09a2.08,2.08,0,0,1-.2-.42A3.28,3.28,0,0,1,62,42.16,3.45,3.45,0,0,1,62.34,41a3,3,0,0,1,.94-1,3.35,3.35,0,0,1,2.3-.52l.21,0,.16,0,.09,0,.37.14.43.18,0-.71c0-.06,0-.11,0-.17l0-.1,0-.17a3,3,0,0,1,.27-.68,3.36,3.36,0,0,1,1-1.13,2.76,2.76,0,0,1,1.47-.53,3,3,0,0,1,1.59.35,3.06,3.06,0,0,1,1.07.91c.07.1.14.19.2.29l.08.15s0,.08.06.14l.15.35s0,.07,0,.07H73l.32,0,.3,0h.17a4,4,0,0,1,2.52.76,4.16,4.16,0,0,1,1.51,1.87A3.8,3.8,0,0,1,78,43.31a4.41,4.41,0,0,1-.7,1.68,4.22,4.22,0,0,1-.81.93l-.12.1-.21.15a4.17,4.17,0,0,1-.56.33l-.29.13.3-.1a4.51,4.51,0,0,0,.63-.27l.21-.11.15-.1a4.66,4.66,0,0,0,1-.87,4.84,4.84,0,0,0,.92-1.75,4.27,4.27,0,0,0,0-2.45,4.54,4.54,0,0,0-.63-1.24,5,5,0,0,0-4-2Z" style="fill:#343536"/><path d="M82.27,64.12C80.75,62.85,79,61.4,77,59.89c-1.15-.9-2.25-1.74-3.29-2.52l.28-.22a5.5,5.5,0,0,0,1.5-1.91,4.67,4.67,0,0,0,.27-.72l.14,0a5.25,5.25,0,0,0,1.48,0l.55.59c2.29,2.46,4.43,4.69,6.18,6.45l.33-.32c-1.64-1.86-3.72-4.13-6-6.57l-.29-.31.43-.14a4.34,4.34,0,0,0,2.08-1.71c0-.05,0-.1.08-.14l.71.93c1.36,1.78,2.66,3.45,3.87,5,.41.52.8,1,1.19,1.48l.3-.19.18-.1c-.37-.51-.76-1-1.17-1.58-1.15-1.55-2.44-3.24-3.81-5-.33-.43-.65-.84-1-1.24a2.44,2.44,0,0,0,.06-.26,3.18,3.18,0,0,0,0-1A1.81,1.81,0,0,0,81,50l0-.16a2.73,2.73,0,0,0-.43-.81,1.86,1.86,0,0,0-.26-.28l-.07-.07.06.08a1.83,1.83,0,0,1,.2.32,2.82,2.82,0,0,1,.25.94.41.41,0,0,0,0,.11,1.93,1.93,0,0,1,0,.24,2.6,2.6,0,0,1-.13.71,2.78,2.78,0,0,1-.3.69c-.08.1-.15.21-.24.31a4.48,4.48,0,0,1-1.82,1.31,6.91,6.91,0,0,1-.77.25l-.37.08c-.12,0-.24,0-.36.06a6.56,6.56,0,0,1-.76,0h-.2a5.54,5.54,0,0,1-.83-.1,6.62,6.62,0,0,1-.88-.23c-.27-.1-.5-.2-.71-.3l-.51-.28a3.17,3.17,0,0,1-.31-.21l-.1-.07s.14.17.33.37a4.8,4.8,0,0,0,.45.41,5.73,5.73,0,0,0,.68.45,5.51,5.51,0,0,0,.91.41,4.77,4.77,0,0,0,.7.19,4.56,4.56,0,0,1-.34.58,6.35,6.35,0,0,1-.65.8,6.12,6.12,0,0,1-.9.76c-.16.1-.32.2-.49.29a4,4,0,0,1-.51.24l-.14.06a5.28,5.28,0,0,1-1.32.3,4.59,4.59,0,0,1-1.34-.1,5,5,0,0,1-1.2-.41,7.13,7.13,0,0,1-1-.58,5.29,5.29,0,0,1-1.34-1.34l0,0a3.92,3.92,0,0,0,.93-.26,4.9,4.9,0,0,0,.61-.31,4.06,4.06,0,0,0,.43-.28c.11-.08.18-.16.24-.2l.08-.07-.09,0-.29.13a4.58,4.58,0,0,1-1.09.26,6,6,0,0,1-.76,0l-.46,0h-.08l-.3-.05a5.33,5.33,0,0,1-1.77-.61,4.94,4.94,0,0,1-1.41-1.26,3.93,3.93,0,0,1-.39-.58,1,1,0,0,1-.08-.14.41.41,0,0,1,0-.09,5.1,5.1,0,0,1-.27-.6,4.75,4.75,0,0,1-.25-1.09c0-.14,0-.25,0-.32a.87.87,0,0,1,0-.11.45.45,0,0,1,0,.11c0,.07,0,.18,0,.31a4.48,4.48,0,0,0,0,1.18l0,.25c-.13-.07-.27-.14-.41-.23a8.67,8.67,0,0,1-.92-.68,8,8,0,0,1-.89-.94,7.06,7.06,0,0,1-.77-1.18,7.79,7.79,0,0,1-.53-1.4,6.35,6.35,0,0,1-.17-1.48A7.18,7.18,0,0,1,57.59,44,7.6,7.6,0,0,1,58,42.77a8.07,8.07,0,0,1,.52-1,5.55,5.55,0,0,1,.49-.67c0,.17.06.33.1.49a8.68,8.68,0,0,0,.61,1.65,9.07,9.07,0,0,0,.8,1.28,8.67,8.67,0,0,0,.82.92c.27.25.52.44.72.6s.37.25.47.33l.16.1-.14-.12a5.1,5.1,0,0,1-.43-.38l-.29-.3c-.11-.11-.21-.25-.32-.38a7.71,7.71,0,0,1-.68-1A9.54,9.54,0,0,1,60.15,43a11.16,11.16,0,0,1-.45-1.57c-.05-.32-.1-.66-.13-1a.34.34,0,0,1,0-.1,5,5,0,0,1,0-.67,9,9,0,0,1,.26-1.89A8.58,8.58,0,0,1,60.53,36a8.84,8.84,0,0,1,1-1.46,8.4,8.4,0,0,1,1.2-1.13A9.31,9.31,0,0,1,64,32.64a8.09,8.09,0,0,1,.8-.38l0-.21a8.81,8.81,0,0,0-.9.31,9.56,9.56,0,0,0-1.33.7,9.41,9.41,0,0,0-1.36,1.09,7.64,7.64,0,0,0-1.21,1.51,7.49,7.49,0,0,0-.84,1.91,7.94,7.94,0,0,0-.28,2.08,6.34,6.34,0,0,0,.09,1.16l0,0a5.91,5.91,0,0,0-.7.71,6.76,6.76,0,0,0-.71,1,7.38,7.38,0,0,0-.57,1.3,6,6,0,0,0-.3,1.56,6.42,6.42,0,0,0,.14,1.73,6.11,6.11,0,0,0,.65,1.6,6.48,6.48,0,0,0,1,1.26,6.51,6.51,0,0,0,2.19,1.47l.66.23a4.74,4.74,0,0,0,.44,1.11,4.39,4.39,0,0,0,2.63,2.12,4.71,4.71,0,0,0,1.08.16,3.84,3.84,0,0,0,.59,0l.06.14a5.52,5.52,0,0,0,.44.81,7.89,7.89,0,0,0,.73.88,6.35,6.35,0,0,0,1.06.79,5.28,5.28,0,0,0,1.38.53,5.56,5.56,0,0,0,1.59.11,5.13,5.13,0,0,0,1.54-.4,3.23,3.23,0,0,0,.49-.25c1,.86,2.18,1.78,3.36,2.72,2,1.58,3.83,3,5.44,4.21C82.12,64.43,82.2,64.27,82.27,64.12Z" style="fill:#343536"/><path d="M73.89,32.63a5.2,5.2,0,0,0-1-.33,5.15,5.15,0,0,0-3.56.61,6.08,6.08,0,0,0-.88.65l-.27.27.31-.24a5.59,5.59,0,0,1,.93-.51,5.48,5.48,0,0,1,1.5-.38,5.15,5.15,0,0,1,1.86.1,5.81,5.81,0,0,1,1.7.72,6.16,6.16,0,0,1,1.19,1,6.05,6.05,0,0,1,.65.84c.11.19.18.31.19.34s0-.16-.13-.37a3.36,3.36,0,0,0-.18-.43,3.23,3.23,0,0,0-.32-.55,5,5,0,0,0-1.13-1.19A5,5,0,0,0,73.89,32.63Z" style="fill:#343536"/><path d="M88.86,58.78l.35-.08c-1.29-2.38-3-5.4-4.91-8.65l-1.06-1.81a4.89,4.89,0,0,0,.91-2,4.14,4.14,0,0,0-.25-2.39,3.7,3.7,0,0,0-.92-1.3,6.1,6.1,0,0,0,.66-.88,7.27,7.27,0,0,0,.63-1.28,7.39,7.39,0,0,0,.41-3.46A7.72,7.72,0,0,0,84.15,35a6.42,6.42,0,0,0-1.09-1.67,7.37,7.37,0,0,0-1.37-1.22,8.24,8.24,0,0,0-1.46-.77,9.31,9.31,0,0,0-1.35-.38l-.11,0c0-.13,0-.26,0-.4a4.38,4.38,0,0,0-.21-.93,4.54,4.54,0,0,0-.5-1,4.05,4.05,0,0,0-.86-.9,3.76,3.76,0,0,0-1.2-.6,4.69,4.69,0,0,0-1.32-.17,4.56,4.56,0,0,0-1.19.22,5.14,5.14,0,0,0-1,.47l-.42.3a5.61,5.61,0,0,0-1.76-.23,5.69,5.69,0,0,0-1.33.19,5.44,5.44,0,0,0-1.35.56,5.5,5.5,0,0,0-1.15.91,5,5,0,0,0-.8,1.08,5.82,5.82,0,0,0-.49,1.1,3.81,3.81,0,0,0-.13.45H65l-.27.07,0,.21a1.34,1.34,0,0,1,.26-.09l0,0,.65-.2.22-.05a5.36,5.36,0,0,1,.57-.1l.16,0h-.16c-.13,0-.33,0-.59.05h-.14a6.34,6.34,0,0,1,.62-.94,5.73,5.73,0,0,1,2.87-2.08,5.74,5.74,0,0,1,1.12-.28,7.86,7.86,0,0,1,1.06-.07h.07l-.23.3a3.4,3.4,0,0,0-.29.48,3.16,3.16,0,0,0-.14.32.49.49,0,0,0,0,.11l.06-.1a3.43,3.43,0,0,1,.19-.29c.1-.12.21-.26.36-.41a4,4,0,0,1,.48-.39l.08-.06a3.64,3.64,0,0,1,.59-.33l.15-.07a4.84,4.84,0,0,1,.91-.27,4.34,4.34,0,0,1,1-.06,3.47,3.47,0,0,1,1,.23,4.59,4.59,0,0,1,1.64,1.21,5,5,0,0,1,.9,1.48c0,.08.05.15.08.22l.09.32,0,.14a2.21,2.21,0,0,1,.07.53c0,.15,0,.26,0,.35a.55.55,0,0,1,0,.12.64.64,0,0,0,0-.12,3.14,3.14,0,0,0,.1-.34,3.35,3.35,0,0,0,.1-.56h0a6.49,6.49,0,0,1,1.18.59,9.27,9.27,0,0,1,1.2.89A7.83,7.83,0,0,1,82.25,34a8.17,8.17,0,0,1,.85,1.47,7.15,7.15,0,0,1,.47,1.63,6.75,6.75,0,0,1,.1,1.6,9.69,9.69,0,0,1-.18,1.47,9.09,9.09,0,0,1-.38,1.24,8.92,8.92,0,0,1-.42.92,1.26,1.26,0,0,1-.13.23,4.84,4.84,0,0,1-.35.55,3.13,3.13,0,0,1-.34.42l-.12.14.15-.11c.09-.08.25-.18.42-.34a2.56,2.56,0,0,1,.29-.27l.15-.16A4,4,0,0,1,83.44,44a4.3,4.3,0,0,1,.08,2.09,5.1,5.1,0,0,1-.6,1.64,2.63,2.63,0,0,1-.2.33l-.1.15a6.71,6.71,0,0,1-1.08,1.19c-.2.18-.4.34-.57.47L81,50a7.59,7.59,0,0,0,.7-.39,5.24,5.24,0,0,0,1.16-1c.31.55.63,1.1,1,1.66C85.7,53.55,87.47,56.48,88.86,58.78Z" style="fill:#343536"/><polygon points="233.9 140.62 188.79 136.07 233.43 148.6 233.9 140.62" style="fill:#72cff5"/><polygon points="188.79 136.07 233.43 148.6 233.9 140.62 188.79 136.07 188.79 136.07" style="fill:#00bbed"/><path d="M225.41,153.19l5.51-9.31-3.74-10.14,10.55,2.35,8.5-6.68,1,10.76,9,6-9.92,4.29-2.94,10.4-7.15-8.11Z" style="fill:#00bbed"/><polygon points="241.18 152.56 243.14 147.42 248.36 145.69 243.5 142.67 244.05 136.74 239.44 139.75 234.2 138.07 235.63 143.39 232.43 147.85 237.92 148.13 241.18 152.56" style="fill:#fff"/><polygon points="37.89 109.97 82.16 119.8 39.3 102.1 37.89 109.97" style="fill:#72cff5"/><polygon points="39.3 102.1 37.89 109.97 82.16 119.8 39.3 102.1 39.3 102.1" style="fill:#00bbed"/><path d="M47.8,98.49l-6.56,8.59,2.51,10.51L33.55,114l-9.22,5.63.26-10.8-8.22-7,10.36-3.09,4.14-10L37,97.63Z" style="fill:#00bbed"/><polygon points="32.07 97.25 29.52 102.13 24.13 103.23 28.6 106.81 27.36 112.63 32.29 110.19 37.3 112.46 36.5 107.02 40.21 102.96 34.79 102.03 32.07 97.25" style="fill:#fff"/><polygon points="150 50.33 152.76 46.05 150.75 41.37 155.65 42.66 159.54 39.32 159.85 44.43 164.2 47.06 159.45 48.92 158.28 53.89 155.09 49.94 150 50.33" style="fill:url(#b)"/><path d="M159.81,38.78l.31,5.51,4.71,2.83-5.13,2-1.26,5.38L155,50.2l-5.49.47,3-4.67-2.17-5,5.31,1.4Zm-.18,5.76,0-.1-.25-4.58-3.56,3.08-4.57-1.16L153,46.1l-2.53,4,4.69-.41,3,3.65,1.1-4.57L163.61,47Z" style="fill:#262625"/><path d="M177.62,115.79c1.16.31,2.37.54,3.54.79.59-1.06,1.21-2.1,1.86-3.13a23.59,23.59,0,0,0,.12,3.6,10.29,10.29,0,0,1,2.62,1.08l-2.39,1.1c.12,1.07.23,2,.25,2.63a8,8,0,0,1-2.14-1.72,24.42,24.42,0,0,0-2.93,1.71c.48-1.11,1-2.21,1.55-3.29A33.2,33.2,0,0,0,177.62,115.79Z" style="fill:#fdcc25"/><path d="M83.4,212c-.26,1.16-.43,2.38-.62,3.57,1.09.53,2.16,1.1,3.21,1.7a24.92,24.92,0,0,0-3.59.3,10.06,10.06,0,0,1-1,2.67l-1.2-2.34c-1.06.18-2,.33-2.61.38a7.56,7.56,0,0,1,1.61-2.22,23.47,23.47,0,0,0-1.85-2.85c1.13.43,2.25.9,3.36,1.4A34.47,34.47,0,0,0,83.4,212Z" style="fill:#fdcc25"/><path d="M201.77,59.13a7.9,7.9,0,0,0-2.65-2.48c2.35-1.34,4-1.69,5.25-1.38,2.84.72,2.93,2.75,3.2,5.8a23.36,23.36,0,0,0-4.55-1,42.8,42.8,0,0,1,4.69,2.29c0,.3.07.61.11.93,0-.11.12-.42.2-.75C210,63.69,211.78,65,212,66c.7,2.8-2.19,4.5-4.95,6.64,0-.12-.08-.23-.13-.35-.06.19-.12.39-.17.59-.48.38-1,.77-1.41,1.19q.63-.36,1.29-.69c-.43,2-.43,3.94-2.58,4.66A7.82,7.82,0,0,1,199.6,78c.65-.43,1.27-.92,1.82-1.35-.06,0-5.15,2.19-6.67-.19a15.62,15.62,0,0,1-1.32-3,12.34,12.34,0,0,0,1.24.23,6.12,6.12,0,0,1-1.27-.33,5.54,5.54,0,0,1-.29-1.31,7.86,7.86,0,0,0,0,1.19A3.44,3.44,0,0,1,191,70.38a14.93,14.93,0,0,1,.71-4.72l.21.33a3,3,0,0,1-.13-.6c.1-.32.2-.61.3-.85-.11.24-.22.47-.31.69-.18-1.85.4-5,2.12-6.25C196.11,57.37,198.1,57.8,201.77,59.13Z" style="fill:#fff"/><path d="M208.55,61.18c.78-4.34-.5-7.08-3.82-8.16a4,4,0,0,0-2.09-.09A8.19,8.19,0,0,0,198.33,56a6.84,6.84,0,0,0-4-.31,6.34,6.34,0,0,0-2.34,1c-1.92,1.36-2.7,5.1-.62,8.79-1,2.38-1.35,3.91-1.11,5.27a3.37,3.37,0,0,0,2.62,2.63c.09,1,.52,3.61,2.27,5a2.83,2.83,0,0,0,2.49.57,5.57,5.57,0,0,0,1.18-.44c2.65,2,5,2.75,7.17,2.27a4.36,4.36,0,0,0,.59-.17,2.65,2.65,0,0,0,1.67-1.35c.71-1.44.1-3.55-.79-6.15.71-.34,1.43-.66,2.13-1,3.54-1.58,6.88-3.08,6.14-5.82C215.27,64.56,212.58,62.6,208.55,61.18Zm3.28,4.89c.58,2.31-1.47,3.86-3.85,5.65l-.79.59-.23-.65-.2.58c-.06.18-.11.36-.16.53-.4.32-.89.72-1.36,1.17l-1.36,1.28,1.61-.94c.29-.17.58-.33.88-.48l-.09.44c-.29,1.63-.55,3-2.26,3.61a4.12,4.12,0,0,1-.55.15,7.5,7.5,0,0,1-3.34-.15c.46-.33.9-.67,1.3-1l.53-.42-.51-.06h-.09l-.16,0a15.3,15.3,0,0,1-2.09.63c-1.47.33-3.39.46-4.18-.78a14.71,14.71,0,0,1-1.18-2.64,8.7,8.7,0,0,0,.89.15l.06-.42a6.44,6.44,0,0,1-1.13-.29,5.24,5.24,0,0,1-.25-1.15l-.1-3.88-.32,3.87a7.79,7.79,0,0,0,0,.85,3.16,3.16,0,0,1-1.64-2.43,13.46,13.46,0,0,1,.57-4.17l.78,1.19-.45-1.45a2.75,2.75,0,0,1-.11-.57c.09-.22.19-.5.28-.73l-.33-.15c0-1.75.61-4.25,2.07-5.33a5.16,5.16,0,0,1,1.87-.89c1.48-.32,3.11.11,5.78,1.07l.64.23L202,59a8.63,8.63,0,0,0-2.4-2.35,11,11,0,0,1,2.84-1.14,4.21,4.21,0,0,1,1.93,0c2.59.65,2.76,2.4,3,5.3a22.75,22.75,0,0,0-4.29-.9l-1.63-.15,1.53.56a42.65,42.65,0,0,1,4.57,2.22c0,.27.06.55.1.83l.15,1,.39-1.49C210.33,64.18,211.64,65.3,211.83,66.07Z" style="fill:#323535"/><path d="M192.11,64.54a3.66,3.66,0,0,1,.23-.48Z" style="fill:#323535"/><path d="M194.67,73.6l.93.1C195.37,73.68,195.05,73.66,194.67,73.6Z" style="fill:#323535"/><path d="M195.88,73.72l-.28,0Z" style="fill:#323535"/><polygon points="197.95 59.17 178.76 83.94 178.82 84.53 206.63 70.06 197.95 59.17" style="fill:#fff"/><polygon points="184.85 78.83 201.47 64.91 198.96 65.23 184.85 78.83" style="fill:#323535"/><polygon points="183.35 82.25 195.88 75.11 197.25 74.94 183.35 82.25" style="fill:#323535"/><polygon points="181.5 82.72 198.12 70.22 200.35 70.09 181.5 82.72" style="fill:#323535"/><polygon points="194.02 65.94 195.03 62.41 177.6 85.55 194.02 65.94" style="fill:#323535"/><polygon points="180.7 81.5 193.79 65.63 194.41 63.45 180.7 81.5" style="fill:#fff"/><path d="M72.91,75.31c-.55,1.58-1,3.26-1.43,4.88,1.43.92,2.84,1.89,4.21,2.89a34.24,34.24,0,0,0-5.06-.16,14.27,14.27,0,0,1-1.75,3.59c-.34-.86-.79-2.1-1.32-3.46-1.51.07-2.83.14-3.71.11a10.87,10.87,0,0,1,2.61-2.84A34.12,34.12,0,0,0,64.33,76q2.27,1.18,4.47,2.49A46,46,0,0,0,72.91,75.31Z" style="fill:#fdcc25"/><path d="M74.13,136.9c-.46,1.88-.78,3.85-1.13,5.77q2.61,1.37,5.15,2.88a39.08,39.08,0,0,0-5.83.35,16.5,16.5,0,0,1-1.65,4.31c-.47-1-1.12-2.32-1.88-3.84-1.72.25-3.24.47-4.25.53a12.53,12.53,0,0,1,2.69-3.55,38.61,38.61,0,0,0-2.9-4.7c1.83.75,3.63,1.54,5.41,2.39A56,56,0,0,0,74.13,136.9Z" style="fill:#f37024"/><path d="M207.7,218.8c-1.07.17-2.16.43-3.22.66-.09,1.09-.21,2.19-.37,3.28a20.76,20.76,0,0,0-1.44-2.93,9.74,9.74,0,0,1-2.57.08l1.57-1.8c-.5-.83-.94-1.57-1.18-2.07a7,7,0,0,1,2.4.62,20.45,20.45,0,0,0,1.79-2.51c0,1.11,0,2.2-.06,3.3A30.85,30.85,0,0,0,207.7,218.8Z" style="fill:#f37024"/><path d="M220.06,115.14a3.22,3.22,0,0,0,.58.5l0,0a4,4,0,0,1-.62.29,5.16,5.16,0,0,1-.78.22,6.74,6.74,0,0,1-.92.07,4.92,4.92,0,0,1-1-.11,4.29,4.29,0,0,1-1-.38,4.15,4.15,0,0,1-.84-.66l-.08-.08a3.07,3.07,0,0,1-.28-.35c-.09-.12-.17-.24-.25-.37a4.23,4.23,0,0,1-.39-.84,4.11,4.11,0,0,1-.19-.79c0-.19-.05-.36-.06-.52a4.19,4.19,0,0,0,.57.09,3.46,3.46,0,0,0,.78,0,5.19,5.19,0,0,0,.64-.09,3.92,3.92,0,0,0,.45-.15,1.92,1.92,0,0,0,.36-.15l0-.65a4,4,0,0,0,1.75,1.63,3.51,3.51,0,0,0,.81.27l-.23,1,0,.07s.05.13.1.23.12.21.21.34A5,5,0,0,0,220.06,115.14Z" style="fill:#e96347"/><path d="M221.2,100.93l-.14-.07a3.93,3.93,0,0,0-3.54,0,3.55,3.55,0,0,0-.86.67,3.33,3.33,0,0,0-.84,1.73,3.74,3.74,0,0,0,.07,1.55,3.67,3.67,0,0,0,.4,1l.07.11.11.16a4.27,4.27,0,0,0,.35.4,1.37,1.37,0,0,1,.19.17,2.28,2.28,0,0,0-.16-.19,2.58,2.58,0,0,1-.3-.43l-.09-.17-.06-.11a3.64,3.64,0,0,1-.26-.94,3.46,3.46,0,0,1,.06-1.42,3.11,3.11,0,0,1,.82-1.46,3.4,3.4,0,0,1,1.7-.83,3.26,3.26,0,0,1,2.05.3l.12.07.2.13.21.14.06,0s0,0,0,0l.22-.2.1-.08.11-.08.23-.14a2.58,2.58,0,0,1,1.07-.29,2.42,2.42,0,0,1,1.25.28,2.12,2.12,0,0,1,.86.87,2.55,2.55,0,0,1,.34,1.14,2.66,2.66,0,0,1,0,.57l0,.14,0,.08s0,.08,0,.13l-.21.51h.36l.32,0H226l.12,0,.17.05a2.3,2.3,0,0,1,.6.27,2.53,2.53,0,0,1,.86.86,2.34,2.34,0,0,1,.33,1,2.82,2.82,0,0,1-.11.94,2.69,2.69,0,0,1-.71,1.16,2.92,2.92,0,0,1-.28.23l-.07,0,.07,0a2.4,2.4,0,0,0,.3-.22,2.79,2.79,0,0,0,.84-1.13,3,3,0,0,0,.2-1,2.79,2.79,0,0,0-.28-1.19,3.16,3.16,0,0,0-.92-1.06,3.19,3.19,0,0,0-.69-.35l-.19-.07-.1,0-.07,0-.1,0s0,0,0-.06v0l0-.06,0-.17a3.17,3.17,0,0,0,.07-.69,3.09,3.09,0,0,0-.37-1.41,2.77,2.77,0,0,0-1.08-1.12,3.09,3.09,0,0,0-2.92,0,1.75,1.75,0,0,0-.29.18l-.14.1,0,0h0l-.05,0Zm5.13-1a1.92,1.92,0,0,0-.1-.29,4.06,4.06,0,0,0-.42-.75,3.81,3.81,0,0,0-.88-.94,3.94,3.94,0,0,0-1.44-.69,4.82,4.82,0,0,0-.83-.1,3.19,3.19,0,0,0-.77.08,3.77,3.77,0,0,0-1.21.47,3.64,3.64,0,0,0-.41.28,2.27,2.27,0,0,0-.27.25l-.22.22.25-.17a3.67,3.67,0,0,1,.75-.38,4.42,4.42,0,0,1,1.17-.31,4.48,4.48,0,0,1,1.45.06,4.12,4.12,0,0,1,1.36.54,4.75,4.75,0,0,1,.94.78,3.94,3.94,0,0,1,.49.68A1.71,1.71,0,0,1,226.33,99.91Zm-6.89,14.23-.06-.06.23-1a3.67,3.67,0,0,0,.71.1,4.76,4.76,0,0,0,1.26-.11,4.19,4.19,0,0,0,.8-.28l.27-.13-.29.09a3.59,3.59,0,0,1-.8.16,4.5,4.5,0,0,1-1.2,0,5,5,0,0,1-1.37-.45,4.9,4.9,0,0,1-1.17-.83,5.48,5.48,0,0,1-.77-.91,3.8,3.8,0,0,1-.39-.72c-.07-.16-.1-.26-.11-.28s0,.13,0,.3.05.21.09.35.09.29.17.46a3.44,3.44,0,0,0,.19.39l0,.65-.09,0a1.55,1.55,0,0,1-.29,0,3,3,0,0,1-.46,0c-.18,0-.38,0-.6,0a7.2,7.2,0,0,1-.71-.13,3.78,3.78,0,0,1-.62-.21l-.11,0,0,0a4.41,4.41,0,0,1-.52-.28l-.24-.16-.24-.19a6.17,6.17,0,0,1-.46-.43,3.51,3.51,0,0,1-.86-1.54,1.59,1.59,0,0,1-.06-.3,2.5,2.5,0,0,1,.15-1.14c0-.06,0-.12.08-.17l.05-.08a2,2,0,0,1,.49-.59l.24-.15.07,0-.08,0-.27.12a1.93,1.93,0,0,0-.57.43c-.09-.15-.17-.33-.26-.52a5.79,5.79,0,0,1-.36-1.21.8.8,0,0,1,0-.15,1.39,1.39,0,0,1,0-.3,4,4,0,0,1,.12-1.36,3.39,3.39,0,0,1,.76-1.46,3.06,3.06,0,0,1,.9-.67,1.09,1.09,0,0,0,.05.17,2.93,2.93,0,0,1,.12.28c.07.18.15.3.19.39l.06.13a1.31,1.31,0,0,0,0-.14c0-.1-.07-.23-.1-.41s-.05-.32-.07-.51,0-.14,0-.21a7.25,7.25,0,0,1,0-.8,8.12,8.12,0,0,1,.14-1,8.29,8.29,0,0,1,.36-1.1,6.4,6.4,0,0,1,.61-1.11,6.31,6.31,0,0,1,.88-1,6.56,6.56,0,0,1,1.1-.76,5.55,5.55,0,0,1,1.17-.48,6.48,6.48,0,0,1,1.16-.24,5.12,5.12,0,0,1,1,0h0a4.26,4.26,0,0,0-.12.43,2.3,2.3,0,0,0,0,.28.67.67,0,0,0,0,.1l0-.09a1.19,1.19,0,0,1,.11-.25,2.33,2.33,0,0,1,.23-.36.27.27,0,0,1,.07-.08c.05-.07.11-.13.17-.2l.13-.13a4.06,4.06,0,0,1,1.13-.76,3.72,3.72,0,0,1,1.58-.31,3.37,3.37,0,0,1,.82.19,3.4,3.4,0,0,1,.7.39,3,3,0,0,1,.56.49l.09.1a2.52,2.52,0,0,1,.31.44l0,.06a2.76,2.76,0,0,1,.2.44,2,2,0,0,1,.12.41,2,2,0,0,1,0,.27.62.62,0,0,1,0,.09.62.62,0,0,1,0-.09c0-.07,0-.16,0-.28s0-.27,0-.44a1.57,1.57,0,0,0-.06-.28l0,0a5.27,5.27,0,0,1,.73.4,5.37,5.37,0,0,1,.71.57,6.28,6.28,0,0,1,.62.73,5.38,5.38,0,0,1,.73,1.71,6,6,0,0,1,.12.88l-.1-.06c-.17-.11-.31-.17-.4-.22l-.11-.06.1.07c.09.07.22.14.37.27l.14.11c.12.1.26.22.4.36l0,0,.15.15a6.43,6.43,0,0,1,.45.54,6.61,6.61,0,0,1,.6,1,5.88,5.88,0,0,1,.47,1.2,6.59,6.59,0,0,1,.26,1.39,6.27,6.27,0,0,1-.08,1.49,6.44,6.44,0,0,1-.44,1.43,3.45,3.45,0,0,1-.24.47.25.25,0,0,1,0,.07,6.4,6.4,0,0,1-.43.67,7.37,7.37,0,0,1-.85,1,10.1,10.1,0,0,1-.87.71,7.28,7.28,0,0,1-.82.47,3.52,3.52,0,0,1-.35.16l-.3.12c-.19.07-.34.1-.44.13l-.14,0,.14,0c.11,0,.26,0,.46-.08a6.37,6.37,0,0,0,.7-.19,5.85,5.85,0,0,0,.9-.38,6.4,6.4,0,0,0,1-.64,6.84,6.84,0,0,0,1-1,2.43,2.43,0,0,0,.24-.32,3,3,0,0,1,.12.64,4.42,4.42,0,0,1,0,.9,5.35,5.35,0,0,1-.15,1,6.23,6.23,0,0,1-.38,1,5,5,0,0,1-.62,1,6.49,6.49,0,0,1-.84.82,5.82,5.82,0,0,1-.94.58,7.12,7.12,0,0,1-1,.37,6.45,6.45,0,0,1-.88.17l-.38,0,.11-.16a3.64,3.64,0,0,0,.39-.84q0-.17.06-.24a.32.32,0,0,0,0-.09l0,.08c0,.05-.06.13-.12.22a3.68,3.68,0,0,1-.93,1l-.07.05-.1.07a3.64,3.64,0,0,1-.47.28,3.91,3.91,0,0,1-1.43.43,4.34,4.34,0,0,1-1.46-.16l-.23-.07-.06,0-.34-.13c-.19-.09-.37-.19-.52-.28a3.43,3.43,0,0,1-.69-.55A1.59,1.59,0,0,1,219.44,114.14Zm2.19-4.3a2.27,2.27,0,0,0,.65.1,2.58,2.58,0,0,0,1.45-.4,2.24,2.24,0,0,0,.92-1.21,1.7,1.7,0,0,0-.07-1.23,1.4,1.4,0,0,0-.55-.58l-.2-.08h-.07a.67.67,0,0,1,.23.15,1.34,1.34,0,0,1,.25,1.59,2.27,2.27,0,0,1-.34.49,3,3,0,0,1-.48.39,2.71,2.71,0,0,1-1.16.39,5.28,5.28,0,0,1-.56,0,3.43,3.43,0,0,1-.48-.08,2.17,2.17,0,0,1-.39-.14c-.12,0-.21-.11-.29-.15l-.22-.16.17.22a3.09,3.09,0,0,0,.25.23,3.3,3.3,0,0,0,.37.26A2.81,2.81,0,0,0,221.63,109.84Z" style="fill:#e96347"/><path d="M217.54,111.9a4.13,4.13,0,0,1-.49-.68,3.44,3.44,0,0,1-.19-.39c-.08-.17-.12-.33-.17-.46s-.07-.25-.09-.35,0-.28,0-.3,0,.12.11.28a3.8,3.8,0,0,0,.39.72,5.48,5.48,0,0,0,.77.91,4.9,4.9,0,0,0,1.17.83,5,5,0,0,0,1.37.45,4.5,4.5,0,0,0,1.2,0,3.59,3.59,0,0,0,.8-.16l.29-.09-.27.13a4.19,4.19,0,0,1-.8.28,4.76,4.76,0,0,1-1.26.11,3.67,3.67,0,0,1-.71-.1,3.51,3.51,0,0,1-.81-.27A4.14,4.14,0,0,1,217.54,111.9Z" style="fill:#343536"/><path d="M224,106.52a1.4,1.4,0,0,1,.55.58,1.7,1.7,0,0,1,.07,1.23,2.24,2.24,0,0,1-.92,1.21,2.58,2.58,0,0,1-1.45.4,2.27,2.27,0,0,1-.65-.1,2.81,2.81,0,0,1-.52-.21,3.3,3.3,0,0,1-.37-.26,3.09,3.09,0,0,1-.25-.23l-.17-.22.22.16c.08,0,.17.1.29.15a2.17,2.17,0,0,0,.39.14,3.43,3.43,0,0,0,.48.08,5.28,5.28,0,0,0,.56,0,2.71,2.71,0,0,0,1.16-.39,3,3,0,0,0,.48-.39,2.27,2.27,0,0,0,.34-.49,1.34,1.34,0,0,0-.25-1.59.67.67,0,0,0-.23-.15h.07Z" style="fill:#343536"/><path d="M221.06,100.86l.14.07.06,0,.05,0h0l0,0,.14-.1a1.75,1.75,0,0,1,.29-.18,3.09,3.09,0,0,1,2.92,0,2.77,2.77,0,0,1,1.08,1.12,3.09,3.09,0,0,1,.37,1.41,3.17,3.17,0,0,1-.07.69l0,.17,0,.06v0s0,0,0,.06l.1,0,.07,0,.1,0,.19.07a3.19,3.19,0,0,1,.69.35,3.16,3.16,0,0,1,.92,1.06,2.79,2.79,0,0,1,.28,1.19,3,3,0,0,1-.2,1,2.79,2.79,0,0,1-.84,1.13,2.4,2.4,0,0,1-.3.22l-.07,0,.07,0a2.92,2.92,0,0,0,.28-.23,2.69,2.69,0,0,0,.71-1.16,2.82,2.82,0,0,0,.11-.94,2.34,2.34,0,0,0-.33-1,2.53,2.53,0,0,0-.86-.86,2.3,2.3,0,0,0-.6-.27l-.17-.05-.12,0h-.07l-.32,0h-.36l.21-.51s0-.09,0-.13l0-.08,0-.14a2.66,2.66,0,0,0,0-.57,2.55,2.55,0,0,0-.34-1.14,2.12,2.12,0,0,0-.86-.87,2.42,2.42,0,0,0-1.25-.28,2.58,2.58,0,0,0-1.07.29l-.23.14-.11.08-.1.08-.22.2s0,.05,0,0l-.06,0-.21-.14-.2-.13-.12-.07a3.26,3.26,0,0,0-2.05-.3,3.4,3.4,0,0,0-1.7.83,3.11,3.11,0,0,0-.82,1.46,3.46,3.46,0,0,0-.06,1.42,3.64,3.64,0,0,0,.26.94l.06.11.09.17a2.58,2.58,0,0,0,.3.43,2.28,2.28,0,0,1,.16.19,1.37,1.37,0,0,0-.19-.17,4.27,4.27,0,0,1-.35-.4l-.11-.16-.07-.11a3.67,3.67,0,0,1-.4-1,3.74,3.74,0,0,1-.07-1.55,3.33,3.33,0,0,1,.84-1.73,3.55,3.55,0,0,1,.86-.67,3.93,3.93,0,0,1,3.54,0Z" style="fill:#343536"/><path d="M221.22,116c-.14-.07-.28-.14-.41-.22l-.09.09a5.71,5.71,0,0,1-.59.43,4.37,4.37,0,0,1-.81.37,4,4,0,0,1-1,.21,4.13,4.13,0,0,1-1.15-.08,4.42,4.42,0,0,1-1.17-.45,4,4,0,0,1-1-.8,2.78,2.78,0,0,1-.26-.34c-1,.26-2.14.54-3.3.81-2.8.67-5.35,1.21-7.19,1.56l-2.2.41-.8.14.78-.22,2.15-.6c1.82-.5,4.34-1.15,7.14-1.78,1.11-.26,2.18-.49,3.18-.7l-.13-.24a4.53,4.53,0,0,1-.33-1,4.09,4.09,0,0,1-.1-.88,5.19,5.19,0,0,1,.05-.61l-.1,0a4.28,4.28,0,0,1-1.06-.51l-.59.24c-3,1.2-5.7,2.23-7.68,2.94l-3.21,1.12,3.1-1.39c1.93-.85,4.61-2,7.6-3.14l.31-.12-.26-.25a3.47,3.47,0,0,1-.91-1.91.53.53,0,0,0,0-.13l-.82.43c-1.55.81-3,1.56-4.4,2.24s-2.6,1.26-3.64,1.75l-2.47,1.14-.89.42.86-.48c.55-.32,1.36-.79,2.36-1.35s2.21-1.21,3.55-1.93,2.82-1.49,4.38-2.28l1.11-.56a1.94,1.94,0,0,1,.05-.2,2.45,2.45,0,0,1,.33-.73,1,1,0,0,1,.17-.23l.09-.09a1.93,1.93,0,0,1,.57-.43l.27-.12.08,0-.07,0-.24.15a2,2,0,0,0-.49.59l-.05.08s-.05.11-.08.17a2.5,2.5,0,0,0-.15,1.14,1.59,1.59,0,0,0,.06.3,3.51,3.51,0,0,0,.86,1.54,6.17,6.17,0,0,0,.46.43l.24.19.24.16a4.41,4.41,0,0,0,.52.28l0,0,.11,0a3.78,3.78,0,0,0,.62.21,7.2,7.2,0,0,0,.71.13c.22,0,.42,0,.6,0a3,3,0,0,0,.46,0,1.55,1.55,0,0,0,.29,0l.09,0a1.92,1.92,0,0,1-.36.15,3.92,3.92,0,0,1-.45.15,5.19,5.19,0,0,1-.64.09,3.46,3.46,0,0,1-.78,0,4.19,4.19,0,0,1-.57-.09c0,.16,0,.33.06.52a4.11,4.11,0,0,0,.19.79,4.23,4.23,0,0,0,.39.84c.08.13.16.25.25.37a3.07,3.07,0,0,0,.28.35l.08.08a4.15,4.15,0,0,0,.84.66,4.29,4.29,0,0,0,1,.38,4.92,4.92,0,0,0,1,.11,6.74,6.74,0,0,0,.92-.07A5.16,5.16,0,0,0,220,116a4,4,0,0,0,.62-.29l0,0a3.22,3.22,0,0,1-.58-.5,5,5,0,0,1-.33-.42c-.09-.13-.16-.25-.21-.34s-.08-.18-.1-.23l0-.07.06.06a1.59,1.59,0,0,0,.16.19,3.43,3.43,0,0,0,.69.55c.15.09.33.19.52.28l.34.13.06,0,.23.07a4.34,4.34,0,0,0,1.46.16,3.91,3.91,0,0,0,1.43-.43,3.64,3.64,0,0,0,.47-.28l.1-.07.07-.05a3.68,3.68,0,0,0,.93-1c.06-.09.09-.17.12-.22l0-.08a.32.32,0,0,1,0,.09s0,.13-.06.24a3.64,3.64,0,0,1-.39.84l-.11.16.38,0a6.45,6.45,0,0,0,.88-.17,7.12,7.12,0,0,0,1-.37,5.82,5.82,0,0,0,.94-.58,6.49,6.49,0,0,0,.84-.82,5,5,0,0,0,.62-1,6.23,6.23,0,0,0,.38-1,5.35,5.35,0,0,0,.15-1,4.42,4.42,0,0,0,0-.9,3,3,0,0,0-.12-.64,2.43,2.43,0,0,1-.24.32,6.84,6.84,0,0,1-1,1,6.4,6.4,0,0,1-1,.64,5.85,5.85,0,0,1-.9.38,6.37,6.37,0,0,1-.7.19c-.2,0-.35,0-.46.08l-.14,0,.14,0c.1,0,.25-.06.44-.13l.3-.12a3.52,3.52,0,0,0,.35-.16,7.28,7.28,0,0,0,.82-.47,10.1,10.1,0,0,0,.87-.71,7.37,7.37,0,0,0,.85-1,6.4,6.4,0,0,0,.43-.67.25.25,0,0,0,0-.07,3.45,3.45,0,0,0,.24-.47,6.44,6.44,0,0,0,.44-1.43,6.27,6.27,0,0,0,.08-1.49,6.59,6.59,0,0,0-.26-1.39,5.88,5.88,0,0,0-.47-1.2,6.61,6.61,0,0,0-.6-1,6.43,6.43,0,0,0-.45-.54l.09-.14a5.35,5.35,0,0,1,.54.53,6.8,6.8,0,0,1,.72.94,7.41,7.41,0,0,1,.6,1.23,6.2,6.2,0,0,1,.36,1.47,6.55,6.55,0,0,1,0,1.65,6.13,6.13,0,0,1-.5,1.57,5.16,5.16,0,0,1-.45.8v0a4.51,4.51,0,0,1,.26.74,5.08,5.08,0,0,1,.16,1,5.19,5.19,0,0,1,0,1.11,4.49,4.49,0,0,1-.31,1.21,5,5,0,0,1-.68,1.18,4.57,4.57,0,0,1-1,.93,5.62,5.62,0,0,1-1.11.58,5.78,5.78,0,0,1-1.09.27,5.43,5.43,0,0,1-1,0c-.19,0-.38,0-.54-.06a3.4,3.4,0,0,1-3.26,1.27A3.49,3.49,0,0,1,221.22,116Z" style="fill:#343536"/><path d="M222.66,97.14a4.82,4.82,0,0,1,.83.1,3.94,3.94,0,0,1,1.44.69,3.81,3.81,0,0,1,.88.94,4.06,4.06,0,0,1,.42.75,1.92,1.92,0,0,1,.1.29,1.71,1.71,0,0,0-.14-.27,3.94,3.94,0,0,0-.49-.68,4.75,4.75,0,0,0-.94-.78,4.12,4.12,0,0,0-1.36-.54,4.48,4.48,0,0,0-1.45-.06,4.42,4.42,0,0,0-1.17.31,3.67,3.67,0,0,0-.75.38l-.25.17.22-.22a2.27,2.27,0,0,1,.27-.25,3.64,3.64,0,0,1,.41-.28,3.77,3.77,0,0,1,1.21-.47A3.19,3.19,0,0,1,222.66,97.14Z" style="fill:#343536"/><path d="M202.47,111.28c-1.62,1.07-2.69,1.81-2.93,2l.71-.56c.5-.37,1.22-.92,2.1-1.6,1.78-1.34,4.28-3.13,7.08-5l1.36-.93a4,4,0,0,1,0-1.76,3.26,3.26,0,0,1,1-1.62,2.92,2.92,0,0,1,1.09-.61,4.51,4.51,0,0,1-.18-.85,7,7,0,0,1,0-1.13,5.63,5.63,0,0,1,.26-1.27,5.39,5.39,0,0,1,.61-1.32,5.47,5.47,0,0,1,1-1.2,5.67,5.67,0,0,1,1.33-.83,5.87,5.87,0,0,1,2.68-.46,6.7,6.7,0,0,1,1.09.18l.09,0c0-.09.09-.19.14-.28a4.53,4.53,0,0,1,.46-.59,3.4,3.4,0,0,1,.69-.53,3.2,3.2,0,0,1,.91-.36,3.07,3.07,0,0,1,1.05,0,3.55,3.55,0,0,1,1,.32,3.48,3.48,0,0,1,1.3,1.21,3.24,3.24,0,0,1,.2.36,4.48,4.48,0,0,1,1.34.42,4.77,4.77,0,0,1,.88.58,4.48,4.48,0,0,1,.77.85,4.53,4.53,0,0,1,.52,1,4.37,4.37,0,0,1,.21,1,4.85,4.85,0,0,1,0,.94l-.06.37,0,0,.17.14-.09.14-.15-.15,0,0c-.14-.14-.28-.26-.4-.36l-.14-.11c-.15-.13-.28-.2-.37-.27l-.1-.07.11.06c.09,0,.23.11.4.22l.1.06a6,6,0,0,0-.12-.88,5.38,5.38,0,0,0-.73-1.71,6.28,6.28,0,0,0-.62-.73,5.37,5.37,0,0,0-.71-.57,5.27,5.27,0,0,0-.73-.4l0,0a1.57,1.57,0,0,1,.06.28c0,.17,0,.32,0,.44s0,.21,0,.28a.62.62,0,0,0,0,.09.62.62,0,0,0,0-.09,2,2,0,0,0,0-.27,2,2,0,0,0-.12-.41,2.76,2.76,0,0,0-.2-.44l0-.06a2.52,2.52,0,0,0-.31-.44l-.09-.1a3,3,0,0,0-.56-.49,3.4,3.4,0,0,0-.7-.39,3.37,3.37,0,0,0-.82-.19,3.72,3.72,0,0,0-1.58.31,4.06,4.06,0,0,0-1.13.76l-.13.13c-.06.07-.12.13-.17.2a.27.27,0,0,0-.07.08,2.33,2.33,0,0,0-.23.36,1.19,1.19,0,0,0-.11.25l0,.09a.67.67,0,0,1,0-.1,2.3,2.3,0,0,1,0-.28,4.26,4.26,0,0,1,.12-.43h0a5.12,5.12,0,0,0-1,0,6.48,6.48,0,0,0-1.16.24,5.55,5.55,0,0,0-1.17.48,6.56,6.56,0,0,0-1.1.76,6.31,6.31,0,0,0-.88,1,6.4,6.4,0,0,0-.61,1.11,8.29,8.29,0,0,0-.36,1.1,8.12,8.12,0,0,0-.14,1,7.25,7.25,0,0,0,0,.8c0,.07,0,.14,0,.21s0,.36.07.51.08.31.1.41a1.31,1.31,0,0,1,0,.14l-.06-.13c0-.09-.12-.21-.19-.39a2.93,2.93,0,0,0-.12-.28,1.09,1.09,0,0,1-.05-.17,3.06,3.06,0,0,0-.9.67,3.39,3.39,0,0,0-.76,1.46,4,4,0,0,0-.12,1.36,1.39,1.39,0,0,0,0,.3.8.8,0,0,0,0,.15,5.79,5.79,0,0,0,.36,1.21c.09.19.17.37.26.52l-.09.09c-.12-.14-.24-.3-.38-.5a5.44,5.44,0,0,1-.5-1.08l-1.23.86C206.88,108.34,204.33,110,202.47,111.28Z" style="fill:#343536"/><path d="M234.51,180.51c-1.74.33-3.5.81-5.23,1.24-.09,1.8-.24,3.59-.44,5.38a35.3,35.3,0,0,0-2.51-4.72,15.17,15.17,0,0,1-4.2.27c.61-.76,1.5-1.82,2.48-3-.86-1.35-1.62-2.52-2.05-3.34a11.42,11.42,0,0,1,4,.89,35.26,35.26,0,0,0,2.81-4.19q.1,2.7.06,5.4A49.93,49.93,0,0,0,234.51,180.51Z" style="fill:#e96347"/><path d="M222.27,176.21l0-.05a.33.33,0,0,1,.27-.15,11.38,11.38,0,0,1,3.86.83,32.07,32.07,0,0,0,2.64-4,.32.32,0,0,1,.59.14c.07,1.73.09,3.49.06,5.21l.22.1a45.66,45.66,0,0,0,4.67,1.89.3.3,0,0,1,.22.31.32.32,0,0,1-.25.29c-1.34.25-2.72.61-4,.95l-.95.24c-.1,1.72-.24,3.46-.43,5.17a.31.31,0,0,1-.6.08,34.57,34.57,0,0,0-2.37-4.5,14.84,14.84,0,0,1-4.09.23.29.29,0,0,1-.25-.19.3.3,0,0,1,0-.31l1-1.16,1.39-1.68c-.82-1.28-1.53-2.39-1.94-3.18A.28.28,0,0,1,222.27,176.21Zm6.79-2.1c-.58,1-1.34,2-2.28,3.29a.31.31,0,0,1-.36.1,12.64,12.64,0,0,0-3.32-.85c.42.72,1,1.65,1.67,2.68l.1.16a.33.33,0,0,1,0,.37l-1.53,1.86c-.21.24-.4.48-.57.69a16.08,16.08,0,0,0,3.53-.3.3.3,0,0,1,.32.14c.88,1.45,1.55,2.66,2.05,3.7.14-1.4.25-2.81.32-4.21a.32.32,0,0,1,.24-.29l1.16-.29c1-.25,2-.51,3-.73-1.23-.45-2.46-1-3.67-1.55l-.4-.18a.31.31,0,0,1-.18-.28C229.11,177,229.11,175.55,229.06,174.11Z" style="fill:#343536"/><polygon points="233.65 173.05 231.38 176.03 234.53 173.29 233.65 173.05" style="fill:#343536"/><polygon points="234.65 174.29 231.43 176.46 234.71 174.88 234.65 174.29" style="fill:#343536"/><polygon points="224.53 189.14 225.39 184.88 223.55 189.15 224.53 189.14" style="fill:#343536"/><polygon points="222.98 188.01 225.14 184.38 222.64 187.34 222.98 188.01" style="fill:#343536"/><polygon points="235.14 183.24 230.42 182.61 236.03 184.19 235.14 183.24" style="fill:#343536"/><polygon points="233.23 187.79 230.11 183.14 232.06 187.24 233.23 187.79" style="fill:#343536"/><polygon points="225.38 171.59 224.81 171.23 225.87 175.83 225.38 171.59" style="fill:#343536"/><polygon points="225.29 175.41 223.29 171.83 223.08 172.6 225.29 175.41" style="fill:#343536"/><polygon points="219.53 177.59 218.94 177.83 223.13 179.54 219.53 177.59" style="fill:#343536"/><polygon points="222.48 179.76 218.59 179.33 219.08 179.92 222.48 179.76" style="fill:#343536"/><path d="M86.82,156.91c1.49-.21,3-.56,4.49-.86.15-1.53.34-3.05.58-4.56a30,30,0,0,0,2,4.1,13.18,13.18,0,0,1,3.59-.07c-.55.62-1.35,1.49-2.22,2.48.68,1.17,1.28,2.2,1.62,2.91a9.88,9.88,0,0,1-3.35-.9,30,30,0,0,0-2.54,3.46c0-1.54.06-3.07.15-4.6A43.89,43.89,0,0,0,86.82,156.91Z" style="fill:#1183c6"/></g></svg>