<svg xmlns="http://www.w3.org/2000/svg" xmlns:xlink="http://www.w3.org/1999/xlink" viewBox="0 0 260 260"><defs><clipPath id="a"><rect width="260" height="260" style="fill:none"/></clipPath><radialGradient id="b" cx="-9504.72" cy="7848.97" r="23.65" gradientTransform="matrix(-0.73, -0.68, 0.68, -0.73, -12196.26, -639.96)" gradientUnits="userSpaceOnUse"><stop offset="0.11" stop-color="#fce92e"/><stop offset="0.75" stop-color="#f5b75d"/></radialGradient></defs><title>icon</title><g style="clip-path:url(#a)"><path d="M17.12,97.62a7.47,7.47,0,0,0-.39,3.32c-2.27-1-3.45-2.07-3.89-3.15-1-2.49.45-3.67,2.57-5.53a20.65,20.65,0,0,0,1.75,3.91,39.77,39.77,0,0,1-.86-4.72q.32-.28.63-.6l-.67.27C16,89.05,16,87,16.64,86.25c1.69-2,4.54-.83,7.63,0l-.2.29.53-.19c.55.15,1.1.29,1.65.39L25,86.22c1.69-.76,3.16-1.83,4.86-.63A7.16,7.16,0,0,1,32.26,89c-.66-.25-1.36-.44-2-.62,0,.06,4.44,2.63,3.5,5a14.24,14.24,0,0,1-1.54,2.64,11,11,0,0,0-.5-1,5.81,5.81,0,0,1,.44,1.12,6,6,0,0,1-.81.93,9,9,0,0,0,.88-.65,3.14,3.14,0,0,1-.91,3,13.63,13.63,0,0,1-3.89,2c0-.1.09-.21.13-.32a3.48,3.48,0,0,1-.38.41c-.29.1-.56.19-.78.25l.67-.14c-1.27,1.13-3.92,2.41-5.79,1.82C18.9,102.78,18.14,101.06,17.12,97.62Z" style="fill:#fff"/><path d="M15,91.47c-3.64,1.79-5,4.24-4,7.28a3.68,3.68,0,0,0,1.08,1.6,7.37,7.37,0,0,0,4.65,1.5,6.19,6.19,0,0,0,1.92,3.1,5.9,5.9,0,0,0,2,1.18c2.07.68,5.26-.78,6.86-4.33,2.33-.53,3.64-1.13,4.52-2a3.08,3.08,0,0,0,.52-3.37c.68-.61,2.4-2.36,2.5-4.43a2.58,2.58,0,0,0-.93-2.16,4.52,4.52,0,0,0-1-.63c0-3.07-.69-5.21-2.22-6.56a5.37,5.37,0,0,0-.45-.35,2.48,2.48,0,0,0-1.91-.5c-1.46.26-2.69,1.86-4.13,3.94-.64-.34-1.27-.7-1.89-1-3.1-1.76-6-3.43-7.66-1.38C13.8,84.65,13.81,87.71,15,91.47Zm1.84-5.09c1.4-1.7,3.67-1,6.29-.22l.87.26-.36.52.54-.16.48-.17c.45.12,1,.26,1.61.37l1.69.31-1.58-.68c-.28-.12-.55-.25-.83-.39l.37-.18c1.38-.67,2.56-1.24,3.92-.29.15.11.28.22.41.33a6.88,6.88,0,0,1,1.7,2.56c-.49-.16-1-.3-1.43-.43l-.6-.17.23.42.06.06.12.09a12.76,12.76,0,0,1,1.61,1.21c1,.91,2.18,2.26,1.69,3.52a12.86,12.86,0,0,1-1.31,2.31c-.11-.25-.24-.5-.37-.74l-.35.19a5.41,5.41,0,0,1,.4,1,5,5,0,0,1-.71.81l-2.82,2.19,3-1.86a7.77,7.77,0,0,0,.64-.46,2.92,2.92,0,0,1-.91,2.55,12.5,12.5,0,0,1-3.4,1.84l.45-1.22-.83,1.12a3,3,0,0,1-.35.39l-.7.2.07.32c-1.31.94-3.49,1.86-5.08,1.37a4.58,4.58,0,0,1-1.68-.91c-1.05-.92-1.62-2.36-2.36-4.87L17.13,97l-.2.58a7.93,7.93,0,0,0-.43,3.07,10.5,10.5,0,0,1-2.4-1.49A3.86,3.86,0,0,1,13,97.72c-.93-2.28.28-3.36,2.29-5.12A20.64,20.64,0,0,0,17,96.27l.77,1.29-.41-1.44a39.33,39.33,0,0,1-.84-4.6l.55-.52.7-.68-1.33.52C16.2,88.52,16.33,86.94,16.79,86.38Z" style="fill:#323535"/><path d="M26.41,101.84a3.06,3.06,0,0,1-.49.09Z" style="fill:#323535"/><path d="M31.73,95c-.14-.26-.29-.5-.44-.75C31.4,94.44,31.57,94.69,31.73,95Z" style="fill:#323535"/><path d="M31.15,94l.14.22Z" style="fill:#323535"/><polygon points="19.23 100.43 48.06 101.17 48.47 100.8 22.59 88.06 19.23 100.43" style="fill:#fff"/><polygon points="40.95 99.44 21.57 94.69 23.18 96.38 40.95 99.44" style="fill:#323535"/><polygon points="44.3 98.69 32.19 93.28 31.31 92.36 44.3 98.69" style="fill:#323535"/><polygon points="45.66 99.8 27.34 94.29 26.03 92.7 45.66 99.8" style="fill:#323535"/><polygon points="26.4 99.66 23.23 100.83 49.89 101.15 26.4 99.66" style="fill:#323535"/><polygon points="45.2 101.06 26.29 100 24.33 100.72 45.2 101.06" style="fill:#fff"/><polygon points="238.42 173.31 201.66 157.8 235.95 179.9 238.42 173.31" style="fill:#72cff5"/><polygon points="201.66 157.8 235.95 179.9 238.42 173.31 201.66 157.8 201.66 157.8" style="fill:#00bbed"/><path d="M228,181.68l7-6.4-.51-9.5,8.26,4.71,8.88-3.41-1.93,9.31,6,7.39-9.46,1-5.17,8-3.91-8.67Z" style="fill:#00bbed"/><polygon points="241.44 185.24 244.43 181.42 249.26 181.32 245.96 177.52 247.96 172.68 243.3 174.01 239.33 171.25 239.16 176.09 235.3 179.01 239.85 180.67 241.44 185.24" style="fill:#fff"/><polygon points="21.29 144.22 60.4 134.93 19.37 137.4 21.29 144.22" style="fill:#72cff5"/><polygon points="60.4 134.93 19.37 137.4 21.29 144.22 60.4 134.93 60.4 134.93" style="fill:#00bbed"/><path d="M24.75,131.23l-1.91,9.39L28.92,148l-9.52,1.1-5.18,8.06-4-8.72L1,146,8,139.57,7.47,130l8.35,4.71Z" style="fill:#00bbed"/><polygon points="11.73 136.33 11.58 141.21 7.7 144.17 12.65 145.3 13.92 150.42 16.9 146.56 21.78 146.44 19.04 142.41 20.43 137.73 15.74 139.09 11.73 136.33" style="fill:#fff"/><polygon points="236.46 67.92 199.21 93.78 241.28 74.3 236.46 67.92" style="fill:#72cff5"/><polygon points="236.46 67.92 199.21 93.78 241.28 74.3 236.46 67.92 236.46 67.92" style="fill:#00bbed"/><path d="M238.17,83l-1.86-10.64-9.43-5.29L236.43,62l2.11-10.59,7.77,7.51,10.74-1.26-4.75,9.71,4.52,9.81-10.7-1.51Z" style="fill:#00bbed"/><polygon points="249.75 72.28 247.9 67.09 250.75 62.39 245.09 63.24 241.65 58.38 240.1 63.66 235.03 65.8 239.57 68.9 240.04 74.38 244.39 71.03 249.75 72.28" style="fill:#fff"/><path d="M65.62,63.94c-.46,1.88-.78,3.85-1.13,5.77q2.61,1.37,5.16,2.88a39.21,39.21,0,0,0-5.84.35,16.5,16.5,0,0,1-1.65,4.31c-.47-1-1.12-2.33-1.87-3.84-1.73.25-3.25.47-4.26.52a12.81,12.81,0,0,1,2.69-3.55,39.23,39.23,0,0,0-2.9-4.69c1.83.75,3.63,1.54,5.41,2.39A56,56,0,0,0,65.62,63.94Z" style="fill:#f37024"/><polygon points="112.01 59.25 113.93 52.87 109.7 47.72 116.33 47.56 120.01 41.94 122.26 48.26 128.68 49.98 123.38 54.04 123.73 60.72 118.27 56.91 112.01 59.25" style="fill:url(#b)"/><path d="M120.14,41.17l2.4,6.8,7,1.86-5.74,4.34.38,7.22-5.91-4.11-6.73,2.58,2.07-7L109,47.38l7.19-.19ZM122,48.48l-.09-.12-2-5.67-3.36,5.16-6.17.21,3.88,4.76-1.74,5.91,5.74-2.22L123.36,60l-.29-6.14,4.86-3.75Z" style="fill:#262625"/><path d="M57.62,164.56c1.45.39,3,.68,4.44,1q1.11-2,2.34-3.93a29.39,29.39,0,0,0,.15,4.52,13.06,13.06,0,0,1,3.3,1.36c-.75.35-1.82.82-3,1.38.16,1.34.29,2.52.32,3.3A9.68,9.68,0,0,1,62.47,170a30.26,30.26,0,0,0-3.69,2.15c.61-1.4,1.26-2.77,2-4.13A42.11,42.11,0,0,0,57.62,164.56Z" style="fill:#fdcc25"/><path d="M207.82,175.45c-1.06,3.07-1.89,6.31-2.77,9.45q4.15,2.68,8.16,5.6a65.58,65.58,0,0,0-9.79-.31,27.63,27.63,0,0,1-3.41,6.93c-.64-1.66-1.51-4.05-2.54-6.69-2.92.15-5.48.28-7.17.22a21.1,21.1,0,0,1,5-5.5,64.34,64.34,0,0,0-4.12-8.27q4.41,2.28,8.65,4.81A91,91,0,0,0,207.82,175.45Z" style="fill:#fdcc25"/><path d="M183.65,42.25a8,8,0,0,0-3.14-1.82c2-1.83,3.55-2.55,4.81-2.52,2.92.06,3.47,2,4.42,4.94a23,23,0,0,0-4.66.06,40.74,40.74,0,0,1,5.08,1.18c.1.29.21.58.33.88,0-.11,0-.43,0-.78,2.16.67,4.21,1.54,4.69,2.47,1.32,2.57-1.12,4.89-3.33,7.59-.07-.11-.14-.21-.2-.32,0,.21,0,.41,0,.61-.39.49-.76,1-1.1,1.48.35-.32.72-.64,1.09-1,0,2,.47,3.94-1.47,5.12a7.86,7.86,0,0,1-4.4.9c.54-.56,1-1.18,1.48-1.73-.07,0-4.53,3.3-6.54,1.32a14.79,14.79,0,0,1-2-2.67A10.53,10.53,0,0,0,180,58a6.54,6.54,0,0,1-1.31,0,5.67,5.67,0,0,1-.57-1.22,7.45,7.45,0,0,0,.27,1.17,3.44,3.44,0,0,1-2.66-2.23,14.71,14.71,0,0,1-.36-4.76,3.44,3.44,0,0,0,.27.27,3.55,3.55,0,0,1-.26-.55c0-.34.06-.64.1-.89,0,.25-.11.49-.15.73-.59-1.75-.72-4.94.67-6.56C177.74,41.81,179.78,41.78,183.65,42.25Z" style="fill:#fff"/><path d="M190.72,42.73c-.21-4.4-2.08-6.79-5.56-7.1a4.06,4.06,0,0,0-2.06.39,8.09,8.09,0,0,0-3.49,4,6.9,6.9,0,0,0-3.93.59,6.49,6.49,0,0,0-2,1.52c-1.57,1.77-1.49,5.58,1.36,8.71-.47,2.55-.44,4.12.1,5.38a3.37,3.37,0,0,0,3.14,2c.32.93,1.32,3.4,3.34,4.4a2.82,2.82,0,0,0,2.56,0,5.09,5.09,0,0,0,1.06-.7c3,1.37,5.48,1.56,7.49.61l.54-.29a2.71,2.71,0,0,0,1.32-1.69c.37-1.57-.69-3.49-2.15-5.82.62-.49,1.25-1,1.86-1.43,3.1-2.34,6-4.55,4.68-7.06C198,44.51,195,43.21,190.72,42.73Zm4.29,4c1.09,2.13-.57,4.09-2.49,6.37l-.63.75-.37-.58-.06.61a5.35,5.35,0,0,0-.05.55c-.31.4-.7.91-1.06,1.44l-1,1.56,1.36-1.28c.25-.23.49-.45.75-.67,0,.15,0,.31,0,.46.07,1.66.14,3.09-1.4,4a5.14,5.14,0,0,1-.5.28,7.52,7.52,0,0,1-3.29.59c.37-.42.73-.85,1-1.24l.43-.53-.51,0-.09,0-.14.09a16.87,16.87,0,0,1-1.9,1.08c-1.36.65-3.2,1.21-4.24.18a13.9,13.9,0,0,1-1.74-2.31c.29,0,.59,0,.89-.05l0-.43a6.47,6.47,0,0,1-1.17,0,5.44,5.44,0,0,1-.5-1.07l-1-3.75.55,3.83c0,.27.1.55.18.84a3.17,3.17,0,0,1-2.15-2,13.33,13.33,0,0,1-.37-4.19l1,1L175.79,51a5.46,5.46,0,0,1-.24-.53c0-.24.07-.53.11-.78l-.35-.06c-.38-1.72-.36-4.29.82-5.66a4.77,4.77,0,0,1,1.63-1.29c1.36-.65,3.05-.59,5.87-.26l.67.08-.5-.45a8.35,8.35,0,0,0-2.87-1.75,10.87,10.87,0,0,1,2.52-1.76,4.2,4.2,0,0,1,1.87-.46c2.67.06,3.22,1.73,4.12,4.49a22.42,22.42,0,0,0-4.39.09l-1.62.21,1.62.22A41.28,41.28,0,0,1,190,44.26c.09.26.18.52.29.78l.37,1,.05-1.55C193.13,45.25,194.65,46.06,195,46.76Z" style="fill:#323535"/><path d="M175.45,49.7a2.36,2.36,0,0,1,.12-.52A4.87,4.87,0,0,0,175.45,49.7Z" style="fill:#323535"/><path d="M180,58q.47,0,.93-.12A9.09,9.09,0,0,1,180,58Z" style="fill:#323535"/><path d="M181.19,57.79l-.29,0Z" style="fill:#323535"/><polygon points="179.94 43.15 166.79 71.59 166.98 72.15 190.84 51.82 179.94 43.15" style="fill:#fff"/><polygon points="171.57 65.24 184.66 47.95 182.28 48.83 171.57 65.24" style="fill:#323535"/><polygon points="170.89 68.91 181.5 59.15 182.79 58.67 170.89 68.91" style="fill:#323535"/><polygon points="169.19 69.79 182.58 53.88 184.73 53.25 169.19 69.79" style="fill:#323535"/><polygon points="177.62 50.63 177.82 46.97 166.03 73.42 177.62 50.63" style="fill:#323535"/><polygon points="168.13 68.78 177.33 50.37 177.45 48.11 168.13 68.78" style="fill:#fff"/><path d="M50.9,190.91a4.14,4.14,0,0,0-.92-.44l0-.05a5.28,5.28,0,0,1,.69-.59,7.4,7.4,0,0,1,.93-.57,7.93,7.93,0,0,1,1.16-.42,6.17,6.17,0,0,1,1.32-.22,5.22,5.22,0,0,1,1.41.13,5.12,5.12,0,0,1,1.32.55l.13.08a2.85,2.85,0,0,1,.49.34c.16.12.31.25.46.38a6.88,6.88,0,0,1,.8.94,5.89,5.89,0,0,1,.54,1,6.28,6.28,0,0,1,.26.65,5.88,5.88,0,0,0-.77.08,5.28,5.28,0,0,0-1,.27,6.68,6.68,0,0,0-.79.34l-.53.35A3.57,3.57,0,0,0,56,194l.19.86a4.84,4.84,0,0,0-.88-.7,5.24,5.24,0,0,0-2-.77,4.49,4.49,0,0,0-1.15-.06l0-1.32a.57.57,0,0,1-.08-.08,3,3,0,0,0-.22-.25,3.62,3.62,0,0,0-.39-.37A5.17,5.17,0,0,0,50.9,190.91Z" style="fill:#e96347"/><path d="M54.57,209.64l.21.05a5.16,5.16,0,0,0,3.27-.46,5,5,0,0,0,1.27-.89,4.63,4.63,0,0,0,.87-1.17,4.44,4.44,0,0,0,.46-2.54,4.9,4.9,0,0,0-1.5-3l-.14-.13c-.07,0-.13-.11-.2-.15a4.18,4.18,0,0,0-.6-.39l-.3-.15.28.18a4.83,4.83,0,0,1,.53.44l.19.19.11.12a5.26,5.26,0,0,1,.68,1.12,4.8,4.8,0,0,1,.43,1.86,4,4,0,0,1-.54,2.17,4.49,4.49,0,0,1-4.63,2l-.18,0c-.06,0-.21-.07-.3-.1l-.33-.1-.08,0s0,0-.06.06l-.22.35-.09.13-.11.14a3.2,3.2,0,0,1-.25.27,3.32,3.32,0,0,1-1.27.75,3.17,3.17,0,0,1-1.72.1,3,3,0,0,1-1.43-.81,3.44,3.44,0,0,1-.84-1.35,3.38,3.38,0,0,1-.17-.75v-.29c0-.06,0-.12,0-.19l.09-.73-.48.11-.41.08-.1,0h-.39a3.59,3.59,0,0,1-.87-.13,3.47,3.47,0,0,1-1.43-.81,3.23,3.23,0,0,1-.8-1.22,3.39,3.39,0,0,1-.19-1.26,3.48,3.48,0,0,1,.49-1.75,4.13,4.13,0,0,1,.28-.4l.07-.08-.08.08a2.53,2.53,0,0,0-.31.38,3.68,3.68,0,0,0-.56,3.12,3.44,3.44,0,0,0,.79,1.44,3.9,3.9,0,0,0,2.58,1.24h.64s0,.06,0,.09v.35a3.36,3.36,0,0,0,.16.92,4.11,4.11,0,0,0,1,1.68,3.73,3.73,0,0,0,1.8,1.06,4.21,4.21,0,0,0,2.17-.1,4.09,4.09,0,0,0,1.59-1,3.47,3.47,0,0,0,.32-.34l.14-.18,0,0h0l.07,0Zm-6.24,3.18a1.92,1.92,0,0,0,.24.33,5.87,5.87,0,0,0,.8.82A5.29,5.29,0,0,0,53,215.23a5.6,5.6,0,0,0,1.11-.17,5.11,5.11,0,0,0,2.36-1.43,3.64,3.64,0,0,0,.42-.51,4.73,4.73,0,0,0,.27-.41c.11-.21.18-.34.19-.37a2.22,2.22,0,0,1-.26.32,5.85,5.85,0,0,1-.82.76,5.74,5.74,0,0,1-1.4.81,6.17,6.17,0,0,1-1.89.46,5.62,5.62,0,0,1-2-.22,5.9,5.9,0,0,1-1.49-.66,4.63,4.63,0,0,1-.88-.69A3.42,3.42,0,0,1,48.33,212.82ZM52.07,192s.08.06.1.06l0,1.32a4.84,4.84,0,0,0-1,.13,6,6,0,0,0-1.58.6,5.54,5.54,0,0,0-.93.64c-.18.15-.28.25-.3.27l.33-.22a6.37,6.37,0,0,1,1-.5,6.25,6.25,0,0,1,1.56-.38,6.36,6.36,0,0,1,1.93.09,6.71,6.71,0,0,1,1.8.65,7.2,7.2,0,0,1,1.32.89,5.45,5.45,0,0,1,.77.79,2.08,2.08,0,0,1,.24.32s-.07-.16-.17-.36-.15-.26-.25-.43a4.33,4.33,0,0,0-.37-.53l-.39-.43L56,194l.11-.05a2.17,2.17,0,0,1,.36-.16,5.29,5.29,0,0,1,.58-.21,6.23,6.23,0,0,1,.79-.18,6.75,6.75,0,0,1,1-.1,5.2,5.2,0,0,1,.87.05l.16,0h0a5.49,5.49,0,0,1,.78.18,2.65,2.65,0,0,1,.37.12,2.87,2.87,0,0,1,.37.15,6.65,6.65,0,0,1,.75.39,4.76,4.76,0,0,1,1.67,1.67c.07.12.13.25.19.37a3.05,3.05,0,0,1,.2.76,2.85,2.85,0,0,1,0,.77c0,.08,0,.17,0,.25l0,.11a2.79,2.79,0,0,1-.42.93,1.73,1.73,0,0,1-.26.3l-.08.07.09-.06a2.21,2.21,0,0,0,.32-.25,2.71,2.71,0,0,0,.58-.75q.24.24.51.57a7.67,7.67,0,0,1,.92,1.43,1.59,1.59,0,0,1,.08.18,2.39,2.39,0,0,1,.15.37,5.6,5.6,0,0,1,.34,1.81,4.63,4.63,0,0,1-.45,2.15,4,4,0,0,1-.92,1.18,2.14,2.14,0,0,0-.13-.19c-.1-.11-.18-.22-.26-.32a3.75,3.75,0,0,0-.38-.43l-.13-.15.11.17c.06.11.17.27.27.49a5.78,5.78,0,0,1,.28.64l.09.26c.1.3.19.65.28,1a9,9,0,0,1,.17,1.36,9.12,9.12,0,0,1-.06,1.55,8.1,8.1,0,0,1-.38,1.64,8.87,8.87,0,0,1-.77,1.62A8.59,8.59,0,0,1,63,215.14a8.18,8.18,0,0,1-1.34,1,9.3,9.3,0,0,1-1.4.72,7.71,7.71,0,0,1-1.33.41h0a5.63,5.63,0,0,0,0-.6,2.2,2.2,0,0,0,0-.37c0-.09,0-.13,0-.13s0,0,0,.13a2.22,2.22,0,0,1-.06.36,3.12,3.12,0,0,1-.16.54l-.06.14-.15.31-.12.21A5.19,5.19,0,0,1,57,219.29a4.91,4.91,0,0,1-1.92,1,3.25,3.25,0,0,1-1.12.05,4,4,0,0,1-1-.23,4.8,4.8,0,0,1-.91-.44l-.14-.09a4.44,4.44,0,0,1-.56-.46.46.46,0,0,1-.07-.07,3,3,0,0,1-.42-.49,4.22,4.22,0,0,1-.31-.48c-.07-.14-.1-.26-.14-.33l0-.12,0,.12a3.7,3.7,0,0,0,.09.36,4.81,4.81,0,0,0,.22.55c.05.11.12.22.19.34H50.8a8.41,8.41,0,0,1-1.09-.25,7.16,7.16,0,0,1-1.11-.48,6.68,6.68,0,0,1-1.07-.72A7,7,0,0,1,46,215.57a6.29,6.29,0,0,1-.47-1.09l.14,0c.25.08.46.11.59.15l.17,0-.16-.06c-.13,0-.33-.1-.57-.2l-.22-.1a6.34,6.34,0,0,1-.64-.32l0,0-.25-.14c-.25-.15-.5-.33-.77-.53a9.41,9.41,0,0,1-1.12-1,8.83,8.83,0,0,1-1-1.37,9.9,9.9,0,0,1-.82-1.7,8.47,8.47,0,0,1-.45-2,8.84,8.84,0,0,1,.06-2,5,5,0,0,1,.13-.69l0-.11c.09-.35.2-.7.31-1a10.14,10.14,0,0,1,.75-1.55,9.48,9.48,0,0,1,.87-1.23,7.58,7.58,0,0,1,.88-.9c.14-.12.26-.25.39-.34l.35-.26c.22-.16.4-.25.52-.33l.17-.1a1,1,0,0,0-.18.08c-.13.07-.33.13-.56.26s-.52.29-.84.5a7.59,7.59,0,0,0-1,.82,7.39,7.39,0,0,0-1.06,1.19,8.46,8.46,0,0,0-.91,1.6c-.07.16-.14.32-.2.49a5.67,5.67,0,0,1-.39-.78,7.8,7.8,0,0,1-.36-1.15,7.34,7.34,0,0,1-.16-1.36,7.47,7.47,0,0,1,.1-1.48,6.38,6.38,0,0,1,.45-1.51,7.65,7.65,0,0,1,.79-1.37,7,7,0,0,1,1-1.09,8.88,8.88,0,0,1,1.09-.82,8.27,8.27,0,0,1,1.07-.54,3.89,3.89,0,0,1,.47-.17,2.41,2.41,0,0,0-.08.25,4.84,4.84,0,0,0-.19,1.22c0,.15,0,.26,0,.34v.11s0,0,0-.11,0-.19.07-.32a4.63,4.63,0,0,1,.45-1.1,3.86,3.86,0,0,1,.39-.57.47.47,0,0,1,.06-.09l.11-.13a4.14,4.14,0,0,1,.5-.53,5.28,5.28,0,0,1,1.69-1.06,5.69,5.69,0,0,1,1.95-.34h.4l.48,0a7.57,7.57,0,0,1,.78.17,4.67,4.67,0,0,1,1.09.46Zm-1.27,6.34a3.35,3.35,0,0,0-.87.11,3.4,3.4,0,0,0-1.74,1,3,3,0,0,0-.74,1.89A2.16,2.16,0,0,0,48,202.9a1.75,1.75,0,0,0,.91.55,1.3,1.3,0,0,0,.29,0h.09a1.17,1.17,0,0,1-.35-.11,1.9,1.9,0,0,1-.68-.66A1.88,1.88,0,0,1,48,201.4a3,3,0,0,1,.26-.74,3.47,3.47,0,0,1,1.83-1.6,4.06,4.06,0,0,1,.71-.21,4.22,4.22,0,0,1,.66-.08,4.73,4.73,0,0,1,.56,0,2.9,2.9,0,0,1,.42.1,3,3,0,0,0,.34.12l-.3-.21a2.43,2.43,0,0,0-.4-.21,3,3,0,0,0-.58-.21A4.09,4.09,0,0,0,50.8,198.31Z" style="fill:#e96347"/><path d="M55.33,194.18a4.84,4.84,0,0,1,.88.7l.39.43a4.33,4.33,0,0,1,.37.53c.1.17.19.31.25.43s.16.33.17.36a2.08,2.08,0,0,0-.24-.32,5.45,5.45,0,0,0-.77-.79,7.2,7.2,0,0,0-1.32-.89,6.71,6.71,0,0,0-1.8-.65,6.36,6.36,0,0,0-1.93-.09,6.25,6.25,0,0,0-1.56.38,6.37,6.37,0,0,0-1,.5l-.33.22s.12-.12.3-.27a5.54,5.54,0,0,1,.93-.64,6,6,0,0,1,1.58-.6,4.84,4.84,0,0,1,1-.13,4.49,4.49,0,0,1,1.15.06A5.24,5.24,0,0,1,55.33,194.18Z" style="fill:#343536"/><path d="M48.9,203.45a1.75,1.75,0,0,1-.91-.55,2.16,2.16,0,0,1-.54-1.55,3,3,0,0,1,.74-1.89,3.4,3.4,0,0,1,1.74-1,3.35,3.35,0,0,1,.87-.11,4.09,4.09,0,0,1,.74.08,3,3,0,0,1,.58.21,2.43,2.43,0,0,1,.4.21l.3.21a3,3,0,0,1-.34-.12,2.9,2.9,0,0,0-.42-.1,4.73,4.73,0,0,0-.56,0,4.22,4.22,0,0,0-.66.08,4.06,4.06,0,0,0-.71.21,3.47,3.47,0,0,0-1.83,1.6,3,3,0,0,0-.26.74,1.88,1.88,0,0,0,.21,1.31,1.9,1.9,0,0,0,.68.66,1.17,1.17,0,0,0,.35.11h-.09A1.3,1.3,0,0,1,48.9,203.45Z" style="fill:#343536"/><path d="M54.78,209.69l-.21-.05-.09,0-.07,0h0l0,0-.14.18a3.47,3.47,0,0,1-.32.34,4.09,4.09,0,0,1-1.59,1,4.21,4.21,0,0,1-2.17.1,3.73,3.73,0,0,1-1.8-1.06,4.11,4.11,0,0,1-1-1.68,3.36,3.36,0,0,1-.16-.92v-.35s0-.06,0-.09h-.64A3.9,3.9,0,0,1,44,205.88a3.44,3.44,0,0,1-.79-1.44,3.68,3.68,0,0,1,.56-3.12,2.53,2.53,0,0,1,.31-.38l.08-.08-.07.08a4.13,4.13,0,0,0-.28.4,3.48,3.48,0,0,0-.49,1.75,3.39,3.39,0,0,0,.19,1.26,3.23,3.23,0,0,0,.8,1.22,3.47,3.47,0,0,0,1.43.81,3.59,3.59,0,0,0,.87.13H47l.1,0,.41-.08.48-.11-.09.73c0,.07,0,.13,0,.19v.29a3.38,3.38,0,0,0,.17.75,3.44,3.44,0,0,0,.84,1.35,3,3,0,0,0,1.43.81,3.17,3.17,0,0,0,1.72-.1,3.32,3.32,0,0,0,1.27-.75,3.2,3.2,0,0,0,.25-.27l.11-.14.09-.13.22-.35s0-.07.06-.06l.08,0,.33.1c.09,0,.24.09.3.1l.18,0a4.49,4.49,0,0,0,4.63-2,4,4,0,0,0,.54-2.17,4.8,4.8,0,0,0-.43-1.86,5.26,5.26,0,0,0-.68-1.12l-.11-.12-.19-.19a4.83,4.83,0,0,0-.53-.44l-.28-.18.3.15a4.18,4.18,0,0,1,.6.39c.07,0,.13.1.2.15l.14.13a4.9,4.9,0,0,1,1.5,3,4.44,4.44,0,0,1-.46,2.54,4.63,4.63,0,0,1-.87,1.17,5,5,0,0,1-1.27.89A5.16,5.16,0,0,1,54.78,209.69Z" style="fill:#343536"/><path d="M49.11,190.26a4.13,4.13,0,0,1,.61.13,1,1,0,0,1,.08-.14,7,7,0,0,1,.61-.77,6.68,6.68,0,0,1,.91-.78,5.92,5.92,0,0,1,1.23-.63,5.33,5.33,0,0,1,1.52-.31,5.72,5.72,0,0,1,1.68.15,5.46,5.46,0,0,1,1.53.69,3.9,3.9,0,0,1,.46.34c1.24-.71,2.57-1.47,4-2.24,3.36-1.88,6.45-3.49,8.7-4.61l2.69-1.32,1-.48-.93.57-2.55,1.56c-2.17,1.3-5.18,3-8.56,4.87-1.35.73-2.64,1.42-3.86,2.05l.26.27a6.16,6.16,0,0,1,.79,1.14,5.66,5.66,0,0,1,.43,1.1,5.94,5.94,0,0,1,.16.8H60a5.81,5.81,0,0,1,1.54.27l.67-.52c3.42-2.62,6.55-4.94,8.85-6.56l3.73-2.6-3.5,2.9c-2.17,1.8-5.23,4.21-8.66,6.81l-.35.26.42.23a4.57,4.57,0,0,1,1.87,2.14,1.42,1.42,0,0,0,0,.16l.9-.85c1.72-1.61,3.36-3.12,4.88-4.48s2.89-2.56,4-3.57,2.12-1.81,2.77-2.37l1-.86c-.08.08-.4.41-.93.93s-1.47,1.5-2.57,2.59-2.4,2.36-3.87,3.77-3.1,2.94-4.83,4.53l-1.22,1.12a2.44,2.44,0,0,1,0,.27,3.59,3.59,0,0,1-.16,1.07,2.13,2.13,0,0,1-.14.35l-.08.16a2.71,2.71,0,0,1-.58.75,2.21,2.21,0,0,1-.32.25l-.09.06.08-.07a1.73,1.73,0,0,0,.26-.3,2.79,2.79,0,0,0,.42-.93l0-.11c0-.08,0-.17,0-.25a2.85,2.85,0,0,0,0-.77,3.05,3.05,0,0,0-.2-.76c-.06-.12-.12-.25-.19-.37a4.76,4.76,0,0,0-1.67-1.67,6.65,6.65,0,0,0-.75-.39,2.87,2.87,0,0,0-.37-.15,2.65,2.65,0,0,0-.37-.12,5.49,5.49,0,0,0-.78-.18h0l-.16,0a5.2,5.2,0,0,0-.87-.05,6.75,6.75,0,0,0-1,.1,6.23,6.23,0,0,0-.79.18,5.29,5.29,0,0,0-.58.21,2.17,2.17,0,0,0-.36.16L56,194a3.57,3.57,0,0,1,.41-.33l.53-.35a6.68,6.68,0,0,1,.79-.34,5.28,5.28,0,0,1,1-.27,5.88,5.88,0,0,1,.77-.08,6.28,6.28,0,0,0-.26-.65,5.89,5.89,0,0,0-.54-1,6.88,6.88,0,0,0-.8-.94c-.15-.13-.3-.26-.46-.38a2.85,2.85,0,0,0-.49-.34l-.13-.08a5.12,5.12,0,0,0-1.32-.55,5.22,5.22,0,0,0-1.41-.13,6.17,6.17,0,0,0-1.32.22,7.93,7.93,0,0,0-1.16.42,7.4,7.4,0,0,0-.93.57,5.28,5.28,0,0,0-.69.59l0,.05a4.14,4.14,0,0,1,.92.44,5.17,5.17,0,0,1,.58.42,3.62,3.62,0,0,1,.39.37,3,3,0,0,1,.22.25.57.57,0,0,0,.08.08s-.05,0-.1-.06l-.27-.18a4.67,4.67,0,0,0-1.09-.46,7.57,7.57,0,0,0-.78-.17l-.48,0h-.4a5.69,5.69,0,0,0-1.95.34,5.28,5.28,0,0,0-1.69,1.06,4.14,4.14,0,0,0-.5.53l-.11.13a.47.47,0,0,0-.06.09,3.86,3.86,0,0,0-.39.57,4.63,4.63,0,0,0-.45,1.1c0,.13,0,.25-.07.32s0,.11,0,.11v-.11c0-.08,0-.19,0-.34a4.84,4.84,0,0,1,.19-1.22,2.41,2.41,0,0,1,.08-.25,3.89,3.89,0,0,0-.47.17,8.27,8.27,0,0,0-1.07.54,8.88,8.88,0,0,0-1.09.82,7,7,0,0,0-1,1.09,7.65,7.65,0,0,0-.79,1.37,6.38,6.38,0,0,0-.45,1.51,7.47,7.47,0,0,0-.1,1.48,7.34,7.34,0,0,0,.16,1.36,7.8,7.8,0,0,0,.36,1.15,5.67,5.67,0,0,0,.39.78c.06-.17.13-.33.2-.49a8.46,8.46,0,0,1,.91-1.6,7.39,7.39,0,0,1,1.06-1.19,7.59,7.59,0,0,1,1-.82c.32-.21.61-.37.84-.5s.43-.19.56-.26a1,1,0,0,1,.18-.08l-.17.1c-.12.08-.3.17-.52.33l-.35.26c-.13.09-.25.22-.39.34a7.58,7.58,0,0,0-.88.9,9.48,9.48,0,0,0-.87,1.23,10.14,10.14,0,0,0-.75,1.55c-.11.32-.22.67-.31,1l0,.11a5,5,0,0,0-.13.69,8.84,8.84,0,0,0-.06,2,8.47,8.47,0,0,0,.45,2,9.9,9.9,0,0,0,.82,1.7,8.83,8.83,0,0,0,1,1.37,9.41,9.41,0,0,0,1.12,1c.27.2.52.38.77.53l-.07.21a7.91,7.91,0,0,1-.88-.48,9,9,0,0,1-1.26-1,10.24,10.24,0,0,1-1.22-1.37,7.6,7.6,0,0,1-1-1.77,7.71,7.71,0,0,1-.47-4.35,7.27,7.27,0,0,1,.29-1.18l0,0a6.67,6.67,0,0,1-.6-.86,7,7,0,0,1-.56-1.16,7.68,7.68,0,0,1-.37-1.45,6.43,6.43,0,0,1,.41-3.44,5.92,5.92,0,0,1,.95-1.55,6.6,6.6,0,0,1,2.53-1.89,6.75,6.75,0,0,1,1.23-.4,5.4,5.4,0,0,1,.72-.12,4.92,4.92,0,0,1,.65-1.08,4.74,4.74,0,0,1,1.89-1.44,4.49,4.49,0,0,1,2.36-.29Z" style="fill:#343536"/><path d="M54.06,215.06a5.6,5.6,0,0,1-1.11.17A5.29,5.29,0,0,1,49.37,214a5.87,5.87,0,0,1-.8-.82,1.92,1.92,0,0,1-.24-.33,3.42,3.42,0,0,0,.28.3,4.63,4.63,0,0,0,.88.69,5.9,5.9,0,0,0,1.49.66,5.62,5.62,0,0,0,2,.22,6.17,6.17,0,0,0,1.89-.46,5.74,5.74,0,0,0,1.4-.81,5.85,5.85,0,0,0,.82-.76,2.22,2.22,0,0,0,.26-.32s-.08.16-.19.37a4.73,4.73,0,0,1-.27.41,3.64,3.64,0,0,1-.42.51,5.11,5.11,0,0,1-2.36,1.43Z" style="fill:#343536"/><path d="M75,189.53c1.71-2,2.81-3.31,3.06-3.61l-.71,1-2.12,2.82c-1.82,2.37-4.39,5.59-7.31,9.06l-1.42,1.69a5.24,5.24,0,0,1,.59,2.29,4.35,4.35,0,0,1-.67,2.43,3.75,3.75,0,0,1-1.19,1.19,5.58,5.58,0,0,1,.54,1,8.32,8.32,0,0,1,.44,1.43,8.09,8.09,0,0,1,.13,1.74A8.26,8.26,0,0,1,66,212.5a7.5,7.5,0,0,1-.89,1.91A6.87,6.87,0,0,1,63.7,216a7.79,7.79,0,0,1-1.64,1,7.66,7.66,0,0,1-1.64.54,8,8,0,0,1-1.47.16h-.12l-.09.41A4.33,4.33,0,0,1,57.67,220a4.25,4.25,0,0,1-1.05.79,4,4,0,0,1-1.35.42,5,5,0,0,1-1.4-.06,4.19,4.19,0,0,1-1.2-.44,4.88,4.88,0,0,1-.92-.65,4.6,4.6,0,0,1-.38-.39,6,6,0,0,1-3.23-.49,6.38,6.38,0,0,1-1.3-.81,5.83,5.83,0,0,1-1-1.15,5.39,5.39,0,0,1-.65-1.26,6.78,6.78,0,0,1-.32-1.23,4.12,4.12,0,0,1-.05-.48l-.06,0-.27-.12.07-.21.25.14,0,0a6.34,6.34,0,0,0,.64.32l.22.1c.24.1.44.15.57.2l.16.06-.17,0c-.13,0-.34-.07-.59-.15l-.14,0a6.29,6.29,0,0,0,.47,1.09,7,7,0,0,0,1.55,1.94,6.68,6.68,0,0,0,1.07.72,7.16,7.16,0,0,0,1.11.48,8.41,8.41,0,0,0,1.09.25h.08c-.07-.12-.14-.23-.19-.34a4.81,4.81,0,0,1-.22-.55,3.7,3.7,0,0,1-.09-.36l0-.12,0,.12c0,.07.07.19.14.33a4.22,4.22,0,0,0,.31.48,3,3,0,0,0,.42.49.46.46,0,0,0,.07.07,4.44,4.44,0,0,0,.56.46l.14.09a4.8,4.8,0,0,0,.91.44,4,4,0,0,0,1,.23,3.25,3.25,0,0,0,1.12-.05,4.91,4.91,0,0,0,1.92-1,5.19,5.19,0,0,0,1.19-1.39l.12-.21.15-.31.06-.14a3.12,3.12,0,0,0,.16-.54,2.22,2.22,0,0,0,.06-.36c0-.08,0-.13,0-.13s0,0,0,.13a2.2,2.2,0,0,1,0,.37,5.63,5.63,0,0,1,0,.6h0a7.71,7.71,0,0,0,1.33-.41,9.3,9.3,0,0,0,1.4-.72,8.18,8.18,0,0,0,1.34-1,8.59,8.59,0,0,0,1.15-1.38,8.87,8.87,0,0,0,.77-1.62,8.1,8.1,0,0,0,.38-1.64,9.12,9.12,0,0,0,.06-1.55,9,9,0,0,0-.17-1.36c-.09-.38-.18-.73-.28-1l-.09-.26a5.78,5.78,0,0,0-.28-.64c-.1-.22-.21-.38-.27-.49l-.11-.17.13.15a3.75,3.75,0,0,1,.38.43c.08.1.16.21.26.32a2.14,2.14,0,0,1,.13.19,4,4,0,0,0,.92-1.18,4.63,4.63,0,0,0,.45-2.15,5.6,5.6,0,0,0-.34-1.81,2.39,2.39,0,0,0-.15-.37,1.59,1.59,0,0,0-.08-.18,7.67,7.67,0,0,0-.92-1.43q-.27-.33-.51-.57l.08-.16c.2.14.42.31.67.52a5.81,5.81,0,0,1,1,1.21l1.28-1.56C70.35,194.91,73,191.79,75,189.53Z" style="fill:#343536"/><path d="M181.12,202.55a3.47,3.47,0,0,1,.86-.25l0-.05a6.34,6.34,0,0,0-.51-.61,5.78,5.78,0,0,0-.73-.62,5.9,5.9,0,0,0-.93-.52,5.58,5.58,0,0,0-1.11-.38,4.63,4.63,0,0,0-1.24-.08,4.38,4.38,0,0,0-1.2.28l-.13.05a3.38,3.38,0,0,0-.47.22l-.45.27a6.39,6.39,0,0,0-.83.7,5.3,5.3,0,0,0-.59.74,5.42,5.42,0,0,0-.32.54,3.85,3.85,0,0,1,.65.17,5.55,5.55,0,0,1,.84.37,6.06,6.06,0,0,1,.62.41,4.19,4.19,0,0,1,.42.38,2.21,2.21,0,0,1,.3.34l-.28.71a3.92,3.92,0,0,1,.86-.48,4.66,4.66,0,0,1,1.8-.39,4.71,4.71,0,0,1,1,.11l.22-1.12.08-.07c.05,0,.12-.11.22-.18a2.92,2.92,0,0,1,.39-.26A4.85,4.85,0,0,1,181.12,202.55Z" style="fill:#fff"/><path d="M175.4,218.16h.07l0,0,.09.18a4,4,0,0,0,.23.34,3.62,3.62,0,0,0,3.1,1.43,3.29,3.29,0,0,0,1.7-.66,3.57,3.57,0,0,0,1.08-1.31,3.18,3.18,0,0,0,.26-.77l0-.2V217l.12,0,.08,0,.12,0,.23,0a3.89,3.89,0,0,0,.91,0,3.45,3.45,0,0,0,1.49-.67,3,3,0,0,0,.89-1.13,3.27,3.27,0,0,0,.28-1.16,3.32,3.32,0,0,0-.54-2,.22.22,0,0,0-.06-.07l0,.08a2.63,2.63,0,0,1,.19.38,3.15,3.15,0,0,1,.17,1.57,3,3,0,0,1-.34,1.06,2.64,2.64,0,0,1-.86.94,3,3,0,0,1-1.34.5,3.39,3.39,0,0,1-.78,0l-.19,0-.14,0-.08,0-.35-.12-.39-.17,0,.65c0,.06,0,.11,0,.16v.09l0,.16a2.52,2.52,0,0,1-.25.62,3,3,0,0,1-.91,1.05,2.61,2.61,0,0,1-1.35.49,2.77,2.77,0,0,1-1.47-.32,3.07,3.07,0,0,1-1-.83,2.46,2.46,0,0,1-.17-.27l-.08-.14a.62.62,0,0,0-.06-.12l-.14-.33s0-.06,0-.06h-.07l-.3,0-.27,0h-.16a3.68,3.68,0,0,1-2.32-.69,3.79,3.79,0,0,1-1.39-1.71,3.56,3.56,0,0,1-.16-2,4.14,4.14,0,0,1,.64-1.54,3.83,3.83,0,0,1,.74-.86l.11-.1.19-.13a5,5,0,0,1,.52-.31l.27-.11-.29.08a5.29,5.29,0,0,0-.57.25l-.19.11-.14.09a4.22,4.22,0,0,0-.88.8,4.43,4.43,0,0,0-.84,1.62,3.85,3.85,0,0,0,0,2.25,4,4,0,0,0,.58,1.13,4.38,4.38,0,0,0,1,.94,4.44,4.44,0,0,0,2.75.86h.26ZM180,222a4.16,4.16,0,0,1-.85.47,5,5,0,0,1-1.38.37,5.27,5.27,0,0,1-1.71-.09,5.51,5.51,0,0,1-1.56-.66,5,5,0,0,1-1.1-.9,4.83,4.83,0,0,1-.6-.77,3.3,3.3,0,0,1-.18-.31l.12.34a3,3,0,0,0,.17.4,5.68,5.68,0,0,0,.29.5,4.44,4.44,0,0,0,1.05,1.09,4.25,4.25,0,0,0,.78.47,5.33,5.33,0,0,0,.93.3,4.5,4.5,0,0,0,1.87,0,4.65,4.65,0,0,0,1.4-.55,4.43,4.43,0,0,0,.8-.6,2.13,2.13,0,0,0,.26-.25Zm.25-18.82a3.74,3.74,0,0,1,1-.24,4.93,4.93,0,0,1,.69,0l.42,0h.08l.27,0a5.1,5.1,0,0,1,1.64.57,4.39,4.39,0,0,1,1.3,1.15,4.5,4.5,0,0,1,.36.53l.07.12.05.09a3.68,3.68,0,0,1,.24.55,3.9,3.9,0,0,1,.24,1c0,.13,0,.23,0,.29v.1a.65.65,0,0,0,0-.1,2.5,2.5,0,0,0,0-.28,4.24,4.24,0,0,0,0-1.09,2.23,2.23,0,0,0,0-.23l.38.22a7.28,7.28,0,0,1,.85.62,6.82,6.82,0,0,1,.83.86,5.93,5.93,0,0,1,.71,1.08,7.54,7.54,0,0,1,.49,1.28,5.89,5.89,0,0,1,.16,1.37,6.74,6.74,0,0,1-.11,1.29,6.44,6.44,0,0,1-.33,1.15,6.85,6.85,0,0,1-.48.94,4.49,4.49,0,0,1-.44.62c0-.16-.06-.31-.1-.46a7.18,7.18,0,0,0-.56-1.5,7,7,0,0,0-.75-1.18,7.14,7.14,0,0,0-.75-.84c-.25-.23-.48-.41-.66-.55a4.39,4.39,0,0,0-.44-.3l-.15-.1.14.11c.08.09.23.19.39.36l.27.27a3.6,3.6,0,0,1,.29.35,6.13,6.13,0,0,1,.63.9,9.26,9.26,0,0,1,.58,1.18,8.65,8.65,0,0,1,.42,1.44,9.26,9.26,0,0,1,.13.92.38.38,0,0,1,0,.1c0,.2,0,.41,0,.62a8.85,8.85,0,0,1-.23,1.73,7.47,7.47,0,0,1-.67,1.62,7.93,7.93,0,0,1-1,1.35,7.07,7.07,0,0,1-1.09,1,9,9,0,0,1-1.11.72l-.74.35-.23.08,0,0a4.86,4.86,0,0,1-.6.18l-.2.05c-.22.06-.4.07-.52.1l-.15,0h.15c.12,0,.3,0,.54,0l.12,0a6,6,0,0,1-.55.87,6.19,6.19,0,0,1-1.62,1.46,5.86,5.86,0,0,1-1,.47,6.59,6.59,0,0,1-1,.25,6.75,6.75,0,0,1-1,.07h-.07a2.47,2.47,0,0,0,.21-.27c.12-.17.2-.32.27-.44l.13-.3,0-.1-.06.09a2.11,2.11,0,0,1-.17.27,3.4,3.4,0,0,1-.33.37,3.29,3.29,0,0,1-.43.37l-.07.05a4.69,4.69,0,0,1-.55.31l-.14.06a3.94,3.94,0,0,1-.84.25,3.59,3.59,0,0,1-.93.05,3,3,0,0,1-1-.2,4.37,4.37,0,0,1-1.51-1.1,4.69,4.69,0,0,1-.83-1.37,1.46,1.46,0,0,1-.07-.19c0-.11-.06-.2-.09-.3l0-.12a3.82,3.82,0,0,1-.07-.49,1.5,1.5,0,0,1,0-.32v-.11l0,.1a1.9,1.9,0,0,0-.09.32,4.19,4.19,0,0,0-.1.51h0a6.4,6.4,0,0,1-1.08-.54,9,9,0,0,1-1.11-.82,6.54,6.54,0,0,1-1-1.09,7,7,0,0,1-.8-1.35,7.19,7.19,0,0,1-.53-3,7.12,7.12,0,0,1,.16-1.34,9.31,9.31,0,0,1,.34-1.15c.13-.31.26-.6.39-.85a2.12,2.12,0,0,0,.11-.21,5.06,5.06,0,0,1,.33-.51c.12-.18.24-.29.3-.38l.12-.13-.13.1c-.09.08-.24.17-.39.32l-.27.25-.14.14a3.41,3.41,0,0,1-.62-1.15,4,4,0,0,1-.09-1.92,4.56,4.56,0,0,1,.55-1.5,1.92,1.92,0,0,1,.18-.31.71.71,0,0,1,.1-.14,6.75,6.75,0,0,1,1-1.1,5.68,5.68,0,0,1,.53-.42,2.33,2.33,0,0,0,.63,1l.07.07a.33.33,0,0,0-.06-.08,1.91,1.91,0,0,1-.18-.29,2.41,2.41,0,0,1-.23-.86.41.41,0,0,1,0-.11v-.22a2.56,2.56,0,0,1,.12-.65,2.21,2.21,0,0,1,.28-.63,1.94,1.94,0,0,1,.21-.29,4.13,4.13,0,0,1,1.67-1.21,6.35,6.35,0,0,1,.7-.23,2.21,2.21,0,0,1,.35-.08l.33,0a5.48,5.48,0,0,1,.7,0h.18a4.54,4.54,0,0,1,.76.08,5.25,5.25,0,0,1,.81.22,3.64,3.64,0,0,1,.65.27l.48.25a2.31,2.31,0,0,1,.29.2l.08.06-.28.71a4.31,4.31,0,0,0-.4.32,3.6,3.6,0,0,0-.39.4,2.83,2.83,0,0,0-.27.33l-.21.29.25-.24a5.12,5.12,0,0,1,.78-.57,5.92,5.92,0,0,1,1.26-.59,5.63,5.63,0,0,1,1.65-.3,5.94,5.94,0,0,1,1.67.19,5,5,0,0,1,1.29.55,5.37,5.37,0,0,1,.78.56l.26.25-.22-.28a4.74,4.74,0,0,0-.71-.68,5.27,5.27,0,0,0-1.28-.74,5,5,0,0,0-.8-.25l.22-1.12.09,0A2.27,2.27,0,0,1,180.22,203.18Zm-.7,5.72a3.14,3.14,0,0,0-.53.1,3.24,3.24,0,0,0-.37.12l-.29.15.31-.06a3.46,3.46,0,0,1,.37,0,4.79,4.79,0,0,1,.49,0,4.71,4.71,0,0,1,.55.16,3.56,3.56,0,0,1,.59.29,3,3,0,0,1,1,1,3.08,3.08,0,0,1,.32.66,2.78,2.78,0,0,1,.12.68,1.64,1.64,0,0,1-.36,1.09,1.54,1.54,0,0,1-.69.47,1.21,1.21,0,0,1-.31.06h.08a.93.93,0,0,0,.25,0,1.56,1.56,0,0,0,.86-.34,1.9,1.9,0,0,0,.68-1.27,2.57,2.57,0,0,0-.37-1.73,3,3,0,0,0-1.35-1.14,2.9,2.9,0,0,0-.73-.22A3.74,3.74,0,0,0,179.52,208.9Z" style="fill:#fff"/><path d="M176.85,204.74a3.92,3.92,0,0,0-.86.48,4.31,4.31,0,0,0-.4.32,3.6,3.6,0,0,0-.39.4,2.83,2.83,0,0,0-.27.33l-.21.29.25-.24a5.12,5.12,0,0,1,.78-.57,5.92,5.92,0,0,1,1.26-.59,5.63,5.63,0,0,1,1.65-.3,5.94,5.94,0,0,1,1.67.19,5,5,0,0,1,1.29.55,5.37,5.37,0,0,1,.78.56l.26.25-.22-.28a4.74,4.74,0,0,0-.71-.68,5.27,5.27,0,0,0-1.28-.74,5,5,0,0,0-.8-.25,4.71,4.71,0,0,0-1-.11A4.66,4.66,0,0,0,176.85,204.74Z" style="fill:#343536"/><path d="M181.08,213.63a1.56,1.56,0,0,0,.86-.34,1.9,1.9,0,0,0,.68-1.27,2.57,2.57,0,0,0-.37-1.73,3,3,0,0,0-1.35-1.14,2.9,2.9,0,0,0-.73-.22,3.74,3.74,0,0,0-.65,0,3.14,3.14,0,0,0-.53.1,3.24,3.24,0,0,0-.37.12l-.29.15.31-.06a3.46,3.46,0,0,1,.37,0,4.79,4.79,0,0,1,.49,0,4.71,4.71,0,0,1,.55.16,3.56,3.56,0,0,1,.59.29,3,3,0,0,1,1,1,3.08,3.08,0,0,1,.32.66,2.78,2.78,0,0,1,.12.68,1.64,1.64,0,0,1-.36,1.09,1.54,1.54,0,0,1-.69.47,1.21,1.21,0,0,1-.31.06h.08A.93.93,0,0,0,181.08,213.63Z" style="fill:#343536"/><path d="M175.14,218.18h.33l0,0,.09.18a4,4,0,0,0,.23.34,3.62,3.62,0,0,0,3.1,1.43,3.29,3.29,0,0,0,1.7-.66,3.57,3.57,0,0,0,1.08-1.31,3.18,3.18,0,0,0,.26-.77l0-.2V217l.12,0,.08,0,.12,0,.23,0a3.89,3.89,0,0,0,.91,0,3.45,3.45,0,0,0,1.49-.67,3,3,0,0,0,.89-1.13,3.27,3.27,0,0,0,.28-1.16,3.32,3.32,0,0,0-.54-2,.22.22,0,0,0-.06-.07l0,.08a2.63,2.63,0,0,1,.19.38,3.15,3.15,0,0,1,.17,1.57,3,3,0,0,1-.34,1.06,2.64,2.64,0,0,1-.86.94,3,3,0,0,1-1.34.5,3.39,3.39,0,0,1-.78,0l-.19,0-.14,0-.08,0-.35-.12-.39-.17,0,.65c0,.06,0,.11,0,.16v.09l0,.16a2.52,2.52,0,0,1-.25.62,3,3,0,0,1-.91,1.05,2.61,2.61,0,0,1-1.35.49,2.77,2.77,0,0,1-1.47-.32,3.07,3.07,0,0,1-1-.83,2.46,2.46,0,0,1-.17-.27l-.08-.14a.62.62,0,0,0-.06-.12l-.14-.33s0-.06,0-.06h-.07l-.3,0-.27,0h-.16a3.68,3.68,0,0,1-2.32-.69,3.79,3.79,0,0,1-1.39-1.71,3.56,3.56,0,0,1-.16-2,4.14,4.14,0,0,1,.64-1.54,3.83,3.83,0,0,1,.74-.86l.11-.1.19-.13a5,5,0,0,1,.52-.31l.27-.11-.29.08a5.29,5.29,0,0,0-.57.25l-.19.11-.14.09a4.22,4.22,0,0,0-.88.8,4.43,4.43,0,0,0-.84,1.62,3.85,3.85,0,0,0,0,2.25,4,4,0,0,0,.58,1.13,4.38,4.38,0,0,0,1,.94A4.44,4.44,0,0,0,175.14,218.18Z" style="fill:#343536"/><path d="M167.19,194c1.4,1.16,3.05,2.48,4.85,3.87,1.05.82,2.07,1.59,3,2.31l-.26.2a4.85,4.85,0,0,0-.84.86,5.4,5.4,0,0,0-.53.9,5.08,5.08,0,0,0-.25.66l-.13,0a5.19,5.19,0,0,0-1.36,0l-.51-.55c-2.11-2.25-4.09-4.29-5.7-5.9-.1.1-.2.2-.31.29,1.52,1.7,3.45,3.79,5.57,6l.27.27-.39.14a4,4,0,0,0-1.91,1.58.83.83,0,0,0-.07.13l-.66-.86c-1.25-1.62-2.45-3.16-3.57-4.55-.38-.47-.75-.91-1.1-1.35l-.27.18-.18.08,1.09,1.46c1.06,1.42,2.26,3,3.52,4.57l.9,1.14c0,.08,0,.16,0,.23a3.37,3.37,0,0,0,0,.95,1.65,1.65,0,0,0,.07.32l.05.15a2.33,2.33,0,0,0,.63,1l.07.07a.33.33,0,0,0-.06-.08,1.91,1.91,0,0,1-.18-.29,2.41,2.41,0,0,1-.23-.86.41.41,0,0,1,0-.11v-.22a2.56,2.56,0,0,1,.12-.65,2.21,2.21,0,0,1,.28-.63,1.94,1.94,0,0,1,.21-.29,4.13,4.13,0,0,1,1.67-1.21,6.35,6.35,0,0,1,.7-.23,2.21,2.21,0,0,1,.35-.08l.33,0a5.48,5.48,0,0,1,.7,0h.18a4.54,4.54,0,0,1,.76.08,5.25,5.25,0,0,1,.81.22,3.64,3.64,0,0,1,.65.27l.48.25a2.31,2.31,0,0,1,.29.2l.08.06a2.21,2.21,0,0,0-.3-.34,4.19,4.19,0,0,0-.42-.38,6.06,6.06,0,0,0-.62-.41,5.55,5.55,0,0,0-.84-.37,3.85,3.85,0,0,0-.65-.17,5.42,5.42,0,0,1,.32-.54,5.3,5.3,0,0,1,.59-.74,6.39,6.39,0,0,1,.83-.7l.45-.27a3.38,3.38,0,0,1,.47-.22l.13-.05a4.38,4.38,0,0,1,1.2-.28,4.63,4.63,0,0,1,1.24.08,5.58,5.58,0,0,1,1.11.38,5.9,5.9,0,0,1,.93.52,5.78,5.78,0,0,1,.73.62,6.34,6.34,0,0,1,.51.61l0,.05a3.47,3.47,0,0,0-.86.25,4.85,4.85,0,0,0-.56.28,2.92,2.92,0,0,0-.39.26c-.1.07-.17.14-.22.18l-.08.07.09,0a2.27,2.27,0,0,1,.26-.12,3.74,3.74,0,0,1,1-.24,4.93,4.93,0,0,1,.69,0l.42,0h.08l.27,0a5.1,5.1,0,0,1,1.64.57,4.39,4.39,0,0,1,1.3,1.15,4.5,4.5,0,0,1,.36.53l.07.12.05.09a3.68,3.68,0,0,1,.24.55,3.9,3.9,0,0,1,.24,1c0,.13,0,.23,0,.29v.1a.65.65,0,0,0,0-.1,2.5,2.5,0,0,0,0-.28,4.24,4.24,0,0,0,0-1.09,2.23,2.23,0,0,0,0-.23l.38.22a7.28,7.28,0,0,1,.85.62,6.82,6.82,0,0,1,.83.86,5.93,5.93,0,0,1,.71,1.08,7.54,7.54,0,0,1,.49,1.28,5.89,5.89,0,0,1,.16,1.37,6.74,6.74,0,0,1-.11,1.29,6.44,6.44,0,0,1-.33,1.15,6.85,6.85,0,0,1-.48.94,4.49,4.49,0,0,1-.44.62c0-.16-.06-.31-.1-.46a7.18,7.18,0,0,0-.56-1.5,7,7,0,0,0-.75-1.18,7.14,7.14,0,0,0-.75-.84c-.25-.23-.48-.41-.66-.55a4.39,4.39,0,0,0-.44-.3l-.15-.1.14.11c.08.09.23.19.39.36l.27.27a3.6,3.6,0,0,1,.29.35,6.13,6.13,0,0,1,.63.9,9.26,9.26,0,0,1,.58,1.18,8.65,8.65,0,0,1,.42,1.44,9.26,9.26,0,0,1,.13.92.38.38,0,0,1,0,.1c0,.2,0,.41,0,.62a8.85,8.85,0,0,1-.23,1.73,7.47,7.47,0,0,1-.67,1.62,7.93,7.93,0,0,1-1,1.35,7.07,7.07,0,0,1-1.09,1,9,9,0,0,1-1.11.72l-.74.35,0,.19c.26-.08.54-.17.83-.29a7.68,7.68,0,0,0,1.22-.65,9.21,9.21,0,0,0,1.24-1,7,7,0,0,0,1.11-1.39,7.24,7.24,0,0,0,.77-1.77,7,7,0,0,0,.25-1.91,6.15,6.15,0,0,0-.09-1.06s0,0,0,0a4.51,4.51,0,0,0,.64-.66,6.2,6.2,0,0,0,.65-.92,6.57,6.57,0,0,0,.52-1.2,5.41,5.41,0,0,0,.27-1.43,5.78,5.78,0,0,0-.14-1.59,5.59,5.59,0,0,0-.59-1.47,6.63,6.63,0,0,0-.9-1.16,6.32,6.32,0,0,0-1-.82,5.66,5.66,0,0,0-1-.52l-.61-.21a4,4,0,0,0-.41-1,4.21,4.21,0,0,0-1.42-1.5,4.42,4.42,0,0,0-1-.44,3.94,3.94,0,0,0-1-.14,3.17,3.17,0,0,0-.54,0l-.06-.13a4.7,4.7,0,0,0-.41-.74,5.13,5.13,0,0,0-1.65-1.53,4.92,4.92,0,0,0-1.27-.48,5.41,5.41,0,0,0-1.46-.1,4.65,4.65,0,0,0-1.42.38,2.3,2.3,0,0,0-.44.23c-1-.79-2-1.63-3.11-2.5-1.81-1.44-3.53-2.74-5-3.84C167.33,193.7,167.26,193.85,167.19,194Z" style="fill:#343536"/><path d="M175,222.91a5.33,5.33,0,0,0,.93.3,4.5,4.5,0,0,0,1.87,0,4.65,4.65,0,0,0,1.4-.55,4.43,4.43,0,0,0,.8-.6,2.13,2.13,0,0,0,.26-.25L180,222a4.16,4.16,0,0,1-.85.47,5,5,0,0,1-1.38.37,5.27,5.27,0,0,1-1.71-.09,5.51,5.51,0,0,1-1.56-.66,5,5,0,0,1-1.1-.9,4.83,4.83,0,0,1-.6-.77,3.3,3.3,0,0,1-.18-.31l.12.34a3,3,0,0,0,.17.4,5.68,5.68,0,0,0,.29.5,4.44,4.44,0,0,0,1.05,1.09A4.25,4.25,0,0,0,175,222.91Z" style="fill:#343536"/><path d="M161.15,198.92l-.32.07c1.19,2.19,2.76,5,4.54,7.94l1,1.66a4.44,4.44,0,0,0-.84,1.88,3.81,3.81,0,0,0,.24,2.19,3.21,3.21,0,0,0,.86,1.19,5.83,5.83,0,0,0-.62.82,6.83,6.83,0,0,0-.57,1.18,7.13,7.13,0,0,0-.36,1.48,6.14,6.14,0,0,0,1.49,5,7,7,0,0,0,1.28,1.12,7.43,7.43,0,0,0,1.33.7,8.73,8.73,0,0,0,1.25.34l.1,0c0,.12,0,.24,0,.37a4.4,4.4,0,0,0,.2.86,3.67,3.67,0,0,0,1.25,1.72,3.72,3.72,0,0,0,1.11.55,3.92,3.92,0,0,0,1.21.14,3.46,3.46,0,0,0,1.09-.2,4.1,4.1,0,0,0,.89-.44,3.89,3.89,0,0,0,.39-.28,5.34,5.34,0,0,0,1.62.22,5.9,5.9,0,0,0,1.22-.18,5.54,5.54,0,0,0,1.24-.52,5.17,5.17,0,0,0,1.05-.84,4.87,4.87,0,0,0,.74-1,5.51,5.51,0,0,0,.45-1c0-.14.08-.28.11-.41l0,0,.25-.06,0-.19-.23.08,0,0a4.86,4.86,0,0,1-.6.18l-.2.05c-.22.06-.4.07-.52.1l-.15,0h.15c.12,0,.3,0,.54,0l.12,0a6,6,0,0,1-.55.87,6.19,6.19,0,0,1-1.62,1.46,5.86,5.86,0,0,1-1,.47,6.59,6.59,0,0,1-1,.25,6.75,6.75,0,0,1-1,.07h-.07a2.47,2.47,0,0,0,.21-.27c.12-.17.2-.32.27-.44l.13-.3,0-.1-.06.09a2.11,2.11,0,0,1-.17.27,3.4,3.4,0,0,1-.33.37,3.29,3.29,0,0,1-.43.37l-.07.05a4.69,4.69,0,0,1-.55.31l-.14.06a3.94,3.94,0,0,1-.84.25,4.08,4.08,0,0,1-.93.06,3.24,3.24,0,0,1-1-.21,4.37,4.37,0,0,1-1.51-1.1,4.69,4.69,0,0,1-.83-1.37,1.46,1.46,0,0,1-.07-.19c0-.11-.06-.2-.09-.3l0-.12a3.82,3.82,0,0,1-.07-.49,1.5,1.5,0,0,1,0-.32v-.11l0,.1a1.9,1.9,0,0,0-.09.32,4.19,4.19,0,0,0-.1.51h0a6.4,6.4,0,0,1-1.08-.54,9,9,0,0,1-1.11-.82,6.54,6.54,0,0,1-1-1.09,7,7,0,0,1-.8-1.35,7.19,7.19,0,0,1-.53-3,7.12,7.12,0,0,1,.16-1.34,9.31,9.31,0,0,1,.34-1.15c.13-.31.26-.6.39-.85a2.12,2.12,0,0,0,.11-.21,5.06,5.06,0,0,1,.33-.51c.12-.18.24-.29.3-.38l.12-.13-.13.1c-.09.08-.24.17-.39.32l-.27.25-.14.14a3.41,3.41,0,0,1-.62-1.15,4,4,0,0,1-.09-1.92,4.56,4.56,0,0,1,.55-1.5,1.92,1.92,0,0,1,.18-.31.71.71,0,0,1,.1-.14,6.75,6.75,0,0,1,1-1.1,5.68,5.68,0,0,1,.53-.42l-.05-.15c-.19.09-.41.21-.65.35a5.24,5.24,0,0,0-1.06.9l-.88-1.52C164.07,203.72,162.44,201,161.15,198.92Z" style="fill:#343536"/><path d="M244.81,143.58c.29,1.75.73,3.52,1.12,5.26,1.8.13,3.59.33,5.37.57a35.46,35.46,0,0,0-4.78,2.39,15.06,15.06,0,0,1,.16,4.21c-.74-.63-1.77-1.55-3-2.55-1.37.82-2.56,1.55-3.39,2a11.62,11.62,0,0,1,1-4,36.21,36.21,0,0,0-4.12-2.9c1.8,0,3.6,0,5.4.07A49.36,49.36,0,0,0,244.81,143.58Z" style="fill:#e96347"/><path d="M240.22,155.71l0,0a.31.31,0,0,1-.15-.27,11.29,11.29,0,0,1,.93-3.85,34.4,34.4,0,0,0-3.91-2.73.3.3,0,0,1-.14-.35.3.3,0,0,1,.29-.23c1.74,0,3.49,0,5.22.06l.1-.21a46.21,46.21,0,0,0,2-4.63.31.31,0,0,1,.32-.21.31.31,0,0,1,.28.26c.22,1.35.54,2.73.85,4.06.07.32.14.64.22.95,1.72.14,3.45.33,5.15.56a.32.32,0,0,1,.27.27.3.3,0,0,1-.2.33,34.78,34.78,0,0,0-4.55,2.26,14.81,14.81,0,0,1,.13,4.09.31.31,0,0,1-.19.25.33.33,0,0,1-.32-.05l-1.13-1c-.5-.44-1-.92-1.65-1.43-1.3.79-2.42,1.46-3.22,1.86A.3.3,0,0,1,240.22,155.71Zm-1.93-6.84c.94.61,2,1.39,3.23,2.36a.31.31,0,0,1,.1.36,12.35,12.35,0,0,0-.93,3.3c.73-.4,1.66-1,2.71-1.6l.17-.1a.3.3,0,0,1,.36,0l1.83,1.58.67.59a15.62,15.62,0,0,0-.22-3.54.32.32,0,0,1,.16-.32,40.29,40.29,0,0,1,3.75-2c-1.4-.18-2.81-.32-4.21-.43a.3.3,0,0,1-.28-.24l-.27-1.17c-.22-1-.45-2-.65-3-.48,1.21-1.07,2.44-1.63,3.63l-.19.39a.34.34,0,0,1-.3.18C241.17,148.89,239.73,148.86,238.29,148.87Z" style="fill:#343536"/><polygon points="237.34 144.26 240.26 146.6 237.6 143.39 237.34 144.26" style="fill:#343536"/><polygon points="238.61 143.29 240.7 146.56 239.19 143.24 238.61 143.29" style="fill:#343536"/><polygon points="253.21 153.77 248.97 152.8 253.19 154.74 253.21 153.77" style="fill:#343536"/><polygon points="252.03 155.29 248.46 153.04 251.36 155.61 252.03 155.29" style="fill:#343536"/><polygon points="247.56 143.02 246.82 147.72 248.54 142.15 247.56 143.02" style="fill:#343536"/><polygon points="252.07 145.04 247.34 148.04 251.48 146.19 252.07 145.04" style="fill:#343536"/><polygon points="235.68 152.49 235.31 153.05 239.93 152.11 235.68 152.49" style="fill:#343536"/><polygon points="239.5 152.67 235.87 154.58 236.64 154.81 239.5 152.67" style="fill:#343536"/><polygon points="241.54 158.48 241.77 159.08 243.58 154.94 241.54 158.48" style="fill:#343536"/><polygon points="243.78 155.58 243.26 159.47 243.86 158.99 243.78 155.58" style="fill:#343536"/><path d="M103.43,201.44c-1.68,1.8-3.25,3.78-4.82,5.68,1.37,2.09,2.68,4.21,3.92,6.38a50,50,0,0,0-6.67-3.22A21.61,21.61,0,0,1,91.37,214c.07-1.35.2-3.27.3-5.41-2.06-.8-3.88-1.49-5-2.05a16.08,16.08,0,0,1,5.17-2.27,49.54,49.54,0,0,0-.3-7q2.34,2.94,4.5,6A68.77,68.77,0,0,0,103.43,201.44Z" style="fill:#f6d64b"/><path d="M86.23,206.68s0-.05,0-.07a.43.43,0,0,1,.18-.39,15.55,15.55,0,0,1,5-2.24,45.52,45.52,0,0,0-.31-6.6.43.43,0,0,1,.76-.33c1.5,1.88,3,3.82,4.35,5.77l.32-.06a64,64,0,0,0,6.78-1.73.43.43,0,0,1,.45.7c-1.29,1.38-2.53,2.9-3.74,4.37l-.86,1.05c1.31,2,2.58,4.07,3.77,6.13a.44.44,0,0,1-.08.52.41.41,0,0,1-.52.06A47.56,47.56,0,0,0,96,210.79a21.16,21.16,0,0,1-4.38,3.61.41.41,0,0,1-.44,0A.43.43,0,0,1,91,214c0-.59.06-1.29.11-2.07s.11-1.94.17-3c-2-.76-3.66-1.42-4.78-2A.4.4,0,0,1,86.23,206.68Zm5.86-7.92c.13,1.55.18,3.38.15,5.55a.43.43,0,0,1-.31.41,17.31,17.31,0,0,0-4.42,1.78c1.07.46,2.48,1,4.07,1.62l.25.1a.42.42,0,0,1,.27.42C92,209.85,92,211,91.92,212c0,.44,0,.86-.07,1.24a22.32,22.32,0,0,0,3.7-3.24.42.42,0,0,1,.47-.1c2.18.9,3.92,1.69,5.34,2.45-1-1.68-2-3.35-3.11-5a.44.44,0,0,1,0-.51l1.06-1.29c.88-1.08,1.79-2.18,2.72-3.25-1.74.5-3.58.9-5.37,1.29l-.59.12a.42.42,0,0,1-.44-.17C94.52,201.94,93.32,200.33,92.09,198.76Z" style="fill:#343536"/><path d="M75.07,33.61c1.5,1.83,3.2,3.57,4.81,5.32q3.24-1.56,6.58-2.93a47.2,47.2,0,0,0-3.92,6,20.38,20.38,0,0,1,3,4.75c-1.28-.23-3.09-.6-5.12-1-1,1.87-1.91,3.51-2.59,4.54a15.26,15.26,0,0,1-1.5-5.22,47.89,47.89,0,0,0-6.7-.6c2.06-1.24,4.15-2.41,6.28-3.53A65.84,65.84,0,0,0,75.07,33.61Z" style="fill:#1183c6"/><path d="M228.29,121.29c-1.39,1.92-2.66,4-3.94,6q2.33,2.75,4.49,5.63a48.78,48.78,0,0,0-6.75-2.3,20.26,20.26,0,0,1-3.85,4.11c-.09-1.3-.19-3.14-.34-5.2-2.07-.52-3.88-1-5-1.37a15.44,15.44,0,0,1,4.67-2.77,47,47,0,0,0-1.1-6.63c1.71,1.68,3.38,3.41,5,5.19A65.23,65.23,0,0,0,228.29,121.29Z" style="fill:#1183c6"/></g></svg>