<svg xmlns="http://www.w3.org/2000/svg" width="275" height="275" viewBox="0 0 275 275"><title>_</title><path d="M76.34,212.89a4.67,4.67,0,0,0-.22,1.41,5.54,5.54,0,0,0,2.76,4.84,6.7,6.7,0,0,0,6.11.47h0a9.45,9.45,0,0,0,2.43-1.35,5.28,5.28,0,0,1-2.11,1.59c.14.11.28.2.42.29a7.47,7.47,0,0,0,9.84-1.69,6.34,6.34,0,0,0,1.11-5.36,3.82,3.82,0,0,0,.41-3.74A2.36,2.36,0,0,0,96,208.28c-.32,1-.57,1.18-.57,1.18a5.18,5.18,0,0,0,.34-1.39,4.94,4.94,0,0,0-2.35-4.49,6,6,0,0,0-4.73-.57c.39.82.26,1.11.26,1.11a3.14,3.14,0,0,0-.7-1.12h0a7,7,0,0,0-9.17,1.46,4.21,4.21,0,0,0-2.93.81,5.89,5.89,0,0,0-1.62,7.12,4.84,4.84,0,0,0,1.33,1.69C76.09,213.1,76.34,212.89,76.34,212.89Z" style="fill:#ffd263"/><path d="M83.64,200a6.47,6.47,0,0,1,5.2.88c-1-1.08-2.84-1.57-5.06-1.14a9.21,9.21,0,0,0-4.38,2.11A10.7,10.7,0,0,1,83.64,200Z" style="fill:#343844"/><path d="M83.39,198.88a4.51,4.51,0,0,1,2.81,0,3.71,3.71,0,0,0-2.75-.16,5.78,5.78,0,0,0-2.22,1.1A6.31,6.31,0,0,1,83.39,198.88Z" style="fill:#343844"/><path d="M98.86,209.11a5.38,5.38,0,0,1-.27,3.46,4.84,4.84,0,0,0,.45-3.45,2.87,2.87,0,0,0-1.52-1.84A3.47,3.47,0,0,1,98.86,209.11Z" style="fill:#343844"/><path d="M81.83,205.63a3.41,3.41,0,0,1,3-.24c-.46-.44-1.45-.63-2.83,0a10.58,10.58,0,0,0-3,2.15A11.19,11.19,0,0,1,81.83,205.63Z" style="fill:#343844"/><path d="M99.55,208.53a2.93,2.93,0,0,1,.15,1.68,2.78,2.78,0,0,0,0-1.71,2,2,0,0,0-.78-.92A2.11,2.11,0,0,1,99.55,208.53Z" style="fill:#343844"/><path d="M94,210.25a5.36,5.36,0,0,1-.53,2,4.88,4.88,0,0,0,.63-1.94,3.26,3.26,0,0,0-.2-1.45A3.88,3.88,0,0,1,94,210.25Z" style="fill:#343844"/><path d="M97.14,213.31a4.35,4.35,0,0,0,.59-4.11,2.43,2.43,0,0,0-1.36-1.26,5.26,5.26,0,0,0-2.49-4.84,6.21,6.21,0,0,0-5.29-.51,1,1,0,0,0-.16-.12,7.6,7.6,0,0,0-9.85,1.71,3.87,3.87,0,0,0-3,.68,6.2,6.2,0,0,0-1.71,7.53,5.72,5.72,0,0,0,1.83,2.1,5.68,5.68,0,0,0,2.73,5.06,7.11,7.11,0,0,0,6.45.48,6.17,6.17,0,0,0,.81.56,7.88,7.88,0,0,0,10.39-1.76A6.33,6.33,0,0,0,97.14,213.31Zm-1.57,5.12a7.49,7.49,0,0,1-9.85,1.69,7,7,0,0,1-.74-.53,6.76,6.76,0,0,1-6.11-.47,5.64,5.64,0,0,1-2.76-4.88,4.91,4.91,0,0,1-1.58-1.88,5.91,5.91,0,0,1,1.63-7.13,4.09,4.09,0,0,1,2.94-.81A7,7,0,0,1,88.27,203a.91.91,0,0,0,.16.13,5.94,5.94,0,0,1,5,.47,5,5,0,0,1,2.35,4.58,2.36,2.36,0,0,1,1.27,1.2,3.73,3.73,0,0,1-.39,3.73A6.42,6.42,0,0,1,95.57,218.43Z" style="fill:#343844"/><path d="M84.43,220.22c2.39-1,3-2,3-2a10,10,0,0,1-2.78,1.48Z" style="fill:#343844"/><path d="M75.77,214.62c.22-1.48.55-1.75.55-1.75a5.42,5.42,0,0,0-.21,1.55Z" style="fill:#343844"/><path d="M88.49,202.61c.65,1.09.48,1.48.48,1.48a3,3,0,0,0-.72-1.11Z" style="fill:#343844"/><path d="M96.18,207.68c-.4,1.51-.74,1.74-.74,1.74a5.94,5.94,0,0,0,.37-1.58Z" style="fill:#343844"/><polygon points="94.76 225.19 94.73 223.82 96.11 223.73 95.06 223.19 96.38 222.06 94.92 222.67 95.39 221.17 94.37 222.56 93.74 221.57 93.78 222.94 92.39 223.02 93.44 223.59 92.13 224.69 93.59 224.09 93.11 225.59 94.12 224.2 94.76 225.19" style="fill:#343844"/><polygon points="73.61 219.24 73.59 218.18 74.5 218.65 73.81 217.83 74.68 217.48 73.71 217.38 74.03 216.42 73.37 217.1 72.96 216.09 72.97 217.15 72.05 216.68 72.75 217.51 71.88 217.87 72.84 217.96 72.53 218.91 73.19 218.23 73.61 219.24" style="fill:#343844"/><polygon points="93.04 206.94 93.03 206.41 93.49 206.65 93.14 206.24 93.57 206.07 93.1 206.02 93.26 205.54 92.92 205.87 92.72 205.37 92.73 205.9 92.28 205.67 92.62 206.08 92.19 206.25 92.65 206.3 92.51 206.78 92.84 206.44 93.04 206.94" style="fill:#343844"/><polygon points="211.54 225.09 206.47 222.36 205.32 227.97 203.95 222.53 199 225.93 202.13 220.96 196.29 220.15 202.09 218.54 198.79 214 203.85 216.72 205 211.1 206.37 216.55 211.31 213.15 208.19 218.13 214.01 218.93 208.24 220.55 211.54 225.09" style="fill:#343844"/><polygon points="209.82 223.69 206.07 221.65 205.23 225.81 204.21 221.76 200.57 224.27 202.86 220.59 198.55 219.97 202.82 218.78 200.38 215.4 204.11 217.44 204.95 213.27 205.98 217.32 209.6 214.82 207.32 218.51 211.62 219.13 207.36 220.3 209.82 223.69" style="fill:#2ba0f7"/><path d="M44.14,71.15a4,4,0,0,1-.94.26l0,0a6.21,6.21,0,0,0,.56.67,6.94,6.94,0,0,0,.79.68,7.41,7.41,0,0,0,1,.57,5.22,5.22,0,0,0,1.21.41,4.59,4.59,0,0,0,1.34.1,5.28,5.28,0,0,0,1.32-.3l.14-.06a4.74,4.74,0,0,0,.51-.24l.48-.29a5.24,5.24,0,0,0,.91-.76,5.71,5.71,0,0,0,.65-.8,4.56,4.56,0,0,0,.34-.58,4.45,4.45,0,0,1-.7-.19,5.16,5.16,0,0,1-.91-.41,5,5,0,0,1-.68-.45,3.8,3.8,0,0,1-.45-.41c-.19-.2-.3-.33-.33-.37l.31-.77a5.12,5.12,0,0,1-.93.52,5.32,5.32,0,0,1-2,.41,4.77,4.77,0,0,1-1.08-.12l-.25,1.22-.08.07c-.06,0-.13.12-.25.2s-.25.18-.42.28A4.9,4.9,0,0,1,44.14,71.15Z" style="fill:#fff"/><path d="M50.42,54.18h-.08v0l-.11-.2a2.92,2.92,0,0,0-.24-.37A4,4,0,0,0,46.62,52a3.57,3.57,0,0,0-1.85.7,3.92,3.92,0,0,0-1.18,1.43,3.32,3.32,0,0,0-.3.83l0,.22v.11s0,.06,0,.08l-.13,0-.09,0-.13,0a2.13,2.13,0,0,0-.25,0,3.62,3.62,0,0,0-1,0,3.75,3.75,0,0,0-1.62.72,3.16,3.16,0,0,0-1,1.22,3.42,3.42,0,0,0-.31,1.26,3.52,3.52,0,0,0,.34,1.75,4.57,4.57,0,0,0,.24.41l.06.08a.36.36,0,0,1,0-.09,2.08,2.08,0,0,1-.2-.42A3.28,3.28,0,0,1,39,58.55a3.33,3.33,0,0,1,.38-1.14,3,3,0,0,1,.94-1,3.32,3.32,0,0,1,1.46-.53,3.37,3.37,0,0,1,.84,0l.21,0,.16,0L43,56l.37.14.43.18c0-.24,0-.47,0-.71,0-.06,0-.11,0-.17l0-.1,0-.17a3,3,0,0,1,.27-.68,3.36,3.36,0,0,1,1-1.13,2.73,2.73,0,0,1,1.46-.53,3,3,0,0,1,1.6.35,3.06,3.06,0,0,1,1.07.91c.07.1.14.19.2.29l.08.15.06.14.15.35s0,.08,0,.07H50l.32,0,.29,0h.18a4,4,0,0,1,2.52.76,4.13,4.13,0,0,1,1.5,1.87,3.81,3.81,0,0,1,.17,2.12,4.75,4.75,0,0,1-.7,1.68,4.5,4.5,0,0,1-.81.93l-.12.1-.21.15a4.9,4.9,0,0,1-.56.33l-.3.13.31-.1a4,4,0,0,0,.62-.27l.22-.11.14-.1a4.2,4.2,0,0,0,1-.87,4.75,4.75,0,0,0,.92-1.75,4.19,4.19,0,0,0-.67-3.69,5,5,0,0,0-4-2h-.29Zm-5-4.2a5.59,5.59,0,0,1,.93-.51,5.48,5.48,0,0,1,1.5-.38,5.08,5.08,0,0,1,1.85.1,5.76,5.76,0,0,1,1.71.72,5.5,5.5,0,0,1,1.18,1,4.93,4.93,0,0,1,.65.83c.12.19.19.32.2.34s-.05-.16-.13-.37a3.36,3.36,0,0,0-.18-.43,5.5,5.5,0,0,0-.32-.55,4.84,4.84,0,0,0-1.14-1.19,4.94,4.94,0,0,0-.84-.51,5.43,5.43,0,0,0-1-.33,4.76,4.76,0,0,0-2,0,4.94,4.94,0,0,0-1.53.59,5.13,5.13,0,0,0-.88.65l-.27.27A2.56,2.56,0,0,1,45.47,50Zm-.35,20.48a4.23,4.23,0,0,1-1.1.26,5.86,5.86,0,0,1-.75,0l-.46,0h-.08l-.3,0a5.46,5.46,0,0,1-1.78-.61,5.22,5.22,0,0,1-1.41-1.26,6.54,6.54,0,0,1-.39-.58,1,1,0,0,0-.08-.14l0-.09a5.1,5.1,0,0,1-.27-.6,4.27,4.27,0,0,1-.25-1.09c0-.14,0-.24,0-.32v-.1a.65.65,0,0,0,0,.1c0,.07,0,.18-.05.31a4.48,4.48,0,0,0,0,1.18l0,.25c-.13-.07-.27-.14-.41-.23a8.67,8.67,0,0,1-.92-.68,9,9,0,0,1-.9-.94,7,7,0,0,1-.76-1.18,7.1,7.1,0,0,1-.53-1.4,6.88,6.88,0,0,1-.18-1.48,7.17,7.17,0,0,1,.14-1.41,7.6,7.6,0,0,1,.36-1.25,6.93,6.93,0,0,1,.52-1,4.65,4.65,0,0,1,.49-.67c0,.17.06.33.1.5a8.82,8.82,0,0,0,.6,1.64,8.26,8.26,0,0,0,.81,1.28,8.67,8.67,0,0,0,.82.92c.27.25.51.44.72.6s.37.25.47.33l.16.1-.14-.12c-.1-.09-.26-.2-.44-.38l-.28-.3c-.11-.11-.21-.25-.32-.38a7.71,7.71,0,0,1-.68-1,9.54,9.54,0,0,1-.63-1.28,10,10,0,0,1-.45-1.57,8,8,0,0,1-.13-1,.34.34,0,0,1,0-.1,5,5,0,0,1,0-.67,8.42,8.42,0,0,1,.26-1.89,8,8,0,0,1,.72-1.76,8.94,8.94,0,0,1,2.23-2.59A10.12,10.12,0,0,1,41,49a8.09,8.09,0,0,1,.8-.38l.25-.09,0,0c.25-.08.47-.15.66-.19l.22-.06a5,5,0,0,1,.57-.1l.16,0h-.17a5.63,5.63,0,0,0-.58.05h-.14a7.13,7.13,0,0,1,.61-.94,5.79,5.79,0,0,1,2.88-2.08,5.83,5.83,0,0,1,1.11-.28,8,8,0,0,1,1.06-.07h.08a2,2,0,0,0-.23.3,3.4,3.4,0,0,0-.29.48c-.07.13-.11.25-.15.32a.82.82,0,0,0,0,.11l.06-.1a3.43,3.43,0,0,1,.19-.29c.1-.12.21-.26.36-.41a3.89,3.89,0,0,1,.47-.39l.08-.06a4.75,4.75,0,0,1,.59-.33l.16-.07a4.63,4.63,0,0,1,.91-.27,3.84,3.84,0,0,1,1,0,3.23,3.23,0,0,1,1,.22,4.71,4.71,0,0,1,1.64,1.21,4.94,4.94,0,0,1,.9,1.49c0,.07.05.14.07.21s.07.22.1.32l0,.14a2.87,2.87,0,0,1,.07.53c0,.15,0,.26,0,.35a.55.55,0,0,1,0,.12.64.64,0,0,0,0-.12,3.14,3.14,0,0,0,.1-.34,3.35,3.35,0,0,0,.1-.56h0a6.57,6.57,0,0,1,1.19.59,9.44,9.44,0,0,1,1.19.89,6.92,6.92,0,0,1,1.09,1.19,8.21,8.21,0,0,1,.86,1.47,7.7,7.7,0,0,1,.47,1.63,8,8,0,0,1,.1,1.6,9.53,9.53,0,0,1-.18,1.47,9.09,9.09,0,0,1-.38,1.24c-.14.35-.28.65-.42.92a2.36,2.36,0,0,1-.13.23,5.06,5.06,0,0,1-.35.56,3.65,3.65,0,0,1-.34.41l-.12.14.14-.11a5.08,5.08,0,0,0,.43-.34,2.56,2.56,0,0,1,.29-.27l.15-.16a3.82,3.82,0,0,1,.67,1.25,4.18,4.18,0,0,1,.09,2.09,5.1,5.1,0,0,1-.6,1.64,2.63,2.63,0,0,1-.2.33s-.07.11-.11.15a6.68,6.68,0,0,1-1.07,1.19c-.21.18-.4.34-.57.47a2.53,2.53,0,0,0-.43-.8,3,3,0,0,0-.26-.29.43.43,0,0,1-.07-.07.33.33,0,0,0,.06.08c.05.07.12.18.2.32a2.61,2.61,0,0,1,.24.94.41.41,0,0,1,0,.11v.24a2.6,2.6,0,0,1-.13.71,2.66,2.66,0,0,1-.31.69l-.23.31a4.55,4.55,0,0,1-1.82,1.31,5.32,5.32,0,0,1-.77.25l-.37.08c-.12,0-.24,0-.36.06a6.56,6.56,0,0,1-.76,0h-.2a5.39,5.39,0,0,1-.83-.1,6.24,6.24,0,0,1-.88-.23c-.27-.1-.5-.2-.71-.3l-.51-.28a3.59,3.59,0,0,1-.32-.21L49.42,69l.31-.77.43-.34a4.55,4.55,0,0,0,.44-.44c.12-.14.22-.26.29-.36a2,2,0,0,0,.22-.32s-.11.12-.27.27a5,5,0,0,1-.84.61,6.56,6.56,0,0,1-1.38.64,6.32,6.32,0,0,1-1.79.32A6.22,6.22,0,0,1,45,68.42a5.53,5.53,0,0,1-2.25-1.22l-.28-.26.24.3a5.06,5.06,0,0,0,.77.74,5.79,5.79,0,0,0,1.39.82,5.22,5.22,0,0,0,.87.27l-.25,1.22-.1,0A1.92,1.92,0,0,1,45.12,70.46Zm.79-6.22a2.75,2.75,0,0,0,.57-.11,2.21,2.21,0,0,0,.41-.13l.32-.15-.35.06c-.11,0-.24,0-.4,0a3.49,3.49,0,0,1-.53,0,4.19,4.19,0,0,1-1.24-.49,3.35,3.35,0,0,1-1.12-1.07,3.3,3.3,0,0,1-.34-.71,2.81,2.81,0,0,1-.13-.74,1.76,1.76,0,0,1,.4-1.19,1.67,1.67,0,0,1,.75-.51,1.37,1.37,0,0,1,.34-.06H44.5l-.27,0a1.67,1.67,0,0,0-.94.38,2.05,2.05,0,0,0-.75,1.37,2.86,2.86,0,0,0,.4,1.89A3.37,3.37,0,0,0,45.2,64.2,4.47,4.47,0,0,0,45.91,64.24Z" style="fill:#fff"/><path d="M48.8,68.78a5.12,5.12,0,0,0,.93-.52l.43-.34a4.55,4.55,0,0,0,.44-.44c.12-.14.22-.26.29-.36a2,2,0,0,0,.22-.32s-.11.12-.27.27a5,5,0,0,1-.84.61,6.56,6.56,0,0,1-1.38.64,6.32,6.32,0,0,1-1.79.32A6.22,6.22,0,0,1,45,68.42a5.53,5.53,0,0,1-2.25-1.22l-.28-.26.24.3a5.06,5.06,0,0,0,.77.74,5.79,5.79,0,0,0,1.39.82,5.22,5.22,0,0,0,.87.27,4.77,4.77,0,0,0,1.08.12A5.32,5.32,0,0,0,48.8,68.78Z" style="fill:#343536"/><path d="M44.23,59.08a1.67,1.67,0,0,0-.94.38,2.05,2.05,0,0,0-.75,1.37,2.86,2.86,0,0,0,.4,1.89A3.37,3.37,0,0,0,45.2,64.2a4.47,4.47,0,0,0,.71,0,2.75,2.75,0,0,0,.57-.11,2.21,2.21,0,0,0,.41-.13l.32-.15-.35.06c-.11,0-.24,0-.4,0a3.49,3.49,0,0,1-.53,0,4.19,4.19,0,0,1-1.24-.49,3.35,3.35,0,0,1-1.12-1.07,3.3,3.3,0,0,1-.34-.71,2.81,2.81,0,0,1-.13-.74,1.76,1.76,0,0,1,.4-1.19,1.67,1.67,0,0,1,.75-.51,1.37,1.37,0,0,1,.34-.06H44.5Z" style="fill:#343536"/><path d="M50.71,54.16h-.37v0l-.11-.2a2.92,2.92,0,0,0-.24-.37A4,4,0,0,0,46.62,52a3.57,3.57,0,0,0-1.85.7,3.92,3.92,0,0,0-1.18,1.43,3.32,3.32,0,0,0-.3.83l0,.22v.11s0,.06,0,.08l-.13,0-.09,0-.13,0a2.13,2.13,0,0,0-.25,0,3.62,3.62,0,0,0-1,0,3.75,3.75,0,0,0-1.62.72,3.16,3.16,0,0,0-1,1.22,3.42,3.42,0,0,0-.31,1.26,3.52,3.52,0,0,0,.34,1.75,4.57,4.57,0,0,0,.24.41l.06.08a.36.36,0,0,1,0-.09,2.08,2.08,0,0,1-.2-.42A3.28,3.28,0,0,1,39,58.55a3.33,3.33,0,0,1,.38-1.14,3,3,0,0,1,.94-1,3.32,3.32,0,0,1,1.46-.53,3.37,3.37,0,0,1,.84,0l.21,0,.16,0L43,56l.37.14.43.18c0-.24,0-.47,0-.71,0-.06,0-.11,0-.17l0-.1,0-.17a3,3,0,0,1,.27-.68,3.36,3.36,0,0,1,1-1.13,2.73,2.73,0,0,1,1.46-.53,3,3,0,0,1,1.6.35,3.06,3.06,0,0,1,1.07.91c.07.1.14.19.2.29l.08.15.06.14.15.35s0,.08,0,.07H50l.32,0,.29,0h.18a4,4,0,0,1,2.52.76,4.13,4.13,0,0,1,1.5,1.87,3.81,3.81,0,0,1,.17,2.12,4.75,4.75,0,0,1-.7,1.68,4.5,4.5,0,0,1-.81.93l-.12.1-.21.15a4.9,4.9,0,0,1-.56.33l-.3.13.31-.1a4,4,0,0,0,.62-.27l.22-.11.14-.1a4.2,4.2,0,0,0,1-.87,4.75,4.75,0,0,0,.92-1.75,4.19,4.19,0,0,0-.67-3.69,5,5,0,0,0-4-2Z" style="fill:#343536"/><path d="M59.26,80.51C57.74,79.24,56,77.79,54,76.28c-1.14-.9-2.25-1.74-3.28-2.52l.28-.22a5.72,5.72,0,0,0,.91-.94,5.64,5.64,0,0,0,.58-1,6.18,6.18,0,0,0,.28-.72l.14,0a5.25,5.25,0,0,0,1.48,0l.55.59C57.23,74,59.37,76.2,61.12,78l.33-.32c-1.64-1.86-3.73-4.13-6-6.57l-.29-.31.42-.14a4.37,4.37,0,0,0,2.09-1.71s0-.1.08-.14l.71.94c1.35,1.77,2.65,3.44,3.86,5l1.2,1.48.29-.19.19-.1c-.37-.51-.76-1-1.17-1.58-1.15-1.55-2.45-3.24-3.82-5L58,68l.06-.26a3.5,3.5,0,0,0,0-1,1.81,1.81,0,0,0-.07-.35l0-.16a2.53,2.53,0,0,0-.43-.8,3,3,0,0,0-.26-.29.43.43,0,0,1-.07-.07.33.33,0,0,0,.06.08c.05.07.12.18.2.32a2.61,2.61,0,0,1,.24.94.41.41,0,0,1,0,.11v.24a2.6,2.6,0,0,1-.13.71,2.66,2.66,0,0,1-.31.69l-.23.31a4.55,4.55,0,0,1-1.82,1.31,5.32,5.32,0,0,1-.77.25l-.37.08c-.12,0-.24,0-.36.06a6.56,6.56,0,0,1-.76,0h-.2a5.39,5.39,0,0,1-.83-.1,6.24,6.24,0,0,1-.88-.23c-.27-.1-.5-.2-.71-.3l-.51-.28a3.59,3.59,0,0,1-.32-.21L49.42,69s.14.17.33.37a3.8,3.8,0,0,0,.45.41,5,5,0,0,0,.68.45,5.16,5.16,0,0,0,.91.41,4.45,4.45,0,0,0,.7.19,4.56,4.56,0,0,1-.34.58,5.71,5.71,0,0,1-.65.8,5.24,5.24,0,0,1-.91.76l-.48.29a4.74,4.74,0,0,1-.51.24l-.14.06a5.28,5.28,0,0,1-1.32.3,4.59,4.59,0,0,1-1.34-.1,5.22,5.22,0,0,1-1.21-.41,7.41,7.41,0,0,1-1-.57,6.94,6.94,0,0,1-.79-.68,6.21,6.21,0,0,1-.56-.67l0,0a4,4,0,0,0,.94-.26,4.9,4.9,0,0,0,.61-.31c.17-.1.31-.2.42-.28s.19-.16.25-.2l.08-.07-.1,0a1.92,1.92,0,0,1-.28.13,4.23,4.23,0,0,1-1.1.26,5.86,5.86,0,0,1-.75,0l-.46,0h-.08l-.3,0a5.46,5.46,0,0,1-1.78-.61,5.22,5.22,0,0,1-1.41-1.26,6.54,6.54,0,0,1-.39-.58,1,1,0,0,0-.08-.14l0-.09a5.1,5.1,0,0,1-.27-.6,4.27,4.27,0,0,1-.25-1.09c0-.14,0-.24,0-.32v-.1a.65.65,0,0,0,0,.1c0,.07,0,.18-.05.31a4.48,4.48,0,0,0,0,1.18l0,.25c-.13-.07-.27-.14-.41-.23a8.67,8.67,0,0,1-.92-.68,9,9,0,0,1-.9-.94,7,7,0,0,1-.76-1.18,7.1,7.1,0,0,1-.53-1.4,6.88,6.88,0,0,1-.18-1.48,7.17,7.17,0,0,1,.14-1.41,7.6,7.6,0,0,1,.36-1.25,6.93,6.93,0,0,1,.52-1,4.65,4.65,0,0,1,.49-.67c0,.17.06.33.1.5a8.82,8.82,0,0,0,.6,1.64,8.26,8.26,0,0,0,.81,1.28,8.67,8.67,0,0,0,.82.92c.27.25.51.44.72.6s.37.25.47.33l.16.1-.14-.12c-.1-.09-.26-.2-.44-.38l-.28-.3c-.11-.11-.21-.25-.32-.38a7.71,7.71,0,0,1-.68-1,9.54,9.54,0,0,1-.63-1.28,10,10,0,0,1-.45-1.57,8,8,0,0,1-.13-1,.34.34,0,0,1,0-.1,5,5,0,0,1,0-.67,8.42,8.42,0,0,1,.26-1.89,8,8,0,0,1,.72-1.76,8.94,8.94,0,0,1,2.23-2.59A10.12,10.12,0,0,1,41,49a8.09,8.09,0,0,1,.8-.38l0-.21a8.81,8.81,0,0,0-.9.31,9,9,0,0,0-1.33.7,9.41,9.41,0,0,0-1.36,1.09,7.64,7.64,0,0,0-1.21,1.51,7.26,7.26,0,0,0-1.12,4,6.34,6.34,0,0,0,.09,1.16l0,0a5.25,5.25,0,0,0-.7.71,6.76,6.76,0,0,0-.71,1,7.38,7.38,0,0,0-.57,1.3,6,6,0,0,0-.3,1.56,6.42,6.42,0,0,0,.14,1.73,6.11,6.11,0,0,0,.65,1.6,6.86,6.86,0,0,0,1,1.26,7.52,7.52,0,0,0,1.11.91,6.92,6.92,0,0,0,1.75.79,4.74,4.74,0,0,0,.44,1.11,4.44,4.44,0,0,0,1.54,1.64,4.77,4.77,0,0,0,1.09.48,4.55,4.55,0,0,0,1.08.16,3.84,3.84,0,0,0,.59,0,.84.84,0,0,0,.06.14,5.52,5.52,0,0,0,.44.81,6.17,6.17,0,0,0,.73.88,6.35,6.35,0,0,0,1.06.79,5.28,5.28,0,0,0,1.38.53,5.56,5.56,0,0,0,1.59.11,5.13,5.13,0,0,0,1.54-.4,3.23,3.23,0,0,0,.49-.25c1,.86,2.17,1.78,3.36,2.72,2,1.58,3.83,3,5.44,4.21C59.11,80.82,59.18,80.66,59.26,80.51Z" style="fill:#343536"/><path d="M50.88,49a5.43,5.43,0,0,0-1-.33,4.76,4.76,0,0,0-2,0,4.94,4.94,0,0,0-1.53.59,5.13,5.13,0,0,0-.88.65l-.27.27a2.56,2.56,0,0,1,.31-.24,5.59,5.59,0,0,1,.93-.51,5.48,5.48,0,0,1,1.5-.38,5.08,5.08,0,0,1,1.85.1,5.76,5.76,0,0,1,1.71.72,5.5,5.5,0,0,1,1.18,1,4.93,4.93,0,0,1,.65.83c.12.19.19.32.2.34s-.05-.16-.13-.37a3.36,3.36,0,0,0-.18-.43,5.5,5.5,0,0,0-.32-.55,4.84,4.84,0,0,0-1.14-1.19A4.94,4.94,0,0,0,50.88,49Z" style="fill:#343536"/><path d="M65.85,75.17l.35-.08c-1.29-2.38-3-5.4-4.91-8.65l-1.06-1.81a5,5,0,0,0,.91-2,4.14,4.14,0,0,0-.25-2.39A3.47,3.47,0,0,0,60,58.91a6.07,6.07,0,0,0,.67-.89,8,8,0,0,0,.63-1.28,7.59,7.59,0,0,0,.4-1.61,8.15,8.15,0,0,0,0-1.85,7.84,7.84,0,0,0-.53-1.93,7.18,7.18,0,0,0-1.09-1.67,7.23,7.23,0,0,0-2.83-2,8.29,8.29,0,0,0-1.35-.39l-.11,0c0-.13,0-.26,0-.4a3.8,3.8,0,0,0-.2-.93A4.6,4.6,0,0,0,55,45a4,4,0,0,0-.85-.9,3.76,3.76,0,0,0-1.2-.6,4.34,4.34,0,0,0-1.32-.16,4.12,4.12,0,0,0-1.19.21,4.61,4.61,0,0,0-1,.47c-.15.1-.29.21-.42.31a5.32,5.32,0,0,0-1.76-.24,5.34,5.34,0,0,0-3.83,1.66,5.44,5.44,0,0,0-.81,1.08,7.45,7.45,0,0,0-.49,1.1,3.74,3.74,0,0,0-.12.45H42l-.27.07,0,.21.25-.09,0,0c.25-.08.47-.15.66-.19l.22-.06a5,5,0,0,1,.57-.1l.16,0h-.17a5.63,5.63,0,0,0-.58.05h-.14a7.13,7.13,0,0,1,.61-.94,5.79,5.79,0,0,1,2.88-2.08,5.83,5.83,0,0,1,1.11-.28,8,8,0,0,1,1.06-.07h.08a2,2,0,0,0-.23.3,3.4,3.4,0,0,0-.29.48c-.07.13-.11.25-.15.32a.82.82,0,0,0,0,.11l.06-.1a3.43,3.43,0,0,1,.19-.29c.1-.12.21-.26.36-.41a3.89,3.89,0,0,1,.47-.39l.08-.06a4.75,4.75,0,0,1,.59-.33l.16-.07a4.63,4.63,0,0,1,.91-.27,3.84,3.84,0,0,1,1,0,3.23,3.23,0,0,1,1,.22,4.71,4.71,0,0,1,1.64,1.21,4.94,4.94,0,0,1,.9,1.49c0,.07.05.14.07.21s.07.22.1.32l0,.14a2.87,2.87,0,0,1,.07.53c0,.15,0,.26,0,.35a.55.55,0,0,1,0,.12.64.64,0,0,0,0-.12,3.14,3.14,0,0,0,.1-.34,3.35,3.35,0,0,0,.1-.56h0a6.57,6.57,0,0,1,1.19.59,9.44,9.44,0,0,1,1.19.89,6.92,6.92,0,0,1,1.09,1.19,8.21,8.21,0,0,1,.86,1.47,7.7,7.7,0,0,1,.47,1.63,8,8,0,0,1,.1,1.6,9.53,9.53,0,0,1-.18,1.47,9.09,9.09,0,0,1-.38,1.24c-.14.35-.28.65-.42.92a2.36,2.36,0,0,1-.13.23,5.06,5.06,0,0,1-.35.56,3.65,3.65,0,0,1-.34.41l-.12.14.14-.11a5.08,5.08,0,0,0,.43-.34,2.56,2.56,0,0,1,.29-.27l.15-.16a3.82,3.82,0,0,1,.67,1.25,4.18,4.18,0,0,1,.09,2.09,5.1,5.1,0,0,1-.6,1.64,2.63,2.63,0,0,1-.2.33s-.07.11-.11.15a6.68,6.68,0,0,1-1.07,1.19c-.21.18-.4.34-.57.47l0,.16c.2-.1.44-.23.7-.39a5.47,5.47,0,0,0,1.16-1c.31.55.63,1.1,1,1.66C62.69,69.94,64.46,72.87,65.85,75.17Z" style="fill:#343536"/><path d="M132.61,57.18c1.15.32,2.36.54,3.54.79.59-1.06,1.2-2.1,1.85-3.13a25,25,0,0,0,.13,3.6,10.29,10.29,0,0,1,2.62,1.08l-2.39,1.1c.12,1.07.23,2,.25,2.63a7.86,7.86,0,0,1-2.14-1.72,25.41,25.41,0,0,0-2.94,1.71c.49-1.11,1-2.21,1.56-3.29A33.2,33.2,0,0,0,132.61,57.18Z" style="fill:#fdcc25"/><polygon points="28.45 180.37 69.33 160.74 24.7 173.31 28.45 180.37" style="fill:#72cff5"/><polygon points="69.33 160.74 24.7 173.31 28.45 180.37 69.33 160.74 69.33 160.74" style="fill:#00bbed"/><path d="M29.14,165.22l.15,10.8,8.48,6.72-10.23,3.49-3.77,10.12-6.48-8.65-10.8-.45,6.23-8.83L9.81,168l10.33,3.19Z" style="fill:#00bbed"/><polygon points="16.02 173.96 17.02 179.37 13.46 183.57 19.19 183.62 21.81 188.96 24.18 184 29.52 182.69 25.53 178.91 25.94 173.42 21.11 176.04 16.02 173.96" style="fill:#fff"/><polygon points="208.94 27.7 180.33 62.88 215.34 32.48 208.94 27.7" style="fill:#72cff5"/><polygon points="208.94 27.7 180.33 62.88 215.34 32.48 208.94 27.7 208.94 27.7" style="fill:#00bbed"/><path d="M214.77,41.7,210,32,199.5,29.53,207.26,22l-.91-10.77,9.55,5.07,10-4.2L224,22.76l7.07,8.17-10.71,1.52Z" style="fill:#00bbed"/><polygon points="222.91 28.19 219.7 23.73 221.13 18.41 215.93 20.8 211.28 17.09 211.25 22.59 206.98 26.05 212.2 27.77 214.17 32.91 217.42 28.48 222.91 28.19" style="fill:#fff"/><path d="M242.18,199.86a7.44,7.44,0,0,0,1.7-2.88c1.67,1.85,2.32,3.28,2.28,4.45-.08,2.69-1.89,3.18-4.58,4a21.05,21.05,0,0,0,0-4.29,36.6,36.6,0,0,1-1.12,4.66l-.81.3.71,0c-.63,2-1.44,3.87-2.31,4.3-2.37,1.19-4.48-1.07-7-3.12l.3-.18a5.54,5.54,0,0,0-.56-.05c-.45-.35-.89-.7-1.36-1,.3.32.59.67.88,1-1.85,0-3.63.39-4.7-1.4a7.19,7.19,0,0,1-.79-4c.51.5,1.07,1,1.57,1.37,0-.06-3-4.19-1.16-6a14,14,0,0,1,2.47-1.79,11.14,11.14,0,0,0,0,1.15,6.21,6.21,0,0,1,.05-1.2,5,5,0,0,1,1.12-.52,6,6,0,0,0-1.07.24,3.16,3.16,0,0,1,2.07-2.43,13.42,13.42,0,0,1,4.38-.3l-.25.25a3.08,3.08,0,0,1,.51-.23,7.9,7.9,0,0,1,.82.09l-.68-.14c1.62-.53,4.56-.63,6,.66C242.63,194.42,242.64,196.29,242.18,199.86Z" style="fill:#fff"/><path d="M241.69,206.36c4.05-.16,6.26-1.87,6.57-5.06a3.73,3.73,0,0,0-.34-1.9,7.49,7.49,0,0,0-3.65-3.25,6.31,6.31,0,0,0-.51-3.61,5.91,5.91,0,0,0-1.39-1.9c-1.61-1.46-5.12-1.41-8,1.2-2.34-.46-3.78-.44-4.95,0a3.08,3.08,0,0,0-1.85,2.87c-.86.28-3.14,1.19-4.07,3a2.56,2.56,0,0,0,0,2.35,5,5,0,0,0,.63,1c-1.28,2.78-1.47,5-.61,6.89a4.74,4.74,0,0,0,.26.5,2.54,2.54,0,0,0,1.55,1.23c1.44.35,3.21-.61,5.37-1.94.44.57.88,1.16,1.3,1.73,2.13,2.86,4.14,5.57,6.46,4.35C240,213.07,241.21,210.26,241.69,206.36Zm-3.75,3.92c-2,1-3.76-.56-5.84-2.34l-.69-.59L232,207l-.56-.07-.51,0c-.36-.29-.82-.66-1.32-1l-1.42-1,1.17,1.26.6.7h-.41c-1.53.06-2.85.1-3.7-1.32a5.06,5.06,0,0,1-.24-.46,6.86,6.86,0,0,1-.53-3c.38.34.78.67,1.14,1l.48.39,0-.47,0-.08-.08-.13a15.2,15.2,0,0,1-1-1.75c-.59-1.26-1.08-3-.13-3.91a13.51,13.51,0,0,1,2.13-1.58,7.67,7.67,0,0,0,0,.82l.39,0a6.23,6.23,0,0,1,0-1.07,4.72,4.72,0,0,1,1-.45l3.46-.87-3.54.48-.77.15a2.9,2.9,0,0,1,1.86-2,12.38,12.38,0,0,1,3.86-.32l-.91.94,1.21-.69a3.24,3.24,0,0,1,.49-.22l.72.11.06-.32c1.58-.34,3.94-.3,5.2.79a4.54,4.54,0,0,1,1.17,1.51c.59,1.26.52,2.81.2,5.4l-.08.62.42-.46a7.73,7.73,0,0,0,1.63-2.63,10.63,10.63,0,0,1,1.6,2.34,3.89,3.89,0,0,1,.4,1.72c-.07,2.46-1.61,3-4.16,3.76a20.65,20.65,0,0,0-.05-4l-.18-1.49-.21,1.49a37.23,37.23,0,0,1-1.08,4.54l-.72.26-.91.34,1.42.06C239.35,208.55,238.59,210,237.94,210.28Z" style="fill:#323535"/><path d="M235.39,192.25a4.46,4.46,0,0,1,.48.11Z" style="fill:#323535"/><path d="M227.76,196.35c0,.29.06.57.1.86A8.64,8.64,0,0,1,227.76,196.35Z" style="fill:#323535"/><path d="M227.9,197.47a2.34,2.34,0,0,1,0-.26C227.89,197.37,227.9,197.46,227.9,197.47Z" style="fill:#323535"/><polygon points="241.38 196.43 215.31 184.12 214.79 184.29 233.32 206.4 241.38 196.43" style="fill:#fff"/><polygon points="221.11 188.57 236.92 200.74 236.13 198.55 221.11 188.57" style="fill:#323535"/><polygon points="217.74 187.91 226.65 197.75 227.07 198.94 217.74 187.91" style="fill:#323535"/><polygon points="216.94 186.34 231.49 198.78 232.05 200.76 216.94 186.34" style="fill:#323535"/><polygon points="234.52 194.25 237.88 194.45 213.63 183.4 234.52 194.25" style="fill:#323535"/><polygon points="217.88 185.38 234.75 193.98 236.84 194.11 217.88 185.38" style="fill:#fff"/><path d="M207.83,63.33c-.46,1.88-.77,3.85-1.13,5.77q2.63,1.37,5.16,2.88a39.21,39.21,0,0,0-5.84.35,16.49,16.49,0,0,1-1.64,4.31c-.48-1-1.13-2.32-1.88-3.84-1.73.25-3.24.47-4.25.53a12.35,12.35,0,0,1,2.69-3.55,39.9,39.9,0,0,0-2.9-4.7c1.83.75,3.63,1.54,5.4,2.39A52.68,52.68,0,0,0,207.83,63.33Z" style="fill:#f37024"/></svg>