<svg xmlns="http://www.w3.org/2000/svg" xmlns:xlink="http://www.w3.org/1999/xlink" width="719" height="220" viewBox="0 0 719 220"><defs><clipPath id="a"><rect x="1.42" width="717" height="220" style="fill:none"/></clipPath></defs><title>_</title><g style="clip-path:url(#a)"><path d="M204.11,105.1l4.29,10c1.17-.12,21.63-.49,24.38-.66,27.71-1.79,130.36-5.35,313.48,35.25,3.51-2.05-1.75-8.87-4-11.05A21.24,21.24,0,0,0,548.12,126a11.32,11.32,0,0,0-3.31-9.07c2-1,5-2.91,7-8.33a15,15,0,0,0-1.72-13.75c2.78-1.72,4-2.84,4.91-6.38s.3-6.45-1.24-8.34c.67-.73,3-1.38,3.19-4a4.44,4.44,0,0,0-1-3.44c-223.67-9.45-301,17.45-324.53,25.8C230.79,98.73,204.7,104.89,204.11,105.1Z" style="fill:#f5f9fa"/><path d="M552.53,150c-61.42-14.24-120.7-24.54-185.11-30.86a1171.8,1171.8,0,0,0-138.76-5.47c-.52,0-15.15.68-15.66.69l-.18,1c.55,0,15.21-.68,15.76-.69,108.25-2.19,211.53,11.44,316.84,35.84C553.26,152.3,554.83,150.5,552.53,150Z" style="fill:#4d443a"/><path d="M551.13,83.06c-32.43-1.39-31.94-.08-42,.28-1.67.07-1.5.35.18.39,14.63.35,19.83-.64,40.28.37C551.07,84.17,552.93,83.14,551.13,83.06Z" style="fill:#4d443a"/><path d="M535.31,131c-31.57-7.57-41.94-9.27-51.87-10.84-1.66-.26-1.54.06.09.41,14.3,3.14,30.2,6.25,50.08,11.16C535,132.13,537.06,131.46,535.31,131Z" style="fill:#4d443a"/><path d="M559.83,71.22C502.55,71,450.3,69.16,393,71.72,337.93,74.17,283.35,82.24,230.47,98c-.25.08-24.35,6.17-24.6,6.25l-.17,1L230,99.08c53.06-15.94,96.28-22,163.14-25.14,56.93-2.64,104-.75,161-.56C562.67,73.4,562.29,71.23,559.83,71.22Z" style="fill:#4d443a"/><path d="M421,97a991.75,991.75,0,0,0-144,1.12c-1.67.14-1.5.53.16.4,47.61-4,95.77-3.39,143.42-.41C422,98.15,422.76,97.07,421,97Z" style="fill:#4d443a"/><path d="M551.44,109.57c-12.27-1.33-6.34-.6-13.43-.94-1.69-.08-4.67.19-3,.37,9.3,1,7.31,1,15.62,2.22" style="fill:#4d443a"/><path d="M412.68,82.86c11.58-.42,23.1.47,34.64,1.44.7.06,3-.75,1.29-.89a293.19,293.19,0,0,0-35.32-.91c-1.07,0-2.49.43-.61.36Z" style="fill:#4d443a"/><path d="M219.59,110.17c11.44-1.87,23-2.42,34.55-2.9.71,0,2.91-1.12,1.17-1a292.16,292.16,0,0,0-35.16,3.52c-1.06.16-2.41.73-.56.43Z" style="fill:#4d443a"/><path d="M378.52,110.85a206,206,0,0,1,22.58,2.23c.81.12,3-.81,1.27-1.07-7.7-1.16-15.49-1.35-23.28-1.66-1.17,0-2.42.42-.57.5Z" style="fill:#4d443a"/><path d="M521,143.52l-19.69-3.33a11.43,11.43,0,0,0-4.47,6.26c-3.2-5-8.56-7-11.48-7.8,7.77-15.88-2.76-26.12-6.52-29.1,7.69-13.23,3.7-23.76,1.83-27.39,8.4-6,8.38-14,7.94-17.38,8.63-2.71,12-8.08,13.38-12.12a11.81,11.81,0,0,0,6.23,4c-3.79,5.24-2,11.92-.19,15.1l.45.81,20.57-.07.46-.73c5.62-9.05,0-15.69-2.33-17.85,1.72-5.84.31-10.08-1.24-12.66a15.81,15.81,0,0,0-11.06-7.18,19,19,0,0,0-10.15,1.07A20.21,20.21,0,0,0,493,28.56a19.27,19.27,0,0,0-16.88,5.26,18.19,18.19,0,0,0-5.07,15.23c-4.59.19-8.92,3.29-11.64,8.46-2.29,4.38-3.24,10.21-.79,14.43-5.43,2.47-9.61,8-11.16,14.86s0,13.87,4,18.33a27.69,27.69,0,0,0-6.25,26.24c2.37,8,8.35,13.39,16.91,15.44-1.08,4.09-1.5,10.75,3.36,18A22.13,22.13,0,0,0,480.37,174a20.3,20.3,0,0,0,8.45-.24,19.69,19.69,0,0,0,10,5h0a16.29,16.29,0,0,0,14.6-4.36,14.08,14.08,0,0,0,3.48-12.55,14.59,14.59,0,0,0,5.77-9.55A12.62,12.62,0,0,0,521,143.52Z" style="fill:#4d443a"/><path d="M509.21,70.68s-5-9.15,2.2-15.15a10.12,10.12,0,0,1-10-7.94s.68,12.09-14.29,16.14c0,0,3.08,10.87-8.15,18,0,0,8.11,12.2-1.87,28.26,0,0,16.74,10.68,6.06,29.78,0,0,11.9,1.36,14.21,12.27,0,0,.16-8.18,5-10.89,5.67.93,10.1,1.95,17.25,3.56,2.48,4.61,1.24,12.51-4.86,16.33,3.42,15.15-14.73,21.92-25.6,11-6.23,2.17-16.84-.1-22-8-4.86-7.4-4-14.2-2.58-18.32-22-4-22-29.6-10.18-40.45-9.57-8.62-5.11-28.69,7.37-32.48-6.27-6.6,1.18-23.55,11.66-22-3.59-19,19.32-28.31,31-13.74,11.65-5.47,25.67,3,20.71,17.31,0,0,8.86,6.54,2.72,16.53Z" style="fill:#ffd263"/><path d="M502.72,53.44c-3.3-3.78-1.7-8.72-1.7-8.72.37,4.62,2.05,6.65,2.05,6.65Z" style="fill:#4d443a"/><path d="M508.6,55.14a9,9,0,0,0,5.78-.34s-2,2.37-7.19,1.51Z" style="fill:#4d443a"/><path d="M518.28,160.71c-1.95,2.18-7.31,1.9-7.31,1.9,4.32-1.24,5.46-2.78,5.46-2.78Z" style="fill:#4d443a"/><path d="M498,148a12.21,12.21,0,0,0-.08,6.41s-2.94-4-.34-9.7Z" style="fill:#4d443a"/><path d="M469.85,112.65c-.07.65,8.78,6.09,3.42,14C473.27,126.66,481,120.49,469.85,112.65Z" style="fill:#4d443a"/><path d="M519.41,54.12a6,6,0,0,0,.05-7S523.14,50.59,519.41,54.12Z" style="fill:#4d443a"/><path d="M478.59,58a8.72,8.72,0,0,0-7.3,7.08S471.16,57.72,478.59,58Z" style="fill:#4d443a"/><path d="M480.17,160.47a8.72,8.72,0,0,0,9.78,2.79S483.64,167,480.17,160.47Z" style="fill:#4d443a"/><path d="M300.23,153.3A22.7,22.7,0,0,1,294,151c-6.15-3.22-10.07-9.44-9.89-15.59-13.38-3.42-17.44-10.32-19.46-16.28-3.23-9.5-.41-19.67,2.81-24.52-4.46-5.41-5.79-14.19-3.37-22.83,2.61-9.32,9.1-16.32,17.51-19A17.66,17.66,0,0,1,301.8,34a16.45,16.45,0,0,1,7.47,3.38c3.34-3,8.58-4.44,13.82-3.55,6.37,1.09,13.57,5.93,13.45,16a17.08,17.08,0,0,1,10,12.9,17.36,17.36,0,0,1-3.43,13.74c-.44.52-18.88,2.73-19.46,2.23a14.67,14.67,0,0,1-4.21-7.24,19,19,0,0,1,.48-11.81A16.33,16.33,0,0,1,318,59.5a13.5,13.5,0,0,1-6.85-3.19,19.34,19.34,0,0,1-13,8.68c2.12,4.4,5.3,17.17-3.39,30.61,2,2.48,6.38,9.9,3.63,25.3a20.71,20.71,0,0,1,6.3-.37,29.94,29.94,0,0,1,8.33,1.7,12.66,12.66,0,0,1,4.66-6.33c1.06-.71,19.34.78,19.81,1.36,3.42,4.22,3.29,11.36,1.28,15.74-2.48,5.42-6.2,9.38-13.69,10-.44,2.55-2.59,5.82-7.38,8.44A24.56,24.56,0,0,1,300.23,153.3Z" style="fill:#4d443a"/><path d="M341.73,75.72A15.93,15.93,0,0,0,335,50.89c1-16.48-18.69-19.6-25.58-11.35a15,15,0,0,0-18.63-1.74A15.56,15.56,0,0,0,283.31,54c-19.13,4.88-23.56,30.61-13.82,40.56-5.65,6.8-11.39,32.86,16.28,39.69-.64,5.75,3.15,12,9.56,15.31,6.62,3.47,15.36,2.88,20.12.79,4.58-2,8.13-5.67,8.06-9.08,12.3.16,19-16,12.33-23.42-6.74-.59-10.6-.8-16.62-1-4.37,2.36-5.29,7.73-5.29,7.73a28,28,0,0,0-17.63-1.31c4.47-20.51-3.52-27.38-3.52-27.38,11.64-18.23,2.81-32,2.81-32a17.94,17.94,0,0,0,15.18-10.07c4.31,5.58,11.68,4.39,11.68,4.39-4,6.29-2.16,16.05,2.45,19.74C331.16,77.08,336,76.58,341.73,75.72Z" style="fill:#ffd263"/><path d="M335,48.74s.37,1.76-.62,5.78c0,0,2.59-2.8,2.16-6.12Z" style="fill:#4d443a"/><path d="M326.37,142.84a8.88,8.88,0,0,1-7.26-2.78,10.2,10.2,0,0,0,6.72,1Z" style="fill:#4d443a"/><path d="M266.52,93.32a9.22,9.22,0,0,0,6,3.44,14.93,14.93,0,0,1-4.16-3.49Z" style="fill:#4d443a"/><path d="M285.14,125.87c-.09-.65-10-3.7-6.82-12.71C278.32,113.16,272.35,121.08,285.14,125.87Z" style="fill:#4d443a"/><path d="M286.74,77.87a8.7,8.7,0,0,0,3.44-9.56S293.52,74.86,286.74,77.87Z" style="fill:#4d443a"/><path d="M319.81,50.11a6,6,0,0,0,6.27,3.14S321.32,55,319.81,50.11Z" style="fill:#4d443a"/><path d="M312.61,55.56s-2.14-1.27-3.77-5.49a8.59,8.59,0,0,0,3.48,7.19Z" style="fill:#4d443a"/><path d="M297.12,66.7a14.17,14.17,0,0,0-3.93-5.54s3.44.58,5.74,5.85Z" style="fill:#4d443a"/><path d="M294.42,93.17s-1.93,3.91-4.66,5.45a9.72,9.72,0,0,0,5.92-4.81Z" style="fill:#4d443a"/><path d="M378,69.15l-1.1-.89.4-1.36-1.19.76-1.17-.8.36,1.37-1.12.86,1.41.08.48,1.34.51-1.32Z" style="fill:#343844"/><path d="M334.67,109.4V108l1.31-.54-1.34-.45-.11-1.41-.84,1.14-1.38-.34.82,1.16-.74,1.2,1.35-.42Z" style="fill:#343844"/><path d="M441,150.15l-1.1-.89.4-1.36-1.19.76-1.17-.8.36,1.37-1.12.86,1.41.08.48,1.34.51-1.32Z" style="fill:#343844"/><path d="M448.1,61.53l1.09-1.75,2,.33-1.33-1.57.93-1.84-1.9.78L447.47,56l.15,2-1.83.93,2,.49Z" style="fill:#343844"/><path d="M430.09,111.35l3.13-.2,1.4,2.81.78-3,3.11-.47-2.65-1.67.52-3.1-2.42,2-2.79-1.45,1.16,2.92Z" style="fill:#343844"/><path d="M544.92,173.35l1.37-2.21,2.57.4-1.68-2,1.18-2.32-2.41,1-1.83-1.84.19,2.6L542,170.16l2.52.62Z" style="fill:#343844"/><path d="M523.92,124.35l1.37-2.21,2.57.4-1.68-2,1.18-2.32-2.41,1-1.83-1.84.19,2.6L521,121.16l2.52.62Z" style="fill:#343844"/></g></svg>