<svg xmlns="http://www.w3.org/2000/svg" width="275" height="275" viewBox="0 0 275 275"><title>_</title><path d="M180.6,80.51a18.9,18.9,0,0,0,3.66-1.35,24.54,24.54,0,0,0,3.4-2,24.91,24.91,0,0,0,3-2.51c.46-.47.92-1,1.35-1.46.21-.25.42-.5.62-.77l.32-.4.16-.16a.44.44,0,0,1,.25-.14.47.47,0,0,1-.07.27l-.12.22a3.15,3.15,0,0,1-.31.41c-.21.27-.43.51-.65.77-.44.5-.91,1-1.38,1.43a22.55,22.55,0,0,1-6.56,4.39A18.56,18.56,0,0,1,180.6,80.51Z" style="fill:#343844"/><path d="M182.72,80.51a20.3,20.3,0,0,0,3.05-.85,23.5,23.5,0,0,0,2.93-1.22,20.28,20.28,0,0,0,2.74-1.61c.43-.3.86-.62,1.26-1,.21-.18.42-.34.61-.53l.3-.26.17-.11a.32.32,0,0,1,.22,0,.39.39,0,0,1-.07.23l-.13.15a2.72,2.72,0,0,1-.3.29c-.2.17-.41.35-.62.51-.41.33-.86.64-1.3.94a20.88,20.88,0,0,1-2.81,1.56,24.72,24.72,0,0,1-3,1.16A21.47,21.47,0,0,1,182.72,80.51Z" style="fill:#343844"/><path d="M177.64,80.72a33.8,33.8,0,0,0,4.23-2.18,32.49,32.49,0,0,0,3.89-2.74,24.46,24.46,0,0,0,3.39-3.36,18.06,18.06,0,0,0,1.43-2c.23-.34.43-.7.63-1s.19-.37.29-.54a1.56,1.56,0,0,1,.17-.25.51.51,0,0,1,.23-.23.61.61,0,0,1,0,.33l-.11.3c-.09.19-.19.36-.29.54-.2.35-.41.71-.65,1a19.8,19.8,0,0,1-1.46,2,25.53,25.53,0,0,1-3.49,3.33,32.71,32.71,0,0,1-3.94,2.7A33.8,33.8,0,0,1,177.64,80.72Z" style="fill:#343844"/><path d="M200.41,70.6a4.89,4.89,0,0,0,2.06.78,5.1,5.1,0,0,0,5.74-4,4.87,4.87,0,0,0-.48-3.21c1.6-3.09.49-7.28-2.42-9.7l0,0a3,3,0,0,0-1.3-.35s.21-.23,1.1-.11a7.29,7.29,0,0,0-2.43-4.57,4.82,4.82,0,0,0-5-.88,4.2,4.2,0,0,0-1.1.81s.07-.32.82-1a2.46,2.46,0,0,0-1.4-.72,3.25,3.25,0,0,0-3.18,1.65,5.45,5.45,0,0,0-4.37,2.87c-1.77,3.17-.64,7.85,2.5,10.45l.44.34a5.42,5.42,0,0,1,.57-2.66,10.25,10.25,0,0,0-.23,2.9h0a8.27,8.27,0,0,0,2.91,6,5.5,5.5,0,0,0,5.49,1.18,4.66,4.66,0,0,0,1.16-.68S201.19,70.07,200.41,70.6Z" style="fill:#ffd263"/><path d="M209.77,58.2a8,8,0,0,0-2.91-4.94c1.37.62,2.57,2.34,3.09,4.71a10.41,10.41,0,0,1-.09,5.1A12.16,12.16,0,0,0,209.77,58.2Z" style="fill:#343844"/><path d="M210.9,58.08a5.57,5.57,0,0,0-1.14-2.83A4.47,4.47,0,0,1,211,58a6.71,6.71,0,0,1-.07,2.59A7.66,7.66,0,0,0,210.9,58.08Z" style="fill:#343844"/><path d="M195.39,45.89a4.63,4.63,0,0,0-3,1.4,4.14,4.14,0,0,1,2.93-1.58,3.07,3.07,0,0,1,2.26.92A3.58,3.58,0,0,0,195.39,45.89Z" style="fill:#343844"/><path d="M205.49,61.86a4.19,4.19,0,0,0-1-3.06c.57.32,1.15,1.24,1.14,2.85a10.86,10.86,0,0,1-.73,3.68A11.92,11.92,0,0,0,205.49,61.86Z" style="fill:#343844"/><path d="M195.64,45a2.5,2.5,0,0,0-1.57.4,2.27,2.27,0,0,1,1.55-.52,2,2,0,0,1,1.14.47A2.28,2.28,0,0,0,195.64,45Z" style="fill:#343844"/><path d="M196.36,51.19a4.34,4.34,0,0,0-1.54,1.18,3.94,3.94,0,0,1,1.49-1.27,2.65,2.65,0,0,1,1.37-.29A3.15,3.15,0,0,0,196.36,51.19Z" style="fill:#343844"/><path d="M187.79,51.84c-1.87,3.35-.69,8.28,2.66,11a6.47,6.47,0,0,0,.83.63,8.72,8.72,0,0,0,3.07,6.33A5.51,5.51,0,0,0,200,70.9a6,6,0,0,0,2.63,1.15,5.4,5.4,0,0,0,6.07-4.21,4.56,4.56,0,0,0-.6-3.19c1.69-3.27.62-7.91-2.48-10.46l-.18-.13a7.67,7.67,0,0,0-2.61-5.14,5.1,5.1,0,0,0-5.37-.92,2.76,2.76,0,0,0-1.68-1,3.79,3.79,0,0,0-3.46,2A5.37,5.37,0,0,0,187.79,51.84Zm5-2.45a3.19,3.19,0,0,1,3.18-1.62,2.55,2.55,0,0,1,1.59.88,4.83,4.83,0,0,1,5.08.86,7.23,7.23,0,0,1,2.47,4.87,1.18,1.18,0,0,0,.18.13c2.92,2.42,4,6.61,2.43,9.71a4.82,4.82,0,0,1,.47,3.22,5.1,5.1,0,0,1-8.06,3,5.53,5.53,0,0,1-5.51-1.16,8.24,8.24,0,0,1-2.92-6,6.51,6.51,0,0,1-.79-.57c-3.15-2.61-4.27-7.29-2.49-10.45A5.42,5.42,0,0,1,192.75,49.39Z" style="fill:#343844"/><path d="M191.32,64.06c-.09-2.73.56-3.65.56-3.65a11.73,11.73,0,0,0-.2,3.28Z" style="fill:#343844"/><path d="M199.87,70.93c1.25-.73,1.35-1.14,1.35-1.14a4.34,4.34,0,0,1-1.3.72Z" style="fill:#343844"/><path d="M205.46,54.18c-1.24-.3-1.52,0-1.52,0a3.13,3.13,0,0,1,1.3.36Z" style="fill:#343844"/><path d="M197.78,48.11c-1.19.91-1.26,1.33-1.26,1.33a4.63,4.63,0,0,1,1.27-.9Z" style="fill:#343844"/><polygon points="184.45 64.19 185.46 63.31 184.76 62.27 185.75 62.67 185.82 60.98 186.2 62.42 187.02 61.1 186.58 62.74 187.66 62.54 186.64 63.42 187.35 64.46 186.35 64.07 186.28 65.75 185.9 64.3 185.09 65.62 185.52 63.99 184.45 64.19" style="fill:#343844"/><polygon points="198.05 76.56 198.84 75.89 197.98 75.53 198.97 75.49 198.72 74.64 199.34 75.26 199.86 74.41 199.74 75.33 200.71 74.96 199.93 75.64 200.78 75.99 199.79 76.04 200.02 76.89 199.41 76.26 198.9 77.11 199.02 76.19 198.05 76.56" style="fill:#343844"/><path d="M179,78.06a31.7,31.7,0,0,0,7.12-10l.66,0a30.86,30.86,0,0,1-7.78,10Z" style="fill:#343844"/><path d="M179.11,74.49a16.8,16.8,0,0,0,3.38-6.09,2.84,2.84,0,0,0,.31-.06,16.33,16.33,0,0,1-3.69,6.15Z" style="fill:#343844"/><path d="M235,231.85a5,5,0,0,0,1.42-.14,5.56,5.56,0,0,0,4-3.86,6.65,6.65,0,0,0-1-6h0a9.13,9.13,0,0,0-1.9-2,5.33,5.33,0,0,1,2.06,1.65,3.8,3.8,0,0,0,.18-.47,7.47,7.47,0,0,0-4.05-9.14,6.38,6.38,0,0,0-5.46.24,3.83,3.83,0,0,0-3.73.51,2.49,2.49,0,0,0-.78,1.3,2.68,2.68,0,0,1,1.29.27,5.09,5.09,0,0,0-1.43,0,4.92,4.92,0,0,0-3.78,3.37,5.92,5.92,0,0,0,.6,4.72c.7-.57,1-.52,1-.52a3.15,3.15,0,0,0-.91,1h0a7,7,0,0,0,3.65,8.54,4.17,4.17,0,0,0,1.5,2.64,5.91,5.91,0,0,0,7.3-.16,4.76,4.76,0,0,0,1.31-1.71A2.31,2.31,0,0,1,235,231.85Z" style="fill:#ffd263"/><path d="M220.71,227.9a6.49,6.49,0,0,1-.42-5.25c-.81,1.21-.83,3.14.13,5.18a9.26,9.26,0,0,0,3.11,3.74A10.69,10.69,0,0,1,220.71,227.9Z" style="fill:#343844"/><path d="M219.67,228.42a4.45,4.45,0,0,1-.7-2.72,3.72,3.72,0,0,0,.51,2.71,5.66,5.66,0,0,0,1.61,1.88A6.2,6.2,0,0,1,219.67,228.42Z" style="fill:#343844"/><path d="M225.81,210.93a5.4,5.4,0,0,1,3.42-.59,4.85,4.85,0,0,0-3.46.41,2.88,2.88,0,0,0-1.41,1.92A3.49,3.49,0,0,1,225.81,210.93Z" style="fill:#343844"/><path d="M226.58,228.29a3.41,3.41,0,0,1-1-2.82c-.31.55-.26,1.56.7,2.74a10.32,10.32,0,0,0,2.81,2.34A11,11,0,0,1,226.58,228.29Z" style="fill:#343844"/><path d="M225.07,210.4a2.86,2.86,0,0,1,1.6-.55,2.72,2.72,0,0,0-1.65.45,1.92,1.92,0,0,0-.7,1A2.26,2.26,0,0,1,225.07,210.4Z" style="fill:#343844"/><path d="M228.11,215.39a5.36,5.36,0,0,1,2,0,4.81,4.81,0,0,0-2-.13,3.33,3.33,0,0,0-1.35.54A3.75,3.75,0,0,1,228.11,215.39Z" style="fill:#343844"/><path d="M230.3,211.57a4.39,4.39,0,0,0-4.13.43,2.5,2.5,0,0,0-.89,1.62,5.31,5.31,0,0,0-4.09,3.6,6.2,6.2,0,0,0,.8,5.25,1.19,1.19,0,0,0-.08.2,7.58,7.58,0,0,0,4.06,9.12,3.94,3.94,0,0,0,1.38,2.7,6.21,6.21,0,0,0,7.72-.17,5.87,5.87,0,0,0,1.6-2.29,5.7,5.7,0,0,0,4.24-3.89,7.13,7.13,0,0,0-1.11-6.37,6.38,6.38,0,0,0,.34-.92,7.87,7.87,0,0,0-4.24-9.64A6.3,6.3,0,0,0,230.3,211.57Zm5.35.28a7.5,7.5,0,0,1,4,9.14c-.1.29-.22.58-.34.84a6.77,6.77,0,0,1,1,6,5.66,5.66,0,0,1-4.06,3.87,4.8,4.8,0,0,1-1.43,2,5.91,5.91,0,0,1-7.32.17,4.13,4.13,0,0,1-1.5-2.65,7,7,0,0,1-3.66-8.54.77.77,0,0,0,.08-.19,5.93,5.93,0,0,1-.76-5,5,5,0,0,1,3.86-3.4,2.36,2.36,0,0,1,.86-1.52,3.75,3.75,0,0,1,3.71-.54A6.42,6.42,0,0,1,235.65,211.85Z" style="fill:#343844"/><path d="M240.11,222.21c-1.55-2.08-2.66-2.4-2.66-2.4a10.12,10.12,0,0,1,2.11,2.33Z" style="fill:#343844"/><path d="M236.79,232c-1.5.14-1.83-.12-1.83-.12a5.1,5.1,0,0,0,1.55-.17Z" style="fill:#343844"/><path d="M222,222.56c.89-.89,1.31-.82,1.31-.82a2.94,2.94,0,0,0-.9,1Z" style="fill:#343844"/><path d="M225.07,213.88c1.56,0,1.87.29,1.87.29a6,6,0,0,0-1.62,0Z" style="fill:#343844"/><polygon points="242.4 210.98 241.09 211.34 240.65 210.03 240.39 211.18 238.97 210.17 239.92 211.44 238.34 211.35 239.95 212 239.14 212.85 240.46 212.48 240.88 213.81 241.17 212.65 242.56 213.65 241.62 212.38 243.19 212.48 241.6 211.84 242.4 210.98" style="fill:#343844"/><polygon points="241.79 232.94 240.77 233.22 241 232.22 240.37 233.09 239.82 232.33 239.97 233.3 238.96 233.22 239.78 233.7 238.9 234.34 239.92 234.07 239.69 235.07 240.32 234.2 240.88 234.96 240.74 234 241.74 234.07 240.91 233.59 241.79 232.94" style="fill:#343844"/><polygon points="225.12 217.1 224.61 217.23 224.73 216.74 224.42 217.18 224.15 216.79 224.22 217.27 223.72 217.23 224.12 217.47 223.68 217.8 224.19 217.66 224.08 218.15 224.39 217.72 224.66 218.09 224.6 217.63 225.1 217.66 224.68 217.42 225.12 217.1" style="fill:#343844"/><polygon points="244.5 129.61 239.43 126.88 238.28 132.49 236.91 127.05 231.97 130.45 235.1 125.48 229.25 124.67 235.05 123.06 231.76 118.52 236.81 121.24 237.97 115.62 239.33 121.06 244.27 117.67 241.16 122.65 246.97 123.45 241.2 125.06 244.5 129.61" style="fill:#343844"/><polygon points="242.78 128.2 239.03 126.17 238.2 130.33 237.18 126.28 233.53 128.79 235.83 125.11 231.52 124.49 235.78 123.3 233.34 119.92 237.07 121.96 237.91 117.78 238.95 121.84 242.57 119.33 240.29 123.03 244.59 123.64 240.32 124.82 242.78 128.2" style="fill:#2ba0f7"/><polygon points="64.14 151.46 62.2 146.03 57.6 149.42 60.23 144.47 54.27 143.68 59.93 142.09 56.14 137.57 61.52 140.26 62.12 134.68 64.04 140.09 68.67 136.7 66.04 141.65 71.97 142.44 66.32 144.05 70.11 148.54 64.74 145.87 64.14 151.46" style="fill:#343844"/><polygon points="63.8 149.26 62.39 145.23 58.98 147.76 60.94 144.07 56.55 143.49 60.72 142.3 57.94 138.95 61.9 140.93 62.35 136.78 63.76 140.79 67.18 138.26 65.23 141.97 69.59 142.54 65.43 143.75 68.2 147.09 64.25 145.1 63.8 149.26" style="fill:#2ba0f7"/><polygon points="43.3 33.7 76.13 64.98 48.57 27.69 43.3 33.7" style="fill:#72cff5"/><polygon points="48.57 27.69 43.3 33.7 76.13 64.98 48.57 27.69 48.57 27.69" style="fill:#00bbed"/><path d="M57.72,29,47.66,33l-3.28,10.3L37.5,34.92,26.69,35l5.8-9.12L29.09,15.6l10.47,2.7,8.7-6.41.67,10.79Z" style="fill:#00bbed"/><polygon points="44.89 19.8 40.19 22.66 35 20.82 36.98 26.19 32.91 30.53 38.39 30.99 41.51 35.52 43.63 30.45 48.91 28.89 44.74 25.3 44.89 19.8" style="fill:#fff"/><polygon points="28.41 203.89 69.29 184.26 24.66 196.83 28.41 203.89" style="fill:#72cff5"/><polygon points="69.29 184.26 24.66 196.83 28.41 203.89 69.29 184.26 69.29 184.26" style="fill:#00bbed"/><path d="M29.11,188.73l.15,10.81,8.47,6.72L27.5,209.74l-3.77,10.13-6.48-8.65-10.8-.45,6.23-8.84L9.77,191.52l10.33,3.2Z" style="fill:#00bbed"/><polygon points="15.98 197.48 16.98 202.89 13.43 207.09 19.15 207.14 21.77 212.48 24.14 207.52 29.48 206.21 25.49 202.42 25.9 196.94 21.07 199.56 15.98 197.48" style="fill:#fff"/><polygon points="249.63 77.29 221.77 96.68 253.25 82.06 249.63 77.29" style="fill:#72cff5"/><polygon points="249.63 77.29 221.77 96.68 253.25 82.06 249.63 77.29 249.63 77.29" style="fill:#00bbed"/><path d="M250.93,88.57l-1.4-8-7.07-3.95,7.15-3.8,1.57-7.94L257,70.53l8-1-3.55,7.28,3.4,7.34-8-1.12Z" style="fill:#00bbed"/><polygon points="259.59 80.54 258.2 76.66 260.33 73.13 256.09 73.78 253.51 70.14 252.36 74.09 248.56 75.7 251.97 78.02 252.32 82.12 255.58 79.6 259.59 80.54" style="fill:#fff"/><path d="M227.89,166.6c-1.85.06-3.75.28-5.61.45q-.57,2.77-1.32,5.5a37.15,37.15,0,0,0-1.83-5.29,15.69,15.69,0,0,1-4.4-.4c.76-.68,1.85-1.63,3.05-2.72-.67-1.53-1.27-2.87-1.59-3.78a11.89,11.89,0,0,1,4,1.56,37.43,37.43,0,0,0,3.57-3.89c-.21,1.87-.47,3.74-.79,5.59A49.22,49.22,0,0,0,227.89,166.6Z" style="fill:#f4ba56"/><path d="M217.92,177.06a5.91,5.91,0,0,1,1.48-4.87c0-.05.12,0,.09.08a31.71,31.71,0,0,0-1.21,4.93C218.23,177.38,218,177.25,217.92,177.06Z" style="fill:#fff"/><path d="M217.72,171.47c-.32,1.19-.72,2.33-1,3.54a6.25,6.25,0,0,1-1.24,3c-.19.19-.56,0-.55-.37a5.85,5.85,0,0,1,.93-2.76c.61-1.12,1.14-2.31,1.74-3.45C217.63,171.3,217.74,171.38,217.72,171.47Z" style="fill:#fff"/><path d="M217.07,169.62c-1.24,1.67-2.18,3.56-3.88,4.7-.13.08-.38-.15-.3-.31,1-1.95,2.64-3,4.12-4.46C217,169.52,217.1,169.58,217.07,169.62Z" style="fill:#fff"/><path d="M28.89,77.6c-1.85.06-3.75.28-5.61.45q-.57,2.78-1.32,5.5a37.15,37.15,0,0,0-1.83-5.29,15.69,15.69,0,0,1-4.4-.4c.76-.68,1.85-1.63,3.05-2.72-.67-1.53-1.27-2.87-1.59-3.78a11.89,11.89,0,0,1,4,1.56A37.43,37.43,0,0,0,24.73,69c-.21,1.87-.47,3.74-.79,5.59A49.22,49.22,0,0,0,28.89,77.6Z" style="fill:#f4ba56"/><path d="M18.92,88.06a5.91,5.91,0,0,1,1.48-4.87s.12,0,.09.08a31.71,31.71,0,0,0-1.21,4.93C19.23,88.38,19,88.25,18.92,88.06Z" style="fill:#fff"/><path d="M18.72,82.47c-.32,1.19-.72,2.33-1,3.54A6.25,6.25,0,0,1,16.47,89c-.19.19-.56,0-.55-.37a5.85,5.85,0,0,1,.93-2.76c.61-1.12,1.14-2.31,1.74-3.45C18.63,82.3,18.74,82.38,18.72,82.47Z" style="fill:#fff"/><path d="M18.07,80.62c-1.24,1.67-2.18,3.56-3.88,4.7-.13.08-.38-.15-.3-.31,1-2,2.64-3,4.12-4.46C18,80.52,18.1,80.58,18.07,80.62Z" style="fill:#fff"/><path d="M61.13,251.6A7.45,7.45,0,0,0,63.5,254c-2.2,1.16-3.75,1.44-4.87,1.12-2.59-.73-2.62-2.61-2.79-5.42a20.65,20.65,0,0,0,4.17,1,36.73,36.73,0,0,1-4.25-2.22l-.09-.86c0,.09-.11.38-.2.68-1.76-1.09-3.39-2.34-3.6-3.29-.58-2.59,2.13-4.08,4.73-6,0,.11.07.22.1.33q.11-.27.18-.54c.45-.34.9-.68,1.32-1.06-.38.21-.79.41-1.2.61.45-1.8.51-3.62,2.5-4.22a7.3,7.3,0,0,1,4.13.22c-.61.37-1.19.81-1.72,1.19.07,0,4.8-1.88,6.14.35a14.17,14.17,0,0,1,1.13,2.84,10.3,10.3,0,0,0-1.13-.25,6.74,6.74,0,0,1,1.16.34,5.69,5.69,0,0,1,.23,1.22,7.82,7.82,0,0,0,0-1.1,3.18,3.18,0,0,1,1.85,2.6,13.65,13.65,0,0,1-.79,4.32c0-.1-.11-.2-.17-.3a3.5,3.5,0,0,1,.09.55c-.1.29-.2.55-.29.77l.31-.62c.11,1.7-.51,4.57-2.12,5.69C66.29,253.36,64.47,252.91,61.13,251.6Z" style="fill:#fff"/><path d="M54.94,249.53c-.83,4,.28,6.52,3.3,7.6a3.6,3.6,0,0,0,1.93.14,7.53,7.53,0,0,0,4-2.74,6.18,6.18,0,0,0,3.63.38A5.93,5.93,0,0,0,70,254c1.81-1.21,2.62-4.63.81-8.07,1-2.17,1.35-3.57,1.16-4.82a3.09,3.09,0,0,0-2.33-2.49c-.07-.91-.39-3.34-2-4.7a2.61,2.61,0,0,0-2.27-.59,4.51,4.51,0,0,0-1.1.38c-2.39-1.92-4.53-2.67-6.53-2.28a5.66,5.66,0,0,0-.56.13,2.48,2.48,0,0,0-1.57,1.2c-.69,1.31-.19,3.26.57,5.68-.66.29-1.34.57-2,.84-3.3,1.36-6.42,2.65-5.8,5.2C48.85,246.24,51.28,248.11,54.94,249.53Zm-2.88-4.59c-.47-2.15,1.46-3.51,3.69-5.09l.74-.53.2.61.2-.53c.06-.16.11-.32.16-.48.37-.29.84-.64,1.28-1l1.29-1.14-1.51.82-.82.42.09-.41c.32-1.49.59-2.78,2.18-3.26a4.7,4.7,0,0,1,.51-.12,6.82,6.82,0,0,1,3.07.23c-.43.28-.85.59-1.22.87l-.5.37.46.07H62l.15,0a14,14,0,0,1,1.94-.53c1.36-.26,3.12-.33,3.82.83a14.16,14.16,0,0,1,1,2.46,7.25,7.25,0,0,0-.81-.16l-.07.39a5.17,5.17,0,0,1,1,.29,4.52,4.52,0,0,1,.2,1.06v3.58l.4-3.55a6.57,6.57,0,0,0,0-.78,2.91,2.91,0,0,1,1.45,2.28,12.59,12.59,0,0,1-.64,3.82l-.68-1.12.37,1.35a3.28,3.28,0,0,1,.09.52c-.09.2-.19.46-.28.67l.3.14c-.06,1.62-.68,3.9-2,4.85a4.65,4.65,0,0,1-1.75.77c-1.36.26-2.85-.18-5.28-1.14l-.58-.23.34.52a7.65,7.65,0,0,0,2.15,2.23,10.42,10.42,0,0,1-2.65,1,3.73,3.73,0,0,1-1.77,0c-2.37-.67-2.48-2.28-2.64-4.95a21.73,21.73,0,0,0,3.93.94l1.49.18-1.39-.56a39.11,39.11,0,0,1-4.14-2.16c0-.25,0-.5-.07-.76l-.11-1-.4,1.36C53.39,246.72,52.22,245.65,52.06,244.94Z" style="fill:#323535"/><path d="M70.16,246.87a3.46,3.46,0,0,1-.23.44Z" style="fill:#323535"/><path d="M68.05,238.47c-.28-.05-.57-.08-.85-.11A7.93,7.93,0,0,1,68.05,238.47Z" style="fill:#323535"/><path d="M66.93,238.33l.27,0Z" style="fill:#323535"/><polygon points="64.64 251.66 82.95 229.38 82.92 228.84 56.95 241.41 64.64 251.66" style="fill:#fff"/><polygon points="77.22 233.93 61.55 246.28 63.88 246.05 77.22 233.93" style="fill:#323535"/><polygon points="78.69 230.82 66.97 237.05 65.71 237.17 78.69 230.82" style="fill:#323535"/><polygon points="80.4 230.43 64.78 241.49 62.73 241.55 80.4 230.43" style="fill:#323535"/><polygon points="68.44 245.54 67.42 248.75 84.06 227.93 68.44 245.54" style="fill:#323535"/><polygon points="81.11 231.58 68.64 245.83 68.01 247.82 81.11 231.58" style="fill:#fff"/><path d="M166.08,11.33a7.35,7.35,0,0,0-3.24-.83c1.31-2.11,2.51-3.14,3.64-3.43,2.61-.67,3.58.93,5.15,3.28a21.42,21.42,0,0,0-4.12,1.22,37.18,37.18,0,0,1,4.8-.23l.5.7c0-.1-.09-.38-.17-.69,2.08.06,4.11.31,4.77,1,1.81,2,.22,4.61-1.06,7.55l-.26-.23c0,.19.07.37.11.55-.21.53-.43,1.05-.6,1.59.23-.38.48-.75.73-1.13.52,1.77,1.39,3.38,0,4.9a7.13,7.13,0,0,1-3.67,1.89c.34-.63.62-1.29.88-1.89-.06,0-3.2,4-5.47,2.79a13.77,13.77,0,0,1-2.41-1.87c.36-.1.73-.22,1.1-.36a6.17,6.17,0,0,1-1.18.29,6.27,6.27,0,0,1-.81-.93,9.54,9.54,0,0,0,.53,1,3.17,3.17,0,0,1-2.91-1.31,13.68,13.68,0,0,1-1.5-4.13l.3.17a4.08,4.08,0,0,1-.36-.42c-.06-.31-.11-.58-.14-.82,0,.24,0,.47.05.69-1-1.41-1.86-4.2-1-6C160.73,12.41,162.53,11.89,166.08,11.33Z" style="fill:#fff"/><path d="M172.46,10c-1.28-3.85-3.53-5.49-6.69-4.9a3.58,3.58,0,0,0-1.72.85,7.42,7.42,0,0,0-2.11,4.41,6.19,6.19,0,0,0-3.33,1.5,5.66,5.66,0,0,0-1.43,1.85c-1,1.95.07,5.31,3.37,7.37.22,2.38.63,3.76,1.43,4.75a3.1,3.1,0,0,0,3.27,1c.52.75,2,2.69,4.06,3.07a2.56,2.56,0,0,0,2.26-.64,4.19,4.19,0,0,0,.76-.88c3,.46,5.26,0,6.79-1.32a5.14,5.14,0,0,0,.41-.4,2.44,2.44,0,0,0,.75-1.82c-.06-1.48-1.48-2.92-3.35-4.62.42-.59.86-1.17,1.29-1.74,2.16-2.84,4.2-5.52,2.39-7.41C179.38,9.76,176.34,9.37,172.46,10Zm4.81,2.5c1.49,1.62.51,3.77-.62,6.27-.13.27-.25.54-.37.82l-.48-.42.1.55a4.59,4.59,0,0,0,.1.51c-.18.43-.4,1-.59,1.53l-.53,1.64.89-1.47c.16-.26.32-.52.49-.78,0,.14.09.27.13.4.48,1.45.89,2.7-.23,3.92-.13.13-.25.25-.38.36A6.91,6.91,0,0,1,173,27.18c.23-.46.43-.94.62-1.37l.24-.57-.43.17-.08.06-.1.11A14.48,14.48,0,0,1,171.85,27c-1,.91-2.54,1.86-3.72,1.21A13.46,13.46,0,0,1,166,26.61a7,7,0,0,0,.77-.27l-.13-.37a5.32,5.32,0,0,1-1,.27,5.11,5.11,0,0,1-.71-.82l-1.79-3.09,1.44,3.26c.11.23.22.46.36.7a2.87,2.87,0,0,1-2.39-1.24,12.23,12.23,0,0,1-1.38-3.62l1.15.62-1-1a2.93,2.93,0,0,1-.34-.4c0-.22-.07-.49-.1-.72l-.33,0c-.76-1.43-1.38-3.71-.68-5.22A4.57,4.57,0,0,1,161,13.22c1.05-.92,2.55-1.29,5.13-1.69l.62-.1-.56-.28a7.77,7.77,0,0,0-3-.83A10.28,10.28,0,0,1,165,8.14a3.81,3.81,0,0,1,1.54-.88c2.38-.61,3.29.73,4.77,3a20.84,20.84,0,0,0-3.87,1.18l-1.38.59,1.49-.22a37,37,0,0,1,4.66-.22l.45.62.58.78-.34-1.38C175.22,11.64,176.77,12,177.27,12.5Z" style="fill:#323535"/><path d="M160.66,20a2.93,2.93,0,0,1,0-.49C160.65,19.65,160.65,19.81,160.66,20Z" style="fill:#323535"/><path d="M166.73,26.16l.79-.33C167.33,25.91,167.06,26,166.73,26.16Z" style="fill:#323535"/><path d="M167.76,25.72l-.24.11A1,1,0,0,1,167.76,25.72Z" style="fill:#323535"/><polygon points="163.01 13.05 158.44 41.52 158.75 41.98 174.83 18.03 163.01 13.05" style="fill:#fff"/><polygon points="161.1 34.71 168.39 16.14 166.5 17.51 161.1 34.71" style="fill:#323535"/><polygon points="161.4 38.13 168.38 26.84 169.41 26.1 161.4 38.13" style="fill:#323535"/><polygon points="160.12 39.33 168.02 21.9 169.77 20.82 160.12 39.33" style="fill:#323535"/><polygon points="162.82 20.25 162.09 16.96 158.22 43.34 162.82 20.25" style="fill:#323535"/><polygon points="158.93 38.7 162.5 20.1 162.04 18.07 158.93 38.7" style="fill:#fff"/><path d="M203.8,118.84c-.46,1.89-.78,3.86-1.13,5.78q2.61,1.36,5.15,2.88a39.08,39.08,0,0,0-5.83.35,16.64,16.64,0,0,1-1.65,4.31c-.47-1-1.12-2.33-1.88-3.84-1.73.25-3.24.46-4.25.52a12.81,12.81,0,0,1,2.69-3.55,40.57,40.57,0,0,0-2.9-4.69c1.83.75,3.63,1.54,5.4,2.39A52.83,52.83,0,0,0,203.8,118.84Z" style="fill:#f37024"/><path d="M194.41,243.53c-1.11-.61-2.31-1.14-3.46-1.69-.87.95-1.77,1.88-2.69,2.79a25.25,25.25,0,0,0,.75-3.76,11.07,11.07,0,0,1-2.45-1.77l2.75-.54c.13-1.14.25-2.14.38-2.78a8.15,8.15,0,0,1,1.8,2.3,25.28,25.28,0,0,0,3.45-1.05c-.77,1-1.58,2-2.41,3A37.2,37.2,0,0,0,194.41,243.53Z" style="fill:#f37024"/><path d="M106.25,220.52c1.5,1.82,3.2,3.57,4.81,5.32q3.24-1.56,6.58-2.93a47.2,47.2,0,0,0-3.92,6,20.38,20.38,0,0,1,3,4.75c-1.28-.23-3.09-.6-5.12-1-1,1.87-1.91,3.51-2.59,4.54a15.26,15.26,0,0,1-1.5-5.22,48,48,0,0,0-6.7-.6c2.06-1.24,4.15-2.41,6.28-3.53A65.84,65.84,0,0,0,106.25,220.52Z" style="fill:#1183c6"/><path d="M150.14,233.73c-1.06,3.07-1.89,6.31-2.77,9.45q4.15,2.69,8.16,5.6a65.72,65.72,0,0,0-9.8-.31,27.28,27.28,0,0,1-3.4,6.93c-.64-1.66-1.52-4.05-2.54-6.69-2.92.15-5.48.28-7.18.22a21.16,21.16,0,0,1,5-5.5,65.66,65.66,0,0,0-4.12-8.27q4.4,2.28,8.65,4.81A91,91,0,0,0,150.14,233.73Z" style="fill:#fdcc25"/><path d="M50.86,92c-.24-1.76-.63-3.54-1-5.29q-2.68-.28-5.35-.72a34.46,34.46,0,0,0,4.85-2.26,15.28,15.28,0,0,1-.05-4.21c.72.65,1.74,1.6,2.89,2.63,1.38-.79,2.6-1.48,3.44-1.87a11.65,11.65,0,0,1-1.1,3.92,36.76,36.76,0,0,0,4,3c-1.8,0-3.6-.09-5.4-.22A50,50,0,0,0,50.86,92Z" style="fill:#e96347"/><path d="M55.78,80l0,0a.34.34,0,0,1,.14.28,11.25,11.25,0,0,1-1,3.81A32.06,32.06,0,0,0,58.76,87a.31.31,0,0,1,.14.35.32.32,0,0,1-.31.23c-1.73,0-3.48-.09-5.2-.2l-.11.2a43.73,43.73,0,0,0-2.13,4.58.31.31,0,0,1-.6-.07c-.18-1.35-.46-2.74-.74-4.08-.06-.32-.12-.64-.19-1-1.71-.19-3.44-.42-5.14-.7a.32.32,0,0,1-.26-.28.32.32,0,0,1,.21-.32A34.21,34.21,0,0,0,49,83.58a14.69,14.69,0,0,1,0-4.09.31.31,0,0,1,.51-.18c.32.28.69.63,1.1,1s1,1,1.62,1.47C53.58,81,54.72,80.4,55.53,80A.28.28,0,0,1,55.78,80Zm1.75,6.89c-.93-.64-2-1.45-3.17-2.45a.31.31,0,0,1-.08-.36,13.11,13.11,0,0,0,1-3.28c-.75.38-1.7.92-2.76,1.53l-.17.09a.3.3,0,0,1-.36,0c-.65-.58-1.25-1.13-1.78-1.62l-.66-.61a15.68,15.68,0,0,0,.12,3.55.33.33,0,0,1-.16.31c-1.5.8-2.74,1.41-3.81,1.86,1.39.21,2.8.39,4.2.53a.33.33,0,0,1,.27.25c.07.39.15.79.23,1.18.2,1,.41,2,.57,3,.52-1.2,1.14-2.4,1.74-3.58l.2-.39a.3.3,0,0,1,.29-.17C54.65,86.81,56.09,86.88,57.53,86.91Z" style="fill:#343536"/><polygon points="58.35 91.55 55.49 89.13 58.06 92.41 58.35 91.55" style="fill:#343536"/><polygon points="57.05 92.47 55.05 89.15 56.47 92.51 57.05 92.47" style="fill:#343536"/><polygon points="42.75 81.6 46.96 82.69 42.79 80.63 42.75 81.6" style="fill:#343536"/><polygon points="43.96 80.11 47.47 82.46 44.65 79.81 43.96 80.11" style="fill:#343536"/><polygon points="48.09 92.5 48.97 87.83 47.1 93.35 48.09 92.5" style="fill:#343536"/><polygon points="43.65 90.36 48.45 87.49 44.27 89.22 43.65 90.36" style="fill:#343536"/><polygon points="60.23 83.36 60.62 82.81 55.98 83.63 60.23 83.36" style="fill:#343536"/><polygon points="56.42 83.08 60.1 81.27 59.34 81.01 56.42 83.08" style="fill:#343536"/><polygon points="54.54 77.21 54.33 76.61 52.41 80.7 54.54 77.21" style="fill:#343536"/><polygon points="52.23 80.05 52.85 76.18 52.24 76.64 52.23 80.05" style="fill:#343536"/></svg>