<svg xmlns="http://www.w3.org/2000/svg" width="275" height="275" viewBox="0 0 275 275"><title>_</title><path d="M25.83,175.53a5.11,5.11,0,0,0-.93,1.07,5.58,5.58,0,0,0-.22,5.58,6.72,6.72,0,0,0,4.94,3.62h0a9.54,9.54,0,0,0,2.77.14,5.36,5.36,0,0,1-2.63.23c.06.16.13.32.2.47a7.48,7.48,0,0,0,9.25,3.78,6.38,6.38,0,0,0,3.77-4,3.83,3.83,0,0,0,2.33-3A2.45,2.45,0,0,0,45,182c-.8.67-1.12.69-1.12.69a5.49,5.49,0,0,0,1-1,5,5,0,0,0,.39-5.05,6,6,0,0,0-3.72-3c-.1.9-.37,1.08-.37,1.08a3.1,3.1,0,0,0,0-1.33h0a7,7,0,0,0-8.56-3.62,4.15,4.15,0,0,0-2.91-.87,5.91,5.91,0,0,0-5.15,5.18,4.81,4.81,0,0,0,.25,2.14C25.51,175.57,25.83,175.53,25.83,175.53Z" style="fill:#ffd263"/><path d="M38.84,168.48A6.49,6.49,0,0,1,42.79,172c-.25-1.43-1.58-2.84-3.69-3.64a9.22,9.22,0,0,0-4.83-.54A10.76,10.76,0,0,1,38.84,168.48Z" style="fill:#343844"/><path d="M39.24,167.38a4.51,4.51,0,0,1,2.39,1.47,3.77,3.77,0,0,0-2.25-1.59,5.66,5.66,0,0,0-2.47-.24A6.25,6.25,0,0,1,39.24,167.38Z" style="fill:#343844"/><path d="M46.93,184.25a5.36,5.36,0,0,1-2,2.79,4.87,4.87,0,0,0,2.21-2.7,2.92,2.92,0,0,0-.31-2.36A3.53,3.53,0,0,1,46.93,184.25Z" style="fill:#343844"/><path d="M34.34,172.27A3.43,3.43,0,0,1,37,173.64c-.16-.61-.9-1.3-2.41-1.49a10.3,10.3,0,0,0-3.65.26A11.27,11.27,0,0,1,34.34,172.27Z" style="fill:#343844"/><path d="M47.83,184.12a2.84,2.84,0,0,1-.76,1.5,2.68,2.68,0,0,0,.87-1.47,2,2,0,0,0-.17-1.19A2.11,2.11,0,0,1,47.83,184.12Z" style="fill:#343844"/><path d="M42.18,182.62A5.24,5.24,0,0,1,40.7,184a4.89,4.89,0,0,0,1.56-1.31,3.46,3.46,0,0,0,.6-1.33A3.72,3.72,0,0,1,42.18,182.62Z" style="fill:#343844"/><path d="M43.26,186.9a4.38,4.38,0,0,0,2.68-3.18,2.49,2.49,0,0,0-.49-1.78,5.28,5.28,0,0,0,.45-5.43,6.22,6.22,0,0,0-4.21-3.23,1.54,1.54,0,0,0-.08-.19,7.6,7.6,0,0,0-9.26-3.77,3.89,3.89,0,0,0-2.86-1,6.19,6.19,0,0,0-5.44,5.48,5.63,5.63,0,0,0,.44,2.75,5.66,5.66,0,0,0-.37,5.74,7.12,7.12,0,0,0,5.22,3.82,7.33,7.33,0,0,0,.39.91,7.87,7.87,0,0,0,9.74,4A6.33,6.33,0,0,0,43.26,186.9Zm-4,3.51A7.49,7.49,0,0,1,30,186.63a8.49,8.49,0,0,1-.35-.85,6.77,6.77,0,0,1-4.93-3.64,5.65,5.65,0,0,1,.24-5.6,5,5,0,0,1-.34-2.42,5.93,5.93,0,0,1,5.16-5.19,4.11,4.11,0,0,1,2.92.87,7,7,0,0,1,8.56,3.62,1.46,1.46,0,0,0,.07.19,5.86,5.86,0,0,1,4,3,5,5,0,0,1-.42,5.13,2.38,2.38,0,0,1,.44,1.69,3.77,3.77,0,0,1-2.31,3A6.39,6.39,0,0,1,39.21,190.41Z" style="fill:#343844"/><path d="M28.81,186c2.56.42,3.59-.11,3.59-.11a10.12,10.12,0,0,1-3.15-.22Z" style="fill:#343844"/><path d="M24.43,176.69c1-1.14,1.4-1.19,1.4-1.19a5.49,5.49,0,0,0-1,1.2Z" style="fill:#343844"/><path d="M41.59,173.24c0,1.27-.38,1.51-.38,1.51a3,3,0,0,0,0-1.33Z" style="fill:#343844"/><path d="M45.43,181.61c-1.14,1.07-1.56,1.08-1.56,1.08A5.49,5.49,0,0,0,45,181.55Z" style="fill:#343844"/><polygon points="34.94 195.71 35.65 194.54 36.87 195.19 36.26 194.17 37.98 193.92 36.42 193.66 37.61 192.63 36.01 193.28 36 192.1 35.3 193.29 34.08 192.62 34.68 193.66 32.98 193.9 34.53 194.16 33.33 195.18 34.92 194.54 34.94 195.71" style="fill:#343844"/><polygon points="20.16 179.46 20.7 178.56 21.23 179.44 21.08 178.37 22 178.54 21.22 177.94 22.01 177.3 21.09 177.52 21.27 176.45 20.72 177.35 20.19 176.47 20.34 177.54 19.42 177.38 20.18 177.97 19.42 178.62 20.34 178.39 20.16 179.46" style="fill:#343844"/><polygon points="43.16 179.32 43.43 178.87 43.69 179.31 43.61 178.78 44.07 178.87 43.69 178.57 44.08 178.25 43.62 178.36 43.71 177.82 43.44 178.27 43.18 177.84 43.25 178.37 42.8 178.29 43.16 178.58 42.78 178.91 43.25 178.79 43.16 179.32" style="fill:#343844"/><path d="M208.39,211.23a3.12,3.12,0,0,1,.71-.34l0,0a6.76,6.76,0,0,0-.53-.46,6.86,6.86,0,0,0-.72-.44,6,6,0,0,0-.9-.32,4.18,4.18,0,0,0-1-.17,3.71,3.71,0,0,0-1.09.09,4.56,4.56,0,0,0-1,.42l-.1.06a2.6,2.6,0,0,0-.38.27l-.35.29a4.7,4.7,0,0,0-.63.73,5.11,5.11,0,0,0-.42.74c-.08.18-.14.35-.2.51a2.91,2.91,0,0,1,.6.06,4,4,0,0,1,.78.2c.23.09.43.18.61.27l.41.27.32.26-.15.66a3.76,3.76,0,0,1,.68-.54,4.2,4.2,0,0,1,1.52-.59,3.83,3.83,0,0,1,.89,0l0-1,.06-.07.17-.19a2.11,2.11,0,0,1,.3-.28A2.92,2.92,0,0,1,208.39,211.23Z" style="fill:#fff"/><path d="M205.59,225.7l.06,0h0l0,0,.11.14a3.08,3.08,0,0,0,.24.27,3.27,3.27,0,0,0,1.23.73,3.1,3.1,0,0,0,1.68.08,2.9,2.9,0,0,0,1.4-.81,3.25,3.25,0,0,0,.76-1.3,3,3,0,0,0,.12-.72v-.27s0,0,0-.06h.5a2.85,2.85,0,0,0,.78-.16,3.15,3.15,0,0,0,1.21-.79,2.58,2.58,0,0,0,.62-1.11,2.62,2.62,0,0,0,.08-1.06,2.68,2.68,0,0,0-.51-1.36,1.81,1.81,0,0,0-.24-.3l-.06-.05s0,0,0,.06a1.58,1.58,0,0,1,.22.31,2.68,2.68,0,0,1,.38,1.35,2.63,2.63,0,0,1-.16,1,2.34,2.34,0,0,1-.61,1,2.69,2.69,0,0,1-1.11.62,2.47,2.47,0,0,1-.67.1h-.31l-.07,0-.32-.06-.37-.08c0,.19,0,.38.07.57v.37a2.32,2.32,0,0,1-.12.57,2.78,2.78,0,0,1-.66,1.05,2.31,2.31,0,0,1-1.11.62,2.38,2.38,0,0,1-1.32-.07,2.54,2.54,0,0,1-1-.59c-.06-.07-.13-.13-.19-.21l-.09-.11a.63.63,0,0,0-.07-.1L206,225s0-.05-.05,0h-.06l-.25.09-.24.07-.13,0a3.3,3.3,0,0,1-2.13-.28,3.38,3.38,0,0,1-1.46-1.3,3.08,3.08,0,0,1-.41-1.68,3.68,3.68,0,0,1,.33-1.44,3.64,3.64,0,0,1,.54-.86l.08-.1.14-.14a2.49,2.49,0,0,1,.42-.34l.21-.14-.23.11a4.78,4.78,0,0,0-.47.3l-.15.12-.11.1a3.7,3.7,0,0,0-.66.83,3.89,3.89,0,0,0-.51,1.53,3.44,3.44,0,0,0,.36,2,3.62,3.62,0,0,0,.67.91,3.84,3.84,0,0,0,1,.69,4,4,0,0,0,2.53.36l.16,0Zm4.54,2.71a4.63,4.63,0,0,1-.68.53,4.45,4.45,0,0,1-1.16.51,4.3,4.3,0,0,1-1.5.17,4.8,4.8,0,0,1-1.47-.36,4.73,4.73,0,0,1-1.08-.63,3.73,3.73,0,0,1-.63-.59l-.21-.24.16.28a2.61,2.61,0,0,0,.2.32,3.46,3.46,0,0,0,.33.4,4.1,4.1,0,0,0,1.07.81,3.84,3.84,0,0,0,1.6.42,3.86,3.86,0,0,0,1.63-.28,3.8,3.8,0,0,0,1.15-.68,3.94,3.94,0,0,0,.62-.64l.19-.25Zm-2.44-16.5a3.2,3.2,0,0,1,.85-.35,4.43,4.43,0,0,1,.6-.14l.37,0h.31a4.57,4.57,0,0,1,1.51.26,4,4,0,0,1,1.3.83,3.73,3.73,0,0,1,.39.41l.08.1.05.07a2.93,2.93,0,0,1,.3.45,4.21,4.21,0,0,1,.35.84c0,.11,0,.19,0,.25a.62.62,0,0,1,0,.09.31.31,0,0,0,0-.09,2.21,2.21,0,0,1,0-.26,4.28,4.28,0,0,0-.15-.95l-.06-.19.36.13a6.48,6.48,0,0,1,.83.42,7.88,7.88,0,0,1,.85.64,5.27,5.27,0,0,1,.77.85,6.71,6.71,0,0,1,.61,1.05,5.56,5.56,0,0,1,.34,1.17,6.48,6.48,0,0,1,.08,1.15,6.85,6.85,0,0,1-.13,1,5.16,5.16,0,0,1-.29.89,3.35,3.35,0,0,1-.3.6,3,3,0,0,0-.15-.38,6.44,6.44,0,0,0-.7-1.24,6.25,6.25,0,0,0-.81-.92,5.71,5.71,0,0,0-.79-.63,6.53,6.53,0,0,0-.65-.39c-.18-.11-.33-.15-.43-.21l-.14-.06.13.08c.09.06.24.13.4.25s.18.13.27.21.2.17.31.26a6.55,6.55,0,0,1,.68.7,8.3,8.3,0,0,1,.67.95,8.9,8.9,0,0,1,.57,1.2c.09.25.17.52.24.79a.31.31,0,0,1,0,.08,5.17,5.17,0,0,1,.11.54,7.24,7.24,0,0,1,0,1.55,6.78,6.78,0,0,1-.35,1.51,8,8,0,0,1-.64,1.31,7,7,0,0,1-.81,1.07,6.79,6.79,0,0,1-.87.78c-.21.16-.41.29-.6.41l-.19.11,0,0a4.43,4.43,0,0,1-.5.24l-.17.08a3.28,3.28,0,0,1-.44.15l-.13,0,.13,0a4.12,4.12,0,0,0,.47-.11l.11,0a5,5,0,0,1-.37.84,5.43,5.43,0,0,1-1.2,1.5,6,6,0,0,1-.83.55,5.31,5.31,0,0,1-.86.37,7.4,7.4,0,0,1-.85.2h-.06l.15-.27a3.7,3.7,0,0,0,.17-.42c0-.12,0-.22.07-.28a.35.35,0,0,0,0-.1l0,.09a2.57,2.57,0,0,1-.12.26,3.5,3.5,0,0,1-.23.38,2.75,2.75,0,0,1-.33.37L208,233a3.11,3.11,0,0,1-.43.35l-.11.07a3.5,3.5,0,0,1-.7.34,3.54,3.54,0,0,1-.81.18,3.18,3.18,0,0,1-.87,0,3.72,3.72,0,0,1-1.48-.76,4.08,4.08,0,0,1-.92-1.07l-.09-.16-.12-.25,0-.1a2.73,2.73,0,0,1-.13-.42,2.3,2.3,0,0,1,0-.28.65.65,0,0,0,0-.1.82.82,0,0,1,0,.1c0,.06,0,.16,0,.28s0,.29,0,.47h0a6.69,6.69,0,0,1-1-.32,7.43,7.43,0,0,1-1.08-.56,6.42,6.42,0,0,1-1-.81,5.5,5.5,0,0,1-1.48-2.32,5.29,5.29,0,0,1-.29-1.27,7.05,7.05,0,0,1-.05-1.2,7.86,7.86,0,0,1,.14-1,5.12,5.12,0,0,1,.22-.8,1.59,1.59,0,0,1,.07-.2,3.27,3.27,0,0,1,.21-.49c.08-.17.17-.29.21-.38l.08-.13-.1.11c-.06.08-.18.18-.29.33l-.2.26a.71.71,0,0,0-.1.14,3,3,0,0,1-.71-.91,3.6,3.6,0,0,1-.35-1.67,4.25,4.25,0,0,1,.27-1.4c0-.1.07-.19.11-.29s0-.09.07-.13a5.36,5.36,0,0,1,.71-1.1,4.87,4.87,0,0,1,.39-.45,2.16,2.16,0,0,0,.46.59,2.12,2.12,0,0,0,.24.19l.07.05a.33.33,0,0,0-.06-.06,1.25,1.25,0,0,1-.2-.23,2.11,2.11,0,0,1-.33-.72.29.29,0,0,0,0-.09l0-.19a2.34,2.34,0,0,1,0-.59,2.07,2.07,0,0,1,.16-.59c0-.1.09-.19.14-.29a3.79,3.79,0,0,1,1.29-1.29,4.68,4.68,0,0,1,.59-.3,1.69,1.69,0,0,1,.28-.12l.29-.09a4.29,4.29,0,0,1,.6-.13h.16a5.38,5.38,0,0,1,.68,0,5.24,5.24,0,0,1,.74.08,6.22,6.22,0,0,1,.61.14l.45.16a1.52,1.52,0,0,1,.28.13l.09,0-.15.66a4.28,4.28,0,0,0-.3.33,2.64,2.64,0,0,0-.29.41l-.2.33a2.77,2.77,0,0,0-.13.29,1.24,1.24,0,0,1,.18-.25,4.17,4.17,0,0,1,.6-.61,5.18,5.18,0,0,1,1-.69,4.93,4.93,0,0,1,1.4-.5,4.74,4.74,0,0,1,2.7.23,5.29,5.29,0,0,1,.76.38l.26.18-.23-.21a4.37,4.37,0,0,0-.72-.49,4.77,4.77,0,0,0-1.22-.48,4.26,4.26,0,0,0-.74-.1l0-1,.07,0Zm.19,5.11a2.8,2.8,0,0,0-.44.15,2.86,2.86,0,0,0-.31.16l-.24.17.27-.09c.09,0,.19-.06.32-.08a3,3,0,0,1,.43,0,2.35,2.35,0,0,1,.51.06,2.85,2.85,0,0,1,.55.16,2.69,2.69,0,0,1,1,.71,2.72,2.72,0,0,1,.38.53,2.19,2.19,0,0,1,.19.58,1.41,1.41,0,0,1-.16,1,1.47,1.47,0,0,1-.53.51.93.93,0,0,1-.27.09h.07l.23,0a1.27,1.27,0,0,0,.7-.42,1.64,1.64,0,0,0,.42-1.2,2.35,2.35,0,0,0-.57-1.47,2.63,2.63,0,0,0-1.34-.8,2.69,2.69,0,0,0-.67-.09A2.56,2.56,0,0,0,207.88,217Z" style="fill:#fff"/><path d="M205,213.75a3.76,3.76,0,0,0-.68.54,4.28,4.28,0,0,0-.3.33,2.64,2.64,0,0,0-.29.41l-.2.33a2.77,2.77,0,0,0-.13.29,1.24,1.24,0,0,1,.18-.25,4.17,4.17,0,0,1,.6-.61,5.18,5.18,0,0,1,1-.69,4.93,4.93,0,0,1,1.4-.5,4.74,4.74,0,0,1,2.7.23,5.29,5.29,0,0,1,.76.38l.26.18-.23-.21a4.37,4.37,0,0,0-.72-.49,4.77,4.77,0,0,0-1.22-.48,4.26,4.26,0,0,0-.74-.1,3.83,3.83,0,0,0-.89,0A4.2,4.2,0,0,0,205,213.75Z" style="fill:#343536"/><path d="M209.92,220.93a1.27,1.27,0,0,0,.7-.42,1.64,1.64,0,0,0,.42-1.2,2.35,2.35,0,0,0-.57-1.47,2.63,2.63,0,0,0-1.34-.8,2.69,2.69,0,0,0-.67-.09,2.56,2.56,0,0,0-.58.07,2.8,2.8,0,0,0-.44.15,2.86,2.86,0,0,0-.31.16l-.24.17.27-.09c.09,0,.19-.06.32-.08a3,3,0,0,1,.43,0,2.35,2.35,0,0,1,.51.06,2.85,2.85,0,0,1,.55.16,2.69,2.69,0,0,1,1,.71,2.72,2.72,0,0,1,.38.53,2.19,2.19,0,0,1,.19.58,1.41,1.41,0,0,1-.16,1,1.47,1.47,0,0,1-.53.51.93.93,0,0,1-.27.09h.07Z" style="fill:#343536"/><path d="M205.36,225.75l.16,0h.07l.06,0h0l0,0,.11.14a3.08,3.08,0,0,0,.24.27,3.27,3.27,0,0,0,1.23.73,3.1,3.1,0,0,0,1.68.08,2.9,2.9,0,0,0,1.4-.81,3.25,3.25,0,0,0,.76-1.3,3,3,0,0,0,.12-.72v-.27s0,0,0-.06h.5a2.85,2.85,0,0,0,.78-.16,3.15,3.15,0,0,0,1.21-.79,2.58,2.58,0,0,0,.62-1.11,2.62,2.62,0,0,0,.08-1.06,2.68,2.68,0,0,0-.51-1.36,1.81,1.81,0,0,0-.24-.3l-.06-.05s0,0,0,.06a1.58,1.58,0,0,1,.22.31,2.68,2.68,0,0,1,.38,1.35,2.63,2.63,0,0,1-.16,1,2.34,2.34,0,0,1-.61,1,2.69,2.69,0,0,1-1.11.62,2.47,2.47,0,0,1-.67.1h-.31l-.07,0-.32-.06-.37-.08c0,.19,0,.38.07.57v.37a2.32,2.32,0,0,1-.12.57,2.78,2.78,0,0,1-.66,1.05,2.31,2.31,0,0,1-1.11.62,2.38,2.38,0,0,1-1.32-.07,2.54,2.54,0,0,1-1-.59c-.06-.07-.13-.13-.19-.21l-.09-.11a.63.63,0,0,0-.07-.1L206,225s0-.05-.05,0h-.06l-.25.09-.24.07-.13,0a3.3,3.3,0,0,1-2.13-.28,3.38,3.38,0,0,1-1.46-1.3,3.08,3.08,0,0,1-.41-1.68,3.68,3.68,0,0,1,.33-1.44,3.64,3.64,0,0,1,.54-.86l.08-.1.14-.14a2.49,2.49,0,0,1,.42-.34l.21-.14-.23.11a4.78,4.78,0,0,0-.47.3l-.15.12-.11.1a3.7,3.7,0,0,0-.66.83,3.89,3.89,0,0,0-.51,1.53,3.44,3.44,0,0,0,.36,2,3.62,3.62,0,0,0,.67.91,3.84,3.84,0,0,0,1,.69A4,4,0,0,0,205.36,225.75Z" style="fill:#343536"/><path d="M195,205.71c1.4.82,3,1.74,4.79,2.7,1,.57,2,1.1,3,1.59l-.2.21a5.17,5.17,0,0,0-.61.88,4.5,4.5,0,0,0-.34.86,4.08,4.08,0,0,0-.12.61h-.12a4.74,4.74,0,0,0-1.19.21l-.52-.4c-2.17-1.68-4.18-3.18-5.82-4.36a3.25,3.25,0,0,1-.23.29c1.57,1.28,3.55,2.83,5.72,4.49l.28.2a2,2,0,0,0-.32.18,3.48,3.48,0,0,0-1.45,1.65l-.05.12-.7-.66c-1.32-1.24-2.58-2.41-3.76-3.47l-1.15-1L192,210l-.14.1,1.15,1.12c1.13,1.1,2.39,2.28,3.73,3.51l.95.87a1.49,1.49,0,0,0,0,.21,2.61,2.61,0,0,0,.13.82,2.31,2.31,0,0,0,.1.28l.06.12a2.16,2.16,0,0,0,.46.59,2.12,2.12,0,0,0,.24.19l.07.05a.33.33,0,0,0-.06-.06,1.25,1.25,0,0,1-.2-.23,2.11,2.11,0,0,1-.33-.72.29.29,0,0,0,0-.09l0-.19a2.34,2.34,0,0,1,0-.59,2.07,2.07,0,0,1,.16-.59c0-.1.09-.19.14-.29a3.79,3.79,0,0,1,1.29-1.29,4.68,4.68,0,0,1,.59-.3,1.69,1.69,0,0,1,.28-.12l.29-.09a4.29,4.29,0,0,1,.6-.13h.16a5.38,5.38,0,0,1,.68,0,5.24,5.24,0,0,1,.74.08,6.22,6.22,0,0,1,.61.14l.45.16a1.52,1.52,0,0,1,.28.13l.09,0-.32-.26-.41-.27c-.18-.09-.38-.18-.61-.27a4,4,0,0,0-.78-.2,2.91,2.91,0,0,0-.6-.06c.06-.16.12-.33.2-.51a5.11,5.11,0,0,1,.42-.74,4.7,4.7,0,0,1,.63-.73l.35-.29a2.6,2.6,0,0,1,.38-.27l.1-.06a4.56,4.56,0,0,1,1-.42,3.71,3.71,0,0,1,1.09-.09,4.18,4.18,0,0,1,1,.17,6,6,0,0,1,.9.32,6.86,6.86,0,0,1,.72.44,6.76,6.76,0,0,1,.53.46l0,0a3.12,3.12,0,0,0-.71.34,2.92,2.92,0,0,0-.45.33,2.11,2.11,0,0,0-.3.28l-.17.19-.06.07.07,0,.21-.14a3.2,3.2,0,0,1,.85-.35,4.43,4.43,0,0,1,.6-.14l.37,0h.31a4.57,4.57,0,0,1,1.51.26,4,4,0,0,1,1.3.83,3.73,3.73,0,0,1,.39.41l.08.1.05.07a2.93,2.93,0,0,1,.3.45,4.21,4.21,0,0,1,.35.84c0,.11,0,.19,0,.25a.62.62,0,0,1,0,.09.31.31,0,0,0,0-.09,2.21,2.21,0,0,1,0-.26,4.28,4.28,0,0,0-.15-.95l-.06-.19.36.13a6.48,6.48,0,0,1,.83.42,7.88,7.88,0,0,1,.85.64,5.27,5.27,0,0,1,.77.85,6.71,6.71,0,0,1,.61,1.05,5.56,5.56,0,0,1,.34,1.17,6.48,6.48,0,0,1,.08,1.15,6.85,6.85,0,0,1-.13,1,5.16,5.16,0,0,1-.29.89,3.35,3.35,0,0,1-.3.6,3,3,0,0,0-.15-.38,6.44,6.44,0,0,0-.7-1.24,6.25,6.25,0,0,0-.81-.92,5.71,5.71,0,0,0-.79-.63,6.53,6.53,0,0,0-.65-.39c-.18-.11-.33-.15-.43-.21l-.14-.06.13.08c.09.06.24.13.4.25s.18.13.27.21.2.17.31.26a6.55,6.55,0,0,1,.68.7,8.3,8.3,0,0,1,.67.95,8.9,8.9,0,0,1,.57,1.2c.09.25.17.52.24.79a.31.31,0,0,1,0,.08,5.17,5.17,0,0,1,.11.54,7.24,7.24,0,0,1,0,1.55,6.78,6.78,0,0,1-.35,1.51,8,8,0,0,1-.64,1.31,7,7,0,0,1-.81,1.07,6.79,6.79,0,0,1-.87.78c-.21.16-.41.29-.6.41l.05.16a5.9,5.9,0,0,0,.69-.37,7.29,7.29,0,0,0,1-.73,8.84,8.84,0,0,0,.94-1.05,6.14,6.14,0,0,0,.77-1.38,6.36,6.36,0,0,0,.43-1.65,6.5,6.5,0,0,0,0-1.71,5.63,5.63,0,0,0-.23-.92h0a4.61,4.61,0,0,0,.47-.67,6.3,6.3,0,0,0,.44-.9,5.24,5.24,0,0,0,.28-1.12,4.6,4.6,0,0,0,0-1.29,5.19,5.19,0,0,0-.34-1.37,5.13,5.13,0,0,0-.73-1.2,5.65,5.65,0,0,0-.95-.89,5.8,5.8,0,0,0-1-.58,6.15,6.15,0,0,0-.95-.31l-.56-.09a3.69,3.69,0,0,0-2-1.95,3.19,3.19,0,0,0-.93-.24,3.76,3.76,0,0,0-.89,0,3,3,0,0,0-.47.1l-.07-.11a3.78,3.78,0,0,0-.47-.59,4.78,4.78,0,0,0-.7-.61,4.12,4.12,0,0,0-1-.49,3.63,3.63,0,0,0-1.17-.24,4.37,4.37,0,0,0-1.29.11,4.44,4.44,0,0,0-1.19.53,3.32,3.32,0,0,0-.36.26L200,208c-1.79-1-3.48-1.9-4.93-2.65A2.77,2.77,0,0,1,195,205.71Z" style="fill:#343536"/><path d="M205.91,229.9a3.93,3.93,0,0,0,2.48-.15,3.8,3.8,0,0,0,1.15-.68,3.94,3.94,0,0,0,.62-.64l.19-.25-.22.23a4.63,4.63,0,0,1-.68.53,4.45,4.45,0,0,1-1.16.51,4.3,4.3,0,0,1-1.5.17,4.8,4.8,0,0,1-1.47-.36,4.73,4.73,0,0,1-1.08-.63,3.73,3.73,0,0,1-.63-.59l-.21-.24.16.28a2.61,2.61,0,0,0,.2.32,3.46,3.46,0,0,0,.33.4,4.1,4.1,0,0,0,1.07.81A3.9,3.9,0,0,0,205.91,229.9Z" style="fill:#343536"/><path d="M190.41,210.88l-.27.1c1.35,1.75,3.12,4,5.09,6.31l1.1,1.31a3.92,3.92,0,0,0-.47,1.76,3.42,3.42,0,0,0,.52,1.88,3,3,0,0,0,.91.92,5.09,5.09,0,0,0-.41.81,6.06,6.06,0,0,0-.34,1.11,6.32,6.32,0,0,0-.11,1.34,6.69,6.69,0,0,0,.24,1.49,6.35,6.35,0,0,0,.68,1.48,5.28,5.28,0,0,0,1.1,1.2,6,6,0,0,0,1.27.8,6.09,6.09,0,0,0,1.27.42,8.17,8.17,0,0,0,1.13.13h.1c0,.1,0,.21.07.32a3,3,0,0,0,.29.72,3.8,3.8,0,0,0,.53.72,3.13,3.13,0,0,0,.81.61,2.94,2.94,0,0,0,1,.32,3.51,3.51,0,0,0,1.08,0,3.13,3.13,0,0,0,.93-.34,3.53,3.53,0,0,0,.72-.5,2.69,2.69,0,0,0,.29-.3,4.47,4.47,0,0,0,1.45,0,4.4,4.4,0,0,0,2.86-1.84,4.54,4.54,0,0,0,.5-1,4.46,4.46,0,0,0,.25-1c0-.13,0-.25,0-.37l0,0,.2-.1-.05-.16-.19.11,0,0a4.43,4.43,0,0,1-.5.24l-.17.08a3.28,3.28,0,0,1-.44.15l-.13,0,.13,0a4.12,4.12,0,0,0,.47-.11l.11,0a5,5,0,0,1-.37.84,5.43,5.43,0,0,1-1.2,1.5,6,6,0,0,1-.83.55,5.31,5.31,0,0,1-.86.37,7.4,7.4,0,0,1-.85.2h-.06l.15-.27a3.7,3.7,0,0,0,.17-.42c0-.12,0-.22.07-.28a.35.35,0,0,0,0-.1l0,.09a2.57,2.57,0,0,1-.12.26,3.5,3.5,0,0,1-.23.38,2.75,2.75,0,0,1-.33.37L208,233a3.11,3.11,0,0,1-.43.35l-.11.07a3.5,3.5,0,0,1-.7.34,3.54,3.54,0,0,1-.81.18,3.18,3.18,0,0,1-.87,0,3.72,3.72,0,0,1-1.48-.76,4.08,4.08,0,0,1-.92-1.07l-.09-.16-.12-.25,0-.1a2.73,2.73,0,0,1-.13-.42,2.3,2.3,0,0,1,0-.28.65.65,0,0,0,0-.1.82.82,0,0,1,0,.1c0,.06,0,.16,0,.28s0,.29,0,.47h0a6.69,6.69,0,0,1-1-.32,7.43,7.43,0,0,1-1.08-.56,6.42,6.42,0,0,1-1-.81,5.5,5.5,0,0,1-1.48-2.32,5.29,5.29,0,0,1-.29-1.27,7.05,7.05,0,0,1-.05-1.2,7.86,7.86,0,0,1,.14-1,5.12,5.12,0,0,1,.22-.8,1.59,1.59,0,0,1,.07-.2,3.27,3.27,0,0,1,.21-.49c.08-.17.17-.29.21-.38l.08-.13-.1.11c-.06.08-.18.18-.29.33l-.2.26a.71.71,0,0,0-.1.14,3,3,0,0,1-.71-.91,3.6,3.6,0,0,1-.35-1.67,4.25,4.25,0,0,1,.27-1.4c0-.1.07-.19.11-.29s0-.09.07-.13a5.36,5.36,0,0,1,.71-1.1,4.87,4.87,0,0,1,.39-.45l-.06-.12a6.18,6.18,0,0,0-.51.4,4.78,4.78,0,0,0-.81.93l-1-1.2C193.64,214.66,191.83,212.54,190.41,210.88Z" style="fill:#343536"/><path d="M197.1,88c1.16.31,2.37.54,3.54.78.59-1.05,1.21-2.1,1.86-3.12a23.59,23.59,0,0,0,.12,3.6,9.94,9.94,0,0,1,2.62,1.08c-.59.28-1.44.65-2.39,1.09.12,1.07.23,2,.25,2.63A7.81,7.81,0,0,1,201,92.33,23.15,23.15,0,0,0,198,94c.48-1.12,1-2.21,1.55-3.29A31.68,31.68,0,0,0,197.1,88Z" style="fill:#fdcc25"/><polygon points="236.03 78.21 214.35 96.39 239.39 81.9 236.03 78.21" style="fill:#72cff5"/><polygon points="236.03 78.21 214.35 96.39 239.39 81.9 236.03 78.21 236.03 78.21" style="fill:#00bbed"/><path d="M238,87.48,236.19,81,230,78.22l5.65-3.69.71-6.71,5.25,4.23,6.6-1.39-2.4,6.3,3.37,5.84-6.74-.33Z" style="fill:#00bbed"/><polygon points="244.54 80.16 243.09 77.05 244.59 73.96 241.13 74.81 238.72 71.99 238.05 75.36 235.02 76.97 238.02 78.64 238.62 82.02 241.14 79.69 244.54 80.16" style="fill:#fff"/><polygon points="38.65 118.46 66.68 121.14 38.92 113.5 38.65 118.46" style="fill:#72cff5"/><polygon points="38.92 113.5 38.65 118.46 66.68 121.14 38.92 113.5 38.92 113.5" style="fill:#00bbed"/><path d="M43.88,110.63l-3.38,5.79,2.34,6.29-6.55-1.43L31,125.45l-.66-6.67-5.6-3.71,6.15-2.7,1.79-6.46,4.47,5Z" style="fill:#00bbed"/><polygon points="34.1 111.06 32.9 114.26 29.66 115.35 32.68 117.22 32.36 120.9 35.22 119.02 38.48 120.04 37.57 116.74 39.55 113.96 36.13 113.8 34.1 111.06" style="fill:#fff"/><path d="M42.12,231a5.66,5.66,0,0,0,1.79,1.82c-1.69.87-2.88,1.07-3.73.81-2-.59-2-2-2.08-4.17a16.33,16.33,0,0,0,3.17.82,28.47,28.47,0,0,1-3.22-1.74c0-.22,0-.43-.06-.66l-.16.52c-1.34-.85-2.57-1.82-2.72-2.55-.41-2,1.67-3.1,3.68-4.52l.07.25c.06-.13.1-.27.15-.41a12.79,12.79,0,0,0,1-.8q-.45.24-.93.45c.36-1.36.42-2.76,2-3.19a5.49,5.49,0,0,1,3.15.21c-.47.28-.92.6-1.32.89,0,0,3.68-1.39,4.68.33a11.87,11.87,0,0,1,.84,2.18,8.26,8.26,0,0,0-.86-.2,4.36,4.36,0,0,1,.88.27,4.18,4.18,0,0,1,.16.93,5.5,5.5,0,0,0,0-.83,2.38,2.38,0,0,1,1.39,2,10.47,10.47,0,0,1-.64,3.3l-.13-.24a2.47,2.47,0,0,1,.06.43,4.12,4.12,0,0,1-.23.58c.08-.16.17-.32.24-.47.07,1.3-.43,3.49-1.68,4.33C46.05,232.36,44.66,232,42.12,231Z" style="fill:#fff"/><path d="M37.41,229.32c-.67,3,.15,5,2.45,5.85a2.79,2.79,0,0,0,1.47.12,5.65,5.65,0,0,0,3.11-2.06,4.83,4.83,0,0,0,2.78.34,4.59,4.59,0,0,0,1.67-.65c1.39-.9,2-3.51.7-6.16a6.45,6.45,0,0,0,.93-3.67,2.37,2.37,0,0,0-1.75-1.93,5.53,5.53,0,0,0-1.45-3.61,2,2,0,0,0-1.73-.47,3.08,3.08,0,0,0-.85.27c-1.8-1.49-3.43-2.08-5-1.81l-.42.09a1.92,1.92,0,0,0-1.21.91c-.55,1-.18,2.49.37,4.34l-1.53.63c-2.54,1-4.93,2-4.49,3.91C32.79,226.74,34.63,228.2,37.41,229.32Zm-2.15-3.54c-.34-1.64,1.15-2.67,2.87-3.85l.57-.4.14.47.16-.4c0-.13.09-.25.13-.37.29-.21.65-.48,1-.78l1-.86L40,220.2l-.63.31c0-.1,0-.2.07-.31.26-1.14.48-2.12,1.7-2.47l.39-.09a5.32,5.32,0,0,1,2.34.21c-.33.21-.65.44-.94.65l-.39.28.36.06h.07l.11,0a11.18,11.18,0,0,1,1.49-.38c1-.18,2.39-.22,2.91.68a9.87,9.87,0,0,1,.75,1.88l-.62-.13,0,.3a4.44,4.44,0,0,1,.78.23,3.84,3.84,0,0,1,.14.82l0,2.73.34-2.71a5.32,5.32,0,0,0,0-.6,2.25,2.25,0,0,1,1.08,1.76,9.68,9.68,0,0,1-.53,2.92l-.51-.86.27,1a2.12,2.12,0,0,1,.06.4l-.21.51.22.11c-.06,1.23-.55,3-1.61,3.68a3.35,3.35,0,0,1-1.35.57c-1,.19-2.18-.16-4-.92l-.44-.18.26.4a5.86,5.86,0,0,0,1.62,1.73,8.39,8.39,0,0,1-2,.72,3,3,0,0,1-1.35,0c-1.8-.54-1.87-1.77-2-3.81a16.53,16.53,0,0,0,3,.75l1.14.16-1.06-.44a31.47,31.47,0,0,1-3.14-1.7c0-.19,0-.38,0-.58l-.07-.74-.32,1C36.25,227.16,35.37,226.32,35.26,225.78Z" style="fill:#323535"/><path d="M49.07,227.44a2.44,2.44,0,0,1-.17.33C49,227.66,49,227.55,49.07,227.44Z" style="fill:#323535"/><path d="M47.55,221l-.65-.1Z" style="fill:#323535"/><path d="M46.69,220.88l.21,0Z" style="fill:#323535"/><polygon points="44.81 231.05 59.03 214.21 59.01 213.79 39.03 223.13 44.81 231.05" style="fill:#fff"/><polygon points="54.6 217.62 42.5 226.9 44.28 226.75 54.6 217.62" style="fill:#323535"/><polygon points="55.76 215.26 46.73 219.9 45.77 219.98 55.76 215.26" style="fill:#323535"/><polygon points="57.07 214.98 45.02 223.28 43.44 223.3 57.07 214.98" style="fill:#323535"/><polygon points="47.77 226.41 46.96 228.85 59.9 213.11 47.77 226.41" style="fill:#323535"/><polygon points="57.6 215.86 47.92 226.63 47.42 228.15 57.6 215.86" style="fill:#fff"/><path d="M62.59,79.08a7.46,7.46,0,0,0-2.05,2.64c-1.42-2-1.88-3.55-1.7-4.7.43-2.66,2.28-2.91,5.06-3.42a20.9,20.9,0,0,0-.52,4.26,35.54,35.54,0,0,1,1.7-4.48l.84-.19-.7-.12c.88-1.88,1.92-3.64,2.84-4,2.51-.88,4.31,1.63,6.5,4l-.32.14a5.59,5.59,0,0,0,.56.12c.39.41.79.81,1.21,1.19-.25-.36-.5-.74-.74-1.12,1.83.22,3.65.06,4.48,2A7.21,7.21,0,0,1,80,79.52c-.44-.56-.94-1.09-1.39-1.56,0,.06,2.44,4.54.38,6.13a14,14,0,0,1-2.67,1.46,10.67,10.67,0,0,0,.11-1.15,6.23,6.23,0,0,1-.21,1.19,4.84,4.84,0,0,1-1.17.37,6.22,6.22,0,0,0,1.09-.1A3.17,3.17,0,0,1,73.8,88a13.74,13.74,0,0,1-4.39-.27l.28-.21a3,3,0,0,1-.53.16,7.15,7.15,0,0,1-.8-.2l.65.23c-1.68.32-4.6,0-5.9-1.43C61.45,84.42,61.68,82.56,62.59,79.08Z" style="fill:#fff"/><path d="M63.91,72.7c-4-.36-6.44,1-7.16,4.18a3.6,3.6,0,0,0,.1,1.92,7.4,7.4,0,0,0,3.2,3.69,6.3,6.3,0,0,0,0,3.65,6.15,6.15,0,0,0,1.13,2.06c1.41,1.65,4.9,2,8.11-.16,2.27.75,3.7.92,4.92.58A3.09,3.09,0,0,0,76.45,86c.89-.17,3.27-.78,4.43-2.5a2.6,2.6,0,0,0,.32-2.33,4.38,4.38,0,0,0-.51-1.05c1.63-2.6,2.11-4.81,1.49-6.75-.05-.18-.12-.36-.19-.54a2.52,2.52,0,0,0-1.38-1.41c-1.38-.54-3.26.2-5.57,1.23-.37-.62-.73-1.25-1.08-1.88-1.74-3.11-3.39-6-5.85-5.14C66.45,66.26,64.88,68.89,63.91,72.7Zm4.21-3.41c2.08-.72,3.66,1,5.5,3.06l.61.68-.58.26.55.14.5.1a16.43,16.43,0,0,0,1.18,1.15l1.28,1.14-1-1.4c-.18-.25-.35-.5-.51-.76l.41,0c1.52.14,2.84.26,3.5,1.77.07.17.13.34.18.5A6.8,6.8,0,0,1,79.89,79c-.34-.39-.69-.77-1-1.11l-.43-.45V78a.29.29,0,0,0,0,.09.73.73,0,0,0,.06.14A14.43,14.43,0,0,1,79.27,80c.42,1.32.69,3.07-.37,3.89a13.41,13.41,0,0,1-2.32,1.3c0-.27,0-.55.06-.82l-.39,0a5.87,5.87,0,0,1-.17,1.06,4.71,4.71,0,0,1-1,.32l-3.54.41,3.57,0c.24,0,.5,0,.78,0a2.91,2.91,0,0,1-2.09,1.7,12.34,12.34,0,0,1-3.87-.18l1-.81-1.29.53a2.6,2.6,0,0,1-.51.15l-.7-.19-.1.31c-1.61.13-4-.21-5.06-1.46a4.83,4.83,0,0,1-1-1.64c-.42-1.33-.16-2.86.5-5.39l.16-.6-.48.4a7.85,7.85,0,0,0-2,2.4,10.58,10.58,0,0,1-1.29-2.52A3.83,3.83,0,0,1,59,77.05c.38-2.43,2-2.73,4.6-3.2a20.91,20.91,0,0,0-.46,4v1.5l.4-1.44a35.56,35.56,0,0,1,1.65-4.37l.75-.17.94-.22-1.4-.24C66.51,70.82,67.44,69.53,68.12,69.29Z" style="fill:#323535"/><path d="M68.36,87.49a2.53,2.53,0,0,1-.46-.17Z" style="fill:#323535"/><path d="M76.45,84.4c0-.29,0-.58,0-.86C76.46,83.74,76.47,84,76.45,84.4Z" style="fill:#323535"/><path d="M76.45,83.27a2.44,2.44,0,0,1,0,.27C76.45,83.38,76.45,83.28,76.45,83.27Z" style="fill:#323535"/><polygon points="62.95 82.58 87.24 98.12 87.77 98.02 72.21 73.73 62.95 82.58" style="fill:#fff"/><polygon points="82.05 92.97 67.92 78.88 68.42 81.16 82.05 92.97" style="fill:#323535"/><polygon points="85.31 94.06 77.73 83.16 77.46 81.92 85.31 94.06" style="fill:#323535"/><polygon points="85.9 95.71 73.06 81.52 72.76 79.48 85.9 95.71" style="fill:#323535"/><polygon points="69.47 85.63 66.16 84.99 88.81 99.05 69.47 85.63" style="fill:#323535"/><polygon points="84.84 96.55 69.21 85.86 67.16 85.47 84.84 96.55" style="fill:#fff"/><path d="M120.33,73.12c-.47,1.89-.78,3.86-1.13,5.77q2.61,1.36,5.15,2.88a39.29,39.29,0,0,0-5.84.36,16.21,16.21,0,0,1-1.64,4.3c-.47-1-1.12-2.32-1.88-3.83-1.73.24-3.24.46-4.25.52a12.67,12.67,0,0,1,2.69-3.55,38.92,38.92,0,0,0-2.9-4.69q2.75,1.11,5.4,2.39A52.83,52.83,0,0,0,120.33,73.12Z" style="fill:#f37024"/><path d="M158.94,220.8c-1.11-.61-2.31-1.14-3.46-1.68-.87.95-1.77,1.88-2.69,2.78a26,26,0,0,0,.75-3.76,10.73,10.73,0,0,1-2.45-1.76c.68-.14,1.66-.32,2.75-.55.13-1.13.25-2.13.38-2.78a8.48,8.48,0,0,1,1.8,2.3,25.28,25.28,0,0,0,3.45-1c-.77,1-1.58,2-2.41,3A35.81,35.81,0,0,0,158.94,220.8Z" style="fill:#f37024"/></svg>