<svg xmlns="http://www.w3.org/2000/svg" xmlns:xlink="http://www.w3.org/1999/xlink" width="719" height="220" viewBox="0 0 719 220"><defs><clipPath id="a"><rect width="719" height="220" style="fill:none"/></clipPath></defs><title>_</title><g style="clip-path:url(#a)"><path d="M220.56,139.47l3-8.12c.93.05,17.21-.54,19.41-.51,22.09.24,107.75-2.33,251.54-42.42,2.88,1.48,3.76,6.87,2.05,8.7a16.88,16.88,0,0,1,5.21,9.81,9,9,0,0,1-2.24,7.35c1.6.72,4.07,2.1,5.95,6.32a11.94,11.94,0,0,1-.78,11c2.29,1.25,3.26,2.09,4.18,4.86a7.37,7.37,0,0,1-.63,6.68,6.68,6.68,0,0,1,1.94,3.86,3.49,3.49,0,0,1-.62,2.77c-177.34,17.06-247.86-.59-267-6.21C242,143.39,221,139.61,220.56,139.47Z" style="fill:#f5f9fa"/><path d="M499.46,87.93c-48.2,13.94-98.8,25.66-149.72,33.43a933.3,933.3,0,0,1-110,10.28c-.41,0-12.06.1-12.48.12l-.18-.83,12.55-.12c86.12-2.89,171.55-19.14,254.2-43C500,86,501.27,87.41,499.46,87.93Z" style="fill:#4d443a"/><path d="M506,140.9c-25.72,2.49-34.08,2.7-42.08,2.84-1.34,0-1.21-.22.12-.32,11.61-.9,24.49-1.6,40.7-3.28C505.88,140,507.41,140.76,506,140.9Z" style="fill:#4d443a"/><path d="M482.66,104.71c-24.77,7.37-32.94,9.16-40.76,10.83-1.31.28-1.23,0,.05-.33,11.23-3.11,23.74-6.26,39.32-11C482.39,103.86,484,104.31,482.66,104.71Z" style="fill:#4d443a"/><path d="M512.65,150.77c-45.52,2.6-94.91,6.75-140.52,7.16-43.9.4-87.62-3.68-130.32-14L222,140.07l-.17-.78,19.58,3.86c42.85,10.4,77.46,13.4,130.72,13,45.36-.33,90.65-4.27,135.91-6.85C514.81,148.92,514.6,150.66,512.65,150.77Z" style="fill:#4d443a"/><path d="M393.24,136.68A789.18,789.18,0,0,1,278.74,142c-1.33,0-1.22-.36.12-.32,38,1.13,76.25-1.41,114-5.8C394,135.69,394.66,136.52,393.24,136.68Z" style="fill:#4d443a"/><path d="M505.2,119.8c-9.77,1.6-13.8,2-19.44,2.6-1.34.14-1.23-.11.09-.32,7.45-1.21,12.1-2.21,18.82-3.59" style="fill:#4d443a"/><path d="M387.26,148.24a229.84,229.84,0,0,0,27.46-2.62c.56-.08,2.44.46,1.07.65a232.71,232.71,0,0,1-28,2.23c-.86,0-2-.24-.5-.26Z" style="fill:#4d443a"/><path d="M232.64,134.79a228.69,228.69,0,0,0,27.58.82c.57,0,2.36.77,1,.79a233.5,233.5,0,0,1-28.1-1.3c-.84-.08-1.94-.48-.46-.31Z" style="fill:#4d443a"/><path d="M358.92,127.45a162.77,162.77,0,0,0,17.84-2.73c.65-.14,2.44.51,1.06.79a169.64,169.64,0,0,1-18.43,2.32c-.93.08-1.94-.24-.47-.38Z" style="fill:#4d443a"/><path d="M470.78,95.4l-15.5,3.49a9.11,9.11,0,0,1-3.82-4.78c-2.33,4.11-6.51,6-8.79,6.69,6.85,12.29-1.08,20.87-3.94,23.4,6.67,10.18,4,18.72,2.63,21.69a14.3,14.3,0,0,1,7,13.47c7,1.79,9.92,5.91,11.16,9.07a9.36,9.36,0,0,1,4.78-3.45c-3.24-4-2.07-9.38-.8-12l.32-.67,16.35-.82.4.56c4.85,7,.65,12.46-1.09,14.29a12.14,12.14,0,0,1-.45,10.1,12.6,12.6,0,0,1-8.48,6.19,15.24,15.24,0,0,1-8.11-.42,16.1,16.1,0,0,1-9,5.73,15.36,15.36,0,0,1-13.65-3.46,14.49,14.49,0,0,1-4.67-11.88c-3.66,0-7.24-2.24-9.61-6.23-2-3.38-3-8-1.25-11.44-4.43-1.73-8-5.92-9.5-11.33s-.61-11,2.42-14.74a22,22,0,0,1-6.09-20.58c1.54-6.43,6.06-11,12.77-13a17.27,17.27,0,0,1,1.9-14.45,17.69,17.69,0,0,1,11.4-7.94,16.36,16.36,0,0,1,6.73-.16,15.66,15.66,0,0,1,7.76-4.38h0a13,13,0,0,1,11.79,2.84A11.24,11.24,0,0,1,466.75,81a11.63,11.63,0,0,1,5,7.34A10,10,0,0,1,470.78,95.4Z" style="fill:#4d443a"/><path d="M464.5,153.8s-3.6,7.48,2.38,11.94a8.06,8.06,0,0,0-7.6,6.74s0-9.64-12-12.22c0,0,2-8.77-7.25-13.95,0,0,5.93-10-2.69-22.39,0,0,12.85-9.2,3.55-23.92,0,0,9.39-1.59,10.77-10.35,0,0,.48,6.48,4.46,8.43,4.46-1,7.94-2,13.56-3.57,1.77-3.76.45-10-4.57-12.76,2.08-12.19-12.64-16.8-20.81-7.62-5-1.46-13.38.8-17.16,7.28a16.12,16.12,0,0,0-1.27,14.66c-17.32,4.08-16.2,24.46-6.36,32.58-7.24,7.26-2.84,23,7.24,25.5-4.71,5.52,1.94,18.67,10.2,17-2,15.29,16.56,21.67,25.2,9.59,9.49,3.86,20.28-3.45,15.73-14.64,0,0,6.76-5.57,1.45-13.25Z" style="fill:#ffd263"/><path d="M460.07,167.77a7.69,7.69,0,0,0-1,7c.1-3.68,1.35-5.37,1.35-5.37Z" style="fill:#4d443a"/><path d="M464.67,166.17a7.19,7.19,0,0,1,4.61,0s-1.68-1.8-5.78-.89Z" style="fill:#4d443a"/><path d="M467.85,81.86c-1.64-1.65-5.88-1.2-5.88-1.2,3.48.8,4.45,2,4.45,2Z" style="fill:#4d443a"/><path d="M452.26,92.84a9.77,9.77,0,0,1-.33-5.1,7.9,7.9,0,0,0,.14,7.73Z" style="fill:#4d443a"/><path d="M431.42,122.12c-.09-.51,6.71-5.21,2.12-11.28C433.54,110.84,440,115.41,431.42,122.12Z" style="fill:#4d443a"/><path d="M473.31,166.52a4.79,4.79,0,0,1,.33,5.58S476.42,169.17,473.31,166.52Z" style="fill:#4d443a"/><path d="M440.7,165.19a6.93,6.93,0,0,1-6.1-5.32S434.81,165.72,440.7,165.19Z" style="fill:#4d443a"/><path d="M437.58,83.68A7,7,0,0,1,445.23,81S440.06,78.32,437.58,83.68Z" style="fill:#4d443a"/><path d="M294.89,97.06a17.77,17.77,0,0,0-4.84,2.1c-4.75,2.82-7.6,7.92-7.2,12.81-10.48,3.29-13.41,9-14.77,13.77a24,24,0,0,0,3.29,19.36c-3.32,4.49-4,11.53-1.71,18.29,2.48,7.3,7.93,12.58,14.72,14.32a14,14,0,0,0,16.84,14.07,13,13,0,0,0,5.8-3A13.17,13.17,0,0,0,318.15,191c5-1.13,10.53-5.29,10-13.32A13.6,13.6,0,0,0,335.53,167a13.78,13.78,0,0,0-3.32-10.77c-.36-.4-15.12-1.36-15.55-.94a11.64,11.64,0,0,0-3,5.93,15.12,15.12,0,0,0,.89,9.37,14.4,14.4,0,0,0-1.54.25,10.77,10.77,0,0,0-5.3,2.82A15.44,15.44,0,0,0,297,167.34c1.5-3.59,3.49-13.88-4-24.19,1.48-2.05,4.64-8.14,1.8-20.26a16.38,16.38,0,0,0,5,0,23.59,23.59,0,0,0,6.55-1.7,10,10,0,0,0,4,4.83c.87.52,15.34-1.44,15.69-1.93,2.53-3.49,2.12-9.17.35-12.56-2.21-4.2-5.33-7.19-11.32-7.36-.45-2-2.3-4.51-6.22-6.39A19.53,19.53,0,0,0,294.89,97.06Z" style="fill:#4d443a"/><path d="M331.18,157a12.68,12.68,0,0,1-4.33,20c1.51,13.05-14,16.37-19.84,10.11a11.94,11.94,0,0,1-14.73,2.17,12.38,12.38,0,0,1-6.6-12.51c-15.41-3.06-20-23.32-12.71-31.65-4.78-5.16-10.46-25.63,11.24-32.23-.75-4.54,2-9.63,7-12.58a20.3,20.3,0,0,1,15.95-1.48c3.73,1.4,6.7,4.16,6.79,6.87,9.77-.65,15.82,11.9,10.8,18.08-5.33.76-8.38,1.09-13.17,1.54-3.57-1.69-4.53-5.92-4.53-5.92a22.28,22.28,0,0,1-13.95,1.8c4.43,16.11-1.63,21.9-1.63,21.9,10,14,3.6,25.35,3.6,25.35a14.27,14.27,0,0,1,12.49,7.36c3.19-4.62,9.1-4,9.1-4-3.44-4.82-2.4-12.66,1.11-15.79C322.72,156.32,326.62,156.5,331.18,157Z" style="fill:#ffd263"/><path d="M327,178.67a11.75,11.75,0,0,0-.74-4.57,6.81,6.81,0,0,1,2,4.77Z" style="fill:#4d443a"/><path d="M316.1,104.26a7,7,0,0,0-5.64,2.51,8.17,8.17,0,0,1,5.29-1.07Z" style="fill:#4d443a"/><path d="M270.66,146.16a7.32,7.32,0,0,1,4.61-3,11.76,11.76,0,0,0-3.15,2.95Z" style="fill:#4d443a"/><path d="M284.06,119.51c0,.52-7.8,3.36-4.87,10.38C279.19,129.89,274.1,123.86,284.06,119.51Z" style="fill:#4d443a"/><path d="M287.38,157.58a6.92,6.92,0,0,1,3.15,7.45S292.91,159.69,287.38,157.58Z" style="fill:#4d443a"/><path d="M314.85,178.23a4.79,4.79,0,0,1,4.85-2.77S315.84,174.27,314.85,178.23Z" style="fill:#4d443a"/><path d="M308.9,174.21s-1.65,1.1-2.77,4.52a6.83,6.83,0,0,1,2.46-5.86Z" style="fill:#4d443a"/><path d="M296.11,166a11.16,11.16,0,0,1-2.89,4.57s2.71-.61,4.32-4.9Z" style="fill:#4d443a"/><path d="M292.84,145.1s-1.71-3-3.94-4.13a7.68,7.68,0,0,1,4.91,3.57Z" style="fill:#4d443a"/><path d="M416.53,171.64l-3.21.74-1.93-2.67L411.1,173,408,174l3,1.29v3.29l2.16-2.48,3.12,1-1.69-2.83Z" style="fill:#343844"/><path d="M344.19,115.4l-1.5-1.22.55-1.86-1.63,1.05-1.6-1.1.5,1.87L339,115.32l1.93.11.65,1.83.7-1.81Z" style="fill:#343844"/><path d="M255.6,155.15l-1.09-.89.4-1.36-1.19.76-1.17-.8.36,1.37-1.13.86,1.42.08.47,1.34.52-1.32Z" style="fill:#343844"/><path d="M462.6,125.15l-1.09-.89.4-1.36-1.19.76-1.17-.8.36,1.37-1.13.86,1.42.08.47,1.34.52-1.32Z" style="fill:#343844"/><path d="M359.67,150.35l3.13-.2,1.4,2.81.78-3,3.11-.47-2.66-1.67.52-3.1-2.42,2-2.78-1.45,1.16,2.92Z" style="fill:#343844"/></g></svg>