<svg id="Layer_1" data-name="Layer 1" xmlns="http://www.w3.org/2000/svg" viewBox="0 0 340 340"><defs><style>.cls-1{fill:#e2e7ee;}.cls-2{fill:#ecbb82;}.cls-2,.cls-3,.cls-4,.cls-5,.cls-6{fill-rule:evenodd;}.cls-3{fill:#ffddb1;}.cls-4{fill:#fbd2a2;}.cls-5{fill:#f5cd9f;}.cls-6{fill:#00b4ff;}</style></defs><title>avatar</title><rect class="cls-1" width="340" height="340"/><path id="Fill-1" class="cls-2" d="M232.93,150.4c1.71,4.77-6.57,18.26-9.87,22.92,1.4-7.37,2.9-17.65,4-29.66a13.46,13.46,0,0,1,5.85,6.74"/><path id="Fill-3" class="cls-3" d="M168.65,222.35l-.06-176.78c.06,0,58,10.55,60,53.84.84,19.24,0,28.28-1.48,44.25-1.12,12-2.62,22.29-4,29.66a73.36,73.36,0,0,1-2.54,10.32,53.62,53.62,0,0,1-6.8,11.78c-6.36,8.77-15.33,18-21.69,21.81-.16.1-.33.2-.51.29C186.13,220.47,174.43,222.67,168.65,222.35Z"/><path id="Fill-6" class="cls-2" d="M168.65,222.35c4.9.32,14.82-1.88,19.39-4.83l.1.23C185.87,228.17,137.07,260,131,264.13c-5.84,4-15.75,16.82-23.5,13.29l.28-.47-.16-.27a82,82,0,0,0,10.15-9.4c10.54-12.41,14.88-26.3,14.59-42.37-.16-8.84,0-21.18-2-29.49,5.39,8.77,13,18,18.39,21.81,4.35,3.1,14.75,5.45,19.83,5.12Z"/><path id="Fill-8" class="cls-4" d="M168.59,222.35c-6,.33-18.26-2-23.38-5.12-6.35-3.82-15.32-13-21.69-21.81a53.85,53.85,0,0,1-6.8-11.78,73.36,73.36,0,0,1-2.54-10.32c-1.41-7.37-2.91-17.66-4-29.66-1.51-16-2.34-25-1.49-44.25,1.92-43.29,59.91-53.84,59.91-53.84Z"/><path id="Fill-10" class="cls-2" d="M110.17,143.66c1.11,12,2.6,22.29,4,29.66-3.3-4.66-11.6-18.15-9.88-22.92a13.46,13.46,0,0,1,5.85-6.74Z"/><path id="Fill-12" class="cls-3" d="M107.52,277.42c7.75,3.53,17.66-9.32,23.5-13.29,6-4.09,54.85-36,57.12-46.38l-.1-.23c.15-.09.29-.19.43-.29,5.39-3.81,13-13,18.39-21.81-2,8.31-1.84,20.65-2,29.49-.28,16.08,4.06,30,14.6,42.36s55.12,41.65,55.12,41.65l10.53,31.41h-233l10.53-31.41s28.12-18.42,45-32.24l.16.27c-.1.15-.19.31-.28.47"/><path id="Fill-15-Copy" class="cls-5" d="M226.94,155c0-.44.08-10.89.12-11.33,1.5-16,2.34-25,1.48-44.25-1.92-43.28-47.15-53.82-59.9-53.83s-58,10.55-60,53.83c-.86,19.24,0,28.27,1.48,44.25,4.64-11.2.68-12,8.75-39.06s29.39-32.42,49.62-31.91,44.77,2.71,50,31.91,7.62,27.64,8.35,38.87Z"/><path id="Fill-17" class="cls-6" d="M41.88,340.24h17.9c-1.37-3.74-1.11-11.31-1.29-15.55-.21-5.28,0-10.56-2-15.34l-1.82-1.59c-3,3.31-12.82,27.89-12.82,32.48"/><path id="Fill-19" class="cls-6" d="M54.7,307.76l1.82,1.59c1.93,4.78,1.77,10.06,2,15.34.18,4.24-.08,11.8,1.28,15.55h113.6V284.15h-5.12c-3,0-54.31-3.51-58.6-11-.23-.42-.44-.79-.6-1.11a227.15,227.15,0,0,1-18.41,13.77c-6.14,4.27-12.26,7.11-18.78,10.73-5.73,3.17-12.47,6.21-17.16,11.27"/><path id="Fill-21" class="cls-6" d="M173.37,338.75v1.49H277.54c1.37-3.75,1.11-11.31,1.28-15.55.21-5.28,0-10.56,2-15.34l2.84-.13a9.84,9.84,0,0,0-1-1.46c-4.68-5.06-11.42-8.1-17.15-11.27-6.53-3.62-12.64-6.45-18.78-10.73A225.41,225.41,0,0,1,228.27,272c-.16.32-20.29,10-54.9,12.16Z"/><path id="Fill-23" class="cls-6" d="M277.54,340.24h17.9c0-4.16-8-24.73-11.8-31l-2.85.13c-1.93,4.78-1.76,10.06-2,15.34-.18,4.24.08,11.81-1.29,15.55"/></svg>