<svg id="a2c17c21-952b-4849-893f-2b989256e5f5" data-name="Layer 1" xmlns="http://www.w3.org/2000/svg" viewBox="0 0 1192 81.83"><path d="M89.58,121.73H40.1V40.1H55.87v68.05H89.58Z" transform="translate(-40.1 -40.1)" style="fill:#001489"/><path d="M151.86,92.05a20.24,20.24,0,0,1-.25,2.82l-.38,2.47-44-.21a7.91,7.91,0,0,0,1.13,4,11.64,11.64,0,0,0,3.21,3.58,17.66,17.66,0,0,0,4.82,2.56,18.34,18.34,0,0,0,6.09,1,18.12,18.12,0,0,0,7.89-1.69,19,19,0,0,0,6.18-4.58l10.89,8.69A29.76,29.76,0,0,1,136.48,119a33.52,33.52,0,0,1-14.22,2.93,34.18,34.18,0,0,1-11-1.9,28.92,28.92,0,0,1-9.81-5.68,28.49,28.49,0,0,1-7-9.59A31.76,31.76,0,0,1,91.8,91.18,33,33,0,0,1,94,79.29a28.49,28.49,0,0,1,15.49-16.21,29.77,29.77,0,0,1,12.15-2.36,31.56,31.56,0,0,1,12.3,2.42,28.1,28.1,0,0,1,9.58,6.55,29.74,29.74,0,0,1,6.16,9.86A33.79,33.79,0,0,1,151.86,92.05ZM121.8,74A16.7,16.7,0,0,0,115.52,75,15.06,15.06,0,0,0,111,77.76a11.17,11.17,0,0,0-2.78,3.67,9.17,9.17,0,0,0-.94,3.85l29.11.14a8.45,8.45,0,0,0-1-3.69,12.78,12.78,0,0,0-2.86-3.7A16.19,16.19,0,0,0,128,75.14,15.68,15.68,0,0,0,121.8,74Z" transform="translate(-40.1 -40.1)" style="fill:#001489"/><path d="M405.69,92.05a20.24,20.24,0,0,1-.25,2.82l-.38,2.47-44-.21a7.91,7.91,0,0,0,1.13,4,11.74,11.74,0,0,0,3.2,3.58,18,18,0,0,0,4.82,2.56,18.44,18.44,0,0,0,6.1,1,18.15,18.15,0,0,0,7.89-1.69,18.88,18.88,0,0,0,6.17-4.58l10.89,8.69A29.73,29.73,0,0,1,390.31,119a33.56,33.56,0,0,1-14.22,2.93,34.14,34.14,0,0,1-11-1.9,28.92,28.92,0,0,1-9.81-5.68,28.35,28.35,0,0,1-7-9.59,31.46,31.46,0,0,1-2.64-13.59,33,33,0,0,1,2.19-11.89,29,29,0,0,1,6.08-9.7,28.62,28.62,0,0,1,9.41-6.51,29.77,29.77,0,0,1,12.15-2.36,31.56,31.56,0,0,1,12.3,2.42,28.2,28.2,0,0,1,9.58,6.55,29.74,29.74,0,0,1,6.16,9.86A33.79,33.79,0,0,1,405.69,92.05ZM375.63,74A16.7,16.7,0,0,0,369.35,75a15.24,15.24,0,0,0-4.56,2.74A11.13,11.13,0,0,0,362,81.43a9,9,0,0,0-.94,3.85l29.1.14a8.18,8.18,0,0,0-1-3.69,12.57,12.57,0,0,0-2.85-3.7,16.19,16.19,0,0,0-4.59-2.89A15.68,15.68,0,0,0,375.63,74Z" transform="translate(-40.1 -40.1)" style="fill:#001489"/><path d="M158.31,60.91H173V92.12a21.89,21.89,0,0,0,.86,6.27,15,15,0,0,0,2.65,5.18,12.46,12.46,0,0,0,4.6,3.57,15.44,15.44,0,0,0,6.61,1.32,13.85,13.85,0,0,0,10.36-4.26q4.14-4.24,4.37-12.08V60.91h14.73v60.82H202.49v-7.52a25.94,25.94,0,0,1-7.94,5.41,24.45,24.45,0,0,1-10.47,2.3,25.44,25.44,0,0,1-10.35-2.07,23.14,23.14,0,0,1-8.17-6,27.51,27.51,0,0,1-5.35-9.49,38.87,38.87,0,0,1-1.9-12.6Z" transform="translate(-40.1 -40.1)" style="fill:#001489"/><path d="M506.31,121.73H490.9V88.79a18.42,18.42,0,0,0-.69-5.07,12.32,12.32,0,0,0-2.13-4.25,10.47,10.47,0,0,0-3.63-2.94,11.53,11.53,0,0,0-5.17-1.09,10.42,10.42,0,0,0-8.52,3.8,14.58,14.58,0,0,0-3.11,9.55v32.94H452.24V88.79a14.05,14.05,0,0,0-3.34-9.5,12.24,12.24,0,0,0-17.78-.05,14.1,14.1,0,0,0-3.27,9.55v32.94H413.12V60.91h14.73v7.63a22.71,22.71,0,0,1,6.73-5.41,19.52,19.52,0,0,1,9.72-2.42,20,20,0,0,1,9.43,2.3,23.47,23.47,0,0,1,7.37,6A30.68,30.68,0,0,1,470,62.9a25.19,25.19,0,0,1,10.42-2.19A24.92,24.92,0,0,1,491,62.9a24.45,24.45,0,0,1,8.17,6,27.83,27.83,0,0,1,5.3,8.92,31.49,31.49,0,0,1,1.89,11Z" transform="translate(-40.1 -40.1)" style="fill:#001489"/><polygon points="240.68 81.63 218.13 48.16 241.39 20.8 222.16 20.8 201.39 45.23 201.39 0 186.66 0 186.66 81.63 201.39 81.63 201.39 67.82 208.18 59.85 222.96 81.63 240.68 81.63" style="fill:#001489"/><path d="M322.63,60.91v3.56a30.25,30.25,0,0,0-14.91-3.92,30.69,30.69,0,0,0,0,61.37c5.41,0,11.6-1.56,14.91-4.87v4.68h14.72V60.91ZM308,109a17.61,17.61,0,1,1,17.62-17.61A17.61,17.61,0,0,1,308,109Z" transform="translate(-40.1 -40.1)" style="fill:#001489"/><rect x="477.43" y="27.77" width="14.96" height="53.7" style="fill:#001489"/><path d="M525,58.48h0a9.17,9.17,0,1,0,0-18.33h0a9.17,9.17,0,0,0,0,18.33Z" transform="translate(-40.1 -40.1)" style="fill:#001489"/><path d="M587.39,60.91v3.56a30.25,30.25,0,0,0-14.91-3.92,30.69,30.69,0,0,0,0,61.37c5.41,0,11.6-1.56,14.91-4.87v4.68h14.72V60.91ZM572.81,109a17.61,17.61,0,1,1,17.61-17.61A17.61,17.61,0,0,1,572.81,109Z" transform="translate(-40.1 -40.1)" style="fill:#001489"/><path d="M1226.7,48.27a2.45,2.45,0,0,0,.35-1.33,2.6,2.6,0,0,0-.2-1,2.78,2.78,0,0,0-.55-.8,3,3,0,0,0-.8-.54,2.6,2.6,0,0,0-1-.2l-3.51,0,0,7.27h0v.87h1.74v-3h1.31l1.12,3H1227l-1.23-3.32A2.67,2.67,0,0,0,1226.7,48.27Zm-1.6-.57a1,1,0,0,1-.76.31h-1.63v-2.1h1.63a1.12,1.12,0,0,1,.77.29,1,1,0,0,1,.31.75A1,1,0,0,1,1225.1,47.7Z" transform="translate(-40.1 -40.1)" style="fill:#001489"/><path d="M1231.44,45.22a8.27,8.27,0,0,0-4.47-4.43,8.26,8.26,0,0,0-6.47,0,8.43,8.43,0,0,0-2.63,1.8,8.26,8.26,0,0,0-1.77,2.66,8.28,8.28,0,0,0,0,6.48,8.39,8.39,0,0,0,1.8,2.62,8.25,8.25,0,0,0,2.64,1.78,7.94,7.94,0,0,0,3.23.65,8.34,8.34,0,0,0,5.89-2.47,8.36,8.36,0,0,0,1.78-2.64,8,8,0,0,0,.65-3.23A8.2,8.2,0,0,0,1231.44,45.22Zm-1.81,5.7a6.35,6.35,0,0,1-1.35,2,6.56,6.56,0,0,1-2,1.37,6.32,6.32,0,0,1-2.48.5,6,6,0,0,1-2.46-.48,6.58,6.58,0,0,1-2-1.35,6.44,6.44,0,0,1-1.36-2,6.11,6.11,0,0,1-.51-2.45,6.24,6.24,0,0,1,.49-2.48A6.34,6.34,0,0,1,1228.24,44a6.45,6.45,0,0,1,1.37,2,6.28,6.28,0,0,1,.5,2.48A6.09,6.09,0,0,1,1229.63,50.92Z" transform="translate(-40.1 -40.1)" style="fill:#001489"/><path d="M650.11,40.1h49.48V56H666V80h26.27L690.8,93.45H666v28.28H650.11Z" transform="translate(-40.1 -40.1)" style="fill:#001489"/><path d="M768.31,60.9H783V92.12a22.25,22.25,0,0,0,.86,6.27,15,15,0,0,0,2.65,5.18,12.55,12.55,0,0,0,4.6,3.57,15.49,15.49,0,0,0,6.62,1.32,13.84,13.84,0,0,0,10.35-4.26q4.14-4.24,4.37-12.08V60.9h14.73v60.83H812.49v-7.52a26.19,26.19,0,0,1-7.93,5.41,24.45,24.45,0,0,1-10.47,2.3,25.52,25.52,0,0,1-10.36-2.07,23.14,23.14,0,0,1-8.17-6,27.67,27.67,0,0,1-5.35-9.49,39.15,39.15,0,0,1-1.9-12.6Z" transform="translate(-40.1 -40.1)" style="fill:#001489"/><path d="M895.68,121.73H881V90.51a22.35,22.35,0,0,0-.86-6.27,15.22,15.22,0,0,0-2.65-5.18,12.63,12.63,0,0,0-4.6-3.56,15.49,15.49,0,0,0-6.62-1.33,13.84,13.84,0,0,0-10.35,4.26q-4.14,4.26-4.37,12.08v31.22H836.77V60.9H851.5v7.52A26.3,26.3,0,0,1,859.44,63a24.54,24.54,0,0,1,10.47-2.3,25.51,25.51,0,0,1,10.35,2.07,23.26,23.26,0,0,1,8.17,6,27.67,27.67,0,0,1,5.35,9.49,39.15,39.15,0,0,1,1.9,12.6Z" transform="translate(-40.1 -40.1)" style="fill:#001489"/><path d="M1232.11,121.73h-14.73V90.51a22.35,22.35,0,0,0-.86-6.27,15.22,15.22,0,0,0-2.65-5.18,12.63,12.63,0,0,0-4.6-3.56,15.49,15.49,0,0,0-6.62-1.33,13.84,13.84,0,0,0-10.35,4.26q-4.14,4.26-4.38,12.08v31.22H1173.2V60.9h14.72v7.52a26.42,26.42,0,0,1,7.94-5.41,24.6,24.6,0,0,1,10.47-2.3,25.52,25.52,0,0,1,10.36,2.07,23.26,23.26,0,0,1,8.17,6,27.67,27.67,0,0,1,5.35,9.49,39.15,39.15,0,0,1,1.9,12.6Z" transform="translate(-40.1 -40.1)" style="fill:#001489"/><rect x="1042.32" y="27.93" width="14.96" height="53.7" style="fill:#001489"/><path d="M1089.9,58.63h0a9.17,9.17,0,1,0,0-18.33h0a9.17,9.17,0,0,0,0,18.33Z" transform="translate(-40.1 -40.1)" style="fill:#001489"/><path d="M1164,79.36a30.77,30.77,0,0,0-16.28-16.28,30.79,30.79,0,0,0-23.93,0,31,31,0,0,0-9.72,6.56,30.57,30.57,0,0,0,9.72,49.88,30.83,30.83,0,0,0,33.65-6.5,31.19,31.19,0,0,0,6.56-9.73,30.79,30.79,0,0,0,0-23.93Zm-13.35,18.35a16.5,16.5,0,0,1-3.39,5.18,14.82,14.82,0,0,1-5.06,3.39,17.45,17.45,0,0,1-12.77,0,14.77,14.77,0,0,1-5.07-3.39,16.5,16.5,0,0,1-3.39-5.18,17,17,0,0,1,0-12.88,16.5,16.5,0,0,1,3.39-5.18,14.93,14.93,0,0,1,5.07-3.4,17.59,17.59,0,0,1,12.77,0,15,15,0,0,1,5.06,3.4,16.5,16.5,0,0,1,3.39,5.18,17,17,0,0,1,0,12.88Z" transform="translate(-40.1 -40.1)" style="fill:#001489"/><path d="M758.21,79.41a30.77,30.77,0,0,0-16.28-16.28,30.81,30.81,0,0,0-23.94,0,31,31,0,0,0-9.72,6.56,30.46,30.46,0,0,0-8.86,21.63,30.61,30.61,0,0,0,2.36,12,30.73,30.73,0,0,0,49.88,9.72,31,31,0,0,0,6.56-9.72,30.91,30.91,0,0,0,0-23.93ZM744.86,97.76a16.85,16.85,0,0,1-3.39,5.18,14.77,14.77,0,0,1-5.07,3.39,17.45,17.45,0,0,1-12.77,0,14.82,14.82,0,0,1-5.06-3.39,16.7,16.7,0,0,1-3.4-5.18,17.11,17.11,0,0,1,0-12.89,16.77,16.77,0,0,1,3.4-5.17,15,15,0,0,1,5.06-3.4,17.45,17.45,0,0,1,12.77,0,14.93,14.93,0,0,1,5.07,3.4,16.93,16.93,0,0,1,3.39,5.17,17,17,0,0,1,0,12.89Z" transform="translate(-40.1 -40.1)" style="fill:#001489"/><path d="M1071.36,74V60.9h-9.74V40.46l-15,8.21V60.9h-9.74V74h9.74v28.53a19.18,19.18,0,0,0,19.18,19.18h6.48v-15h-5.91a4.78,4.78,0,0,1-4.79-4.79V74Z" transform="translate(-40.1 -40.1)" style="fill:#001489"/><path d="M947.64,40.1V64.46a30.24,30.24,0,0,0-14.91-3.91,30.69,30.69,0,0,0,0,61.37c5.41,0,11.6-1.56,14.91-4.87v4.68h14.72V40.1ZM932.26,109c-9.13,0-16.53-7.88-16.53-17.61s7.4-17.61,16.53-17.61,16.53,7.88,16.53,17.61S941.39,109,932.26,109Z" transform="translate(-40.1 -40.1)" style="fill:#001489"/><path d="M1014.77,60.9v3.56a30.21,30.21,0,0,0-14.91-3.91,30.68,30.68,0,0,0,0,61.36c5.42,0,11.6-1.56,14.91-4.87v4.68h14.73V60.9ZM1000.19,109a17.61,17.61,0,1,1,17.61-17.61A17.6,17.6,0,0,1,1000.19,109Z" transform="translate(-40.1 -40.1)" style="fill:#001489"/></svg>