<svg id="Layer_1" data-name="Layer 1" xmlns="http://www.w3.org/2000/svg" viewBox="0 0 519.15 154.79">
  <defs>
    <style>
      .cls-1 {
        fill: #001489;
      }
    </style>
  </defs>
  <title>LF-Wordmark-RGB</title>
  <g>
    <path class="cls-1" d="M587.14,144.41a2.3,2.3,0,0,0,.32-1.18,2.08,2.08,0,0,0-.19-.9,2.39,2.39,0,0,0-.48-.72,2.52,2.52,0,0,0-.72-.48,2.26,2.26,0,0,0-.9-.18L582,141l0,6.49h0v.77h1.55v-2.71h1.17l1,2.7h1.62l-1.1-3A2.33,2.33,0,0,0,587.14,144.41Zm-1.42-.5a.93.93,0,0,1-.68.27h-1.46v-1.88H585a1,1,0,0,1,.68.26.84.84,0,0,1,.28.66A.93.93,0,0,1,585.72,143.91Z" transform="translate(-72.81 -54.57)"/>
    <path class="cls-1" d="M591.37,141.69a7.68,7.68,0,0,0-1.6-2.37,7.44,7.44,0,0,0-2.38-1.58,7.37,7.37,0,0,0-5.78,0,7.5,7.5,0,0,0-3.93,4,7.28,7.28,0,0,0-.57,2.9,6.93,6.93,0,0,0,.6,2.87,7.46,7.46,0,0,0,4,3.93,7.35,7.35,0,0,0,5.77,0,7.5,7.5,0,0,0,3.95-4,7.09,7.09,0,0,0,.58-2.88A7.44,7.44,0,0,0,591.37,141.69Zm-1.62,5.09a5.66,5.66,0,0,1-3,3,5.53,5.53,0,0,1-2.21.45,5.35,5.35,0,0,1-2.19-.43,5.83,5.83,0,0,1-1.79-1.21,5.64,5.64,0,0,1-1.22-1.78,5.36,5.36,0,0,1-.45-2.19,5.48,5.48,0,0,1,.43-2.21,5.64,5.64,0,0,1,1.21-1.81,5.7,5.7,0,0,1,1.78-1.22,5.33,5.33,0,0,1,2.19-.45,5.69,5.69,0,0,1,2.21.43,5.92,5.92,0,0,1,1.81,1.21,5.79,5.79,0,0,1,1.22,1.8,5.67,5.67,0,0,1,.45,2.21A5.36,5.36,0,0,1,589.75,146.78Z" transform="translate(-72.81 -54.57)"/>
    <path class="cls-1" d="M72.81,136.56H117v14.16H87v21.42H110.4l-1.28,12H87v24.78H72.81Z" transform="translate(-72.81 -54.57)"/>
    <path class="cls-1" d="M178.26,154.79h13.13v27.85a19.82,19.82,0,0,0,.77,5.59,13.47,13.47,0,0,0,2.36,4.62,11.1,11.1,0,0,0,4.11,3.18,13.68,13.68,0,0,0,5.9,1.18,12.37,12.37,0,0,0,9.24-3.79q3.69-3.81,3.9-10.78V154.79H230.8v54.26H217.67v-6.71a23.43,23.43,0,0,1-7.08,4.83,21.9,21.9,0,0,1-9.34,2.05,22.73,22.73,0,0,1-9.24-1.85,20.8,20.8,0,0,1-7.29-5.33,24.68,24.68,0,0,1-4.77-8.47,34.75,34.75,0,0,1-1.69-11.24Z" transform="translate(-72.81 -54.57)"/>
    <path class="cls-1" d="M291.87,209.05H278.73V181.2a19.82,19.82,0,0,0-.77-5.59A13.3,13.3,0,0,0,275.6,171a11.31,11.31,0,0,0-4.11-3.18,13.68,13.68,0,0,0-5.9-1.18,12.35,12.35,0,0,0-9.23,3.8q-3.71,3.8-3.9,10.77v27.85H239.32V154.79h13.14v6.71a23.3,23.3,0,0,1,7.08-4.83,22,22,0,0,1,9.34-2,22.71,22.71,0,0,1,9.23,1.85,20.71,20.71,0,0,1,7.29,5.33,24.68,24.68,0,0,1,4.77,8.47,34.78,34.78,0,0,1,1.7,11.24Z" transform="translate(-72.81 -54.57)"/>
    <path class="cls-1" d="M592,209.05H578.83V181.2a19.82,19.82,0,0,0-.77-5.59A13.3,13.3,0,0,0,575.7,171a11.31,11.31,0,0,0-4.11-3.18,13.68,13.68,0,0,0-5.9-1.18,12.39,12.39,0,0,0-9.24,3.8q-3.69,3.8-3.9,10.77v27.85H539.42V154.79h13.13v6.71a23.36,23.36,0,0,1,7.09-4.83,22,22,0,0,1,9.34-2,22.71,22.71,0,0,1,9.23,1.85,20.71,20.71,0,0,1,7.29,5.33,24.68,24.68,0,0,1,4.77,8.47,34.78,34.78,0,0,1,1.7,11.24Z" transform="translate(-72.81 -54.57)"/>
    <g>
      <rect class="cls-1" x="385.63" y="106.58" width="13.34" height="47.9"/>
      <path class="cls-1" d="M465.12,152.77h0a8.18,8.18,0,0,0,0-16.36h0a8.18,8.18,0,0,0,0,16.36Z" transform="translate(-72.81 -54.57)"/>
    </g>
    <path class="cls-1" d="M531.21,171.26a27.4,27.4,0,0,0-14.52-14.53,26.56,26.56,0,0,0-10.62-2.15,26.85,26.85,0,0,0-10.73,2.15,28,28,0,0,0-8.67,5.85,27.25,27.25,0,0,0,19.4,46.6,27.19,27.19,0,0,0,19.29-7.91,27.4,27.4,0,0,0,5.85-8.67,26.63,26.63,0,0,0,2.16-10.72A26.36,26.36,0,0,0,531.21,171.26Zm-11.9,16.37a14.66,14.66,0,0,1-3,4.61,13.37,13.37,0,0,1-4.51,3,15.58,15.58,0,0,1-11.4,0,13.27,13.27,0,0,1-4.51-3,14.95,14.95,0,0,1,0-20.73,13.27,13.27,0,0,1,4.51-3,15.72,15.72,0,0,1,11.4,0,13.37,13.37,0,0,1,4.51,3,15.07,15.07,0,0,1,3,16.12Z" transform="translate(-72.81 -54.57)"/>
    <path class="cls-1" d="M169.24,171.3a27.73,27.73,0,0,0-5.85-8.67,27.4,27.4,0,0,0-8.67-5.85,27.46,27.46,0,0,0-21.35,0,27.4,27.4,0,0,0-8.67,5.85,27.13,27.13,0,0,0-7.9,19.29,27,27,0,0,0,27.3,27.3,27.13,27.13,0,0,0,19.29-7.9,28,28,0,0,0,5.85-8.67,26.68,26.68,0,0,0,2.16-10.73A26.4,26.4,0,0,0,169.24,171.3Zm-11.9,16.37a15.06,15.06,0,0,1-3,4.62,13.15,13.15,0,0,1-4.52,3,15.56,15.56,0,0,1-11.39,0,13.24,13.24,0,0,1-4.52-3,14.85,14.85,0,0,1-3-4.62,15.19,15.19,0,0,1,0-11.5,15,15,0,0,1,3-4.62,13.54,13.54,0,0,1,4.52-3,15.56,15.56,0,0,1,11.39,0,13.44,13.44,0,0,1,4.52,3,15.18,15.18,0,0,1,3,4.62,15.32,15.32,0,0,1,0,11.5Z" transform="translate(-72.81 -54.57)"/>
    <path class="cls-1" d="M448.58,166.49v-11.7h-8.69V136.56l-13.35,7.32v10.91h-8.68v11.7h8.68v25.45a17.11,17.11,0,0,0,17.11,17.11h5.78V195.71h-5.27a4.28,4.28,0,0,1-4.27-4.28V166.49Z" transform="translate(-72.81 -54.57)"/>
    <path class="cls-1" d="M338.21,136.56V158a26.82,26.82,0,0,0-13.29-3.49,27.37,27.37,0,0,0,0,54.74c4.83,0,10.35-1.4,13.29-4.35v4.18h13.14V136.56Zm-13.71,61.2c-8.15,0-14.75-7-14.75-15.71s6.6-15.71,14.75-15.71,14.74,7,14.74,15.71S332.64,197.76,324.5,197.76Z" transform="translate(-72.81 -54.57)"/>
    <path class="cls-1" d="M117,127.38H72.81V54.57H86.87v60.7H117Z" transform="translate(-72.81 -54.57)"/>
    <path class="cls-1" d="M172.5,100.91a17,17,0,0,1-.22,2.51l-.34,2.21-39.28-.19a7,7,0,0,0,1,3.54,10.38,10.38,0,0,0,2.86,3.2,16,16,0,0,0,9.73,3.17,16.12,16.12,0,0,0,7-1.5,17.07,17.07,0,0,0,5.51-4.08l9.71,7.74a26.55,26.55,0,0,1-9.73,7.45,30,30,0,0,1-12.69,2.61,30.59,30.59,0,0,1-9.79-1.69,25.84,25.84,0,0,1-8.76-5.07,25.37,25.37,0,0,1-6.27-8.55,28.29,28.29,0,0,1-2.35-12.12,29.67,29.67,0,0,1,1.95-10.62,25.87,25.87,0,0,1,5.43-8.64,25.54,25.54,0,0,1,8.39-5.81A26.51,26.51,0,0,1,145.54,73a28.13,28.13,0,0,1,11,2.16A25.09,25.09,0,0,1,165.05,81a26.46,26.46,0,0,1,5.5,8.8A30.11,30.11,0,0,1,172.5,100.91ZM145.69,84.77a14.71,14.71,0,0,0-5.6,1A13.25,13.25,0,0,0,136,88.16a10.14,10.14,0,0,0-2.48,3.27,8.11,8.11,0,0,0-.84,3.44l26,.12a7.38,7.38,0,0,0-.85-3.29,11.48,11.48,0,0,0-2.55-3.29,14.37,14.37,0,0,0-4.09-2.59A14,14,0,0,0,145.69,84.77Z" transform="translate(-72.81 -54.57)"/>
    <path class="cls-1" d="M398.92,100.91a17,17,0,0,1-.22,2.51l-.34,2.21-39.28-.19a7.12,7.12,0,0,0,1,3.54,10.64,10.64,0,0,0,2.86,3.2,16.83,16.83,0,0,0,16.78,1.67,17.07,17.07,0,0,0,5.51-4.08l9.71,7.74A26.5,26.5,0,0,1,385.2,125a30,30,0,0,1-12.68,2.61,30.7,30.7,0,0,1-9.8-1.69,25.89,25.89,0,0,1-8.75-5.07,25.37,25.37,0,0,1-6.27-8.55,28.29,28.29,0,0,1-2.35-12.12,29.67,29.67,0,0,1,1.95-10.62,25.87,25.87,0,0,1,5.43-8.64,25.33,25.33,0,0,1,8.39-5.81A26.51,26.51,0,0,1,372,73a28.17,28.17,0,0,1,11,2.16A25.29,25.29,0,0,1,391.47,81a26.62,26.62,0,0,1,5.5,8.8A30.11,30.11,0,0,1,398.92,100.91ZM372.11,84.77a14.68,14.68,0,0,0-5.6,1,13.43,13.43,0,0,0-4.07,2.44A10.28,10.28,0,0,0,360,91.43a8.24,8.24,0,0,0-.83,3.44l26,.12a7.38,7.38,0,0,0-.85-3.29,11.48,11.48,0,0,0-2.55-3.29,14.28,14.28,0,0,0-4.1-2.59A13.91,13.91,0,0,0,372.11,84.77Z" transform="translate(-72.81 -54.57)"/>
    <path class="cls-1" d="M178.26,73.13h13.13V101a19.89,19.89,0,0,0,.77,5.6,13.66,13.66,0,0,0,2.36,4.62,11.31,11.31,0,0,0,4.11,3.18,13.83,13.83,0,0,0,5.9,1.18,12.38,12.38,0,0,0,9.24-3.8q3.69-3.8,3.9-10.78V73.13H230.8v54.25H217.67v-6.7a23.41,23.41,0,0,1-7.08,4.82,21.91,21.91,0,0,1-9.34,2.06,22.73,22.73,0,0,1-9.24-1.85,20.71,20.71,0,0,1-7.29-5.34A24.59,24.59,0,0,1,180,111.9a34.68,34.68,0,0,1-1.69-11.23Z" transform="translate(-72.81 -54.57)"/>
    <path class="cls-1" d="M488.68,127.38H474.93V98a16.39,16.39,0,0,0-.62-4.52,11,11,0,0,0-1.9-3.8,9.31,9.31,0,0,0-3.23-2.61,10.22,10.22,0,0,0-4.62-1A9.26,9.26,0,0,0,457,89.48,13,13,0,0,0,454.2,98v29.38H440.44V98a12.51,12.51,0,0,0-3-8.47,10.91,10.91,0,0,0-15.86,0A12.57,12.57,0,0,0,418.69,98v29.38H405.55V73.13h13.14v6.81a20.28,20.28,0,0,1,6-4.83A17.4,17.4,0,0,1,433.36,73,17.8,17.8,0,0,1,441.78,75a21,21,0,0,1,6.57,5.33,27.42,27.42,0,0,1,7.95-5.43,23.34,23.34,0,0,1,18.68,0,21.83,21.83,0,0,1,7.29,5.33,24.82,24.82,0,0,1,4.72,8,27.91,27.91,0,0,1,1.69,9.8Z" transform="translate(-72.81 -54.57)"/>
    <polygon class="cls-1" points="214.69 72.81 194.58 42.96 215.33 18.56 198.17 18.56 179.64 40.35 179.64 0 166.51 0 166.51 72.81 179.64 72.81 179.64 60.5 185.69 53.39 198.88 72.81 214.69 72.81"/>
    <path class="cls-1" d="M324.83,73.13V76.3a27,27,0,0,0-13.3-3.49,27.38,27.38,0,0,0,0,54.75c4.83,0,10.35-1.4,13.3-4.35v4.17H338V73.13Zm-13,42.94a15.71,15.71,0,1,1,15.71-15.71A15.72,15.72,0,0,1,311.82,116.07Z" transform="translate(-72.81 -54.57)"/>
    <g>
      <rect class="cls-1" x="425.87" y="24.77" width="13.34" height="47.9"/>
      <path class="cls-1" d="M505.36,71h0a8.18,8.18,0,0,0,0-16.35h0a8.18,8.18,0,1,0,0,16.35Z" transform="translate(-72.81 -54.57)"/>
    </g>
    <path class="cls-1" d="M561,73.13V76.3a27,27,0,0,0-13.3-3.49,27.38,27.38,0,0,0,0,54.75c4.83,0,10.35-1.4,13.3-4.35v4.17h13.13V73.13Zm-13,42.94a15.71,15.71,0,1,1,15.71-15.71A15.72,15.72,0,0,1,548,116.07Z" transform="translate(-72.81 -54.57)"/>
    <path class="cls-1" d="M398.1,154.93v3.18a27,27,0,0,0-13.3-3.49,27.37,27.37,0,0,0,0,54.74c4.83,0,10.35-1.39,13.3-4.34v4.17h13.13V154.93Zm-13,42.94a15.71,15.71,0,1,1,15.71-15.71A15.71,15.71,0,0,1,385.09,197.87Z" transform="translate(-72.81 -54.57)"/>
  </g>
</svg>
