<svg xmlns="http://www.w3.org/2000/svg" xmlns:xlink="http://www.w3.org/1999/xlink" viewBox="0 0 650.77 404.78"><defs><clipPath id="a"><polygon points="483.05 267.98 598.16 253.07 598.16 290.46 556.43 290.46 556.43 303.52 594.55 303.52 594.55 339.1 556.43 339.1 556.43 352.54 599.62 352.54 599.62 389.92 524.2 387.56 483.05 267.98" style="fill:none"/></clipPath><clipPath id="b"><rect x="-35.51" y="-190.74" width="738" height="711" style="fill:none"/></clipPath><clipPath id="c"><polygon points="147.01 246.43 197.92 261.24 197.92 307.34 228.28 307.34 221.17 249.97 274.14 264.16 251.77 397.75 216.5 399.29 216.5 351.72 196.45 346.92 177.61 398.94 154.07 395.39 147.01 246.43" style="fill:none"/></clipPath><clipPath id="e"><path d="M307.09,384.71l-57.68,4.73,60-140.69,47.09-2.37,61.73,143.4h-52.4l-4.53-17.07-44.47-15.35Zm44.72-36.65-4.93-32c-1.45-5.8-2.34-11.79-3.25-17.6h-1.8l-17.07,41.29Z" style="fill:none"/></clipPath><clipPath id="g"><path d="M530.51,254.15,477.72,391l-29.37,12.66L371.83,265.34l62.89-11.19,25.13,69.35a71.66,71.66,0,0,1,3.43,20.33h1.09a71.66,71.66,0,0,1,3.43-20.33l18.07-62.26Z" style="fill:none"/></clipPath><clipPath id="i"><polygon points="493.46 265.58 608.59 250.66 608.59 288.05 566.83 288.05 566.83 301.11 604.97 301.11 604.97 336.7 566.83 336.7 566.83 350.12 610.02 350.12 610.02 387.5 534.61 385.14 493.46 265.58" style="fill:none"/></clipPath><clipPath id="k"><path d="M612.73,390.31l-80.07-2.51-.61-1.77L489.82,263.31l121.47-15.74v43.19H569.53v7.63h38.14v41H569.53v8h43.2v42.9Zm-76.18-7.82,70.77,2.21V352.84h-43.2V334h38.14V303.83H564.12v-18.5h41.75V253.74l-108.76,14.1Z" style="fill:none"/></clipPath><clipPath id="m"><polygon points="157.43 244.01 208.34 258.83 208.34 304.93 238.69 304.93 231.59 247.56 284.55 261.75 262.19 395.35 226.92 396.87 226.92 349.31 206.86 344.51 188.03 396.52 164.49 392.98 157.43 244.01" style="fill:none"/></clipPath><clipPath id="o"><path d="M224.21,399.7V351.46l-15.63-3.74-18.77,51.82-27.91-4.2-7.35-155L211,256.79v45.43h24.6l-7.23-58.32,59.22,15.86L264.49,398Zm-19.06-58.4,24.47,5.87V394l30.26-1.3,21.61-129-46.73-12.52,7,56.43H205.63V260.87l-45.32-13.2,6.78,143,19.15,2.88Z" style="fill:none"/></clipPath><clipPath id="q"><path d="M317.51,381.15l-57.67,4.73,60-140.69L367,242.82l61.72,143.4H376.27l-4.52-17.06L327.29,353.8Zm44.73-36.64-4.95-32c-1.44-5.81-2.35-11.79-3.25-17.6h-1.8l-17.06,41.31Z" style="fill:none"/></clipPath><clipPath id="s"><path d="M255.59,389,318,242.56,368.68,240l64.13,148.92H374.18l-4.67-17.68-40.58-14-9.46,26.47Zm122.75-5.44h46.23L365.21,245.64l-43.53,2.18-57.59,135,51.47-4.21,10.08-28.23L374,367.07Zm-12.77-35.15-34-10.4,18.91-45.75h5.91l.48,3.07c.86,5.48,1.73,11.16,3.09,16.59Zm-26.75-13.85,20.09,6.14L354.62,313c-.92-3.65-1.61-7.46-2.24-11.26Z" style="fill:none"/></clipPath><clipPath id="u"><path d="M540.91,251.73,488.14,388.59l-29.37,12.66L382.24,262.93l62.9-11.2,25.12,69.37a70.91,70.91,0,0,1,3.44,20.32h1.09a71.58,71.58,0,0,1,3.42-20.32l18.08-62.27Z" style="fill:none"/></clipPath><clipPath id="w"><rect x="378.03" y="248.31" width="167.1" height="156.4" style="fill:none"/></clipPath><clipPath id="y"><rect x="377.49" y="248.26" width="168" height="157" style="fill:none"/></clipPath><clipPath id="z"><path d="M457.59,404.71,378,260.92l68.87-12.26,25.9,71.51c.56,1.82,1,3.55,1.44,5.21q.6-2.42,1.38-5.06l18.55-63.91,51-8.1L490.25,390.64ZM386.45,264.94,460,397.79,486,386.55l50.66-131.4-38.28,6.08-17.6,60.62c-2.29,7.74-3.32,13.77-3.32,19.57v2.72H471v-2.72c0-5.78-1-11.81-3.33-19.55l-24.3-67.07Z" style="fill:none"/></clipPath><clipPath id="ab"><path d="M62.79,351.45l2.52,2c8.85,6.9,19.51,12.52,30.9,12.52,4.88,0,12.65-2,12.65-8.16s-6.5-6.71-11-7.62l-9.94-1.83c-19.34-3.44-51.53-16.68-51.53-38.1,0-32.49,45.38-48.85,75-48.85,15.54,0,39.91,6.39,53.28,14.56l-23.46,32.46c-8.49-5.81-18.07-10.35-28.73-10.35-4.35,0-10.67,1.63-10.67,7.26,0,5.08,6.15,5.81,9.94,6.72L123,314.6c21,4.72,46.42,17.35,46.42,40.58,0,32.67-39.9,47.45-69.36,47.45-17.18,0-63.59-14.82-78.95-22.62Z" style="fill:none"/></clipPath><clipPath id="ad"><path d="M73.19,349l2.54,2c8.85,6.9,19.51,12.53,30.9,12.53,4.88,0,12.65-2,12.65-8.17s-6.5-6.72-11-7.63l-10-1.81c-19.34-3.45-51.52-16.68-51.52-38.1,0-32.5,45.38-48.84,75-48.84,15.55,0,39.92,6.38,53.29,14.55L151.63,306c-8.5-5.8-18.07-10.35-28.74-10.35-4.33,0-10.66,1.64-10.66,7.26,0,5.08,6.15,5.81,9.94,6.71l11.2,2.55c21,4.72,46.43,17.36,46.43,40.59,0,32.66-39.92,47.45-69.39,47.45-17.16,0-63.57-14.83-78.93-22.63Z" style="fill:none"/></clipPath><clipPath id="af"><path d="M110.42,403c-17.38,0-64-14.7-80.16-22.92L26.17,378,73.3,345.68l4.1,3.22c10.17,7.93,20,12,29.23,12,2.58,0,9.94-1,9.94-5.46,0-2.81-1.95-3.67-7.44-4.7l-11.3-2.06c-21.6-3.86-53.75-17.9-53.75-40.78,0-33.64,45.14-51.56,77.72-51.56,16.66,0,41.2,6.71,54.69,14.95l2.51,1.53-26.72,37-2.17-1.48c-9.88-6.75-18.52-9.88-27.22-9.88-.33,0-8,0-8,4.54,0,2,2.1,2.8,6.5,3.76L134,309.55c11.37,2.56,48.52,13.25,48.52,43.23C182.49,387.39,140.35,403,110.42,403ZM36.93,377.16c18.29,8,58.39,20.35,73.49,20.35,27.69,0,66.67-13.87,66.67-44.73,0-20.62-22.88-33.12-44.3-37.94L120.29,312c-3.76-.83-10.76-2.36-10.76-9.08,0-6.89,6.71-10,13.37-10,9,0,18.23,3.07,28.06,9.37l20.17-27.9c-13-7-34.76-12.7-49.32-12.7-29.56,0-72.32,16.43-72.32,46.13,0,19.41,30.23,32,49.3,35.43l11.32,2.08c4.44.83,11.87,2.21,11.87,10,0,7.48-8,10.9-15.35,10.9-10.45,0-21.4-4.42-32.56-13.11l-1-.78Z" style="fill:none"/></clipPath><clipPath id="ah"><polygon points="109.44 125.37 86 90.61 70.58 124.18 18.71 38.1 59.4 23.34 74.11 83.96 88.8 47.18 106.88 85.78 116.51 22.45 158.92 25.99 109.44 125.37" style="fill:none"/></clipPath><clipPath id="aj"><path d="M238.39,35.24l54.12-8.52c22.05,0,40.73,9.37,40.73,34.11,0,14.84-5.72,21.09-18.94,25.52v.78a24.8,24.8,0,0,1,6,5.86l21.25,31.9h-41L285,93.38h-.65v31.51H249.6Zm46,35h2.46c5.84,0,11.67-.92,11.67-8.21,0-7.55-5.32-8.47-11.4-8.47h-2.73V70.21Z" style="fill:none"/></clipPath><clipPath id="al"><path d="M245.57,29.9l54.14-8.52c22,0,40.71,9.37,40.71,34.11,0,14.84-5.71,21.1-18.93,25.52v.78a25.31,25.31,0,0,1,6,5.86l21.25,31.9h-41L292.19,88h-.65v31.51H256.79Zm46,35H294c5.83,0,11.67-.91,11.67-8.21,0-7.55-5.33-8.46-11.41-8.46h-2.72V64.87Z" style="fill:none"/></clipPath><clipPath id="an"><path d="M353.8,122.28H306.05L294.26,98.42v23.86H254.38L242.54,27.61l56.75-8.93h.1c28,0,43.75,13.42,43.75,36.81,0,13.83-4.81,21.6-16.9,26.66a21.65,21.65,0,0,1,3.45,4Zm-44.37-5.47h34.16L325.18,89.17a20.42,20.42,0,0,0-4.79-4.76l-1.63-1.29V79l1.86-.63c12.77-4.26,17.07-10,17.07-22.92,0-27.3-23.8-31.38-38-31.38l-51.09,8.08,10.57,84.62h29.62V85.3h5.07ZM294,67.6h-5.19V45.47h5.45c4.23,0,14.13,0,14.13,11.19C308.39,67.6,297.56,67.6,294,67.6Zm.26-16.66V62.13c7.33-.05,8.68-1.88,8.68-5.47,0-4.44-1.95-5.72-8.68-5.72Z" style="fill:none"/></clipPath><clipPath id="ap"><path d="M242.56,76.71c0,31.51-24.24,50.39-54.06,50.39s-54-18.88-54-50.39c0-30.85,24.36-50.91,54-50.91s54.06,20.06,54.06,50.91m-72.34.52c0,11.2,7.52,18.88,18.28,18.88s18.29-7.68,18.29-18.88c0-10.41-7-19.14-18.29-19.14s-18.28,8.73-18.28,19.14" style="fill:none"/></clipPath><clipPath id="ar"><path d="M252.06,73.78c0,31.51-24.23,50.39-54,50.39S144,105.29,144,73.78c0-30.85,24.37-50.9,54.06-50.9s54,20.05,54,50.9m-72.32.52c0,11.2,7.52,18.88,18.28,18.88S216.3,85.51,216.3,74.3c0-10.42-7-19.14-18.28-19.14s-18.28,8.72-18.28,19.14" style="fill:none"/></clipPath><clipPath id="at"><path d="M198,126.91c-33.44,0-56.79-21.85-56.79-53.13,0-31.08,23.88-53.64,56.79-53.64s56.77,22.56,56.77,53.64c0,31.28-23.33,53.13-56.77,53.13m0-101.3c-29.74,0-51.33,20.26-51.33,48.17S167.8,121.43,198,121.43s51.32-19.6,51.32-47.65S227.76,25.61,198,25.61m0,70.31c-12.37,0-21-8.89-21-21.62s8.83-21.87,21-21.87,21,9.2,21,21.87-8.64,21.62-21,21.62m0-38c-9.15,0-15.56,6.75-15.56,16.4S188.72,90.44,198,90.44,213.58,84,213.58,74.3,207.17,57.9,198,57.9" style="fill:none"/></clipPath><clipPath id="av"><path d="M532.15,91l1.8,1.42c6.32,4.93,13.94,9,22.07,9,3.48,0,9-1.42,9-5.84s-4.65-4.79-7.87-5.44l-7.1-1.3c-13.82-2.46-36.82-11.92-36.82-27.22,0-23.23,32.42-34.9,53.6-34.9C578,26.63,595.39,31.19,605,37L588.18,60.23c-6.07-4.16-12.9-7.4-20.54-7.4C564.55,52.83,560,54,560,58c0,3.64,4.41,4.15,7.1,4.81l8,1.81c15,3.38,33.17,12.4,33.17,29,0,23.35-28.52,33.91-49.58,33.91-12.27,0-45.43-10.59-56.4-16.17Z" style="fill:none"/></clipPath><clipPath id="ax"><path d="M539.58,89.24l1.8,1.43c6.33,4.92,14,9,22.09,9,3.48,0,9-1.43,9-5.84s-4.66-4.8-7.88-5.45l-7.1-1.3C543.71,84.56,520.7,75.1,520.7,59.8c0-23.21,32.44-34.9,53.62-34.9,11.1,0,28.51,4.56,38.07,10.4L595.63,58.49c-6.07-4.15-12.92-7.39-20.54-7.39-3.09,0-7.62,1.17-7.62,5.18,0,3.63,4.4,4.16,7.11,4.8l8,1.83c15,3.36,33.16,12.39,33.16,29,0,23.35-28.51,33.91-49.56,33.91-12.27,0-45.44-10.59-56.42-16.17Z" style="fill:none"/></clipPath><clipPath id="az"><path d="M566.18,128.55c-12.54,0-46-10.56-57.64-16.46L504.42,110l35.27-24.16,3.39,2.68c7.12,5.54,14,8.36,20.39,8.36,2,0,6.32-.78,6.32-3.1,0-1.28-.68-1.83-4.68-2.57L557,89.72C541.35,86.92,518,76.64,518,59.8c0-24.56,32.72-37.63,56.34-37.63,12,0,29.74,4.84,39.5,10.8l2.52,1.54L596.28,62.26l-2.18-1.5c-6.9-4.72-12.93-6.92-19-6.92-.05,0-4.9,0-4.9,2.45,0,.87,1.42,1.34,4,1.92l8.95,2c8.27,1.85,35.29,9.63,35.29,31.66C618.48,118.61,586.4,128.55,566.18,128.55ZM515.3,109.17c13.5,5.71,40.5,13.91,50.88,13.91,19.46,0,46.85-9.68,46.85-31.17,0-14.27-16-23-31-26.32l-8.91-2c-2.71-.59-8.33-1.82-8.33-7.27s5.2-7.92,10.34-7.92c6.43,0,12.95,2.1,19.85,6.41l13.44-18.59c-9.28-4.76-24.06-8.55-34.06-8.55-20.8,0-50.89,11.46-50.89,32.16,0,12.67,20.22,22,34.58,24.53l8.11,1.49c3.18.6,9.12,1.7,9.12,8,0,5.89-6.1,8.57-11.77,8.57-7.64,0-15.63-3.2-23.75-9.52l-.26-.2Z" style="fill:none"/></clipPath><clipPath id="bb"><polygon points="531.67 17.76 511.95 40.75 506.59 38.5 517.68 8.18 531.67 17.76" style="fill:none"/></clipPath><clipPath id="bd"><polygon points="539.39 15.82 519.68 38.8 514.32 36.56 525.41 6.24 539.39 15.82" style="fill:none"/></clipPath><clipPath id="bf"><path d="M520.46,42.1l-9.6-4L524.05,2l19.4,13.28ZM517.78,35l1.12.48,16.44-19.17-8.58-5.87Z" style="fill:none"/></clipPath><clipPath id="bh"><polygon points="119.13 123.71 94.61 87.36 78.48 122.47 24.23 32.43 66.79 16.99 82.17 80.4 97.53 41.93 116.44 82.31 126.53 16.06 170.88 19.77 119.13 123.71" style="fill:none"/></clipPath><clipPath id="bj"><path d="M119.48,129.12,95.07,92.91,78.79,128.3,20.17,31l48.55-17.6L82.81,71.45,97.32,35.07,115.1,73l9.12-59.89,50.89,4.26ZM94.16,81.81l24.61,36.49,47.86-96.14L128.84,19l-11,72.61L97.73,48.79,81.55,89.34,64.86,20.6,28.28,33.87l49.87,82.77Z" style="fill:none"/></clipPath><clipPath id="bl"><path d="M467.51,36.79C447.82,31.12,410.57,31,396.38,31v.15l13.76,93.39s20.15-1.57,35.94-4.63c34.33-6.55,64.76-23.43,64.76-46.27,0-14.55-18.26-29.69-43.33-36.82M439.05,89.66c-4.15.8-9.44,1.21-9.44,1.21L426,66.36v0c3.73,0,13.5,0,18.67,1.53,6.58,1.87,11.37,5.84,11.37,9.66,0,6-8,10.43-17,12.15" style="fill:none"/></clipPath><clipPath id="bn"><path d="M474.61,32.91c-19.7-5.68-56.95-5.82-71.14-5.82v.14l13.75,93.4s20.15-1.57,35.94-4.63c34.34-6.55,64.77-23.43,64.77-46.28,0-14.54-18.26-29.68-43.32-36.81M446.14,85.77c-4.15.8-9.43,1.22-9.43,1.22l-3.62-24.52v0c3.73,0,13.5,0,18.67,1.54,6.58,1.87,11.37,5.84,11.37,9.66,0,6-8,10.43-17,12.14" style="fill:none"/></clipPath><clipPath id="bp"><path d="M414.9,123.55,400.77,27.63V24.9l2.7-.54c12.69,0,51.32,0,71.89,5.92,26.66,7.59,45.29,23.81,45.29,39.45,0,26.71-36.08,43.07-67,49-15.74,3-36,4.65-36.23,4.66Zm-8.3-93.72,12.94,87.85c5.89-.52,20.91-2,33.1-4.36,31.14-5.94,62.56-21.72,62.56-43.59,0-13-17.38-27.37-41.35-34.18-18.38-5.3-52.42-5.69-67.26-5.72Zm27.79,60.09-4-27.05V60.14l2.7-.44c3.41,0,13.76,0,19.42,1.64,8,2.26,13.35,7.2,13.35,12.29,0,8.25-9.93,13.07-19.22,14.84-4.24.82-9.5,1.23-9.72,1.25Zm1.84-24.72L439,84c1.85-.2,4.4-.51,6.6-.93,8.56-1.63,14.78-5.61,14.78-9.46,0-2.1-3.6-5.38-9.4-7C448.15,65.77,443.18,65.3,436.23,65.2Z" style="fill:none"/></clipPath><clipPath id="br"><polygon points="372.37 106.48 404.79 94.35 402.89 118.62 351.38 128.19 341.21 31.13 385.09 26.02 372.37 106.48" style="fill:none"/></clipPath><clipPath id="bt"><polygon points="379.46 101.89 411.87 89.76 409.96 114.03 358.48 123.61 348.3 26.55 392.17 21.44 379.46 101.89" style="fill:none"/></clipPath><clipPath id="bv"><path d="M356.07,126.84,345.31,24.14l50.11-5.84L382.88,97.7l32.05-12-2.42,30.64ZM351.29,29l9.59,91.42,46.52-8.66,1.41-17.89L376,106.1l12.88-81.53Z" style="fill:none"/></clipPath><clipPath id="bx"><polygon points="173.63 147.03 257.86 136.11 257.86 163.47 227.32 163.47 227.32 173.03 255.22 173.03 255.22 199.07 227.32 199.07 227.32 208.9 258.92 208.9 258.92 236.26 203.74 234.52 173.63 147.03" style="fill:none"/></clipPath><clipPath id="bz"><polygon points="181.25 145.26 265.48 134.36 265.48 161.71 234.94 161.71 234.94 171.27 262.84 171.27 262.84 197.3 234.94 197.3 234.94 207.14 266.54 207.14 266.54 234.5 211.36 232.76 181.25 145.26" style="fill:none"/></clipPath><clipPath id="cb"><path d="M269.27,237.32l-59.88-1.88L177.58,143l90.63-11.74v33.22H237.66v4.07h27.9v31.52h-27.9v4.35h31.6v32.93Zm-55.95-7.24,50.49,1.59V209.88H232.2V194.56h27.9V174H232.2V159h30.55v-21.5l-77.82,10.08Z" style="fill:none"/></clipPath><clipPath id="cd"><path d="M92.34,149.45l55.42-8.73c22.57,0,41.7,9.59,41.7,34.93,0,15.19-5.86,21.6-19.39,26.13v.8a25.41,25.41,0,0,1,6.11,6L198,241.23H156L140.07,209h-.66v32.25H103.83Zm47.07,35.8h2.51c6,0,12-.93,12-8.4,0-7.74-5.44-8.66-11.68-8.66h-2.78v17.06Z" style="fill:none"/></clipPath><clipPath id="cf"><path d="M96.48,142.37l55.42-8.74c22.56,0,41.68,9.6,41.68,34.93,0,15.2-5.84,21.6-19.39,26.14v.8a24.88,24.88,0,0,1,6.11,6l21.77,32.66H160.13l-15.94-32.27h-.66v32.26H108Zm47.05,35.8h2.53c6,0,11.95-.94,11.95-8.41,0-7.73-5.46-8.66-11.69-8.66h-2.79v17.07Z" style="fill:none"/></clipPath><clipPath id="ch"><path d="M207.17,236.9H158.44l-12.17-24.66V236.9H105.54L93.43,140.07l58-9.15h.1c28.59,0,44.74,13.72,44.74,37.64,0,14.16-4.94,22.11-17.35,27.28a22.73,22.73,0,0,1,3.6,4.11Zm-45.35-5.49H197L178,203a20.89,20.89,0,0,0-4.93-4.91l-1.63-1.27v-4.11l1.86-.63c13.09-4.38,17.52-10.32,17.52-23.53,0-28-24.4-32.19-38.95-32.19l-52.39,8.29,10.86,86.76h30.44V199.15h5.08ZM146.06,180.9h-5.25V158.36h5.51c4.31,0,14.41,0,14.41,11.4,0,11.15-10.66,11.15-14.67,11.15Zm.21-17.06v11.58c7.6,0,9-1.94,9-5.67,0-4.59-2-5.91-9-5.91Z" style="fill:none"/></clipPath><clipPath id="cj"><path d="M115.81,191.3c-.24,13.46-10.87,43.9-46.24,48.28-28.66,3.55-49.9-18.05-49.9-47.06,0-30,18.45-52.56,48.07-52.56,18.89,0,38.93,7.8,46.85,25.06l-35.9,14.06c-3.29-8.81-28.09-28-31.63,6.72-2.45,23.83,17.21,64.36,43.8,18.33l-28,2.45L57.4,184Z" style="fill:none"/></clipPath><clipPath id="cl"><path d="M121.36,186.65c-.23,13.46-10.86,43.9-46.23,48.28-28.67,3.55-49.9-18.06-49.9-47.06,0-30,18.45-52.57,48.07-52.57,18.88,0,38.93,7.81,46.86,25.07l-35.92,14c-3.28-8.81-28.1-28-31.63,6.73-2.44,23.83,17.22,64.36,43.8,18.33l-28,2.44-5.49-22.6Z" style="fill:none"/></clipPath><clipPath id="cn"><path d="M69,238.05c-26.53,0-46.53-21.57-46.53-50.18,0-32.57,20.9-55.31,50.81-55.31,17.94,0,40.32,7,49.34,26.66l1.21,2.65L82.66,178l-1-2.6c-1.47-3.94-9.2-11.5-15.92-11.5-7.16,0-9.62,9.55-10.44,17.55-1.13,11,2.81,25,9,31.85,2.67,3,5.54,4.45,8.54,4.45,4.05,0,10.39-2.74,18.43-15l-24.92,2.18-7-28.75,64.77,8.13,0,2.46c-.32,17.41-13.79,46.64-48.63,51a51.43,51.43,0,0,1-6.44.4M73.3,138c-27.13,0-45.35,20-45.35,49.83C28,215.82,48,235.56,74.78,232.2c32.78-4,42.37-31,43.68-43.15l-51.92-6.52,4,16.46,30.88-2.7-2.64,4.56c-8.56,14.84-17.3,22.37-25.95,22.37-4.55,0-8.9-2.17-12.59-6.27-7.17-8-11.63-23.5-10.34-36.08,1.9-18.57,9.68-22.47,15.88-22.47,7.78,0,16.23,6.8,19.79,12.57l30.78-12.06C107.66,143.59,88.7,138,73.3,138" style="fill:none"/></clipPath><clipPath id="cp"><path d="M481.23,200.58l1.85,1.45c6.48,5.06,14.27,9.17,22.6,9.17,3.57,0,9.27-1.46,9.27-6s-4.76-4.91-8.06-5.57l-7.28-1.33c-14.16-2.51-37.71-12.2-37.71-27.87,0-23.78,33.21-35.74,54.89-35.74,11.38,0,29.2,4.67,39,10.64L538.62,169.1c-6.23-4.25-13.22-7.57-21-7.57-3.17,0-7.8,1.2-7.8,5.31,0,3.72,4.5,4.25,7.27,4.91l8.21,1.86c15.34,3.45,34,12.7,34,29.7,0,23.9-29.21,34.72-50.76,34.72-12.56,0-46.52-10.84-57.76-16.55Z" style="fill:none"/></clipPath><clipPath id="cr"><path d="M488.85,198.81l1.84,1.46c6.49,5,14.29,9.17,22.63,9.17,3.57,0,9.25-1.47,9.25-6s-4.76-4.92-8.08-5.58l-7.26-1.33c-14.16-2.52-37.72-12.21-37.72-27.87,0-23.78,33.23-35.74,54.91-35.74,11.37,0,29.2,4.66,39,10.64l-17.17,23.76c-6.21-4.26-13.22-7.57-21-7.57-3.18,0-7.8,1.2-7.8,5.31,0,3.72,4.49,4.24,7.26,4.91l8.21,1.86c15.34,3.45,34,12.69,34,29.7,0,23.9-29.2,34.71-50.76,34.71-12.56,0-46.52-10.84-57.76-16.55Z" style="fill:none"/></clipPath><clipPath id="ct"><path d="M516.09,239c-12.81,0-47.1-10.81-59-16.85l-4.12-2.1,36-24.66,3.43,2.72c7.31,5.69,14.36,8.58,20.93,8.58,2,0,6.53-.81,6.53-3.24,0-1.35-.7-1.93-4.87-2.7l-8.24-1.52c-16.05-2.85-39.95-13.36-39.95-30.57,0-25.11,33.47-38.48,57.63-38.48,12.32,0,30.44,4.95,40.4,11l2.54,1.55L546.88,171.1l-2.18-1.5c-7.07-4.84-13.26-7.1-19.48-7.1-.05,0-5.07,0-5.07,2.57,0,.84,1,1.32,4.15,2l9.19,2.09c8.46,1.9,36.09,9.88,36.09,32.37C569.58,228.84,536.76,239,516.09,239Zm-52.23-19.77c13.8,5.85,41.58,14.28,52.23,14.28,19.94,0,48-9.92,48-32,0-14.64-16.46-23.56-31.84-27l-9.16-2.07c-3-.65-8.44-1.85-8.44-7.37S520,157,525.22,157c6.59,0,13.26,2.17,20.34,6.6l13.83-19.15c-9.48-4.9-24.69-8.79-35-8.79-21.32,0-52.17,11.75-52.17,33,0,13,20.74,22.55,35.46,25.18l8.26,1.51c3.26.6,9.34,1.73,9.34,8.09,0,6-6.21,8.73-12,8.73-7.8,0-16-3.28-24.29-9.74l-.3-.24Z" style="fill:none"/></clipPath><clipPath id="cv"><path d="M288.58,232.49l-40.93,3.35L290.26,136l33.41-1.68,43.81,101.77h-37.2L327.07,224l-31.55-10.9Zm31.74-26-3.51-22.68c-1-4.13-1.66-8.37-2.31-12.5h-1.29l-12.1,29.3Z" style="fill:none"/></clipPath><clipPath id="cx"><path d="M296,230l-40.93,3.35,42.58-99.83,33.43-1.69,43.81,101.77H337.68l-3.22-12.11-31.55-10.9Zm31.74-26-3.51-22.68c-1-4.13-1.67-8.38-2.31-12.5h-1.29L308.5,198.09Z" style="fill:none"/></clipPath><clipPath id="cz"><path d="M250.75,236.42l45-105.58,37-1.87L379,236.31H335.58l-3.37-12.73L304.57,214,298,232.56Zm89-5.6h30.93L329.3,134.64l-29.83,1.5-40.13,94.09L294,227.39l7.24-20.3,35.5,12.25Zm-8.7-23-26.24-8,14-33.8h5.43l.37,2.32c.64,4.19,1.28,8.31,2.26,12.25Zm-18.9-11.51,12.17,3.72L321.5,181.7c-.41-1.7-.78-3.45-1.11-5.23Z" style="fill:none"/></clipPath><clipPath id="db"><polygon points="372.12 147.03 456.35 136.11 456.35 163.47 425.81 163.47 425.81 173.03 453.71 173.03 453.71 199.07 425.81 199.07 425.81 208.9 457.42 208.9 457.42 236.26 402.23 234.52 372.12 147.03" style="fill:none"/></clipPath><clipPath id="dd"><polygon points="379.74 145.26 463.97 134.36 463.97 161.71 433.43 161.71 433.43 171.27 461.33 171.27 461.33 197.3 433.43 197.3 433.43 207.14 465.04 207.14 465.04 234.5 409.85 232.76 379.74 145.26" style="fill:none"/></clipPath><clipPath id="df"><path d="M467.76,237.32l-59.87-1.88L376.07,143l90.63-11.74v33.22H436.15v4.07h27.92v31.52H436.15v4.35h31.61v32.93Zm-55.95-7.24,50.49,1.59V209.88H430.69V194.56h27.92V174H430.69V159h30.56v-21.5l-77.83,10.08Z" style="fill:none"/></clipPath><clipPath id="dh"><polygon points="370.78 229.18 346.06 219.25 361.89 159.64 341.12 152.69 345.4 137.43 414.3 146.72 399.47 170.57 380.4 164.57 370.78 229.18" style="fill:none"/></clipPath><clipPath id="dj"><polygon points="377.71 226.19 352.98 216.27 368.81 156.66 348.04 149.7 352.32 134.44 421.23 143.75 406.39 167.59 387.32 161.6 377.71 226.19" style="fill:none"/></clipPath><clipPath id="dl"><path d="M379.9,230l-30.18-12.12,15.79-59.46-20.82-7,5.65-20.06,75.44,10.19-18.2,29.23-18.05-5.66Zm-23.66-15.41,19.28,7.74L385.09,158l20.11,6.32,11.47-18.44-62.37-8.43-2.93,10.45,20.74,7Z" style="fill:none"/></clipPath><clipPath id="dn"><polygon points="606.89 231.96 580.28 230.76 575.68 169.24 553.79 169.54 552.83 153.72 620.95 139.71 614.76 167.13 594.78 167.78 606.89 231.96" style="fill:none"/></clipPath><clipPath id="dp"><polygon points="612.45 226.86 585.84 225.65 581.25 164.13 559.35 164.44 558.39 148.61 626.51 134.61 620.32 162.02 600.36 162.68 612.45 226.86" style="fill:none"/></clipPath><clipPath id="dr"><path d="M615.78,229.76l-32.48-1.47-4.58-61.37-21.93.3-1.27-20.81,74.6-15.34-7.61,33.63-18.88.61ZM588.38,223l20.74.94-12-63.93,21-.69,4.8-21.2-61.66,12.67.65,10.84,21.87-.3Z" style="fill:none"/></clipPath><clipPath id="dt"><path d="M631.3,377.2V379H627v12.32h-2.12V379h-4.28V377.2H631.3Zm13.6,14.12-.56-8.52c-.07-1.1,0-2.45,0-3.83h-.11c-.34,1.31-.77,2.8-1.19,4l-2.93,8.13h-1.63l-2.86-8.34c-.36-1.13-.71-2.52-1-3.83h-.1c0,1.35,0,2.55-.08,3.83l-.52,8.52H631.8l1.09-14.12h2.78l2.76,7.66c.36,1.07.64,2.24,1,3.55h.07c.32-1.31.63-2.56,1-3.59l2.76-7.62H646l1.07,14.12Z" style="fill:none"/></clipPath></defs><g style="clip-path:url(#a)"><g style="clip-path:url(#b)"><rect x="468.05" y="238.07" width="146.57" height="166.85" style="fill:#12100b"/></g></g><g style="clip-path:url(#c)"><g style="clip-path:url(#b)"><rect x="132.01" y="231.42" width="157.12" height="182.87" style="fill:#12100b"/></g></g><g style="clip-path:url(#e)"><g style="clip-path:url(#b)"><rect x="234.41" y="231.38" width="198.85" height="173.4" style="fill:#12100b"/></g></g><g style="clip-path:url(#g)"><g style="clip-path:url(#b)"><rect x="356.83" y="239.15" width="188.68" height="179.52" style="fill:#12100b"/></g></g><g style="clip-path:url(#i)"><g style="clip-path:url(#b)"><rect x="478.46" y="235.66" width="146.56" height="166.84" style="fill:#ff5000"/></g></g><g style="clip-path:url(#k)"><g style="clip-path:url(#b)"><rect x="474.82" y="232.57" width="152.91" height="172.74" style="fill:#12100b"/></g></g><g style="clip-path:url(#m)"><g style="clip-path:url(#b)"><rect x="142.43" y="229.01" width="157.12" height="182.86" style="fill:#ff5000"/></g></g><g style="clip-path:url(#o)"><g style="clip-path:url(#b)"><rect x="139.55" y="225.34" width="163.09" height="189.35" style="fill:#12100b"/></g></g><g style="clip-path:url(#q)"><g style="clip-path:url(#b)"><rect x="244.84" y="227.82" width="198.84" height="173.4" style="fill:#ff5000"/></g></g><g style="clip-path:url(#s)"><g style="clip-path:url(#b)"><rect x="240.58" y="225.02" width="207.22" height="178.93" style="fill:#12100b"/></g></g><g style="clip-path:url(#u)"><g style="clip-path:url(#b)"><rect x="367.24" y="236.73" width="188.67" height="179.52" style="fill:#ff5000"/></g></g><g style="clip-path:url(#w)"><g style="clip-path:url(#b)"><g style="clip-path:url(#y)"><g style="clip-path:url(#z)"><g style="clip-path:url(#y)"><rect x="363.03" y="233.31" width="197.1" height="186.4" style="fill:#12100b"/></g></g></g></g></g><g style="clip-path:url(#ab)"><g style="clip-path:url(#b)"><rect x="6.06" y="246.42" width="178.31" height="171.21" style="fill:#12100b"/></g></g><g style="clip-path:url(#ad)"><g style="clip-path:url(#b)"><rect x="16.49" y="244.01" width="178.31" height="171.22" style="fill:#ff5000"/></g></g><g style="clip-path:url(#af)"><g style="clip-path:url(#b)"><rect x="11.17" y="241.29" width="186.32" height="176.65" style="fill:#12100b"/></g></g><g style="clip-path:url(#ah)"><g style="clip-path:url(#b)"><rect x="3.71" y="7.45" width="170.2" height="132.92" style="fill:#12100b"/></g></g><g style="clip-path:url(#aj)"><g style="clip-path:url(#b)"><rect x="223.39" y="11.72" width="133.12" height="128.17" style="fill:#12100b"/></g></g><g style="clip-path:url(#al)"><g style="clip-path:url(#b)"><rect x="230.57" y="6.38" width="133.12" height="128.17" style="fill:#ff5000"/></g></g><g style="clip-path:url(#an)"><g style="clip-path:url(#b)"><rect x="227.54" y="3.67" width="141.26" height="133.61" style="fill:#12100b"/></g></g><g style="clip-path:url(#ap)"><g style="clip-path:url(#b)"><rect x="119.46" y="10.8" width="138.1" height="131.3" style="fill:#12100b"/></g></g><g style="clip-path:url(#ar)"><g style="clip-path:url(#b)"><rect x="128.96" y="7.88" width="138.1" height="131.29" style="fill:#ff5000"/></g></g><g style="clip-path:url(#at)"><g style="clip-path:url(#b)"><rect x="126.24" y="5.14" width="143.55" height="136.76" style="fill:#12100b"/></g></g><g style="clip-path:url(#av)"><g style="clip-path:url(#b)"><rect x="487.34" y="11.63" width="135.98" height="130.91" style="fill:#12100b"/></g></g><g style="clip-path:url(#ax)"><g style="clip-path:url(#b)"><rect x="494.77" y="9.9" width="135.98" height="130.91" style="fill:#ff5000"/></g></g><g style="clip-path:url(#az)"><g style="clip-path:url(#b)"><rect x="489.42" y="7.17" width="144.06" height="136.38" style="fill:#12100b"/></g></g><g style="clip-path:url(#bb)"><g style="clip-path:url(#b)"><rect x="491.59" y="-6.83" width="55.08" height="62.57" style="fill:#12100b"/></g></g><g style="clip-path:url(#bd)"><g style="clip-path:url(#b)"><rect x="499.32" y="-8.76" width="55.07" height="62.56" style="fill:#ff5000"/></g></g><g style="clip-path:url(#bf)"><g style="clip-path:url(#b)"><rect x="495.86" y="-13" width="62.59" height="70.09" style="fill:#12100b"/></g></g><g style="clip-path:url(#bh)"><g style="clip-path:url(#b)"><rect x="9.23" y="1.06" width="176.64" height="137.65" style="fill:#ff5000"/></g></g><g style="clip-path:url(#bj)"><g style="clip-path:url(#b)"><rect x="5.17" y="-1.88" width="184.94" height="146" style="fill:#12100b"/></g></g><g style="clip-path:url(#bl)"><g style="clip-path:url(#b)"><rect x="381.38" y="15.97" width="144.46" height="123.54" style="fill:#12100b"/></g></g><g style="clip-path:url(#bn)"><g style="clip-path:url(#b)"><rect x="388.47" y="12.09" width="144.46" height="123.54" style="fill:#ff5000"/></g></g><g style="clip-path:url(#bp)"><g style="clip-path:url(#b)"><rect x="385.77" y="9.36" width="149.88" height="129.2" style="fill:#12100b"/></g></g><g style="clip-path:url(#br)"><g style="clip-path:url(#b)"><rect x="326.21" y="11.02" width="93.58" height="132.17" style="fill:#12100b"/></g></g><g style="clip-path:url(#bt)"><g style="clip-path:url(#b)"><rect x="333.3" y="6.43" width="93.57" height="132.17" style="fill:#ff5000"/></g></g><g style="clip-path:url(#bv)"><g style="clip-path:url(#b)"><rect x="330.31" y="3.3" width="99.62" height="138.55" style="fill:#12100b"/></g></g><g style="clip-path:url(#bx)"><g style="clip-path:url(#b)"><rect x="158.63" y="121.11" width="115.3" height="130.14" style="fill:#12100b"/></g></g><g style="clip-path:url(#bz)"><g style="clip-path:url(#b)"><rect x="166.25" y="119.35" width="115.3" height="130.14" style="fill:#fff"/></g></g><g style="clip-path:url(#cb)"><g style="clip-path:url(#b)"><rect x="162.58" y="116.24" width="121.69" height="136.09" style="fill:#12100b"/></g></g><g style="clip-path:url(#cd)"><g style="clip-path:url(#b)"><rect x="77.34" y="125.72" width="135.6" height="130.51" style="fill:#12100b"/></g></g><g style="clip-path:url(#cf)"><g style="clip-path:url(#b)"><rect x="81.48" y="118.63" width="135.59" height="130.53" style="fill:#fff"/></g></g><g style="clip-path:url(#ch)"><g style="clip-path:url(#b)"><rect x="78.43" y="115.92" width="143.74" height="135.98" style="fill:#12100b"/></g></g><g style="clip-path:url(#cj)"><g style="clip-path:url(#b)"><rect x="4.67" y="124.96" width="126.14" height="130" style="fill:#12100b"/></g></g><g style="clip-path:url(#cl)"><g style="clip-path:url(#b)"><rect x="10.23" y="120.3" width="126.13" height="130.01" style="fill:#fff"/></g></g><g style="clip-path:url(#cn)"><g style="clip-path:url(#b)"><rect x="7.49" y="117.56" width="131.64" height="135.49" style="fill:#12100b"/></g></g><g style="clip-path:url(#cp)"><g style="clip-path:url(#b)"><rect x="435.71" y="119.69" width="138.52" height="133.33" style="fill:#12100b"/></g></g><g style="clip-path:url(#cr)"><g style="clip-path:url(#b)"><rect x="443.32" y="117.94" width="138.52" height="133.33" style="fill:#fff"/></g></g><g style="clip-path:url(#ct)"><g style="clip-path:url(#b)"><rect x="437.97" y="115.19" width="146.61" height="138.81" style="fill:#12100b"/></g></g><g style="clip-path:url(#cv)"><g style="clip-path:url(#b)"><rect x="232.65" y="119.32" width="149.84" height="131.77" style="fill:#12100b"/></g></g><g style="clip-path:url(#cx)"><g style="clip-path:url(#b)"><rect x="240.05" y="116.8" width="149.82" height="131.76" style="fill:#fff"/></g></g><g style="clip-path:url(#cz)"><g style="clip-path:url(#b)"><rect x="235.75" y="113.97" width="158.26" height="137.45" style="fill:#12100b"/></g></g><g style="clip-path:url(#db)"><g style="clip-path:url(#b)"><rect x="357.12" y="121.11" width="115.3" height="130.14" style="fill:#12100b"/></g></g><g style="clip-path:url(#dd)"><g style="clip-path:url(#b)"><rect x="364.74" y="119.35" width="115.3" height="130.14" style="fill:#fff"/></g></g><g style="clip-path:url(#df)"><g style="clip-path:url(#b)"><rect x="361.07" y="116.24" width="121.69" height="136.09" style="fill:#12100b"/></g></g><g style="clip-path:url(#dh)"><g style="clip-path:url(#b)"><rect x="326.12" y="122.43" width="103.19" height="121.75" style="fill:#12100b"/></g></g><g style="clip-path:url(#dj)"><g style="clip-path:url(#b)"><rect x="333.04" y="119.44" width="103.2" height="121.75" style="fill:#fff"/></g></g><g style="clip-path:url(#dl)"><g style="clip-path:url(#b)"><rect x="329.7" y="116.41" width="111.09" height="128.62" style="fill:#12100b"/></g></g><g style="clip-path:url(#dn)"><g style="clip-path:url(#b)"><rect x="537.83" y="124.71" width="98.12" height="122.25" style="fill:#12100b"/></g></g><g style="clip-path:url(#dp)"><g style="clip-path:url(#b)"><rect x="543.39" y="119.61" width="98.12" height="122.25" style="fill:#fff"/></g></g><g style="clip-path:url(#dr)"><g style="clip-path:url(#b)"><rect x="540.52" y="116.07" width="104.6" height="128.68" style="fill:#12100b"/></g></g><g style="clip-path:url(#dt)"><g style="clip-path:url(#b)"><rect x="605.6" y="362.2" width="56.47" height="44.12" style="fill:#12100b"/></g></g><rect x="3.45" y="35.52" width="643.61" height="322.28" style="fill:none"/></svg>