<svg id="6b559832-6495-4110-bd2f-7711abb1eb52" data-name="Layer 1" xmlns="http://www.w3.org/2000/svg" xmlns:xlink="http://www.w3.org/1999/xlink" viewBox="0 0 658.349 511.922"><defs><clipPath id="b3a2790b-f617-404c-abb8-7b106b283e25" transform="translate(14.78 12.468)"><polygon points="464.554 347.719 579.664 332.814 579.664 370.196 537.938 370.196 537.938 383.265 576.058 383.265 576.058 418.844 537.938 418.844 537.938 432.275 581.126 432.275 581.126 469.664 505.705 467.299 464.554 347.719" style="fill:none;clip-rule:evenodd"/></clipPath><clipPath id="43150eb8-3f94-4cfc-9fda-f4373273cabd" transform="translate(14.78 12.468)"><rect x="-54" y="-111" width="738" height="711" style="fill:none"/></clipPath><clipPath id="68a6141e-5f85-4dcf-a3a8-04fbeb093f83" transform="translate(14.78 12.468)"><polygon points="128.522 326.165 179.428 340.983 179.428 387.079 209.782 387.079 202.677 329.708 255.644 343.9 233.277 477.492 198.003 479.033 198.003 431.464 177.953 426.661 159.121 478.676 135.576 475.127 128.522 326.165" style="fill:none;clip-rule:evenodd"/></clipPath><clipPath id="df5b275e-86d7-4f4b-b501-8ab869ae8bcf" transform="translate(14.78 12.468)"><path d="M288.6,464.453l-57.679,4.723,60.033-140.689,47.09-2.367,61.729,143.4h-52.4l-4.529-17.068L298.379,437.1ZM333.32,427.8l-4.932-31.967c-1.447-5.806-2.343-11.794-3.252-17.6h-1.8l-17.066,41.292Z" style="fill:none;clip-rule:evenodd"/></clipPath><clipPath id="e1ffb4ab-c9b7-47fc-a584-08ebeaec7c60" transform="translate(14.78 12.468)"><path d="M512.012,333.887L459.229,470.743l-29.373,12.662L353.332,345.081l62.893-11.194,25.127,69.354a71.542,71.542,0,0,1,3.435,20.33h1.092a71.58,71.58,0,0,1,3.423-20.33l18.074-62.264Z" style="fill:none;clip-rule:evenodd"/></clipPath><clipPath id="e48fb9e9-91a6-4555-a0ca-b0b29e2beeed" transform="translate(14.78 12.468)"><polygon points="474.97 345.316 590.093 330.4 590.093 367.787 548.341 367.787 548.341 380.851 586.473 380.851 586.473 416.442 548.341 416.442 548.341 429.861 591.53 429.861 591.53 467.242 516.121 464.884 474.97 345.316" style="fill:none;clip-rule:evenodd"/></clipPath><clipPath id="1633a706-92f9-472e-8f70-e41c294d0a95" transform="translate(14.78 12.468)"><path d="M594.241,470.049l-80.07-2.508-0.613-1.771L471.327,343.047l121.466-15.735V370.5H551.04v7.629h38.133v41.023H551.04v7.987h43.2v42.906Zm-76.181-7.822,70.771,2.214V432.579h-43.2V413.722h38.133V383.566H545.629v-18.5h41.752V333.484l-108.766,14.1Z" style="fill:none;clip-rule:evenodd"/></clipPath><clipPath id="78c931bb-e4c5-4f93-a174-cd204895c34b" transform="translate(14.78 12.468)"><polygon points="138.938 323.75 189.844 338.568 189.844 384.67 220.198 384.67 213.095 327.299 266.06 341.488 243.694 475.089 208.43 476.605 208.43 429.055 188.371 424.246 169.537 476.264 145.994 472.72 138.938 323.75" style="fill:none;clip-rule:evenodd"/></clipPath><clipPath id="d303f30c-d27b-44ca-9400-e36a39615371" transform="translate(14.78 12.468)"><path d="M205.719,479.438V431.2l-15.63-3.744-18.773,51.824-27.912-4.2-7.35-154.993,56.489,16.445v45.426h24.6l-7.226-58.316L269.14,339.5,246,477.7Zm-19.065-58.393,24.476,5.865v46.859l30.258-1.3,21.606-128.99-46.722-12.521,6.994,56.432H187.133V340.607l-45.312-13.192,6.773,142.953,19.152,2.884Z" style="fill:none;clip-rule:evenodd"/></clipPath><clipPath id="af4c77be-efe2-4cc7-ae8d-6ddd839aebd2" transform="translate(14.78 12.468)"><path d="M299.015,460.891l-57.666,4.727,60.024-140.686,47.09-2.367,61.725,143.4H357.773l-4.515-17.062L308.8,433.54Zm44.735-36.644L338.8,392.273c-1.447-5.809-2.354-11.791-3.25-17.6h-1.8l-17.068,41.309Z" style="fill:none;clip-rule:evenodd"/></clipPath><clipPath id="1ba5fdf9-593a-448a-9ed4-1d254a6c10b7" transform="translate(14.78 12.468)"><path d="M237.092,468.691L299.544,322.3l50.647-2.544,64.121,148.927H355.689L351.013,451l-40.575-14.024-9.459,26.477Zm122.756-5.441h46.232l-59.36-137.872-43.533,2.186-57.592,134.98,51.47-4.216L307.15,430.1,355.5,446.812ZM347.075,428.1l-34.034-10.4,18.907-45.748h5.913l0.477,3.065c0.86,5.487,1.73,11.161,3.092,16.594Zm-26.746-13.851,20.084,6.138-4.282-27.7c-0.92-3.649-1.618-7.455-2.245-11.256Z" style="fill:none;clip-rule:evenodd"/></clipPath><clipPath id="b7a6df1c-1625-4666-afff-c13155a8fdfe" transform="translate(14.78 12.468)"><path d="M522.416,331.469L469.645,468.333l-29.373,12.658L363.749,342.673l62.893-11.2,25.127,69.364a71.1,71.1,0,0,1,3.437,20.327h1.09a71.521,71.521,0,0,1,3.423-20.327l18.074-62.271Z" style="fill:none;clip-rule:evenodd"/></clipPath><clipPath id="edadaa87-de15-4f45-bcf2-115872b38949" transform="translate(14.78 12.468)"><rect x="359.541" y="328.051" width="167.096" height="156.403" style="fill:none"/></clipPath><clipPath id="fcb45a4a-f171-48d9-9f34-1236b4b9ee25" transform="translate(14.78 12.468)"><rect x="359" y="328" width="168" height="157" style="fill:none"/></clipPath><clipPath id="d5d3d009-b919-41e0-bfc9-b68afcf7427e" transform="translate(14.78 12.468)"><path d="M439.1,484.454L359.541,340.664,428.409,328.4l25.9,71.507c0.553,1.822,1.019,3.555,1.436,5.217,0.406-1.617.86-3.3,1.387-5.065l18.55-63.909,50.955-8.1L471.755,470.379ZM367.957,344.681l73.495,132.847,26.084-11.24,50.659-131.4-38.28,6.085L462.321,401.59c-2.294,7.745-3.326,13.772-3.326,19.57v2.719h-6.49V421.16c0-5.779-1.029-11.812-3.325-19.552l-24.307-67.064Z" style="fill:none;clip-rule:evenodd"/></clipPath><clipPath id="06168848-6cd1-4e4a-b01a-5c1c5b3d843f" transform="translate(14.78 12.468)"><path d="M44.293,431.191l2.527,2c8.846,6.9,19.507,12.52,30.894,12.52,4.883,0,12.649-1.989,12.649-8.161s-6.5-6.712-11.017-7.623L69.409,428.1c-19.338-3.444-51.533-16.678-51.533-38.1,0-32.488,45.385-48.847,75.017-48.847,15.544,0,39.913,6.39,53.286,14.554l-23.46,32.459c-8.49-5.809-18.073-10.344-28.736-10.344-4.342,0-10.662,1.633-10.662,7.263,0,5.077,6.147,5.806,9.938,6.711l11.2,2.546c20.969,4.719,46.415,17.351,46.415,40.576,0,32.669-39.9,47.45-69.358,47.45-17.177,0-63.593-14.818-78.953-22.614Z" style="fill:none;clip-rule:evenodd"/></clipPath><clipPath id="ea6e5e2c-443c-4b68-81e1-0367ebfa4cf3" transform="translate(14.78 12.468)"><path d="M54.7,428.782l2.539,2c8.846,6.895,19.507,12.532,30.894,12.532,4.883,0,12.649-2,12.649-8.177s-6.5-6.715-11.019-7.626L79.813,425.7c-19.337-3.451-51.519-16.684-51.519-38.1,0-32.5,45.385-48.843,75.015-48.843,15.546,0,39.913,6.384,53.284,14.554l-23.458,32.459c-8.5-5.8-18.073-10.35-28.736-10.35-4.33,0-10.662,1.636-10.662,7.263,0,5.077,6.149,5.806,9.938,6.712l11.2,2.544c20.969,4.719,46.428,17.357,46.428,40.587,0,32.667-39.912,47.451-69.382,47.451-17.167,0-63.57-14.824-78.931-22.627Z" style="fill:none;clip-rule:evenodd"/></clipPath><clipPath id="bf927a24-e070-44c8-8ce9-e768924f168b" transform="translate(14.78 12.468)"><path d="M91.923,482.69c-17.374,0-63.973-14.7-80.157-22.92l-4.086-2.078,47.128-32.273,4.1,3.222C69.076,436.573,78.916,440.6,88.132,440.6c2.587,0,9.949-1,9.949-5.463,0-2.808-1.95-3.67-7.447-4.693l-11.3-2.065c-21.593-3.855-53.75-17.9-53.75-40.779,0-33.64,45.138-51.561,77.725-51.561,16.662,0,41.2,6.711,54.684,14.948l2.514,1.535L133.785,389.5l-2.173-1.478c-9.876-6.749-18.513-9.886-27.214-9.886-0.33,0-7.963.049-7.963,4.547,0,1.99,2.1,2.8,6.5,3.762l12.539,2.846C126.851,391.85,164,402.544,164,432.524,164,467.129,121.858,482.69,91.923,482.69ZM18.441,456.9c18.281,8.053,58.39,20.351,73.482,20.351,27.69,0,66.67-13.875,66.67-44.731,0-20.617-22.881-33.115-44.3-37.941l-12.5-2.833c-3.755-.824-10.76-2.352-10.76-9.071,0-6.893,6.711-9.982,13.372-9.982,9.031,0,18.234,3.07,28.061,9.372l20.171-27.906c-13.03-7.018-34.759-12.694-49.323-12.694-29.558,0-72.316,16.429-72.316,46.126,0,19.406,30.232,32.029,49.3,35.432L91.616,425.1c4.44,0.828,11.875,2.214,11.875,10.037,0,7.487-7.963,10.9-15.359,10.9-10.442,0-21.4-4.415-32.552-13.107l-0.994-.779Z" style="fill:none;clip-rule:evenodd"/></clipPath><clipPath id="d1fc8294-80f4-45ec-9e70-c0278911e5a2" transform="translate(14.78 12.468)"><polygon points="90.952 205.106 67.505 170.353 52.082 203.922 0.22 117.837 40.906 103.08 55.617 163.698 70.304 126.919 88.389 165.517 98.02 102.186 140.423 105.729 90.952 205.106" style="fill:none;clip-rule:evenodd"/></clipPath><clipPath id="63393643-0b62-4e82-9d8f-892770380a51" transform="translate(14.78 12.468)"><path d="M219.9,114.98l54.12-8.521c22.047,0,40.722,9.372,40.722,34.111,0,14.837-5.719,21.092-18.932,25.522v0.776a24.806,24.806,0,0,1,5.964,5.866l21.25,31.894H282.052l-15.544-31.505h-0.651v31.505H231.111Zm45.96,34.968h2.454c5.84,0,11.67-.919,11.67-8.207,0-7.549-5.314-8.466-11.4-8.466h-2.724v16.673Z" style="fill:none;clip-rule:evenodd"/></clipPath><clipPath id="490eb373-621b-4c3b-bfb4-64a66d274dad" transform="translate(14.78 12.468)"><path d="M227.08,109.642l54.133-8.522c22.036,0,40.711,9.372,40.711,34.111,0,14.843-5.706,21.1-18.932,25.522v0.778a25.067,25.067,0,0,1,5.964,5.86l21.251,31.9H289.25l-15.557-31.512h-0.651v31.512H238.295Zm45.962,34.968h2.467c5.828,0,11.667-.913,11.667-8.207,0-7.548-5.324-8.459-11.409-8.459h-2.724V144.61Z" style="fill:none;clip-rule:evenodd"/></clipPath><clipPath id="fd354b86-6010-4373-bb1f-64f696941366" transform="translate(14.78 12.468)"><path d="M335.309,202.024H287.557l-11.791-23.865v23.865H235.891L224.05,107.35,280.8,98.416h0.1c27.962,0,43.752,13.426,43.752,36.816,0,13.827-4.81,21.6-16.9,26.661a21.82,21.82,0,0,1,3.448,3.957Zm-44.367-5.471H325.1l-18.417-27.642a20.041,20.041,0,0,0-4.785-4.757l-1.631-1.294v-4.079l1.865-.629c12.76-4.265,17.066-10.05,17.066-22.922,0-27.3-23.8-31.375-37.986-31.375l-51.089,8.077,10.576,84.62h29.619V165.042h5.068Zm-15.434-49.208h-5.189V125.207h5.447c4.233,0,14.135,0,14.135,11.194C289.9,147.345,279.066,147.345,275.508,147.345Zm0.257-16.667v11.19c7.337-.043,8.686-1.879,8.686-5.466C284.452,131.965,282.5,130.684,275.765,130.678Z" style="fill:none;clip-rule:evenodd"/></clipPath><clipPath id="346bdd77-c389-4224-a924-a4dd81d15b13" transform="translate(14.78 12.468)"><path d="M224.069,156.453c0,31.512-24.243,50.391-54.059,50.391s-54.046-18.879-54.046-50.391c0-30.851,24.367-50.908,54.046-50.908s54.059,20.057,54.059,50.908m-72.34.517c0,11.2,7.522,18.879,18.281,18.879s18.283-7.677,18.283-18.879c0-10.413-7.007-19.138-18.283-19.138s-18.281,8.725-18.281,19.138" style="fill:none;clip-rule:evenodd"/></clipPath><clipPath id="bb6bd2b6-7689-44cb-b9be-38961fe6553a" transform="translate(14.78 12.468)"><path d="M233.57,153.52c0,31.51-24.231,50.391-54.046,50.391s-54.058-18.881-54.058-50.391c0-30.853,24.367-50.9,54.058-50.9s54.046,20.049,54.046,50.9m-72.326.524c0,11.2,7.52,18.879,18.28,18.879s18.283-7.677,18.283-18.879c0-10.42-7.007-19.14-18.283-19.14s-18.28,8.72-18.28,19.14" style="fill:none;clip-rule:evenodd"/></clipPath><clipPath id="552dcb39-fcbf-4696-962c-1b921ef00c5d" transform="translate(14.78 12.468)"><path d="M179.525,206.646c-33.434,0-56.783-21.843-56.783-53.126,0-31.08,23.877-53.638,56.783-53.638S236.3,122.44,236.3,153.52c0,31.283-23.338,53.126-56.772,53.126m0-101.293c-29.741,0-51.334,20.26-51.334,48.167,0,28.055,21.115,47.655,51.334,47.655s51.323-19.6,51.323-47.655c0-27.907-21.582-48.167-51.323-48.167m0,70.307c-12.367,0-21.006-8.887-21.006-21.616,0-12.675,8.835-21.874,21.006-21.874s21.005,9.2,21.005,21.874c0,12.729-8.637,21.616-21.005,21.616m0-38.019c-9.153,0-15.557,6.747-15.557,16.4s6.256,16.143,15.557,16.143,15.559-6.488,15.559-16.143-6.406-16.4-15.559-16.4" style="fill:none;clip-rule:evenodd"/></clipPath><clipPath id="a9bf1caa-4648-4446-a78f-fc351b707280" transform="translate(14.78 12.468)"><path d="M513.656,170.7l1.8,1.424c6.319,4.93,13.937,8.947,22.07,8.947,3.484,0,9.044-1.417,9.044-5.836s-4.649-4.793-7.876-5.446l-7.1-1.3c-13.816-2.457-36.82-11.917-36.82-27.221,0-23.223,32.427-34.9,53.605-34.9,11.115,0,28.513,4.56,38.083,10.394L569.689,139.97c-6.073-4.16-12.907-7.395-20.538-7.395-3.093,0-7.62,1.159-7.62,5.176,0,3.636,4.406,4.154,7.1,4.806l8.012,1.813c14.98,3.376,33.176,12.4,33.176,29,0,23.353-28.527,33.908-49.58,33.908-12.27,0-45.434-10.591-56.4-16.168Z" style="fill:none;clip-rule:evenodd"/></clipPath><clipPath id="413a12cf-30b0-43ca-8ebe-87afa2b01e03" transform="translate(14.78 12.468)"><path d="M521.09,168.979l1.8,1.43c6.33,4.922,13.95,8.947,22.085,8.947,3.484,0,9.042-1.424,9.042-5.836s-4.662-4.8-7.877-5.452l-7.1-1.3c-13.827-2.463-36.831-11.923-36.831-27.229,0-23.209,32.44-34.9,53.616-34.9,11.106,0,28.515,4.56,38.072,10.4l-16.758,23.193c-6.074-4.154-12.921-7.395-20.539-7.395-3.093,0-7.621,1.17-7.621,5.188,0,3.628,4.394,4.152,7.106,4.8l8.012,1.824c14.98,3.365,33.164,12.391,33.164,28.991,0,23.354-28.515,33.908-49.568,33.908-12.27,0-45.434-10.586-56.415-16.168Z" style="fill:none;clip-rule:evenodd"/></clipPath><clipPath id="3a0ceb84-dd64-4043-96ce-a352251b652d" transform="translate(14.78 12.468)"><path d="M547.691,208.292c-12.539,0-46.047-10.561-57.641-16.464l-4.124-2.09L521.2,165.584l3.385,2.674c7.117,5.539,13.988,8.361,20.392,8.361,1.975,0,6.319-.783,6.319-3.1,0-1.275-.675-1.83-4.676-2.57l-8.073-1.484c-15.693-2.8-39.065-13.081-39.065-29.923,0-24.56,32.723-37.635,56.342-37.635,12.024,0,29.741,4.842,39.5,10.8l2.527,1.546L577.787,142l-2.184-1.5c-6.9-4.722-12.931-6.92-19.005-6.92-0.049,0-4.9.03-4.9,2.452,0,0.868,1.424,1.343,4.036,1.916l8.956,2.04c8.269,1.855,35.287,9.637,35.287,31.659C599.983,198.346,567.911,208.292,547.691,208.292ZM496.81,188.912c13.5,5.712,40.5,13.907,50.881,13.907,19.46,0,46.845-9.674,46.845-31.172,0-14.264-16.037-22.946-31.043-26.317l-8.906-2.033c-2.712-.586-8.332-1.817-8.332-7.264,0-5.479,5.2-7.925,10.344-7.925,6.428,0,12.943,2.1,19.85,6.414l13.435-18.589c-9.274-4.763-24.058-8.553-34.058-8.553-20.8,0-50.893,11.456-50.893,32.164,0,12.67,20.22,21.974,34.586,24.531l8.111,1.49c3.178,0.592,9.116,1.7,9.116,7.955,0,5.891-6.1,8.572-11.766,8.572-7.643,0-15.631-3.2-23.753-9.52l-0.258-.2Z" style="fill:none;clip-rule:evenodd"/></clipPath><clipPath id="1415c4a0-e953-4e24-9850-b00e59ba333e" transform="translate(14.78 12.468)"><polygon points="513.177 97.497 493.46 120.486 488.099 118.237 499.189 87.915 513.177 97.497" style="fill:none;clip-rule:evenodd"/></clipPath><clipPath id="73e574c1-068c-4389-8f16-cfbf87ddfbd9" transform="translate(14.78 12.468)"><polygon points="520.894 95.556 501.189 118.545 495.829 116.302 506.919 85.981 520.894 95.556" style="fill:none;clip-rule:evenodd"/></clipPath><clipPath id="f492fa39-0e53-4b7e-a642-4a08c9e2ff81" transform="translate(14.78 12.468)"><path d="M501.962,121.836l-9.593-4.011,13.19-36.083,19.4,13.278Zm-2.674-7.055,1.116,0.475,16.44-19.164-8.574-5.872Z" style="fill:none;clip-rule:evenodd"/></clipPath><clipPath id="99c456ac-d29d-4dc1-aa49-fc688939e022" transform="translate(14.78 12.468)"><polygon points="100.634 203.448 76.119 167.1 59.985 202.21 5.742 112.169 48.293 96.733 63.678 160.137 79.039 121.669 97.946 162.048 108.032 95.797 152.385 99.513 100.634 203.448" style="fill:none;clip-rule:evenodd"/></clipPath><clipPath id="d97c347d-de37-4ed6-9bbd-cfe9514a06e9" transform="translate(14.78 12.468)"><path d="M100.988,208.859L76.573,172.652,60.3,208.038,1.681,110.726l48.55-17.6,14.084,58.068,14.516-36.379,17.779,37.938,9.115-59.892,50.893,4.263Zm-25.323-47.31,24.611,36.489L148.139,101.9l-37.789-3.168L99.3,171.345,79.235,128.528,63.052,169.084,46.366,100.343,9.79,113.61,59.653,196.38Z" style="fill:none;clip-rule:evenodd"/></clipPath><clipPath id="f4aeb8f7-9e29-464d-b8e0-2dbb10a30816" transform="translate(14.78 12.468)"><path d="M449.021,116.53c-19.692-5.674-56.941-5.815-71.137-5.815v0.141l13.765,93.393s20.147-1.565,35.937-4.628c34.331-6.55,64.759-23.426,64.759-46.274,0-14.548-18.258-29.688-43.324-36.818M420.557,169.4c-4.148.8-9.437,1.214-9.437,1.214L407.514,146.1v-0.043c3.729,0,13.5.043,18.675,1.529,6.577,1.873,11.373,5.847,11.373,9.667,0,6-7.988,10.431-17,12.145" style="fill:none;clip-rule:evenodd"/></clipPath><clipPath id="f6fc94cd-939a-4a5c-9a1a-aa5e86f7637f" transform="translate(14.78 12.468)"><path d="M456.113,112.648c-19.7-5.674-56.942-5.817-71.139-5.817v0.143l13.754,93.393s20.146-1.565,35.937-4.622c34.342-6.55,64.771-23.433,64.771-46.28,0-14.548-18.258-29.682-43.323-36.818m-28.466,52.868c-4.147.8-9.435,1.214-9.435,1.214l-3.62-24.519v-0.036c3.731,0,13.509.036,18.676,1.535,6.575,1.867,11.373,5.841,11.373,9.661,0,6-7.988,10.432-16.993,12.145" style="fill:none;clip-rule:evenodd"/></clipPath><clipPath id="92f675d8-8212-4418-aa72-60f1b0b994fa" transform="translate(14.78 12.468)"><path d="M396.409,203.294l-14.133-95.92v-2.736l2.7-.541c12.686,0,51.322,0,71.886,5.92,26.661,7.591,45.3,23.815,45.3,39.449,0,26.717-36.084,43.076-66.991,48.974-15.742,3.044-36.024,4.646-36.232,4.658Zm-8.305-93.72,12.943,87.848c5.889-.524,20.908-2,33.1-4.363,31.139-5.939,62.56-21.72,62.56-43.593,0-12.989-17.384-27.364-41.346-34.18C436.973,109.987,402.937,109.6,388.1,109.574Zm27.789,60.084-4-27.044v-2.736l2.7-.438c3.412,0,13.767,0,19.424,1.639,7.975,2.262,13.348,7.2,13.348,12.293,0,8.244-9.925,13.069-19.214,14.837-4.246.821-9.5,1.232-9.729,1.251Zm1.841-24.722,2.8,18.824c1.85-.2,4.4-0.511,6.6-0.93,8.565-1.633,14.786-5.607,14.786-9.458,0-2.1-3.6-5.379-9.4-7.025C429.66,145.515,424.69,145.041,417.734,144.936Z" style="fill:none;clip-rule:evenodd"/></clipPath><clipPath id="1a52ba25-3467-4058-bd64-102db3457fb5" transform="translate(14.78 12.468)"><polygon points="353.872 186.225 386.299 174.086 384.398 198.357 332.892 207.932 322.72 110.873 366.596 105.765 353.872 186.225" style="fill:none;clip-rule:evenodd"/></clipPath><clipPath id="5a7d0c7c-c7d0-42c9-85ce-45c3c9c4566c" transform="translate(14.78 12.468)"><polygon points="360.965 181.635 393.381 169.503 391.466 193.768 339.984 203.349 329.811 106.289 373.676 101.176 360.965 181.635" style="fill:none;clip-rule:evenodd"/></clipPath><clipPath id="d006cdcf-c148-4790-b562-7d283ac27543" transform="translate(14.78 12.468)"><path d="M337.579,206.585l-10.761-102.7,50.109-5.841-12.54,79.393,32.048-12-2.418,30.643ZM332.8,108.7l9.584,91.416,46.524-8.658,1.411-17.887L357.54,185.839l12.872-81.526Z" style="fill:none;clip-rule:evenodd"/></clipPath><clipPath id="1cadb7a1-8785-4985-b567-361b47dfff04" transform="translate(14.78 12.468)"><polygon points="155.133 226.77 239.363 215.852 239.363 243.209 208.825 243.209 208.825 252.774 236.725 252.774 236.725 278.808 208.825 278.808 208.825 288.64 240.429 288.64 240.429 315.997 185.242 314.26 155.133 226.77" style="fill:none;clip-rule:evenodd"/></clipPath><clipPath id="3f2205b9-373a-45b7-86ef-6ea163bce829" transform="translate(14.78 12.468)"><polygon points="162.752 225.001 246.983 214.096 246.983 241.454 216.444 241.454 216.444 251.012 244.344 251.012 244.344 277.044 216.444 277.044 216.444 286.877 248.049 286.877 248.049 314.236 192.863 312.498 162.752 225.001" style="fill:none;clip-rule:evenodd"/></clipPath><clipPath id="8f42c44a-9de1-4d07-952d-0706fab5f8d2" transform="translate(14.78 12.468)"><path d="M250.772,317.063L190.9,315.179l-31.816-92.462,90.634-11.739V244.2H219.166v4.073h27.9v31.518h-27.9v4.349h31.605v32.927Zm-55.947-7.244,50.487,1.587V289.619H213.707V274.3h27.9V253.753h-27.9v-15.04h30.551v-21.5l-77.824,10.074Z" style="fill:none;clip-rule:evenodd"/></clipPath><clipPath id="705faf51-6515-4dd4-a804-6c1587dd3cd7" transform="translate(14.78 12.468)"><path d="M73.85,229.186l55.421-8.725c22.562,0,41.692,9.593,41.692,34.93,0,15.194-5.853,21.6-19.387,26.125v0.8a25.464,25.464,0,0,1,6.112,6l21.764,32.656H137.516l-15.938-32.256h-0.664v32.256H85.333Zm47.064,35.806h2.516c5.975,0,11.949-.933,11.949-8.4,0-7.737-5.447-8.661-11.679-8.661h-2.786v17.062Z" style="fill:none;clip-rule:evenodd"/></clipPath><clipPath id="cd4268d7-d2ae-432f-9410-2b4a8e16e5aa" transform="translate(14.78 12.468)"><path d="M77.984,222.106l55.421-8.737c22.564,0,41.679,9.6,41.679,34.93,0,15.2-5.84,21.6-19.386,26.137v0.8a25.087,25.087,0,0,1,6.111,6l21.766,32.661H141.637L125.7,281.628h-0.662v32.267H89.467Zm47.053,35.8h2.528c5.975,0,11.949-.936,11.949-8.41,0-7.723-5.46-8.658-11.692-8.658h-2.786v17.068Z" style="fill:none;clip-rule:evenodd"/></clipPath><clipPath id="3f291ea9-33e2-4f93-aefc-131053d6eede" transform="translate(14.78 12.468)"><path d="M188.677,316.639H139.944l-12.171-24.655v24.655H87.05L74.941,219.806l58.047-9.15h0.1c28.589,0,44.735,13.729,44.735,37.643,0,14.161-4.932,22.108-17.349,27.285a22.094,22.094,0,0,1,3.6,4.109Zm-45.347-5.484h35.126l-18.918-28.4a20.767,20.767,0,0,0-4.933-4.914l-1.631-1.273v-4.111l1.865-.624c13.092-4.385,17.521-10.325,17.521-23.536,0-28.006-24.4-32.189-38.957-32.189L81.014,224.4l10.859,86.758h30.441v-32.27h5.079Zm-15.766-50.51h-5.251V238.1h5.509c4.319,0,14.416,0,14.416,11.4C142.238,260.646,131.575,260.646,127.565,260.646Zm0.209-17.067v11.583c7.605-.037,9.006-1.94,9.006-5.668,0-4.59-2-5.915-8.957-5.915h-0.049Z" style="fill:none;clip-rule:evenodd"/></clipPath><clipPath id="272c7e4c-f1a1-4307-b0ba-0a81c91ed906" transform="translate(14.78 12.468)"><path d="M97.321,271.042c-0.245,13.456-10.872,43.9-46.244,48.278-28.66,3.549-49.9-18.054-49.9-47.056,0-29.991,18.454-52.567,48.073-52.567,18.882,0,38.931,7.8,46.845,25.066l-35.9,14.054c-3.288-8.81-28.086-28.018-31.631,6.723-2.443,23.831,17.215,64.36,43.8,18.329l-27.987,2.449-5.472-22.609Z" style="fill:none;clip-rule:evenodd"/></clipPath><clipPath id="4f0a7e47-7774-4f33-8df3-731110f1a6d0" transform="translate(14.78 12.468)"><path d="M102.867,266.391c-0.232,13.461-10.859,43.9-46.232,48.277-28.673,3.555-49.9-18.054-49.9-47.056,0-29.985,18.454-52.567,48.071-52.567,18.883,0,38.931,7.807,46.856,25.066L65.751,254.158c-3.287-8.81-28.1-28.01-31.631,6.736-2.441,23.822,17.215,64.353,43.8,18.325l-27.987,2.446-5.485-22.609Z" style="fill:none;clip-rule:evenodd"/></clipPath><clipPath id="d8090bcf-ece5-443f-81b7-9c33bf30b3fb" transform="translate(14.78 12.468)"><path d="M50.526,317.792C24,317.792,4,296.219,4,267.61,4,235.045,24.894,212.3,54.807,212.3c17.938,0,40.319,7.006,49.337,26.663l1.214,2.643L64.169,257.721l-0.97-2.6c-1.471-3.936-9.2-11.5-15.925-11.5-7.154,0-9.62,9.545-10.442,17.549-1.128,11.012,2.81,25,8.958,31.85,2.663,2.957,5.532,4.454,8.538,4.454,4.05,0,10.393-2.746,18.428-15.053L47.838,284.6l-6.969-28.75,64.771,8.128L105.6,266.44c-0.319,17.41-13.79,46.637-48.635,50.951a52.8,52.8,0,0,1-6.441.4m4.281-100.006C27.679,217.786,9.46,237.8,9.46,267.61c0,27.948,20.061,47.686,46.831,44.333,32.773-4.049,42.368-31.012,43.68-43.155l-51.924-6.52,3.987,16.465,30.883-2.7-2.639,4.56c-8.563,14.842-17.3,22.366-25.95,22.366-4.551,0-8.906-2.168-12.588-6.266-7.177-8-11.632-23.506-10.342-36.084,1.9-18.571,9.679-22.471,15.876-22.471,7.778,0,16.232,6.8,19.79,12.57l30.784-12.053c-8.686-15.324-27.642-20.87-43.041-20.87" style="fill:none;clip-rule:evenodd"/></clipPath><clipPath id="29d2f400-a0c2-40fd-b112-6610fb874e7b" transform="translate(14.78 12.468)"><path d="M462.737,280.317l1.854,1.454c6.477,5.06,14.269,9.166,22.6,9.166,3.57,0,9.263-1.454,9.263-5.982,0-4.511-4.761-4.911-8.062-5.571l-7.274-1.33c-14.16-2.514-37.716-12.205-37.716-27.875,0-23.777,33.212-35.743,54.893-35.743,11.385,0,29.2,4.676,38.991,10.647L520.122,248.84c-6.221-4.25-13.215-7.572-21.029-7.572-3.167,0-7.8,1.2-7.8,5.312,0,3.72,4.5,4.25,7.277,4.911l8.208,1.862c15.336,3.451,33.962,12.694,33.962,29.7,0,23.9-29.213,34.716-50.759,34.716-12.563,0-46.524-10.84-57.762-16.551Z" style="fill:none;clip-rule:evenodd"/></clipPath><clipPath id="a60f41d8-6e5a-4400-bc66-231f99f0105f" transform="translate(14.78 12.468)"><path d="M470.358,278.547l1.839,1.466c6.491,5.047,14.294,9.169,22.625,9.169,3.57,0,9.252-1.467,9.252-5.982s-4.761-4.917-8.073-5.577l-7.264-1.33c-14.159-2.52-37.716-12.215-37.716-27.877,0-23.777,33.225-35.738,54.905-35.738,11.374,0,29.2,4.665,38.993,10.642l-17.177,23.758c-6.209-4.257-13.215-7.572-21.018-7.572-3.178,0-7.8,1.2-7.8,5.312,0,3.72,4.491,4.244,7.264,4.911l8.207,1.86c15.337,3.455,33.962,12.694,33.962,29.7,0,23.9-29.2,34.713-50.757,34.713-12.564,0-46.526-10.844-57.764-16.551Z" style="fill:none;clip-rule:evenodd"/></clipPath><clipPath id="00fa5803-afb9-4e89-a133-4e1fc51a1b3e" transform="translate(14.78 12.468)"><path d="M497.6,318.747c-12.811,0-47.1-10.809-58.992-16.848l-4.123-2.094,35.986-24.66,3.424,2.716c7.311,5.688,14.365,8.579,20.931,8.579,2.048,0,6.528-.813,6.528-3.239,0-1.352-.7-1.928-4.872-2.7l-8.233-1.516c-16.05-2.857-39.951-13.366-39.951-30.574,0-25.109,33.472-38.481,57.63-38.481,12.319,0,30.441,4.955,40.4,11.042l2.541,1.548-20.478,28.318-2.184-1.5c-7.068-4.842-13.263-7.1-19.484-7.1-0.049,0-5.068.03-5.068,2.57,0,0.838,1.007,1.324,4.148,2.014l9.189,2.084c8.467,1.909,36.1,9.883,36.1,32.375C551.089,308.579,518.27,318.747,497.6,318.747Zm-52.232-19.768c13.8,5.855,41.58,14.285,52.232,14.285,19.937,0,48.033-9.92,48.033-31.972,0-14.637-16.453-23.558-31.838-27.028l-9.154-2.076c-2.957-.648-8.441-1.849-8.441-7.369,0-5.563,5.289-8.055,10.527-8.055,6.589,0,13.264,2.165,20.342,6.595l13.828-19.151c-9.484-4.893-24.686-8.787-34.968-8.787-21.323,0-52.17,11.75-52.17,33,0,13.008,20.737,22.552,35.46,25.177l8.258,1.516c3.263,0.6,9.337,1.724,9.337,8.091,0,5.995-6.209,8.723-11.987,8.723-7.8,0-15.976-3.277-24.294-9.74l-0.3-.235Z" style="fill:none;clip-rule:evenodd"/></clipPath><clipPath id="a5e1f3b2-c4be-4252-83b4-0350a22bc2c2" transform="translate(14.78 12.468)"><path d="M270.085,312.234l-40.93,3.35,42.61-99.839,33.41-1.681L348.99,315.832h-37.2l-3.216-12.108L277.03,292.818Zm31.741-26.009-3.51-22.687c-1.018-4.128-1.658-8.369-2.307-12.5h-1.288l-12.1,29.3Z" style="fill:none;clip-rule:evenodd"/></clipPath><clipPath id="f8d84c52-226a-47ab-874c-554384c6bd63" transform="translate(14.78 12.468)"><path d="M277.483,309.714l-40.93,3.35,42.588-99.837,33.421-1.682,43.814,101.761H319.187L315.971,301.2l-31.555-10.9Zm31.741-26.009-3.51-22.687c-1.018-4.128-1.667-8.376-2.307-12.5h-1.286l-12.111,29.31Z" style="fill:none;clip-rule:evenodd"/></clipPath><clipPath id="698840aa-a587-4917-a726-b11112255007" transform="translate(14.78 12.468)"><path d="M232.259,316.165L277.3,210.577l37.018-1.867,46.2,107.337H317.089l-3.374-12.729-27.642-9.544L279.458,312.3Zm89.027-5.6h30.931L310.807,214.38l-29.828,1.5-40.132,94.089,34.66-2.839,7.239-20.3,35.5,12.253Zm-8.7-22.965-26.244-8.023,13.963-33.8h5.434l0.368,2.324c0.638,4.188,1.275,8.312,2.257,12.25Zm-18.9-11.51,12.172,3.723-2.848-18.375c-0.416-1.7-.785-3.451-1.117-5.227Z" style="fill:none;clip-rule:evenodd"/></clipPath><clipPath id="f52ab6e1-a4ad-43ee-88a2-2e04a7845e67" transform="translate(14.78 12.468)"><polygon points="353.627 226.77 437.856 215.852 437.856 243.209 407.319 243.209 407.319 252.774 435.219 252.774 435.219 278.808 407.319 278.808 407.319 288.64 438.924 288.64 438.924 315.997 383.736 314.26 353.627 226.77" style="fill:none;clip-rule:evenodd"/></clipPath><clipPath id="002b6fa4-1c4a-4968-8a09-707a2ace7ce7" transform="translate(14.78 12.468)"><polygon points="361.245 225.001 445.476 214.096 445.476 241.454 414.936 241.454 414.936 251.012 442.837 251.012 442.837 277.044 414.936 277.044 414.936 286.877 446.543 286.877 446.543 314.236 391.356 312.498 361.245 225.001" style="fill:none;clip-rule:evenodd"/></clipPath><clipPath id="43f84ad8-a097-47f9-937e-5e4212a9889f" transform="translate(14.78 12.468)"><path d="M449.265,317.063l-59.872-1.884-31.816-92.462,90.634-11.739V244.2H417.66v4.073h27.913v31.518H417.66v4.349h31.605v32.927Zm-55.947-7.244,50.487,1.587V289.619H412.2V274.3h27.913V253.753H412.2v-15.04h30.552v-21.5l-77.825,10.074Z" style="fill:none;clip-rule:evenodd"/></clipPath><clipPath id="84f31b31-42d4-464c-86c6-b3bae73883f9" transform="translate(14.78 12.468)"><polygon points="352.289 308.923 327.565 298.991 343.394 239.377 322.622 232.427 326.905 217.171 395.809 226.462 380.974 250.308 361.909 244.313 352.289 308.923" style="fill:none;clip-rule:evenodd"/></clipPath><clipPath id="b9da6167-ca90-4272-b717-d4239b09b0fe" transform="translate(14.78 12.468)"><polygon points="359.222 305.935 334.487 296.009 350.313 236.401 329.543 229.438 333.824 214.182 402.741 223.485 387.897 247.326 368.828 241.336 359.222 305.935" style="fill:none;clip-rule:evenodd"/></clipPath><clipPath id="eb00b3a6-7563-4b05-bba4-d3ac858f8e08" transform="translate(14.78 12.468)"><path d="M361.406,309.769l-30.183-12.115,15.789-59.466L326.2,231.213l5.644-20.063,75.445,10.186-18.2,29.237-18.049-5.663Zm-23.656-15.407,19.274,7.741,9.571-64.342,20.108,6.317,11.472-18.441-62.366-8.423-2.931,10.45,20.735,6.95Z" style="fill:none;clip-rule:evenodd"/></clipPath><clipPath id="fd3a8d77-1463-4d94-98de-3b0cd33b31c2" transform="translate(14.78 12.468)"><polygon points="588.4 311.704 561.788 310.501 557.188 248.977 535.299 249.277 534.341 233.457 602.461 219.452 596.266 246.87 576.291 247.516 588.4 311.704" style="fill:none;clip-rule:evenodd"/></clipPath><clipPath id="a8352705-f95a-49af-a0cd-0e99cbd5a8f5" transform="translate(14.78 12.468)"><polygon points="593.958 306.601 567.346 305.392 562.757 243.875 540.857 244.178 539.9 228.354 608.019 214.349 601.825 241.762 581.862 242.415 593.958 306.601" style="fill:none;clip-rule:evenodd"/></clipPath><clipPath id="90a04b22-5a2c-4c73-b702-3f740080b791" transform="translate(14.78 12.468)"><path d="M597.284,309.5l-32.478-1.473-4.576-61.369-21.938.3-1.264-20.808,74.6-15.337-7.607,33.624-18.883.616Zm-27.4-6.733,20.746,0.943-12.047-63.929,21.04-.69,4.8-21.2-61.653,12.673,0.651,10.839,21.864-.3Z" style="fill:none;clip-rule:evenodd"/></clipPath><clipPath id="418c37c7-8c40-40d5-b181-7ea100390571" transform="translate(14.78 12.468)"><path d="M18.465,22.879c0-6.623-.122-11.178-0.466-16.384,1.289,0.117,2.882.3,4.823,0.3s3.532-.178,4.834-0.3c-0.356,5.206-.479,9.761-0.479,16.384v8.047c0,4.382.062,8.874,0.123,11.948A114.965,114.965,0,0,0,40.784,42.1a16.216,16.216,0,0,0-.232,2.668,13.382,13.382,0,0,0,.232,2.54c-2.111-.062-4.884-0.3-10.306-0.3-9.6,0-11.189.179-12.479,0.3,0.344-5.208.466-9.759,0.466-16.384V22.879Z" style="fill:none;clip-rule:evenodd"/></clipPath><clipPath id="9ca1f626-ec30-4937-9e00-f0e86f8b9448" transform="translate(14.78 12.468)"><path d="M53.335,33c0,6.384,2.465,11.239,7.89,11.239a10.988,10.988,0,0,0,7.239-2.662l0.711,0.536-1.3,3.309c-1.939,1.478-4.527,2.655-8.944,2.655-7.656,0-14.32-4.609-14.32-14.961,0-10.228,5.779-15.2,13.669-15.2,7.656,0,12.011,4.9,12.011,13.137A15.446,15.446,0,0,1,70.23,33h-16.9ZM62.4,30.334c-0.123-5.915-1.3-9.761-4.357-9.761-3.484,0-4.6,5.146-4.711,9.761H62.4Z" style="fill:none;clip-rule:evenodd"/></clipPath><clipPath id="16627fdd-6929-44c5-ace0-0b4bb0ae36ac" transform="translate(14.78 12.468)"><path d="M93.492,42.873H93.37c-2.173,3.192-5.18,5.207-8.884,5.207-5.889,0-9.19-3.316-9.19-10.882,0-4.03.234-6.865,0.234-9.939,0-2.49-.172-5.558-0.3-8.579a28.614,28.614,0,0,0,4.418.3,28.47,28.47,0,0,0,4.417-.3,149.719,149.719,0,0,0-.649,16.976c0,4.9,1.767,7.215,4.834,7.215,3.533,0,5.117-3.254,5.117-8.695V31.814c0-4.789-.111-8.991-0.466-13.132a36.9,36.9,0,0,0,4.417.3,37.693,37.693,0,0,0,4.417-.3c-0.355,4.141-.479,8.344-0.479,13.132v2.365c0,4.789.123,8.991,0.479,13.132-1.411-.117-2.761-0.3-4.184-0.3s-2.761.179-4.293,0.3Z" style="fill:none;clip-rule:evenodd"/></clipPath><clipPath id="f0cf7e88-954a-4305-97cb-8c04c5960813" transform="translate(14.78 12.468)"><path d="M109.038,23c0-7.752-.171-13.783-0.466-20.47a28.47,28.47,0,0,0,4.417.3,28.591,28.591,0,0,0,4.417-.3c-0.294,6.687-.479,12.718-0.479,27.864,0,1.065,0,1.3.3,1.3,0.649,0,5.006-5.207,11.08-13.015a21.682,21.682,0,0,0,2.761.3c0.894,0,1.827-.178,3.3-0.3-2.059,2.3-8.77,8.929-10.415,10.889,0.943,1.527,9.6,15.551,10.589,17.74-1.645-.117-3.118-0.3-4.652-0.3s-3.005.179-4.466,0.3c-1.068-1.838-7.484-13.723-8.367-13.723-0.417,0-.417.178-0.417,5.854a62.933,62.933,0,0,0,.417,7.869c-1.411-.117-2.822-0.3-4.244-0.3s-2.822.179-4.233,0.3c0.3-6.68.466-12.719,0.466-20.47V23Z" style="fill:none;clip-rule:evenodd"/></clipPath><clipPath id="3794e324-c481-4c73-83e6-c2531b5bd127" transform="translate(14.78 12.468)"><path d="M138.312,22.053a17.71,17.71,0,0,1,11.006-4.141c6.245,0,10.772,2.662,10.772,9.644,0,5.026-.171,9.161-0.171,13.426,0,3.728,1.067,4.079,3.484,4.079v1.422a10.564,10.564,0,0,1-5.423,1.6c-2.884,0-4.65-1.657-5.6-4.319-1.828,2.489-4.061,4.319-7.656,4.319-5.949,0-8.418-3.962-8.418-7.75,0-5.139,3.412-7.334,8.713-8.639,6.6-1.6,7.177-2.071,7.177-4.2,0-2.835-2.111-5.146-5.644-5.146-2.712,0-5.889,1.6-7.067,3.254h-0.419Zm14.012,9.877c-3.348,1.892-7.779,1.6-7.779,7.572,0,2.9,1.3,4.492,3.363,4.492,2.59,0,4.368-2.008,4.368-5.853C152.274,34.714,152.323,33.292,152.323,31.93Z" style="fill:none;clip-rule:evenodd"/></clipPath><clipPath id="adae9ec2-e865-40cd-9801-53627819b132" transform="translate(14.78 12.468)"><path d="M175.882,33c0,6.384,2.478,11.239,7.888,11.239a10.961,10.961,0,0,0,7.239-2.662l0.711,0.536-1.288,3.309c-1.952,1.478-4.538,2.655-8.957,2.655-7.656,0-14.305-4.609-14.305-14.961,0-10.228,5.766-15.2,13.656-15.2,7.654,0,12.011,4.9,12.011,13.137A18.907,18.907,0,0,1,192.788,33H175.882Zm9.066-2.662c-0.109-5.915-1.286-9.761-4.355-9.761-3.472,0-4.589,5.146-4.711,9.761h9.066Z" style="fill:none;clip-rule:evenodd"/></clipPath><clipPath id="935625f6-2691-43f6-86c1-607761e11335" transform="translate(14.78 12.468)"><path d="M205.561,23.119h0.122c2.185-3.192,5.178-5.206,8.884-5.206,3.544,0,6.134,2.014,7.545,5.618,2.356-3.6,5.657-5.618,9.129-5.618,5.889,0,9.189,3.314,9.189,10.882,0,4.03-.245,6.869-0.245,9.937,0,2.49.183,5.558,0.3,8.579a33.024,33.024,0,0,0-8.835,0,146.724,146.724,0,0,0,.651-16.976c0-4.9-1.767-7.215-4.712-7.215-3.827,0-4.65,3.962-4.65,6.8V34.18c0,4.787.123,8.99,0.479,13.131a37.5,37.5,0,0,0-4.429-.3,38.455,38.455,0,0,0-4.417.3c0.368-4.141.479-8.344,0.479-13.131V30.569c0-4.733-1.007-7.45-4.246-7.45-3.533,0-5.117,3.254-5.117,8.694V34.18c0,4.787.123,8.99,0.466,13.131a37.041,37.041,0,0,0-4.417-.3,38.056,38.056,0,0,0-4.417.3c0.356-4.141.479-8.344,0.479-13.131V31.813c0-4.788-.123-8.991-0.479-13.132,1.424,0.119,2.773.3,4.184,0.3s2.773-.178,4.306-0.3Z" style="fill:none;clip-rule:evenodd"/></clipPath><clipPath id="7de5480c-c0d1-4ae0-8ba4-50e83aa7010b" transform="translate(14.78 12.468)"><path d="M251.62,2.835A4.621,4.621,0,0,1,256.257,7.5a4.644,4.644,0,1,1-9.287,0A4.631,4.631,0,0,1,251.62,2.835Zm-3.951,28.978c0-4.788-.123-8.991-0.466-13.132a37.677,37.677,0,0,0,4.417.3,36.881,36.881,0,0,0,4.417-.3c-0.355,4.141-.479,8.344-0.479,13.132V34.18c0,4.787.123,8.99,0.479,13.131a37.246,37.246,0,0,0-4.417-.3,38.056,38.056,0,0,0-4.417.3c0.343-4.141.466-8.344,0.466-13.131V31.813Z" style="fill:none;clip-rule:evenodd"/></clipPath><clipPath id="1d9e2bee-a864-4975-98cf-042816362edd" transform="translate(14.78 12.468)"><path d="M263.215,22.053a17.709,17.709,0,0,1,11.017-4.141c6.245,0,10.772,2.662,10.772,9.644,0,5.026-.171,9.161-0.171,13.426,0,3.728,1.056,4.079,3.472,4.079v1.422a10.56,10.56,0,0,1-5.423,1.6c-2.884,0-4.65-1.657-5.6-4.319-1.828,2.489-4.061,4.319-7.643,4.319-5.962,0-8.429-3.962-8.429-7.75,0-5.139,3.412-7.334,8.724-8.639,6.588-1.6,7.177-2.071,7.177-4.2,0-2.835-2.124-5.146-5.657-5.146-2.712,0-5.889,1.6-7.067,3.254h-0.406Zm14.023,9.877c-3.361,1.892-7.778,1.6-7.778,7.572,0,2.9,1.3,4.492,3.361,4.492,2.59,0,4.357-2.008,4.357-5.853C277.177,34.714,277.237,33.292,277.237,31.93Z" style="fill:none;clip-rule:evenodd"/></clipPath><clipPath id="e2df4621-820f-4027-a415-8aff0016b363" transform="translate(14.78 12.468)"><path d="M310.329,22.879c0-6.623-.123-11.178-0.468-16.384,3.473,0.062,7.007.3,10.478,0.3,5.766,0,10.723-.118,12.307-0.3a13.362,13.362,0,0,0-.232,2.484,15.65,15.65,0,0,0,.232,2.668c-4.478-.3-11.547-0.716-13.313-0.716-0.292,4.32-.292,8.583-0.292,12.9,5.128-.117,8.895-0.235,13.373-0.475a13.913,13.913,0,0,0-.3,2.662,17.164,17.164,0,0,0,.3,2.427c-4.478-.357-8.895-0.535-13.373-0.535v3.019c0,6.625.122,11.177,0.477,16.384-1.3-.117-2.884-0.3-4.834-0.3s-3.533.179-4.823,0.3c0.344-5.208.468-9.759,0.468-16.384V22.879Z" style="fill:none;clip-rule:evenodd"/></clipPath><clipPath id="3f0395f0-aba9-4941-8401-f6b5dbf9fa88" transform="translate(14.78 12.468)"><path d="M349.677,17.912c9.066,0,14.429,5.62,14.429,14.492,0,9.644-5.938,15.676-14.429,15.676-7.007,0-14.416-3.908-14.416-14.376,0-10.585,7.005-15.792,14.416-15.792m0.122,2.662c-3.593,0-5.828,4.258-5.828,13.193,0,6.618,1.411,11.651,5.768,11.651,3.655,0,5.655-4.731,5.655-13.9,0-6.8-1.7-10.944-5.6-10.944" style="fill:none;clip-rule:evenodd"/></clipPath><clipPath id="19838086-fdf0-4620-8694-74275d032845" transform="translate(14.78 12.468)"><path d="M387.428,42.873h-0.122c-2.184,3.192-5.178,5.207-8.895,5.207-5.878,0-9.179-3.316-9.179-10.882,0-4.03.234-6.865,0.234-9.939,0-2.49-.172-5.558-0.294-8.579a28.591,28.591,0,0,0,4.417.3,28.592,28.592,0,0,0,4.417-.3,149.713,149.713,0,0,0-.65,16.976c0,4.9,1.767,7.215,4.834,7.215,3.521,0,5.117-3.254,5.117-8.695V31.814c0-4.789-.123-8.991-0.466-13.132a36.7,36.7,0,0,0,4.417.3,37.421,37.421,0,0,0,4.4-.3c-0.343,4.141-.454,8.344-0.454,13.132v2.365c0,4.789.111,8.991,0.454,13.132-1.4-.117-2.761-0.3-4.172-0.3s-2.761.179-4.306,0.3Z" style="fill:none;clip-rule:evenodd"/></clipPath><clipPath id="1ac12bce-48c9-4494-bf4c-b0c2084d72a7" transform="translate(14.78 12.468)"><path d="M411.048,23.119h0.109c2.184-3.192,5.191-5.206,8.9-5.206,5.889,0,9.19,3.314,9.19,10.882,0,4.03-.247,6.869-0.247,9.937,0,2.49.185,5.558,0.307,8.579a33.107,33.107,0,0,0-8.846,0,146.781,146.781,0,0,0,.65-16.976c0-4.9-1.767-7.215-4.821-7.215-3.533,0-5.129,3.254-5.129,8.694V34.18c0,4.787.125,8.99,0.466,13.131a37.018,37.018,0,0,0-4.417-.3,38.482,38.482,0,0,0-4.417.3c0.355-4.141.479-8.344,0.479-13.131V31.813c0-4.788-.123-8.991-0.479-13.132,1.424,0.119,2.773.3,4.184,0.3s2.773-.178,4.308-0.3Z" style="fill:none;clip-rule:evenodd"/></clipPath><clipPath id="232bdf6b-5831-4e25-b37e-48a69c7ee516" transform="translate(14.78 12.468)"><path d="M461.572,26.847c0,7.75.183,13.777,0.466,20.463a28.459,28.459,0,0,0-4.417-.3,21.132,21.132,0,0,0-3.938.3,46.628,46.628,0,0,0,.466-4.849l-0.123-.118c-1.473,3.432-3.889,5.736-8.416,5.736-7.952,0-11.253-6.982-11.253-15.38,0-8.46,5.006-14.788,11.363-14.788a9.036,9.036,0,0,1,7.839,4.381h0.123c0-7.044-.185-13.075-0.479-19.755a29.405,29.405,0,0,0,4.417.3,29.278,29.278,0,0,0,4.417-.3c-0.283,6.68-.466,12.712-0.466,20.457v3.852ZM448.15,44.414c3.178,0,5.534-3.371,5.534-11.886,0-7.339-2.185-10.531-5.24-10.531-2.478,0-5.362,2.539-5.362,11.591C443.082,41.628,445.487,44.414,448.15,44.414Z" style="fill:none;clip-rule:evenodd"/></clipPath><clipPath id="79130572-3289-4e49-8067-0e654703ca37" transform="translate(14.78 12.468)"><path d="M468.284,22.053A17.709,17.709,0,0,1,479.3,17.913c6.246,0,10.774,2.662,10.774,9.644,0,5.026-.185,9.161-0.185,13.426,0,3.728,1.067,4.079,3.484,4.079v1.422a10.557,10.557,0,0,1-5.423,1.6c-2.882,0-4.649-1.657-5.581-4.319-1.828,2.489-4.074,4.319-7.67,4.319-5.938,0-8.416-3.962-8.416-7.75,0-5.139,3.41-7.334,8.712-8.639,6.6-1.6,7.19-2.071,7.19-4.2,0-2.835-2.122-5.146-5.656-5.146-2.712,0-5.889,1.6-7.068,3.254h-0.4ZM482.3,31.93c-3.35,1.892-7.767,1.6-7.767,7.572,0,2.9,1.3,4.492,3.363,4.492,2.576,0,4.355-2.008,4.355-5.853C482.246,34.714,482.3,33.292,482.3,31.93Z" style="fill:none;clip-rule:evenodd"/></clipPath><clipPath id="306957d2-ace5-411c-8306-fae767c15edd" transform="translate(14.78 12.468)"><path d="M512.932,18.978a7.568,7.568,0,0,0-.183,1.6,6.15,6.15,0,0,0,.183,1.479l-5.189-.117c-0.234,3.551-.417,10-0.417,13.186,0,8.226.6,9.588,3.3,9.588a4.473,4.473,0,0,0,2.712-.592v2.422a13.533,13.533,0,0,1-6.417,1.541c-4.894,0-7.484-3.2-7.484-9.169,0-4.554.419-11.948,0.419-16.921l-4.124.062a6.649,6.649,0,0,0,.172-1.479,8.2,8.2,0,0,0-.172-1.6l4.124,0.179c0-2.49-.062-4.265-0.236-7.277,2.7-1.122,5.412-2.367,8.062-3.666l0.589,0.413c-0.3,2.538-.528,6.92-0.528,10.469Z" style="fill:none;clip-rule:evenodd"/></clipPath><clipPath id="0e59e8cd-68f5-4d1b-b9d1-87cbe21f21d5" transform="translate(14.78 12.468)"><path d="M522.109,2.835A4.67,4.67,0,1,1,517.46,7.5,4.635,4.635,0,0,1,522.109,2.835Zm-3.938,28.978c0-4.788-.122-8.991-0.479-13.132a37.7,37.7,0,0,0,4.417.3,36.713,36.713,0,0,0,4.418-.3c-0.344,4.141-.468,8.344-0.468,13.132V34.18c0,4.787.123,8.99,0.468,13.131a37.074,37.074,0,0,0-4.418-.3,38.083,38.083,0,0,0-4.417.3c0.357-4.141.479-8.344,0.479-13.131V31.813Z" style="fill:none;clip-rule:evenodd"/></clipPath><clipPath id="31f92543-bf51-45ad-b2e8-916d1d1e417b" transform="translate(14.78 12.468)"><path d="M546.379,17.912c9.067,0,14.429,5.62,14.429,14.492,0,9.644-5.951,15.676-14.429,15.676-7.007,0-14.441-3.908-14.441-14.376,0-10.585,7.018-15.792,14.441-15.792m0.109,2.662c-3.593,0-5.828,4.258-5.828,13.193,0,6.618,1.411,11.651,5.78,11.651,3.642,0,5.643-4.731,5.643-13.9,0-6.8-1.705-10.944-5.6-10.944" style="fill:none;clip-rule:evenodd"/></clipPath><clipPath id="f9f56f9f-2e42-4056-9bd7-66639c889e78" transform="translate(14.78 12.468)"><path d="M573.812,23.119h0.122c2.185-3.192,5.18-5.206,8.9-5.206,5.889,0,9.19,3.314,9.19,10.882,0,4.03-.246,6.869-0.246,9.937,0,2.49.183,5.558,0.3,8.579a33.023,33.023,0,0,0-8.835,0,149.68,149.68,0,0,0,.651-16.976c0-4.9-1.767-7.215-4.834-7.215-3.522,0-5.118,3.254-5.118,8.694V34.18c0,4.787.123,8.99,0.468,13.131a37.075,37.075,0,0,0-4.418-.3,38.509,38.509,0,0,0-4.417.3c0.357-4.141.479-8.344,0.479-13.131V31.813c0-4.788-.122-8.991-0.479-13.132,1.424,0.119,2.773.3,4.184,0.3s2.773-.178,4.306-0.3Z" style="fill:none;clip-rule:evenodd"/></clipPath><clipPath id="e6b74bf2-381f-403d-923d-9cd8ada33d25" transform="translate(14.78 12.468)"><path d="M612.805,456.936v1.809H608.5v12.313h-2.124V458.746H602.1v-1.809h10.7Zm13.606,14.123-0.564-8.521c-0.073-1.1,0-2.446-.038-3.828H625.7c-0.344,1.314-.773,2.8-1.19,4.043l-2.934,8.128h-1.631l-2.859-8.342c-0.356-1.128-.713-2.514-1.032-3.828h-0.1c-0.038,1.351,0,2.551-.074,3.828l-0.528,8.521h-2.048l1.09-14.123h2.786l2.761,7.666c0.356,1.063.638,2.235,0.994,3.549h0.074c0.318-1.314.626-2.557,0.981-3.587l2.761-7.628H627.5l1.067,14.123h-2.159Z" style="fill:none;clip-rule:evenodd"/></clipPath></defs><title>wgs-logo</title><g style="clip-path:url(#b3a2790b-f617-404c-abb8-7b106b283e25)"><g style="clip-path:url(#43150eb8-3f94-4cfc-9fda-f4373273cabd)"><rect x="464.333" y="330.282" width="146.573" height="166.85" style="fill:#12100b"/></g></g><g style="clip-path:url(#68a6141e-5f85-4dcf-a3a8-04fbeb093f83)"><g style="clip-path:url(#43150eb8-3f94-4cfc-9fda-f4373273cabd)"><rect x="128.301" y="323.633" width="157.122" height="182.868" style="fill:#12100b"/></g></g><g style="clip-path:url(#df5b275e-86d7-4f4b-b501-8ab869ae8bcf)"><g style="clip-path:url(#43150eb8-3f94-4cfc-9fda-f4373273cabd)"><rect x="230.7" y="323.589" width="198.852" height="173.403" style="fill:#12100b"/></g></g><g style="clip-path:url(#e1ffb4ab-c9b7-47fc-a584-08ebeaec7c60)"><g style="clip-path:url(#43150eb8-3f94-4cfc-9fda-f4373273cabd)"><rect x="353.112" y="331.355" width="188.68" height="179.519" style="fill:#12100b"/></g></g><g style="clip-path:url(#e48fb9e9-91a6-4555-a0ca-b0b29e2beeed)"><g style="clip-path:url(#43150eb8-3f94-4cfc-9fda-f4373273cabd)"><rect x="474.75" y="327.868" width="146.56" height="166.842" style="fill:#ff5000"/></g></g><g style="clip-path:url(#1633a706-92f9-472e-8f70-e41c294d0a95)"><g style="clip-path:url(#43150eb8-3f94-4cfc-9fda-f4373273cabd)"><rect x="471.107" y="324.78" width="152.914" height="172.737" style="fill:#12100b"/></g></g><g style="clip-path:url(#78c931bb-e4c5-4f93-a174-cd204895c34b)"><g style="clip-path:url(#43150eb8-3f94-4cfc-9fda-f4373273cabd)"><rect x="138.718" y="321.218" width="157.122" height="182.855" style="fill:#ff5000"/></g></g><g style="clip-path:url(#d303f30c-d27b-44ca-9400-e36a39615371)"><g style="clip-path:url(#43150eb8-3f94-4cfc-9fda-f4373273cabd)"><rect x="135.834" y="317.551" width="163.085" height="189.354" style="fill:#12100b"/></g></g><g style="clip-path:url(#af4c77be-efe2-4cc7-ae8d-6ddd839aebd2)"><g style="clip-path:url(#43150eb8-3f94-4cfc-9fda-f4373273cabd)"><rect x="241.129" y="320.033" width="198.839" height="173.403" style="fill:#ff5000"/></g></g><g style="clip-path:url(#1ba5fdf9-593a-448a-9ed4-1d254a6c10b7)"><g style="clip-path:url(#43150eb8-3f94-4cfc-9fda-f4373273cabd)"><rect x="236.871" y="317.225" width="207.22" height="178.933" style="fill:#12100b"/></g></g><g style="clip-path:url(#b7a6df1c-1625-4666-afff-c13155a8fdfe)"><g style="clip-path:url(#43150eb8-3f94-4cfc-9fda-f4373273cabd)"><rect x="363.528" y="328.937" width="188.667" height="179.522" style="fill:#ff5000"/></g></g><g style="clip-path:url(#edadaa87-de15-4f45-bcf2-115872b38949)"><g style="clip-path:url(#43150eb8-3f94-4cfc-9fda-f4373273cabd)"><g style="isolation:isolate"><g style="clip-path:url(#fcb45a4a-f171-48d9-9f34-1236b4b9ee25)"><g style="clip-path:url(#d5d3d009-b919-41e0-bfc9-b68afcf7427e)"><g style="clip-path:url(#fcb45a4a-f171-48d9-9f34-1236b4b9ee25)"><rect x="359.32" y="325.518" width="197.096" height="186.404" style="fill:#12100b"/></g></g></g></g></g></g><g style="clip-path:url(#06168848-6cd1-4e4a-b01a-5c1c5b3d843f)"><g style="clip-path:url(#43150eb8-3f94-4cfc-9fda-f4373273cabd)"><rect x="2.345" y="338.63" width="178.311" height="171.215" style="fill:#12100b"/></g></g><g style="clip-path:url(#ea6e5e2c-443c-4b68-81e1-0367ebfa4cf3)"><g style="clip-path:url(#43150eb8-3f94-4cfc-9fda-f4373273cabd)"><rect x="12.772" y="336.221" width="178.312" height="171.221" style="fill:#ff5000"/></g></g><g style="clip-path:url(#bf927a24-e070-44c8-8ce9-e768924f168b)"><g style="clip-path:url(#43150eb8-3f94-4cfc-9fda-f4373273cabd)"><rect x="7.459" y="333.503" width="186.324" height="176.654" style="fill:#12100b"/></g></g><g style="clip-path:url(#d1fc8294-80f4-45ec-9e70-c0278911e5a2)"><g style="clip-path:url(#43150eb8-3f94-4cfc-9fda-f4373273cabd)"><rect y="99.654" width="170.203" height="132.92" style="fill:#12100b"/></g></g><g style="clip-path:url(#63393643-0b62-4e82-9d8f-892770380a51)"><g style="clip-path:url(#43150eb8-3f94-4cfc-9fda-f4373273cabd)"><rect x="219.676" y="103.927" width="133.123" height="128.169" style="fill:#12100b"/></g></g><g style="clip-path:url(#490eb373-621b-4c3b-bfb4-64a66d274dad)"><g style="clip-path:url(#43150eb8-3f94-4cfc-9fda-f4373273cabd)"><rect x="226.86" y="98.588" width="133.125" height="128.169" style="fill:#ff5000"/></g></g><g style="clip-path:url(#fd354b86-6010-4373-bb1f-64f696941366)"><g style="clip-path:url(#43150eb8-3f94-4cfc-9fda-f4373273cabd)"><rect x="223.83" y="95.883" width="141.258" height="133.609" style="fill:#12100b"/></g></g><g style="clip-path:url(#346bdd77-c389-4224-a924-a4dd81d15b13)"><g style="clip-path:url(#43150eb8-3f94-4cfc-9fda-f4373273cabd)"><rect x="115.744" y="103.012" width="138.104" height="131.299" style="fill:#12100b"/></g></g><g style="clip-path:url(#bb6bd2b6-7689-44cb-b9be-38961fe6553a)"><g style="clip-path:url(#43150eb8-3f94-4cfc-9fda-f4373273cabd)"><rect x="125.245" y="100.086" width="138.104" height="131.293" style="fill:#ff5000"/></g></g><g style="clip-path:url(#552dcb39-fcbf-4696-962c-1b921ef00c5d)"><g style="clip-path:url(#43150eb8-3f94-4cfc-9fda-f4373273cabd)"><rect x="122.522" y="97.35" width="143.554" height="136.764" style="fill:#12100b"/></g></g><g style="clip-path:url(#a9bf1caa-4648-4446-a78f-fc351b707280)"><g style="clip-path:url(#43150eb8-3f94-4cfc-9fda-f4373273cabd)"><rect x="483.622" y="103.838" width="135.982" height="130.91" style="fill:#12100b"/></g></g><g style="clip-path:url(#413a12cf-30b0-43ca-8ebe-87afa2b01e03)"><g style="clip-path:url(#43150eb8-3f94-4cfc-9fda-f4373273cabd)"><rect x="491.056" y="102.113" width="135.982" height="130.91" style="fill:#ff5000"/></g></g><g style="clip-path:url(#3a0ceb84-dd64-4043-96ce-a352251b652d)"><g style="clip-path:url(#43150eb8-3f94-4cfc-9fda-f4373273cabd)"><rect x="485.705" y="99.377" width="144.057" height="136.383" style="fill:#12100b"/></g></g><g style="clip-path:url(#1415c4a0-e953-4e24-9850-b00e59ba333e)"><g style="clip-path:url(#43150eb8-3f94-4cfc-9fda-f4373273cabd)"><rect x="487.879" y="85.383" width="55.078" height="62.57" style="fill:#12100b"/></g></g><g style="clip-path:url(#73e574c1-068c-4389-8f16-cfbf87ddfbd9)"><g style="clip-path:url(#43150eb8-3f94-4cfc-9fda-f4373273cabd)"><rect x="495.609" y="83.449" width="55.065" height="62.564" style="fill:#ff5000"/></g></g><g style="clip-path:url(#f492fa39-0e53-4b7e-a642-4a08c9e2ff81)"><g style="clip-path:url(#43150eb8-3f94-4cfc-9fda-f4373273cabd)"><rect x="492.149" y="79.21" width="62.587" height="70.093" style="fill:#12100b"/></g></g><g style="clip-path:url(#99c456ac-d29d-4dc1-aa49-fc688939e022)"><g style="clip-path:url(#43150eb8-3f94-4cfc-9fda-f4373273cabd)"><rect x="5.521" y="93.265" width="176.644" height="137.651" style="fill:#ff5000"/></g></g><g style="clip-path:url(#d97c347d-de37-4ed6-9bbd-cfe9514a06e9)"><g style="clip-path:url(#43150eb8-3f94-4cfc-9fda-f4373273cabd)"><rect x="1.46" y="90.326" width="184.936" height="146.001" style="fill:#12100b"/></g></g><g style="clip-path:url(#f4aeb8f7-9e29-464d-b8e0-2dbb10a30816)"><g style="clip-path:url(#43150eb8-3f94-4cfc-9fda-f4373273cabd)"><rect x="377.663" y="108.182" width="144.461" height="123.535" style="fill:#12100b"/></g></g><g style="clip-path:url(#f6fc94cd-939a-4a5c-9a1a-aa5e86f7637f)"><g style="clip-path:url(#43150eb8-3f94-4cfc-9fda-f4373273cabd)"><rect x="384.754" y="104.299" width="144.461" height="123.536" style="fill:#ff5000"/></g></g><g style="clip-path:url(#92f675d8-8212-4418-aa72-60f1b0b994fa)"><g style="clip-path:url(#43150eb8-3f94-4cfc-9fda-f4373273cabd)"><rect x="382.056" y="101.565" width="149.883" height="129.198" style="fill:#12100b"/></g></g><g style="clip-path:url(#1a52ba25-3467-4058-bd64-102db3457fb5)"><g style="clip-path:url(#43150eb8-3f94-4cfc-9fda-f4373273cabd)"><rect x="322.5" y="103.233" width="93.579" height="132.167" style="fill:#12100b"/></g></g><g style="clip-path:url(#5a7d0c7c-c7d0-42c9-85ce-45c3c9c4566c)"><g style="clip-path:url(#43150eb8-3f94-4cfc-9fda-f4373273cabd)"><rect x="329.591" y="98.643" width="93.57" height="132.174" style="fill:#ff5000"/></g></g><g style="clip-path:url(#d006cdcf-c148-4790-b562-7d283ac27543)"><g style="clip-path:url(#43150eb8-3f94-4cfc-9fda-f4373273cabd)"><rect x="326.597" y="95.508" width="99.617" height="138.545" style="fill:#12100b"/></g></g><g style="clip-path:url(#1cadb7a1-8785-4985-b567-361b47dfff04)"><g style="clip-path:url(#43150eb8-3f94-4cfc-9fda-f4373273cabd)"><rect x="154.913" y="213.319" width="115.296" height="130.145" style="fill:#12100b"/></g></g><g style="clip-path:url(#3f2205b9-373a-45b7-86ef-6ea163bce829)"><g style="clip-path:url(#43150eb8-3f94-4cfc-9fda-f4373273cabd)"><rect x="162.532" y="211.563" width="115.297" height="130.14" style="fill:#fff"/></g></g><g style="clip-path:url(#8f42c44a-9de1-4d07-952d-0706fab5f8d2)"><g style="clip-path:url(#43150eb8-3f94-4cfc-9fda-f4373273cabd)"><rect x="158.864" y="208.446" width="121.688" height="136.085" style="fill:#12100b"/></g></g><g style="clip-path:url(#705faf51-6515-4dd4-a804-6c1587dd3cd7)"><g style="clip-path:url(#43150eb8-3f94-4cfc-9fda-f4373273cabd)"><rect x="73.629" y="217.929" width="135.601" height="130.515" style="fill:#12100b"/></g></g><g style="clip-path:url(#cd4268d7-d2ae-432f-9410-2b4a8e16e5aa)"><g style="clip-path:url(#43150eb8-3f94-4cfc-9fda-f4373273cabd)"><rect x="77.763" y="210.837" width="135.59" height="130.526" style="fill:#fff"/></g></g><g style="clip-path:url(#3f291ea9-33e2-4f93-aefc-131053d6eede)"><g style="clip-path:url(#43150eb8-3f94-4cfc-9fda-f4373273cabd)"><rect x="74.721" y="208.124" width="143.736" height="135.983" style="fill:#12100b"/></g></g><g style="clip-path:url(#272c7e4c-f1a1-4307-b0ba-0a81c91ed906)"><g style="clip-path:url(#43150eb8-3f94-4cfc-9fda-f4373273cabd)"><rect x="0.956" y="217.165" width="126.144" height="130.005" style="fill:#12100b"/></g></g><g style="clip-path:url(#4f0a7e47-7774-4f33-8df3-731110f1a6d0)"><g style="clip-path:url(#43150eb8-3f94-4cfc-9fda-f4373273cabd)"><rect x="6.515" y="212.512" width="126.131" height="130.006" style="fill:#fff"/></g></g><g style="clip-path:url(#d8090bcf-ece5-443f-81b7-9c33bf30b3fb)"><g style="clip-path:url(#43150eb8-3f94-4cfc-9fda-f4373273cabd)"><rect x="3.78" y="209.77" width="131.64" height="135.489" style="fill:#12100b"/></g></g><g style="clip-path:url(#29d2f400-a0c2-40fd-b112-6610fb874e7b)"><g style="clip-path:url(#43150eb8-3f94-4cfc-9fda-f4373273cabd)"><rect x="431.992" y="211.903" width="138.521" height="133.332" style="fill:#12100b"/></g></g><g style="clip-path:url(#a60f41d8-6e5a-4400-bc66-231f99f0105f)"><g style="clip-path:url(#43150eb8-3f94-4cfc-9fda-f4373273cabd)"><rect x="439.611" y="210.146" width="138.521" height="133.326" style="fill:#fff"/></g></g><g style="clip-path:url(#00fa5803-afb9-4e89-a133-4e1fc51a1b3e)"><g style="clip-path:url(#43150eb8-3f94-4cfc-9fda-f4373273cabd)"><rect x="434.261" y="207.403" width="146.607" height="138.811" style="fill:#12100b"/></g></g><g style="clip-path:url(#a5e1f3b2-c4be-4252-83b4-0350a22bc2c2)"><g style="clip-path:url(#43150eb8-3f94-4cfc-9fda-f4373273cabd)"><rect x="228.934" y="211.533" width="149.836" height="131.767" style="fill:#12100b"/></g></g><g style="clip-path:url(#f8d84c52-226a-47ab-874c-554384c6bd63)"><g style="clip-path:url(#43150eb8-3f94-4cfc-9fda-f4373273cabd)"><rect x="236.332" y="209.013" width="149.823" height="131.761" style="fill:#fff"/></g></g><g style="clip-path:url(#698840aa-a587-4917-a726-b11112255007)"><g style="clip-path:url(#43150eb8-3f94-4cfc-9fda-f4373273cabd)"><rect x="232.038" y="206.178" width="158.263" height="137.454" style="fill:#12100b"/></g></g><g style="clip-path:url(#f52ab6e1-a4ad-43ee-88a2-2e04a7845e67)"><g style="clip-path:url(#43150eb8-3f94-4cfc-9fda-f4373273cabd)"><rect x="353.406" y="213.319" width="115.297" height="130.145" style="fill:#12100b"/></g></g><g style="clip-path:url(#002b6fa4-1c4a-4968-8a09-707a2ace7ce7)"><g style="clip-path:url(#43150eb8-3f94-4cfc-9fda-f4373273cabd)"><rect x="361.025" y="211.563" width="115.297" height="130.14" style="fill:#fff"/></g></g><g style="clip-path:url(#43f84ad8-a097-47f9-937e-5e4212a9889f)"><g style="clip-path:url(#43150eb8-3f94-4cfc-9fda-f4373273cabd)"><rect x="357.357" y="208.446" width="121.688" height="136.085" style="fill:#12100b"/></g></g><g style="clip-path:url(#84f31b31-42d4-464c-86c6-b3bae73883f9)"><g style="clip-path:url(#43150eb8-3f94-4cfc-9fda-f4373273cabd)"><rect x="322.402" y="214.638" width="103.187" height="121.752" style="fill:#12100b"/></g></g><g style="clip-path:url(#b9da6167-ca90-4272-b717-d4239b09b0fe)"><g style="clip-path:url(#43150eb8-3f94-4cfc-9fda-f4373273cabd)"><rect x="329.323" y="211.65" width="103.198" height="121.752" style="fill:#fff"/></g></g><g style="clip-path:url(#eb00b3a6-7563-4b05-bba4-d3ac858f8e08)"><g style="clip-path:url(#43150eb8-3f94-4cfc-9fda-f4373273cabd)"><rect x="325.984" y="208.617" width="111.089" height="128.62" style="fill:#12100b"/></g></g><g style="clip-path:url(#fd3a8d77-1463-4d94-98de-3b0cd33b31c2)"><g style="clip-path:url(#43150eb8-3f94-4cfc-9fda-f4373273cabd)"><rect x="534.121" y="216.919" width="98.119" height="122.252" style="fill:#12100b"/></g></g><g style="clip-path:url(#a8352705-f95a-49af-a0cd-0e99cbd5a8f5)"><g style="clip-path:url(#43150eb8-3f94-4cfc-9fda-f4373273cabd)"><rect x="539.679" y="211.817" width="98.119" height="122.252" style="fill:#fff"/></g></g><g style="clip-path:url(#90a04b22-5a2c-4c73-b702-3f740080b791)"><g style="clip-path:url(#43150eb8-3f94-4cfc-9fda-f4373273cabd)"><rect x="536.808" y="208.279" width="104.598" height="128.685" style="fill:#12100b"/></g></g><g style="clip-path:url(#418c37c7-8c40-40d5-b181-7ea100390571)"><g style="clip-path:url(#43150eb8-3f94-4cfc-9fda-f4373273cabd)"><rect x="17.779" y="3.962" width="52.785" height="70.816" style="fill:#fff"/></g></g><g style="clip-path:url(#9ca1f626-ec30-4937-9e00-f0e86f8b9448)"><g style="clip-path:url(#43150eb8-3f94-4cfc-9fda-f4373273cabd)"><rect x="44.39" y="15.381" width="55.68" height="60.161" style="fill:#fff"/></g></g><g style="clip-path:url(#16627fdd-6929-44c5-ace0-0b4bb0ae36ac)"><g style="clip-path:url(#43150eb8-3f94-4cfc-9fda-f4373273cabd)"><rect x="75.014" y="16.149" width="56.503" height="59.399" style="fill:#fff"/></g></g><g style="clip-path:url(#f0cf7e88-954a-4305-97cb-8c04c5960813)"><g style="clip-path:url(#43150eb8-3f94-4cfc-9fda-f4373273cabd)"><rect x="108.351" width="55.963" height="74.779" style="fill:#fff"/></g></g><g style="clip-path:url(#3794e324-c481-4c73-83e6-c2531b5bd127)"><g style="clip-path:url(#43150eb8-3f94-4cfc-9fda-f4373273cabd)"><rect x="136.091" y="15.38" width="57.092" height="60.167" style="fill:#fff"/></g></g><g style="clip-path:url(#adae9ec2-e865-40cd-9801-53627819b132)"><g style="clip-path:url(#43150eb8-3f94-4cfc-9fda-f4373273cabd)"><rect x="166.95" y="15.381" width="55.667" height="60.161" style="fill:#fff"/></g></g><g style="clip-path:url(#935625f6-2691-43f6-86c1-607761e11335)"><g style="clip-path:url(#43150eb8-3f94-4cfc-9fda-f4373273cabd)"><rect x="197.095" y="15.381" width="73.165" height="59.397" style="fill:#fff"/></g></g><g style="clip-path:url(#7de5480c-c0d1-4ae0-8ba4-50e83aa7010b)"><g style="clip-path:url(#43150eb8-3f94-4cfc-9fda-f4373273cabd)"><rect x="246.75" y="0.303" width="39.287" height="74.475" style="fill:#fff"/></g></g><g style="clip-path:url(#1d9e2bee-a864-4975-98cf-042816362edd)"><g style="clip-path:url(#43150eb8-3f94-4cfc-9fda-f4373273cabd)"><rect x="260.994" y="15.38" width="57.091" height="60.167" style="fill:#fff"/></g></g><g style="clip-path:url(#e2df4621-820f-4027-a415-8aff0016b363)"><g style="clip-path:url(#43150eb8-3f94-4cfc-9fda-f4373273cabd)"><rect x="309.641" y="3.962" width="52.785" height="70.816" style="fill:#fff"/></g></g><g style="clip-path:url(#3f0395f0-aba9-4941-8401-f6b5dbf9fa88)"><g style="clip-path:url(#43150eb8-3f94-4cfc-9fda-f4373273cabd)"><rect x="335.04" y="15.38" width="58.845" height="60.169" style="fill:#fff"/></g></g><g style="clip-path:url(#19838086-fdf0-4620-8694-74275d032845)"><g style="clip-path:url(#43150eb8-3f94-4cfc-9fda-f4373273cabd)"><rect x="368.952" y="16.149" width="56.489" height="59.399" style="fill:#fff"/></g></g><g style="clip-path:url(#1ac12bce-48c9-4494-bf4c-b0c2084d72a7)"><g style="clip-path:url(#43150eb8-3f94-4cfc-9fda-f4373273cabd)"><rect x="402.569" y="15.381" width="56.514" height="59.397" style="fill:#fff"/></g></g><g style="clip-path:url(#232bdf6b-5831-4e25-b37e-48a69c7ee516)"><g style="clip-path:url(#43150eb8-3f94-4cfc-9fda-f4373273cabd)"><rect x="434.138" y="0.006" width="57.68" height="75.542" style="fill:#fff"/></g></g><g style="clip-path:url(#79130572-3289-4e49-8067-0e654703ca37)"><g style="clip-path:url(#43150eb8-3f94-4cfc-9fda-f4373273cabd)"><rect x="466.063" y="15.38" width="57.091" height="60.167" style="fill:#fff"/></g></g><g style="clip-path:url(#306957d2-ace5-411c-8306-fae767c15edd)"><g style="clip-path:url(#43150eb8-3f94-4cfc-9fda-f4373273cabd)"><rect x="495.509" y="5.682" width="47.607" height="69.866" style="fill:#fff"/></g></g><g style="clip-path:url(#0e59e8cd-68f5-4d1b-b9d1-87cbe21f21d5)"><g style="clip-path:url(#43150eb8-3f94-4cfc-9fda-f4373273cabd)"><rect x="517.239" y="0.303" width="39.312" height="74.475" style="fill:#fff"/></g></g><g style="clip-path:url(#31f92543-bf51-45ad-b2e8-916d1d1e417b)"><g style="clip-path:url(#43150eb8-3f94-4cfc-9fda-f4373273cabd)"><rect x="531.717" y="15.38" width="58.87" height="60.169" style="fill:#fff"/></g></g><g style="clip-path:url(#f9f56f9f-2e42-4056-9bd7-66639c889e78)"><g style="clip-path:url(#43150eb8-3f94-4cfc-9fda-f4373273cabd)"><rect x="565.346" y="15.381" width="56.503" height="59.397" style="fill:#fff"/></g></g><g style="clip-path:url(#e6b74bf2-381f-403d-923d-9cd8ada33d25)"><g style="clip-path:url(#43150eb8-3f94-4cfc-9fda-f4373273cabd)"><rect x="601.884" y="454.404" width="56.465" height="44.123" style="fill:#12100b"/></g></g></svg>
