<?xml version="1.0" encoding="UTF-8" standalone="no"?>
<svg width="180px" height="15px" viewBox="0 0 180 15" version="1.1" xmlns="http://www.w3.org/2000/svg" xmlns:xlink="http://www.w3.org/1999/xlink">
    <!-- Generator: Sketch 41 (35326) - http://www.bohemiancoding.com/sketch -->
    <title>Mango</title>
    <desc>Created with Sketch.</desc>
    <defs></defs>
    <g id="Symbols" stroke="none" stroke-width="1" fill="none" fill-rule="evenodd">
        <g id="Mango-Chutney" transform="translate(-12.000000, -1.000000)" fill="#222C3C">
            <g id="Mango" transform="translate(12.000000, 1.000000)">
                <g id="mango-chutney" opacity="0.75" transform="translate(73.756098, 0.000000)">
                    <path d="M84.3947122,3.44089756 C83.3849561,3.45406829 82.5490537,3.77806829 81.9098341,4.40060488 C81.2741268,5.02401951 80.9404683,5.87748293 80.9185171,6.94167805 L80.9185171,11.0395317 C80.9185171,11.4118244 81.2267122,11.7147512 81.6139317,11.7147512 C81.9923707,11.7147512 82.3014439,11.4118244 82.3014439,11.0395317 L82.3014439,6.93992195 C82.3163707,6.28489756 82.5271024,5.7510439 82.9239805,5.34889756 C83.3226146,4.94850732 83.8178341,4.74040976 84.3929561,4.72811707 C84.9724683,4.74040976 85.4685659,4.94850732 85.866322,5.34889756 C86.2632,5.74840976 86.4721756,6.28401951 86.4906146,6.93640976 L86.4906146,11.0395317 C86.4906146,11.4118244 86.7979317,11.7147512 87.1781268,11.7147512 L87.1851512,11.7147512 C87.5635902,11.7147512 87.8726634,11.4118244 87.8726634,11.0395317 L87.8726634,6.93992195 C87.8533463,5.88011707 87.5179317,5.02665366 86.8778341,4.40060488 C86.2403707,3.77806829 85.4062244,3.45406829 84.3947122,3.44089756" id="Fill-1"></path>
                    <path d="M70.6847707,11.7309951 C71.6945268,11.7178244 72.5304293,11.3929463 73.1696488,10.7686537 C73.8053561,10.1434829 74.1390146,9.28826341 74.1609659,8.22319024 L74.1609659,4.1165561 C74.1609659,3.74338537 73.8527707,3.43958049 73.4664293,3.43958049 C73.0879902,3.43958049 72.778039,3.74338537 72.778039,4.1165561 L72.778039,8.22494634 C72.7631122,8.88084878 72.5532585,9.41645854 72.1555024,9.81860488 C71.7568683,10.2198732 71.2616488,10.4288488 70.6865268,10.4402634 C70.1070146,10.4288488 69.6109171,10.2198732 69.213161,9.81860488 C68.8162829,9.41821463 68.6064293,8.88172683 68.5897463,8.22758049 L68.5897463,4.1165561 C68.5897463,3.74338537 68.2815512,3.43958049 67.9022341,3.43958049 L67.8943317,3.43958049 C67.5167707,3.43958049 67.2076976,3.74338537 67.2076976,4.1165561 L67.2076976,8.22406829 C67.2270146,9.28650732 67.5615512,10.1417268 68.2016488,10.7686537 C68.8391122,11.3929463 69.6741366,11.7178244 70.6847707,11.7309951" id="Fill-3"></path>
                    <path d="M56.3962829,10.3846829 L53.9588195,10.3846829 C52.6628195,10.3539512 51.610039,9.10273171 51.610039,7.5977561 C51.610039,6.06204878 52.6882829,4.81082927 54.0150146,4.81082927 L56.3866244,4.81082927 C56.7650634,4.81082927 57.0732585,4.50965854 57.0732585,4.1382439 C57.0732585,3.76858537 56.7650634,3.46741463 56.3866244,3.46741463 L54.0150146,3.46741463 C51.9357951,3.46741463 50.2464293,5.32009756 50.2464293,7.5977561 C50.2464293,8.6795122 50.6257463,9.70331707 51.3167707,10.4812683 C52.024478,11.2829268 52.9859415,11.7228293 54.0185268,11.7228293 L54.0290634,11.7228293 L56.3962829,11.7228293 C56.7756,11.7228293 57.0846732,11.4225366 57.0846732,11.0537561 C57.0846732,10.6858537 56.7756,10.3846829 56.3962829,10.3846829" id="Fill-5"></path>
                    <path d="M64.691561,4.42826341 C64.0549756,3.80309268 63.2199512,3.47909268 62.2093171,3.4650439 L61.794,3.46592195 L61.6719512,3.46592195 L60.5937073,3.46767805 C60.5910732,3.46767805 60.587561,3.46592195 60.5849268,3.46592195 L60.1142927,3.46592195 L60.1142927,2.99440976 L60.1142927,1.50084878 L60.1142927,0.721141463 C60.1142927,0.34884878 59.8052195,0.0450439024 59.418,0.0450439024 C59.0386829,0.0450439024 58.7313659,0.34884878 58.7313659,0.763287805 L58.7313659,11.080361 C58.7313659,11.4113854 59.0386829,11.7143122 59.4267805,11.7143122 C59.8052195,11.7143122 60.1142927,11.4113854 60.1142927,11.0382146 L60.1178049,4.81021463 L62.2049268,4.81021463 C62.7861951,4.82250732 63.2822927,4.97616585 63.6809268,5.3783122 C64.0778049,5.78045854 64.2876585,6.27392195 64.3025854,6.9263122 L64.3025854,11.0382146 C64.3025854,11.4113854 64.6116585,11.7143122 64.9892195,11.7143122 L64.998,11.7143122 C65.375561,11.7143122 65.6863902,11.4113854 65.6863902,11.0382146 L65.6863902,6.93070244 C65.6661951,5.86826341 65.3307805,5.05519024 64.691561,4.42826341" id="Fill-7"></path>
                    <path d="M78.9050634,4.78387317 L77.1314049,4.78387317 L77.1314049,8.71753171 C77.1314049,9.31197073 77.3948195,9.78260488 77.9356976,10.0741171 C78.3905268,10.3190927 78.8743317,10.3489463 78.8918927,10.3498244 C79.2782341,10.3673854 79.5776488,10.6878732 79.562722,11.0680683 C79.5469171,11.4491415 79.2194049,11.747678 78.8330634,11.7318732 C78.7549171,11.728361 78.0463317,11.6906049 77.3193073,11.3174341 C76.2919902,10.7888488 75.7256488,9.84494634 75.7256488,8.71753171 L75.7256488,0.691287805 C75.7256488,0.309336585 76.0399902,0.000263414634 76.4280878,0.000263414634 C76.8161854,0.000263414634 77.1314049,0.309336585 77.1314049,0.691287805 L77.1314049,3.44133659 L77.6002829,3.44133659 L78.3431122,3.44133659 L78.9050634,3.44133659 C79.2835024,3.44133659 79.5916976,3.72582439 79.5916976,4.0752878 C79.5916976,4.42387317 79.2835024,4.78387317 78.9050634,4.78387317" id="Fill-9"></path>
                    <path d="M105.500546,4.12041951 C105.500546,3.74724878 105.191473,3.4434439 104.805132,3.4434439 C104.424059,3.4434439 104.118498,3.74724878 104.118498,4.12041951 L104.118498,8.16910244 C104.100937,8.82588293 103.891961,9.36149268 103.493327,9.76363902 C103.095571,10.1657854 102.599473,10.3738829 102.024351,10.3844195 C101.444839,10.3738829 100.94962,10.1657854 100.550985,9.76363902 C100.153229,9.36149268 99.9451317,8.82588293 99.9284488,8.17173659 L99.9284488,4.12041951 C99.9284488,3.74724878 99.6184976,3.4434439 99.2330341,3.4434439 C98.8545951,3.4434439 98.547278,3.74724878 98.547278,4.12041951 L98.547278,8.16998049 C98.564839,9.23241951 98.9002537,10.087639 99.5394732,10.7128098 C100.177815,11.3379805 101.012839,11.6619805 102.024351,11.6769073 C102.819863,11.6646146 103.488059,11.4670537 104.164156,11.042078 C104.154498,11.7691024 103.988546,12.3117366 103.66718,12.6489073 C103.391473,12.9395415 103.178985,13.1151512 102.577522,13.1151512 L100.370107,13.1160293 C99.9881561,13.1160293 99.6817171,13.4049073 99.6817171,13.7605171 C99.6817171,14.1161268 99.9881561,14.4058829 100.370107,14.4058829 L102.535376,14.4058829 C103.645229,14.4058829 104.360839,13.7938829 104.76562,13.2775902 C105.12562,12.822761 105.511961,11.8735902 105.511961,10.8708585 L105.500546,4.12041951 Z" id="Fill-11"></path>
                    <path d="M97.2419707,7.70601951 C97.2419707,4.7268 95.1469463,3.36845854 93.2196293,3.36845854 C91.2545561,3.36845854 89.2648976,4.79265366 89.2648976,7.51372683 C89.2648976,9.59645854 90.5407024,11.8223122 94.1248976,11.8223122 C94.8194341,11.8223122 95.374361,11.709922 96.1365073,11.4271902 C97.1401171,11.0557756 96.5123122,10.0504098 95.8871415,10.233922 C95.1855805,10.4411415 94.7228488,10.559678 94.0467512,10.559678 C92.1852878,10.559678 91.0236293,9.82650732 90.7637268,8.49362927 L96.3902634,8.49362927 C96.9732878,8.49362927 97.2419707,8.16172683 97.2419707,7.70601951 L97.2419707,7.70601951 Z M90.6355317,7.21519024 C90.6829463,5.41606829 92.0008976,4.59597073 93.2257756,4.59597073 C94.4769951,4.59597073 95.8221659,5.41782439 95.8713366,7.21694634 C95.8713366,7.21782439 95.8704585,7.21870244 95.8695805,7.21958049 L90.6355317,7.21519024 Z" id="Fill-13"></path>
                    <path d="M18.0892098,10.6732098 L15.2381854,10.6732098 C14.2609171,10.6732098 13.4689171,9.90316098 13.4689171,8.94081951 C13.4689171,7.96706341 14.2644293,7.20930732 15.2794537,7.20316098 L18.092722,7.20316098 L18.0892098,10.6732098 Z M17.8670634,3.99564878 C17.4499902,3.80950244 17.0048195,3.71906341 16.4937951,3.71906341 L14.2644293,3.72081951 C13.8859902,3.72169756 13.5786732,4.01057561 13.5786732,4.36530732 C13.5786732,4.72179512 13.8859902,5.00979512 14.2661854,5.00979512 L16.6193561,5.00979512 C17.1172098,5.01330732 17.518478,5.1713561 17.8126244,5.47867317 C17.8995512,5.57262439 17.9803317,5.68589268 18.0839415,5.91242927 L15.2118439,5.91242927 C13.5330146,5.92823415 12.1658927,7.28657561 12.1658927,8.94081951 C12.1658927,10.5959415 13.5444293,11.9525268 15.2408195,11.9648195 L18.9690146,11.9648195 C19.3474537,11.9648195 19.6574049,11.6627707 19.6574049,11.290478 L19.6574049,7.25672195 C19.6574049,6.2531122 19.2693073,5.30481951 18.9101854,4.84999024 C18.508039,4.33633171 18.272722,4.17828293 17.8670634,3.99564878 L17.8670634,3.99564878 Z" id="Fill-15"></path>
                    <path d="M33.371561,5.04992195 L35.4674634,5.05343415 L35.4674634,10.6220195 L33.317122,10.6237756 C32.0202439,10.5930439 30.9657073,9.34358049 30.9657073,7.83597073 C30.9657073,6.30026341 32.0439512,5.04992195 33.371561,5.04992195 M36.0522439,3.70562927 L33.371561,3.70562927 C31.2932195,3.70562927 29.6029756,5.5583122 29.6029756,7.83597073 C29.6029756,8.91772683 29.9822927,9.93977561 30.6733171,10.7142146 C31.3819024,11.5097268 32.3407317,11.9478732 33.3847317,11.9478732 L35.3735122,11.9478732 C35.2725366,12.359678 35.0653171,12.6871902 34.8949756,12.8663122 C34.6201463,13.1551902 34.2522439,13.312361 33.8070732,13.3325561 L31.5979024,13.3351902 C31.2185854,13.3351902 30.9103902,13.6240683 30.9103902,13.9788 C30.9103902,14.3335317 31.2185854,14.6232878 31.5979024,14.6232878 L33.8500976,14.6232878 L33.8536098,14.6232878 C34.2276585,14.6004585 34.5894146,14.5100195 34.9502927,14.3493366 C35.3550732,14.1675805 35.5886341,14.0104098 35.9942927,13.4967512 C36.3525366,13.0410439 36.7397561,12.0945073 36.7397561,11.0891415 L36.7397561,4.38260488 C36.7397561,4.0085561 36.4306829,3.70562927 36.0522439,3.70562927" id="Fill-17"></path>
                    <path d="M24.7595707,3.71001951 C23.7498146,3.72319024 22.9147902,4.0463122 22.2755707,4.66709268 C21.6389854,5.28875122 21.3053268,6.13958049 21.2833756,7.20026341 L21.2833756,11.2849463 C21.2833756,11.656361 21.5915707,11.9575317 21.9787902,11.9575317 C22.3572293,11.9575317 22.6663024,11.656361 22.6663024,11.2849463 L22.6663024,7.19762927 C22.6821073,6.54611707 22.891961,6.01226341 23.288839,5.61187317 C23.6874732,5.21236098 24.1826927,5.00601951 24.7578146,4.99372683 C25.3373268,5.00601951 25.8343024,5.21236098 26.2320585,5.61187317 C26.6280585,6.01050732 26.8379122,6.54436098 26.8554732,7.19499512 L26.8554732,11.2849463 C26.8554732,11.656361 27.1627902,11.9575317 27.5429854,11.9575317 L27.5500098,11.9575317 C27.9284488,11.9575317 28.237522,11.656361 28.237522,11.2849463 L28.237522,7.19850732 C28.2182049,6.14133659 27.8827902,5.29138537 27.2435707,4.66709268 C26.6061073,4.0463122 25.7710829,3.72319024 24.7595707,3.71001951" id="Fill-19"></path>
                    <path d="M42.2664585,10.6261463 C40.7895805,10.6261463 39.5884098,9.36614634 39.5884098,7.81639024 C39.5884098,6.26663415 40.7895805,5.0057561 42.2664585,5.0057561 C43.7415805,5.0057561 44.9418732,6.26663415 44.9418732,7.81639024 C44.9418732,9.36614634 43.7415805,10.6261463 42.2664585,10.6261463 M42.2664585,3.58156098 C39.9949463,3.58156098 38.1484098,5.48165854 38.1484098,7.81639024 C38.1484098,10.1502439 39.9949463,12.0503415 42.2664585,12.0503415 C44.5362146,12.0503415 46.3845073,10.1502439 46.3845073,7.81639024 C46.3845073,5.48165854 44.5362146,3.58156098 42.2664585,3.58156098" id="Fill-21"></path>
                    <path d="M10.144361,4.50755122 C9.60875122,3.99828293 8.91158049,3.7296 8.06953171,3.71028293 C7.6032878,3.71028293 7.15636098,3.80423415 6.7428,3.98686829 C6.35909268,4.1580878 5.92270244,4.41447805 5.65840976,4.74901463 C5.65665366,4.75077073 5.65401951,4.75164878 5.65314146,4.75252683 C5.65138537,4.75164878 5.64962927,4.75077073 5.64787317,4.74901463 C5.38270244,4.41447805 4.9463122,4.1580878 4.56260488,3.98686829 C4.14816585,3.80423415 3.70211707,3.71028293 3.23587317,3.71028293 C2.39470244,3.7296 1.69665366,3.99828293 1.1610439,4.50755122 C0.628068293,5.01769756 0.347970732,5.66042927 0.332165854,6.42081951 L0.332165854,11.2843317 C0.332165854,11.6557463 0.639482927,11.9577951 1.02582439,11.9577951 C1.40514146,11.9577951 1.71333659,11.6557463 1.71333659,11.2843317 L1.71333659,6.7571122 C1.72123902,6.21974634 1.86172683,5.78950244 2.13743415,5.47867317 C2.41401951,5.16345366 2.79597073,5.00189268 3.29997073,4.99574634 C3.80484878,4.99574634 4.21050732,5.15203902 4.50640976,5.46286829 C4.80758049,5.77633171 4.96387317,6.29174634 4.96914146,6.99418537 L4.96914146,11.2843317 C4.96914146,11.6496 5.26592195,11.9455024 5.64523902,11.956039 L5.64523902,11.9577951 C5.64787317,11.9577951 5.65050732,11.9569171 5.65314146,11.9569171 C5.65577561,11.9569171 5.65840976,11.9577951 5.66016585,11.9577951 L5.66016585,11.956039 C6.03948293,11.9455024 6.33626341,11.6496 6.33626341,11.2843317 L6.33626341,6.99418537 C6.34153171,6.29174634 6.49782439,5.77633171 6.79899512,5.46286829 C7.09401951,5.15203902 7.5005561,4.99574634 8.0063122,4.99574634 C8.50943415,5.00189268 8.89138537,5.16345366 9.16797073,5.47867317 C9.44367805,5.78950244 9.5850439,6.21974634 9.59206829,6.7571122 L9.59206829,11.2843317 C9.59206829,11.6557463 9.90026341,11.9577951 10.2795805,11.9577951 C10.665922,11.9577951 10.9741171,11.6557463 10.9741171,11.2843317 L10.9741171,6.42081951 C10.9583122,5.66042927 10.6782146,5.01769756 10.144361,4.50755122" id="Fill-23"></path>
                </g>
                <g id="made-with" opacity="0.2">
                    <path d="M67.5561951,4.42826341 C66.9196098,3.80309268 66.0845854,3.47909268 65.0739512,3.4650439 L64.6586341,3.46592195 L64.5365854,3.46592195 L63.4583415,3.46767805 C63.4557073,3.46767805 63.4521951,3.46592195 63.449561,3.46592195 L62.9789268,3.46592195 L62.9789268,2.99440976 L62.9789268,1.50084878 L62.9789268,0.721141463 C62.9789268,0.34884878 62.6698537,0.0450439024 62.2826341,0.0450439024 C61.9033171,0.0450439024 61.596,0.34884878 61.596,0.763287805 L61.596,11.080361 C61.596,11.4113854 61.9033171,11.7143122 62.2914146,11.7143122 C62.6698537,11.7143122 62.9789268,11.4113854 62.9789268,11.0382146 L62.982439,4.81021463 L65.069561,4.81021463 C65.6508293,4.82250732 66.1469268,4.97616585 66.545561,5.3783122 C66.942439,5.78045854 67.1522927,6.27392195 67.1672195,6.9263122 L67.1672195,11.0382146 C67.1672195,11.4113854 67.4762927,11.7143122 67.8538537,11.7143122 L67.8626341,11.7143122 C68.2401951,11.7143122 68.5510244,11.4113854 68.5510244,11.0382146 L68.5510244,6.93070244 C68.5308293,5.86826341 68.1954146,5.05519024 67.5561951,4.42826341" id="Fill-25"></path>
                    <path d="M55.0625268,4.39516098 C55.0625268,4.02286829 54.7525756,3.71906341 54.3653561,3.71906341 C53.9869171,3.71906341 53.678722,4.02286829 53.678722,4.43730732 L53.678722,11.0797463 C53.678722,11.4116488 53.9869171,11.7145756 54.3741366,11.7145756 C54.7525756,11.7145756 55.0625268,11.4116488 55.0625268,11.038478 L55.0625268,4.39516098 Z" id="Fill-27"></path>
                    <path d="M59.8788,4.78387317 L58.1051415,4.78387317 L58.1051415,8.71753171 C58.1051415,9.31197073 58.3685561,9.78260488 58.9094341,10.0741171 C59.3642634,10.3190927 59.8480683,10.3489463 59.8656293,10.3498244 C60.2519707,10.3673854 60.5513854,10.6878732 60.5364585,11.0680683 C60.5206537,11.4491415 60.1931415,11.747678 59.8068,11.7318732 C59.7286537,11.728361 59.0200683,11.6906049 58.2930439,11.3174341 C57.2657268,10.7888488 56.6993854,9.84494634 56.6993854,8.71753171 L56.6993854,0.691287805 C56.6993854,0.309336585 57.0137268,0.000263414634 57.4018244,0.000263414634 C57.789922,0.000263414634 58.1051415,0.309336585 58.1051415,0.691287805 L58.1051415,3.44133659 L58.5740195,3.44133659 L59.3168488,3.44133659 L59.8788,3.44133659 C60.257239,3.44133659 60.5654341,3.72582439 60.5654341,4.0752878 C60.5654341,4.42387317 60.257239,4.78387317 59.8788,4.78387317" id="Fill-29"></path>
                    <path d="M42.2297561,11.1602634 C42.7653659,11.6695317 43.4625366,11.9382146 44.3045854,11.9575317 C44.7708293,11.9575317 45.2177561,11.8635805 45.6313171,11.6809463 C46.0150244,11.5097268 46.4514146,11.2533366 46.7157073,10.9188 C46.7174634,10.9170439 46.7200976,10.9161659 46.7209756,10.9152878 C46.7227317,10.9161659 46.7244878,10.9170439 46.7262439,10.9188 C46.9914146,11.2533366 47.4278049,11.5097268 47.8115122,11.6809463 C48.2259512,11.8635805 48.672,11.9575317 49.1382439,11.9575317 C49.9794146,11.9382146 50.6774634,11.6695317 51.2130732,11.1602634 C51.7460488,10.6501171 52.0261463,10.0073854 52.0419512,9.24699512 L52.0419512,4.38348293 C52.0419512,4.01206829 51.7346341,3.71001951 51.3482927,3.71001951 C50.9689756,3.71001951 50.6607805,4.01206829 50.6607805,4.38348293 L50.6607805,8.91070244 C50.652878,9.44806829 50.5123902,9.8783122 50.2366829,10.1891415 C49.9600976,10.504361 49.5781463,10.665922 49.0741463,10.6720683 C48.5692683,10.6720683 48.1636098,10.5157756 47.8677073,10.2049463 C47.5665366,9.89148293 47.4102439,9.37606829 47.4049756,8.67362927 L47.4049756,4.38348293 C47.4049756,4.01821463 47.1081951,3.7223122 46.728878,3.71177561 L46.728878,3.71001951 C46.7262439,3.71001951 46.7236098,3.71089756 46.7209756,3.71089756 C46.7183415,3.71089756 46.7157073,3.71001951 46.7139512,3.71001951 L46.7139512,3.71177561 C46.3346341,3.7223122 46.0378537,4.01821463 46.0378537,4.38348293 L46.0378537,8.67362927 C46.0325854,9.37606829 45.8762927,9.89148293 45.575122,10.2049463 C45.2800976,10.5157756 44.873561,10.6720683 44.3678049,10.6720683 C43.8646829,10.665922 43.4827317,10.504361 43.2061463,10.1891415 C42.930439,9.8783122 42.7890732,9.44806829 42.7820488,8.91070244 L42.7820488,4.38348293 C42.7820488,4.01206829 42.4738537,3.71001951 42.0945366,3.71001951 C41.7081951,3.71001951 41.4,4.01206829 41.4,4.38348293 L41.4,9.24699512 C41.4158049,10.0073854 41.6959024,10.6501171 42.2297561,11.1602634" id="Fill-31"></path>
                    <path d="M36.7876976,7.70601951 C36.7876976,4.7268 34.6926732,3.36845854 32.7653561,3.36845854 C30.8002829,3.36845854 28.8106244,4.79265366 28.8106244,7.51372683 C28.8106244,9.59645854 30.0864293,11.8223122 33.6706244,11.8223122 C34.365161,11.8223122 34.9200878,11.709922 35.6822341,11.4271902 C36.6858439,11.0557756 36.058039,10.0504098 35.4328683,10.233922 C34.7313073,10.4411415 34.2685756,10.559678 33.592478,10.559678 C31.7310146,10.559678 30.5693561,9.82650732 30.3094537,8.49362927 L35.9359902,8.49362927 C36.5190146,8.49362927 36.7876976,8.16172683 36.7876976,7.70601951 L36.7876976,7.70601951 Z M30.1812585,7.21519024 C30.2286732,5.41606829 31.5466244,4.59597073 32.7715024,4.59597073 C34.022722,4.59597073 35.3678927,5.41782439 35.4170634,7.21694634 C35.4170634,7.21782439 35.4161854,7.21870244 35.4153073,7.21958049 L30.1812585,7.21519024 Z" id="Fill-33"></path>
                    <path d="M17.9078927,10.6732098 L14.9708195,10.6732098 C13.9944293,10.6732098 13.2015512,9.90316098 13.2015512,8.94081951 C13.2015512,7.96706341 13.9970634,7.20930732 15.0120878,7.20316098 L17.9114049,7.20316098 L17.9078927,10.6732098 Z M17.5996976,3.99564878 C17.1826244,3.80950244 16.7383317,3.71906341 16.2273073,3.71906341 L13.9970634,3.72081951 C13.6186244,3.72169756 13.3113073,4.01057561 13.3113073,4.36530732 C13.3113073,4.72179512 13.6186244,5.00979512 13.9988195,5.00979512 L16.3528683,5.00979512 C16.850722,5.01330732 17.2511122,5.1713561 17.5461366,5.47867317 C17.6330634,5.57262439 17.7138439,5.68589268 17.8165756,5.91242927 L14.944478,5.91242927 C13.2656488,5.92823415 11.8994049,7.28657561 11.8994049,8.94081951 C11.8994049,10.5959415 13.2779415,11.9525268 14.9734537,11.9648195 L18.7016488,11.9648195 C19.0800878,11.9648195 19.3909171,11.6627707 19.3909171,11.290478 L19.3909171,7.25672195 C19.3909171,6.2531122 19.0028195,5.30481951 18.6436976,4.84999024 C18.2415512,4.33633171 18.0062341,4.17828293 17.5996976,3.99564878 L17.5996976,3.99564878 Z" id="Fill-35"></path>
                    <path d="M9.81263415,4.50755122 C9.27702439,3.99828293 8.57985366,3.7296 7.73780488,3.71028293 C7.27156098,3.71028293 6.82463415,3.80423415 6.41107317,3.98686829 C6.02736585,4.1580878 5.59097561,4.41447805 5.32668293,4.74901463 C5.32492683,4.75077073 5.32229268,4.75164878 5.32141463,4.75252683 C5.31965854,4.75164878 5.31790244,4.75077073 5.31614634,4.74901463 C5.05097561,4.41447805 4.61458537,4.1580878 4.23087805,3.98686829 C3.81643902,3.80423415 3.37039024,3.71028293 2.90414634,3.71028293 C2.06297561,3.7296 1.36492683,3.99828293 0.829317073,4.50755122 C0.296341463,5.01769756 0.0162439024,5.66042927 0.00043902439,6.42081951 L0.00043902439,11.2843317 C0.00043902439,11.6557463 0.307756098,11.9577951 0.694097561,11.9577951 C1.07341463,11.9577951 1.38160976,11.6557463 1.38160976,11.2843317 L1.38160976,6.7571122 C1.3895122,6.21974634 1.53,5.78950244 1.80570732,5.47867317 C2.08229268,5.16345366 2.4642439,5.00189268 2.9682439,4.99574634 C3.47312195,4.99574634 3.87878049,5.15203902 4.17468293,5.46286829 C4.47585366,5.77633171 4.63214634,6.29174634 4.63741463,6.99418537 L4.63741463,11.2843317 C4.63741463,11.6496 4.93419512,11.9455024 5.3135122,11.956039 L5.3135122,11.9577951 C5.31614634,11.9577951 5.31878049,11.9569171 5.32141463,11.9569171 C5.32404878,11.9569171 5.32668293,11.9577951 5.32843902,11.9577951 L5.32843902,11.956039 C5.7077561,11.9455024 6.00453659,11.6496 6.00453659,11.2843317 L6.00453659,6.99418537 C6.00980488,6.29174634 6.16609756,5.77633171 6.46726829,5.46286829 C6.76229268,5.15203902 7.16882927,4.99574634 7.67458537,4.99574634 C8.17770732,5.00189268 8.55965854,5.16345366 8.8362439,5.47867317 C9.11195122,5.78950244 9.25331707,6.21974634 9.26034146,6.7571122 L9.26034146,11.2843317 C9.26034146,11.6557463 9.56853659,11.9577951 9.94785366,11.9577951 C10.3341951,11.9577951 10.6423902,11.6557463 10.6423902,11.2843317 L10.6423902,6.42081951 C10.6265854,5.66042927 10.3464878,5.01769756 9.81263415,4.50755122" id="Fill-37"></path>
                    <path d="M21.9052098,7.83474146 C21.9052098,6.32713171 22.9597463,5.07766829 24.2566244,5.04693659 L26.2954537,5.04869268 L26.2954537,10.6181561 L24.3110634,10.6207902 C22.9834537,10.6207902 21.9052098,9.37044878 21.9052098,7.83474146 M26.9820878,0.0446926829 C26.6036488,0.0446926829 26.2954537,0.348497561 26.2954537,0.762936585 L26.2954537,3.72283902 L24.3242341,3.72283902 C23.2802341,3.72283902 22.3214049,4.16098537 21.6128195,4.95649756 C20.9209171,5.73093659 20.542478,6.75298537 20.542478,7.83474146 C20.542478,10.1124 22.232722,11.9650829 24.3110634,11.9650829 L26.9908683,11.9650829 C27.3693073,11.9650829 27.6792585,11.6621561 27.6792585,11.2881073 L27.6792585,11.0378634 L27.6792585,4.58157073 L27.6792585,0.720790244 C27.6792585,0.348497561 27.3693073,0.0446926829 26.9820878,0.0446926829" id="Fill-39"></path>
                </g>
            </g>
        </g>
    </g>
</svg>
