<?xml version="1.0" encoding="UTF-8"?>
<svg width="168px" height="36px" viewBox="0 0 168 36" version="1.1" xmlns="http://www.w3.org/2000/svg" xmlns:xlink="http://www.w3.org/1999/xlink">
    <!-- Generator: Sketch 59.1 (86144) - https://sketch.com -->
    <title>mangochutney</title>
    <desc>Created with Sketch.</desc>
    <g id="Symbols" stroke="none" stroke-width="1" fill="none" fill-rule="evenodd">
        <g id="mangochutney">
            <g transform="translate(0.000000, 0.000000)">
                <g id="XMLID_72_" transform="translate(45.470285, 0.000000)" fill="#313F56" fill-rule="nonzero">
                    <path d="M97.9894578,3.99130464 C96.8179478,4.01086957 95.8648734,4.38260899 95.1301861,5.08695652 C94.3954989,5.79130405 94.0182539,6.76956492 93.9785515,7.98260854 L93.9785515,12.6391301 C93.9785515,13.0695643 94.3359453,13.4021739 94.7727923,13.4021739 C95.2096151,13.4021739 95.5670331,13.0499994 95.5670331,12.6391301 L95.5670331,7.96304363 C95.58686,7.21956553 95.8251468,6.61304334 96.2818207,6.16304348 C96.7385189,5.71304363 97.3143483,5.47826087 97.9695824,5.45869595 C98.6447162,5.47826087 99.2006702,5.71304363 99.6772195,6.16304348 C100.133893,6.61304332 100.37218,7.21956551 100.392007,7.96304363 L100.392007,12.6195652 C100.392007,13.0499994 100.749425,13.382609 101.186248,13.382609 L101.186248,13.382609 C101.623095,13.382609 101.980489,13.0304345 101.980489,12.6195652 L101.980489,7.96304363 C101.960662,6.75 101.563541,5.79130405 100.828854,5.0673916 C100.133918,4.36304332 99.1609678,3.99130464 97.9894578,3.99130464" id="XMLID_25_"></path>
                    <path d="M82.1840709,13.4021739 C83.3555809,13.382609 84.3086796,13.0108696 85.0433426,12.306522 C85.7780056,11.6021745 86.1552749,10.6239136 86.1950014,9.41087002 L86.1950014,4.75434767 C86.1950014,4.32391273 85.8375834,3.99130464 85.4007606,3.99130464 C84.9639137,3.99130464 84.6065198,4.34347765 84.6065198,4.75434767 L84.6065198,9.43043418 C84.5866445,10.1739123 84.3483819,10.7804345 83.8916838,11.25 C83.4350098,11.7000006 82.8591804,11.9347826 82.2039221,11.9543475 C81.5288368,11.9347826 80.9530074,11.6999991 80.4963213,11.25 C80.0396353,10.8000002 79.8013606,10.193478 79.7815095,9.44999984 L79.7815095,4.75434767 C79.7815095,4.32391273 79.4241035,3.99130464 78.9872687,3.99130464 L78.9872687,3.99130464 C78.5504338,3.99130464 78.1930279,4.34347765 78.1930279,4.75434767 L78.1930279,9.43043418 C78.212879,10.6434778 78.6099994,11.602173 79.3446746,12.326087 C80.0396111,13.0304345 81.0125609,13.4021739 82.1840709,13.4021739" id="XMLID_24_"></path>
                    <path d="M65.6837112,11.8760863 L62.8641539,11.8760863 C61.3749524,11.8369565 60.1637401,10.42826 60.1637401,8.706521 C60.1637401,6.9652171 61.4146669,5.53695562 62.9435828,5.53695562 L65.6837112,5.53695562 C66.120546,5.53695562 66.4779519,5.20434677 66.4779519,4.77391185 C66.4779519,4.34347693 66.120546,4.01086808 65.6837112,4.01086808 L62.9435828,4.01086808 C60.5410093,4.01086808 58.5951097,6.12391216 58.5951097,8.70652025 C58.5951097,9.93912879 59.0319445,11.0934762 59.8261853,11.9934759 C60.6402773,12.9130405 61.7522217,13.4021709 62.9435828,13.4021709 L62.963434,13.4021709 L65.7035623,13.4021709 C66.1403972,13.4021709 66.4978031,13.0695628 66.4978031,12.6391271 C66.4779519,12.2282609 66.120546,11.8760863 65.6837112,11.8760863" id="XMLID_23_"></path>
                    <path d="M75.2543151,5.10652145 C74.51964,4.40217391 73.5467023,4.03043449 72.3950434,4.01086957 L71.9184941,4.01086957 L71.7794996,4.01086957 L70.5285727,4.01086957 L70.5285727,4.01086957 L69.9924578,4.01086957 L69.9924578,3.4826078 L69.9924578,1.78043449 L69.9924578,0.899999707 C69.9924578,0.469564767 69.6350518,0.136955935 69.1783658,0.136955935 C68.7415309,0.136955935 68.384125,0.489130454 68.384125,0.958695222 L68.384125,12.6978264 C68.384125,13.0695658 68.7415309,13.4217388 69.1783658,13.4217388 C69.6152007,13.4217388 69.9726066,13.0695643 69.9726066,12.658695 L69.9726066,5.57608619 L72.3751801,5.57608619 C73.0502897,5.59565112 73.626107,5.77173837 74.082793,6.22173821 C74.539479,6.67173805 74.7777537,7.23912967 74.7976049,7.98260778 L74.7976049,12.658695 C74.7976049,13.0891292 75.1550108,13.4217388 75.5918457,13.4217388 L75.6116968,13.4217388 C76.0485317,13.4217388 76.4059376,13.0695643 76.4059376,12.658695 L76.4059376,7.94347795 C76.3861107,6.75 76.0088415,5.81086972 75.2543151,5.10652145" id="XMLID_22_"></path>
                    <path d="M91.6553827,5.51739146 L89.6102272,5.51739146 L89.6102272,9.97826087 C89.6102272,10.6630435 89.9080675,11.1913037 90.5434504,11.5239133 C91.0597021,11.7978267 91.6355315,11.8369565 91.6553827,11.8369565 C92.0922296,11.8565214 92.4496235,12.2282609 92.4297723,12.658695 C92.4099211,13.0891292 92.0326519,13.4413037 91.5958291,13.4217388 C91.496549,13.4217388 90.6824328,13.382609 89.8484897,12.9521733 C88.6571285,12.3456519 88.0018702,11.2695649 88.0018702,9.99782577 L88.0018702,0.860869859 C88.0018702,0.43043492 88.3592882,0.078261163 88.8159864,0.078261163 C89.2726603,0.078261163 89.6300541,0.43043492 89.6300541,0.860869859 L89.6300541,3.99130464 L90.1661812,3.99130464 L91.0199755,3.99130464 L91.6752338,3.99130464 C92.1120566,3.99130464 92.4694746,4.32391273 92.4694746,4.71521708 C92.4496235,5.10652145 92.0922296,5.51739146 91.6553827,5.51739146" id="XMLID_21_"></path>
                    <path d="M122.352784,4.75434767 C122.352784,4.32391273 121.995391,3.99130464 121.558544,3.99130464 C121.121721,3.99130464 120.764303,4.34347765 120.764303,4.75434767 L120.764303,9.35217376 C120.744476,10.0956519 120.506189,10.702174 120.049515,11.1717388 C119.592817,11.6217394 119.016988,11.8565214 118.361754,11.8760863 C117.68662,11.8565214 117.130666,11.6217379 116.654116,11.1717388 C116.197443,10.721739 115.959156,10.1152168 115.939329,9.35217376 L115.939329,4.75434767 C115.939329,4.32391273 115.581911,3.99130464 115.145088,3.99130464 C114.708241,3.99130464 114.350847,4.34347765 114.350847,4.75434767 L114.350847,9.35217376 C114.370674,10.5652174 114.767795,11.5239133 115.502482,12.2478258 C116.237169,12.9521733 117.210095,13.3239127 118.361754,13.3434777 C119.275126,13.3239127 120.049515,13.1086957 120.823905,12.6195652 C120.804054,13.4413038 120.625345,14.0673916 120.248075,14.4391311 C119.930384,14.7717391 119.692097,14.9673913 118.997136,14.9673913 L116.45558,14.9673913 C116.018734,14.9673913 115.66134,15.2999994 115.66134,15.6913037 C115.66134,16.102173 116.018734,16.4152162 116.45558,16.4152162 L118.957434,16.4152162 C120.248075,16.4152162 121.062167,15.7108686 121.538717,15.1239121 C121.955688,14.6152168 122.392535,13.5195649 122.392535,12.3847817 L122.352784,4.75434767 Z" id="XMLID_20_"></path>
                    <path d="M105.197203,8.2760868 C105.256756,6.22173897 106.765809,5.3021736 108.195433,5.3021736 C109.644932,5.3021736 111.193711,6.24130388 111.253289,8.2760868 L111.253289,8.2760868 L105.197203,8.2760868 Z M112.821895,8.84347842 C112.821895,5.45869595 110.39947,3.91304348 108.175606,3.91304348 C105.91199,3.91304348 103.608721,5.53695637 103.608721,8.62826058 C103.608721,10.9956516 105.078047,13.5195649 109.208109,13.5195649 C110.00235,13.5195649 110.657608,13.382609 111.531254,13.0695643 C112.682913,12.6391301 111.968101,11.5043469 111.233413,11.719564 C110.419346,11.954346 109.883219,12.0913034 109.108829,12.0913034 C106.964369,12.0913034 105.614174,11.2499985 105.316334,9.74347736 L111.809267,9.74347736 C112.504203,9.7239132 112.821895,9.35217376 112.821895,8.84347842 L112.821895,8.84347842 Z" id="XMLID_17_"></path>
                    <path d="M20.3127059,4.36304332 C19.8361686,4.14782548 19.3199049,4.04999939 18.7242243,4.04999939 L16.1429417,4.04999939 C15.7061068,4.04999939 15.3487009,4.38260899 15.3487009,4.77391259 C15.3487009,5.18478187 15.7061068,5.49782579 16.1429417,5.49782579 L18.8632188,5.49782579 C19.4390483,5.49782579 19.8957343,5.67391304 20.233289,6.02608682 C20.3325691,6.12391291 20.4318492,6.26086958 20.5509805,6.51521725 L17.2350228,6.51521725 C15.2891353,6.53478218 13.7205049,8.08043465 13.7205049,9.95869597 C13.7205049,11.8369573 15.3089864,13.382609 17.2747372,13.4021739 L21.5834839,13.4021739 C22.0203308,13.4021739 22.3777247,13.0499994 22.3777247,12.6391302 L22.3777247,8.08043467 C22.3777247,6.94565221 21.9210507,5.86956526 21.5239303,5.34130423 C21.047381,4.75434767 20.7892552,4.57826079 20.3127059,4.36304332 L20.3127059,4.36304332 Z M20.5708317,11.9543475 L17.2747372,11.9543475 C16.1429417,11.9543475 15.2295696,11.0739127 15.2295696,9.97826087 C15.2295696,8.86304332 16.1429538,8.00217421 17.3144517,8.00217421 L20.5509805,8.00217421 L20.5708317,11.9543475 Z" id="XMLID_14_"></path>
                    <path d="M41.3005212,4.03043449 L38.202987,4.03043449 C35.8004013,4.03043449 33.8545138,6.14347857 33.8545138,8.72608666 C33.8545138,9.9586952 34.2913487,11.1130426 35.0855895,11.9934789 C35.8996935,12.8934786 37.0116258,13.4021739 38.2228382,13.4021739 L40.5062804,13.4021739 C40.3871492,13.8717394 40.1488745,14.2434789 39.9503143,14.439131 C39.6326107,14.7717391 39.2156392,14.9478264 38.6993875,14.9673913 L36.1578194,14.9673913 C35.7209845,14.9673913 35.3635786,15.2999994 35.3635786,15.6913037 C35.3635786,16.102173 35.7209845,16.4152162 36.1578194,16.4152162 L38.7589652,16.4152162 L38.7589652,16.4152162 C39.195788,16.3956513 39.6127595,16.2782603 40.0297432,16.102173 C40.5062804,15.8869559 40.7644184,15.7108686 41.2409677,15.1239121 C41.6579393,14.6152168 42.094762,13.5195649 42.094762,12.3847817 L42.094762,4.75434693 C42.094762,4.38260899 41.7373561,4.03043449 41.3005212,4.03043449 M38.202987,5.57608696 L40.6254117,5.57608696 L40.6254117,11.9152177 L38.1434092,11.9152177 C36.6542078,11.8760879 35.4231442,10.4673913 35.4231442,8.74565231 C35.4231442,6.98478277 36.674071,5.57608696 38.202987,5.57608696" id="XMLID_11_"></path>
                    <path d="M28.2749771,4.05000016 C27.1034671,4.06956582 26.1503684,4.4413045 25.4157054,5.14565204 C24.6810302,5.84999955 24.3037731,6.82826116 24.2640586,8.02173913 L24.2640586,12.658695 C24.2640586,13.0891292 24.6214646,13.4217388 25.0582994,13.4217388 C25.4951343,13.4217388 25.8525402,13.0695643 25.8525402,12.658695 L25.8525402,8.00217421 C25.8724035,7.2586961 26.1106661,6.65217391 26.5673642,6.20217407 C27.0240381,5.75217423 27.5998676,5.51739146 28.2551259,5.49782654 C28.9302233,5.51739146 29.5060406,5.75217421 29.9627388,6.20217407 C30.4194248,6.65217391 30.6576995,7.2586961 30.6775506,8.00217423 L30.6775506,12.658695 C30.6775506,13.0891292 31.0349687,13.4217388 31.4717914,13.4217388 L31.4717914,13.4217388 C31.9086384,13.4217388 32.2660322,13.0695643 32.2660322,12.658695 L32.2660322,8.00217421 C32.246181,6.80869624 31.8490606,5.83043537 31.1143976,5.12608709 C30.3995615,4.42173884 29.4266238,4.05000016 28.2749771,4.05000016" id="XMLID_10_"></path>
                    <path d="M48.4685395,3.89347855 C45.8475425,3.89347855 43.722946,6.04565247 43.722946,8.70652174 C43.722946,11.367391 45.8475425,13.5195649 48.4685395,13.5195649 C51.0895366,13.5195649 53.2141331,11.367391 53.2141331,8.70652174 C53.2141331,6.06521739 51.0895366,3.89347855 48.4685395,3.89347855 M48.4685395,11.9152177 C46.7609267,11.9152177 45.3710053,10.486957 45.3710053,8.72608741 C45.3710053,6.96521784 46.7609267,5.53695713 48.4685395,5.53695713 C50.1761524,5.53695713 51.5462226,6.96521784 51.5462226,8.72608741 C51.5462226,10.4673913 50.1761645,11.9152177 48.4685395,11.9152177" id="XMLID_7_"></path>
                    <path d="M11.3973602,4.94999984 C10.7818163,4.36304332 9.96771226,4.06956506 8.99477456,4.04999939 C8.4586596,4.04999939 7.94240793,4.14782548 7.46585861,4.36304332 C7.02902375,4.5586955 6.51277208,4.85217376 6.21493178,5.22391318 L6.21493178,5.22391318 L6.21493178,5.22391318 C5.91709149,4.85217376 5.4008277,4.55869587 4.96400496,4.36304407 C4.48745564,4.14782622 3.97120396,4.04999939 3.43508901,4.04999939 C2.4621513,4.0695658 1.66791051,4.38260899 1.03250334,4.94999984 C0.416971571,5.53695637 0.0992800991,6.26086957 0.0794289242,7.12173942 L0.0794289242,12.658695 C0.0794289242,13.0891292 0.436822746,13.4217403 0.873669717,13.4217403 C1.31049246,13.4217403 1.66791051,13.0695643 1.66791051,12.658695 L1.66791051,7.51304377 C1.66791051,6.90652233 1.84660742,6.41739189 2.16431101,6.06521739 C2.48200248,5.71304363 2.91882522,5.51739146 3.51450582,5.51739146 C4.09033524,5.51739146 4.56688456,5.69347871 4.90442721,6.04565249 C5.24199408,6.39782624 5.44055428,6.98478277 5.44055428,7.78695713 L5.44055428,12.6586966 C5.44055428,13.0695658 5.77809692,13.4021754 6.21493178,13.4217403 L6.21493178,13.4217403 L6.21493178,13.4217403 L6.21493178,13.4217403 L6.21493178,13.4217403 C6.65176664,13.4021754 6.98930929,13.0695658 6.98930929,12.6586966 L6.98930929,7.76739146 C6.98930929,6.96521784 7.16801831,6.37826132 7.52543636,6.02608756 C7.86297901,5.67391381 8.33952833,5.49782654 8.91535775,5.49782654 C9.49117505,5.49782654 9.92800991,5.69347871 10.2655526,6.04565247 C10.5832561,6.39782622 10.7421019,6.88695666 10.7619531,7.49347885 L10.7619531,12.6391316 C10.7619531,13.0695658 11.1193711,13.4021754 11.5561938,13.4021754 C11.9930408,13.4021754 12.3504346,13.0499994 12.3504346,12.6391316 L12.3504346,7.12173942 C12.3504346,6.26086957 12.012892,5.53695637 11.3973602,4.94999984" id="XMLID_6_"></path>
                </g>
                <g id="XMLID_1_" transform="translate(0.000000, 5.673913)" fill="#001489" fill-rule="nonzero">
                    <path d="M0.0992800991,1.81956506 L1.01265822,1.81956506 L1.94588752,4.94999984 C2.02531644,5.18478261 2.04516762,5.41956461 2.06502485,5.41956461 L2.08488208,5.41956461 C2.08488208,5.41956461 2.12459049,5.16521694 2.20401336,4.9499991 L3.17696317,1.83912924 L3.97120396,1.83912924 L4.96400496,4.93043494 C5.04342782,5.1652177 5.08314229,5.39999971 5.08314229,5.39999971 L5.10299952,5.39999971 C5.10299952,5.39999971 5.14270792,5.14565204 5.20227962,4.9304342 L6.15536615,1.79999941 L7.06874427,1.79999941 L5.61925119,6.26086957 L4.66616466,6.26086957 L3.7329293,3.40434812 C3.65350644,3.16956535 3.61379803,2.91521768 3.61379803,2.91521768 L3.57408357,2.91521768 C3.57408357,2.91521768 3.51451793,3.16956535 3.45494624,3.40434812 L2.52171694,6.26086957 L1.54876712,6.26086957 L0.0992800991,1.81956506 Z" id="XMLID_26_"></path>
                    <path d="M9.63016961,1.70217407 C10.9009537,1.70217407 11.5959144,2.64130435 11.5959144,3.79565249 C11.5959144,3.9130435 11.5760571,4.16739191 11.5760571,4.16739191 L8.26010546,4.16739191 C8.29981386,5.14565278 9.01463179,5.63478322 9.80887258,5.63478322 C10.5832561,5.63478322 11.1392283,5.10652219 11.1392283,5.10652219 L11.4966343,5.7326093 C11.4966343,5.7326093 10.8215308,6.35869565 9.74930694,6.35869565 C8.3196711,6.35869565 7.34672733,5.34130495 7.34672733,4.03043449 C7.36658457,2.62173942 8.33952833,1.70217407 9.63016961,1.70217407 Z M10.7023935,3.52173913 C10.6825362,2.75869536 10.1861357,2.38695668 9.61031238,2.38695668 C8.95506615,2.38695668 8.41895119,2.79782595 8.27996269,3.52173913 L10.7023935,3.52173913 Z" id="XMLID_28_"></path>
                    <path d="M12.4100124,0.0586954957 L13.2836761,0.0586954957 L13.2836761,2.09347765 C13.2836761,2.30869475 13.2638188,2.46521708 13.2638188,2.46521708 L13.2836761,2.46521708 C13.2836761,2.46521708 13.6609392,1.70217331 14.7331691,1.70217331 C15.9443815,1.70217331 16.7187711,2.66086925 16.7187711,4.03043447 C16.7187711,5.43912953 15.8451014,6.35869565 14.6735974,6.35869565 C13.6609392,6.35869565 13.2439676,5.59565188 13.2439676,5.59565188 L13.2241104,5.59565188 C13.2241104,5.59565188 13.2439676,5.7326078 13.2439676,5.92825997 L13.2439676,6.26086957 L12.4298696,6.26086957 L12.4298696,0.0586954957 L12.4100124,0.0586954957 Z M14.5346089,5.63478322 C15.2494208,5.63478322 15.8451014,5.04782669 15.8451014,4.0500009 C15.8451014,3.09130495 15.3089925,2.46521858 14.5743234,2.46521858 C13.8992139,2.46521858 13.2638249,2.9347841 13.2638249,4.06956657 C13.2638249,4.85217376 13.6807964,5.63478322 14.5346089,5.63478322 Z" id="XMLID_31_"></path>
                    <path d="M17.612292,5.10652145 C17.612292,5.10652145 18.1285437,5.63478171 18.9029333,5.63478171 C19.2801904,5.63478171 19.6574596,5.43912953 19.6574596,5.08695578 C19.6574596,4.26521649 17.3343029,4.44130376 17.3343029,2.97391246 C17.3343029,2.17173884 18.068978,1.70217333 18.9624989,1.70217333 C19.9552999,1.70217333 20.411986,2.19130376 20.411986,2.19130376 L20.05458,2.83695578 C20.05458,2.83695578 19.6574596,2.44565143 18.9426417,2.44565143 C18.5653785,2.44565143 18.2079726,2.60217301 18.2079726,2.99347736 C18.2079726,3.79565098 20.5311233,3.61956447 20.5311233,5.08695578 C20.5311233,5.83043388 19.8957343,6.37826058 18.9029333,6.37826058 C17.7909889,6.37826058 17.1953083,5.7326078 17.1953083,5.7326078 L17.612292,5.10652145 Z" id="XMLID_34_"></path>
                    <path d="M21.3253641,0.0586954957 L22.3434364,0.0586954957 L22.3434364,0.939130278 L21.3253641,0.939130278 L21.3253641,0.0586954957 Z M21.3253641,1.81956506 L22.3434364,1.81956506 L22.3434364,6.26086957 L21.3253641,6.26086957 L21.3253641,1.81956506 Z" id="XMLID_36_"></path>
                    <path d="M23.5293835,2.56304318 L22.9337029,2.56304318 L22.9337029,1.87826058 L23.5492407,1.87826058 L23.5492407,0.586956522 L24.3831899,0.586956522 L24.3831899,1.87826058 L25.475271,1.87826058 L25.475271,2.56304318 L24.3831899,2.56304318 L24.3831899,4.53912985 C24.3831899,5.41956463 25.018585,5.53695564 25.3561397,5.53695564 C25.475271,5.53695564 25.5546999,5.51739072 25.5546999,5.51739072 L25.5546999,6.28043449 C25.5546999,6.28043449 25.4355565,6.29999941 25.2568596,6.29999941 C24.6810302,6.29999941 23.5293835,6.12391216 23.5293835,4.63695593 L23.5293835,2.56304318 L23.5293835,2.56304318 Z" id="XMLID_39_"></path>
                    <path d="M28.2551138,1.70217407 C29.5259039,1.70217407 30.2208646,2.64130435 30.2208646,3.79565249 C30.2208646,3.9130435 30.2010013,4.16739191 30.2010013,4.16739191 L26.9049069,4.16739191 C26.9446092,5.14565278 27.6594332,5.63478322 28.453674,5.63478322 C29.2280515,5.63478322 29.7840297,5.10652219 29.7840297,5.10652219 L30.1414357,5.7326093 C30.1414357,5.7326093 29.4663383,6.35869565 28.3941083,6.35869565 C26.9644725,6.35869565 25.9915227,5.34130495 25.9915227,4.03043449 C25.9915227,2.62173942 26.9644725,1.70217407 28.2551138,1.70217407 Z M29.3273437,3.52173913 C29.3074804,2.75869536 28.8110799,2.38695668 28.2352626,2.38695668 C27.5800164,2.38695668 27.0439014,2.79782595 26.9049069,3.52173913 L29.3273437,3.52173913 Z" id="XMLID_41_"></path>
                    <path d="M33.1198386,0.0586954957 L33.9935084,0.0586954957 L33.9935084,2.09347765 C33.9935084,2.30869475 33.9736451,2.46521708 33.9736451,2.46521708 L33.9935084,2.46521708 C33.9935084,2.46521708 34.3707655,1.70217331 35.4429954,1.70217331 C36.6542078,1.70217331 37.4285974,2.66086925 37.4285974,4.03043447 C37.4285974,5.43912953 36.5549277,6.35869565 35.3834297,6.35869565 C34.3707655,6.35869565 33.9537939,5.59565188 33.9537939,5.59565188 L33.9339427,5.59565188 C33.9339427,5.59565188 33.9537939,5.7326078 33.9537939,5.92825997 L33.9537939,6.26086957 L33.1397019,6.26086957 L33.1397019,0.0586954957 L33.1198386,0.0586954957 Z M35.2444352,5.63478322 C35.9592471,5.63478322 36.5549277,5.04782669 36.5549277,4.0500009 C36.5549277,3.09130495 36.0188248,2.46521858 35.2841496,2.46521858 C34.6090522,2.46521858 33.9736451,2.9347841 33.9736451,4.06956657 C33.9537939,4.85217376 34.3707655,5.63478322 35.2444352,5.63478322 Z" id="XMLID_44_"></path>
                    <path d="M37.9249979,7.20000061 C37.9249979,7.20000061 38.1831237,7.37608786 38.4611128,7.37608786 C38.8185188,7.37608786 39.0965079,7.12173942 39.2752048,6.73043508 L39.4936283,6.22173972 L37.6073064,1.8195658 L38.5802441,1.8195658 L39.7120396,4.73478351 C39.7914686,4.96956627 39.8907487,5.26304453 39.8907487,5.26304453 L39.9105998,5.26304453 C39.9105998,5.26304453 39.9900288,4.96956627 40.0694456,4.73478351 L41.1615267,1.8195658 L42.094762,1.8195658 L39.9701655,7.0826096 C39.6921885,7.7673922 39.1362102,8.13913163 38.5008273,8.13913163 C37.9845635,8.13913163 37.6271576,7.86521829 37.6271576,7.86521829 L37.9249979,7.20000061 Z" id="XMLID_47_"></path>
                </g>
                <g id="XMLID_88_" transform="translate(0.000000, 19.565217)" fill-rule="nonzero">
                    <g id="XMLID_113_" transform="translate(45.470285, 0.000000)" fill="#4080FF">
                        <path d="M97.9894578,3.99130315 C96.8179478,4.01086957 95.8648734,4.3826075 95.1301861,5.08695652 C94.3954989,5.79130554 94.0182539,6.76956641 93.9785515,7.9826093 L93.9785515,12.6391316 C93.9785515,13.0695658 94.3359453,13.4021739 94.7727923,13.4021739 C95.2096151,13.4021739 95.5670331,13.0499994 95.5670331,12.6391316 L95.5670331,7.9826093 C95.58686,7.23913043 95.8251468,6.6326105 96.2818207,6.18260991 C96.7385189,5.7326093 97.3143483,5.4978273 97.9695824,5.47826089 C98.6447162,5.4978273 99.2006702,5.73260932 99.6772195,6.18260991 C100.133893,6.63261052 100.37218,7.23913045 100.392007,7.9826093 L100.392007,12.6391316 C100.392007,13.0695658 100.749425,13.4021739 101.186248,13.4021739 L101.186248,13.4021739 C101.623095,13.4021739 101.980489,13.0499994 101.980489,12.6391316 L101.980489,7.9826093 C101.960662,6.76956641 101.563541,5.81086896 100.828854,5.08695652 C100.133918,4.36304408 99.1609678,3.99130315 97.9894578,3.99130315" id="XMLID_133_"></path>
                        <path d="M82.1840709,13.4021739 C83.3555809,13.3826075 84.3086796,13.0108696 85.0433426,12.3065205 C85.7780056,11.6021715 86.1552749,10.6239107 86.1950014,9.41086777 L86.1950014,4.734782 C86.1950014,4.30434783 85.8375834,3.97173972 85.4007606,3.97173972 C84.9639137,3.97173972 84.6065198,4.32391424 84.6065198,4.734782 L84.6065198,9.41086777 C84.5866445,10.1543466 84.3483819,10.7608666 83.8916838,11.2304336 C83.4350098,11.6804342 82.8591804,11.9152162 82.2039221,11.9347826 C81.5288368,11.9152162 80.9530074,11.6804342 80.4963213,11.2304336 C80.0396353,10.780433 79.8013606,10.173913 79.7815095,9.4304342 L79.7815095,4.75434843 C79.7815095,4.32391426 79.4241035,3.99130615 78.9872687,3.99130615 L78.9872687,3.99130615 C78.5504338,3.99130615 78.1930279,4.34348067 78.1930279,4.75434843 L78.1930279,9.4304342 C78.212879,10.6434771 78.6099994,11.6021745 79.3446746,12.326087 C80.0396111,13.030436 81.0125609,13.4021739 82.1840709,13.4021739" id="XMLID_132_"></path>
                        <path d="M65.6837112,11.8760863 L62.8641539,11.8760863 C61.3749524,11.8369565 60.1637401,10.4282615 60.1637401,8.70652174 C60.1637401,6.96521858 61.4146669,5.53695713 62.9435828,5.53695713 L65.6837112,5.53695713 C66.120546,5.53695713 66.4779519,5.20434904 66.4779519,4.77391484 C66.4779519,4.34348065 66.120546,4.01087256 65.6837112,4.01087256 L62.9435828,4.01087256 C60.5410093,4.01087256 58.5951097,6.12391664 58.5951097,8.70652473 C58.5951097,9.93913403 59.0319445,11.0934806 59.8261853,11.9934819 C60.6402773,12.9130465 61.7522217,13.4021769 62.9435828,13.4021769 L62.963434,13.4021769 L65.7035623,13.4021769 C66.1403972,13.4021769 66.4978031,13.0695688 66.4978031,12.6391346 C66.4779519,12.2282609 66.120546,11.8760863 65.6837112,11.8760863" id="XMLID_131_"></path>
                        <path d="M75.2543151,5.10652293 C74.51964,4.40217391 73.5467023,4.03043598 72.3950434,4.01086957 L71.9184941,4.01086957 L71.7794996,4.01086957 L70.5285727,4.01086957 L70.5285727,4.01086957 L69.9924578,4.01086957 L69.9924578,3.4826093 L69.9924578,1.780436 L69.9924578,0.900001213 C69.9924578,0.469567037 69.6350518,0.136957441 69.1783658,0.136957441 C68.7415309,0.136957441 68.384125,0.489131961 68.384125,0.958695965 L68.384125,12.6978249 C68.384125,13.0695628 68.7415309,13.4217373 69.1783658,13.4217373 C69.6152007,13.4217373 69.9726066,13.0695628 69.9726066,12.6586951 L69.9726066,5.57608696 L72.3751801,5.57608696 C73.0502897,5.59565337 73.626107,5.77173913 74.082793,6.22173974 C74.539479,6.67174034 74.7777537,7.23913043 74.7976049,7.9826093 L74.7976049,12.6586951 C74.7976049,13.0891292 75.1550108,13.4217373 75.5918457,13.4217373 L75.6116968,13.4217373 C76.0485317,13.4217373 76.4059376,13.0695628 76.4059376,12.6586951 L76.4059376,7.9826093 C76.3861107,6.75 76.0088415,5.81086896 75.2543151,5.10652293" id="XMLID_130_"></path>
                        <path d="M91.6553827,5.5173907 L89.6102272,5.5173907 L89.6102272,9.97826087 C89.6102272,10.6630435 89.9080675,11.1913037 90.5434504,11.5239119 C91.0597021,11.7978237 91.6355315,11.8369565 91.6553827,11.8369565 C92.0922296,11.8565229 92.4496235,12.2282609 92.4297723,12.658695 C92.4099211,13.0891292 92.0326519,13.4413037 91.5958291,13.4217373 C91.496549,13.4217373 90.6824328,13.3826075 89.8484897,12.9521733 C88.6571285,12.3456504 88.0018702,11.2695634 88.0018702,9.99782429 L88.0018702,0.880433296 C88.0018702,0.44999912 88.3592882,0.0978246 88.8159864,0.0978246 C89.2726603,0.0978246 89.6300541,0.44999912 89.6300541,0.880433296 L89.6300541,4.01086957 L90.1661812,4.01086957 L91.0199755,4.01086957 L91.6752338,4.01086957 C92.1120566,4.01086957 92.4694746,4.34347765 92.4694746,4.734782 C92.4496235,5.10652293 92.0922296,5.5173907 91.6553827,5.5173907" id="XMLID_129_"></path>
                        <path d="M122.352784,4.75434843 C122.352784,4.32391426 121.995391,3.99130615 121.558544,3.99130615 C121.121721,3.99130615 120.764303,4.34348067 120.764303,4.75434843 L120.764303,9.35217452 C120.744476,10.0956534 120.506189,10.7021733 120.049515,11.1717403 C119.592817,11.6217409 119.016988,11.856523 118.361754,11.8760894 C117.68662,11.856523 117.130666,11.6217409 116.654116,11.1717403 C116.197443,10.7217397 115.959156,10.1152198 115.939329,9.37174095 L115.939329,4.77391486 C115.939329,4.34348069 115.581911,4.01087258 115.145088,4.01087258 C114.708241,4.01087258 114.350847,4.3630471 114.350847,4.77391486 L114.350847,9.37174095 C114.370674,10.5847838 114.767795,11.5434813 115.502482,12.2673937 C116.237169,12.9717427 117.210095,13.3434806 118.361754,13.3630471 C119.275126,13.3434806 120.049515,13.1282651 120.823905,12.6391346 C120.804054,13.4608731 120.625345,14.0869595 120.248075,14.4587004 C119.930384,14.7913085 119.692097,14.9869607 118.997136,14.9869607 L116.45558,14.9869607 C116.018734,14.9869607 115.66134,15.3195688 115.66134,15.7108731 C115.66134,16.1217439 116.018734,16.4347856 116.45558,16.4347856 L118.957434,16.4347856 C120.248075,16.4347856 121.062167,15.7304366 121.538717,15.14348 C121.955688,14.6347832 122.392535,13.5391328 122.392535,12.4043496 L122.352784,4.75434843 Z" id="XMLID_128_"></path>
                        <path d="M105.197203,8.27608756 C105.256756,6.22173974 106.765809,5.30217513 108.195433,5.30217513 C109.644932,5.30217513 111.193711,6.24130617 111.253289,8.27608756 L111.253289,8.27608756 L105.197203,8.27608756 Z M112.821895,8.84347765 C112.821895,5.45869446 110.39947,3.91304348 108.175606,3.91304348 C105.91199,3.91304348 103.608721,5.53695713 103.608721,8.62826206 C103.608721,10.9956546 105.078047,13.5195664 109.208109,13.5195664 C110.00235,13.5195664 110.657608,13.3826105 111.531254,13.0695658 C112.682913,12.6391316 111.968101,11.5043484 111.233413,11.719567 C110.419346,11.954349 109.883219,12.0913049 109.108829,12.0913049 C106.964369,12.0913049 105.614174,11.25 105.316334,9.74347885 L111.809267,9.74347885 C112.504203,9.72391244 112.821895,9.35217452 112.821895,8.84347765 L112.821895,8.84347765 Z" id="XMLID_125_"></path>
                        <path d="M20.3127059,4.36304408 C19.8361686,4.1478255 19.3199049,4.04999941 18.7242243,4.04999941 L16.1429417,4.04999941 C15.7061068,4.04999941 15.3487009,4.3826075 15.3487009,4.77391185 C15.3487009,5.18478261 15.7061068,5.49782429 16.1429417,5.49782429 L18.8632188,5.49782429 C19.4390483,5.49782429 19.8957343,5.67391005 20.233289,6.02608455 C20.3325691,6.12391064 20.4318492,6.26086655 20.5509805,6.51521498 L17.2350228,6.51521498 C15.2891353,6.5347814 13.7205049,8.08043238 13.7205049,9.95869444 C13.7205049,11.8369565 15.3089864,13.3826075 17.2747372,13.4021739 L21.5834839,13.4021739 C22.0203308,13.4021739 22.3777247,13.0499994 22.3777247,12.6391316 L22.3777247,8.06087195 C22.3777247,6.92608874 21.9210507,5.85000178 21.5239303,5.32174152 C21.047381,4.75434843 20.7892552,4.57825968 20.3127059,4.36304408 L20.3127059,4.36304408 Z M20.5708317,11.954349 L17.2747372,11.954349 C16.1429417,11.954349 15.2295696,11.0739142 15.2295696,9.97826087 C15.2295696,8.86304408 16.1429538,8.00217272 17.3144517,8.00217272 L20.5509805,8.00217272 L20.5708317,11.954349 Z" id="XMLID_122_"></path>
                        <path d="M41.3005212,4.03043598 L38.202987,4.03043598 C35.8004013,4.03043598 33.8545138,6.14348006 33.8545138,8.72608815 C33.8545138,9.95869745 34.2913487,11.1130441 35.0855895,11.9934788 C35.8996935,12.8934801 37.0116258,13.4021739 38.2228382,13.4021739 L40.5062804,13.4021739 C40.3871492,13.8717379 40.1488745,14.2434789 39.9503143,14.439131 C39.6326107,14.7717391 39.2156392,14.9478279 38.6993875,14.9673913 L36.1578194,14.9673913 C35.7209845,14.9673913 35.3635786,15.2999994 35.3635786,15.6913037 C35.3635786,16.1021745 35.7209845,16.4152162 36.1578194,16.4152162 L38.7589652,16.4152162 L38.7589652,16.4152162 C39.195788,16.3956498 39.6127595,16.2782603 40.0297432,16.1021715 C40.5062804,15.8869529 40.7644184,15.7108672 41.2409677,15.1239106 C41.6579393,14.6152138 42.094762,13.5195634 42.094762,12.3847802 L42.094762,4.75434542 C42.094762,4.3826075 41.7373561,4.03043598 41.3005212,4.03043598 M38.202987,5.57608696 L40.6254117,5.57608696 L40.6254117,11.9152162 L38.1434092,11.9152162 C36.6542078,11.8760864 35.4231442,10.4673913 35.4231442,8.74565159 C35.4231442,6.984782 36.674071,5.57608696 38.202987,5.57608696" id="XMLID_119_"></path>
                        <path d="M28.2749771,4.04999939 C27.1034671,4.0695658 26.1503684,4.44130374 25.4157054,5.14565276 C24.6810302,5.8500018 24.3037731,6.82826267 24.2640586,8.02173913 L24.2640586,12.658695 C24.2640586,13.0891292 24.6214646,13.4217373 25.0582994,13.4217373 C25.4951343,13.4217373 25.8525402,13.0695628 25.8525402,12.658695 L25.8525402,8.00217272 C25.8724035,7.25869385 26.1106661,6.65217391 26.5673642,6.20217331 C27.0240381,5.7521727 27.5998676,5.5173907 28.2551259,5.49782429 C28.9302233,5.5173907 29.5060406,5.75217272 29.9627388,6.20217331 C30.4194248,6.65217391 30.6576995,7.25869385 30.6775506,8.0021727 L30.6775506,12.658695 C30.6775506,13.0891292 31.0349687,13.4217373 31.4717914,13.4217373 L31.4717914,13.4217373 C31.9086384,13.4217373 32.2660322,13.0695628 32.2660322,12.658695 L32.2660322,8.02173913 C32.246181,6.82825968 31.8490606,5.84999881 31.1143976,5.14565278 C30.3995615,4.42174032 29.4266238,4.04999939 28.2749771,4.04999939" id="XMLID_118_"></path>
                        <path d="M48.4685395,3.89347855 C45.8475425,3.89347855 43.722946,6.04565098 43.722946,8.70652174 C43.722946,11.3673925 45.8475425,13.5195664 48.4685395,13.5195664 C51.0895366,13.5195664 53.2141331,11.3673925 53.2141331,8.70652174 C53.2141331,6.06521739 51.0895366,3.89347855 48.4685395,3.89347855 M48.4685395,11.9152162 C46.7609267,11.9152162 45.3710053,10.4869547 45.3710053,8.72608516 C45.3710053,6.96521559 46.7609267,5.53695412 48.4685395,5.53695412 C50.1761524,5.53695412 51.5462226,6.96521559 51.5462226,8.72608516 C51.5462226,10.4673913 50.1761645,11.9152162 48.4685395,11.9152162" id="XMLID_115_"></path>
                        <path d="M11.3973602,4.95000061 C10.7818163,4.36304408 9.96771226,4.06956582 8.99477456,4.04999941 C8.4586596,4.04999941 7.94240793,4.1478255 7.46585861,4.36304408 C7.02902375,4.55869626 6.51277208,4.85217452 6.21493178,5.22391246 L6.21493178,5.22391246 L6.21493178,5.22391246 C5.91709149,4.85217452 5.4008277,4.55869626 4.96400496,4.36304408 C4.48745564,4.1478255 3.97120396,4.04999941 3.43508901,4.04999941 C2.4621513,4.06956582 1.66791051,4.3826075 1.03250334,4.95000061 C0.416971571,5.53695713 0.0992800991,6.26086957 0.0794289242,7.12174093 L0.0794289242,12.6586981 C0.0794289242,13.0891322 0.436822746,13.4217404 0.873669717,13.4217404 C1.31049246,13.4217404 1.66791051,13.0695658 1.66791051,12.6586981 L1.66791051,7.51304528 C1.66791051,6.90652235 1.84660742,6.41739191 2.16431101,6.06522038 C2.48200248,5.71304587 2.91882522,5.51739369 3.51450582,5.51739369 C4.09033524,5.51739369 4.56688456,5.69347945 4.90442721,6.04565395 C5.24199408,6.39782847 5.44055428,6.984785 5.44055428,7.78695711 L5.44055428,12.658695 C5.44055428,13.0695658 5.77809692,13.4021739 6.21493178,13.4217404 L6.21493178,13.4217404 L6.21493178,13.4217404 L6.21493178,13.4217404 L6.21493178,13.4217404 C6.65176664,13.4021709 6.98930929,13.0695628 6.98930929,12.658695 L6.98930929,7.78695713 C6.98930929,6.98478202 7.16801831,6.3978255 7.52543636,6.04565397 C7.86297901,5.69347945 8.33952833,5.51739371 8.91535775,5.51739371 C9.49117505,5.51739371 9.92800991,5.71304588 10.2655526,6.0652204 C10.5832561,6.41739492 10.7421019,6.90652536 10.7619531,7.5130453 L10.7619531,12.6586981 C10.7619531,13.0891323 11.1193711,13.4217404 11.5561938,13.4217404 C11.9930408,13.4217404 12.3504346,13.0695658 12.3504346,12.6586981 L12.3504346,7.12174093 C12.3504346,6.26086957 12.012892,5.53695713 11.3973602,4.95000061" id="XMLID_114_"></path>
                    </g>
                    <g id="XMLID_89_" transform="translate(0.000000, 5.673913)" fill="#313F56">
                        <path d="M0.0992800991,1.8195658 L1.01265822,1.8195658 L1.94588752,4.95000061 C2.02531644,5.18478261 2.04516762,5.41956463 2.06502485,5.41956463 L2.08488208,5.41956463 C2.08488208,5.41956463 2.12459049,5.1652162 2.20401336,4.95000061 L3.17696317,1.83913223 L3.97120396,1.83913223 L4.94414772,4.95000061 C5.02357059,5.18478261 5.06328506,5.41956461 5.06328506,5.41956461 L5.08313623,5.41956461 C5.08313623,5.41956461 5.12285069,5.16521618 5.18241633,4.95000059 L6.13550891,1.8195658 L7.04888704,1.8195658 L5.61925119,6.26086957 L4.66616466,6.26086957 L3.7329293,3.40434663 C3.65350644,3.16956463 3.61379803,2.9152162 3.61379803,2.9152162 L3.57408357,2.9152162 C3.57408357,2.9152162 3.51451793,3.16956463 3.45494624,3.40434663 L2.52171694,6.26086957 L1.54876712,6.26086957 L0.0992800991,1.8195658 Z" id="XMLID_111_"></path>
                        <path d="M9.63016961,1.70217331 C10.9009537,1.70217331 11.5959144,2.64130435 11.5959144,3.79565096 C11.5959144,3.91304346 11.5760571,4.1673889 11.5760571,4.1673889 L8.26010546,4.1673889 C8.29981386,5.14564977 9.01463179,5.6347802 9.80887258,5.6347802 C10.5832561,5.6347802 11.1392283,5.10651994 11.1392283,5.10651994 L11.4966343,5.73260629 C11.4966343,5.73260629 10.8215308,6.35869264 9.74930694,6.35869264 C8.3196711,6.35869264 7.34672733,5.34130196 7.34672733,4.03043298 C7.36658457,2.62173794 8.33952833,1.70217331 9.63016961,1.70217331 Z M10.7023935,3.52173913 C10.6825362,2.75869685 10.1861357,2.38695592 9.61031238,2.38695592 C8.95506615,2.38695592 8.41895119,2.79782667 8.27996269,3.52173913 L10.7023935,3.52173913 Z" id="XMLID_108_"></path>
                        <path d="M12.4100124,0.0586962587 L13.2836761,0.0586962587 L13.2836761,2.09347767 C13.2836761,2.30869626 13.2638188,2.46521561 13.2638188,2.46521561 L13.2836761,2.46521561 C13.2836761,2.46521561 13.6609392,1.70217333 14.7331691,1.70217333 C15.9443815,1.70217333 16.7187711,2.66086778 16.7187711,4.030433 C16.7187711,5.43912805 15.8451014,6.35869268 14.6735974,6.35869268 C13.6609392,6.35869268 13.2439676,5.59565039 13.2439676,5.59565039 L13.2241104,5.59565039 C13.2241104,5.59565039 13.2439676,5.73260631 13.2439676,5.92825848 L13.2439676,6.26086657 L12.4298696,6.26086657 L12.4298696,0.0586962587 L12.4100124,0.0586962587 Z M14.5346089,5.63478322 C15.2494208,5.63478322 15.8451014,5.04782669 15.8451014,4.04999941 C15.8451014,3.09130495 15.3089925,2.46521561 14.5743234,2.46521561 C13.8992139,2.46521561 13.2638249,2.93477963 13.2638249,4.06956283 C13.2638249,4.85217452 13.6807964,5.63478322 14.5346089,5.63478322 Z" id="XMLID_105_"></path>
                        <path d="M17.612292,5.10652293 C17.612292,5.10652293 18.1285437,5.6347832 18.9029333,5.6347832 C19.2801904,5.6347832 19.6574596,5.43913102 19.6574596,5.0869565 C19.6574596,4.26521798 17.3343029,4.44130372 17.3343029,2.97391242 C17.3343029,2.17173731 18.068978,1.70217329 18.9624989,1.70217329 C19.9552999,1.70217329 20.411986,2.19130372 20.411986,2.19130372 L20.05458,2.83695652 C20.05458,2.83695652 19.6574596,2.44565217 18.9426417,2.44565217 C18.5653785,2.44565217 18.2079726,2.60217452 18.2079726,2.99347887 C18.2079726,3.79565397 20.5311233,3.61956522 20.5311233,5.08695652 C20.5311233,5.83043539 19.8957343,6.37826206 18.9029333,6.37826206 C17.7909889,6.37826206 17.1953083,5.73260928 17.1953083,5.73260928 L17.612292,5.10652293 Z" id="XMLID_103_"></path>
                        <path d="M21.3253641,0.0586962587 L22.3434364,0.0586962587 L22.3434364,0.939131041 L21.3253641,0.939131041 L21.3253641,0.0586962587 Z M21.3253641,1.81956582 L22.3434364,1.81956582 L22.3434364,6.26086957 L21.3253641,6.26086957 L21.3253641,1.81956582 Z" id="XMLID_100_"></path>
                        <path d="M23.5293835,2.56304467 L22.9337029,2.56304467 L22.9337029,1.87826206 L23.5492407,1.87826206 L23.5492407,0.586956522 L24.3831899,0.586956522 L24.3831899,1.87826206 L25.475271,1.87826206 L25.475271,2.56304467 L24.3831899,2.56304467 L24.3831899,4.53913282 C24.3831899,5.4195676 25.018585,5.5369601 25.3561397,5.5369601 C25.475271,5.5369601 25.5546999,5.51739369 25.5546999,5.51739369 L25.5546999,6.28043598 C25.5546999,6.28043598 25.4355565,6.30000239 25.2568596,6.30000239 C24.6810302,6.30000239 23.5293835,6.12391662 23.5293835,4.63695891 L23.5293835,2.56304467 L23.5293835,2.56304467 Z" id="XMLID_98_"></path>
                        <path d="M28.2551138,1.70217331 C29.5259039,1.70217331 30.2208646,2.64130435 30.2208646,3.79565096 C30.2208646,3.91304346 30.2010013,4.1673889 30.2010013,4.1673889 L26.9049069,4.1673889 C26.9446092,5.14564977 27.6594332,5.6347802 28.453674,5.6347802 C29.2280515,5.6347802 29.7840297,5.10651994 29.7840297,5.10651994 L30.1414357,5.73260629 C30.1414357,5.73260629 29.4663383,6.35869264 28.3941083,6.35869264 C26.9644725,6.35869264 25.9915227,5.34130194 25.9915227,4.03043296 C25.9915227,2.62173794 26.9644725,1.70217331 28.2551138,1.70217331 Z M29.3273437,3.52173913 C29.3074804,2.75869685 28.8110799,2.38695592 28.2352626,2.38695592 C27.5800164,2.38695592 27.0439014,2.79782667 26.9049069,3.52173913 L29.3273437,3.52173913 Z" id="XMLID_95_"></path>
                        <path d="M33.1198386,0.0586962587 L33.9935084,0.0586962587 L33.9935084,2.09347767 C33.9935084,2.30869626 33.9736451,2.46521561 33.9736451,2.46521561 L33.9935084,2.46521561 C33.9935084,2.46521561 34.3707655,1.70217333 35.4429954,1.70217333 C36.6542078,1.70217333 37.4285974,2.66086778 37.4285974,4.030433 C37.4285974,5.43912805 36.5549277,6.35869268 35.3834297,6.35869268 C34.3707655,6.35869268 33.9537939,5.59565039 33.9537939,5.59565039 L33.9339427,5.59565039 C33.9339427,5.59565039 33.9537939,5.73260631 33.9537939,5.92825848 L33.9537939,6.26086657 L33.1397019,6.26086657 L33.1397019,0.0586962587 L33.1198386,0.0586962587 Z M35.2444352,5.63478322 C35.9592471,5.63478322 36.5549277,5.04782669 36.5549277,4.04999941 C36.5549277,3.09130495 36.0188248,2.46521561 35.2841496,2.46521561 C34.6090522,2.46521561 33.9736451,2.93477963 33.9736451,4.06956283 C33.9537939,4.85217452 34.3707655,5.63478322 35.2444352,5.63478322 Z" id="XMLID_92_"></path>
                        <path d="M37.9249979,7.20000061 C37.9249979,7.20000061 38.1831237,7.37608637 38.4611128,7.37608637 C38.8185188,7.37608637 39.0965079,7.12173794 39.2752048,6.73043359 L39.4936283,6.22173674 L37.6073064,1.81956283 L38.5802441,1.81956283 L39.7120396,4.73477903 C39.7914686,4.96956103 39.8907487,5.26303929 39.8907487,5.26303929 L39.9105998,5.26303929 C39.9105998,5.26303929 39.9900288,4.96956103 40.0694456,4.73477903 L41.1615267,1.81956283 L42.094762,1.81956283 L39.9701655,7.08260512 C39.6921885,7.76738772 39.1362102,8.13912566 38.5008273,8.13912566 C37.9845635,8.13912566 37.6271576,7.86521381 37.6271576,7.86521381 L37.9249979,7.20000061 Z" id="XMLID_90_"></path>
                    </g>
                </g>
            </g>
        </g>
    </g>
</svg>