<?xml version="1.0" encoding="UTF-8"?>
<svg width="304px" height="250px" viewBox="0 0 304 250" version="1.1" xmlns="http://www.w3.org/2000/svg" xmlns:xlink="http://www.w3.org/1999/xlink">
    <!-- Generator: Sketch 52.4 (67378) - http://www.bohemiancoding.com/sketch -->
    <title>Group 4</title>
    <desc>Created with Sketch.</desc>
    <defs>
        <rect id="path-1" x="0" y="0" width="302.222222" height="248.888889"></rect>
    </defs>
    <g id="Sign-Up" stroke="none" stroke-width="1" fill="none" fill-rule="evenodd">
        <g id="Sign-Up-2019---5" transform="translate(-638.000000, -305.000000)">
            <g id="Group-8" transform="translate(630.000000, 297.000000)">
                <g id="Group-6">
                    <g id="Group-4" transform="translate(8.888889, 8.888889)">
                        <mask id="mask-2" fill="white">
                            <use xlink:href="#path-1"></use>
                        </mask>
                        <use id="Top-Base" fill="#F2F7FA" xlink:href="#path-1"></use>
                        <g id="Gender-Neutral-long-Copy-2" mask="url(#mask-2)">
                            <g transform="translate(72.111111, 83.000000)">
                                <g id="Page-1" stroke-width="1" fill="none" transform="translate(23.168317, 0.000000)">
                                    <path d="M100.604522,55.6694935 C101.501227,58.1659252 97.1581038,65.2235769 95.4283426,67.6620825 C96.1659248,63.8053197 96.9503078,58.4237902 97.5362551,52.1416019 C97.5362551,52.1416019 99.7396414,53.2814398 100.604522,55.6694935" id="Fill-1" fill="#ECBB82"></path>
                                    <g id="Group-5" transform="translate(66.719361, 0.474060)" fill="#FFDDB1">
                                        <path d="M0.193006906,92.8405399 L0.161182295,0.347370255 C0.193006906,0.347370255 30.5780223,5.86904375 31.5945378,28.5181823 C32.0344663,38.5805213 31.6001539,43.3117827 30.8176429,51.6681021 C30.2298236,57.9502903 29.4473126,63.3318198 28.7078584,67.1885826 C28.2230011,69.6887515 27.7624802,71.5479952 27.3768408,72.5869294 C26.7197562,74.3527438 25.4261794,76.5203043 23.8087403,78.7495281 C20.4765163,83.3387769 15.77209,88.1653361 12.439866,90.1628552 C12.3574965,90.2133071 12.2695108,90.2637589 12.1740369,90.3142108 C9.35287878,91.8576633 3.22196106,93.0049755 0.193006906,92.8405399 Z" id="Fill-3"></path>
                                    </g>
                                    <path d="M66.9106919,93.3147872 C69.4810294,93.4792228 74.6788582,92.3319106 77.0713836,90.788458 L77.1253623,90.9080476 C75.9378314,96.3587148 50.3567025,113.032113 47.1878368,115.175382 C44.1253408,117.247645 38.9306872,123.970819 34.8679982,122.124656 C34.9156264,122.042438 34.9648422,121.962089 35.0124705,121.879871 L34.9315025,121.741596 C37.2240085,119.869272 39.118025,118.161384 40.2531647,116.819738 C45.773278,110.328268 48.049908,103.063204 47.8990852,94.6508266 C47.8133544,90.0260747 47.887972,83.5719765 46.8496763,79.2237754 C49.6772063,83.8130242 53.6652778,88.6395834 56.4912201,90.6371025 C58.7678501,92.2552986 64.2228714,93.4848286 66.8837026,93.3147872 L66.9106919,93.3147872 Z" id="Fill-6" fill="#ECBB82"></path>
                                    <path d="M66.8799817,93.3153477 C63.7424495,93.4853891 57.310134,92.2558591 54.6256344,90.6357945 C51.2934104,88.6382754 46.5908561,83.8117161 43.2567601,79.224336 C41.6393211,76.9951121 40.3457442,74.825683 39.6886596,73.0617373 C39.3048923,72.0228031 38.8368833,70.1635594 38.3576421,67.6615219 C37.6200599,63.8047591 36.8356768,58.4232296 36.2553457,52.1410413 C35.4672186,43.7791162 35.0310342,39.0553292 35.4784508,28.9911216 C36.4818621,6.34385161 66.8799817,0.822178117 66.8799817,0.822178117 L66.8799817,93.3153477 Z" id="Fill-8" fill="#FBD2A2"></path>
                                    <path d="M36.2557201,52.1416019 C36.8360513,58.4237902 37.6204343,63.8053197 38.3580165,67.6620825 C36.6282553,65.2235769 32.2795158,58.1659252 33.1818371,55.6694935 C34.0467177,53.2814398 36.248232,52.1416019 36.248232,52.1416019 L36.2557201,52.1416019 Z" id="Fill-10" fill="#ECBB82"></path>
                                    <path d="M34.8678394,122.124843 C38.9321161,123.971006 44.1251821,117.247832 47.1876781,115.175569 C50.3565438,113.0323 75.9376727,96.3589017 77.1267911,90.9082344 L77.0728124,90.7886449 C77.1521928,90.7381931 77.2268104,90.6877412 77.2982528,90.6354208 C80.1241952,88.6397703 84.1122666,83.8113424 86.9397966,79.2239622 C85.9062638,83.5721633 85.9761185,90.0262616 85.8903877,94.6510135 C85.7459153,103.06339 88.0161949,110.328455 93.541071,116.818057 C99.0564214,123.315132 122.435538,138.609514 122.435538,138.609514 L127.955651,155.043733 L66.9105332,155.043733 L66.8835438,155.043733 L5.83366294,155.043733 L11.3537762,138.609514 C11.3537762,138.609514 26.0931296,128.967607 34.9329313,121.739914 L35.0123117,121.880058 C34.9646835,121.960407 34.9154676,122.042625 34.8678394,122.124843" id="Fill-12" fill="#FFDDB1"></path>
                                    <path d="M97.4634329,58.0706273 C97.4858973,57.8389226 97.5083618,52.3751752 97.5289542,52.1416019 C98.3152093,43.7778082 98.7513936,39.0558897 98.303977,28.9898136 C97.2986937,6.34441219 73.5893951,0.832996565 66.9043182,0.82460728 C60.2192412,0.816217995 36.4856061,6.34441219 35.4747067,28.9898136 C35.0272901,39.0558897 35.4690906,43.7834139 36.2497296,52.1416019 C38.6852484,46.2817142 36.6057277,45.8441601 40.840272,31.7067385 C45.0748163,17.5693169 56.2433537,14.7449278 66.8487347,15.0110427 C77.4541156,15.2771575 90.3137118,16.4291586 93.0341959,31.7067385 C95.7546799,46.9843184 97.0291206,46.1658619 97.4110159,52.0406982 L97.4634329,58.0706273 Z" id="Fill-15-Copy" fill="#F5CD9F"></path>
                                    <path d="M0.463026077,156.357785 L9.84170924,156.357785 C9.12798448,154.290285 9.26223271,150.115866 9.16876875,147.776378 C9.0600107,144.86138 9.14837662,141.946382 8.13726655,139.311256 L7.18223485,138.434194 C5.58655022,140.25927 0.463026077,153.823176 0.463026077,156.357785" id="Fill-17" fill="#008FCC"></path>
                                    <path d="M7.18291459,138.434194 L8.13624694,139.311256 C9.14905636,141.946382 9.06069043,144.86138 9.16774915,147.776378 C9.26291245,150.115866 9.12696488,154.288314 9.84068963,156.357785 L66.7007618,156.357785 L67.1289967,156.357785 L69.3857264,156.357785 L69.3857264,155.533938 L69.3857264,125.402439 L67.1289967,125.402439 L66.7007618,125.402439 C65.1475608,125.402439 38.2350395,123.46699 35.9868065,119.302426 C35.8627544,119.071828 35.7539963,118.866852 35.6690291,118.691439 C32.5932152,121.472414 29.308382,123.878914 26.0201501,126.291326 C22.8015913,128.650523 19.594928,130.215437 16.1758465,132.211984 C13.1731045,133.960195 9.63846762,135.639423 7.18291459,138.434194" id="Fill-19" fill="#008FCC"></path>
                                    <path d="M69.3857264,155.534136 L69.3857264,156.357982 L123.98737,156.357982 C124.702794,154.288511 124.566846,150.116063 124.66031,147.776575 C124.770767,144.861577 124.680702,141.946579 125.693512,139.309482 L127.183837,139.238528 C126.976517,138.881791 126.798086,138.603891 126.646844,138.434391 C124.191291,135.63962 120.656654,133.960392 117.653912,132.212181 C114.233131,130.215634 111.028167,128.65072 107.809608,126.291523 C104.521377,123.879111 101.236543,121.472611 98.1607295,118.691636 C98.0757622,118.867049 87.5245313,124.194459 69.3857264,125.402636 L69.3857264,155.534136 Z" id="Fill-21" fill="#008FCC"></path>
                                    <path d="M123.987879,156.357785 L133.368262,156.357785 C133.368262,154.059687 129.160685,142.70913 127.184347,139.238331 L125.692322,139.311256 C124.681212,141.946382 124.769578,144.86138 124.66082,147.776378 C124.567356,150.115866 124.703303,154.290285 123.987879,156.357785" id="Fill-23" fill="#008FCC"></path>
                                </g>
                                <polygon id="Rectangle" fill="#008FCC" points="23.8961098 154.888509 156.317982 155.21049 173.465347 236 6.53465347 236"></polygon>
                            </g>
                        </g>
                        <g id="Gender-Neutral-long-Copy" mask="url(#mask-2)">
                            <g transform="translate(175.111111, 103.000000)" id="Page-1">
                                <g transform="translate(5.808581, 0.000000)">
                                    <path d="M104.21172,49.5364137 C105.008792,51.7578148 101.148238,58.0379286 99.610672,60.2077852 C100.266301,56.77592 100.96353,51.9872709 101.484372,46.3971881 C101.484372,46.3971881 103.442938,47.4114506 104.21172,49.5364137" id="Fill-1" fill="#ECBB82"></path>
                                    <g id="Group-5" transform="translate(74.091577, 0.421833)" fill="#FFDDB1">
                                        <path d="M0.171561694,82.6123448 L0.143273151,0.30910065 C0.171561694,0.30910065 27.1804643,5.22245418 28.0840336,25.3763487 C28.4750811,34.3301249 28.0890257,38.5401456 27.3934604,45.9758535 C26.8709543,51.5659363 26.175389,56.3545854 25.5180963,59.7864506 C25.0871121,62.0111772 24.6777602,63.665589 24.3349696,64.5900643 C23.7508944,66.1613398 22.6010483,68.0901012 21.1633247,70.0737326 C18.2013479,74.1573862 14.0196356,78.4522059 11.0576587,80.2296593 C10.9844413,80.2745529 10.9062318,80.3194465 10.8213662,80.3643401 C8.31367002,81.7377513 2.86396539,82.7586646 0.171561694,82.6123448 Z" id="Fill-3"></path>
                                    </g>
                                    <path d="M74.2616491,83.0343445 C76.5463936,83.1806644 81.1666859,82.159751 83.2933751,80.7863398 L83.3413561,80.8927542 C82.2857731,85.7429242 59.5469919,100.579423 56.7302224,102.486569 C54.0080037,104.330531 49.3905339,110.313017 45.7792547,108.670245 C45.8215909,108.597085 45.8653383,108.525587 45.9076745,108.452428 L45.835703,108.329386 C47.8734861,106.663335 49.5570563,105.143604 50.5660694,103.949767 C55.4728368,98.1734592 57.4965079,91.7087829 57.3624432,84.2231932 C57.286238,80.1079478 57.3525647,74.3648943 56.4296353,70.4957323 C58.9429952,74.5793859 62.4879477,78.8742056 64.9998964,80.651659 C67.0235675,82.0915792 71.8724754,83.1856525 74.2376586,83.0343445 L74.2616491,83.0343445 Z" id="Fill-6" fill="#ECBB82"></path>
                                    <path d="M74.2343512,83.0348433 C71.4454336,83.1861513 65.7278198,82.092078 63.341598,80.6504951 C60.3796212,78.8730417 56.1995729,74.578222 53.235932,70.4962312 C51.7982084,68.5125998 50.6483623,66.5821756 50.0642871,65.0125628 C49.7231606,64.0880875 49.3071526,62.4336757 48.8811604,60.2072864 C48.2255318,56.7754212 47.5283024,51.9867721 47.0124525,46.3966893 C46.3118951,38.9559932 45.9241756,34.7526234 46.3218792,25.7971845 C47.2138004,5.6449527 74.2343512,0.731599172 74.2343512,0.731599172 L74.2343512,83.0348433 Z" id="Fill-8" fill="#FBD2A2"></path>
                                    <path d="M47.0127853,46.3971881 C47.5286352,51.9872709 48.2258646,56.77592 48.8814932,60.2077852 C47.3439277,58.0379286 43.4783815,51.7578148 44.2804449,49.5364137 C45.0492276,47.4114506 47.0061292,46.3971881 47.0061292,46.3971881 L47.0127853,46.3971881 Z" id="Fill-10" fill="#ECBB82"></path>
                                    <path d="M45.7791136,108.670411 C49.3918039,110.313184 54.0078626,104.330698 56.7300813,102.486735 C59.5468508,100.579589 82.285632,85.7430905 83.3426262,80.8929205 L83.2946452,80.7865061 C83.3652055,80.7416125 83.4315323,80.6967189 83.4950366,80.6501626 C86.0069854,78.8743719 89.5519378,74.5778894 92.0652978,70.4958986 C91.1466019,74.3650606 91.208695,80.1081141 91.1324898,84.2233594 C91.00407,91.7089492 93.0220962,98.1736255 97.9330972,103.948271 C102.835631,109.729567 123.617068,123.338974 123.617068,123.338974 L128.523835,137.962644 L74.261508,137.962644 L74.2375175,137.962644 L19.9709567,137.962644 L24.8777241,123.338974 C24.8777241,123.338974 37.9793715,114.759311 45.8369731,108.327889 L45.9075334,108.452594 C45.8651972,108.524091 45.8214498,108.597251 45.7791136,108.670411" id="Fill-12" fill="#FFDDB1"></path>
                                    <path d="M101.419641,51.6730158 C101.43961,51.4668379 101.459578,46.6050288 101.477882,46.3971881 C102.176776,38.9548293 102.564495,34.7531222 102.166791,25.7960205 C101.273206,5.64545152 80.1982742,0.741225757 74.2559836,0.733760715 C68.3136929,0.726295674 47.2171284,5.64545152 46.3185512,25.7960205 C45.9208475,34.7531222 46.3135591,38.9598175 47.0074604,46.3971881 C49.172366,41.1828813 47.3239032,40.7935323 51.0879426,28.2136233 C54.851982,15.6337142 64.7795707,13.1204866 74.206576,13.3572837 C83.6335813,13.5940808 95.0643335,14.6191666 97.4825415,28.2136233 C99.9007496,41.80808 101.033586,41.0797923 101.373048,46.307401 L101.419641,51.6730158 Z" id="Fill-15-Copy" fill="#F5CD9F"></path>
                                    <polygon id="Rectangle" fill="#00A1E6" points="15.4324056 137.824521 133.140736 138.11103 148.382838 210 0 210"></polygon>
                                    <path d="M15.1970573,139.131927 L23.5336645,139.131927 C22.8992425,137.292203 23.0185743,133.577677 22.9354952,131.49593 C22.8388214,128.902076 22.9173689,126.308221 22.0186044,123.963405 L21.1696873,123.182969 C19.751301,124.806978 15.1970573,136.876555 15.1970573,139.131927" id="Fill-17" fill="#00A1E6"></path>
                                    <path d="M21.1702915,123.182969 L22.0176981,123.963405 C22.9179731,126.308221 22.8394256,128.902076 22.9345889,131.49593 C23.0191785,133.577677 22.8983362,137.290449 23.5327582,139.131927 L74.0750446,139.131927 L74.4556978,139.131927 L76.4616798,139.131927 L76.4616798,138.398844 L76.4616798,111.586916 L74.4556978,111.586916 L74.0750446,111.586916 C72.6944215,111.586916 48.7721803,109.864695 46.773751,106.158938 C46.6634824,105.953745 46.5668086,105.771351 46.4912822,105.615264 C43.7572254,108.08986 40.8373737,110.231237 37.9145009,112.377875 C35.0535597,114.47716 32.2031923,115.869669 29.1640088,117.646257 C26.4949048,119.201868 23.3530053,120.696096 21.1702915,123.182969" id="Fill-19" fill="#00A1E6"></path>
                                    <path d="M76.4616798,138.399019 L76.4616798,139.132103 L124.996474,139.132103 C125.632406,137.290624 125.511564,133.577853 125.594643,131.496105 C125.692827,128.902251 125.612769,126.308397 126.513044,123.961827 L127.837778,123.898691 C127.653494,123.581255 127.494888,123.333971 127.360451,123.183145 C125.177737,120.696272 122.035838,119.202043 119.366734,117.646432 C116.32604,115.869844 113.477183,114.477336 110.616242,112.37805 C107.693369,110.231412 104.773517,108.090036 102.03946,105.615439 C101.963934,105.771526 92.5850619,110.512018 76.4616798,111.587091 L76.4616798,138.399019 Z" id="Fill-21" fill="#00A1E6"></path>
                                    <path d="M124.996927,139.131927 L133.335045,139.131927 C133.335045,137.087009 129.594976,126.986938 127.838231,123.898515 L126.511987,123.963405 C125.613223,126.308221 125.69177,128.902076 125.595096,131.49593 C125.512017,133.577677 125.632859,137.292203 124.996927,139.131927" id="Fill-23" fill="#00A1E6"></path>
                                </g>
                            </g>
                        </g>
                        <g id="Gender-Neutral-long" mask="url(#mask-2)">
                            <g transform="translate(-43.000000, 63.000000)">
                                <g id="Page-1" stroke-width="1" fill="none" transform="translate(25.742574, 0.000000)">
                                    <path d="M111.782802,62.0384609 C112.779141,64.8205014 107.953449,72.6855963 106.031492,75.4030834 C106.851028,71.1050808 107.722564,65.1078679 108.373617,58.1069547 C108.373617,58.1069547 110.821824,59.3771977 111.782802,62.0384609" id="Fill-1" fill="#ECBB82"></path>
                                    <g id="Group-5" transform="translate(74.132623, 0.528296)" fill="#FFDDB1">
                                        <path d="M0.214452117,103.462127 L0.179091439,0.387111767 C0.214452117,0.387111767 33.9755803,6.54050214 35.105042,31.7808557 C35.5938514,42.9943945 35.1112821,48.2669442 34.2418254,57.5792832 C33.5886929,64.5801964 32.7192362,70.5774094 31.8976204,74.875412 C31.3588901,77.6616172 30.8472003,79.733571 30.418712,80.8913662 C29.688618,82.8592017 28.2513104,85.2747458 26.4541559,87.759008 C22.7516848,92.8732979 17.5245445,98.2520483 13.8220734,100.478097 C13.7305516,100.534321 13.6327897,100.590545 13.5267077,100.646769 C10.3920875,102.366803 3.57995674,103.645375 0.214452117,103.462127 Z" id="Fill-3"></path>
                                    </g>
                                    <path d="M74.3452132,103.990631 C77.2011438,104.17388 82.9765091,102.895307 85.6348707,101.175273 L85.694847,101.308545 C84.3753682,107.382805 55.9518917,125.963753 52.4309298,128.352227 C49.0281565,130.66157 43.2563191,138.153922 38.7422202,136.096544 C38.7951404,136.00492 38.8498247,135.915379 38.902745,135.823755 L38.8127805,135.669659 C41.3600095,133.583129 43.4644722,131.679847 44.7257386,130.184708 C50.8591978,122.95057 53.3887867,114.854333 53.2212058,105.479523 C53.1259493,100.325668 53.2088577,93.1331772 52.0551959,88.2875124 C55.1968959,93.4018023 59.6280864,98.7805527 62.7680224,101.006602 C65.2976112,102.80993 71.3587461,104.180127 74.3152251,103.990631 L74.3452132,103.990631 Z" id="Fill-6" fill="#ECBB82"></path>
                                    <path d="M74.3110908,103.991256 C70.8249438,104.180751 63.6779266,102.810555 60.6951493,101.005144 C56.9926783,98.7790951 51.7676179,93.4003447 48.0630668,88.2881371 C46.2659123,85.8038749 44.8286047,83.3862485 44.0985107,81.4204953 C43.6721025,80.2627001 43.1520925,78.1907463 42.6196023,75.4024587 C41.8000666,71.1044561 40.9285298,65.1072431 40.2837174,58.10633 C39.4080206,48.7877439 38.9233713,43.5235236 39.4205009,32.3079024 C40.5354023,7.06963124 74.3110908,0.916240868 74.3110908,0.916240868 L74.3110908,103.991256 Z" id="Fill-8" fill="#FBD2A2"></path>
                                    <path d="M40.2841335,58.1069547 C40.9289458,65.1078679 41.8004826,71.1050808 42.6200183,75.4030834 C40.6980614,72.6855963 35.8661286,64.8205014 36.8687079,62.0384609 C37.8296863,59.3771977 40.2758133,58.1069547 40.2758133,58.1069547 L40.2841335,58.1069547 Z" id="Fill-10" fill="#ECBB82"></path>
                                    <path d="M38.7420438,136.096753 C43.2579067,138.15413 49.0279801,130.661778 52.4307534,128.352435 C55.9517153,125.963962 84.3751918,107.383013 85.6964346,101.308753 L85.6364583,101.175481 C85.7246587,101.119258 85.8075671,101.063034 85.8869475,101.004727 C89.0268835,98.7807609 93.458074,93.3999282 96.599774,88.2877206 C95.4514042,93.1333854 95.5290206,100.325876 95.4337641,105.479731 C95.2732393,114.854541 97.7957721,122.950779 103.934523,130.182834 C110.06269,137.42322 136.039487,154.467382 136.039487,154.467382 L142.172946,172.781788 L74.3450368,172.781788 L74.3150487,172.781788 L6.48184771,172.781788 L12.6153069,154.467382 C12.6153069,154.467382 28.9923662,143.722376 38.8143681,135.667785 L38.9025686,135.823963 C38.8496483,135.913504 38.794964,136.005129 38.7420438,136.096753" id="Fill-12" fill="#FFDDB1"></path>
                                    <path d="M108.292703,64.7143008 C108.317664,64.4560874 108.342624,58.3672504 108.365505,58.1069547 C109.239121,48.7862862 109.723771,43.5241483 109.226641,32.3064448 C108.10966,7.07025595 81.7659946,0.928297019 74.3381313,0.918947943 C66.910268,0.909598868 40.5395624,7.07025595 39.4163408,32.3064448 C38.9192112,43.5241483 39.4101007,48.7925333 40.2774773,58.1069547 C42.9836093,51.5766561 40.6730308,51.0890429 45.37808,35.3342044 C50.0831293,19.5793659 62.4926152,16.4318476 74.2763718,16.7284077 C86.0601285,17.0249679 100.348569,18.3087657 103.371329,35.3342044 C106.394089,52.359643 107.810134,51.4475495 108.234462,57.9945069 L108.292703,64.7143008 Z" id="Fill-15-Copy" fill="#F5CD9F"></path>
                                    <path d="M0.514473419,174.246176 L10.9352325,174.246176 C10.142205,171.942139 10.2913697,167.290139 10.1875208,164.682998 C10.0666786,161.434504 10.1648629,158.186011 9.04140727,155.249408 L7.98026094,154.272004 C6.20727802,156.305882 0.514473419,171.42159 0.514473419,174.246176" id="Fill-17" fill="#00B4FF"></path>
                                    <path d="M7.98101621,154.272004 L9.04027438,155.249408 C10.1656182,158.186011 10.0674338,161.434504 10.1863879,164.682998 C10.2921249,167.290139 10.1410721,171.939943 10.9340996,174.246176 L74.1119576,174.246176 L74.5877741,174.246176 L77.0952516,174.246176 L77.0952516,173.328075 L77.0952516,139.749328 L74.5877741,139.749328 L74.1119576,139.749328 C72.3861787,139.749328 42.4833772,137.592451 39.9853406,132.951432 C39.8475048,132.694452 39.7266626,132.466025 39.6322545,132.270545 C36.2146836,135.369682 32.5648689,138.051501 28.9112779,140.73991 C25.3351015,143.369015 21.7721422,145.112966 17.9731628,147.337931 C14.6367828,149.286149 10.7094085,151.157492 7.98101621,154.272004" id="Fill-19" fill="#00B4FF"></path>
                                    <path d="M77.0952516,173.328295 L77.0952516,174.246395 L137.763744,174.246395 C138.55866,171.940163 138.407607,167.290358 138.511456,164.683217 C138.634186,161.434724 138.534114,158.18623 139.659457,155.247431 L141.315374,155.16836 C141.085019,154.77081 140.886762,154.461115 140.718716,154.272224 C137.990323,151.157712 134.062949,149.286369 130.726569,147.338151 C126.925701,145.113186 123.36463,143.369235 119.788454,140.740129 C116.134863,138.051721 112.485048,135.369902 109.067477,132.270764 C108.973069,132.466245 97.2494792,138.403147 77.0952516,139.749547 L77.0952516,173.328295 Z" id="Fill-21" fill="#00B4FF"></path>
                                    <path d="M137.76431,174.246176 L148.186958,174.246176 C148.186958,171.685159 143.511872,159.036022 141.315941,155.168141 L139.658136,155.249408 C138.53468,158.186011 138.632864,161.434504 138.512022,164.682998 C138.408173,167.290139 138.559226,171.942139 137.76431,174.246176" id="Fill-23" fill="#00B4FF"></path>
                                </g>
                                <polygon id="Rectangle" fill="#00B4FF" points="26.5512331 172.608805 173.686647 172.967623 192.739274 263 7.26072607 263"></polygon>
                            </g>
                        </g>
                    </g>
                </g>
            </g>
        </g>
    </g>
</svg>