<?xml version="1.0" encoding="UTF-8"?>
<svg width="304px" height="250px" viewBox="0 0 304 250" version="1.1" xmlns="http://www.w3.org/2000/svg" xmlns:xlink="http://www.w3.org/1999/xlink">
    <!-- Generator: Sketch 52.4 (67378) - http://www.bohemiancoding.com/sketch -->
    <title>Group</title>
    <desc>Created with Sketch.</desc>
    <defs>
        <rect id="path-1" x="0" y="0" width="302.222222" height="248.888889"></rect>
        <polygon id="path-3" points="0.432976873 28.0717987 53.1731938 28.0717987 53.1731938 0.290371947 0.432976873 0.290371947"></polygon>
        <polygon id="path-5" points="3.87313754 5.95259067 3.87313754 0.00547742413 0.0889265248 0.00547742413 0.0889265248 5.95259067 3.87313754 5.95259067"></polygon>
        <polygon id="path-7" points="0.000317711114 45.8157644 71.1305408 45.8157644 71.1305408 0.151343726 0.000317711114 0.151343726 0.000317711114 45.8157644"></polygon>
        <polygon id="path-9" points="0.000205188427 29.4814484 45.9384743 29.4814484 45.9384743 0.0973863975 0.000205188427 0.0973863975 0.000205188427 29.4814484"></polygon>
        <polygon id="path-11" points="0.672083504 43.6250925 82.5374949 43.6250925 82.5374949 0.451253701 0.672083504 0.451253701"></polygon>
        <polygon id="path-13" points="6.01203438 9.25064767 6.01203438 0.00851221318 0.138035203 0.00851221318 0.138035203 9.25064767 6.01203438 9.25064767"></polygon>
    </defs>
    <g id="Sign-Up" stroke="none" stroke-width="1" fill="none" fill-rule="evenodd">
        <g id="Sign-Up-2019---5" transform="translate(-988.000000, -305.000000)">
            <g id="Group-9" transform="translate(980.000000, 297.000000)">
                <g id="Group-7">
                    <g id="Group" transform="translate(8.888889, 8.888889)">
                        <mask id="mask-2" fill="white">
                            <use xlink:href="#path-1"></use>
                        </mask>
                        <use id="Top-Base" fill="#F2F7FA" xlink:href="#path-1"></use>
                        <g id="Group-2" mask="url(#mask-2)">
                            <g transform="translate(-16.000000, 42.000000)">
                                <g id="Group-5" opacity="0.6" transform="translate(0.000000, 95.777778)">
                                    <polygon id="Rectangle-2-Copy" fill="#00A2E6" points="26.6255422 96.3034763 314.556634 96.3034763 348.04196 141.594613 0.33967814 141.594613"></polygon>
                                    <g id="John" transform="translate(4.264611, 41.104689)">
                                        <g id="Page-1" transform="translate(2.495702, 0.000000)">
                                            <path d="M43.1816097,20.5898427 C43.5100276,21.5045725 41.9193604,24.0906014 41.2858361,24.9841062 C41.5559752,23.5709308 41.8432552,21.5990581 42.0578582,19.2971706 C42.0578582,19.2971706 42.8648475,19.7148242 43.1816097,20.5898427" id="Fill-1" fill="#ECBB82"></path>
                                            <g id="Group-5" transform="translate(30.771183, 0.173703)" fill="#FFDDB1">
                                                <path d="M4.45873619,33.2841839 C3.42548813,33.849728 1.18004196,34.2701203 0.0706887024,34.2098686 L0.0590329513,34.2098686 L0.0590329513,0.318991488 L0.0706887024,0.318991488 C0.0706887024,0.318991488 11.1991885,0.42511658 11.5714869,8.72409882 C11.7326105,12.4110899 11.5735438,16.0617931 11.2869494,19.1236732 C11.0716609,21.4255607 10.7850665,23.3974334 10.5142417,24.8106088 C10.3366629,25.726708 10.1679973,26.4079626 10.0267571,26.7886436 C9.78610008,27.4356643 9.31232808,28.2298908 8.71994167,29.0467117 C7.49951596,30.7282809 5.77652169,32.4968042 4.55609599,33.228725 C4.52592816,33.2472113 4.49370344,33.2656976 4.45873619,33.2841839" id="Fill-3"></path>
                                            </g>
                                            <path d="M30.8415289,34.3836399 C31.9515677,34.4438916 34.1963283,34.0234993 35.2295763,33.4579552 L35.2528878,33.5017746 C34.7400348,35.4989804 23.6924396,41.6083623 22.3239173,42.393688 C21.0013324,43.1529959 18.7579431,45.6164674 17.0034097,44.9400056 C17.0239787,44.9098797 17.0452333,44.8804386 17.0658023,44.8503127 L17.030835,44.7996466 C18.0208883,44.1135992 18.8388477,43.4878035 19.3290749,42.9962047 C21.7130188,40.6176332 22.6962157,37.9556051 22.6310806,34.8731847 C22.5940565,33.1786066 22.6262812,30.8137287 22.1778776,29.220483 C23.3989889,30.9020522 25.1212976,32.6705755 26.3417233,33.4024963 C27.3249202,33.9954275 29.6807532,34.4459456 30.8298731,34.3836399 L30.8415289,34.3836399 Z" id="Fill-6" fill="#ECBB82"></path>
                                            <path d="M30.8300102,0.492968172 L30.8300102,34.3838453 C29.6808903,34.446151 27.3250573,33.9956329 26.3418604,33.402017 C25.1214347,32.6700962 23.3991261,30.9015729 22.1780147,29.2206884 C21.5856283,28.4038675 21.1118563,27.6089563 20.8711993,26.9626203 C20.7306447,26.5819393 20.5592366,25.9006847 20.3837147,24.9839008 C20.1135755,23.5707254 19.8262955,21.5988527 19.6137495,19.2969652 C19.3250982,16.2330311 19.1653459,12.5850666 19.329212,8.89739082 C19.696711,0.599093264 30.8300102,0.492968172 30.8300102,0.492968172" id="Fill-8" fill="#FBD2A2"></path>
                                            <path d="M19.6138866,19.2971706 C19.8264327,21.5990581 20.1137126,23.5709308 20.3838518,24.9841062 C19.7503275,24.0906014 18.1576034,21.5045725 18.4880782,20.5898427 C18.8048404,19.7148242 19.6111441,19.2971706 19.6111441,19.2971706 L19.6138866,19.2971706 Z" id="Fill-10" fill="#ECBB82"></path>
                                            <g id="Group-14" transform="translate(4.031519, 28.930179)">
                                                <mask id="mask-4" fill="white">
                                                    <use xlink:href="#path-3"></use>
                                                </mask>
                                                <g id="Clip-13"></g>
                                                <path d="M12.9718226,16.0098945 C14.7270415,16.6863564 16.9697452,14.2228849 18.2923301,13.463577 C19.6608524,12.6782513 30.7084476,6.56886936 31.2219863,4.57166358 L31.1986748,4.52784419 C31.2329564,4.50935788 31.2651811,4.49087158 31.2960346,4.47170059 C32.5164603,3.74046447 34.2387689,1.97125648 35.4598803,0.290371947 C35.0135336,1.88361769 35.0437014,4.24849556 35.0066772,5.94307365 C34.9442847,9.02549408 35.9247391,11.6875222 38.3107399,14.065409 C40.6926269,16.4460344 50.7892499,22.050124 50.7892499,22.050124 L53.1731938,28.0718671 L26.8099417,28.0718671 L26.7982859,28.0718671 L0.432976873,28.0718671 L2.81692079,22.050124 C2.81692079,22.050124 9.18233217,18.5171854 12.9999335,15.8688509 L13.0342151,15.9202017 C13.0136461,15.9496429 12.9923915,15.9797687 12.9718226,16.0098945" id="Fill-12" fill="#FFDDB1" mask="url(#mask-4)"></path>
                                            </g>
                                            <path d="M42.0311871,19.5525555 C42.0394147,19.4676554 42.0476422,19.3827554 42.0551842,19.2971706 C42.3431498,16.2325518 42.5029022,12.585272 42.339036,8.89691155 C41.9708514,0.599298668 30.8389235,0.493858253 30.8389235,0.493858253 L30.828639,0.493858253 C30.828639,0.493858253 19.6980823,0.599298668 19.3278408,8.89691155 C19.1639746,12.585272 19.3257839,16.2346058 19.6116926,19.2971706 C19.6116926,19.2971706 19.5842673,19.260198 19.5849529,19.2595133 C20.5037004,17.1500204 20.8184056,15.0939323 21.0885448,12.8632513 C21.9359865,12.2552572 23.1701248,11.98344 24.1615493,11.6808124 C26.036754,11.1091062 27.791973,10.3675999 29.3161339,9.11463916 C31.0439275,7.69393227 33.1309926,7.12085677 35.1474376,6.10068653 C37.135086,5.09420984 36.2279943,6.79221132 37.140571,8.16567543 C38.0449202,9.5275 39.6390156,10.3354201 40.4089808,11.8095318 C41.4264593,13.7581255 41.8721203,17.1075703 42.0119894,19.260198 L42.0311871,19.5525555 Z" id="Fill-15" fill="#52331D"></path>
                                            <path d="M54.0239533,56.3626943 L57.4914901,56.3626943 L57.6546228,56.9841765 L53.8699335,56.9841765 C53.9389001,56.8125726 53.9882575,56.5991861 54.0239533,56.3626943 Z M57.6546228,56.9841765 L62.1211015,74 L0.088405747,74 L4.23021311,56.3626943 L4.34930248,56.3626943 C4.78678557,54.8616361 6.2481141,51.6046239 6.8553757,50.8469015 L6.74278346,50.7577147 C7.73352231,49.7868412 9.15963774,49.2034956 10.3711502,48.5961862 C11.7506427,47.9026073 13.044431,47.358973 14.3430188,46.5394134 C15.6697176,45.7013675 16.995045,44.8653756 18.2360397,43.899295 C18.2703213,43.9602313 18.3142018,44.0314378 18.364253,44.1115452 C19.2713447,45.5582698 30.1297053,46.2306236 30.7563733,46.2306236 L30.9291527,46.2306236 L31.8396725,46.2306236 C39.158113,45.8109845 43.4152047,43.9602998 43.4494863,43.8993634 C44.690481,44.8654441 46.0158084,45.701436 47.3425072,46.5394819 C48.641095,47.3590415 49.9341977,47.9026758 51.3143758,48.5962546 C52.5258883,49.203564 53.9520037,49.7869097 54.9427425,50.7577831 C55.0037543,50.8166562 55.0757327,50.9131748 55.1593631,51.0370736 Z M54.0239533,56.3626943 C54.1376581,55.6093787 54.112744,54.6216222 54.1414439,54.0030885 C54.1471345,53.8717663 54.1514875,53.7404441 54.1556438,53.6093339 C54.157995,53.5360264 54.1602794,53.4627847 54.1626975,53.3896456 C54.1890425,52.5849231 54.2321573,51.7927185 54.5576228,51.0623964 L55.1045633,51.0393797 Z" id="Combined-Shape" fill="#00A2E6"></path>
                                            <g id="Group-25" transform="translate(53.781007, 51.031586)">
                                                <mask id="mask-6" fill="white">
                                                    <use xlink:href="#path-5"></use>
                                                </mask>
                                                <g id="Clip-24"></g>
                                            </g>
                                        </g>
                                    </g>
                                    <g id="Jane" transform="translate(49.325626, 0.000000)">
                                        <g id="Page-1" stroke-width="1" transform="translate(11.888545, 0.000000)">
                                            <g id="Group-3" transform="translate(0.000000, 45.977248)">
                                                <mask id="mask-8" fill="white">
                                                    <use xlink:href="#path-7"></use>
                                                </mask>
                                                <g id="Clip-2"></g>
                                                <path d="M68.6210672,38.1002821 L71.1305408,45.8162952 L35.5659588,45.8162952 L0.000317711114,45.8162952 L4.29307313,36.9085723 C4.29307313,36.9085723 12.0278014,30.9860141 17.3717024,26.8660197 C18.0431318,26.3479684 18.6319564,25.8575182 19.1032279,25.4063464 C19.3033859,25.3882995 25.2191669,24.7842602 29.3134041,20.6292337 C32.1738631,17.730057 34.62977,10.9125864 40.7562993,5.08344723 C41.4923301,4.5431027 41.974192,3.9518023 42.5344225,3.5303548 C43.7088946,2.64605816 45.1332995,1.47195 46.4295608,0.151343726 C45.8290868,2.73947725 45.9371086,8.40725612 45.9148688,10.8202288 C45.8725073,15.740655 48.0710682,21.0655433 51.494935,24.8691866 C54.9230379,28.6738915 68.3238535,36.9085723 68.3238535,36.9085723" id="Fill-1" fill="#FFE1B5" mask="url(#mask-8)"></path>
                                            </g>
                                            <path d="M52.5091748,29.0266342 C52.5091748,29.0266342 53.6084552,29.7888491 53.94417,31.2198597 C54.2841208,32.6625478 51.8483356,36.3632178 50.7564685,37.8303222 C51.3198762,35.6466509 51.9415309,32.6795331 52.3662048,29.0085873 L52.5091748,29.0266342 Z" id="Fill-4" fill="#F0BF86"></path>
                                            <path d="M40.7564053,51.0602705 C39.7598514,51.7938227 38.3036755,52.4382022 35.5650057,52.4350174 L35.5650057,1.77851394 L35.5724189,1.50250298 C38.6785746,1.5067493 52.2734331,3.32099056 52.8050697,16.5695166 C52.9946373,21.3179666 52.7732986,25.4867937 52.3666284,29.0080565 C51.9419545,32.6800639 51.3202998,35.6471817 50.755833,37.8297914 C50.3565761,39.3765144 49.9880312,40.5283293 49.7423346,41.2693126 C49.182104,42.9476715 47.8932559,44.6366463 46.4296667,46.1292286 C45.1334054,47.4498349 43.7090005,48.6228815 42.5345285,49.5071781 C41.9742979,49.9296872 41.492436,50.519926 40.7564053,51.0602705" id="Fill-6" fill="#FFE1B5"></path>
                                            <path d="M18.3253652,16.5689858 C18.8570018,3.30984396 32.4741001,1.50197219 35.5654293,1.50197219 L35.5728425,1.50197219 L35.5654293,1.77798315 L35.5654293,52.4344866 C30.8209433,52.438733 29.9175847,50.5013483 28.5969655,49.5066473 C27.4214344,48.6234122 25.9980886,47.4493041 24.7018273,46.1286978 C23.2382381,44.6361155 21.94939,42.9471407 21.3891594,41.2687818 C21.1424038,40.5288601 20.7738589,39.3759836 20.3746019,37.8303222 C19.8101352,35.6466509 19.1895394,32.6795331 18.7648656,29.0085873 C18.3571363,25.4873245 18.1368566,21.3174358 18.3253652,16.5689858" id="Fill-8" fill="#FFD6A6"></path>
                                            <path d="M24.7014037,46.128804 C25.997665,47.4494102 27.4220698,48.6235184 28.5965419,49.5067535 C29.9182201,50.5014545 30.8205197,52.4388391 35.5650057,52.4345928 C38.3036755,52.4388391 39.7598514,51.7944597 40.7564053,51.0598459 C34.6298759,56.8900466 32.173969,63.7075173 29.31351,66.6056323 C25.2192728,70.7617204 19.3034918,71.3657598 19.10757,71.3838067 C19.3034918,71.1969685 19.4824691,71.0186229 19.6360295,70.8466469 C23.0588372,67.0430035 25.2584571,61.7181152 25.2160957,56.7966275 C25.1938559,54.3847164 25.3008186,48.7158759 24.6590422,46.1712672 L24.7014037,46.128804 Z" id="Fill-10" fill="#F0BF86"></path>
                                            <path d="M18.7643361,29.008375 C19.1890099,32.6803823 19.8106647,35.6475001 20.3751314,37.8301099 C19.2790281,36.3630055 16.847479,32.6623355 17.1863709,31.2196474 C17.5189085,29.7886368 18.6213661,29.0264219 18.6213661,29.0264219 L18.7643361,29.008375 Z" id="Fill-12" fill="#F0BF86"></path>
                                            <path d="M20.285431,5.14128283 C15.2306472,9.75066583 10.4247371,17.5023274 9.36146386,24.3622613 C8.52906075,29.7274897 9.81790883,35.0375159 9.30745297,40.4483923 C8.93255386,44.4346275 6.95109555,47.8316854 6.52324458,51.7319326 C7.05805829,48.3645989 9.28627223,47.3412352 11.1459413,44.6894068 C13.2343623,41.7116732 13.9661569,37.9865869 15.7336898,34.958959 C16.2229649,34.1181871 16.8117895,33.4419603 17.4609792,32.865522 C17.9788483,32.4069192 18.5359018,32.009888 19.1183722,31.6415196 C20.771529,30.5969242 22.6100173,29.7911846 24.230344,28.4599625 C29.1389807,24.4195867 27.8543687,11.4152242 35.0018098,11.1031195 L35.0018098,11.0925037 L35.0018098,1.02235007 C30.9425208,-1.10399589 23.9486401,1.80579656 20.285431,5.14128283" id="Fill-14" fill="#804F2D"></path>
                                            <path d="M61.841621,40.4487108 C61.3343423,35.0378344 62.6231903,29.7267466 61.7876101,24.3625798 C60.7243369,17.5015843 55.922663,9.75098431 50.8668201,5.1416013 C47.0754675,1.69146433 39.4461646,-0.89985394 35.1157621,1.0799939 L35.112585,1.08317864 C35.0765778,1.06194703 35.0405705,1.03965383 35.0013861,1.02266854 L35.0013861,11.0928222 C42.9632266,10.4091643 42.0386873,24.4411368 46.9219071,28.460281 C48.5390567,29.791503 50.377545,30.5929964 52.0307018,31.641838 C52.6131722,32.0070218 53.1702257,32.4040529 53.6880948,32.8647789 C54.3372845,33.4412172 54.9261091,34.117444 55.4153842,34.9592774 C57.182917,37.9869053 57.9178888,41.7119917 60.0031327,44.6897253 C61.870215,47.3521695 64.1047832,48.3712869 64.6332427,51.7715295 C64.2159821,47.8521739 62.2196972,44.4455618 61.841621,40.4487108" id="Fill-16" fill="#B36E3F"></path>
                                            <path d="M60.6528519,77.4880013 C58.8387215,76.357418 57.0108235,75.1684477 55.4296812,74.0527265 C54.4055924,73.3255437 53.4842302,72.63127 52.7376091,71.998568 C52.2483339,71.58349 51.8342505,71.1928283 51.5165393,70.8425067 C48.0937316,67.0378018 45.8157429,61.7129135 45.9078792,56.7893026 C45.96189,54.0684715 46.047672,48.4176779 46.6862714,45.8847466 C48.0503111,44.4494896 49.2353735,42.8528724 49.763833,41.2647478 C50.0105887,40.5269493 50.3780745,39.370888 50.7783905,37.8284114 C51.563137,36.7732002 53.0447298,34.5576815 53.6875653,32.865522 C54.336755,33.4419603 54.9266386,34.1181871 55.4159137,34.958959 C57.1823875,37.9865869 57.9184183,41.7116732 60.0026032,44.6894068 C61.8707445,47.351851 64.1053127,48.37203 64.6337722,51.7712111 C64.6369493,51.796689 64.6443625,51.8253517 64.6443625,51.8540144 C64.65813,51.9357561 64.6687204,52.0217441 64.6803698,52.1077321 C65.0933943,55.6438571 63.9623427,58.3848583 63.313153,61.6449723 C62.6237199,65.1089098 66.85775,69.4751909 67.8574809,72.8934804 C68.8137914,76.167395 67.4359842,78.1854598 67.1256863,81.2990757 L67.0219007,81.2916446 C65.3052017,80.3001283 62.9912057,78.9402436 60.6528519,77.4880013" id="Fill-18" fill="#663F24"></path>
                                            <path d="M15.7192869,74.0523018 C14.1413217,75.1690846 12.3102466,76.3569933 10.4961162,77.4875767 C8.16093947,78.9408805 5.84800256,80.3007653 4.13024448,81.2922816 L4.02328173,81.3028974 C3.71298388,78.1892815 2.33517668,76.1669704 3.29148714,72.8930558 C4.29121811,69.4747662 8.52630725,65.1095468 7.84005124,61.6445477 C7.19086154,58.3854952 6.05875093,55.6434325 6.46859827,52.1083691 C6.48342479,51.9788562 6.50142842,51.8535897 6.52260916,51.7325695 C7.0584819,48.3641743 9.28563681,47.3408106 11.1463649,44.6889822 C13.234786,41.7112486 13.9665805,37.9861622 15.7341134,34.9585343 C16.2223295,34.1177625 16.8122131,33.4415356 17.4614028,32.8650974 C18.1042383,34.5583184 19.5858311,36.7727756 20.3748137,37.8290483 C20.7708936,39.3715249 21.1394385,40.5275862 21.385135,41.2643231 C21.9167716,42.8503246 23.098657,44.4458802 24.4626967,45.8811372 C25.101296,48.4151301 25.1913142,54.0691085 25.2410889,56.788878 C25.3342842,61.7135504 23.0594726,67.0384387 19.6324287,70.8420821 C19.3178947,71.1934652 18.9038113,71.5798806 18.4145361,71.9981434 C17.6721512,72.6276607 16.7476118,73.3261807 15.7192869,74.0523018" id="Fill-20" fill="#663F24"></path>
                                        </g>
                                        <path d="M11.8885449,91.761658 C11.8885449,90.3713517 13.7674623,82.9311588 14.6232398,81.9300518 L14.6855864,81.9886132 C16.0281971,80.5643292 17.9041358,79.6869752 19.5049566,78.7746959 C21.3836935,77.7008413 23.1457098,76.8591428 24.9142624,75.5902346 C26.7210994,74.2927045 28.5260688,72.9983546 30.2161851,71.5025907 C30.2628734,71.5969372 30.3226344,71.7071849 30.3907993,71.8312135 C31.6261716,74.0711491 46.4142219,75.1121414 47.267684,75.1121414 L47.502993,75.1121414 L48.7430341,75.1121414 C58.8166988,74.4623163 64.6764875,71.5969372 64.7236754,71.5025907 C66.431876,72.9983546 68.2561587,74.2927045 70.082329,75.5902346 C71.8698052,76.8591428 73.6497313,77.7008413 75.5495147,78.7746959 C77.2171337,79.7149812 79.1801488,80.6181639 80.543878,82.1213483 C80.6278724,82.2125147 80.7269669,82.3619851 80.8421053,82.5538584 L80.7975211,82.5559141 C81.868958,84.4628774 84.1114551,90.5284047 84.1114551,91.761658 L88.7438374,115 L8.16163514,115 L11.8885449,91.761658 Z" id="Combined-Shape" fill="#00A2E6"></path>
                                    </g>
                                    <g id="Jane" transform="translate(264.760437, 37.328195)">
                                        <g id="Page-1" stroke-width="1" transform="translate(7.678019, 0.000000)">
                                            <g id="Group-3" transform="translate(0.000000, 29.585360)">
                                                <mask id="mask-10" fill="white">
                                                    <use xlink:href="#path-9"></use>
                                                </mask>
                                                <g id="Clip-2"></g>
                                                <path d="M44.3177725,24.5167033 L45.9384743,29.4817899 L22.9696817,29.4817899 L0.000205188427,29.4817899 L2.77260973,23.7498639 C2.77260973,23.7498639 7.76795509,19.9388265 11.2192244,17.2876997 C11.652856,16.9543449 12.0331385,16.6387508 12.3375014,16.3484316 C12.4667701,16.3368188 16.2873786,15.9481326 18.9315735,13.2744634 C20.7789533,11.4089063 22.3650598,7.02201209 26.3217767,3.27108779 C26.7971299,2.92338783 27.1083323,2.54289887 27.4701479,2.27170657 C28.2286611,1.7026809 29.1485892,0.947167828 29.985758,0.0973863975 C29.5979519,1.76279406 29.667716,5.40988655 29.6533528,6.96258204 C29.6259943,10.1287693 31.0458982,13.5552192 33.2571455,16.002781 C35.4711286,18.4510258 44.1258221,23.7498639 44.1258221,23.7498639" id="Fill-1" fill="#FFE1B5" mask="url(#mask-10)"></path>
                                            </g>
                                            <path d="M33.9121754,18.6780081 C33.9121754,18.6780081 34.6221273,19.1684768 34.8389431,20.0893011 C35.0584947,21.0176394 33.4853834,23.3989401 32.7802192,24.3429899 C33.1440867,22.9378449 33.545572,21.0285691 33.8198406,18.6663953 L33.9121754,18.6780081 Z" id="Fill-4" fill="#F0BF86"></path>
                                            <path d="M26.3218451,32.8561741 C25.6782374,33.328199 24.7377904,33.7428431 22.9690662,33.7407938 L22.9690662,1.14443505 L22.9738539,0.966828003 C24.9799127,0.969560419 33.7599256,2.13698523 34.1032742,10.6621237 C34.2257033,13.7176481 34.0827553,16.4001977 33.8201142,18.6660538 C33.5458456,21.0289107 33.1443603,22.9381865 32.7798088,24.3426484 C32.5219554,25.337931 32.2839368,26.0790989 32.1252577,26.5559055 C31.7634422,27.635893 30.9310611,28.7227115 29.9858264,29.6831558 C29.1486576,30.5329372 28.2287295,31.2877672 27.4702163,31.8567929 C27.1084007,32.1286683 26.7971982,32.5084741 26.3218451,32.8561741" id="Fill-6" fill="#FFE1B5"></path>
                                            <path d="M11.8351317,10.6617821 C12.1784803,2.12981264 20.9728563,0.966486451 22.9693397,0.966486451 L22.9741275,0.966486451 L22.9693397,1.1440935 L22.9693397,33.7404523 C19.9051926,33.7431847 19.3217735,32.4965198 18.4688736,31.8564513 C17.7096764,31.2881087 16.7904322,30.5325957 15.9532634,29.6828142 C15.0080288,28.72237 14.1756477,27.6355514 13.8138321,26.5555639 C13.6544691,26.0794404 13.4164505,25.3375894 13.1585971,24.3429899 C12.7940456,22.9378449 12.3932442,21.0285691 12.1189757,18.6663953 C11.8556505,16.4005392 11.7133866,13.7173065 11.8351317,10.6617821" id="Fill-8" fill="#FFD6A6"></path>
                                            <path d="M15.9529899,29.6828826 C16.7901586,30.532664 17.7100868,31.2881771 18.4686,31.8565196 C19.3221838,32.4965881 19.904919,33.743253 22.9690662,33.7405206 C24.7377904,33.743253 25.6782374,33.3286088 26.3218451,32.8559008 C22.3651282,36.6075082 20.7790217,40.9944024 18.9316419,42.8592765 C16.287447,45.5336288 12.4668385,45.922315 12.3403056,45.9339278 C12.4668385,45.8137014 12.582428,45.69894 12.6816024,45.5882771 C14.8921657,43.1407153 16.3127536,39.7142654 16.2853951,36.5473951 C16.2710319,34.9953827 16.340112,31.3476071 15.9256314,29.7102067 L15.9529899,29.6828826 Z" id="Fill-10" fill="#F0BF86"></path>
                                            <path d="M12.1186337,18.6662587 C12.3929022,21.0291156 12.7943876,22.9383914 13.158939,24.3428533 C12.451039,23.3988035 10.8806635,21.0175028 11.0995312,20.0891644 C11.3142951,19.1683402 12.0262989,18.6778715 12.0262989,18.6778715 L12.1186337,18.6662587 Z" id="Fill-12" fill="#F0BF86"></path>
                                            <path d="M13.1010075,3.30830373 C9.83645963,6.27434149 6.73264268,11.2623672 6.04594541,15.6765856 C5.50835173,19.1289934 6.34073279,22.5458798 6.01106338,26.0276611 C5.76894103,28.5927168 4.48924921,30.7786498 4.21292879,33.288374 C4.55832931,31.121568 5.99738415,30.4630557 7.19842041,28.7566618 C8.54719234,26.8405549 9.01980969,24.4435429 10.1613413,22.4953301 C10.4773315,21.9543117 10.857614,21.5191744 11.2768824,21.1482489 C11.6113395,20.853148 11.9711032,20.5976671 12.347282,20.36063 C13.4149458,19.6884556 14.6023028,19.1699796 15.6487638,18.3133672 C18.818925,15.7134732 17.9892798,7.34544863 22.6053355,7.14461604 L22.6053355,7.137785 L22.6053355,0.657860044 C19.9837113,-0.710397356 15.4668301,1.16199083 13.1010075,3.30830373" id="Fill-14" fill="#804F2D"></path>
                                            <path d="M39.9393802,26.0278661 C39.6117627,22.5460847 40.4441438,19.1285152 39.9044982,15.6767905 C39.2178009,11.261889 36.1167198,6.27454642 32.851488,3.30850867 C30.4029061,1.08842052 25.475648,-0.579036448 22.6789297,0.694952594 L22.6768778,0.697001906 C22.6536231,0.683339825 22.6303685,0.66899464 22.6050619,0.658064975 L22.6050619,7.13798994 C27.7470839,6.69807093 27.1499856,15.7273402 30.3037317,18.3135721 C31.3481408,19.1701846 32.5354978,19.6859281 33.6031616,20.3608349 C33.9793404,20.5958227 34.3391041,20.8513036 34.6735612,21.1477708 C35.0928296,21.5186963 35.4731121,21.9538335 35.7891023,22.495535 C36.9306339,24.4437478 37.4053032,26.8407599 38.7520232,28.7568667 C39.9578472,30.4700917 41.4010058,31.1258715 41.7423026,33.3138538 C41.4728218,30.7918337 40.1835545,28.5997528 39.9393802,26.0278661" id="Fill-16" fill="#B36E3F"></path>
                                            <path d="M39.1716335,49.8618443 C38.0000076,49.1343385 36.8194902,48.369262 35.7983358,47.6513196 C35.1369451,47.1833934 34.5418987,46.7366433 34.0597058,46.3295133 C33.7437157,46.0624196 33.4762868,45.8110373 33.2710983,45.585613 C31.060535,43.1373681 29.589334,39.7109182 29.6488386,36.5426817 C29.6837207,34.791886 29.7391215,31.1557232 30.1515503,29.5258369 C31.0324926,28.6022803 31.7978454,27.5748918 32.1391422,26.5529681 C32.2985052,26.0782108 32.5358398,25.3343105 32.7943772,24.3417603 C33.3011926,23.6627549 34.2580547,22.2371168 34.6732192,21.1482489 C35.0924876,21.5191744 35.4734541,21.9543117 35.7894443,22.4953301 C36.9302919,24.4435429 37.4056451,26.8405549 38.7516812,28.7566618 C39.9581892,30.4698867 41.4013478,31.1263497 41.7426445,33.3136489 C41.7446964,33.3300434 41.7494841,33.3484872 41.7494841,33.366931 C41.7583756,33.41953 41.7652153,33.4748614 41.7727388,33.5301928 C42.0394838,35.8056124 41.309013,37.5693871 40.8897446,39.6671996 C40.4444857,41.8961681 43.1789635,44.705775 43.8246231,46.90537 C44.4422403,49.0120629 43.5524065,50.3106437 43.3520058,52.3141878 L43.2849775,52.3094061 C42.1762761,51.6713869 40.6818204,50.7963307 39.1716335,49.8618443" id="Fill-18" fill="#663F24"></path>
                                            <path d="M10.1520394,47.6510464 C9.13293691,48.3696718 7.9503676,49.1340653 6.77874168,49.8615711 C5.27060674,50.7967405 3.77683499,51.6717968 2.66744956,52.309816 L2.59836945,52.316647 C2.39796876,50.3131029 1.50813494,49.0117896 2.12575211,46.9050968 C2.77141169,44.7055018 5.50657343,41.8965779 5.06336643,39.6669263 C4.64409807,37.5697969 3.91294331,35.8053392 4.17763638,33.5306027 C4.18721184,33.447264 4.19883919,33.3666577 4.21251842,33.2887839 C4.5586029,31.1212947 5.99697377,30.4627824 7.198694,28.7563885 C8.54746593,26.8402817 9.02008327,24.4432696 10.1616149,22.4950569 C10.4769211,21.9540385 10.8578876,21.5189012 11.277156,21.1479757 C11.6923206,22.2375267 12.6491826,23.6624817 13.1587339,24.3421702 C13.4145354,25.3347204 13.652554,26.0786207 13.8112331,26.5526949 C14.1545817,27.5732523 14.9178826,28.5999577 15.798825,29.5235144 C16.2112537,31.1540837 16.2693904,34.7922959 16.3015366,36.5424084 C16.3617252,39.7113281 14.8925761,43.137778 12.6792769,45.5853398 C12.4761404,45.8114472 12.2087114,46.0600971 11.8927213,46.3292401 C11.4132643,46.7343208 10.816166,47.1838032 10.1520394,47.6510464" id="Fill-20" fill="#663F24"></path>
                                        </g>
                                        <path d="M7.67801858,59.0466321 C7.67801858,58.1520002 8.89148606,53.3643979 9.44417569,52.7202073 L9.48444123,52.7578902 C10.351544,51.8413944 11.5630877,51.2768362 12.5969511,50.6898043 C13.8103021,49.9988022 14.9482709,49.4571875 16.0904611,48.6406727 C17.2573767,47.8057403 18.4230861,46.9728543 19.5146195,46.0103627 C19.5447724,46.0710727 19.583368,46.1420146 19.6273912,46.2218243 C20.4252358,47.6631742 29.9758517,48.3330301 30.5270459,48.3330301 L30.6790163,48.3330301 L31.4798762,48.3330301 C37.9857847,47.9148818 41.7702315,46.0710727 41.800707,46.0103627 C42.9039199,46.9728543 44.0821025,47.8057403 45.2615041,48.6406727 C46.4159159,49.4571875 47.5654515,49.9988022 48.7923949,50.6898043 C49.8693989,51.2948574 51.1371794,51.8760359 52.0179212,52.8433024 C52.0721676,52.901966 52.1361661,52.9981469 52.2105263,53.1216132 L52.1817324,53.122936 C52.873702,54.3500255 54.3219814,58.2530604 54.3219814,59.0466321 L57.3137283,74 L5.27105603,74 L7.67801858,59.0466321 Z" id="Combined-Shape" fill="#00A2E6"></path>
                                    </g>
                                    <g id="John" transform="translate(189.749518, 4.110469)">
                                        <g id="Page-1" transform="translate(3.873926, 0.000000)">
                                            <path d="M67.0281703,31.9977285 C67.5379533,33.4192681 65.068858,37.4380968 64.0854769,38.8266516 C64.5047974,36.6305006 64.9507245,33.5661038 65.2838395,29.9888462 C65.2838395,29.9888462 66.5364797,30.6379025 67.0281703,31.9977285" id="Fill-1" fill="#ECBB82"></path>
                                            <g id="Group-5" transform="translate(47.764224, 0.269944)" fill="#FFDDB1">
                                                <path d="M6.92102333,51.725421 C5.3171756,52.604307 1.83170692,53.2576194 0.109725747,53.163985 L0.0916332378,53.163985 L0.0916332378,0.495730015 L0.109725747,0.495730015 C0.109725747,0.495730015 17.383815,0.660654145 17.961711,13.5577211 C18.2118133,19.2875046 17.9649038,24.9608947 17.5200409,29.7192219 C17.1858616,33.2964795 16.7409988,36.3608762 16.320614,38.5570272 C16.0449693,39.9806949 15.78316,41.0394014 15.5639214,41.6310002 C15.1903643,42.6365054 14.454957,43.8707763 13.5354318,45.1401601 C11.6410397,47.7534095 8.96654114,50.5017903 7.072149,51.6392348 C7.02532133,51.6679635 6.97530086,51.6966923 6.92102333,51.725421" id="Fill-3"></path>
                                            </g>
                                            <path d="M47.8734179,53.434035 C49.5964634,53.5276693 53.0808678,52.874357 54.6847155,51.9954709 L54.7209005,52.0635687 C53.9248301,55.1673344 36.7763242,64.6616442 34.6520508,65.8820827 C32.5990831,67.0620883 29.1168072,70.8904561 26.3933524,69.8391978 C26.4252804,69.7923806 26.4582726,69.7466275 26.4902006,69.6998103 L26.435923,69.6210724 C27.9727221,68.5549177 29.2423905,67.5823973 30.0033402,66.8184262 C33.7037904,63.1219976 35.2299468,58.985062 35.1288416,54.194814 C35.0713713,51.5613481 35.1213917,47.8862 34.4253623,45.41021 C36.3208187,48.0234595 38.994253,50.7718403 40.8886451,51.9092848 C42.4148015,52.8307319 46.0716169,53.5308614 47.8553254,53.434035 L47.8734179,53.434035 Z" id="Fill-6" fill="#ECBB82"></path>
                                            <path d="M47.8555383,0.766099186 L47.8555383,53.4343542 C46.0718297,53.5311806 42.4150143,52.8310511 40.888858,51.90854 C38.9944658,50.7710955 36.3210315,48.0227147 34.4255751,45.4105292 C33.5060499,44.1411454 32.7706427,42.9058105 32.3970856,41.9013694 C32.1789112,41.3097705 31.9128449,40.251064 31.640393,38.8263323 C31.2210725,36.6301813 30.7751453,33.5657846 30.4452231,29.988527 C29.9971674,25.2270078 29.7491936,19.5578738 30.003553,13.8270263 C30.5739992,0.931023316 47.8555383,0.766099186 47.8555383,0.766099186" id="Fill-8" fill="#FBD2A2"></path>
                                            <path d="M30.4454359,29.9888462 C30.7753582,33.5661038 31.2212853,36.6305006 31.6406058,38.8266516 C30.6572247,37.4380968 28.1849366,33.4192681 28.6979124,31.9977285 C29.1896029,30.6379025 30.4411789,29.9888462 30.4411789,29.9888462 L30.4454359,29.9888462 Z" id="Fill-10" fill="#ECBB82"></path>
                                            <g id="Group-14" transform="translate(6.257880, 44.959063)">
                                                <mask id="mask-12" fill="white">
                                                    <use xlink:href="#path-11"></use>
                                                </mask>
                                                <g id="Clip-13"></g>
                                                <path d="M20.1353664,24.8802415 C22.8598854,25.9314998 26.341097,22.1031319 28.3940647,20.9231264 C30.5183381,19.7026878 47.666844,10.2083781 48.4639787,7.10461232 L48.4277937,7.03651462 C48.481007,7.0077859 48.5310274,6.97905718 48.5789194,6.94926443 C50.4733115,5.81288397 53.1467458,3.06343912 55.0422022,0.451253701 C54.3493655,2.92724371 54.3961932,6.60239175 54.3387229,9.2358577 C54.2418747,14.0261057 55.763774,18.1630413 59.4674171,21.8584058 C63.1646746,25.5580265 78.8370446,34.2670846 78.8370446,34.2670846 L82.5374949,43.6251989 L41.6154318,43.6251989 L41.5973393,43.6251989 L0.672083504,43.6251989 L4.37253377,34.2670846 C4.37253377,34.2670846 14.2531723,28.7767071 20.1790012,24.661052 L20.2322145,24.740854 C20.2002865,24.7866071 20.1672943,24.8334243 20.1353664,24.8802415" id="Fill-12" fill="#FFDDB1" mask="url(#mask-12)"></path>
                                            </g>
                                            <path d="M65.2424396,30.3857282 C65.2552108,30.2537889 65.267982,30.1218496 65.2796889,29.9888462 C65.7266803,25.226263 65.9746541,19.558193 65.7202947,13.8262815 C65.1487843,0.931342524 47.8693737,0.76748242 47.8693737,0.76748242 L47.8534097,0.76748242 C47.8534097,0.76748242 30.5761277,0.931342524 30.0014245,13.8262815 C29.7470651,19.558193 29.9982317,25.229455 30.4420303,29.9888462 C30.4420303,29.9888462 30.3994597,29.9313888 30.4005239,29.9303248 C31.8266394,26.6520587 32.3151371,23.4567866 32.7344576,19.9901878 C34.0498895,19.0453322 35.9655669,18.6229136 37.5044945,18.1526138 C40.4152599,17.2641516 43.139779,16.1118107 45.5056406,14.1646419 C48.187589,11.9567866 51.4272124,11.0661963 54.5572165,9.48079663 C57.6425215,7.91667746 56.2344986,10.5554635 57.6510356,12.689901 C59.0548015,14.80625 61.5292182,16.0618014 62.724388,18.3526508 C64.3037577,21.3808707 64.9955301,26.586089 65.2126402,29.9313888 L65.2424396,30.3857282 Z" id="Fill-15" fill="#52331D"></path>
                                            <path d="M83.857707,87.5906736 C84.0342618,86.4197635 83.9955776,84.8851515 84.040131,83.9238249 C84.0491036,83.7197084 84.0559635,83.5155919 84.0624919,83.3118028 C84.0560402,83.515555 84.0492834,83.7196368 84.0404503,83.9237185 C83.9959012,84.8849533 84.0345737,86.4199804 83.8580768,87.5906736 Z M89.4937428,88.5564906 L96.4267845,115 L0.137226831,115 L6.56630094,87.5906736 L6.75115609,87.5906736 C7.43023431,85.257948 9.69856517,80.196375 10.6411802,79.0188334 L10.4664102,78.8802322 C12.0042734,77.3714425 14.2179451,76.4648917 16.0985018,75.5211001 C18.2398035,74.4432411 20.248072,73.598404 22.2637904,72.3247641 C24.3231437,71.0223954 26.3803684,69.7232189 28.3066885,68.2218773 C28.3599018,68.3165757 28.4280147,68.4272345 28.5057061,68.5517256 C29.913729,70.8000139 46.7684977,71.844888 47.7412362,71.844888 L48.009431,71.844888 L49.4227753,71.844888 C60.7827425,71.1927461 67.3907655,68.3166821 67.4439787,68.2219837 C69.3702988,69.7233253 71.4275235,71.0225019 73.4868768,72.3248705 C75.5025952,73.5985104 77.5097994,74.4433475 79.6521654,75.5212065 C81.5327221,76.4649981 83.7463938,77.3715489 85.2842571,78.8803386 C85.3789618,78.9718306 85.4906896,79.1218257 85.6205039,79.3143711 C86.8586246,81.188106 89.4937454,87.3158355 89.4937454,88.5564906 Z M85.5354415,79.317955 L84.6867838,79.3537104 L85.5354415,79.317955 Z" id="Combined-Shape" fill="#00A2E6"></path>
                                            <g id="Group-25" transform="translate(83.480966, 79.305843)">
                                                <mask id="mask-14" fill="white">
                                                    <use xlink:href="#path-13"></use>
                                                </mask>
                                                <g id="Clip-24"></g>
                                            </g>
                                        </g>
                                    </g>
                                </g>
                                <g id="Gender-Neutral" transform="translate(82.222222, 0.000000)">
                                    <g id="Page-1">
                                        <path d="M135.480756,74.9638504 C136.688319,78.3255144 130.83958,87.8292608 128.510168,91.1129222 C129.503445,85.9194531 130.559748,78.6727522 131.348824,70.2132353 C131.348824,70.2132353 134.31605,71.7481268 135.480756,74.9638504" id="Fill-1" fill="#ECBB82"></path>
                                        <g id="Group-5" transform="translate(89.848739, 0.638364)" fill="#FFDDB1">
                                            <path d="M0.259915966,125.017921 L0.217058824,0.467764482 C0.259915966,0.467764482 41.1784034,7.90318161 42.5473109,38.402231 C43.1397479,51.9520521 42.5548739,58.32311 41.5010924,69.5756263 C40.7094958,78.0351431 39.6557143,85.2818441 38.659916,90.4753131 C38.0069748,93.8420096 37.3868067,96.3456442 36.867479,97.74466 C35.982605,100.122484 34.2405882,103.041294 32.062437,106.043139 C27.575042,112.222965 21.2397479,118.72235 16.7523529,121.412184 C16.6414286,121.480122 16.5229412,121.54806 16.3943697,121.615998 C12.5952101,123.694392 4.33890756,125.239348 0.259915966,125.017921 Z" id="Fill-3"></path>
                                        </g>
                                        <path d="M90.1063984,125.656537 C93.5677862,125.877964 100.567529,124.333007 103.789463,122.254613 L103.862155,122.415651 C102.262946,129.755452 67.8136927,152.207644 63.5462869,155.093743 C59.4221257,157.884226 52.4266588,166.93757 46.9555709,164.451549 C47.0197102,164.340835 47.0859876,164.232638 47.1501269,164.121925 L47.04109,163.935725 C50.1283315,161.414477 52.6789403,159.114656 54.2075952,157.308013 C61.6413477,148.56668 64.7072094,138.783633 64.5041014,127.455631 C64.3886506,121.227997 64.4891356,112.536988 63.0908974,106.681755 C66.8986378,112.86158 72.2692407,119.360965 76.0748431,122.0508 C79.1407048,124.229842 86.4868002,125.885512 90.0700528,125.656537 L90.1063984,125.656537 Z" id="Fill-6" fill="#ECBB82"></path>
                                        <path d="M90.065042,125.657291 C85.8398319,125.886267 77.1776471,124.230597 73.562521,122.049038 C69.0751261,119.359204 62.7423529,112.859819 58.252437,106.68251 C56.0742857,103.680664 54.3322689,100.759338 53.447395,98.3840304 C52.9305882,96.9850145 52.3003361,94.48138 51.654958,91.1121673 C50.6616807,85.9186983 49.6053782,78.6719973 48.8238655,70.2124804 C47.762521,58.9524156 47.1751261,52.5914225 47.7776471,39.0390852 C49.1289076,8.542552 90.065042,1.10713487 90.065042,1.10713487 L90.065042,125.657291 Z" id="Fill-8" fill="#FBD2A2"></path>
                                        <path d="M48.8243697,70.2132353 C49.6058824,78.6727522 50.6621849,85.9194531 51.6554622,91.1129222 C49.3260504,87.8292608 43.4697479,78.3255144 44.6848739,74.9638504 C45.8495798,71.7481268 48.8142857,70.2132353 48.8142857,70.2132353 L48.8243697,70.2132353 Z" id="Fill-10" fill="#ECBB82"></path>
                                        <path d="M46.9553571,164.4518 C52.428583,166.937822 59.4219119,157.884478 63.5460731,155.093995 C67.8134789,152.207895 102.262733,129.755703 103.864079,122.415902 L103.791387,122.254865 C103.898286,122.186927 103.998771,122.118989 104.09498,122.048535 C107.900583,119.361217 113.271186,112.859316 117.078926,106.682006 C115.687102,112.53724 115.781173,121.228249 115.665722,127.455882 C115.471166,138.783885 118.528476,148.566931 125.968642,157.305748 C133.395981,166.05463 164.879858,186.649855 164.879858,186.649855 L172.31361,208.779971 L90.1061846,208.779971 L90.069839,208.779971 L7.85599942,208.779971 L15.289752,186.649855 C15.289752,186.649855 35.1387478,173.666182 47.0430142,163.93346 L47.1499131,164.122176 C47.0857738,164.230374 47.0194964,164.341087 46.9553571,164.4518" id="Fill-12" fill="#FFDDB1"></path>
                                        <path d="M131.250756,78.1971874 C131.281008,77.8851767 131.311261,70.5277622 131.338992,70.2132353 C132.397815,58.9506542 132.98521,52.5921774 132.382689,39.0373239 C131.028908,8.54330687 99.1003854,1.12170286 90.0978151,1.11040595 C81.0952448,1.09910904 49.1339496,8.54330687 47.772605,39.0373239 C47.170084,52.5921774 47.765042,58.9582029 48.8163025,70.2132353 C52.0961345,62.3223831 49.2957133,61.7331782 54.998233,42.6959014 C60.7007527,23.6586245 75.7410496,19.8553372 90.0229627,20.2136841 C104.304876,20.572031 121.622465,22.1233015 125.28605,42.6959014 C128.949636,63.2685012 130.665882,62.1663778 131.180168,70.0773597 L131.250756,78.1971874 Z" id="Fill-15-Copy" fill="#F5CD9F"></path>
                                        <path d="M0.623541784,210.549457 L13.2535018,210.549457 C12.2923524,207.765386 12.47314,202.144166 12.3472753,198.99384 C12.2008144,195.06854 12.3198138,191.14324 10.9581856,187.594811 L9.67207626,186.413771 C7.52322096,188.871396 0.623541784,207.136383 0.623541784,210.549457" id="Fill-17" fill="#00B4FF"></path>
                                        <path d="M9.67299165,186.413771 L10.9568125,187.594811 C12.3207292,191.14324 12.2017298,195.06854 12.3459022,198.99384 C12.4740554,202.144166 12.2909794,207.762732 13.2521287,210.549457 L89.8236926,210.549457 L90.4003822,210.549457 L93.4394449,210.549457 L93.4394449,209.440075 L93.4394449,168.865371 L90.4003822,168.865371 L89.8236926,168.865371 C87.7320486,168.865371 51.4898532,166.25912 48.4622328,160.651169 C48.2951759,160.340649 48.148715,160.06463 48.0342925,159.828422 C43.8921965,163.573249 39.4686211,166.813811 35.0404688,170.062335 C30.706143,173.239201 26.3878363,175.346495 21.7834733,178.03502 C17.7397807,180.389139 12.9798031,182.650366 9.67299165,186.413771" id="Fill-19" fill="#00B4FF"></path>
                                        <path d="M93.4394449,209.44034 L93.4394449,210.549722 L166.969658,210.549722 C167.933095,207.762998 167.750019,202.144431 167.875884,198.994106 C168.024634,195.068806 167.903346,191.143505 169.267262,187.592423 L171.274234,187.496878 C170.995043,187.0165 170.754755,186.642282 170.551083,186.414036 C167.244272,182.650632 162.484294,180.389404 158.440602,178.035286 C153.83395,175.34676 149.517932,173.239466 145.183606,170.0626 C140.755454,166.814076 136.331878,163.573514 132.189782,159.828687 C132.07536,160.064896 117.866369,167.23872 93.4394449,168.865636 L93.4394449,209.44034 Z" id="Fill-21" fill="#00B4FF"></path>
                                        <path d="M166.970344,210.549457 L179.602593,210.549457 C179.602593,207.454866 173.936388,192.170347 171.27492,187.496612 L169.26566,187.594811 C167.904032,191.14324 168.023032,195.06854 167.876571,198.99384 C167.750706,202.144166 167.933782,207.765386 166.970344,210.549457" id="Fill-23" fill="#00B4FF"></path>
                                    </g>
                                </g>
                            </g>
                        </g>
                    </g>
                </g>
            </g>
        </g>
    </g>
</svg>