<?xml version="1.0" encoding="UTF-8"?>
<svg width="304px" height="250px" viewBox="0 0 304 250" version="1.1" xmlns="http://www.w3.org/2000/svg" xmlns:xlink="http://www.w3.org/1999/xlink">
    <!-- Generator: Sketch 52.4 (67378) - http://www.bohemiancoding.com/sketch -->
    <title>Group 4 Copy</title>
    <desc>Created with Sketch.</desc>
    <defs>
        <rect id="path-1" x="0" y="0" width="302.222222" height="248.888889"></rect>
        <polygon id="path-3" points="0.272967513 106.306715 166.218644 106.306715 166.218644 0.12343176 0.272967513 0.12343176 0.272967513 106.306715"></polygon>
        <polygon id="path-5" points="0 0.361917906 0 9.18432425 12.2773246 9.18432425 12.2773246 0.361917906 5.24365646e-21 0.361917906"></polygon>
    </defs>
    <g id="Sign-Up" stroke="none" stroke-width="1" fill="none" fill-rule="evenodd">
        <g id="Sign-Up-2019---5" transform="translate(-288.000000, -305.000000)">
            <g id="Group-10" transform="translate(280.000000, 297.000000)">
                <g id="Group-3">
                    <g id="Group-4-Copy" transform="translate(8.888889, 8.888889)">
                        <mask id="mask-2" fill="white">
                            <use xlink:href="#path-1"></use>
                        </mask>
                        <use id="Top-Base" fill="#F2F7FA" xlink:href="#path-1"></use>
                        <g id="girl-with-clippers" mask="url(#mask-2)">
                            <g transform="translate(42.666667, 36.444444)" id="Page-1">
                                <g>
                                    <g id="Group-3" transform="translate(40.239010, 106.447040)">
                                        <mask id="mask-4" fill="white">
                                            <use xlink:href="#path-3"></use>
                                        </mask>
                                        <g id="Clip-2"></g>
                                        <path d="M163.136877,85.5948038 L166.218644,106.306831 L83.2458055,106.306831 L0.272967513,106.306831 L3.35512089,85.5948038 C3.35512089,85.5948038 28.3327123,71.8217058 40.8017755,62.2440506 C42.3676146,61.0371795 43.7411578,59.8979581 44.8407661,58.8488074 L44.8496651,58.8488074 C45.3077707,58.8074445 59.1082034,57.4014898 68.661486,47.7391759 C75.3334233,40.9989436 81.0636131,25.1464862 95.3561998,11.5906405 C97.0721614,10.334675 98.1965322,8.9611922 99.5035262,7.97930472 C102.244809,5.9239127 105.567235,3.1947294 108.591352,0.12343176 L108.690789,0.223166788 C107.191499,6.14039183 107.441445,19.3216514 107.390759,24.9303936 C107.291709,36.3724753 112.422183,48.7550815 120.409626,57.6005733 C128.405195,66.4460652 163.136877,85.5948038 163.136877,85.5948038" id="Fill-1" fill="#FFE1B5" mask="url(#mask-4)"></path>
                                    </g>
                                    <path d="M163.013916,66.8028691 C163.013916,66.8028691 165.579153,68.5741323 166.362653,71.9028855 C167.153891,75.2567657 161.473613,83.8618111 158.92424,87.2732902 C160.240133,82.1976278 161.689898,75.2981287 162.68117,66.7603465 L163.013916,66.8028691 Z" id="Fill-4" fill="#F0BF86"></path>
                                    <path d="M135.595171,118.037758 C133.271368,119.744464 129.873106,121.242035 123.484777,121.233144 L123.484777,3.44182486 L123.502188,2.80089201 C130.747531,2.80978312 162.464383,7.02842015 163.705214,37.8349465 C164.146296,48.8773149 163.63054,58.5721007 162.681441,66.7604238 C161.689782,75.298206 160.240404,82.1977051 158.924511,87.2733675 C157.992436,90.8684673 157.133488,93.5477831 156.558921,95.2699519 C155.251153,99.1731479 152.244835,103.100311 148.830323,106.570549 C145.806206,109.641847 142.48378,112.37103 139.742884,114.426422 C138.435503,115.407923 137.311132,116.781406 135.595171,118.037758" id="Fill-6" fill="#FFE1B5"></path>
                                    <path d="M83.2644161,37.8350624 C84.5056348,7.00418221 116.272011,2.80100799 123.484854,2.80100799 L123.502265,2.80100799 L123.484854,3.44194083 L123.484854,121.23326 C112.415644,121.242151 110.309287,116.739385 107.227133,114.426538 C104.486238,112.371146 101.163424,109.641576 98.1393077,106.570665 C94.7247956,103.100427 91.7184773,99.1728773 90.4107094,95.2696813 C89.8365297,93.5478991 88.9775816,90.8685833 88.0455069,87.2734835 C86.7296139,82.1978211 85.2798488,75.298322 84.2885763,66.7605397 C83.3390904,58.5722167 82.8237215,48.8774309 83.2644161,37.8350624" id="Fill-8" fill="#FFD6A6"></path>
                                    <path d="M98.1394625,106.570626 C101.163579,109.641537 104.486006,112.371107 107.227288,114.426499 C110.309055,116.739347 112.415799,121.242113 123.484622,121.233222 C129.872952,121.242113 133.2716,119.744541 135.595016,118.037835 C121.302816,131.593681 115.57224,147.446138 108.900302,154.18637 C99.3474066,163.848298 85.5469739,165.254639 85.0888683,165.295615 C85.5469739,164.862657 85.9632929,164.446708 86.3211879,164.047768 C94.3082444,155.201889 99.4391051,142.81967 99.3392814,131.377588 C99.2897565,125.768459 99.5389288,112.5872 98.0400257,106.670361 L98.1394625,106.570626 Z" id="Fill-10" fill="#F0BF86"></path>
                                    <path d="M84.2885376,66.7604238 C85.280197,75.298206 86.7295752,82.1977051 88.0454682,87.2733675 C85.4883565,83.8618884 79.8158169,75.256843 80.6070551,71.9029628 C81.3824299,68.5742096 83.9557919,66.8029465 83.9557919,66.8029465 L84.2885376,66.7604238 Z" id="Fill-12" fill="#F0BF86"></path>
                                    <path d="M87.8371926,11.2621721 C76.0432936,21.9802083 64.8324734,40.0048018 62.3511968,55.9573808 C60.4104384,68.4312174 63.4175305,80.780192 62.2258368,93.3626548 C61.3514121,102.632214 56.7289559,110.529836 55.7291713,119.599925 C56.9789021,111.769566 62.1763118,109.389455 66.5155474,103.223279 C71.3875628,96.2994261 73.0950124,87.637555 77.2179632,80.5973445 C78.3589713,78.6413009 79.7336751,77.0687347 81.2492155,75.7288835 C82.4567727,74.6634969 83.7564154,73.7403681 85.114095,72.8829561 C88.9700755,70.4533644 93.2590123,68.58082 97.0407054,65.485555 C108.49296,56.0903608 105.494767,25.8501593 122.16958,25.126114 L122.16958,25.1009869 L122.16958,1.68451688 C112.699484,-3.25893866 96.3825654,3.50642069 87.8371926,11.2621721" id="Fill-14" fill="#804F2D"></path>
                                    <path d="M184.786122,93.3626548 C183.603714,80.780192 186.609646,68.4312174 184.660762,55.9573808 C182.179485,40.0048018 170.97679,21.9802083 159.182891,11.2621721 C150.337661,3.23968748 132.538476,-2.78423085 122.435777,1.81788348 L122.427651,1.82600145 C122.344465,1.7753608 122.260892,1.72587985 122.16958,1.68451688 L122.16958,25.1009869 C140.742978,23.5114116 138.585935,56.1398417 149.979766,65.485555 C153.752947,68.58082 158.041883,70.4452465 161.898251,72.8829561 C163.255543,73.7322501 164.555186,74.6553789 165.76313,75.7288835 C167.278284,77.0687347 168.652988,78.6413009 169.794383,80.5973445 C173.916947,87.637555 175.632521,96.2994261 180.496412,103.223279 C184.852671,109.414969 190.066718,111.786188 191.299425,119.691542 C190.324403,110.579317 185.668672,102.657341 184.786122,93.3626548" id="Fill-16" fill="#B36E3F"></path>
                                    <path d="M182.012803,179.490268 C177.781516,176.860433 173.516955,174.097618 169.827735,171.501028 C167.437383,169.812491 165.288078,168.197789 163.547741,166.725344 C162.406346,165.759693 161.440222,164.8528 160.699283,164.037137 C152.71184,155.191259 147.397195,142.809039 147.614254,131.35884 C147.73884,125.03417 147.938874,111.894273 149.429652,106.002175 C152.611629,102.665691 155.376513,98.9542334 156.60922,95.2593985 C157.1834,93.5453477 158.041961,90.8571408 158.974809,87.2709321 C160.807232,84.8158269 164.263531,79.6655564 165.763208,75.7291154 C167.278361,77.0689666 168.653065,78.6411463 169.794073,80.5971898 C173.917024,87.6374004 175.632599,96.2992715 180.496489,103.223511 C184.852749,109.414814 190.066796,111.786034 191.299502,119.691774 C191.307627,119.750146 191.324265,119.816636 191.324265,119.883513 C191.357539,120.074092 191.382689,120.274335 191.407838,120.474192 C192.373574,128.69576 189.733276,135.070297 188.218123,142.650546 C186.609723,150.706275 196.4884,160.857987 198.820328,168.805477 C201.052819,176.419357 197.837568,181.113088 197.112878,188.352382 L196.871444,188.33576 C192.865728,186.030644 187.467897,182.868502 182.012803,179.490268" id="Fill-18" fill="#663F24"></path>
                                    <path d="M77.1845339,171.501222 C73.5030514,174.097425 69.2307519,176.860626 64.9994653,179.490461 C59.5521093,182.868309 54.1554391,186.03045 50.1485623,188.335953 L49.89939,188.361467 C49.1747009,181.121013 45.9598362,176.419164 48.1919405,168.80567 C50.5238684,160.857793 60.4025453,150.706468 58.8030447,142.650352 C57.2871174,135.070104 54.6468193,128.695566 55.6040434,120.473998 C55.6377049,120.174407 55.6798785,119.88332 55.7294034,119.599964 C56.9787473,111.769605 62.1761571,109.389494 66.5157795,103.223318 C71.3874081,96.2994648 73.0948576,87.6375936 77.2178084,80.5973831 C78.3592034,78.6413396 79.7339073,77.0687733 81.2490608,75.7289221 C82.7487377,79.6653632 86.2046496,84.8160201 88.0455843,87.2707388 C88.9703077,90.8573341 89.8284819,93.5451544 90.4026616,95.2592053 C91.6438803,98.9463087 94.4002525,102.657379 97.5822296,105.994251 C99.0730075,111.885962 99.2815539,125.033977 99.397628,131.358646 C99.6150734,142.808846 94.3093278,155.191452 86.3129854,164.036944 C85.5801711,164.852993 84.6140479,165.750995 83.472653,166.725151 C81.7408279,168.189864 79.583011,169.812684 77.1845339,171.501222" id="Fill-20" fill="#663F24"></path>
                                    <path d="M182.595882,211.528135 L182.595882,212.751242 L123.535075,212.751242 L123.484777,212.751242 L64.4162318,212.751242 L64.4162318,211.528135 C68.8224033,199.978201 66.6572351,189.434507 64.9993105,179.490384 C69.2305972,176.860549 73.5032835,174.097734 77.1843791,171.501144 C79.9662876,174.039749 93.584484,184.899656 123.484777,184.899656 L123.535075,184.899656 C153.435755,184.899656 167.053951,174.039749 169.827735,171.501144 C173.516955,174.097734 177.781516,176.860549 182.012803,179.490384 C180.354879,189.434507 178.198222,199.978201 182.595882,211.528135" id="Fill-30" fill="#00B4FF"></path>
                                    <path d="M163.547586,166.725189 C165.28831,168.197634 167.437228,169.812723 169.82758,171.50126 C167.054183,174.039865 153.4356,184.899385 123.535307,184.899385 L123.485009,184.899385 C93.5843292,184.899385 79.9661328,174.039865 77.1846112,171.50126 C79.5830884,169.812723 81.7409053,168.189903 83.4727303,166.725189 C83.4727303,166.725189 97.940202,177.127012 123.485009,175.462828 L123.535307,175.462828 C149.080114,177.127012 163.547586,166.725189 163.547586,166.725189" id="Fill-32" fill="#00A2E6"></path>
                                    <polygon id="Fill-34" fill="#FBD2A2" points="23.7580786 126.094492 21.1096553 100.936912 10.650995 97.0472456"></polygon>
                                    <path d="M22.0445932,155.491701 L43.7067224,147.569725 L46.2309465,122.126855 L42.9379252,122.398227 L30.4050213,106.46575 L0.0984694997,118.895518 C2.89198537,128.999294 5.93544739,139.367872 12.2189235,147.660955 C14.7485643,150.998986 19.0545253,155.027044 22.0445932,155.491701" id="Fill-36" fill="#FBD2A2"></path>
                                    <polygon id="Fill-38" fill="#FBD2A2" points="44.8091552 212.753755 43.1845052 139.547858 18.5559098 148.880815 14.8272239 212.56047"></polygon>
                                    <path d="M43.7068772,147.569879 L54.7025735,127.199193 L57.8485676,113.682391 C56.7690788,109.781128 56.7307744,106.065032 56.9164929,102.046251 C50.958798,100.622901 49.1751265,108.89395 49.9044585,113.930182 L41.2553929,132.148834 L43.7068772,147.569879 Z" id="Fill-40" fill="#FBD2A2"></path>
                                    <polygon id="Fill-42" fill="#2D2B33" points="29.6575817 76.2366817 27.4645557 68.2520809 26.7038837 68.4341554 28.8473848 76.4137307"></polygon>
                                    <path d="M53.4329167,58.5018223 L54.6393132,58.4647116 L59.4714766,72.712904 C59.4714766,72.712904 59.8402052,84.5659094 59.7171667,85.1936989 C59.5976104,85.8207152 59.0358119,85.918904 58.9580423,86.6247806 C58.8783381,87.33259 59.608444,92.6587497 59.2462929,93.9757933 C58.8841418,95.2947697 57.3898816,96.4065446 57.128715,96.3961073 C56.8663876,96.3825773 29.0492376,74.403374 29.0492376,74.403374 L27.5460784,68.7787824 L26.9970481,68.6141036 L25.6111237,57.7159258 L26.3981059,57.7522633 L30.9331197,68.9233595 L31.6191174,68.9627897 C31.6191174,68.9627897 30.385637,57.8500655 30.5694209,57.9045719 C30.7504965,57.9602379 31.1927387,57.9246735 31.1927387,57.9246735 L36.0914512,69.8399167 L34.8409466,58.0530147 L35.6414707,57.9273795 L40.2422598,69.2875083 L39.269946,58.1164122 L40.1331502,58.0101054 L44.9308782,69.9265083 L43.8583539,58.0943777 L44.6844143,58.1094539 L49.4566061,69.7873432 L48.5113763,58.1917933 L49.2337439,58.1090673 L53.9312614,69.3663686 L53.4329167,58.5018223" id="Fill-44" fill="#41404D"></path>
                                    <polygon id="Fill-46" fill="#2D2B33" points="49.8812824 70.7605328 48.849384 58.1641535 47.8101342 58.2480392 48.8431933 70.8455782"></polygon>
                                    <polygon id="Fill-48" fill="#2D2B33" points="45.4135916 70.6765312 44.3813062 58.0797653 43.3428303 58.1640376 44.3751156 70.7619632"></polygon>
                                    <polygon id="Fill-50" fill="#2D2B33" points="40.7967843 70.6461082 39.764112 58.0485691 38.725636 58.1328414 39.7579214 70.730767"></polygon>
                                    <polygon id="Fill-52" fill="#2D2B33" points="36.3519988 70.5562307 35.3193265 57.9586917 34.2812374 58.0441236 35.3131359 70.6408895"></polygon>
                                    <polygon id="Fill-54" fill="#2D2B33" points="31.7750049 70.5375207 30.7427195 57.9399817 29.7046304 58.025027 30.7365289 70.6217929"></polygon>
                                    <path d="M55.9566764,95.6470508 C55.9566764,95.6470508 56.0978999,96.2883702 56.8663102,96.3826933 C57.6335598,96.4797223 58.7799846,95.7614755 56.7471408,78.3677641 C56.0692683,75.9760563 56.204688,76.4140399 56.204688,76.4140399 L57.5136166,75.8106044 L56.3873112,69.3707368 L55.1387412,69.4279492 L54.1969936,58.4984592 L53.2703356,58.4860889 L53.931184,69.3664846 L55.3260073,69.4279492 L55.8015241,75.0993158 L53.846063,75.1847477 L53.5752235,72.1122904 L52.3966848,70.4987477 L30.2400801,69.9815172 L29.5119088,73.744775 L55.9566764,95.6470508" id="Fill-56" fill="#2D2B33"></path>
                                    <path d="M52.1860104,76.6387917 L53.2550525,76.0639623 L52.9501647,72.7549241 L52.5992341,69.2669042 L51.8540386,72.4271129 L51.512007,69.2390711 L50.9664589,72.3934813 L50.7261855,69.2035067 L50.1160229,72.2388534 L50.0042049,69.2862327 L49.1688585,72.1885993 L49.1812397,69.373984 L48.4252106,72.2322817 L48.4604198,69.4555503 L47.6548657,72.0343579 L47.5117077,69.404523 L46.7487142,72.0621909 L46.6655278,69.3492436 L45.9628928,72.0266265 L45.7818172,69.4176664 L44.9364111,72.0188951 L44.8129857,69.3260494 L44.2140435,72.1012345 L44.0109139,69.4520711 L43.4324781,72.1654051 L43.1612517,69.2982163 L42.484153,72.1143779 L42.2562609,69.3272091 L41.557495,72.104327 L41.235583,69.5185612 L40.5944672,72.2144995 L40.3603845,69.2239949 L39.7482873,72.1596065 L39.6209927,69.3693452 L38.8390404,72.0865448 L38.8351713,69.3314613 L38.0563143,72.1518751 L37.9475916,69.2982163 L37.225224,71.9365557 L37.0062309,69.4493652 L36.3202332,71.9636156 L36.2842502,69.5320911 L35.5344117,71.9280512 L35.497268,69.495367 L34.6681123,71.935396 L34.6058192,69.2622653 L33.8826778,71.8998316 L33.6791612,69.2502817 L33.0956956,71.8631074 L32.9567936,69.3330076 L32.2131458,71.9303706 L32.07347,69.4010439 L31.1680923,71.9841038 C31.1680923,71.9841038 31.1413952,69.1888171 31.043893,69.2924178 C30.9460039,69.3960185 30.3698896,72.209474 30.3698896,72.209474 L30.1570871,69.2599459 L29.4068618,72.3196465 L29.6065091,73.5404341 L29.8436872,74.07622 L52.1860104,76.6387917" id="Fill-58" fill="#2D2B33"></path>
                                    <path d="M29.8744081,69.2082229 L29.1241827,72.2679234 L29.3215086,73.4887111 L29.4735657,73.8288926 C29.5733893,73.7183336 29.6592842,73.6286494 29.726994,73.5633191 C29.7869656,73.5061067 29.8333953,73.4678363 29.8635745,73.4512138 C30.340252,73.1960777 51.77062,73.6962991 51.8990753,73.933653 C51.9397012,74.0086475 52.0418464,75.0431085 52.159855,76.4490632 L52.9712128,76.0114661 L52.6663249,72.7043608 L52.4051582,70.0903753 L52.3177158,69.2140214 L52.0155363,70.489702 L51.7613341,71.5635931 L51.5694249,72.3753898 L51.3399852,70.2337927 L51.2281672,69.1885078 L51.0072396,70.4661212 L50.8776235,71.2149071 L50.6826191,72.342918 L50.5228238,70.2167837 L50.4423458,69.1529434 L50.1827268,70.4467927 L50.0693611,71.0104116 L49.8333438,72.1871303 L49.7559611,70.1483608 L49.7215258,69.2345096 L49.3779466,70.4282374 L49.1732693,71.1383662 L48.8857925,72.1368762 L48.8935308,70.461869 L48.8935308,70.4170269 L48.8985607,69.3203281 L48.6099232,70.4104552 L48.4400681,71.051388 L48.1413709,72.1793989 L48.1638118,70.4050432 L48.1638118,70.4000178 L48.1761931,69.4049869 L47.867823,70.3930595 L47.6105255,71.2168399 L47.371026,71.9837946 L47.2766191,70.2233554 L47.2301894,69.3539597 L46.9372959,70.3714116 L46.7198505,71.1271557 L46.4660352,72.0108544 L46.413028,70.3111067 L46.381688,69.2986802 L46.1054317,70.3516966 L45.9007545,71.1329543 L45.6798268,71.97529 L45.5517584,70.1255532 L45.4991382,69.3659434 L45.1849644,70.3304352 L44.8990353,71.2083354 L44.6525713,71.9660123 L44.5809923,70.4023372 L44.5767363,70.3161321 L44.5291459,69.275486 L44.3062837,70.309947 L44.1372025,71.0958436 L43.9313645,72.049898 L43.8056176,70.4139343 L43.7967185,70.2979633 L43.7278479,69.4003481 L43.5370995,70.2917782 L43.3417082,71.206016 L43.1474776,72.113682 L42.9609853,70.1313517 L42.8774119,69.2453336 L42.6313349,70.2705169 L42.4088596,71.195192 L42.2003132,72.0638145 L42.0451609,70.1657564 L41.9724211,69.2743263 L41.7271179,70.2496421 L41.4593738,71.3158018 L41.274816,72.0506711 L41.0542753,70.2813408 L41.0480846,70.2337927 L40.9529039,69.4668381 L40.7718284,70.2272211 L40.5214953,71.2783045 L40.3106274,72.1620033 L40.1570227,70.199388 L40.0765447,69.1734316 L39.8614208,70.2059597 L39.6954349,71.0015205 L39.4644475,72.1086566 L39.3785527,70.2113717 L39.3777788,70.1947492 L39.3379267,69.3156893 L39.0875937,70.1877909 L38.8376475,71.059506 L38.5571352,72.0363681 L38.553653,70.3509234 L38.553266,70.1754207 L38.5513315,69.2789652 L38.3056414,70.1696221 L38.0200992,71.2052428 L37.7732483,72.1001521 L37.7001217,70.2009343 L37.698574,70.1557056 L37.6637518,69.2472664 L37.4169009,70.1487474 L37.152639,71.1124661 L36.9413842,71.883673 L36.7955178,70.2210359 L36.7881664,70.1340577 L36.7235518,69.3976421 L36.5235175,70.1282592 L36.3049114,70.9272991 L36.0352326,71.9118926 L36.0139524,70.3949924 L36.0100832,70.1158889 L36.0031188,69.6257183 L36.0011842,69.4803681 L35.9764218,69.5600015 L35.8038583,70.1112501 L35.5206376,71.015437 L35.2505719,71.8771013 L35.227744,70.2890722 L35.2250356,70.0977201 L35.2153628,69.4448036 L34.9948221,70.0923082 L34.6489214,71.1070541 L34.3846594,71.8828998 L34.3451942,70.2121448 L34.3420989,70.0772319 L34.3219794,69.211702 L34.0863491,70.0710468 L33.8174441,71.0529343 L33.5996118,71.8481085 L33.4711565,70.1819924 L33.4614837,70.0563572 L33.3949345,69.1997183 L33.2053469,70.0505586 L33.0378133,70.8035967 L32.8130165,71.811771 L32.7224788,70.1518399 L32.7162882,70.0393481 L32.6748884,69.2824443 L32.4593776,70.033163 L32.1649363,71.0591194 L31.929306,71.8798073 L31.830643,70.0934679 L31.826387,70.0184733 L31.7896302,69.3485477 L31.5570951,70.0119016 L31.1554789,71.1573082 L30.8842525,71.9312211 C30.8842525,71.9312211 30.8734189,70.8225387 30.8409182,70.0281376 C30.8405312,70.0173136 30.8401443,70.0061031 30.8397574,69.9952791 C30.8207987,69.5472446 30.7952624,69.2078363 30.7604401,69.2410813 C30.7604401,69.2414679 30.7600532,69.2414679 30.7600532,69.2418544 C30.7287132,69.2750995 30.6486221,69.5835822 30.5546021,69.9887074 C30.4710288,70.3462846 30.3766219,70.7788563 30.2942093,71.1634933 C30.1777483,71.7085568 30.0860498,72.1565913 30.0860498,72.1565913 L29.9413441,70.1402428 L29.8744081,69.2082229" id="Fill-60" fill="#C2C2CC"></path>
                                    <path d="M52.4985592,98.3286087 C52.4985592,98.3286087 55.9521495,96.7745978 56.1332251,94.8374962 C56.3150745,92.9023274 55.2266866,81.2313964 55.2266866,81.2313964 C55.2266866,81.2313964 54.885042,80.5981949 54.647477,80.725763 C54.410299,80.853331 54.3329163,83.5512022 54.3329163,83.5512022 L52.6823431,84.8485307 L50.2184776,89.7521695 L52.4985592,98.3286087 Z" id="Fill-62" fill="#2D2B33"></path>
                                    <path d="M49.8569842,87.1897525 C49.8569842,87.1897525 24.7517113,79.8855147 24.9029945,79.5986799 C25.0546646,79.3122316 29.3892572,73.7069684 29.8636132,73.4514457 C30.3402907,73.195923 51.7706587,73.6961445 51.899114,73.9338849 C51.9853957,74.0935383 54.5506326,94.1352534 54.4330109,94.5283949 C54.2136309,95.2593985 52.9410722,95.7414512 52.6613337,95.790159 L51.0335884,87.7866163 C50.3700316,87.4638305 49.8569842,87.1897525 49.8569842,87.1897525" id="Fill-64" fill="#007EB3"></path>
                                    <path d="M15.6333196,161.305828 L21.946588,158.999165 C21.946588,158.999165 32.7507622,145.686472 33.2711609,145.134064 C33.7911727,144.581655 35.8952086,128.795301 35.8952086,128.795301 C35.8952086,128.795301 46.0106766,79.625933 47.0928738,79.8617407 C48.1735234,80.0944557 50.8006664,85.2157334 52.2194784,89.3551236 C53.6363558,93.4945138 53.0424435,103.755238 53.0424435,103.755238 C53.0424435,103.755238 51.2622543,120.370398 46.6908706,125.56435 C40.4406691,132.664479 37.6134917,155.214646 36.7057925,159.496681 C35.3047785,166.107412 26.2188875,166.180474 22.3021616,165.261597 C21.5608352,165.087641 20.9131419,164.868456 20.3497958,164.62685 C20.3474743,164.626076 20.3459267,164.624917 20.3436052,164.624144 C20.0723788,164.528274 19.8352008,164.429699 19.6425178,164.327258 C16.9693321,162.907773 15.6333196,161.305828 15.6333196,161.305828" id="Fill-66" fill="#0090CC"></path>
                                    <path d="M38.2919833,78.2045543 C41.6720601,78.153527 45.2633918,77.9876886 46.7027102,79.3909372 C48.1416417,80.7941858 50.9382529,82.6914708 49.9779334,91.5157013 C49.017614,100.340705 45.9257878,114.808082 44.8815081,119.185213 C43.8372284,123.562344 41.4317868,123.904072 39.5517739,129.005248 C37.6706002,134.102944 33.9434619,154.712531 33.9434619,154.712531 C33.9434619,154.712531 32.8798365,160.73413 28.0906205,162.066636 C23.957223,163.216681 16.8515556,162.558353 15.6331648,161.305866 C14.7525496,160.40052 14.0824153,158.165373 14.2422106,156.343082 C14.3989106,154.552491 14.1408392,136.494652 14.4070357,131.662915 C14.6759407,126.778219 14.0460454,122.193886 13.094625,117.116291 C11.9137648,110.815975 17.2910894,91.5663419 17.2910894,91.5663419 C17.2910894,91.5663419 20.4680366,81.5452911 24.7894741,78.9448356 C26.5185908,77.6042113 34.9115196,78.2555815 38.2919833,78.2045543" id="Fill-68" fill="#00B4FF"></path>
                                    <polygon id="Fill-70" fill="#2D2B33" points="26.9969707 68.613949 26.0385858 57.684459 25.0001098 57.7687312 25.894654 68.6815987"></polygon>
                                    <path d="M19.426504,109.309513 L19.426504,109.309513 C20.3047978,107.479877 19.5301968,105.280295 17.698935,104.403168 L11.5419796,101.453253 C9.71071771,100.576126 7.5095665,101.349652 6.63127273,103.179287 C5.7514313,105.012402 6.52757989,107.208505 8.35884175,108.085632 L14.5154102,111.035547 C16.3466721,111.912674 18.5466626,111.142627 19.426504,109.309513" id="Fill-72" fill="#FFDDB1"></path>
                                    <path d="M16.2674709,115.891406 L16.2690185,115.887927 C17.1473123,114.058291 16.3711637,111.862188 14.5399019,110.984674 L8.38294646,108.035146 C6.55207152,107.157633 4.35208105,107.928066 3.47378728,109.757702 L3.47223962,109.761181 C2.59433277,111.590816 3.37048136,113.786533 5.2013563,114.664046 L11.3583117,117.613575 C13.1895736,118.491088 15.3891771,117.721041 16.2674709,115.891406" id="Fill-74" fill="#FFDDB1"></path>
                                    <g id="Group-78" transform="translate(0.000000, 113.791868)">
                                        <mask id="mask-6" fill="white">
                                            <use xlink:href="#path-5"></use>
                                        </mask>
                                        <g id="Clip-77"></g>
                                        <path d="M2.09080347,7.35302287 L8.56231959,9.13008457 C9.92077308,9.38792668 11.3422935,8.71220254 11.9687065,7.40714265 C12.7177712,5.84656007 12.0557621,3.97401561 10.4968874,3.22716261 L5.27239363,0.724122686 C3.44113177,-0.153004356 1.24152822,0.617429401 0.363234445,2.44667804 L0.361686791,2.45015717 C-0.516606979,4.27979238 0.259541613,6.47589583 2.09080347,7.35302287" id="Fill-76" fill="#FFDDB1" mask="url(#mask-6)"></path>
                                    </g>
                                    <path d="M17.8382625,101.723079 C19.3971372,102.469932 21.2744418,101.810057 22.0219588,100.252954 C22.6499195,98.9444145 22.2869946,97.4139844 21.2353635,96.5171423 L15.7969066,92.5880461 C13.9660317,91.7105325 11.7644936,92.4840588 10.8865867,94.313694 C10.0082929,96.1433292 10.7828939,98.3429118 12.6137688,99.2200388 L17.8382625,101.723079 Z" id="Fill-79" fill="#FFDDB1"></path>
                                </g>
                            </g>
                        </g>
                    </g>
                </g>
            </g>
        </g>
    </g>
</svg>